M48
;Layer_Color=9474304
;FILE_FORMAT=2:5
INCH,LZ
;TYPE=PLATED
T1F00S00C0.01181
T2F00S00C0.01299
T4F00S00C0.03200
T6F00S00C0.03937
T7F00S00C0.04331
T8F00S00C0.04400
T9F00S00C0.04409
T10F00S00C0.05118
;TYPE=NON_PLATED
T11F00S00C0.03150
T12F00S00C0.17717
T13F00S00C0.25591
%
T01
X0131595Y0102953
X0102953Y0135236
X0181693Y0142815
X0190256
X0191929Y0154134
X0254626Y0154528
Y0142421
X0245177
X0227944Y0102453
X0279232Y0102453
X0307382Y0140945
X0163386Y0102953
X0345472
X0401476
X0436909
X0463091Y0143012
X0379528Y0141831
X0371949
X0380512Y0153347
X0317717Y0140945
X0469882Y0143012
X0525098Y0143307
X0533366
X0586221Y0143701
X0597342
X0615354Y0102953
X0565166
X0498524Y0102953
X0686909Y0103051
X0748573Y0102953
X072126Y0142421
X071437
X0659154
X0650886
X0777559Y0142224
Y0155905
X0784055
Y0142224
X080876Y0102453
X0836122Y0102953
X0864468Y0135335
Y0179626
Y0223917
Y0270177
Y0296457
X0829437Y0250394
Y0240748
X0818406Y0241634
X081811Y0250394
X0807283
X0806201Y0241634
X0796307
X0788484
X0788189Y0250394
X0796307
X0800886Y0266043
X0783169Y0267323
X0783268Y0258563
X0787106Y0178051
X0783858Y0173622
X0776181
X0740453Y016565
X072126Y0157972
X071437
X0710827Y0175
X0721555Y0174508
X0718363Y0215256
X0707972
Y022404
Y0232825
X0711811Y0233858
X0707972Y0241609
Y0250394
X0718251Y0250394
X0728656
X0739061
X0749466
X0759871
X076811Y0248425
X0775492Y0250394
X0780376
X0780709Y0241634
Y0235039
Y0228445
Y022185
Y0215256
X0770318
X0759927
X0749536
X0739145
X0728754
X0731201Y0223721
X0725984Y0233858
X074311Y0235827
X0745768Y0203346
X0754823Y0197638
X069685
X0689764Y0195276
X0669095Y0203445
X0640945Y0195374
X0632677Y0193504
X0650197Y0175787
X0658169Y0175295
X0659154Y0156299
X0650787
X0674902Y0165551
X0659154Y024626
X0647342Y0235335
X0641634Y0236713
X0641732Y0292028
X0649508Y0295276
X0661909Y030748
X071063Y0296457
X0698032Y0281791
X0682776Y0266929
X076998Y0275492
X0775492
Y0290846
X076998
Y0304724
X0775492
X0546752Y0272146
X0550492Y0252362
X0546949Y0225492
X0545866Y0203445
X0568504Y0191634
X0577165Y0193504
X0586221Y0174114
X0595079Y0173819
X0597342Y0156496
X0587008
X0609055Y0165748
X0606496Y0203445
X0549213Y0165748
X0533366Y0157579
X0525098Y0157087
X0520866Y0173721
X0532087Y0173524
X0515551Y0191634
X0508661Y0188583
X0484055Y0166141
X0469882Y0157087
X0469587Y0175591
X0471555Y0207185
X0468898Y0304134
X0469291Y0309449
X0461909Y0306693
X0461221Y0301476
X0466365Y0299016
X0467618Y0292717
X0450886Y028435
X0449016Y027815
X0439862Y0280906
X0438878Y0309449
X0455314Y0312007
X0404429Y0309154
X0389567Y0309744
X039252Y0289862
X0414075
X0409252Y0280413
X0406299Y0254724
X0397441Y0257185
X0391732Y0257283
X039498Y0264075
X039941Y0261417
X0425886Y0247539
X0438484Y0239665
X0445472Y0235236
X043061Y0227362
X0455512Y0249213
X0461811Y0200591
X0463091Y0175591
X0462697Y0157087
X0370768Y0157874
X0371457Y0176083
X0382579
X0378248Y0201279
X0372638Y0201378
X0375394Y0206496
Y0225689
X0382972Y0228543
X0389764Y0215158
X0389862Y0199803
X0347638Y0189961
X0343799Y0186221
X0326575Y0199114
X0316339Y0200591
X0312598Y0196949
X0315551Y0189665
X0326673Y0214567
X0328192Y0235335
X032815Y0247146
X0314665Y0247244
X0316142Y0228051
X034498Y0231299
X0345276Y0241929
X0344094Y0247047
X0347933Y0249606
X0351083Y023937
X0356693Y0225492
X035059Y0274213
X0337992Y028189
X0373622Y0280709
X0323228Y0305118
X031752Y0312008
X0329331Y0312205
X0315256Y0298031
X0320866Y0157776
X0307087
X0309252Y0183661
X0308366Y0200689
X0294488Y0190059
X0289665Y0193602
X0269193Y0205709
X026437Y0214961
X0253346Y0228642
X0248622Y0235335
X024252Y0225787
X0234842Y0225689
X022559Y0235335
X0224016Y0241339
X0233563Y0249311
X0234842Y0254035
X0239764Y0254724
X024685Y0260335
X0234449Y0264272
X0234252Y0270374
X0228543Y0270472
X0212303Y0291634
X0215453Y030502
X02125Y0310531
X0198327Y0306102
X0203051Y0300787
X0197244Y0280709
X0189272Y0287205
X0179429Y0287795
X0180413Y0275394
X0173425Y0274803
X017313Y0260531
X0167717Y0260236
X0180217Y0250689
X0177165Y0245669
Y0239764
X0167717Y023376
X0157972Y0239961
X019065Y0229035
X0201181Y0231988
X0203839Y0253642
X0201279Y0199508
X0191929Y0193405
X0186909Y019813
X0183858Y0204232
X0189961Y0204331
X0182972Y0186319
X0189469Y0177362
X0181693Y0157579
X0241339
X024626Y0175591
X0254331
X0247047Y0184744
X0253051Y0190945
X0252953Y0200984
X0246555Y0200886
X0249705Y0204429
X0242126Y0210433
X0230217Y0190059
X0286614Y0225984
X0288779Y0234941
X0302166
X0299606Y022559
X0302165Y0265059
X0311417Y0272539
X0310827Y028189
X0308563Y029124
X0299803Y0299016
Y0310728
X0286614Y0311417
X0280217Y030561
X0281102Y0293799
X0272342Y0299705
X0154823Y0251279
X0139272
X0138681Y0241339
X0102953Y0223819
Y0179528
Y0268504
Y0296358
Y0321063
Y0366634
Y040326
X011437Y0394094
X0122441Y0384449
X0131496Y0402559
X0135236Y0408169
X0139469Y0366437
X0145079Y0363779
X0155118
X0152165Y0339961
X0139469Y0338386
X0139272Y034941
X0102953Y0439887
X0160216Y0407185
X0181693Y0406717
X0181496Y0411811
X0186417Y0416732
Y0421654
X0190551Y038563
X0184449Y0381496
X0209858Y0375984
Y0369685
Y0363386
X0217106Y034685
Y0340059
X0201831
X0201579Y034685
X0186051
X0186555Y0340059
X017128
X0170524Y034685
X0157677Y0347146
X022559Y0349803
X0234449Y0354724
X0232382Y0340059
X023248Y0330512
X0221161Y0327559
X0224213Y0322047
X0211614Y0318209
X0249114Y0327854
X0256693Y0324213
X0257972Y0314567
X0255906Y0346949
X0257579Y035689
X0258661Y0378346
X025374Y0376378
X0263386Y0384646
X0266535Y0388583
X0265748Y0394882
X0262598Y0395444
X0261713Y0406791
X0253937Y039941
X0235236Y0395866
X022874Y039626
X0224016Y0396654
X0223917Y0402362
X0228681Y0411673
X0235236Y0411221
X0236614Y0419095
X0247047Y042185
X0226193Y0426981
X0213878Y0457382
X0254921Y0460827
X025876Y0450689
X0270177Y0461417
X0289075Y0464961
X0293406Y0423327
X0297736Y0425492
X0308268Y0429921
X0311713Y0440256
X0307874Y0409055
X0301772Y0411614
X0290158Y0409055
X0291732Y0395276
X0287402
X0284842Y0386811
X0279921Y0387008
X0279934Y0377842
X0279035Y0363583
X0279134Y0359547
X0279035Y035374
Y0347933
X0279429Y0343898
X0279331Y0339961
X0284252Y0335925
X0280512Y033189
X0281102Y0326378
X0286713Y0326575
X0296654Y0326378
X0301772Y0326181
X0304035Y0330217
X0292913Y0332087
X029311Y0339961
X0293307Y0348819
X0293898Y0363583
X0291732Y0382677
X03
X0299803Y0395079
X0305512Y0395276
X0295768Y0391339
X027559Y0402953
X0228445Y0386417
X0240256Y033809
X0322736Y0331102
X0319488Y0326378
X0327362Y0326575
X0331299Y0326378
X0334252Y0335531
X0348819Y0335827
Y033937
X0345374Y0340354
X0349016Y0343898
X0348819Y0348031
X0349213Y0328346
X0345276Y0326772
X0355315Y0322047
X0371654Y0329921
X0375197Y0328051
X0376279Y0341043
X0363386Y0341732
X0363976Y0360925
X0365158Y0365551
X0374016Y0369882
X0371063Y0356594
X038563Y0349902
X0385236Y0364272
X0390945Y0365748
X0393307Y034124
X039252Y0313583
X040187Y0314764
X043061Y0313583
X0445177Y0327461
X0447835Y0333268
X0450508Y0345472
X0437008Y0341732
X0448622Y036939
X0459154Y036998
X0468169Y0354823
X0463681Y0324311
X0458071Y0321063
X0461516Y0314567
X0466831Y031752
X0466043Y04125
X0393898Y0412598
X0373721Y0398819
X0375984Y0393898
X0362992Y0393701
X0355217Y0397736
X0352067Y0402362
X0348031Y0394094
X034498Y0388681
X0349213Y0383465
X0348425Y0373917
Y036811
X034439Y0371358
X0335039Y0395276
X0330315Y0394882
X0324016
X0319291Y0395276
X0326969Y0391339
X0322441Y0409449
X0333071Y0409055
X0327658Y0422441
X0333366Y0450591
X0343504Y0441043
X0317126Y0454921
X0368043Y0401213
X0491831Y0400984
X0498228Y040374
X0502165Y0406299
X0512303Y0409252
X051437Y0397933
X0495866Y0392913
X0491732Y0387402
X0488878Y0381693
X0486516Y037559
X0484252Y0369094
X0476968Y037185
X0473425Y0366732
X0478543Y0378937
X0481496Y0384449
X0484941Y0390059
X0487992Y0395472
X0519449Y0363287
X0546457Y0363583
X0551772Y0409449
X0578937Y0399803
X0468799Y0333071
X0626772Y0350394
X0649465Y0354232
X0646315Y0327067
X0653008Y0327067
X0734842Y0319882
X076998Y0318602
X0775492
X0773032Y0330118
X0767618Y0325787
X0864468Y0326673
Y0366732
Y0403359
Y0439985
Y0476612
Y0513238
Y0549865
Y0586491
Y0623118
X0703937Y0622441
X0693898Y0620276
X0683957Y0617421
X0664567Y061437
X0606398
X0530709Y0623327
X0523228Y0620276
X0516929Y0614468
X0395276Y0587205
X0391339Y0566535
X039941Y0548622
X0398819Y054252
X0387205Y0521063
X0389665Y0511024
X0374606Y0509252
X0374606Y0495177
X036565
X0356693
Y0502165
Y0509154
X0324606Y0509154
X0328839Y0535827
X0328937Y0542618
X0321752Y0545571
X0324902Y0581791
X0339075Y0596752
X0344488
X0348327Y0597342
X0356004Y0582087
X0349606Y0620276
X0343307Y0484252
X0350098Y0474409
X0364272Y0475295
X0360551Y046939
X0377854Y0468996
X0287894Y0500886
X0287795Y0505524
X0288386Y0514961
X0281791Y0501378
X026063Y0503346
X0268701Y0512205
X0240945Y0468996
X0226279Y0474606
X0267323Y0594095
X0276279Y0592618
X0277559Y0602953
X0287106Y0603937
X0300098Y0600098
X0102953Y0586393
Y0549766
Y051314
Y0476513
Y0623019
Y0659646
X0131595Y0687598
X0153839
X0197343
X0216388
X0235433
X0290158
X0287402Y0642224
X0278445
Y0635384
Y0628543
X0287402
X0296358
Y0635384
Y0642224
X0183071Y0649606
X0175197Y0647047
X0177756Y0630709
X0312795Y0640945
X0340453Y0642421
Y0635581
Y062874
X034941
X0358366
Y0635581
Y0642421
X034941
X0374016Y0640256
X0348425Y0687598
X0403937
X0451958
X0499978
X0503445Y067126
X0519488Y0675689
X0527362Y0672933
X0534547Y0670669
X0540158Y0665945
X0548327Y0664665
X0547999Y0687598
X0596019
X0559842Y0634154
X0553051Y0630512
X0546752Y0627756
X0538583Y0625591
X050187Y0630217
X0658858Y0643012
Y065561
X064404Y0687598
X0683957Y0680905
X0693898Y0676673
X0703937Y0674016
X0713681Y0671457
X0723819Y0667421
X0733858Y0663484
X0740081Y0687598
X069206
X0713976Y0625
X0723819Y0627559
X073376Y0630118
X0743898Y0632776
X0788101Y0687598
X0836122
X0864468Y0659744
T02
X030748Y0353543
Y0358268
X030748Y0362992
X0312205Y0362992
Y0367717
X030748
X0312205Y0358268
Y0353543
X0316929
Y0358268
Y0362992
Y0367717
X0321654
Y0362992
Y0358268
Y0353543
T04
X0631457Y021354
Y024354
X0631653Y0257677
Y0287677
X0621654
X0611654
X0601653
X0591653
X0581653
X0571654
X0561654
X0532638Y0287244
X0522638
X0512638
X0502638
X0492638
X0482638
X0472638
Y0257244
X0482638
X0492638
X0502638
X0512638
X0522638
X0532638
X0532638Y0243538
X0522638
X0512638
X0502638
X0492638
X0482638
X0472638
Y0213538
X0482638
X0492638
X0502638
X0512638
X0522638
X0532638
X0561457Y021354
X0571457
X0581457
X0591457
X0601457
X0611457
X0621457
Y024354
X0611457
X0601457
X0591457
X0581457
X0571457
X0561457
X0561654Y0257677
X0571654
X0581653
X0591653
X0601653
X0611654
X0621654
X0462638Y0257244
X0462638Y0243538
Y0213538
X0462638Y0287244
T06
X0186614Y015
X0249606Y0150395
X0312598Y015
X037559
X0420865Y0150001
X0466142Y015
X0529134
X0592126
X0655118
X071811
X0781102
X0812598Y0245866
X0812597Y0299411
X0772874Y029941
X040502Y0220925
Y0210925
Y0200925
X0341831Y0200925
Y0210925
Y0220925
X0279232Y0220965
Y0210965
Y0200965
X0216535Y0200925
Y0210925
Y0220925
X0233957Y0291831
X0147244Y0301181
Y0246063
X0145118Y0384173
X0135118
Y0394173
X0145118
X0155118
Y0384173
X0165118
Y0394173
X0175118
Y0384173
X0359744Y0457874
X0483898Y0344961
X0493898
X0503898
X0513898
X0523898
X0533898
Y0334961
X0543898
X0553898
Y0344961
X0563898
Y0334961
X0573898
Y0344961
X0543898
X0523898Y0334961
X0513898
X0503898
X0493898
X0483898
X0673898
X0683898
X0693898
X0703898
X0713898
X0723898
Y0344961
X0733898
X0743898
Y0334961
X0753898
Y0344961
X0763898
Y0334961
X0733898
X0713898Y0344961
X0703898
X0693898
X0683898
X0673898
X0434646Y0585925
X0389764Y0604724
Y0614724
Y0624724
X032874Y0624173
Y0614173
Y0604173
X0348721Y0585925
X0285433
X0239764Y0539764
X0224528Y0664961
X0214528
X0204528
X0483898Y0654961
X0493898
X0503898
X0513898
X0523898
X0533898
Y0644961
X0543898
X0553898
Y0654961
X0563898
Y0644961
X0573898
Y0654961
X0543898
X0523898Y0644961
X0513898
X0503898
X0493898
X0483898
X0673898
X0683898
X0693898
X0703898
X0713898
X0723898
Y0654961
X0733898
X0743898
Y0644961
X0753898
Y0654961
X0763898
Y0644961
X0733898
X0713898Y0654961
X0703898
X0693898
X0683898
X0673898
T07
X0752736Y026315
X0762736
X0772736
X0389764Y0465354
Y0475354
Y0485354
X0374016Y0592756
Y0602756
Y0612756
X0312992
Y0602756
Y0592756
T08
X0245669Y0600079
Y0610079
Y0620079
T09
X0763091Y0283465
X0773091
T10
X0248031Y0674213
X0267717
X0309055
X032874
X0370079
X0389764
T11
X0173583Y0126402
X0199646
X0236575
X0262638
X0299567
X032563
X0362559
X0388622
X045311
X0479173
X0516102
X0542165
X0579095
X0605158
X0642087
X066815
X0705079
X0731142
X0768071
X0794134
X0841315Y0232835
Y0258898
X0126402
Y0232835
Y0331102
Y0357165
X0165354Y0670079
X0185039
T12
X0620472Y0395276
X0718898
X0817323
Y0493701
Y0592126
X0718898
X0620472
Y0493701
T13
X013937Y0149213
X0828347
X013937Y0444488
X0434646
X0828347
X013937Y0641339
X0434646
X0828347
M30
