M48
;Layer_Color=9474304
;FILE_FORMAT=4:4
METRIC,LZ
;TYPE=PLATED
T1F00S00C0.3000
T2F00S00C0.3300
T4F00S00C0.8128
T6F00S00C1.0000
T7F00S00C1.1000
T8F00S00C1.1176
T9F00S00C1.3000
T10F00S00C1.5900
;TYPE=NON_PLATED
T11F00S00C0.8000
T12F00S00C1.0160
T13F00S00C4.5000
T14F00S00C6.5000
%
T01
X003Y003
X002615Y003435
X004Y003
X007
X009
X01
X012
X015
X017
X018
X02
X023
X024
X0244175Y0034375
Y0045625
X024Y005
X0244175Y0056875
Y0067625
X024Y007
X0244175Y00753
X023Y007
X023005Y00636
X0229775Y0061375
X0232875Y0061815
X02328Y00636
X023555
X02356Y0061815
X0235Y006
X0225
X0226625Y0061815
X02273Y00636
X02252
X02232155
X0223225Y0061815
X022125
X02212309Y00636
X02192464
X021925Y0061815
X0217275
X02172619Y00636
X02152774
X0215275Y0061815
X02133
Y006003
X0215Y006
X02133Y0058245
Y005646
Y0054675
X02106607
X02080214
X02053821
X02027428
X02001036
X02000786Y00636
X02027214
X02053643
X02080072
X02101Y00631
X0211975Y00636
X02132929
X02152774Y00668
X0212075Y0069975
X021Y007
X021Y00724
X0211275Y0073925
X021255Y0075025
X0212825Y0072925
X0214575Y0074625
X02151Y0076525
X0213625Y0076575
Y00791125
X02151Y00791
X022Y007
X0224775Y0045225
X0225Y004
X0215
X0213075Y0042075
X0205Y004
X023Y005
X01974643Y0054675
X0194825
Y00569062
Y00591375
X01958Y00594
X0194825Y00613687
Y00636
X01974357Y00636
X0196425Y004205
X0195Y004
X0185
X01797Y00421
X01645
X0165Y004
X0186575Y00753
X014375Y007465
X01435Y007595
X01441Y007725
X01434Y00779
X01442Y00786
X01406498Y00792499
X0139975Y0076575
X013Y00788
X0125475Y0057425
X0130075Y004655
X0135Y004
X0125
X0145
X014795Y00422
X0155Y004
X0115
X0115375Y0047025
X0098675Y0047125
X0105Y004
X01049Y00596999
X0103Y006035
X01029Y00619
X010095Y006165
X01015Y006605
X01091Y00678
X01115Y00668
X01122Y0078575
X008365Y00793
X008065Y007925
X00821Y0077
X008585Y00706
X00797501Y005325
X0085Y004
X0075
X00746Y00471
X006845Y0048375
X00661501Y005335
X006205Y00534
X006Y005
X005
X004
X0040125Y006095
X00426Y0059375
X0045Y00609
Y00624
X0045775Y0063675
X0043975Y006605
X00426Y00661
X004405Y00698
X0045825Y006995
X0045575Y00731
X0048075Y007295
X004975Y0077275
X0051325Y0076125
X0053925Y0074075
X0053975Y0078875
X006005Y0075575
X00618Y007355
X00698Y007375
X0071175Y0077625
X00728Y00791
X007615
Y007595
X007895Y00706
X00665Y0067
X00673Y00632
X00685Y006325
X006185
X005945Y006315
X00585Y0067
X00505Y00669
X005195Y006055
X0047425Y0060625
X0045Y004
X0055
X0065
X007635Y005325
X0039325Y0063825
X0035375
X0035225Y00613
X0035Y006
X002615Y005685
X003Y005
X002615Y00456
Y00676
Y0075275
Y008295
Y0093125
Y01024281
X002905Y01001
X00311Y009765
X00334Y010225
X003435Y0103675
X0035425Y0093075
X003685Y00924
X00394
X0039369Y00881
X0039625Y0086375
X0035425
Y00881
X002615Y01117312
X0040695Y0103425
X004615Y01033062
X00461Y01046
X004735Y010585
Y01071
X00484Y009795
X004685Y00969
X0053304Y00955
Y00939
Y00923
X0055145Y00881
Y0086375
X0051265
X0051201Y00881
X0047257
X0047385Y0086375
X0043505
X0043313Y00881
X00573Y008885
X005955Y00901
X0059025Y0086375
X005905Y008395
X0056175Y00832
X005695Y00818
X005375Y0080825
X0061025Y0085875
X0065Y0088125
X0065675Y0090325
X0070875Y008985
Y0088375
X0070975Y008735
X007095Y008635
X00722Y0085325
X007125Y00843
X00717Y008295
X00728Y00831
X007535Y00829
X007665Y008285
X0077225Y0083875
X00744Y008435
X007445Y008635
X00745Y00886
X007465Y009235
X0070875
X00709Y0091325
X00711031Y00959719
X00711Y00983
X007235Y009825
X00741Y00972
X00762
X007615Y010035
X00776Y01004
X0075125Y00994
X00741Y01004
X0073
X00737Y01039
X007665Y010455
X00782Y01039
X00783Y01092
X0079175Y0111825
X0075925Y0107775
X0074575Y010785
X007Y010235
X0066475Y0103325
X00667Y01004428
X00675Y01003
X00677Y00987
X00669Y00977
X00657Y00961
X006445Y00956
X00645Y01013
X005975Y010055
X00581Y010065
X00569Y010075
X005725Y01022
X0058085Y0104565
X005975Y010445
X00601Y010645
X006275Y010715
X00574531Y01084531
X00568Y00989
X00652Y008235
X006575Y011725
X0073425Y01181
X008055Y011555
X0084675Y011445
X008725Y0112025
X00829Y010755
X00819Y0104
X00846Y01039
X00851Y01004
X00839Y01003
X00823
X00811Y01004
X008305Y00994
X0087625Y0098725
X00884Y01001
X0090225Y0101025
X0089425Y01022
X0093483Y0101908
X00945Y010155
X00955Y010005
X00922Y01
X00887Y00974
X00885Y0094975
Y00935
X0087475Y0094325
X009275Y009285
X009245Y00918
X009425Y0090575
X0095Y009395
X009965Y0092525
X01011Y00929
X009795Y0088875
X0096175Y0086825
X00923Y00868
X008865Y008735
X00886Y00884
Y00862
Y00853
X00887Y00834
X00877Y0083
X0087725Y008645
X00849Y0085225
X008415Y00829
X008315Y008295
X008115Y00829
X0081975Y00841
X009025Y00818
X00953Y008265
X00944Y00838
X0101325Y0079475
X01049Y00798
X01089
X01182Y0104975
X00913Y01188
X01401Y010615
X0144225Y0106425
X01498Y0102
X015075Y010255
X015155Y01032
X01529Y01011
X015095Y00998
X01514Y00984
X01507Y009695
X01497Y00954
X0148Y009375
X01481Y00925
X01489Y00915
X0150475Y009115
X01465Y00909
X01449Y00913
X014325
X01417
X0140099Y0091325
X013895Y0093825
X0141625Y0093975
X01432Y009385
X014525Y009315
X014615Y009445
X014655Y009625
X01473Y009765
X0148175Y0099075
X014895Y010045
X014135Y008155
X01421Y008065
X01415Y00799
X01308Y0083325
X0129025Y008475
X015925Y0082175
X0170025Y009245
X02Y00915
X02016Y00911
X02032
X02048
X02064
X0208
X02096
X02112
X02128
X02144
X0216825Y009055
X022Y009
X02188Y008805
Y0086425
X02219375
Y008805
X0225075
Y0086425
X02271
Y008805
X0229925
Y0086425
X023Y009
X0234775Y008805
Y0086425
X0235Y008
X0225
X02151Y0081675
X0213625Y008165
X0212Y00802
X02104
X02088
X02072
X02056
X0204
X02024
X02008Y00803
X0244175Y0082975
Y009315
X024Y009
X0244175Y01024531
Y01117562
Y01210594
Y01303625
Y01396656
Y01489687
Y01582719
X02351Y013135
X012725Y0133
X01189781Y013235
X0117425Y013375
X01013Y01378
X010145Y013935
X00994Y01439
X01004Y014915
X00916Y015325
X00881Y015165
X008685Y01519
X008455Y0137825
X0084525Y01361
X0082725Y0138575
X008345Y0129325
X00872Y0123
X008965Y0120975
X009575Y012055
X009835Y013235
X007335Y01307
X007255Y01275
X007155Y012755
X00709Y012835
X006825Y01301
X00662Y012785
X0057475Y012055
X00689Y01509
X0071175Y0150525
X00719Y015315
X00771Y01532
X002615Y01489437
Y01396406
Y01303375
Y01210344
Y01582469
Y016755
X0033425Y017465
X0039075
X0050125
X00556625
X00612
X00747
X00465Y0165
X00445Y016435
X004515Y01603
X00895Y017465
X01150114
X01272477
X01394841
X01433Y01663
X01449003Y01664003
X01449Y016265
X01433Y0162975
X01464998Y01599001
X01465Y016915
X01517204Y017465
X01586Y01683
X0159625Y0164625
X01596Y016245
X017565
X01757Y0164625
X0175775Y01683
X01761932Y017465
X01884295
X01958Y01683
X0197Y01685
X0196225Y0164675
X01962Y0162425
X019615Y01604
X01639568Y017465
X02006659
X0205325Y0169275
X02063Y016925
X0207025Y0169875
X02096Y016945
X02112Y016915
X0212775Y0169
X0214425Y016905
X02129023Y017465
X02251386
X0237375
X02144Y0159975
X02128Y016
X02112Y0160125
X0209575Y0159825
X02072Y0159225
X020655Y01598
X020555Y0159925
X02047997Y01624996
X02064Y016265
Y0166375
X02047997Y01664003
X020275Y0165725
Y0163125
X0244175Y0167575
T02
X00781Y00898
X00793
Y0091
X00781
X00781Y00922
X00793Y00922
Y00934
X00781
X00805
Y00922
Y0091
Y00898
X00817
Y0091
Y00922
Y00934
T04
X01602901Y00542385
X01676101Y00542392
X01701501
X01726901
X01752301
X01777701
X01803101
X01828501
X01853901
Y00618592
X01828501
X01803101
X01777701
X01752301
X01726901
X01701501
X01676101
X016766Y006545
X01702
X017274
X017528
X017782
X018036
X01829
X018544
Y007307
X01829
X018036
X017782
X017528
X017274
X01702
X016766
X016029Y007296
Y006534
X01602901Y00618586
X01577501
X01552101
X01526701
X01501301
X01475901
X01450501
X01425101
X014251Y006534
X014505
X014759
X015013
X015267
X015521
X015775
Y007296
X015521
X015267
X015013
X014759
X014505
X014251
X01425101Y00542385
X01450501
X01475901
X01501301
X01526701
X01552101
X01577501
T06
X00474Y00381
X00634Y00382003
X00794Y00381
X00954
X01114
X01274
X01354
X01434
X01594
X01754
X01915
X02075
X02233
X02314Y006245
X021131Y00724
X00723Y007119
Y006865
Y006611
X00642638Y0066084
Y0068624
Y0071164
X00563Y007115
Y006861
Y006607
X00517Y005785
X00374Y00625
X003686Y009758
X00394
Y010012
X003686
X003432
Y009758
X004194
X004448
Y010012
X004194
X00618Y011035
X0081625Y01117
X00932Y01182
X0099Y01536
Y015614
Y015868
X00845Y015854
Y0156
Y015346
X00712Y014395
X005848Y01689
X005594
X00534
T07
X0206195Y006684
X0208735
X0211275
X0099Y01182
Y012074
Y012328
X0095Y015056
Y01531
Y015564
X00805
Y01531
Y015056
T08
X00634Y015242
Y015496
Y01575
T09
X0065Y017125
X007
X00795
X00845
X0094
X0099
T10
X004486Y002816
Y003324
X004994
Y002816
X00474Y00307
X006086Y003324
Y002816
X006594
Y003324
X00634Y00307
X007686Y002816
Y003324
X00794Y00307
X008194Y002816
Y003324
X009286
Y002816
X009794
X00954Y00307
X009794Y003324
X010886
Y002816
X011394
Y003324
X01114Y00307
X012486Y003324
Y002816
X012994
Y003324
X01274Y00307
X014086Y003324
Y002816
X014594
Y003324
X01434Y00307
X015686Y003324
Y002816
X016194
Y003324
X01594Y00307
X017286Y003324
Y002816
X017794
Y003324
X01754Y00307
X018886Y003324
Y002816
X019394
Y003324
X01914Y00307
X020486Y002816
Y003324
X020994
Y002816
X02074Y00307
X022086Y003324
Y002816
X022594
Y003324
X02234Y00307
X024264Y005991
Y006499
X02401Y006245
X023756Y005991
Y006499
X003324
X002816
Y005991
X003324
X00307Y006245
X002816Y008487
Y008995
X003324
Y008487
X00307Y008741
X023756Y008487
Y008995
X024264
Y008487
X02401Y008741
T11
X0042Y017025
X0047
T12
X01384608Y0084318
X01569393
X01983607
X02168392
X01569393Y0162446
X01384608
X01983607
X02168392
T13
X01826Y01004
X02076
X02326
Y01254
Y01504
X02076
X01826
Y01254
T14
X00354Y00379
X02354
X00354Y01129
X01104
X02354
X00354Y01629
X01104
X02354
M30
