G04 Layer_Color=128*
%FSLAX44Y44*%
%MOMM*%
G71*
G01*
G75*
%ADD76C,0.0508*%
D76*
X628412Y1575000D02*
X639588D01*
X634000Y1569412D02*
Y1580588D01*
X628412Y1549600D02*
X639588D01*
X634000Y1544012D02*
Y1555188D01*
X628412Y1524200D02*
X639588D01*
X634000Y1518612D02*
Y1529788D01*
X1672536Y730700D02*
X1680664D01*
X1676600Y726636D02*
Y734764D01*
X1697936Y730700D02*
X1706064D01*
X1702000Y726636D02*
Y734764D01*
X1723336Y730700D02*
X1731464D01*
X1727400Y726636D02*
Y734764D01*
X1748736Y730700D02*
X1756864D01*
X1752800Y726636D02*
Y734764D01*
X1774136Y730700D02*
X1782264D01*
X1778200Y726636D02*
Y734764D01*
X1799536Y730700D02*
X1807664D01*
X1803600Y726636D02*
Y734764D01*
X1824936Y730700D02*
X1833064D01*
X1829000Y726636D02*
Y734764D01*
X1850336Y730700D02*
X1858464D01*
X1854400Y726636D02*
Y734764D01*
X1850336Y654500D02*
X1858464D01*
X1854400Y650436D02*
Y658564D01*
X1824936Y654500D02*
X1833064D01*
X1829000Y650436D02*
Y658564D01*
X1799536Y654500D02*
X1807664D01*
X1803600Y650436D02*
Y658564D01*
X1774136Y654500D02*
X1782264D01*
X1778200Y650436D02*
Y658564D01*
X1748736Y654500D02*
X1756864D01*
X1752800Y650436D02*
Y658564D01*
X1723336Y654500D02*
X1731464D01*
X1727400Y650436D02*
Y658564D01*
X1697936Y654500D02*
X1706064D01*
X1702000Y650436D02*
Y658564D01*
X1672536Y654500D02*
X1680664D01*
X1676600Y650436D02*
Y658564D01*
X1421036Y729600D02*
X1429164D01*
X1425100Y725536D02*
Y733664D01*
X1446436Y729600D02*
X1454564D01*
X1450500Y725536D02*
Y733664D01*
X1471836Y729600D02*
X1479964D01*
X1475900Y725536D02*
Y733664D01*
X1497236Y729600D02*
X1505364D01*
X1501300Y725536D02*
Y733664D01*
X1522636Y729600D02*
X1530764D01*
X1526700Y725536D02*
Y733664D01*
X1548036Y729600D02*
X1556164D01*
X1552100Y725536D02*
Y733664D01*
X1573436Y729600D02*
X1581564D01*
X1577500Y725536D02*
Y733664D01*
X1598836Y729600D02*
X1606964D01*
X1602900Y725536D02*
Y733664D01*
X1598836Y653400D02*
X1606964D01*
X1602900Y649336D02*
Y657464D01*
X1573436Y653400D02*
X1581564D01*
X1577500Y649336D02*
Y657464D01*
X1548036Y653400D02*
X1556164D01*
X1552100Y649336D02*
Y657464D01*
X1522636Y653400D02*
X1530764D01*
X1526700Y649336D02*
Y657464D01*
X1497236Y653400D02*
X1505364D01*
X1501300Y649336D02*
Y657464D01*
X1471836Y653400D02*
X1479964D01*
X1475900Y649336D02*
Y657464D01*
X1446436Y653400D02*
X1454564D01*
X1450500Y649336D02*
Y657464D01*
X1421036Y653400D02*
X1429164D01*
X1425100Y649336D02*
Y657464D01*
X1421037Y618586D02*
X1429165D01*
X1425101Y614521D02*
Y622649D01*
X1446437Y618586D02*
X1454565D01*
X1450501Y614521D02*
Y622649D01*
X1471837Y618586D02*
X1479965D01*
X1475901Y614521D02*
Y622649D01*
X1497237Y618586D02*
X1505365D01*
X1501301Y614521D02*
Y622649D01*
X1522637Y618586D02*
X1530765D01*
X1526701Y614521D02*
Y622649D01*
X1548037Y618586D02*
X1556165D01*
X1552101Y614521D02*
Y622649D01*
X1573437Y618586D02*
X1581565D01*
X1577501Y614521D02*
Y622649D01*
X1598837Y618586D02*
X1606965D01*
X1602901Y614521D02*
Y622649D01*
X1598837Y542385D02*
X1606965D01*
X1602901Y538321D02*
Y546450D01*
X1573437Y542385D02*
X1581565D01*
X1577501Y538321D02*
Y546450D01*
X1548037Y542385D02*
X1556165D01*
X1552101Y538321D02*
Y546450D01*
X1522637Y542385D02*
X1530765D01*
X1526701Y538321D02*
Y546450D01*
X1497237Y542385D02*
X1505365D01*
X1501301Y538321D02*
Y546450D01*
X1471837Y542385D02*
X1479965D01*
X1475901Y538321D02*
Y546450D01*
X1446437Y542385D02*
X1454565D01*
X1450501Y538321D02*
Y546450D01*
X1421037Y542385D02*
X1429165D01*
X1425101Y538321D02*
Y546450D01*
X707000Y1439500D02*
X717000D01*
X712000Y1434500D02*
Y1444500D01*
X613000Y1103500D02*
X623000D01*
X618000Y1098500D02*
Y1108500D01*
X512000Y578500D02*
X522000D01*
X517000Y573500D02*
Y583500D01*
X811250Y1117000D02*
X821250D01*
X816250Y1112000D02*
Y1122000D01*
X927000Y1182000D02*
X937000D01*
X932000Y1177000D02*
Y1187000D01*
X718000Y661100D02*
X728000D01*
X723000Y656100D02*
Y666100D01*
X718000Y686500D02*
X728000D01*
X723000Y681500D02*
Y691500D01*
X718000Y711900D02*
X728000D01*
X723000Y706900D02*
Y716900D01*
X637638Y660840D02*
X647638D01*
X642638Y655840D02*
Y665840D01*
X637638Y686240D02*
X647638D01*
X642638Y681240D02*
Y691240D01*
X637638Y711640D02*
X647638D01*
X642638Y706640D02*
Y716640D01*
X558000Y660700D02*
X568000D01*
X563000Y655700D02*
Y665700D01*
X558000Y686100D02*
X568000D01*
X563000Y681100D02*
Y691100D01*
X558000Y711500D02*
X568000D01*
X563000Y706500D02*
Y716500D01*
X788500Y1712500D02*
X801500D01*
X795000Y1706000D02*
Y1719000D01*
X838500Y1712500D02*
X851500D01*
X845000Y1706000D02*
Y1719000D01*
X840000Y1534600D02*
X850000D01*
X845000Y1529600D02*
Y1539600D01*
X840000Y1560000D02*
X850000D01*
X845000Y1555000D02*
Y1565000D01*
X840000Y1585400D02*
X850000D01*
X845000Y1580400D02*
Y1590400D01*
X693500Y1712500D02*
X706500D01*
X700000Y1706000D02*
Y1719000D01*
X643500Y1712500D02*
X656500D01*
X650000Y1706000D02*
Y1719000D01*
X554400Y1689000D02*
X564400D01*
X559400Y1684000D02*
Y1694000D01*
X529000Y1689000D02*
X539000D01*
X534000Y1684000D02*
Y1694000D01*
X579800Y1689000D02*
X589800D01*
X584800Y1684000D02*
Y1694000D01*
X933500Y1712500D02*
X946500D01*
X940000Y1706000D02*
Y1719000D01*
X983500Y1712500D02*
X996500D01*
X990000Y1706000D02*
Y1719000D01*
X985000Y1536000D02*
X995000D01*
X990000Y1531000D02*
Y1541000D01*
X985000Y1561400D02*
X995000D01*
X990000Y1556400D02*
Y1566400D01*
X985000Y1586800D02*
X995000D01*
X990000Y1581800D02*
Y1591800D01*
X2393050Y624500D02*
X2408950D01*
X2401000Y616550D02*
Y632450D01*
X2367650Y649900D02*
X2383550D01*
X2375600Y641950D02*
Y657850D01*
X2418450Y649900D02*
X2434350D01*
X2426400Y641950D02*
Y657850D01*
X2418450Y599100D02*
X2434350D01*
X2426400Y591150D02*
Y607050D01*
X2367650Y599100D02*
X2383550D01*
X2375600Y591150D02*
Y607050D01*
X299050Y624500D02*
X314950D01*
X307000Y616550D02*
Y632450D01*
X324450Y599100D02*
X340350D01*
X332400Y591150D02*
Y607050D01*
X273650Y599100D02*
X289550D01*
X281600Y591150D02*
Y607050D01*
X273650Y649900D02*
X289550D01*
X281600Y641950D02*
Y657850D01*
X324450Y649900D02*
X340350D01*
X332400Y641950D02*
Y657850D01*
X1106050Y307000D02*
X1121950D01*
X1114000Y299050D02*
Y314950D01*
X1131450Y332400D02*
X1147350D01*
X1139400Y324450D02*
Y340350D01*
X1131450Y281600D02*
X1147350D01*
X1139400Y273650D02*
Y289550D01*
X1080650Y281600D02*
X1096550D01*
X1088600Y273650D02*
Y289550D01*
X1080650Y332400D02*
X1096550D01*
X1088600Y324450D02*
Y340350D01*
X1266050Y307000D02*
X1281950D01*
X1274000Y299050D02*
Y314950D01*
X1291450Y332400D02*
X1307350D01*
X1299400Y324450D02*
Y340350D01*
X1291450Y281600D02*
X1307350D01*
X1299400Y273650D02*
Y289550D01*
X1240650Y281600D02*
X1256550D01*
X1248600Y273650D02*
Y289550D01*
X1240650Y332400D02*
X1256550D01*
X1248600Y324450D02*
Y340350D01*
X811450Y332400D02*
X827350D01*
X819400Y324450D02*
Y340350D01*
X786050Y307000D02*
X801950D01*
X794000Y299050D02*
Y314950D01*
X811450Y281600D02*
X827350D01*
X819400Y273650D02*
Y289550D01*
X760650Y332400D02*
X776550D01*
X768600Y324450D02*
Y340350D01*
X760650Y281600D02*
X776550D01*
X768600Y273650D02*
Y289550D01*
X971450Y332400D02*
X987350D01*
X979400Y324450D02*
Y340350D01*
X946050Y307000D02*
X961950D01*
X954000Y299050D02*
Y314950D01*
X971450Y281600D02*
X987350D01*
X979400Y273650D02*
Y289550D01*
X920650Y332400D02*
X936550D01*
X928600Y324450D02*
Y340350D01*
X920650Y281600D02*
X936550D01*
X928600Y273650D02*
Y289550D01*
X466050Y307000D02*
X481950D01*
X474000Y299050D02*
Y314950D01*
X491450Y332400D02*
X507350D01*
X499400Y324450D02*
Y340350D01*
X491450Y281600D02*
X507350D01*
X499400Y273650D02*
Y289550D01*
X440650Y281600D02*
X456550D01*
X448600Y273650D02*
Y289550D01*
X440650Y332400D02*
X456550D01*
X448600Y324450D02*
Y340350D01*
X626050Y307000D02*
X641950D01*
X634000Y299050D02*
Y314950D01*
X651450Y332400D02*
X667350D01*
X659400Y324450D02*
Y340350D01*
X651450Y281600D02*
X667350D01*
X659400Y273650D02*
Y289550D01*
X600650Y281600D02*
X616550D01*
X608600Y273650D02*
Y289550D01*
X600650Y332400D02*
X616550D01*
X608600Y324450D02*
Y340350D01*
X1426050Y307000D02*
X1441950D01*
X1434000Y299050D02*
Y314950D01*
X1451450Y332400D02*
X1467350D01*
X1459400Y324450D02*
Y340350D01*
X1451450Y281600D02*
X1467350D01*
X1459400Y273650D02*
Y289550D01*
X1400650Y281600D02*
X1416550D01*
X1408600Y273650D02*
Y289550D01*
X1400650Y332400D02*
X1416550D01*
X1408600Y324450D02*
Y340350D01*
X1586050Y307000D02*
X1601950D01*
X1594000Y299050D02*
Y314950D01*
X1611450Y332400D02*
X1627350D01*
X1619400Y324450D02*
Y340350D01*
X1611450Y281600D02*
X1627350D01*
X1619400Y273650D02*
Y289550D01*
X1560650Y281600D02*
X1576550D01*
X1568600Y273650D02*
Y289550D01*
X1560650Y332400D02*
X1576550D01*
X1568600Y324450D02*
Y340350D01*
X1746050Y307000D02*
X1761950D01*
X1754000Y299050D02*
Y314950D01*
X1771450Y332400D02*
X1787350D01*
X1779400Y324450D02*
Y340350D01*
X1771450Y281600D02*
X1787350D01*
X1779400Y273650D02*
Y289550D01*
X1720650Y281600D02*
X1736550D01*
X1728600Y273650D02*
Y289550D01*
X1720650Y332400D02*
X1736550D01*
X1728600Y324450D02*
Y340350D01*
X1906050Y307000D02*
X1921950D01*
X1914000Y299050D02*
Y314950D01*
X1931450Y332400D02*
X1947350D01*
X1939400Y324450D02*
Y340350D01*
X1931450Y281600D02*
X1947350D01*
X1939400Y273650D02*
Y289550D01*
X1880650Y281600D02*
X1896550D01*
X1888600Y273650D02*
Y289550D01*
X1880650Y332400D02*
X1896550D01*
X1888600Y324450D02*
Y340350D01*
X2066050Y307000D02*
X2081950D01*
X2074000Y299050D02*
Y314950D01*
X2091450Y332400D02*
X2107350D01*
X2099400Y324450D02*
Y340350D01*
X2091450Y281600D02*
X2107350D01*
X2099400Y273650D02*
Y289550D01*
X2040650Y281600D02*
X2056550D01*
X2048600Y273650D02*
Y289550D01*
X2040650Y332400D02*
X2056550D01*
X2048600Y324450D02*
Y340350D01*
X2226050Y307000D02*
X2241950D01*
X2234000Y299050D02*
Y314950D01*
X2251450Y332400D02*
X2267350D01*
X2259400Y324450D02*
Y340350D01*
X2251450Y281600D02*
X2267350D01*
X2259400Y273650D02*
Y289550D01*
X2200650Y281600D02*
X2216550D01*
X2208600Y273650D02*
Y289550D01*
X2200650Y332400D02*
X2216550D01*
X2208600Y324450D02*
Y340350D01*
X2393050Y874100D02*
X2408950D01*
X2401000Y866150D02*
Y882050D01*
X2367650Y899500D02*
X2383550D01*
X2375600Y891550D02*
Y907450D01*
X2418450Y899500D02*
X2434350D01*
X2426400Y891550D02*
Y907450D01*
X2418450Y848700D02*
X2434350D01*
X2426400Y840750D02*
Y856650D01*
X2367650Y848700D02*
X2383550D01*
X2375600Y840750D02*
Y856650D01*
X299050Y874100D02*
X314950D01*
X307000Y866150D02*
Y882050D01*
X324450Y848700D02*
X340350D01*
X332400Y840750D02*
Y856650D01*
X273650Y848700D02*
X289550D01*
X281600Y840750D02*
Y856650D01*
X273650Y899500D02*
X289550D01*
X281600Y891550D02*
Y907450D01*
X324450Y899500D02*
X340350D01*
X332400Y891550D02*
Y907450D01*
X481000Y1729500D02*
X486500D01*
X483750Y1726750D02*
Y1732250D01*
X478000Y1691500D02*
X486500D01*
X482250Y1687250D02*
Y1695750D01*
X466000Y1702500D02*
X474000D01*
X470000Y1698500D02*
Y1706500D01*
X403500Y1729500D02*
X409000D01*
X406250Y1726750D02*
Y1732250D01*
X416000Y1702500D02*
X424000D01*
X420000Y1698500D02*
Y1706500D01*
X403500Y1691500D02*
X412000D01*
X407750Y1687250D02*
Y1695750D01*
X1379527Y843180D02*
X1389688D01*
X1384608Y838100D02*
Y848260D01*
X1564312Y843180D02*
X1574473D01*
X1569393Y838100D02*
Y848260D01*
X1379527Y1624460D02*
X1389688D01*
X1384608Y1619380D02*
Y1629540D01*
X1564312Y1624460D02*
X1574473D01*
X1569393Y1619380D02*
Y1629540D01*
X1978528Y1624460D02*
X1988687D01*
X1983607Y1619380D02*
Y1629540D01*
X2163313Y1624460D02*
X2173472D01*
X2168392Y1619380D02*
Y1629540D01*
X1978528Y843180D02*
X1988687D01*
X1983607Y838100D02*
Y848260D01*
X2163313Y843180D02*
X2173472D01*
X2168392Y838100D02*
Y848260D01*
X799500Y1556400D02*
X810500D01*
X805000Y1550900D02*
Y1561900D01*
X799500Y1531000D02*
X810500D01*
X805000Y1525500D02*
Y1536500D01*
X799500Y1505600D02*
X810500D01*
X805000Y1500100D02*
Y1511100D01*
X944500Y1556400D02*
X955500D01*
X950000Y1550900D02*
Y1561900D01*
X944500Y1531000D02*
X955500D01*
X950000Y1525500D02*
Y1536500D01*
X944500Y1505600D02*
X955500D01*
X950000Y1500100D02*
Y1511100D01*
X2056450Y668400D02*
X2067450D01*
X2061950Y662900D02*
Y673900D01*
X2081850Y668400D02*
X2092850D01*
X2087350Y662900D02*
Y673900D01*
X2107250Y668400D02*
X2118250D01*
X2112750Y662900D02*
Y673900D01*
X984500Y1232800D02*
X995500D01*
X990000Y1227300D02*
Y1238300D01*
X984500Y1207400D02*
X995500D01*
X990000Y1201900D02*
Y1212900D01*
X984500Y1182000D02*
X995500D01*
X990000Y1176500D02*
Y1187500D01*
X1672037Y618592D02*
X1680165D01*
X1676101Y614528D02*
Y622656D01*
X1697437Y618592D02*
X1705565D01*
X1701501Y614528D02*
Y622656D01*
X1722837Y618592D02*
X1730965D01*
X1726901Y614528D02*
Y622656D01*
X1748237Y618592D02*
X1756365D01*
X1752301Y614528D02*
Y622656D01*
X1773637Y618592D02*
X1781765D01*
X1777701Y614528D02*
Y622656D01*
X1799037Y618592D02*
X1807165D01*
X1803101Y614528D02*
Y622656D01*
X1824437Y618592D02*
X1832565D01*
X1828501Y614528D02*
Y622656D01*
X1849837Y618592D02*
X1857965D01*
X1853901Y614528D02*
Y622656D01*
X1849837Y542392D02*
X1857965D01*
X1853901Y538328D02*
Y546456D01*
X1824437Y542392D02*
X1832565D01*
X1828501Y538328D02*
Y546456D01*
X1799037Y542392D02*
X1807165D01*
X1803101Y538328D02*
Y546456D01*
X1773637Y542392D02*
X1781765D01*
X1777701Y538328D02*
Y546456D01*
X1748237Y542392D02*
X1756365D01*
X1752301Y538328D02*
Y546456D01*
X1722837Y542392D02*
X1730965D01*
X1726901Y538328D02*
Y546456D01*
X1697437Y542392D02*
X1705565D01*
X1701501Y538328D02*
Y546456D01*
X1672037Y542392D02*
X1680165D01*
X1676101Y538328D02*
Y546456D01*
X2309000Y624500D02*
X2319000D01*
X2314000Y619500D02*
Y629500D01*
X1349000Y381000D02*
X1359000D01*
X1354000Y376000D02*
Y386000D01*
X369000Y625000D02*
X379000D01*
X374000Y620000D02*
Y630000D01*
X1429000Y381000D02*
X1439000D01*
X1434000Y376000D02*
Y386000D01*
X1589000Y381000D02*
X1599000D01*
X1594000Y376000D02*
Y386000D01*
X1749000Y381000D02*
X1759000D01*
X1754000Y376000D02*
Y386000D01*
X1109000Y381000D02*
X1119000D01*
X1114000Y376000D02*
Y386000D01*
X1269000Y381000D02*
X1279000D01*
X1274000Y376000D02*
Y386000D01*
X1910000Y381000D02*
X1920000D01*
X1915000Y376000D02*
Y386000D01*
X2070000Y381000D02*
X2080000D01*
X2075000Y376000D02*
Y386000D01*
X789000Y381000D02*
X799000D01*
X794000Y376000D02*
Y386000D01*
X949000Y381000D02*
X959000D01*
X954000Y376000D02*
Y386000D01*
X2228000Y381000D02*
X2238000D01*
X2233000Y376000D02*
Y386000D01*
X469000Y381000D02*
X479000D01*
X474000Y376000D02*
Y386000D01*
X629000Y382003D02*
X639000D01*
X634000Y377003D02*
Y387003D01*
X2108100Y724000D02*
X2118100D01*
X2113100Y719000D02*
Y729000D01*
X1071500Y1629000D02*
X1136500D01*
X1104000Y1596500D02*
Y1661500D01*
X1071500Y1129000D02*
X1136500D01*
X1104000Y1096500D02*
Y1161500D01*
X321500Y1629000D02*
X386500D01*
X354000Y1596500D02*
Y1661500D01*
X2321500Y379000D02*
X2386500D01*
X2354000Y346500D02*
Y411500D01*
X321500Y379000D02*
X386500D01*
X354000Y346500D02*
Y411500D01*
X2321500Y1629000D02*
X2386500D01*
X2354000Y1596500D02*
Y1661500D01*
X321500Y1129000D02*
X386500D01*
X354000Y1096500D02*
Y1161500D01*
X2321500Y1129000D02*
X2386500D01*
X2354000Y1096500D02*
Y1161500D01*
X2053500Y1504000D02*
X2098500D01*
X2076000Y1481500D02*
Y1526500D01*
X1803500Y1504000D02*
X1848500D01*
X1826000Y1481500D02*
Y1526500D01*
X2303500Y1504000D02*
X2348500D01*
X2326000Y1481500D02*
Y1526500D01*
X2303500Y1254000D02*
X2348500D01*
X2326000Y1231500D02*
Y1276500D01*
X1803500Y1254000D02*
X1848500D01*
X1826000Y1231500D02*
Y1276500D01*
X1803500Y1004000D02*
X1848500D01*
X1826000Y981500D02*
Y1026500D01*
X2053500Y1004000D02*
X2098500D01*
X2076000Y981500D02*
Y1026500D01*
X2303500Y1004000D02*
X2348500D01*
X2326000Y981500D02*
Y1026500D01*
X338200Y975800D02*
X348200D01*
X343200Y970800D02*
Y980800D01*
X338200Y1001200D02*
X348200D01*
X343200Y996200D02*
Y1006200D01*
X363600Y975800D02*
X373600D01*
X368600Y970800D02*
Y980800D01*
X363600Y1001200D02*
X373600D01*
X368600Y996200D02*
Y1006200D01*
X389000Y975800D02*
X399000D01*
X394000Y970800D02*
Y980800D01*
X389000Y1001200D02*
X399000D01*
X394000Y996200D02*
Y1006200D01*
X414400Y975800D02*
X424400D01*
X419400Y970800D02*
Y980800D01*
X414400Y1001200D02*
X424400D01*
X419400Y996200D02*
Y1006200D01*
X439800Y975800D02*
X449800D01*
X444800Y970800D02*
Y980800D01*
X439800Y1001200D02*
X449800D01*
X444800Y996200D02*
Y1006200D01*
X2111250Y739250D02*
X2114250D01*
X2112750Y737750D02*
Y740750D01*
X2098500Y724000D02*
X2101500D01*
X2100000Y722500D02*
Y725500D01*
X2124000Y750250D02*
X2127000D01*
X2125500Y748750D02*
Y751750D01*
X2134750Y765750D02*
X2137750D01*
X2136250Y764250D02*
Y767250D01*
X2134750Y791125D02*
X2137750D01*
X2136250Y789625D02*
Y792625D01*
X2134750Y816500D02*
X2137750D01*
X2136250Y815000D02*
Y818000D01*
X2149500Y816750D02*
X2152500D01*
X2151000Y815250D02*
Y818250D01*
X2149500Y791000D02*
X2152500D01*
X2151000Y789500D02*
Y792500D01*
X2149500Y765250D02*
X2152500D01*
X2151000Y763750D02*
Y766750D01*
X2144250Y746250D02*
X2147250D01*
X2145750Y744750D02*
Y747750D01*
X2126750Y729250D02*
X2129750D01*
X2128250Y727750D02*
Y730750D01*
X2119250Y699750D02*
X2122250D01*
X2120750Y698250D02*
Y701250D01*
X2296250Y613750D02*
X2299250D01*
X2297750Y612250D02*
Y615250D01*
X2354500Y618150D02*
X2357500D01*
X2356000Y616650D02*
Y619650D01*
X2327250Y618150D02*
X2330250D01*
X2328750Y616650D02*
Y619650D01*
X2264750Y618150D02*
X2267750D01*
X2266250Y616650D02*
Y619650D01*
X2230750Y618150D02*
X2233750D01*
X2232250Y616650D02*
Y619650D01*
X2211000Y618150D02*
X2214000D01*
X2212500Y616650D02*
Y619650D01*
X2191000Y618150D02*
X2194000D01*
X2192500Y616650D02*
Y619650D01*
X2171250Y618150D02*
X2174250D01*
X2172750Y616650D02*
Y619650D01*
X2151250Y618150D02*
X2154250D01*
X2152750Y616650D02*
Y619650D01*
X2354000Y636000D02*
X2357000D01*
X2355500Y634500D02*
Y637500D01*
X2326500Y636000D02*
X2329500D01*
X2328000Y634500D02*
Y637500D01*
X2299000Y636000D02*
X2302000D01*
X2300500Y634500D02*
Y637500D01*
X2271500Y636000D02*
X2274500D01*
X2273000Y634500D02*
Y637500D01*
X2250500Y636000D02*
X2253500D01*
X2252000Y634500D02*
Y637500D01*
X2230655Y636000D02*
X2233655D01*
X2232155Y634500D02*
Y637500D01*
X2210809Y636000D02*
X2213809D01*
X2212309Y634500D02*
Y637500D01*
X2190964Y636000D02*
X2193964D01*
X2192464Y634500D02*
Y637500D01*
X2171119Y636000D02*
X2174119D01*
X2172619Y634500D02*
Y637500D01*
X2151274Y636000D02*
X2154274D01*
X2152774Y634500D02*
Y637500D01*
X2131500Y600300D02*
X2134500D01*
X2133000Y598800D02*
Y601800D01*
X2131500Y618150D02*
X2134500D01*
X2133000Y616650D02*
Y619650D01*
X2131500Y564600D02*
X2134500D01*
X2133000Y563100D02*
Y566100D01*
X2131500Y582450D02*
X2134500D01*
X2133000Y580950D02*
Y583950D01*
X2131429Y636000D02*
X2134429D01*
X2132929Y634500D02*
Y637500D01*
X2118250Y636000D02*
X2121250D01*
X2119750Y634500D02*
Y637500D01*
X2078571Y636000D02*
X2081572D01*
X2080072Y634500D02*
Y637500D01*
X2052143Y636000D02*
X2055143D01*
X2053643Y634500D02*
Y637500D01*
X2025714Y636000D02*
X2028714D01*
X2027214Y634500D02*
Y637500D01*
X1999286Y636000D02*
X2002286D01*
X2000786Y634500D02*
Y637500D01*
X1972857Y636000D02*
X1975857D01*
X1974357Y634500D02*
Y637500D01*
X1946750Y636000D02*
X1949750D01*
X1948250Y634500D02*
Y637500D01*
X1946750Y613687D02*
X1949750D01*
X1948250Y612187D02*
Y615187D01*
X1946750Y591375D02*
X1949750D01*
X1948250Y589875D02*
Y592875D01*
X1946750Y569062D02*
X1949750D01*
X1948250Y567562D02*
Y570563D01*
X1973143Y546750D02*
X1976143D01*
X1974643Y545250D02*
Y548250D01*
X2078714Y546750D02*
X2081714D01*
X2080214Y545250D02*
Y548250D01*
X2052321Y546750D02*
X2055321D01*
X2053821Y545250D02*
Y548250D01*
X2131500Y546750D02*
X2134500D01*
X2133000Y545250D02*
Y548250D01*
X2105107Y546750D02*
X2108107D01*
X2106607Y545250D02*
Y548250D01*
X2025928Y546750D02*
X2028929D01*
X2027428Y545250D02*
Y548250D01*
X1999536Y546750D02*
X2002536D01*
X2001036Y545250D02*
Y548250D01*
X1946750Y546750D02*
X1949750D01*
X1948250Y545250D02*
Y548250D01*
X1487500Y915000D02*
X1490500D01*
X1489000Y913500D02*
Y916500D01*
X1503250Y911500D02*
X1506250D01*
X1504750Y910000D02*
Y913000D01*
X1591000Y821750D02*
X1594000D01*
X1592500Y820250D02*
Y823250D01*
X1864250Y753000D02*
X1867250D01*
X1865750Y751500D02*
Y754500D01*
X1698750Y924500D02*
X1701750D01*
X1700250Y923000D02*
Y926000D01*
X1440750Y1064250D02*
X1443750D01*
X1442250Y1062750D02*
Y1065750D01*
X844500Y1039000D02*
X847500D01*
X846000Y1037500D02*
Y1040500D01*
X900750Y1010250D02*
X903750D01*
X902250Y1008750D02*
Y1011750D01*
X892750Y1022000D02*
X895750D01*
X894250Y1020500D02*
Y1023500D01*
X849500Y1004000D02*
X852500D01*
X851000Y1002500D02*
Y1005500D01*
X837500Y1003000D02*
X840500D01*
X839000Y1001500D02*
Y1004500D01*
X608750Y858750D02*
X611750D01*
X610250Y857250D02*
Y860250D01*
X960250Y868250D02*
X963250D01*
X961750Y866750D02*
Y869750D01*
X463500Y1650000D02*
X466500D01*
X465000Y1648500D02*
Y1651500D01*
X1002500Y1491500D02*
X1005500D01*
X1004000Y1490000D02*
Y1493000D01*
X710250Y1505250D02*
X713250D01*
X711750Y1503750D02*
Y1506750D01*
X867000Y1519000D02*
X870000D01*
X868500Y1517500D02*
Y1520500D01*
X914500Y1532500D02*
X917500D01*
X916000Y1531000D02*
Y1534000D01*
X769500Y1532000D02*
X772500D01*
X771000Y1530500D02*
Y1533500D01*
X843750Y1361000D02*
X846750D01*
X845250Y1359500D02*
Y1362500D01*
X1011500Y1378000D02*
X1014500D01*
X1013000Y1376500D02*
Y1379500D01*
X992500Y1439000D02*
X995500D01*
X994000Y1437500D02*
Y1440500D01*
X825750Y1385750D02*
X828750D01*
X827250Y1384250D02*
Y1387250D01*
X2440250Y1024531D02*
X2443250D01*
X2441750Y1023031D02*
Y1026031D01*
X2440250Y931500D02*
X2443250D01*
X2441750Y930000D02*
Y933000D01*
X2440250Y1117562D02*
X2443250D01*
X2441750Y1116062D02*
Y1119062D01*
X2440250Y1210594D02*
X2443250D01*
X2441750Y1209094D02*
Y1212094D01*
X2440250Y1303625D02*
X2443250D01*
X2441750Y1302125D02*
Y1305125D01*
X2440250Y1396656D02*
X2443250D01*
X2441750Y1395156D02*
Y1398156D01*
X2440250Y1489687D02*
X2443250D01*
X2441750Y1488187D02*
Y1491187D01*
X2440250Y1582719D02*
X2443250D01*
X2441750Y1581219D02*
Y1584219D01*
X2440250Y1675750D02*
X2443250D01*
X2441750Y1674250D02*
Y1677250D01*
X2440250Y829750D02*
X2443250D01*
X2441750Y828250D02*
Y831250D01*
X2440250Y753000D02*
X2443250D01*
X2441750Y751500D02*
Y754500D01*
X2440250Y676250D02*
X2443250D01*
X2441750Y674750D02*
Y677750D01*
X2440250Y568750D02*
X2443250D01*
X2441750Y567250D02*
Y570250D01*
X2440250Y456250D02*
X2443250D01*
X2441750Y454750D02*
Y457750D01*
X2440250Y343750D02*
X2443250D01*
X2441750Y342250D02*
Y345250D01*
X260000Y343500D02*
X263000D01*
X261500Y342000D02*
Y345000D01*
X260000Y456000D02*
X263000D01*
X261500Y454500D02*
Y457500D01*
X260000Y568500D02*
X263000D01*
X261500Y567000D02*
Y570000D01*
X260000Y676000D02*
X263000D01*
X261500Y674500D02*
Y677500D01*
X260000Y752750D02*
X263000D01*
X261500Y751250D02*
Y754250D01*
X260000Y829500D02*
X263000D01*
X261500Y828000D02*
Y831000D01*
X2398500Y900000D02*
X2401500D01*
X2400000Y898500D02*
Y901500D01*
X2398500Y700000D02*
X2401500D01*
X2400000Y698500D02*
Y701500D01*
X2398500Y500000D02*
X2401500D01*
X2400000Y498500D02*
Y501500D01*
X2398500Y300000D02*
X2401500D01*
X2400000Y298500D02*
Y301500D01*
X2298500Y900000D02*
X2301500D01*
X2300000Y898500D02*
Y901500D01*
X2348500Y800000D02*
X2351500D01*
X2350000Y798500D02*
Y801500D01*
X2298500Y700000D02*
X2301500D01*
X2300000Y698500D02*
Y701500D01*
X2348500Y600000D02*
X2351500D01*
X2350000Y598500D02*
Y601500D01*
X2298500Y500000D02*
X2301500D01*
X2300000Y498500D02*
Y501500D01*
X2298500Y300000D02*
X2301500D01*
X2300000Y298500D02*
Y301500D01*
X2198500Y900000D02*
X2201500D01*
X2200000Y898500D02*
Y901500D01*
X2248500Y800000D02*
X2251500D01*
X2250000Y798500D02*
Y801500D01*
X2198500Y700000D02*
X2201500D01*
X2200000Y698500D02*
Y701500D01*
X2248500Y600000D02*
X2251500D01*
X2250000Y598500D02*
Y601500D01*
X2248500Y400000D02*
X2251500D01*
X2250000Y398500D02*
Y401500D01*
X2098500Y700000D02*
X2101500D01*
X2100000Y698500D02*
Y701500D01*
X2148500Y600000D02*
X2151500D01*
X2150000Y598500D02*
Y601500D01*
X2148500Y400000D02*
X2151500D01*
X2150000Y398500D02*
Y401500D01*
X2048500Y400000D02*
X2051500D01*
X2050000Y398500D02*
Y401500D01*
X1998500Y300000D02*
X2001500D01*
X2000000Y298500D02*
Y301500D01*
X1948500Y400000D02*
X1951500D01*
X1950000Y398500D02*
Y401500D01*
X1848500Y400000D02*
X1851500D01*
X1850000Y398500D02*
Y401500D01*
X1798500Y300000D02*
X1801500D01*
X1800000Y298500D02*
Y301500D01*
X1698500Y300000D02*
X1701500D01*
X1700000Y298500D02*
Y301500D01*
X1648500Y400000D02*
X1651500D01*
X1650000Y398500D02*
Y401500D01*
X1548500Y400000D02*
X1551500D01*
X1550000Y398500D02*
Y401500D01*
X1498500Y300000D02*
X1501500D01*
X1500000Y298500D02*
Y301500D01*
X1448500Y400000D02*
X1451500D01*
X1450000Y398500D02*
Y401500D01*
X1348500Y400000D02*
X1351500D01*
X1350000Y398500D02*
Y401500D01*
X1248500Y400000D02*
X1251500D01*
X1250000Y398500D02*
Y401500D01*
X1198500Y300000D02*
X1201500D01*
X1200000Y298500D02*
Y301500D01*
X1148500Y400000D02*
X1151500D01*
X1150000Y398500D02*
Y401500D01*
X1048500Y400000D02*
X1051500D01*
X1050000Y398500D02*
Y401500D01*
X998500Y300000D02*
X1001500D01*
X1000000Y298500D02*
Y301500D01*
X898500Y300000D02*
X901500D01*
X900000Y298500D02*
Y301500D01*
X848500Y400000D02*
X851500D01*
X850000Y398500D02*
Y401500D01*
X748500Y400000D02*
X751500D01*
X750000Y398500D02*
Y401500D01*
X698500Y300000D02*
X701500D01*
X700000Y298500D02*
Y301500D01*
X598500Y500000D02*
X601500D01*
X600000Y498500D02*
Y501500D01*
X648500Y400000D02*
X651500D01*
X650000Y398500D02*
Y401500D01*
X498500Y500000D02*
X501500D01*
X500000Y498500D02*
Y501500D01*
X548500Y400000D02*
X551500D01*
X550000Y398500D02*
Y401500D01*
X398500Y500000D02*
X401500D01*
X400000Y498500D02*
Y501500D01*
X448500Y400000D02*
X451500D01*
X450000Y398500D02*
Y401500D01*
X398500Y300000D02*
X401500D01*
X400000Y298500D02*
Y301500D01*
X348500Y600000D02*
X351500D01*
X350000Y598500D02*
Y601500D01*
X298500Y500000D02*
X301500D01*
X300000Y498500D02*
Y501500D01*
X298500Y300000D02*
X301500D01*
X300000Y298500D02*
Y301500D01*
X893500Y1746500D02*
X896500D01*
X895000Y1745000D02*
Y1748000D01*
X1148614Y1746500D02*
X1151614D01*
X1150114Y1745000D02*
Y1748000D01*
X1270977Y1746500D02*
X1273977D01*
X1272477Y1745000D02*
Y1748000D01*
X1393341Y1746500D02*
X1396341D01*
X1394841Y1745000D02*
Y1748000D01*
X1515704Y1746500D02*
X1518705D01*
X1517204Y1745000D02*
Y1748000D01*
X1638068Y1746500D02*
X1641068D01*
X1639568Y1745000D02*
Y1748000D01*
X1760432Y1746500D02*
X1763432D01*
X1761932Y1745000D02*
Y1748000D01*
X1882795Y1746500D02*
X1885795D01*
X1884295Y1745000D02*
Y1748000D01*
X2005159Y1746500D02*
X2008159D01*
X2006659Y1745000D02*
Y1748000D01*
X2127523Y1746500D02*
X2130523D01*
X2129023Y1745000D02*
Y1748000D01*
X2249886Y1746500D02*
X2252886D01*
X2251386Y1745000D02*
Y1748000D01*
X2372250Y1746500D02*
X2375250D01*
X2373750Y1745000D02*
Y1748000D01*
X389250Y1746500D02*
X392250D01*
X390750Y1745000D02*
Y1748000D01*
X332750Y1746500D02*
X335750D01*
X334250Y1745000D02*
Y1748000D01*
X610500Y1746500D02*
X613500D01*
X612000Y1745000D02*
Y1748000D01*
X555125Y1746500D02*
X558125D01*
X556625Y1745000D02*
Y1748000D01*
X499750Y1746500D02*
X502750D01*
X501250Y1745000D02*
Y1748000D01*
X745500Y1746500D02*
X748500D01*
X747000Y1745000D02*
Y1748000D01*
X260000Y1675500D02*
X263000D01*
X261500Y1674000D02*
Y1677000D01*
X260000Y1582469D02*
X263000D01*
X261500Y1580969D02*
Y1583969D01*
X260000Y1489437D02*
X263000D01*
X261500Y1487937D02*
Y1490937D01*
X260000Y1396406D02*
X263000D01*
X261500Y1394906D02*
Y1397906D01*
X260000Y1303375D02*
X263000D01*
X261500Y1301875D02*
Y1304875D01*
X260000Y1210344D02*
X263000D01*
X261500Y1208844D02*
Y1211844D01*
X260000Y1117312D02*
X263000D01*
X261500Y1115813D02*
Y1118812D01*
X260000Y931250D02*
X263000D01*
X261500Y929750D02*
Y932750D01*
X260000Y1024281D02*
X263000D01*
X261500Y1022781D02*
Y1025781D01*
X1478000Y422000D02*
X1481000D01*
X1479500Y420500D02*
Y423500D01*
X2246250Y452250D02*
X2249250D01*
X2247750Y450750D02*
Y453750D01*
X2129250Y420750D02*
X2132250D01*
X2130750Y419250D02*
Y422250D01*
X1962750Y420500D02*
X1965750D01*
X1964250Y419000D02*
Y422000D01*
X1299250Y465500D02*
X1302250D01*
X1300750Y464000D02*
Y467000D01*
X1152250Y470250D02*
X1155250D01*
X1153750Y468750D02*
Y471750D01*
X985250Y471250D02*
X988250D01*
X986750Y469750D02*
Y472750D01*
X744500Y471000D02*
X747500D01*
X746000Y469500D02*
Y472500D01*
X683000Y483750D02*
X686000D01*
X684500Y482250D02*
Y485250D01*
X619000Y534000D02*
X622000D01*
X620500Y532500D02*
Y535500D01*
X901000Y818000D02*
X904000D01*
X902500Y816500D02*
Y819500D01*
X1399491Y913250D02*
X1402491D01*
X1400990Y911750D02*
Y914750D01*
X883500Y949750D02*
X886500D01*
X885000Y948250D02*
Y951250D01*
X710250Y776250D02*
X713250D01*
X711750Y774750D02*
Y777750D01*
X424500Y593750D02*
X427500D01*
X426000Y592250D02*
Y595250D01*
X472750Y606250D02*
X475750D01*
X474250Y604750D02*
Y607750D01*
X518000Y605500D02*
X521000D01*
X519500Y604000D02*
Y607000D01*
X617000Y632500D02*
X620000D01*
X618500Y631000D02*
Y634000D01*
X593000Y631500D02*
X596000D01*
X594500Y630000D02*
Y633000D01*
X683500Y632500D02*
X686500D01*
X685000Y631000D02*
Y634000D01*
X671500Y632000D02*
X674500D01*
X673000Y630500D02*
Y633500D01*
X817500Y1040000D02*
X820500D01*
X819000Y1038500D02*
Y1041500D01*
X882500Y1001000D02*
X885500D01*
X884000Y999500D02*
Y1002500D01*
X920500Y1000000D02*
X923500D01*
X922000Y998500D02*
Y1001500D01*
X596000Y1044500D02*
X599000D01*
X597500Y1043000D02*
Y1046000D01*
X571000Y1022000D02*
X574000D01*
X572500Y1020500D02*
Y1023500D01*
X596000Y1005500D02*
X599000D01*
X597500Y1004000D02*
Y1007000D01*
X655500Y961000D02*
X658500D01*
X657000Y959500D02*
Y962500D01*
X643000Y956000D02*
X646000D01*
X644500Y954500D02*
Y957500D01*
X579350Y1045650D02*
X582350D01*
X580850Y1044150D02*
Y1047150D01*
X579500Y1006500D02*
X582500D01*
X581000Y1005000D02*
Y1008000D01*
X566500Y989000D02*
X569500D01*
X568000Y987500D02*
Y990500D01*
X819500Y770000D02*
X822500D01*
X821000Y768500D02*
Y771500D01*
X760000Y759500D02*
X763000D01*
X761500Y758000D02*
Y761000D01*
X835000Y793000D02*
X838000D01*
X836500Y791500D02*
Y794500D01*
X805000Y792500D02*
X808000D01*
X806500Y791000D02*
Y794000D01*
X711000Y843000D02*
X714000D01*
X712500Y841500D02*
Y844500D01*
X472000Y1058500D02*
X475000D01*
X473500Y1057000D02*
Y1060000D01*
X472000Y1071000D02*
X475000D01*
X473500Y1069500D02*
Y1072500D01*
X594000Y901000D02*
X597000D01*
X595500Y899500D02*
Y902500D01*
X571500Y888500D02*
X574500D01*
X573000Y887000D02*
Y890000D01*
X352750Y930750D02*
X355750D01*
X354250Y929250D02*
Y932250D01*
X367000Y924000D02*
X370000D01*
X368500Y922500D02*
Y925500D01*
X392500Y924000D02*
X395500D01*
X394000Y922500D02*
Y925500D01*
X467000Y969000D02*
X470000D01*
X468500Y967500D02*
Y970500D01*
X482500Y979500D02*
X485500D01*
X484000Y978000D02*
Y981000D01*
X342000Y1036750D02*
X345000D01*
X343500Y1035250D02*
Y1038250D01*
X332500Y1022500D02*
X335500D01*
X334000Y1021000D02*
Y1024000D01*
X309500Y976500D02*
X312500D01*
X311000Y975000D02*
Y978000D01*
X289000Y1001000D02*
X292000D01*
X290500Y999500D02*
Y1002500D01*
X643500Y1013000D02*
X646500D01*
X645000Y1011500D02*
Y1014500D01*
X599500Y1064500D02*
X602500D01*
X601000Y1063000D02*
Y1066000D01*
X573031Y1084531D02*
X576031D01*
X574531Y1083031D02*
Y1086031D01*
X460000Y1033062D02*
X463000D01*
X461500Y1031562D02*
Y1034562D01*
X459500Y1046000D02*
X462500D01*
X461000Y1044500D02*
Y1047500D01*
X405450Y1034250D02*
X408450D01*
X406950Y1032750D02*
Y1035750D01*
X926000Y928500D02*
X929000D01*
X927500Y927000D02*
Y930000D01*
X923000Y918000D02*
X926000D01*
X924500Y916500D02*
Y919500D01*
X531540Y923000D02*
X534540D01*
X533040Y921500D02*
Y924500D01*
X531540Y939000D02*
X534540D01*
X533040Y937500D02*
Y940500D01*
X531540Y955000D02*
X534540D01*
X533040Y953500D02*
Y956500D01*
X667500Y977000D02*
X670500D01*
X669000Y975500D02*
Y978500D01*
X675500Y987000D02*
X678500D01*
X677000Y985500D02*
Y988500D01*
X788000Y706000D02*
X791000D01*
X789500Y704500D02*
Y707500D01*
X857000Y706000D02*
X860000D01*
X858500Y704500D02*
Y707500D01*
X760000Y791000D02*
X763000D01*
X761500Y789500D02*
Y792500D01*
X752000Y829000D02*
X755000D01*
X753500Y827500D02*
Y830500D01*
X760500Y972000D02*
X763500D01*
X762000Y970500D02*
Y973500D01*
X739500Y972000D02*
X742500D01*
X741000Y970500D02*
Y973500D01*
X722000Y982500D02*
X725000D01*
X723500Y981000D02*
Y984000D01*
X745000Y923500D02*
X748000D01*
X746500Y922000D02*
Y925000D01*
X743500Y886000D02*
X746500D01*
X745000Y884500D02*
Y887500D01*
X743000Y863500D02*
X746000D01*
X744500Y862000D02*
Y865000D01*
X742500Y843500D02*
X745500D01*
X744000Y842000D02*
Y845000D01*
X715500Y829500D02*
X718500D01*
X717000Y828000D02*
Y831000D01*
X726500Y791000D02*
X729500D01*
X728000Y789500D02*
Y792500D01*
X696500Y737500D02*
X699500D01*
X698000Y736000D02*
Y739000D01*
X616500Y735500D02*
X619500D01*
X618000Y734000D02*
Y737000D01*
X663500Y670000D02*
X666500D01*
X665000Y668500D02*
Y671500D01*
X583500Y670000D02*
X586500D01*
X585000Y668500D02*
Y671500D01*
X503500Y669000D02*
X506500D01*
X505000Y667500D02*
Y670500D01*
X448500Y609000D02*
X451500D01*
X450000Y607500D02*
Y610500D01*
X448500Y624000D02*
X451500D01*
X450000Y622500D02*
Y625500D01*
X885500Y834000D02*
X888500D01*
X887000Y832500D02*
Y835500D01*
X884500Y862000D02*
X887500D01*
X886000Y860500D02*
Y863500D01*
X885000Y873500D02*
X888000D01*
X886500Y872000D02*
Y875000D01*
X821500Y1003000D02*
X824500D01*
X823000Y1001500D02*
Y1004500D01*
X774500Y1004000D02*
X777500D01*
X776000Y1002500D02*
Y1005500D01*
X728500Y1004000D02*
X731500D01*
X730000Y1002500D02*
Y1005500D01*
X911500Y1188000D02*
X914500D01*
X913000Y1186500D02*
Y1189500D01*
X1998500Y915000D02*
X2001500D01*
X2000000Y913500D02*
Y916500D01*
X982000Y1323500D02*
X985000D01*
X983500Y1322000D02*
Y1325000D01*
X875500Y830000D02*
X878500D01*
X877000Y828500D02*
Y831500D01*
X884500Y853000D02*
X887500D01*
X886000Y851500D02*
Y854500D01*
X921500Y868000D02*
X924500D01*
X923000Y866500D02*
Y869500D01*
X884500Y884000D02*
X887500D01*
X886000Y882500D02*
Y885500D01*
X885500Y974000D02*
X888500D01*
X887000Y972500D02*
Y975500D01*
X809500Y1004000D02*
X812500D01*
X811000Y1002500D02*
Y1005500D01*
X739500Y1004000D02*
X742500D01*
X741000Y1002500D02*
Y1005500D01*
X760000Y1003500D02*
X763000D01*
X761500Y1002000D02*
Y1005000D01*
X709500Y983000D02*
X712500D01*
X711000Y981500D02*
Y984500D01*
X780500Y1039000D02*
X783500D01*
X782000Y1037500D02*
Y1040500D01*
X735500Y1039000D02*
X738500D01*
X737000Y1037500D02*
Y1040500D01*
X1089500Y678000D02*
X1092500D01*
X1091000Y676500D02*
Y679500D01*
X1956500Y594000D02*
X1959500D01*
X1958000Y592500D02*
Y595500D01*
X2349500Y1313500D02*
X2352500D01*
X2351000Y1312000D02*
Y1315000D01*
X2118500Y802000D02*
X2121500D01*
X2120000Y800500D02*
Y803500D01*
X2054500Y802000D02*
X2057500D01*
X2056000Y800500D02*
Y803500D01*
X2102500Y802000D02*
X2105500D01*
X2104000Y800500D02*
Y803500D01*
X2086500Y802000D02*
X2089500D01*
X2088000Y800500D02*
Y803500D01*
X2070500Y802000D02*
X2073500D01*
X2072000Y800500D02*
Y803500D01*
X2006500Y803000D02*
X2009500D01*
X2008000Y801500D02*
Y804500D01*
X2022500Y802000D02*
X2025500D01*
X2024000Y800500D02*
Y803500D01*
X2038500Y802000D02*
X2041500D01*
X2040000Y800500D02*
Y803500D01*
X779350Y934000D02*
X782650D01*
X781000Y932350D02*
Y935650D01*
X791350Y934000D02*
X794650D01*
X793000Y932350D02*
Y935650D01*
X803350Y934000D02*
X806650D01*
X805000Y932350D02*
Y935650D01*
X815350Y934000D02*
X818650D01*
X817000Y932350D02*
Y935650D01*
X779350Y922000D02*
X782650D01*
X781000Y920350D02*
Y923650D01*
X791350Y922000D02*
X794650D01*
X793000Y920350D02*
Y923650D01*
X803350Y922000D02*
X806650D01*
X805000Y920350D02*
Y923650D01*
X815350Y922000D02*
X818650D01*
X817000Y920350D02*
Y923650D01*
X779350Y910000D02*
X782650D01*
X781000Y908350D02*
Y911650D01*
X791350Y910000D02*
X794650D01*
X793000Y908350D02*
Y911650D01*
X803350Y910000D02*
X806650D01*
X805000Y908350D02*
Y911650D01*
X815350Y910000D02*
X818650D01*
X817000Y908350D02*
Y911650D01*
X779350Y898000D02*
X782650D01*
X781000Y896350D02*
Y899650D01*
X791350Y898000D02*
X794650D01*
X793000Y896350D02*
Y899650D01*
X803350Y898000D02*
X806650D01*
X805000Y896350D02*
Y899650D01*
X815350Y898000D02*
X818650D01*
X817000Y896350D02*
Y899650D01*
X1795500Y421000D02*
X1798500D01*
X1797000Y419500D02*
Y422500D01*
X2099500Y631000D02*
X2102500D01*
X2101000Y629500D02*
Y632500D01*
X2142500Y911000D02*
X2145500D01*
X2144000Y909500D02*
Y912500D01*
X2126500Y911000D02*
X2129500D01*
X2128000Y909500D02*
Y912500D01*
X2110500Y911000D02*
X2113500D01*
X2112000Y909500D02*
Y912500D01*
X2094500Y911000D02*
X2097500D01*
X2096000Y909500D02*
Y912500D01*
X2078500Y911000D02*
X2081500D01*
X2080000Y909500D02*
Y912500D01*
X2062500Y911000D02*
X2065500D01*
X2064000Y909500D02*
Y912500D01*
X2046500Y911000D02*
X2049500D01*
X2048000Y909500D02*
Y912500D01*
X2030500Y911000D02*
X2033500D01*
X2032000Y909500D02*
Y912500D01*
X2014500Y911000D02*
X2017500D01*
X2016000Y909500D02*
Y912500D01*
X1447500Y913000D02*
X1450500D01*
X1449000Y911500D02*
Y914500D01*
X1643500Y421000D02*
X1646500D01*
X1645000Y419500D02*
Y422500D01*
X424500Y661000D02*
X427500D01*
X426000Y659500D02*
Y662500D01*
X1514000Y1032000D02*
X1517000D01*
X1515500Y1030500D02*
Y1033500D01*
X1506000Y1025500D02*
X1509000D01*
X1507500Y1024000D02*
Y1027000D01*
X1496500Y1020000D02*
X1499500D01*
X1498000Y1018500D02*
Y1021500D01*
X1527500Y1011000D02*
X1530500D01*
X1529000Y1009500D02*
Y1012500D01*
X1495500Y954000D02*
X1498500D01*
X1497000Y952500D02*
Y955500D01*
X1508000Y998000D02*
X1511000D01*
X1509500Y996500D02*
Y999500D01*
X1488000Y1004500D02*
X1491000D01*
X1489500Y1003000D02*
Y1006000D01*
X1512500Y984000D02*
X1515500D01*
X1514000Y982500D02*
Y985500D01*
X1480250Y990750D02*
X1483250D01*
X1481750Y989250D02*
Y992250D01*
X1505500Y969500D02*
X1508500D01*
X1507000Y968000D02*
Y971000D01*
X1464000Y962500D02*
X1467000D01*
X1465500Y961000D02*
Y964000D01*
X1478500Y937500D02*
X1481500D01*
X1480000Y936000D02*
Y939000D01*
X1460000Y944500D02*
X1463000D01*
X1461500Y943000D02*
Y946000D01*
X1436000Y746500D02*
X1439000D01*
X1437500Y745000D02*
Y748000D01*
X1433500Y759500D02*
X1436500D01*
X1435000Y758000D02*
Y761000D01*
X1440500Y786000D02*
X1443500D01*
X1442000Y784500D02*
Y787500D01*
X1432500Y779000D02*
X1435500D01*
X1434000Y777500D02*
Y780500D01*
X1439500Y772500D02*
X1442500D01*
X1441000Y771000D02*
Y774000D01*
X1415500Y913000D02*
X1418500D01*
X1417000Y911500D02*
Y914500D01*
X1431000Y913000D02*
X1434000D01*
X1432500Y911500D02*
Y914500D01*
X1463500Y909000D02*
X1466500D01*
X1465000Y907500D02*
Y910500D01*
X1451000Y931500D02*
X1454000D01*
X1452500Y930000D02*
Y933000D01*
X1479500Y925000D02*
X1482500D01*
X1481000Y923500D02*
Y926500D01*
X1430500Y938500D02*
X1433500D01*
X1432000Y937000D02*
Y940000D01*
X1414750Y939750D02*
X1417750D01*
X1416250Y938250D02*
Y941250D01*
X1413500Y799000D02*
X1416500D01*
X1415000Y797500D02*
Y800500D01*
X1398250Y765750D02*
X1401250D01*
X1399750Y764250D02*
Y767250D01*
X1404998Y792499D02*
X1407998D01*
X1406498Y790999D02*
Y793999D01*
X1412000Y815500D02*
X1415000D01*
X1413500Y814000D02*
Y817000D01*
X1419500Y806500D02*
X1422500D01*
X1421000Y805000D02*
Y808000D01*
X1028500Y603500D02*
X1031500D01*
X1030000Y602000D02*
Y605000D01*
X1008000Y616500D02*
X1011000D01*
X1009500Y615000D02*
Y618000D01*
X1188281Y1323500D02*
X1191281D01*
X1189781Y1322000D02*
Y1325000D01*
X1113500Y668000D02*
X1116500D01*
X1115000Y666500D02*
Y669500D01*
X948500Y939500D02*
X951500D01*
X950000Y938000D02*
Y941000D01*
X953500Y1000500D02*
X956500D01*
X955000Y999000D02*
Y1002000D01*
X827500Y1075500D02*
X830500D01*
X829000Y1074000D02*
Y1077000D01*
X656000Y1172500D02*
X659000D01*
X657500Y1171000D02*
Y1174000D01*
X707500Y1283500D02*
X710500D01*
X709000Y1282000D02*
Y1285000D01*
X714000Y1275500D02*
X717000D01*
X715500Y1274000D02*
Y1277000D01*
X724000Y1275000D02*
X727000D01*
X725500Y1273500D02*
Y1276500D01*
X450000Y1603000D02*
X453000D01*
X451500Y1601500D02*
Y1604500D01*
X443500Y1643500D02*
X446500D01*
X445000Y1642000D02*
Y1645000D01*
X687500Y1509000D02*
X690500D01*
X689000Y1507500D02*
Y1510500D01*
X717500Y1531500D02*
X720500D01*
X719000Y1530000D02*
Y1533000D01*
X879500Y1516500D02*
X882500D01*
X881000Y1515000D02*
Y1518000D01*
X660001Y533500D02*
X663001D01*
X661501Y532000D02*
Y535000D01*
X762000Y532500D02*
X765000D01*
X763500Y531000D02*
Y534000D01*
X796001Y532500D02*
X799000D01*
X797501Y531000D02*
Y534000D01*
X660500Y1278500D02*
X663500D01*
X662000Y1277000D02*
Y1280000D01*
X681000Y1301000D02*
X684000D01*
X682500Y1299500D02*
Y1302500D01*
X732000Y1307000D02*
X735000D01*
X733500Y1305500D02*
Y1308500D01*
X1471500Y976500D02*
X1474500D01*
X1473000Y975000D02*
Y978000D01*
X1271000Y1330000D02*
X1274000D01*
X1272500Y1328500D02*
Y1331500D01*
X1047500Y596999D02*
X1050500D01*
X1049000Y595499D02*
Y598499D01*
X1047500Y798000D02*
X1050500D01*
X1049000Y796500D02*
Y799500D01*
X1087500Y798000D02*
X1090500D01*
X1089000Y796500D02*
Y799500D01*
X1013500Y660500D02*
X1016500D01*
X1015000Y659000D02*
Y662000D01*
X573250Y1205500D02*
X576250D01*
X574750Y1204000D02*
Y1207000D01*
X870500Y1230000D02*
X873500D01*
X872000Y1228500D02*
Y1231500D01*
X804000Y1155500D02*
X807000D01*
X805500Y1154000D02*
Y1157000D01*
X1027500Y619000D02*
X1030500D01*
X1029000Y617500D02*
Y620500D01*
X844000Y1378250D02*
X847000D01*
X845500Y1376750D02*
Y1379750D01*
X765000Y1045500D02*
X768000D01*
X766500Y1044000D02*
Y1047000D01*
X1013000Y1393500D02*
X1016000D01*
X1014500Y1392000D02*
Y1395000D01*
X833000Y1293250D02*
X836000D01*
X834500Y1291750D02*
Y1294750D01*
X1399500Y1061500D02*
X1402500D01*
X1401000Y1060000D02*
Y1063000D01*
X943500Y1015500D02*
X946500D01*
X945000Y1014000D02*
Y1017000D01*
X567500Y1007500D02*
X570500D01*
X569000Y1006000D02*
Y1009000D01*
X1009500Y929000D02*
X1012500D01*
X1011000Y927500D02*
Y930500D01*
X709531Y959719D02*
X712531D01*
X711031Y958219D02*
Y961219D01*
X749750Y994000D02*
X752750D01*
X751250Y992500D02*
Y995500D01*
X829000Y994000D02*
X832000D01*
X830500Y992500D02*
Y995500D01*
X874750Y987250D02*
X877750D01*
X876250Y985750D02*
Y988750D01*
X770750Y838750D02*
X773750D01*
X772250Y837250D02*
Y840250D01*
X818250Y841000D02*
X821250D01*
X819750Y839500D02*
Y842500D01*
X875750Y864500D02*
X878750D01*
X877250Y863000D02*
Y866000D01*
X663250Y1033250D02*
X666250D01*
X664750Y1031750D02*
Y1034750D01*
X708000Y863500D02*
X711000D01*
X709500Y862000D02*
Y865000D01*
X707250Y898500D02*
X710250D01*
X708750Y897000D02*
Y900000D01*
X707250Y923500D02*
X710250D01*
X708750Y922000D02*
Y925000D01*
X707500Y913250D02*
X710500D01*
X709000Y911750D02*
Y914750D01*
X720500Y853250D02*
X723500D01*
X722000Y851750D02*
Y854750D01*
X707250Y883750D02*
X710250D01*
X708750Y882250D02*
Y885250D01*
X708250Y873500D02*
X711250D01*
X709750Y872000D02*
Y875000D01*
X847500Y852250D02*
X850500D01*
X849000Y850750D02*
Y853750D01*
X626000Y1071500D02*
X629000D01*
X627500Y1070000D02*
Y1073000D01*
X873250Y943250D02*
X876250D01*
X874750Y941750D02*
Y944750D01*
X883500Y935000D02*
X886500D01*
X885000Y933500D02*
Y936500D01*
X933330Y1019080D02*
X936330D01*
X934830Y1017580D02*
Y1020580D01*
X942500Y838000D02*
X945500D01*
X944000Y836500D02*
Y839500D01*
X765000Y828500D02*
X768000D01*
X766500Y827000D02*
Y830000D01*
X810000Y829000D02*
X813000D01*
X811500Y827500D02*
Y830500D01*
X830000Y829500D02*
X833000D01*
X831500Y828000D02*
Y831000D01*
X840000Y829000D02*
X843000D01*
X841500Y827500D02*
Y830500D01*
X650500Y823500D02*
X653500D01*
X652000Y822000D02*
Y825000D01*
X673500Y1003000D02*
X676500D01*
X675000Y1001500D02*
Y1004500D01*
X665500Y1004428D02*
X668500D01*
X667000Y1002928D02*
Y1005928D01*
X951500Y826500D02*
X954500D01*
X953000Y825000D02*
Y828000D01*
X871000Y1120250D02*
X874000D01*
X872500Y1118750D02*
Y1121750D01*
X648500Y881250D02*
X651500D01*
X650000Y879750D02*
Y882750D01*
X1298500Y788000D02*
X1301500D01*
X1300000Y786500D02*
Y789500D01*
X1011750Y794750D02*
X1014750D01*
X1013250Y793250D02*
Y796250D01*
X1120500Y785750D02*
X1123500D01*
X1122000Y784250D02*
Y787250D01*
X978000Y888750D02*
X981000D01*
X979500Y887250D02*
Y890250D01*
X1288750Y847500D02*
X1291750D01*
X1290250Y846000D02*
Y849000D01*
X1388000Y938250D02*
X1391000D01*
X1389500Y936750D02*
Y939750D01*
X941000Y905750D02*
X944000D01*
X942500Y904250D02*
Y907250D01*
X995000Y925250D02*
X998000D01*
X996500Y923750D02*
Y926750D01*
X845250Y1144500D02*
X848250D01*
X846750Y1143000D02*
Y1146000D01*
X790250Y1118250D02*
X793250D01*
X791750Y1116750D02*
Y1119750D01*
X956000Y1205500D02*
X959000D01*
X957500Y1204000D02*
Y1207000D01*
X895000Y1209750D02*
X898000D01*
X896500Y1208250D02*
Y1211250D01*
X1253250Y574250D02*
X1256250D01*
X1254750Y572750D02*
Y575750D01*
X1306500Y833250D02*
X1309500D01*
X1308000Y831750D02*
Y834750D01*
X537750Y740750D02*
X540750D01*
X539250Y739250D02*
Y742250D01*
X781500Y1092000D02*
X784500D01*
X783000Y1090500D02*
Y1093500D01*
X698500Y1023500D02*
X701500D01*
X700000Y1022000D02*
Y1025000D01*
X655250Y903250D02*
X658250D01*
X656750Y901750D02*
Y904750D01*
X726500Y831000D02*
X729500D01*
X728000Y829500D02*
Y832500D01*
X757750Y1077750D02*
X760750D01*
X759250Y1076250D02*
Y1079250D01*
X732750Y1181000D02*
X735750D01*
X734250Y1179500D02*
Y1182500D01*
X744250Y1078500D02*
X747250D01*
X745750Y1077000D02*
Y1080000D01*
X1431500Y1663000D02*
X1434500D01*
X1433000Y1661500D02*
Y1664500D01*
X2026000Y1631250D02*
X2029000D01*
X2027500Y1629750D02*
Y1632750D01*
X1431500Y1629750D02*
X1434500D01*
X1433000Y1628250D02*
Y1631250D01*
X2046496Y1664003D02*
X2049496D01*
X2047997Y1662504D02*
Y1665504D01*
X1447504Y1664003D02*
X1450504D01*
X1449003Y1662504D02*
Y1665504D01*
X2046496Y1624996D02*
X2049496D01*
X2047997Y1623497D02*
Y1626496D01*
X1447500Y1626500D02*
X1450500D01*
X1449000Y1625000D02*
Y1628000D01*
X1463500Y1691500D02*
X1466500D01*
X1465000Y1690000D02*
Y1693000D01*
X2062500Y1663750D02*
X2065500D01*
X2064000Y1662250D02*
Y1665250D01*
X1463499Y1599001D02*
X1466499D01*
X1464998Y1597502D02*
Y1600502D01*
X2062500Y1626500D02*
X2065500D01*
X2064000Y1625000D02*
Y1628000D01*
X2068750Y1698750D02*
X2071750D01*
X2070250Y1697250D02*
Y1700250D01*
X2094500Y1694500D02*
X2097500D01*
X2096000Y1693000D02*
Y1696000D01*
X2094250Y1598250D02*
X2097250D01*
X2095750Y1596750D02*
Y1599750D01*
X2061500Y1692500D02*
X2064500D01*
X2063000Y1691000D02*
Y1694000D01*
X2110500Y1601250D02*
X2113500D01*
X2112000Y1599750D02*
Y1602750D01*
X2051750Y1692750D02*
X2054750D01*
X2053250Y1691250D02*
Y1694250D01*
X2110500Y1691500D02*
X2113500D01*
X2112000Y1690000D02*
Y1693000D01*
X2126250Y1690000D02*
X2129250D01*
X2127750Y1688500D02*
Y1691500D01*
X2126500Y1600000D02*
X2129500D01*
X2128000Y1598500D02*
Y1601500D01*
X1960000Y1604000D02*
X1963000D01*
X1961500Y1602500D02*
Y1605500D01*
X2070500Y1592250D02*
X2073500D01*
X2072000Y1590750D02*
Y1593750D01*
X2064000Y1598000D02*
X2067000D01*
X2065500Y1596500D02*
Y1599500D01*
X2054000Y1599250D02*
X2057000D01*
X2055500Y1597750D02*
Y1600750D01*
X2142500Y1599750D02*
X2145500D01*
X2144000Y1598250D02*
Y1601250D01*
X1968500Y1685000D02*
X1971500D01*
X1970000Y1683500D02*
Y1686500D01*
X2142750Y1690500D02*
X2145750D01*
X2144250Y1689000D02*
Y1692000D01*
X2026000Y1657250D02*
X2029000D01*
X2027500Y1655750D02*
Y1658750D01*
X1755500Y1646250D02*
X1758500D01*
X1757000Y1644750D02*
Y1647750D01*
X1594750Y1646250D02*
X1597750D01*
X1596250Y1644750D02*
Y1647750D01*
X1960750Y1646750D02*
X1963750D01*
X1962250Y1645250D02*
Y1648250D01*
X1584500Y1683000D02*
X1587500D01*
X1586000Y1681500D02*
Y1684500D01*
X1756250Y1683000D02*
X1759250D01*
X1757750Y1681500D02*
Y1684500D01*
X1956500Y1683000D02*
X1959500D01*
X1958000Y1681500D02*
Y1684500D01*
X1594500Y1624500D02*
X1597500D01*
X1596000Y1623000D02*
Y1626000D01*
X1755000Y1624500D02*
X1758000D01*
X1756500Y1623000D02*
Y1626000D01*
X1960500Y1624250D02*
X1963500D01*
X1962000Y1622750D02*
Y1625750D01*
X2151274Y668000D02*
X2154274D01*
X2152774Y666500D02*
Y669500D01*
X1172750Y1337500D02*
X1175750D01*
X1174250Y1336000D02*
Y1339000D01*
X1180500Y1049750D02*
X1183500D01*
X1182000Y1048250D02*
Y1051250D01*
M02*
