G04 #@! TF.GenerationSoftware,KiCad,Pcbnew,5.0.2-bee76a0~70~ubuntu18.04.1*
G04 #@! TF.CreationDate,2019-05-09T10:06:10+02:00*
G04 #@! TF.ProjectId,breadboard,62726561-6462-46f6-9172-642e6b696361,rev?*
G04 #@! TF.SameCoordinates,Original*
G04 #@! TF.FileFunction,Legend,Top*
G04 #@! TF.FilePolarity,Positive*
%FSLAX46Y46*%
G04 Gerber Fmt 4.6, Leading zero omitted, Abs format (unit mm)*
G04 Created by KiCad (PCBNEW 5.0.2-bee76a0~70~ubuntu18.04.1) date jeu. 09 mai 2019 10:06:10 CEST*
%MOMM*%
%LPD*%
G01*
G04 APERTURE LIST*
%ADD10C,0.250000*%
%ADD11C,0.120000*%
%ADD12C,0.010000*%
G04 APERTURE END LIST*
D10*
X123210540Y-100261027D02*
X123115302Y-100213407D01*
X122972445Y-100213407D01*
X122829588Y-100261027D01*
X122734350Y-100356265D01*
X122686731Y-100451503D01*
X122639112Y-100641979D01*
X122639112Y-100784836D01*
X122686731Y-100975312D01*
X122734350Y-101070550D01*
X122829588Y-101165788D01*
X122972445Y-101213407D01*
X123067683Y-101213407D01*
X123210540Y-101165788D01*
X123258159Y-101118169D01*
X123258159Y-100784836D01*
X123067683Y-100784836D01*
X123686731Y-101213407D02*
X123686731Y-100213407D01*
X124258159Y-101213407D01*
X124258159Y-100213407D01*
X124734350Y-101213407D02*
X124734350Y-100213407D01*
X124972445Y-100213407D01*
X125115302Y-100261027D01*
X125210540Y-100356265D01*
X125258159Y-100451503D01*
X125305778Y-100641979D01*
X125305778Y-100784836D01*
X125258159Y-100975312D01*
X125210540Y-101070550D01*
X125115302Y-101165788D01*
X124972445Y-101213407D01*
X124734350Y-101213407D01*
X125686731Y-100927693D02*
X126162921Y-100927693D01*
X125591493Y-101213407D02*
X125924826Y-100213407D01*
X126258159Y-101213407D01*
X98634921Y-100213407D02*
X99253969Y-100213407D01*
X98920636Y-100594360D01*
X99063493Y-100594360D01*
X99158731Y-100641979D01*
X99206350Y-100689598D01*
X99253969Y-100784836D01*
X99253969Y-101022931D01*
X99206350Y-101118169D01*
X99158731Y-101165788D01*
X99063493Y-101213407D01*
X98777778Y-101213407D01*
X98682540Y-101165788D01*
X98634921Y-101118169D01*
X99539683Y-100213407D02*
X99873017Y-101213407D01*
X100206350Y-100213407D01*
X100444445Y-100213407D02*
X101063493Y-100213407D01*
X100730159Y-100594360D01*
X100873017Y-100594360D01*
X100968255Y-100641979D01*
X101015874Y-100689598D01*
X101063493Y-100784836D01*
X101063493Y-101022931D01*
X101015874Y-101118169D01*
X100968255Y-101165788D01*
X100873017Y-101213407D01*
X100587302Y-101213407D01*
X100492064Y-101165788D01*
X100444445Y-101118169D01*
X123864761Y-135774169D02*
X123817142Y-135821788D01*
X123674285Y-135869407D01*
X123579047Y-135869407D01*
X123436190Y-135821788D01*
X123340952Y-135726550D01*
X123293333Y-135631312D01*
X123245714Y-135440836D01*
X123245714Y-135297979D01*
X123293333Y-135107503D01*
X123340952Y-135012265D01*
X123436190Y-134917027D01*
X123579047Y-134869407D01*
X123674285Y-134869407D01*
X123817142Y-134917027D01*
X123864761Y-134964646D01*
X124769523Y-135869407D02*
X124293333Y-135869407D01*
X124293333Y-134869407D01*
X125102857Y-135869407D02*
X125102857Y-134869407D01*
X125674285Y-135869407D02*
X125245714Y-135297979D01*
X125674285Y-134869407D02*
X125102857Y-135440836D01*
X119189523Y-135961380D02*
X118618095Y-135961380D01*
X118903809Y-135961380D02*
X118903809Y-134961380D01*
X118808571Y-135104238D01*
X118713333Y-135199476D01*
X118618095Y-135247095D01*
X120046666Y-135294714D02*
X120046666Y-135961380D01*
X119808571Y-134913761D02*
X119570476Y-135628047D01*
X120189523Y-135628047D01*
X116649523Y-135961380D02*
X116078095Y-135961380D01*
X116363809Y-135961380D02*
X116363809Y-134961380D01*
X116268571Y-135104238D01*
X116173333Y-135199476D01*
X116078095Y-135247095D01*
X117030476Y-135056619D02*
X117078095Y-135009000D01*
X117173333Y-134961380D01*
X117411428Y-134961380D01*
X117506666Y-135009000D01*
X117554285Y-135056619D01*
X117601904Y-135151857D01*
X117601904Y-135247095D01*
X117554285Y-135389952D01*
X116982857Y-135961380D01*
X117601904Y-135961380D01*
X114109523Y-135961380D02*
X113538095Y-135961380D01*
X113823809Y-135961380D02*
X113823809Y-134961380D01*
X113728571Y-135104238D01*
X113633333Y-135199476D01*
X113538095Y-135247095D01*
X114728571Y-134961380D02*
X114823809Y-134961380D01*
X114919047Y-135009000D01*
X114966666Y-135056619D01*
X115014285Y-135151857D01*
X115061904Y-135342333D01*
X115061904Y-135580428D01*
X115014285Y-135770904D01*
X114966666Y-135866142D01*
X114919047Y-135913761D01*
X114823809Y-135961380D01*
X114728571Y-135961380D01*
X114633333Y-135913761D01*
X114585714Y-135866142D01*
X114538095Y-135770904D01*
X114490476Y-135580428D01*
X114490476Y-135342333D01*
X114538095Y-135151857D01*
X114585714Y-135056619D01*
X114633333Y-135009000D01*
X114728571Y-134961380D01*
X111664761Y-135389952D02*
X111569523Y-135342333D01*
X111521904Y-135294714D01*
X111474285Y-135199476D01*
X111474285Y-135151857D01*
X111521904Y-135056619D01*
X111569523Y-135009000D01*
X111664761Y-134961380D01*
X111855238Y-134961380D01*
X111950476Y-135009000D01*
X111998095Y-135056619D01*
X112045714Y-135151857D01*
X112045714Y-135199476D01*
X111998095Y-135294714D01*
X111950476Y-135342333D01*
X111855238Y-135389952D01*
X111664761Y-135389952D01*
X111569523Y-135437571D01*
X111521904Y-135485190D01*
X111474285Y-135580428D01*
X111474285Y-135770904D01*
X111521904Y-135866142D01*
X111569523Y-135913761D01*
X111664761Y-135961380D01*
X111855238Y-135961380D01*
X111950476Y-135913761D01*
X111998095Y-135866142D01*
X112045714Y-135770904D01*
X112045714Y-135580428D01*
X111998095Y-135485190D01*
X111950476Y-135437571D01*
X111855238Y-135389952D01*
X109410476Y-134961380D02*
X109220000Y-134961380D01*
X109124761Y-135009000D01*
X109077142Y-135056619D01*
X108981904Y-135199476D01*
X108934285Y-135389952D01*
X108934285Y-135770904D01*
X108981904Y-135866142D01*
X109029523Y-135913761D01*
X109124761Y-135961380D01*
X109315238Y-135961380D01*
X109410476Y-135913761D01*
X109458095Y-135866142D01*
X109505714Y-135770904D01*
X109505714Y-135532809D01*
X109458095Y-135437571D01*
X109410476Y-135389952D01*
X109315238Y-135342333D01*
X109124761Y-135342333D01*
X109029523Y-135389952D01*
X108981904Y-135437571D01*
X108934285Y-135532809D01*
X106870476Y-135294714D02*
X106870476Y-135961380D01*
X106632380Y-134913761D02*
X106394285Y-135628047D01*
X107013333Y-135628047D01*
X119189523Y-142311380D02*
X118618095Y-142311380D01*
X118903809Y-142311380D02*
X118903809Y-141311380D01*
X118808571Y-141454238D01*
X118713333Y-141549476D01*
X118618095Y-141597095D01*
X120094285Y-141311380D02*
X119618095Y-141311380D01*
X119570476Y-141787571D01*
X119618095Y-141739952D01*
X119713333Y-141692333D01*
X119951428Y-141692333D01*
X120046666Y-141739952D01*
X120094285Y-141787571D01*
X120141904Y-141882809D01*
X120141904Y-142120904D01*
X120094285Y-142216142D01*
X120046666Y-142263761D01*
X119951428Y-142311380D01*
X119713333Y-142311380D01*
X119618095Y-142263761D01*
X119570476Y-142216142D01*
X116649523Y-142311380D02*
X116078095Y-142311380D01*
X116363809Y-142311380D02*
X116363809Y-141311380D01*
X116268571Y-141454238D01*
X116173333Y-141549476D01*
X116078095Y-141597095D01*
X116982857Y-141311380D02*
X117601904Y-141311380D01*
X117268571Y-141692333D01*
X117411428Y-141692333D01*
X117506666Y-141739952D01*
X117554285Y-141787571D01*
X117601904Y-141882809D01*
X117601904Y-142120904D01*
X117554285Y-142216142D01*
X117506666Y-142263761D01*
X117411428Y-142311380D01*
X117125714Y-142311380D01*
X117030476Y-142263761D01*
X116982857Y-142216142D01*
X114109523Y-142311380D02*
X113538095Y-142311380D01*
X113823809Y-142311380D02*
X113823809Y-141311380D01*
X113728571Y-141454238D01*
X113633333Y-141549476D01*
X113538095Y-141597095D01*
X115061904Y-142311380D02*
X114490476Y-142311380D01*
X114776190Y-142311380D02*
X114776190Y-141311380D01*
X114680952Y-141454238D01*
X114585714Y-141549476D01*
X114490476Y-141597095D01*
X111569523Y-142311380D02*
X111760000Y-142311380D01*
X111855238Y-142263761D01*
X111902857Y-142216142D01*
X111998095Y-142073285D01*
X112045714Y-141882809D01*
X112045714Y-141501857D01*
X111998095Y-141406619D01*
X111950476Y-141359000D01*
X111855238Y-141311380D01*
X111664761Y-141311380D01*
X111569523Y-141359000D01*
X111521904Y-141406619D01*
X111474285Y-141501857D01*
X111474285Y-141739952D01*
X111521904Y-141835190D01*
X111569523Y-141882809D01*
X111664761Y-141930428D01*
X111855238Y-141930428D01*
X111950476Y-141882809D01*
X111998095Y-141835190D01*
X112045714Y-141739952D01*
X108886666Y-141311380D02*
X109553333Y-141311380D01*
X109124761Y-142311380D01*
X106918095Y-141311380D02*
X106441904Y-141311380D01*
X106394285Y-141787571D01*
X106441904Y-141739952D01*
X106537142Y-141692333D01*
X106775238Y-141692333D01*
X106870476Y-141739952D01*
X106918095Y-141787571D01*
X106965714Y-141882809D01*
X106965714Y-142120904D01*
X106918095Y-142216142D01*
X106870476Y-142263761D01*
X106775238Y-142311380D01*
X106537142Y-142311380D01*
X106441904Y-142263761D01*
X106394285Y-142216142D01*
X103806666Y-141311380D02*
X104425714Y-141311380D01*
X104092380Y-141692333D01*
X104235238Y-141692333D01*
X104330476Y-141739952D01*
X104378095Y-141787571D01*
X104425714Y-141882809D01*
X104425714Y-142120904D01*
X104378095Y-142216142D01*
X104330476Y-142263761D01*
X104235238Y-142311380D01*
X103949523Y-142311380D01*
X103854285Y-142263761D01*
X103806666Y-142216142D01*
X101885714Y-142311380D02*
X101314285Y-142311380D01*
X101600000Y-142311380D02*
X101600000Y-141311380D01*
X101504761Y-141454238D01*
X101409523Y-141549476D01*
X101314285Y-141597095D01*
X103854285Y-135056619D02*
X103901904Y-135009000D01*
X103997142Y-134961380D01*
X104235238Y-134961380D01*
X104330476Y-135009000D01*
X104378095Y-135056619D01*
X104425714Y-135151857D01*
X104425714Y-135247095D01*
X104378095Y-135389952D01*
X103806666Y-135961380D01*
X104425714Y-135961380D01*
X101552380Y-134961380D02*
X101647619Y-134961380D01*
X101742857Y-135009000D01*
X101790476Y-135056619D01*
X101838095Y-135151857D01*
X101885714Y-135342333D01*
X101885714Y-135580428D01*
X101838095Y-135770904D01*
X101790476Y-135866142D01*
X101742857Y-135913761D01*
X101647619Y-135961380D01*
X101552380Y-135961380D01*
X101457142Y-135913761D01*
X101409523Y-135866142D01*
X101361904Y-135770904D01*
X101314285Y-135580428D01*
X101314285Y-135342333D01*
X101361904Y-135151857D01*
X101409523Y-135056619D01*
X101457142Y-135009000D01*
X101552380Y-134961380D01*
D11*
G04 #@! TO.C,TP38*
X112710000Y-70358000D02*
G75*
G03X112710000Y-70358000I-950000J0D01*
G01*
G04 #@! TO.C,TP50*
X105090000Y-64008000D02*
G75*
G03X105090000Y-64008000I-950000J0D01*
G01*
G04 #@! TO.C,TP49*
X107630000Y-64008000D02*
G75*
G03X107630000Y-64008000I-950000J0D01*
G01*
G04 #@! TO.C,TP48*
X110170000Y-64008000D02*
G75*
G03X110170000Y-64008000I-950000J0D01*
G01*
G04 #@! TO.C,TP47*
X112710000Y-64008000D02*
G75*
G03X112710000Y-64008000I-950000J0D01*
G01*
G04 #@! TO.C,TP46*
X115250000Y-64008000D02*
G75*
G03X115250000Y-64008000I-950000J0D01*
G01*
G04 #@! TO.C,TP45*
X117790000Y-64008000D02*
G75*
G03X117790000Y-64008000I-950000J0D01*
G01*
G04 #@! TO.C,TP44*
X120330000Y-64008000D02*
G75*
G03X120330000Y-64008000I-950000J0D01*
G01*
G04 #@! TO.C,TP43*
X122870000Y-64008000D02*
G75*
G03X122870000Y-64008000I-950000J0D01*
G01*
G04 #@! TO.C,TP42*
X102550000Y-70358000D02*
G75*
G03X102550000Y-70358000I-950000J0D01*
G01*
G04 #@! TO.C,TP41*
X105090000Y-70358000D02*
G75*
G03X105090000Y-70358000I-950000J0D01*
G01*
G04 #@! TO.C,TP40*
X107630000Y-70358000D02*
G75*
G03X107630000Y-70358000I-950000J0D01*
G01*
G04 #@! TO.C,TP39*
X110170000Y-70358000D02*
G75*
G03X110170000Y-70358000I-950000J0D01*
G01*
G04 #@! TO.C,TP37*
X115250000Y-70358000D02*
G75*
G03X115250000Y-70358000I-950000J0D01*
G01*
G04 #@! TO.C,TP36*
X117790000Y-70358000D02*
G75*
G03X117790000Y-70358000I-950000J0D01*
G01*
G04 #@! TO.C,TP35*
X120330000Y-70358000D02*
G75*
G03X120330000Y-70358000I-950000J0D01*
G01*
G04 #@! TO.C,TP34*
X122870000Y-70358000D02*
G75*
G03X122870000Y-70358000I-950000J0D01*
G01*
G04 #@! TO.C,TP51*
X102550000Y-64008000D02*
G75*
G03X102550000Y-64008000I-950000J0D01*
G01*
G04 #@! TO.C,TP32*
X100772000Y-118491000D02*
G75*
G03X100772000Y-118491000I-950000J0D01*
G01*
G04 #@! TO.C,TP31*
X100772000Y-107061000D02*
G75*
G03X100772000Y-107061000I-950000J0D01*
G01*
G04 #@! TO.C,TP30*
X100772000Y-122301000D02*
G75*
G03X100772000Y-122301000I-950000J0D01*
G01*
G04 #@! TO.C,TP29*
X100772000Y-126111000D02*
G75*
G03X100772000Y-126111000I-950000J0D01*
G01*
G04 #@! TO.C,TP28*
X100772000Y-110871000D02*
G75*
G03X100772000Y-110871000I-950000J0D01*
G01*
G04 #@! TO.C,TP27*
X100772000Y-129921000D02*
G75*
G03X100772000Y-129921000I-950000J0D01*
G01*
G04 #@! TO.C,TP26*
X100772000Y-114681000D02*
G75*
G03X100772000Y-114681000I-950000J0D01*
G01*
G04 #@! TO.C,TP24*
X125410000Y-114681000D02*
G75*
G03X125410000Y-114681000I-950000J0D01*
G01*
G04 #@! TO.C,TP23*
X125410000Y-107061000D02*
G75*
G03X125410000Y-107061000I-950000J0D01*
G01*
G04 #@! TO.C,TP22*
X125410000Y-103251000D02*
G75*
G03X125410000Y-103251000I-950000J0D01*
G01*
G04 #@! TO.C,TP21*
X125410000Y-118491000D02*
G75*
G03X125410000Y-118491000I-950000J0D01*
G01*
G04 #@! TO.C,TP20*
X125410000Y-110871000D02*
G75*
G03X125410000Y-110871000I-950000J0D01*
G01*
G04 #@! TO.C,TP19*
X125410000Y-122301000D02*
G75*
G03X125410000Y-122301000I-950000J0D01*
G01*
G04 #@! TO.C,TP33*
X100772000Y-103251000D02*
G75*
G03X100772000Y-103251000I-950000J0D01*
G01*
G04 #@! TO.C,TP18*
X125410000Y-129921000D02*
G75*
G03X125410000Y-129921000I-950000J0D01*
G01*
G04 #@! TO.C,TP25*
X125410000Y-126111000D02*
G75*
G03X125410000Y-126111000I-950000J0D01*
G01*
G04 #@! TO.C,TP17*
X102550000Y-137541000D02*
G75*
G03X102550000Y-137541000I-950000J0D01*
G01*
G04 #@! TO.C,TP16*
X105090000Y-137541000D02*
G75*
G03X105090000Y-137541000I-950000J0D01*
G01*
G04 #@! TO.C,TP15*
X107630000Y-137541000D02*
G75*
G03X107630000Y-137541000I-950000J0D01*
G01*
G04 #@! TO.C,TP14*
X110170000Y-137541000D02*
G75*
G03X110170000Y-137541000I-950000J0D01*
G01*
G04 #@! TO.C,TP13*
X112710000Y-137541000D02*
G75*
G03X112710000Y-137541000I-950000J0D01*
G01*
G04 #@! TO.C,TP12*
X115250000Y-137541000D02*
G75*
G03X115250000Y-137541000I-950000J0D01*
G01*
G04 #@! TO.C,TP11*
X117790000Y-137541000D02*
G75*
G03X117790000Y-137541000I-950000J0D01*
G01*
G04 #@! TO.C,TP10*
X120330000Y-137541000D02*
G75*
G03X120330000Y-137541000I-950000J0D01*
G01*
G04 #@! TO.C,TP9*
X102550000Y-143891000D02*
G75*
G03X102550000Y-143891000I-950000J0D01*
G01*
G04 #@! TO.C,TP8*
X105090000Y-143891000D02*
G75*
G03X105090000Y-143891000I-950000J0D01*
G01*
G04 #@! TO.C,TP7*
X107630000Y-143891000D02*
G75*
G03X107630000Y-143891000I-950000J0D01*
G01*
G04 #@! TO.C,TP6*
X110170000Y-143891000D02*
G75*
G03X110170000Y-143891000I-950000J0D01*
G01*
G04 #@! TO.C,TP5*
X112710000Y-143891000D02*
G75*
G03X112710000Y-143891000I-950000J0D01*
G01*
G04 #@! TO.C,TP4*
X115250000Y-143891000D02*
G75*
G03X115250000Y-143891000I-950000J0D01*
G01*
G04 #@! TO.C,TP3*
X117790000Y-143891000D02*
G75*
G03X117790000Y-143891000I-950000J0D01*
G01*
G04 #@! TO.C,TP2*
X120330000Y-143891000D02*
G75*
G03X120330000Y-143891000I-950000J0D01*
G01*
G04 #@! TO.C,TP1*
X125410000Y-137541000D02*
G75*
G03X125410000Y-137541000I-950000J0D01*
G01*
D12*
G04 #@! TO.C,G\002A\002A\002A*
G36*
X124001872Y-144056961D02*
X124022846Y-144067957D01*
X124054114Y-144084804D01*
X124093434Y-144106290D01*
X124138565Y-144131207D01*
X124153585Y-144139549D01*
X124211824Y-144172494D01*
X124255244Y-144198328D01*
X124284267Y-144217326D01*
X124299314Y-144229758D01*
X124301403Y-144235398D01*
X124298599Y-144246717D01*
X124295937Y-144271827D01*
X124293642Y-144307588D01*
X124291936Y-144350857D01*
X124291323Y-144377151D01*
X124288983Y-144509576D01*
X124147167Y-144431669D01*
X124005350Y-144353762D01*
X124005350Y-144225112D01*
X124004819Y-144178412D01*
X124003356Y-144136249D01*
X124001159Y-144102224D01*
X123998426Y-144079936D01*
X123997093Y-144074745D01*
X123992553Y-144059049D01*
X123993431Y-144053027D01*
X124001872Y-144056961D01*
X124001872Y-144056961D01*
G37*
X124001872Y-144056961D02*
X124022846Y-144067957D01*
X124054114Y-144084804D01*
X124093434Y-144106290D01*
X124138565Y-144131207D01*
X124153585Y-144139549D01*
X124211824Y-144172494D01*
X124255244Y-144198328D01*
X124284267Y-144217326D01*
X124299314Y-144229758D01*
X124301403Y-144235398D01*
X124298599Y-144246717D01*
X124295937Y-144271827D01*
X124293642Y-144307588D01*
X124291936Y-144350857D01*
X124291323Y-144377151D01*
X124288983Y-144509576D01*
X124147167Y-144431669D01*
X124005350Y-144353762D01*
X124005350Y-144225112D01*
X124004819Y-144178412D01*
X124003356Y-144136249D01*
X124001159Y-144102224D01*
X123998426Y-144079936D01*
X123997093Y-144074745D01*
X123992553Y-144059049D01*
X123993431Y-144053027D01*
X124001872Y-144056961D01*
G36*
X124585126Y-144378667D02*
X124605028Y-144389603D01*
X124635290Y-144406327D01*
X124673695Y-144427616D01*
X124718027Y-144452243D01*
X124728859Y-144458268D01*
X124878970Y-144541776D01*
X124877822Y-144684417D01*
X124877321Y-144731623D01*
X124876657Y-144772494D01*
X124875894Y-144804211D01*
X124875097Y-144823957D01*
X124874508Y-144829225D01*
X124866784Y-144826025D01*
X124846544Y-144815830D01*
X124816087Y-144799849D01*
X124777712Y-144779288D01*
X124733716Y-144755355D01*
X124728829Y-144752677D01*
X124585317Y-144673963D01*
X124581084Y-144524348D01*
X124579770Y-144476148D01*
X124578730Y-144434404D01*
X124578022Y-144401812D01*
X124577706Y-144381065D01*
X124577799Y-144374747D01*
X124585126Y-144378667D01*
X124585126Y-144378667D01*
G37*
X124585126Y-144378667D02*
X124605028Y-144389603D01*
X124635290Y-144406327D01*
X124673695Y-144427616D01*
X124718027Y-144452243D01*
X124728859Y-144458268D01*
X124878970Y-144541776D01*
X124877822Y-144684417D01*
X124877321Y-144731623D01*
X124876657Y-144772494D01*
X124875894Y-144804211D01*
X124875097Y-144823957D01*
X124874508Y-144829225D01*
X124866784Y-144826025D01*
X124846544Y-144815830D01*
X124816087Y-144799849D01*
X124777712Y-144779288D01*
X124733716Y-144755355D01*
X124728829Y-144752677D01*
X124585317Y-144673963D01*
X124581084Y-144524348D01*
X124579770Y-144476148D01*
X124578730Y-144434404D01*
X124578022Y-144401812D01*
X124577706Y-144381065D01*
X124577799Y-144374747D01*
X124585126Y-144378667D01*
G36*
X123706979Y-144318472D02*
X123707285Y-144401596D01*
X123707329Y-144479544D01*
X123707128Y-144550683D01*
X123706698Y-144613383D01*
X123706055Y-144666011D01*
X123705216Y-144706937D01*
X123704195Y-144734529D01*
X123703009Y-144747156D01*
X123702746Y-144747750D01*
X123694454Y-144752667D01*
X123672563Y-144765052D01*
X123638316Y-144784219D01*
X123592956Y-144809482D01*
X123537726Y-144840158D01*
X123473868Y-144875560D01*
X123402625Y-144915003D01*
X123325240Y-144957802D01*
X123242956Y-145003273D01*
X123157016Y-145050728D01*
X123068663Y-145099485D01*
X122979138Y-145148856D01*
X122889686Y-145198157D01*
X122801549Y-145246703D01*
X122715969Y-145293809D01*
X122634190Y-145338789D01*
X122557454Y-145380958D01*
X122487004Y-145419631D01*
X122424084Y-145454122D01*
X122369935Y-145483747D01*
X122325800Y-145507820D01*
X122292923Y-145525656D01*
X122272546Y-145536570D01*
X122266055Y-145539866D01*
X122263013Y-145539759D01*
X122260469Y-145536006D01*
X122258378Y-145527260D01*
X122256696Y-145512178D01*
X122255382Y-145489415D01*
X122254390Y-145457625D01*
X122253678Y-145415465D01*
X122253201Y-145361588D01*
X122252917Y-145294650D01*
X122252781Y-145213307D01*
X122252750Y-145128814D01*
X122252750Y-144712657D01*
X122271800Y-144693733D01*
X122285987Y-144682906D01*
X122311154Y-144666770D01*
X122344120Y-144647079D01*
X122381705Y-144625589D01*
X122420727Y-144604053D01*
X122458008Y-144584228D01*
X122490365Y-144567867D01*
X122514620Y-144556727D01*
X122527590Y-144552561D01*
X122527657Y-144552560D01*
X122532510Y-144554629D01*
X122536005Y-144562352D01*
X122538351Y-144578010D01*
X122539761Y-144603880D01*
X122540446Y-144642240D01*
X122540617Y-144692260D01*
X122540917Y-144738752D01*
X122541749Y-144778691D01*
X122543007Y-144809287D01*
X122544587Y-144827748D01*
X122545865Y-144831960D01*
X122554582Y-144828070D01*
X122575744Y-144817236D01*
X122606978Y-144800715D01*
X122645911Y-144779762D01*
X122690173Y-144755633D01*
X122693799Y-144753643D01*
X122836486Y-144675327D01*
X122836718Y-144535394D01*
X122837159Y-144479573D01*
X122838395Y-144438332D01*
X122840612Y-144409328D01*
X122843999Y-144390220D01*
X122848741Y-144378664D01*
X122849299Y-144377831D01*
X122861175Y-144367253D01*
X122884391Y-144351454D01*
X122915903Y-144332094D01*
X122952669Y-144310834D01*
X122991644Y-144289335D01*
X123029788Y-144269257D01*
X123064055Y-144252261D01*
X123091403Y-144240009D01*
X123108790Y-144234160D01*
X123112661Y-144234097D01*
X123117362Y-144238855D01*
X123120726Y-144250468D01*
X123122952Y-144271202D01*
X123124233Y-144303322D01*
X123124768Y-144349094D01*
X123124817Y-144374494D01*
X123125191Y-144420248D01*
X123126224Y-144459376D01*
X123127784Y-144489058D01*
X123129739Y-144506472D01*
X123131167Y-144509876D01*
X123140219Y-144505811D01*
X123161606Y-144494708D01*
X123192923Y-144477864D01*
X123231763Y-144456572D01*
X123275721Y-144432126D01*
X123277217Y-144431289D01*
X123416917Y-144353052D01*
X123421150Y-144207548D01*
X123423025Y-144152293D01*
X123425143Y-144111582D01*
X123427773Y-144083027D01*
X123431182Y-144064238D01*
X123435639Y-144052827D01*
X123438999Y-144048456D01*
X123450725Y-144039942D01*
X123474547Y-144024996D01*
X123507685Y-144005281D01*
X123547361Y-143982458D01*
X123578699Y-143964878D01*
X123704784Y-143894888D01*
X123706979Y-144318472D01*
X123706979Y-144318472D01*
G37*
X123706979Y-144318472D02*
X123707285Y-144401596D01*
X123707329Y-144479544D01*
X123707128Y-144550683D01*
X123706698Y-144613383D01*
X123706055Y-144666011D01*
X123705216Y-144706937D01*
X123704195Y-144734529D01*
X123703009Y-144747156D01*
X123702746Y-144747750D01*
X123694454Y-144752667D01*
X123672563Y-144765052D01*
X123638316Y-144784219D01*
X123592956Y-144809482D01*
X123537726Y-144840158D01*
X123473868Y-144875560D01*
X123402625Y-144915003D01*
X123325240Y-144957802D01*
X123242956Y-145003273D01*
X123157016Y-145050728D01*
X123068663Y-145099485D01*
X122979138Y-145148856D01*
X122889686Y-145198157D01*
X122801549Y-145246703D01*
X122715969Y-145293809D01*
X122634190Y-145338789D01*
X122557454Y-145380958D01*
X122487004Y-145419631D01*
X122424084Y-145454122D01*
X122369935Y-145483747D01*
X122325800Y-145507820D01*
X122292923Y-145525656D01*
X122272546Y-145536570D01*
X122266055Y-145539866D01*
X122263013Y-145539759D01*
X122260469Y-145536006D01*
X122258378Y-145527260D01*
X122256696Y-145512178D01*
X122255382Y-145489415D01*
X122254390Y-145457625D01*
X122253678Y-145415465D01*
X122253201Y-145361588D01*
X122252917Y-145294650D01*
X122252781Y-145213307D01*
X122252750Y-145128814D01*
X122252750Y-144712657D01*
X122271800Y-144693733D01*
X122285987Y-144682906D01*
X122311154Y-144666770D01*
X122344120Y-144647079D01*
X122381705Y-144625589D01*
X122420727Y-144604053D01*
X122458008Y-144584228D01*
X122490365Y-144567867D01*
X122514620Y-144556727D01*
X122527590Y-144552561D01*
X122527657Y-144552560D01*
X122532510Y-144554629D01*
X122536005Y-144562352D01*
X122538351Y-144578010D01*
X122539761Y-144603880D01*
X122540446Y-144642240D01*
X122540617Y-144692260D01*
X122540917Y-144738752D01*
X122541749Y-144778691D01*
X122543007Y-144809287D01*
X122544587Y-144827748D01*
X122545865Y-144831960D01*
X122554582Y-144828070D01*
X122575744Y-144817236D01*
X122606978Y-144800715D01*
X122645911Y-144779762D01*
X122690173Y-144755633D01*
X122693799Y-144753643D01*
X122836486Y-144675327D01*
X122836718Y-144535394D01*
X122837159Y-144479573D01*
X122838395Y-144438332D01*
X122840612Y-144409328D01*
X122843999Y-144390220D01*
X122848741Y-144378664D01*
X122849299Y-144377831D01*
X122861175Y-144367253D01*
X122884391Y-144351454D01*
X122915903Y-144332094D01*
X122952669Y-144310834D01*
X122991644Y-144289335D01*
X123029788Y-144269257D01*
X123064055Y-144252261D01*
X123091403Y-144240009D01*
X123108790Y-144234160D01*
X123112661Y-144234097D01*
X123117362Y-144238855D01*
X123120726Y-144250468D01*
X123122952Y-144271202D01*
X123124233Y-144303322D01*
X123124768Y-144349094D01*
X123124817Y-144374494D01*
X123125191Y-144420248D01*
X123126224Y-144459376D01*
X123127784Y-144489058D01*
X123129739Y-144506472D01*
X123131167Y-144509876D01*
X123140219Y-144505811D01*
X123161606Y-144494708D01*
X123192923Y-144477864D01*
X123231763Y-144456572D01*
X123275721Y-144432126D01*
X123277217Y-144431289D01*
X123416917Y-144353052D01*
X123421150Y-144207548D01*
X123423025Y-144152293D01*
X123425143Y-144111582D01*
X123427773Y-144083027D01*
X123431182Y-144064238D01*
X123435639Y-144052827D01*
X123438999Y-144048456D01*
X123450725Y-144039942D01*
X123474547Y-144024996D01*
X123507685Y-144005281D01*
X123547361Y-143982458D01*
X123578699Y-143964878D01*
X123704784Y-143894888D01*
X123706979Y-144318472D01*
G36*
X123726197Y-144759742D02*
X123748018Y-144771232D01*
X123782160Y-144789542D01*
X123827376Y-144813987D01*
X123882415Y-144843882D01*
X123946031Y-144878541D01*
X124016973Y-144917277D01*
X124093993Y-144959404D01*
X124175842Y-145004237D01*
X124261271Y-145051090D01*
X124349033Y-145099277D01*
X124437877Y-145148112D01*
X124526555Y-145196909D01*
X124613818Y-145244982D01*
X124698418Y-145291645D01*
X124779106Y-145336213D01*
X124854633Y-145377999D01*
X124923750Y-145416317D01*
X124985209Y-145450483D01*
X125037760Y-145479809D01*
X125080155Y-145503609D01*
X125101784Y-145515854D01*
X125128898Y-145532334D01*
X125148649Y-145546367D01*
X125157738Y-145555536D01*
X125157903Y-145556952D01*
X125151253Y-145566190D01*
X125135839Y-145585054D01*
X125113870Y-145611023D01*
X125087560Y-145641574D01*
X125059118Y-145674185D01*
X125030756Y-145706334D01*
X125004686Y-145735499D01*
X124983119Y-145759157D01*
X124968267Y-145774787D01*
X124962421Y-145779907D01*
X124954496Y-145775841D01*
X124932865Y-145764143D01*
X124898618Y-145745417D01*
X124852846Y-145720263D01*
X124796640Y-145689284D01*
X124731090Y-145653082D01*
X124657287Y-145612259D01*
X124576321Y-145567418D01*
X124489284Y-145519160D01*
X124397265Y-145468088D01*
X124335550Y-145433807D01*
X123713250Y-145088027D01*
X123710955Y-144921894D01*
X123710439Y-144858363D01*
X123710903Y-144810868D01*
X123712382Y-144778539D01*
X123714913Y-144760503D01*
X123717947Y-144755760D01*
X123726197Y-144759742D01*
X123726197Y-144759742D01*
G37*
X123726197Y-144759742D02*
X123748018Y-144771232D01*
X123782160Y-144789542D01*
X123827376Y-144813987D01*
X123882415Y-144843882D01*
X123946031Y-144878541D01*
X124016973Y-144917277D01*
X124093993Y-144959404D01*
X124175842Y-145004237D01*
X124261271Y-145051090D01*
X124349033Y-145099277D01*
X124437877Y-145148112D01*
X124526555Y-145196909D01*
X124613818Y-145244982D01*
X124698418Y-145291645D01*
X124779106Y-145336213D01*
X124854633Y-145377999D01*
X124923750Y-145416317D01*
X124985209Y-145450483D01*
X125037760Y-145479809D01*
X125080155Y-145503609D01*
X125101784Y-145515854D01*
X125128898Y-145532334D01*
X125148649Y-145546367D01*
X125157738Y-145555536D01*
X125157903Y-145556952D01*
X125151253Y-145566190D01*
X125135839Y-145585054D01*
X125113870Y-145611023D01*
X125087560Y-145641574D01*
X125059118Y-145674185D01*
X125030756Y-145706334D01*
X125004686Y-145735499D01*
X124983119Y-145759157D01*
X124968267Y-145774787D01*
X124962421Y-145779907D01*
X124954496Y-145775841D01*
X124932865Y-145764143D01*
X124898618Y-145745417D01*
X124852846Y-145720263D01*
X124796640Y-145689284D01*
X124731090Y-145653082D01*
X124657287Y-145612259D01*
X124576321Y-145567418D01*
X124489284Y-145519160D01*
X124397265Y-145468088D01*
X124335550Y-145433807D01*
X123713250Y-145088027D01*
X123710955Y-144921894D01*
X123710439Y-144858363D01*
X123710903Y-144810868D01*
X123712382Y-144778539D01*
X123714913Y-144760503D01*
X123717947Y-144755760D01*
X123726197Y-144759742D01*
G36*
X124318508Y-146060519D02*
X124358669Y-146078964D01*
X124397802Y-146109705D01*
X124434073Y-146151888D01*
X124465646Y-146204658D01*
X124466809Y-146207027D01*
X124481710Y-146240567D01*
X124492807Y-146273710D01*
X124500479Y-146309486D01*
X124505106Y-146350920D01*
X124507068Y-146401042D01*
X124506744Y-146462877D01*
X124505367Y-146514554D01*
X124500650Y-146660447D01*
X124328434Y-146582287D01*
X124156217Y-146504127D01*
X124160161Y-146339027D01*
X124162207Y-146272419D01*
X124165111Y-146220231D01*
X124169372Y-146179952D01*
X124175491Y-146149074D01*
X124183965Y-146125085D01*
X124195295Y-146105477D01*
X124209980Y-146087739D01*
X124210199Y-146087505D01*
X124242439Y-146063935D01*
X124279153Y-146055224D01*
X124318508Y-146060519D01*
X124318508Y-146060519D01*
G37*
X124318508Y-146060519D02*
X124358669Y-146078964D01*
X124397802Y-146109705D01*
X124434073Y-146151888D01*
X124465646Y-146204658D01*
X124466809Y-146207027D01*
X124481710Y-146240567D01*
X124492807Y-146273710D01*
X124500479Y-146309486D01*
X124505106Y-146350920D01*
X124507068Y-146401042D01*
X124506744Y-146462877D01*
X124505367Y-146514554D01*
X124500650Y-146660447D01*
X124328434Y-146582287D01*
X124156217Y-146504127D01*
X124160161Y-146339027D01*
X124162207Y-146272419D01*
X124165111Y-146220231D01*
X124169372Y-146179952D01*
X124175491Y-146149074D01*
X124183965Y-146125085D01*
X124195295Y-146105477D01*
X124209980Y-146087739D01*
X124210199Y-146087505D01*
X124242439Y-146063935D01*
X124279153Y-146055224D01*
X124318508Y-146060519D01*
G36*
X123709017Y-147761427D02*
X123685734Y-147761272D01*
X123667573Y-147758032D01*
X123638962Y-147749508D01*
X123604931Y-147737275D01*
X123590484Y-147731512D01*
X123469808Y-147673559D01*
X123349907Y-147599542D01*
X123232011Y-147510326D01*
X123117348Y-147406774D01*
X123091507Y-147380964D01*
X122967423Y-147242720D01*
X122855686Y-147093316D01*
X122756730Y-146933629D01*
X122670991Y-146764535D01*
X122598905Y-146586912D01*
X122540906Y-146401636D01*
X122497430Y-146209585D01*
X122490648Y-146171222D01*
X122485388Y-146136181D01*
X122479884Y-146092844D01*
X122474384Y-146044032D01*
X122469138Y-145992565D01*
X122464394Y-145941263D01*
X122460400Y-145892945D01*
X122457406Y-145850431D01*
X122455659Y-145816542D01*
X122455409Y-145794097D01*
X122456683Y-145786002D01*
X122464506Y-145781552D01*
X122485817Y-145769651D01*
X122519281Y-145751038D01*
X122563564Y-145726450D01*
X122617332Y-145696626D01*
X122679251Y-145662303D01*
X122747987Y-145624220D01*
X122822206Y-145583116D01*
X122900573Y-145539727D01*
X122981754Y-145494793D01*
X123064416Y-145449052D01*
X123147224Y-145403241D01*
X123228844Y-145358099D01*
X123307942Y-145314363D01*
X123383184Y-145272773D01*
X123453236Y-145234066D01*
X123516763Y-145198981D01*
X123572431Y-145168255D01*
X123618907Y-145142627D01*
X123654856Y-145122835D01*
X123678944Y-145109617D01*
X123689837Y-145103710D01*
X123689967Y-145103643D01*
X123709017Y-145093831D01*
X123709017Y-147761427D01*
X123709017Y-147761427D01*
G37*
X123709017Y-147761427D02*
X123685734Y-147761272D01*
X123667573Y-147758032D01*
X123638962Y-147749508D01*
X123604931Y-147737275D01*
X123590484Y-147731512D01*
X123469808Y-147673559D01*
X123349907Y-147599542D01*
X123232011Y-147510326D01*
X123117348Y-147406774D01*
X123091507Y-147380964D01*
X122967423Y-147242720D01*
X122855686Y-147093316D01*
X122756730Y-146933629D01*
X122670991Y-146764535D01*
X122598905Y-146586912D01*
X122540906Y-146401636D01*
X122497430Y-146209585D01*
X122490648Y-146171222D01*
X122485388Y-146136181D01*
X122479884Y-146092844D01*
X122474384Y-146044032D01*
X122469138Y-145992565D01*
X122464394Y-145941263D01*
X122460400Y-145892945D01*
X122457406Y-145850431D01*
X122455659Y-145816542D01*
X122455409Y-145794097D01*
X122456683Y-145786002D01*
X122464506Y-145781552D01*
X122485817Y-145769651D01*
X122519281Y-145751038D01*
X122563564Y-145726450D01*
X122617332Y-145696626D01*
X122679251Y-145662303D01*
X122747987Y-145624220D01*
X122822206Y-145583116D01*
X122900573Y-145539727D01*
X122981754Y-145494793D01*
X123064416Y-145449052D01*
X123147224Y-145403241D01*
X123228844Y-145358099D01*
X123307942Y-145314363D01*
X123383184Y-145272773D01*
X123453236Y-145234066D01*
X123516763Y-145198981D01*
X123572431Y-145168255D01*
X123618907Y-145142627D01*
X123654856Y-145122835D01*
X123678944Y-145109617D01*
X123689837Y-145103710D01*
X123689967Y-145103643D01*
X123709017Y-145093831D01*
X123709017Y-147761427D01*
G04 #@! TD*
M02*
