G04 #@! TF.GenerationSoftware,KiCad,Pcbnew,5.99.0-unknown-3100cd3599~128~ubuntu20.04.1*
G04 #@! TF.CreationDate,2021-06-01T14:38:40+02:00*
G04 #@! TF.ProjectId,esp32,65737033-322e-46b6-9963-61645f706362,rev?*
G04 #@! TF.SameCoordinates,Original*
G04 #@! TF.FileFunction,Paste,Top*
G04 #@! TF.FilePolarity,Positive*
%FSLAX46Y46*%
G04 Gerber Fmt 4.6, Leading zero omitted, Abs format (unit mm)*
G04 Created by KiCad (PCBNEW 5.99.0-unknown-3100cd3599~128~ubuntu20.04.1) date 2021-06-01 14:38:40*
%MOMM*%
%LPD*%
G01*
G04 APERTURE LIST*
G04 Aperture macros list*
%AMRoundRect*
0 Rectangle with rounded corners*
0 $1 Rounding radius*
0 $2 $3 $4 $5 $6 $7 $8 $9 X,Y pos of 4 corners*
0 Add a 4 corners polygon primitive as box body*
4,1,4,$2,$3,$4,$5,$6,$7,$8,$9,$2,$3,0*
0 Add four circle primitives for the rounded corners*
1,1,$1+$1,$2,$3*
1,1,$1+$1,$4,$5*
1,1,$1+$1,$6,$7*
1,1,$1+$1,$8,$9*
0 Add four rect primitives between the rounded corners*
20,1,$1+$1,$2,$3,$4,$5,0*
20,1,$1+$1,$4,$5,$6,$7,0*
20,1,$1+$1,$6,$7,$8,$9,0*
20,1,$1+$1,$8,$9,$2,$3,0*%
G04 Aperture macros list end*
%ADD10RoundRect,0.150000X-0.150000X0.650000X-0.150000X-0.650000X0.150000X-0.650000X0.150000X0.650000X0*%
%ADD11R,1.000000X1.150000*%
%ADD12RoundRect,0.250000X-0.330000X-0.330000X0.330000X-0.330000X0.330000X0.330000X-0.330000X0.330000X0*%
%ADD13RoundRect,0.050000X-0.350000X-0.050000X0.350000X-0.050000X0.350000X0.050000X-0.350000X0.050000X0*%
%ADD14RoundRect,0.050000X-0.050000X-0.350000X0.050000X-0.350000X0.050000X0.350000X-0.050000X0.350000X0*%
%ADD15RoundRect,0.225000X0.250000X-0.225000X0.250000X0.225000X-0.250000X0.225000X-0.250000X-0.225000X0*%
%ADD16RoundRect,0.225000X0.225000X0.250000X-0.225000X0.250000X-0.225000X-0.250000X0.225000X-0.250000X0*%
G04 APERTURE END LIST*
D10*
X75405000Y-111000000D03*
X74135000Y-111000000D03*
X72865000Y-111000000D03*
X71595000Y-111000000D03*
X71595000Y-118200000D03*
X72865000Y-118200000D03*
X74135000Y-118200000D03*
X75405000Y-118200000D03*
D11*
X54300000Y-121075000D03*
X54300000Y-119325000D03*
X52900000Y-119325000D03*
X52900000Y-121075000D03*
D12*
X63680000Y-124570000D03*
X63680000Y-127430000D03*
X63680000Y-126000000D03*
X62250000Y-127430000D03*
X62250000Y-124570000D03*
X60820000Y-127430000D03*
X60820000Y-126000000D03*
X62250000Y-126000000D03*
X60820000Y-124570000D03*
D13*
X59300000Y-123800000D03*
X59300000Y-124200000D03*
X59300000Y-124600000D03*
X59300000Y-125000000D03*
X59300000Y-125400000D03*
X59300000Y-125800000D03*
X59300000Y-126200000D03*
X59300000Y-126600000D03*
X59300000Y-127000000D03*
X59300000Y-127400000D03*
X59300000Y-127800000D03*
X59300000Y-128200000D03*
D14*
X60050000Y-128950000D03*
X60450000Y-128950000D03*
X60850000Y-128950000D03*
X61250000Y-128950000D03*
X61650000Y-128950000D03*
X62050000Y-128950000D03*
X62450000Y-128950000D03*
X62850000Y-128950000D03*
X63250000Y-128950000D03*
X63650000Y-128950000D03*
X64050000Y-128950000D03*
X64450000Y-128950000D03*
D13*
X65200000Y-128200000D03*
X65200000Y-127800000D03*
X65200000Y-127400000D03*
X65200000Y-127000000D03*
X65200000Y-126600000D03*
X65200000Y-126200000D03*
X65200000Y-125800000D03*
X65200000Y-125400000D03*
X65200000Y-125000000D03*
X65200000Y-124600000D03*
X65200000Y-124200000D03*
X65200000Y-123800000D03*
D14*
X64450000Y-123050000D03*
X64050000Y-123050000D03*
X63650000Y-123050000D03*
X63250000Y-123050000D03*
X62850000Y-123050000D03*
X62450000Y-123050000D03*
X62050000Y-123050000D03*
X61650000Y-123050000D03*
X61250000Y-123050000D03*
X60850000Y-123050000D03*
X60450000Y-123050000D03*
X60050000Y-123050000D03*
D15*
X51200000Y-120975000D03*
X51200000Y-119425000D03*
D16*
X55975000Y-123600000D03*
X54425000Y-123600000D03*
D15*
X56000000Y-120975000D03*
X56000000Y-119425000D03*
M02*
