G04 #@! TF.GenerationSoftware,KiCad,Pcbnew,5.99.0-unknown-3100cd3599~128~ubuntu20.04.1*
G04 #@! TF.CreationDate,2021-06-01T14:38:41+02:00*
G04 #@! TF.ProjectId,esp32,65737033-322e-46b6-9963-61645f706362,rev?*
G04 #@! TF.SameCoordinates,Original*
G04 #@! TF.FileFunction,Legend,Top*
G04 #@! TF.FilePolarity,Positive*
%FSLAX46Y46*%
G04 Gerber Fmt 4.6, Leading zero omitted, Abs format (unit mm)*
G04 Created by KiCad (PCBNEW 5.99.0-unknown-3100cd3599~128~ubuntu20.04.1) date 2021-06-01 14:38:41*
%MOMM*%
%LPD*%
G01*
G04 APERTURE LIST*
%ADD10C,0.150000*%
%ADD11C,0.200000*%
%ADD12C,0.300000*%
%ADD13C,0.120000*%
%ADD14C,0.010000*%
G04 APERTURE END LIST*
D10*
X54359404Y-127052380D02*
X53787976Y-127052380D01*
X54073690Y-127052380D02*
X54073690Y-126052380D01*
X53978452Y-126195238D01*
X53883214Y-126290476D01*
X53787976Y-126338095D01*
X54978452Y-126052380D02*
X55073690Y-126052380D01*
X55168928Y-126100000D01*
X55216547Y-126147619D01*
X55264166Y-126242857D01*
X55311785Y-126433333D01*
X55311785Y-126671428D01*
X55264166Y-126861904D01*
X55216547Y-126957142D01*
X55168928Y-127004761D01*
X55073690Y-127052380D01*
X54978452Y-127052380D01*
X54883214Y-127004761D01*
X54835595Y-126957142D01*
X54787976Y-126861904D01*
X54740357Y-126671428D01*
X54740357Y-126433333D01*
X54787976Y-126242857D01*
X54835595Y-126147619D01*
X54883214Y-126100000D01*
X54978452Y-126052380D01*
X55740357Y-126385714D02*
X55740357Y-127052380D01*
X55740357Y-126480952D02*
X55787976Y-126433333D01*
X55883214Y-126385714D01*
X56026071Y-126385714D01*
X56121309Y-126433333D01*
X56168928Y-126528571D01*
X56168928Y-127052380D01*
X56978452Y-126528571D02*
X56645119Y-126528571D01*
X56645119Y-127052380D02*
X56645119Y-126052380D01*
X57121309Y-126052380D01*
D11*
X61968095Y-137127380D02*
X61968095Y-136127380D01*
X62206190Y-136127380D01*
X62349047Y-136175000D01*
X62444285Y-136270238D01*
X62491904Y-136365476D01*
X62539523Y-136555952D01*
X62539523Y-136698809D01*
X62491904Y-136889285D01*
X62444285Y-136984523D01*
X62349047Y-137079761D01*
X62206190Y-137127380D01*
X61968095Y-137127380D01*
X63110952Y-136555952D02*
X63015714Y-136508333D01*
X62968095Y-136460714D01*
X62920476Y-136365476D01*
X62920476Y-136317857D01*
X62968095Y-136222619D01*
X63015714Y-136175000D01*
X63110952Y-136127380D01*
X63301428Y-136127380D01*
X63396666Y-136175000D01*
X63444285Y-136222619D01*
X63491904Y-136317857D01*
X63491904Y-136365476D01*
X63444285Y-136460714D01*
X63396666Y-136508333D01*
X63301428Y-136555952D01*
X63110952Y-136555952D01*
X63015714Y-136603571D01*
X62968095Y-136651190D01*
X62920476Y-136746428D01*
X62920476Y-136936904D01*
X62968095Y-137032142D01*
X63015714Y-137079761D01*
X63110952Y-137127380D01*
X63301428Y-137127380D01*
X63396666Y-137079761D01*
X63444285Y-137032142D01*
X63491904Y-136936904D01*
X63491904Y-136746428D01*
X63444285Y-136651190D01*
X63396666Y-136603571D01*
X63301428Y-136555952D01*
X63920476Y-137032142D02*
X63968095Y-137079761D01*
X63920476Y-137127380D01*
X63872857Y-137079761D01*
X63920476Y-137032142D01*
X63920476Y-137127380D01*
X63920476Y-136508333D02*
X63968095Y-136555952D01*
X63920476Y-136603571D01*
X63872857Y-136555952D01*
X63920476Y-136508333D01*
X63920476Y-136603571D01*
X65491904Y-136603571D02*
X65158571Y-136603571D01*
X65158571Y-137127380D02*
X65158571Y-136127380D01*
X65634761Y-136127380D01*
X66491904Y-137127380D02*
X66015714Y-137127380D01*
X66015714Y-136127380D01*
X66777619Y-136841666D02*
X67253809Y-136841666D01*
X66682380Y-137127380D02*
X67015714Y-136127380D01*
X67349047Y-137127380D01*
X67634761Y-137079761D02*
X67777619Y-137127380D01*
X68015714Y-137127380D01*
X68110952Y-137079761D01*
X68158571Y-137032142D01*
X68206190Y-136936904D01*
X68206190Y-136841666D01*
X68158571Y-136746428D01*
X68110952Y-136698809D01*
X68015714Y-136651190D01*
X67825238Y-136603571D01*
X67730000Y-136555952D01*
X67682380Y-136508333D01*
X67634761Y-136413095D01*
X67634761Y-136317857D01*
X67682380Y-136222619D01*
X67730000Y-136175000D01*
X67825238Y-136127380D01*
X68063333Y-136127380D01*
X68206190Y-136175000D01*
X68634761Y-137127380D02*
X68634761Y-136127380D01*
X68634761Y-136603571D02*
X69206190Y-136603571D01*
X69206190Y-137127380D02*
X69206190Y-136127380D01*
X70444285Y-137127380D02*
X70444285Y-136127380D01*
X71110952Y-136127380D02*
X71301428Y-136127380D01*
X71396666Y-136175000D01*
X71491904Y-136270238D01*
X71539523Y-136460714D01*
X71539523Y-136794047D01*
X71491904Y-136984523D01*
X71396666Y-137079761D01*
X71301428Y-137127380D01*
X71110952Y-137127380D01*
X71015714Y-137079761D01*
X70920476Y-136984523D01*
X70872857Y-136794047D01*
X70872857Y-136460714D01*
X70920476Y-136270238D01*
X71015714Y-136175000D01*
X71110952Y-136127380D01*
X72158571Y-136127380D02*
X72253809Y-136127380D01*
X72349047Y-136175000D01*
X72396666Y-136222619D01*
X72444285Y-136317857D01*
X72491904Y-136508333D01*
X72491904Y-136746428D01*
X72444285Y-136936904D01*
X72396666Y-137032142D01*
X72349047Y-137079761D01*
X72253809Y-137127380D01*
X72158571Y-137127380D01*
X72063333Y-137079761D01*
X72015714Y-137032142D01*
X71968095Y-136936904D01*
X71920476Y-136746428D01*
X71920476Y-136508333D01*
X71968095Y-136317857D01*
X72015714Y-136222619D01*
X72063333Y-136175000D01*
X72158571Y-136127380D01*
X61968095Y-138737380D02*
X61968095Y-137737380D01*
X62206190Y-137737380D01*
X62349047Y-137785000D01*
X62444285Y-137880238D01*
X62491904Y-137975476D01*
X62539523Y-138165952D01*
X62539523Y-138308809D01*
X62491904Y-138499285D01*
X62444285Y-138594523D01*
X62349047Y-138689761D01*
X62206190Y-138737380D01*
X61968095Y-138737380D01*
X63015714Y-138737380D02*
X63206190Y-138737380D01*
X63301428Y-138689761D01*
X63349047Y-138642142D01*
X63444285Y-138499285D01*
X63491904Y-138308809D01*
X63491904Y-137927857D01*
X63444285Y-137832619D01*
X63396666Y-137785000D01*
X63301428Y-137737380D01*
X63110952Y-137737380D01*
X63015714Y-137785000D01*
X62968095Y-137832619D01*
X62920476Y-137927857D01*
X62920476Y-138165952D01*
X62968095Y-138261190D01*
X63015714Y-138308809D01*
X63110952Y-138356428D01*
X63301428Y-138356428D01*
X63396666Y-138308809D01*
X63444285Y-138261190D01*
X63491904Y-138165952D01*
X63920476Y-138642142D02*
X63968095Y-138689761D01*
X63920476Y-138737380D01*
X63872857Y-138689761D01*
X63920476Y-138642142D01*
X63920476Y-138737380D01*
X63920476Y-138118333D02*
X63968095Y-138165952D01*
X63920476Y-138213571D01*
X63872857Y-138165952D01*
X63920476Y-138118333D01*
X63920476Y-138213571D01*
X65491904Y-138213571D02*
X65158571Y-138213571D01*
X65158571Y-138737380D02*
X65158571Y-137737380D01*
X65634761Y-137737380D01*
X66491904Y-138737380D02*
X66015714Y-138737380D01*
X66015714Y-137737380D01*
X66777619Y-138451666D02*
X67253809Y-138451666D01*
X66682380Y-138737380D02*
X67015714Y-137737380D01*
X67349047Y-138737380D01*
X67634761Y-138689761D02*
X67777619Y-138737380D01*
X68015714Y-138737380D01*
X68110952Y-138689761D01*
X68158571Y-138642142D01*
X68206190Y-138546904D01*
X68206190Y-138451666D01*
X68158571Y-138356428D01*
X68110952Y-138308809D01*
X68015714Y-138261190D01*
X67825238Y-138213571D01*
X67730000Y-138165952D01*
X67682380Y-138118333D01*
X67634761Y-138023095D01*
X67634761Y-137927857D01*
X67682380Y-137832619D01*
X67730000Y-137785000D01*
X67825238Y-137737380D01*
X68063333Y-137737380D01*
X68206190Y-137785000D01*
X68634761Y-138737380D02*
X68634761Y-137737380D01*
X68634761Y-138213571D02*
X69206190Y-138213571D01*
X69206190Y-138737380D02*
X69206190Y-137737380D01*
X70444285Y-138737380D02*
X70444285Y-137737380D01*
X71110952Y-137737380D02*
X71301428Y-137737380D01*
X71396666Y-137785000D01*
X71491904Y-137880238D01*
X71539523Y-138070714D01*
X71539523Y-138404047D01*
X71491904Y-138594523D01*
X71396666Y-138689761D01*
X71301428Y-138737380D01*
X71110952Y-138737380D01*
X71015714Y-138689761D01*
X70920476Y-138594523D01*
X70872857Y-138404047D01*
X70872857Y-138070714D01*
X70920476Y-137880238D01*
X71015714Y-137785000D01*
X71110952Y-137737380D01*
X72491904Y-138737380D02*
X71920476Y-138737380D01*
X72206190Y-138737380D02*
X72206190Y-137737380D01*
X72110952Y-137880238D01*
X72015714Y-137975476D01*
X71920476Y-138023095D01*
X61968095Y-140347380D02*
X61968095Y-139347380D01*
X62206190Y-139347380D01*
X62349047Y-139395000D01*
X62444285Y-139490238D01*
X62491904Y-139585476D01*
X62539523Y-139775952D01*
X62539523Y-139918809D01*
X62491904Y-140109285D01*
X62444285Y-140204523D01*
X62349047Y-140299761D01*
X62206190Y-140347380D01*
X61968095Y-140347380D01*
X63491904Y-140347380D02*
X62920476Y-140347380D01*
X63206190Y-140347380D02*
X63206190Y-139347380D01*
X63110952Y-139490238D01*
X63015714Y-139585476D01*
X62920476Y-139633095D01*
X64110952Y-139347380D02*
X64206190Y-139347380D01*
X64301428Y-139395000D01*
X64349047Y-139442619D01*
X64396666Y-139537857D01*
X64444285Y-139728333D01*
X64444285Y-139966428D01*
X64396666Y-140156904D01*
X64349047Y-140252142D01*
X64301428Y-140299761D01*
X64206190Y-140347380D01*
X64110952Y-140347380D01*
X64015714Y-140299761D01*
X63968095Y-140252142D01*
X63920476Y-140156904D01*
X63872857Y-139966428D01*
X63872857Y-139728333D01*
X63920476Y-139537857D01*
X63968095Y-139442619D01*
X64015714Y-139395000D01*
X64110952Y-139347380D01*
X64872857Y-140252142D02*
X64920476Y-140299761D01*
X64872857Y-140347380D01*
X64825238Y-140299761D01*
X64872857Y-140252142D01*
X64872857Y-140347380D01*
X64872857Y-139728333D02*
X64920476Y-139775952D01*
X64872857Y-139823571D01*
X64825238Y-139775952D01*
X64872857Y-139728333D01*
X64872857Y-139823571D01*
X66444285Y-139823571D02*
X66110952Y-139823571D01*
X66110952Y-140347380D02*
X66110952Y-139347380D01*
X66587142Y-139347380D01*
X67444285Y-140347380D02*
X66968095Y-140347380D01*
X66968095Y-139347380D01*
X67730000Y-140061666D02*
X68206190Y-140061666D01*
X67634761Y-140347380D02*
X67968095Y-139347380D01*
X68301428Y-140347380D01*
X68587142Y-140299761D02*
X68730000Y-140347380D01*
X68968095Y-140347380D01*
X69063333Y-140299761D01*
X69110952Y-140252142D01*
X69158571Y-140156904D01*
X69158571Y-140061666D01*
X69110952Y-139966428D01*
X69063333Y-139918809D01*
X68968095Y-139871190D01*
X68777619Y-139823571D01*
X68682380Y-139775952D01*
X68634761Y-139728333D01*
X68587142Y-139633095D01*
X68587142Y-139537857D01*
X68634761Y-139442619D01*
X68682380Y-139395000D01*
X68777619Y-139347380D01*
X69015714Y-139347380D01*
X69158571Y-139395000D01*
X69587142Y-140347380D02*
X69587142Y-139347380D01*
X69587142Y-139823571D02*
X70158571Y-139823571D01*
X70158571Y-140347380D02*
X70158571Y-139347380D01*
X71349047Y-140299761D02*
X71491904Y-140347380D01*
X71730000Y-140347380D01*
X71825238Y-140299761D01*
X71872857Y-140252142D01*
X71920476Y-140156904D01*
X71920476Y-140061666D01*
X71872857Y-139966428D01*
X71825238Y-139918809D01*
X71730000Y-139871190D01*
X71539523Y-139823571D01*
X71444285Y-139775952D01*
X71396666Y-139728333D01*
X71349047Y-139633095D01*
X71349047Y-139537857D01*
X71396666Y-139442619D01*
X71444285Y-139395000D01*
X71539523Y-139347380D01*
X71777619Y-139347380D01*
X71920476Y-139395000D01*
X72920476Y-140252142D02*
X72872857Y-140299761D01*
X72730000Y-140347380D01*
X72634761Y-140347380D01*
X72491904Y-140299761D01*
X72396666Y-140204523D01*
X72349047Y-140109285D01*
X72301428Y-139918809D01*
X72301428Y-139775952D01*
X72349047Y-139585476D01*
X72396666Y-139490238D01*
X72491904Y-139395000D01*
X72634761Y-139347380D01*
X72730000Y-139347380D01*
X72872857Y-139395000D01*
X72920476Y-139442619D01*
X73825238Y-140347380D02*
X73349047Y-140347380D01*
X73349047Y-139347380D01*
X74158571Y-140347380D02*
X74158571Y-139347380D01*
X74730000Y-140347380D02*
X74301428Y-139775952D01*
X74730000Y-139347380D02*
X74158571Y-139918809D01*
X61968095Y-141957380D02*
X61968095Y-140957380D01*
X62206190Y-140957380D01*
X62349047Y-141005000D01*
X62444285Y-141100238D01*
X62491904Y-141195476D01*
X62539523Y-141385952D01*
X62539523Y-141528809D01*
X62491904Y-141719285D01*
X62444285Y-141814523D01*
X62349047Y-141909761D01*
X62206190Y-141957380D01*
X61968095Y-141957380D01*
X63491904Y-141957380D02*
X62920476Y-141957380D01*
X63206190Y-141957380D02*
X63206190Y-140957380D01*
X63110952Y-141100238D01*
X63015714Y-141195476D01*
X62920476Y-141243095D01*
X64444285Y-141957380D02*
X63872857Y-141957380D01*
X64158571Y-141957380D02*
X64158571Y-140957380D01*
X64063333Y-141100238D01*
X63968095Y-141195476D01*
X63872857Y-141243095D01*
X64872857Y-141862142D02*
X64920476Y-141909761D01*
X64872857Y-141957380D01*
X64825238Y-141909761D01*
X64872857Y-141862142D01*
X64872857Y-141957380D01*
X64872857Y-141338333D02*
X64920476Y-141385952D01*
X64872857Y-141433571D01*
X64825238Y-141385952D01*
X64872857Y-141338333D01*
X64872857Y-141433571D01*
X66444285Y-141433571D02*
X66110952Y-141433571D01*
X66110952Y-141957380D02*
X66110952Y-140957380D01*
X66587142Y-140957380D01*
X67444285Y-141957380D02*
X66968095Y-141957380D01*
X66968095Y-140957380D01*
X67730000Y-141671666D02*
X68206190Y-141671666D01*
X67634761Y-141957380D02*
X67968095Y-140957380D01*
X68301428Y-141957380D01*
X68587142Y-141909761D02*
X68730000Y-141957380D01*
X68968095Y-141957380D01*
X69063333Y-141909761D01*
X69110952Y-141862142D01*
X69158571Y-141766904D01*
X69158571Y-141671666D01*
X69110952Y-141576428D01*
X69063333Y-141528809D01*
X68968095Y-141481190D01*
X68777619Y-141433571D01*
X68682380Y-141385952D01*
X68634761Y-141338333D01*
X68587142Y-141243095D01*
X68587142Y-141147857D01*
X68634761Y-141052619D01*
X68682380Y-141005000D01*
X68777619Y-140957380D01*
X69015714Y-140957380D01*
X69158571Y-141005000D01*
X69587142Y-141957380D02*
X69587142Y-140957380D01*
X69587142Y-141433571D02*
X70158571Y-141433571D01*
X70158571Y-141957380D02*
X70158571Y-140957380D01*
X71158571Y-140675000D02*
X72158571Y-140675000D01*
X71968095Y-141862142D02*
X71920476Y-141909761D01*
X71777619Y-141957380D01*
X71682380Y-141957380D01*
X71539523Y-141909761D01*
X71444285Y-141814523D01*
X71396666Y-141719285D01*
X71349047Y-141528809D01*
X71349047Y-141385952D01*
X71396666Y-141195476D01*
X71444285Y-141100238D01*
X71539523Y-141005000D01*
X71682380Y-140957380D01*
X71777619Y-140957380D01*
X71920476Y-141005000D01*
X71968095Y-141052619D01*
X72158571Y-140675000D02*
X73110952Y-140675000D01*
X72349047Y-141909761D02*
X72491904Y-141957380D01*
X72730000Y-141957380D01*
X72825238Y-141909761D01*
X72872857Y-141862142D01*
X72920476Y-141766904D01*
X72920476Y-141671666D01*
X72872857Y-141576428D01*
X72825238Y-141528809D01*
X72730000Y-141481190D01*
X72539523Y-141433571D01*
X72444285Y-141385952D01*
X72396666Y-141338333D01*
X72349047Y-141243095D01*
X72349047Y-141147857D01*
X72396666Y-141052619D01*
X72444285Y-141005000D01*
X72539523Y-140957380D01*
X72777619Y-140957380D01*
X72920476Y-141005000D01*
X61968095Y-143567380D02*
X61968095Y-142567380D01*
X62206190Y-142567380D01*
X62349047Y-142615000D01*
X62444285Y-142710238D01*
X62491904Y-142805476D01*
X62539523Y-142995952D01*
X62539523Y-143138809D01*
X62491904Y-143329285D01*
X62444285Y-143424523D01*
X62349047Y-143519761D01*
X62206190Y-143567380D01*
X61968095Y-143567380D01*
X63491904Y-143567380D02*
X62920476Y-143567380D01*
X63206190Y-143567380D02*
X63206190Y-142567380D01*
X63110952Y-142710238D01*
X63015714Y-142805476D01*
X62920476Y-142853095D01*
X63872857Y-142662619D02*
X63920476Y-142615000D01*
X64015714Y-142567380D01*
X64253809Y-142567380D01*
X64349047Y-142615000D01*
X64396666Y-142662619D01*
X64444285Y-142757857D01*
X64444285Y-142853095D01*
X64396666Y-142995952D01*
X63825238Y-143567380D01*
X64444285Y-143567380D01*
X64872857Y-143472142D02*
X64920476Y-143519761D01*
X64872857Y-143567380D01*
X64825238Y-143519761D01*
X64872857Y-143472142D01*
X64872857Y-143567380D01*
X64872857Y-142948333D02*
X64920476Y-142995952D01*
X64872857Y-143043571D01*
X64825238Y-142995952D01*
X64872857Y-142948333D01*
X64872857Y-143043571D01*
X66444285Y-143043571D02*
X66110952Y-143043571D01*
X66110952Y-143567380D02*
X66110952Y-142567380D01*
X66587142Y-142567380D01*
X67444285Y-143567380D02*
X66968095Y-143567380D01*
X66968095Y-142567380D01*
X67730000Y-143281666D02*
X68206190Y-143281666D01*
X67634761Y-143567380D02*
X67968095Y-142567380D01*
X68301428Y-143567380D01*
X68587142Y-143519761D02*
X68730000Y-143567380D01*
X68968095Y-143567380D01*
X69063333Y-143519761D01*
X69110952Y-143472142D01*
X69158571Y-143376904D01*
X69158571Y-143281666D01*
X69110952Y-143186428D01*
X69063333Y-143138809D01*
X68968095Y-143091190D01*
X68777619Y-143043571D01*
X68682380Y-142995952D01*
X68634761Y-142948333D01*
X68587142Y-142853095D01*
X68587142Y-142757857D01*
X68634761Y-142662619D01*
X68682380Y-142615000D01*
X68777619Y-142567380D01*
X69015714Y-142567380D01*
X69158571Y-142615000D01*
X69587142Y-143567380D02*
X69587142Y-142567380D01*
X69587142Y-143043571D02*
X70158571Y-143043571D01*
X70158571Y-143567380D02*
X70158571Y-142567380D01*
X71396666Y-143567380D02*
X71396666Y-142567380D01*
X72063333Y-142567380D02*
X72253809Y-142567380D01*
X72349047Y-142615000D01*
X72444285Y-142710238D01*
X72491904Y-142900714D01*
X72491904Y-143234047D01*
X72444285Y-143424523D01*
X72349047Y-143519761D01*
X72253809Y-143567380D01*
X72063333Y-143567380D01*
X71968095Y-143519761D01*
X71872857Y-143424523D01*
X71825238Y-143234047D01*
X71825238Y-142900714D01*
X71872857Y-142710238D01*
X71968095Y-142615000D01*
X72063333Y-142567380D01*
X72872857Y-142662619D02*
X72920476Y-142615000D01*
X73015714Y-142567380D01*
X73253809Y-142567380D01*
X73349047Y-142615000D01*
X73396666Y-142662619D01*
X73444285Y-142757857D01*
X73444285Y-142853095D01*
X73396666Y-142995952D01*
X72825238Y-143567380D01*
X73444285Y-143567380D01*
X61968095Y-145177380D02*
X61968095Y-144177380D01*
X62206190Y-144177380D01*
X62349047Y-144225000D01*
X62444285Y-144320238D01*
X62491904Y-144415476D01*
X62539523Y-144605952D01*
X62539523Y-144748809D01*
X62491904Y-144939285D01*
X62444285Y-145034523D01*
X62349047Y-145129761D01*
X62206190Y-145177380D01*
X61968095Y-145177380D01*
X63491904Y-145177380D02*
X62920476Y-145177380D01*
X63206190Y-145177380D02*
X63206190Y-144177380D01*
X63110952Y-144320238D01*
X63015714Y-144415476D01*
X62920476Y-144463095D01*
X63825238Y-144177380D02*
X64444285Y-144177380D01*
X64110952Y-144558333D01*
X64253809Y-144558333D01*
X64349047Y-144605952D01*
X64396666Y-144653571D01*
X64444285Y-144748809D01*
X64444285Y-144986904D01*
X64396666Y-145082142D01*
X64349047Y-145129761D01*
X64253809Y-145177380D01*
X63968095Y-145177380D01*
X63872857Y-145129761D01*
X63825238Y-145082142D01*
X64872857Y-145082142D02*
X64920476Y-145129761D01*
X64872857Y-145177380D01*
X64825238Y-145129761D01*
X64872857Y-145082142D01*
X64872857Y-145177380D01*
X64872857Y-144558333D02*
X64920476Y-144605952D01*
X64872857Y-144653571D01*
X64825238Y-144605952D01*
X64872857Y-144558333D01*
X64872857Y-144653571D01*
X66444285Y-144653571D02*
X66110952Y-144653571D01*
X66110952Y-145177380D02*
X66110952Y-144177380D01*
X66587142Y-144177380D01*
X67444285Y-145177380D02*
X66968095Y-145177380D01*
X66968095Y-144177380D01*
X67730000Y-144891666D02*
X68206190Y-144891666D01*
X67634761Y-145177380D02*
X67968095Y-144177380D01*
X68301428Y-145177380D01*
X68587142Y-145129761D02*
X68730000Y-145177380D01*
X68968095Y-145177380D01*
X69063333Y-145129761D01*
X69110952Y-145082142D01*
X69158571Y-144986904D01*
X69158571Y-144891666D01*
X69110952Y-144796428D01*
X69063333Y-144748809D01*
X68968095Y-144701190D01*
X68777619Y-144653571D01*
X68682380Y-144605952D01*
X68634761Y-144558333D01*
X68587142Y-144463095D01*
X68587142Y-144367857D01*
X68634761Y-144272619D01*
X68682380Y-144225000D01*
X68777619Y-144177380D01*
X69015714Y-144177380D01*
X69158571Y-144225000D01*
X69587142Y-145177380D02*
X69587142Y-144177380D01*
X69587142Y-144653571D02*
X70158571Y-144653571D01*
X70158571Y-145177380D02*
X70158571Y-144177380D01*
X71396666Y-145177380D02*
X71396666Y-144177380D01*
X72063333Y-144177380D02*
X72253809Y-144177380D01*
X72349047Y-144225000D01*
X72444285Y-144320238D01*
X72491904Y-144510714D01*
X72491904Y-144844047D01*
X72444285Y-145034523D01*
X72349047Y-145129761D01*
X72253809Y-145177380D01*
X72063333Y-145177380D01*
X71968095Y-145129761D01*
X71872857Y-145034523D01*
X71825238Y-144844047D01*
X71825238Y-144510714D01*
X71872857Y-144320238D01*
X71968095Y-144225000D01*
X72063333Y-144177380D01*
X72825238Y-144177380D02*
X73444285Y-144177380D01*
X73110952Y-144558333D01*
X73253809Y-144558333D01*
X73349047Y-144605952D01*
X73396666Y-144653571D01*
X73444285Y-144748809D01*
X73444285Y-144986904D01*
X73396666Y-145082142D01*
X73349047Y-145129761D01*
X73253809Y-145177380D01*
X72968095Y-145177380D01*
X72872857Y-145129761D01*
X72825238Y-145082142D01*
D10*
X73285000Y-158664642D02*
X73249285Y-158736071D01*
X73249285Y-158843214D01*
X73285000Y-158950357D01*
X73356428Y-159021785D01*
X73427857Y-159057500D01*
X73570714Y-159093214D01*
X73677857Y-159093214D01*
X73820714Y-159057500D01*
X73892142Y-159021785D01*
X73963571Y-158950357D01*
X73999285Y-158843214D01*
X73999285Y-158771785D01*
X73963571Y-158664642D01*
X73927857Y-158628928D01*
X73677857Y-158628928D01*
X73677857Y-158771785D01*
X73999285Y-158307500D02*
X73249285Y-158307500D01*
X73999285Y-157878928D01*
X73249285Y-157878928D01*
X73999285Y-157521785D02*
X73249285Y-157521785D01*
X73249285Y-157343214D01*
X73285000Y-157236071D01*
X73356428Y-157164642D01*
X73427857Y-157128928D01*
X73570714Y-157093214D01*
X73677857Y-157093214D01*
X73820714Y-157128928D01*
X73892142Y-157164642D01*
X73963571Y-157236071D01*
X73999285Y-157343214D01*
X73999285Y-157521785D01*
X73785000Y-156807500D02*
X73785000Y-156450357D01*
X73999285Y-156878928D02*
X73249285Y-156628928D01*
X73999285Y-156378928D01*
X70745000Y-158021785D02*
X70709285Y-158093214D01*
X70709285Y-158200357D01*
X70745000Y-158307500D01*
X70816428Y-158378928D01*
X70887857Y-158414642D01*
X71030714Y-158450357D01*
X71137857Y-158450357D01*
X71280714Y-158414642D01*
X71352142Y-158378928D01*
X71423571Y-158307500D01*
X71459285Y-158200357D01*
X71459285Y-158128928D01*
X71423571Y-158021785D01*
X71387857Y-157986071D01*
X71137857Y-157986071D01*
X71137857Y-158128928D01*
X71459285Y-157664642D02*
X70709285Y-157664642D01*
X71459285Y-157236071D01*
X70709285Y-157236071D01*
X71459285Y-156878928D02*
X70709285Y-156878928D01*
X70709285Y-156700357D01*
X70745000Y-156593214D01*
X70816428Y-156521785D01*
X70887857Y-156486071D01*
X71030714Y-156450357D01*
X71137857Y-156450357D01*
X71280714Y-156486071D01*
X71352142Y-156521785D01*
X71423571Y-156593214D01*
X71459285Y-156700357D01*
X71459285Y-156878928D01*
X68919285Y-158307500D02*
X68169285Y-158307500D01*
X68169285Y-158128928D01*
X68205000Y-158021785D01*
X68276428Y-157950357D01*
X68347857Y-157914642D01*
X68490714Y-157878928D01*
X68597857Y-157878928D01*
X68740714Y-157914642D01*
X68812142Y-157950357D01*
X68883571Y-158021785D01*
X68919285Y-158128928D01*
X68919285Y-158307500D01*
X68919285Y-157164642D02*
X68919285Y-157593214D01*
X68919285Y-157378928D02*
X68169285Y-157378928D01*
X68276428Y-157450357D01*
X68347857Y-157521785D01*
X68383571Y-157593214D01*
X68169285Y-156486071D02*
X68169285Y-156843214D01*
X68526428Y-156878928D01*
X68490714Y-156843214D01*
X68455000Y-156771785D01*
X68455000Y-156593214D01*
X68490714Y-156521785D01*
X68526428Y-156486071D01*
X68597857Y-156450357D01*
X68776428Y-156450357D01*
X68847857Y-156486071D01*
X68883571Y-156521785D01*
X68919285Y-156593214D01*
X68919285Y-156771785D01*
X68883571Y-156843214D01*
X68847857Y-156878928D01*
X66379285Y-158307500D02*
X65629285Y-158307500D01*
X65629285Y-158128928D01*
X65665000Y-158021785D01*
X65736428Y-157950357D01*
X65807857Y-157914642D01*
X65950714Y-157878928D01*
X66057857Y-157878928D01*
X66200714Y-157914642D01*
X66272142Y-157950357D01*
X66343571Y-158021785D01*
X66379285Y-158128928D01*
X66379285Y-158307500D01*
X66379285Y-157164642D02*
X66379285Y-157593214D01*
X66379285Y-157378928D02*
X65629285Y-157378928D01*
X65736428Y-157450357D01*
X65807857Y-157521785D01*
X65843571Y-157593214D01*
X65629285Y-156914642D02*
X65629285Y-156450357D01*
X65915000Y-156700357D01*
X65915000Y-156593214D01*
X65950714Y-156521785D01*
X65986428Y-156486071D01*
X66057857Y-156450357D01*
X66236428Y-156450357D01*
X66307857Y-156486071D01*
X66343571Y-156521785D01*
X66379285Y-156593214D01*
X66379285Y-156807500D01*
X66343571Y-156878928D01*
X66307857Y-156914642D01*
X63839285Y-158307500D02*
X63089285Y-158307500D01*
X63089285Y-158128928D01*
X63125000Y-158021785D01*
X63196428Y-157950357D01*
X63267857Y-157914642D01*
X63410714Y-157878928D01*
X63517857Y-157878928D01*
X63660714Y-157914642D01*
X63732142Y-157950357D01*
X63803571Y-158021785D01*
X63839285Y-158128928D01*
X63839285Y-158307500D01*
X63839285Y-157164642D02*
X63839285Y-157593214D01*
X63839285Y-157378928D02*
X63089285Y-157378928D01*
X63196428Y-157450357D01*
X63267857Y-157521785D01*
X63303571Y-157593214D01*
X63839285Y-156450357D02*
X63839285Y-156878928D01*
X63839285Y-156664642D02*
X63089285Y-156664642D01*
X63196428Y-156736071D01*
X63267857Y-156807500D01*
X63303571Y-156878928D01*
X61299285Y-157593214D02*
X60549285Y-157593214D01*
X60549285Y-157414642D01*
X60585000Y-157307500D01*
X60656428Y-157236071D01*
X60727857Y-157200357D01*
X60870714Y-157164642D01*
X60977857Y-157164642D01*
X61120714Y-157200357D01*
X61192142Y-157236071D01*
X61263571Y-157307500D01*
X61299285Y-157414642D01*
X61299285Y-157593214D01*
X61299285Y-156807500D02*
X61299285Y-156664642D01*
X61263571Y-156593214D01*
X61227857Y-156557500D01*
X61120714Y-156486071D01*
X60977857Y-156450357D01*
X60692142Y-156450357D01*
X60620714Y-156486071D01*
X60585000Y-156521785D01*
X60549285Y-156593214D01*
X60549285Y-156736071D01*
X60585000Y-156807500D01*
X60620714Y-156843214D01*
X60692142Y-156878928D01*
X60870714Y-156878928D01*
X60942142Y-156843214D01*
X60977857Y-156807500D01*
X61013571Y-156736071D01*
X61013571Y-156593214D01*
X60977857Y-156521785D01*
X60942142Y-156486071D01*
X60870714Y-156450357D01*
X58759285Y-157593214D02*
X58009285Y-157593214D01*
X58009285Y-157414642D01*
X58045000Y-157307500D01*
X58116428Y-157236071D01*
X58187857Y-157200357D01*
X58330714Y-157164642D01*
X58437857Y-157164642D01*
X58580714Y-157200357D01*
X58652142Y-157236071D01*
X58723571Y-157307500D01*
X58759285Y-157414642D01*
X58759285Y-157593214D01*
X58009285Y-156914642D02*
X58009285Y-156414642D01*
X58759285Y-156736071D01*
X56219285Y-157593214D02*
X55469285Y-157593214D01*
X55469285Y-157414642D01*
X55505000Y-157307500D01*
X55576428Y-157236071D01*
X55647857Y-157200357D01*
X55790714Y-157164642D01*
X55897857Y-157164642D01*
X56040714Y-157200357D01*
X56112142Y-157236071D01*
X56183571Y-157307500D01*
X56219285Y-157414642D01*
X56219285Y-157593214D01*
X55469285Y-156486071D02*
X55469285Y-156843214D01*
X55826428Y-156878928D01*
X55790714Y-156843214D01*
X55755000Y-156771785D01*
X55755000Y-156593214D01*
X55790714Y-156521785D01*
X55826428Y-156486071D01*
X55897857Y-156450357D01*
X56076428Y-156450357D01*
X56147857Y-156486071D01*
X56183571Y-156521785D01*
X56219285Y-156593214D01*
X56219285Y-156771785D01*
X56183571Y-156843214D01*
X56147857Y-156878928D01*
X53679285Y-157593214D02*
X52929285Y-157593214D01*
X52929285Y-157414642D01*
X52965000Y-157307500D01*
X53036428Y-157236071D01*
X53107857Y-157200357D01*
X53250714Y-157164642D01*
X53357857Y-157164642D01*
X53500714Y-157200357D01*
X53572142Y-157236071D01*
X53643571Y-157307500D01*
X53679285Y-157414642D01*
X53679285Y-157593214D01*
X52929285Y-156914642D02*
X52929285Y-156450357D01*
X53215000Y-156700357D01*
X53215000Y-156593214D01*
X53250714Y-156521785D01*
X53286428Y-156486071D01*
X53357857Y-156450357D01*
X53536428Y-156450357D01*
X53607857Y-156486071D01*
X53643571Y-156521785D01*
X53679285Y-156593214D01*
X53679285Y-156807500D01*
X53643571Y-156878928D01*
X53607857Y-156914642D01*
X51139285Y-157593214D02*
X50389285Y-157593214D01*
X50389285Y-157414642D01*
X50425000Y-157307500D01*
X50496428Y-157236071D01*
X50567857Y-157200357D01*
X50710714Y-157164642D01*
X50817857Y-157164642D01*
X50960714Y-157200357D01*
X51032142Y-157236071D01*
X51103571Y-157307500D01*
X51139285Y-157414642D01*
X51139285Y-157593214D01*
X51139285Y-156450357D02*
X51139285Y-156878928D01*
X51139285Y-156664642D02*
X50389285Y-156664642D01*
X50496428Y-156736071D01*
X50567857Y-156807500D01*
X50603571Y-156878928D01*
X51139285Y-150853928D02*
X50389285Y-150853928D01*
X50389285Y-150675357D01*
X50425000Y-150568214D01*
X50496428Y-150496785D01*
X50567857Y-150461071D01*
X50710714Y-150425357D01*
X50817857Y-150425357D01*
X50960714Y-150461071D01*
X51032142Y-150496785D01*
X51103571Y-150568214D01*
X51139285Y-150675357D01*
X51139285Y-150853928D01*
X50389285Y-149961071D02*
X50389285Y-149889642D01*
X50425000Y-149818214D01*
X50460714Y-149782500D01*
X50532142Y-149746785D01*
X50675000Y-149711071D01*
X50853571Y-149711071D01*
X50996428Y-149746785D01*
X51067857Y-149782500D01*
X51103571Y-149818214D01*
X51139285Y-149889642D01*
X51139285Y-149961071D01*
X51103571Y-150032500D01*
X51067857Y-150068214D01*
X50996428Y-150103928D01*
X50853571Y-150139642D01*
X50675000Y-150139642D01*
X50532142Y-150103928D01*
X50460714Y-150068214D01*
X50425000Y-150032500D01*
X50389285Y-149961071D01*
X53679285Y-150853928D02*
X52929285Y-150853928D01*
X52929285Y-150675357D01*
X52965000Y-150568214D01*
X53036428Y-150496785D01*
X53107857Y-150461071D01*
X53250714Y-150425357D01*
X53357857Y-150425357D01*
X53500714Y-150461071D01*
X53572142Y-150496785D01*
X53643571Y-150568214D01*
X53679285Y-150675357D01*
X53679285Y-150853928D01*
X53000714Y-150139642D02*
X52965000Y-150103928D01*
X52929285Y-150032500D01*
X52929285Y-149853928D01*
X52965000Y-149782500D01*
X53000714Y-149746785D01*
X53072142Y-149711071D01*
X53143571Y-149711071D01*
X53250714Y-149746785D01*
X53679285Y-150175357D01*
X53679285Y-149711071D01*
X56219285Y-150853928D02*
X55469285Y-150853928D01*
X55469285Y-150675357D01*
X55505000Y-150568214D01*
X55576428Y-150496785D01*
X55647857Y-150461071D01*
X55790714Y-150425357D01*
X55897857Y-150425357D01*
X56040714Y-150461071D01*
X56112142Y-150496785D01*
X56183571Y-150568214D01*
X56219285Y-150675357D01*
X56219285Y-150853928D01*
X55719285Y-149782500D02*
X56219285Y-149782500D01*
X55433571Y-149961071D02*
X55969285Y-150139642D01*
X55969285Y-149675357D01*
X58759285Y-150853928D02*
X58009285Y-150853928D01*
X58009285Y-150675357D01*
X58045000Y-150568214D01*
X58116428Y-150496785D01*
X58187857Y-150461071D01*
X58330714Y-150425357D01*
X58437857Y-150425357D01*
X58580714Y-150461071D01*
X58652142Y-150496785D01*
X58723571Y-150568214D01*
X58759285Y-150675357D01*
X58759285Y-150853928D01*
X58009285Y-149782500D02*
X58009285Y-149925357D01*
X58045000Y-149996785D01*
X58080714Y-150032500D01*
X58187857Y-150103928D01*
X58330714Y-150139642D01*
X58616428Y-150139642D01*
X58687857Y-150103928D01*
X58723571Y-150068214D01*
X58759285Y-149996785D01*
X58759285Y-149853928D01*
X58723571Y-149782500D01*
X58687857Y-149746785D01*
X58616428Y-149711071D01*
X58437857Y-149711071D01*
X58366428Y-149746785D01*
X58330714Y-149782500D01*
X58295000Y-149853928D01*
X58295000Y-149996785D01*
X58330714Y-150068214D01*
X58366428Y-150103928D01*
X58437857Y-150139642D01*
X61299285Y-150853928D02*
X60549285Y-150853928D01*
X60549285Y-150675357D01*
X60585000Y-150568214D01*
X60656428Y-150496785D01*
X60727857Y-150461071D01*
X60870714Y-150425357D01*
X60977857Y-150425357D01*
X61120714Y-150461071D01*
X61192142Y-150496785D01*
X61263571Y-150568214D01*
X61299285Y-150675357D01*
X61299285Y-150853928D01*
X60870714Y-149996785D02*
X60835000Y-150068214D01*
X60799285Y-150103928D01*
X60727857Y-150139642D01*
X60692142Y-150139642D01*
X60620714Y-150103928D01*
X60585000Y-150068214D01*
X60549285Y-149996785D01*
X60549285Y-149853928D01*
X60585000Y-149782500D01*
X60620714Y-149746785D01*
X60692142Y-149711071D01*
X60727857Y-149711071D01*
X60799285Y-149746785D01*
X60835000Y-149782500D01*
X60870714Y-149853928D01*
X60870714Y-149996785D01*
X60906428Y-150068214D01*
X60942142Y-150103928D01*
X61013571Y-150139642D01*
X61156428Y-150139642D01*
X61227857Y-150103928D01*
X61263571Y-150068214D01*
X61299285Y-149996785D01*
X61299285Y-149853928D01*
X61263571Y-149782500D01*
X61227857Y-149746785D01*
X61156428Y-149711071D01*
X61013571Y-149711071D01*
X60942142Y-149746785D01*
X60906428Y-149782500D01*
X60870714Y-149853928D01*
X63839285Y-150853928D02*
X63089285Y-150853928D01*
X63089285Y-150675357D01*
X63125000Y-150568214D01*
X63196428Y-150496785D01*
X63267857Y-150461071D01*
X63410714Y-150425357D01*
X63517857Y-150425357D01*
X63660714Y-150461071D01*
X63732142Y-150496785D01*
X63803571Y-150568214D01*
X63839285Y-150675357D01*
X63839285Y-150853928D01*
X63839285Y-149711071D02*
X63839285Y-150139642D01*
X63839285Y-149925357D02*
X63089285Y-149925357D01*
X63196428Y-149996785D01*
X63267857Y-150068214D01*
X63303571Y-150139642D01*
X63089285Y-149246785D02*
X63089285Y-149175357D01*
X63125000Y-149103928D01*
X63160714Y-149068214D01*
X63232142Y-149032500D01*
X63375000Y-148996785D01*
X63553571Y-148996785D01*
X63696428Y-149032500D01*
X63767857Y-149068214D01*
X63803571Y-149103928D01*
X63839285Y-149175357D01*
X63839285Y-149246785D01*
X63803571Y-149318214D01*
X63767857Y-149353928D01*
X63696428Y-149389642D01*
X63553571Y-149425357D01*
X63375000Y-149425357D01*
X63232142Y-149389642D01*
X63160714Y-149353928D01*
X63125000Y-149318214D01*
X63089285Y-149246785D01*
X66379285Y-150853928D02*
X65629285Y-150853928D01*
X65629285Y-150675357D01*
X65665000Y-150568214D01*
X65736428Y-150496785D01*
X65807857Y-150461071D01*
X65950714Y-150425357D01*
X66057857Y-150425357D01*
X66200714Y-150461071D01*
X66272142Y-150496785D01*
X66343571Y-150568214D01*
X66379285Y-150675357D01*
X66379285Y-150853928D01*
X66379285Y-149711071D02*
X66379285Y-150139642D01*
X66379285Y-149925357D02*
X65629285Y-149925357D01*
X65736428Y-149996785D01*
X65807857Y-150068214D01*
X65843571Y-150139642D01*
X65700714Y-149425357D02*
X65665000Y-149389642D01*
X65629285Y-149318214D01*
X65629285Y-149139642D01*
X65665000Y-149068214D01*
X65700714Y-149032500D01*
X65772142Y-148996785D01*
X65843571Y-148996785D01*
X65950714Y-149032500D01*
X66379285Y-149461071D01*
X66379285Y-148996785D01*
X68919285Y-150853928D02*
X68169285Y-150853928D01*
X68169285Y-150675357D01*
X68205000Y-150568214D01*
X68276428Y-150496785D01*
X68347857Y-150461071D01*
X68490714Y-150425357D01*
X68597857Y-150425357D01*
X68740714Y-150461071D01*
X68812142Y-150496785D01*
X68883571Y-150568214D01*
X68919285Y-150675357D01*
X68919285Y-150853928D01*
X68919285Y-149711071D02*
X68919285Y-150139642D01*
X68919285Y-149925357D02*
X68169285Y-149925357D01*
X68276428Y-149996785D01*
X68347857Y-150068214D01*
X68383571Y-150139642D01*
X68419285Y-149068214D02*
X68919285Y-149068214D01*
X68133571Y-149246785D02*
X68669285Y-149425357D01*
X68669285Y-148961071D01*
X70709285Y-150961071D02*
X71459285Y-150711071D01*
X70709285Y-150461071D01*
X71459285Y-150211071D02*
X70709285Y-150211071D01*
X70709285Y-150032500D01*
X70745000Y-149925357D01*
X70816428Y-149853928D01*
X70887857Y-149818214D01*
X71030714Y-149782500D01*
X71137857Y-149782500D01*
X71280714Y-149818214D01*
X71352142Y-149853928D01*
X71423571Y-149925357D01*
X71459285Y-150032500D01*
X71459285Y-150211071D01*
X71459285Y-149461071D02*
X70709285Y-149461071D01*
X70709285Y-149282500D01*
X70745000Y-149175357D01*
X70816428Y-149103928D01*
X70887857Y-149068214D01*
X71030714Y-149032500D01*
X71137857Y-149032500D01*
X71280714Y-149068214D01*
X71352142Y-149103928D01*
X71423571Y-149175357D01*
X71459285Y-149282500D01*
X71459285Y-149461071D01*
X73249285Y-150961071D02*
X73999285Y-150711071D01*
X73249285Y-150461071D01*
X73999285Y-150211071D02*
X73249285Y-150211071D01*
X73249285Y-150032500D01*
X73285000Y-149925357D01*
X73356428Y-149853928D01*
X73427857Y-149818214D01*
X73570714Y-149782500D01*
X73677857Y-149782500D01*
X73820714Y-149818214D01*
X73892142Y-149853928D01*
X73963571Y-149925357D01*
X73999285Y-150032500D01*
X73999285Y-150211071D01*
X73999285Y-149461071D02*
X73249285Y-149461071D01*
X73249285Y-149282500D01*
X73285000Y-149175357D01*
X73356428Y-149103928D01*
X73427857Y-149068214D01*
X73570714Y-149032500D01*
X73677857Y-149032500D01*
X73820714Y-149068214D01*
X73892142Y-149103928D01*
X73963571Y-149175357D01*
X73999285Y-149282500D01*
X73999285Y-149461071D01*
X73785000Y-148746785D02*
X73785000Y-148389642D01*
X73999285Y-148818214D02*
X73249285Y-148568214D01*
X73999285Y-148318214D01*
D11*
X59142380Y-107889047D02*
X60142380Y-107555714D01*
X59142380Y-107222380D01*
X60142380Y-106889047D02*
X59142380Y-106889047D01*
X59142380Y-106650952D01*
X59190000Y-106508095D01*
X59285238Y-106412857D01*
X59380476Y-106365238D01*
X59570952Y-106317619D01*
X59713809Y-106317619D01*
X59904285Y-106365238D01*
X59999523Y-106412857D01*
X60094761Y-106508095D01*
X60142380Y-106650952D01*
X60142380Y-106889047D01*
X60142380Y-105889047D02*
X59142380Y-105889047D01*
X59142380Y-105650952D01*
X59190000Y-105508095D01*
X59285238Y-105412857D01*
X59380476Y-105365238D01*
X59570952Y-105317619D01*
X59713809Y-105317619D01*
X59904285Y-105365238D01*
X59999523Y-105412857D01*
X60094761Y-105508095D01*
X60142380Y-105650952D01*
X60142380Y-105889047D01*
X59856666Y-104936666D02*
X59856666Y-104460476D01*
X60142380Y-105031904D02*
X59142380Y-104698571D01*
X60142380Y-104365238D01*
X49868095Y-137132380D02*
X49868095Y-136132380D01*
X50106190Y-136132380D01*
X50249047Y-136180000D01*
X50344285Y-136275238D01*
X50391904Y-136370476D01*
X50439523Y-136560952D01*
X50439523Y-136703809D01*
X50391904Y-136894285D01*
X50344285Y-136989523D01*
X50249047Y-137084761D01*
X50106190Y-137132380D01*
X49868095Y-137132380D01*
X51058571Y-136132380D02*
X51153809Y-136132380D01*
X51249047Y-136180000D01*
X51296666Y-136227619D01*
X51344285Y-136322857D01*
X51391904Y-136513333D01*
X51391904Y-136751428D01*
X51344285Y-136941904D01*
X51296666Y-137037142D01*
X51249047Y-137084761D01*
X51153809Y-137132380D01*
X51058571Y-137132380D01*
X50963333Y-137084761D01*
X50915714Y-137037142D01*
X50868095Y-136941904D01*
X50820476Y-136751428D01*
X50820476Y-136513333D01*
X50868095Y-136322857D01*
X50915714Y-136227619D01*
X50963333Y-136180000D01*
X51058571Y-136132380D01*
X51820476Y-137037142D02*
X51868095Y-137084761D01*
X51820476Y-137132380D01*
X51772857Y-137084761D01*
X51820476Y-137037142D01*
X51820476Y-137132380D01*
X51820476Y-136513333D02*
X51868095Y-136560952D01*
X51820476Y-136608571D01*
X51772857Y-136560952D01*
X51820476Y-136513333D01*
X51820476Y-136608571D01*
X53058571Y-137132380D02*
X53058571Y-136132380D01*
X53391904Y-136846666D01*
X53725238Y-136132380D01*
X53725238Y-137132380D01*
X54772857Y-137037142D02*
X54725238Y-137084761D01*
X54582380Y-137132380D01*
X54487142Y-137132380D01*
X54344285Y-137084761D01*
X54249047Y-136989523D01*
X54201428Y-136894285D01*
X54153809Y-136703809D01*
X54153809Y-136560952D01*
X54201428Y-136370476D01*
X54249047Y-136275238D01*
X54344285Y-136180000D01*
X54487142Y-136132380D01*
X54582380Y-136132380D01*
X54725238Y-136180000D01*
X54772857Y-136227619D01*
X55201428Y-136132380D02*
X55201428Y-136941904D01*
X55249047Y-137037142D01*
X55296666Y-137084761D01*
X55391904Y-137132380D01*
X55582380Y-137132380D01*
X55677619Y-137084761D01*
X55725238Y-137037142D01*
X55772857Y-136941904D01*
X55772857Y-136132380D01*
X57582380Y-137132380D02*
X57249047Y-136656190D01*
X57010952Y-137132380D02*
X57010952Y-136132380D01*
X57391904Y-136132380D01*
X57487142Y-136180000D01*
X57534761Y-136227619D01*
X57582380Y-136322857D01*
X57582380Y-136465714D01*
X57534761Y-136560952D01*
X57487142Y-136608571D01*
X57391904Y-136656190D01*
X57010952Y-136656190D01*
X57915714Y-136132380D02*
X58582380Y-137132380D01*
X58582380Y-136132380D02*
X57915714Y-137132380D01*
X49868095Y-138742380D02*
X49868095Y-137742380D01*
X50106190Y-137742380D01*
X50249047Y-137790000D01*
X50344285Y-137885238D01*
X50391904Y-137980476D01*
X50439523Y-138170952D01*
X50439523Y-138313809D01*
X50391904Y-138504285D01*
X50344285Y-138599523D01*
X50249047Y-138694761D01*
X50106190Y-138742380D01*
X49868095Y-138742380D01*
X51391904Y-138742380D02*
X50820476Y-138742380D01*
X51106190Y-138742380D02*
X51106190Y-137742380D01*
X51010952Y-137885238D01*
X50915714Y-137980476D01*
X50820476Y-138028095D01*
X51820476Y-138647142D02*
X51868095Y-138694761D01*
X51820476Y-138742380D01*
X51772857Y-138694761D01*
X51820476Y-138647142D01*
X51820476Y-138742380D01*
X51820476Y-138123333D02*
X51868095Y-138170952D01*
X51820476Y-138218571D01*
X51772857Y-138170952D01*
X51820476Y-138123333D01*
X51820476Y-138218571D01*
X53058571Y-138742380D02*
X53058571Y-137742380D01*
X53391904Y-138456666D01*
X53725238Y-137742380D01*
X53725238Y-138742380D01*
X54772857Y-138647142D02*
X54725238Y-138694761D01*
X54582380Y-138742380D01*
X54487142Y-138742380D01*
X54344285Y-138694761D01*
X54249047Y-138599523D01*
X54201428Y-138504285D01*
X54153809Y-138313809D01*
X54153809Y-138170952D01*
X54201428Y-137980476D01*
X54249047Y-137885238D01*
X54344285Y-137790000D01*
X54487142Y-137742380D01*
X54582380Y-137742380D01*
X54725238Y-137790000D01*
X54772857Y-137837619D01*
X55201428Y-137742380D02*
X55201428Y-138551904D01*
X55249047Y-138647142D01*
X55296666Y-138694761D01*
X55391904Y-138742380D01*
X55582380Y-138742380D01*
X55677619Y-138694761D01*
X55725238Y-138647142D01*
X55772857Y-138551904D01*
X55772857Y-137742380D01*
X56868095Y-137742380D02*
X57439523Y-137742380D01*
X57153809Y-138742380D02*
X57153809Y-137742380D01*
X57677619Y-137742380D02*
X58344285Y-138742380D01*
X58344285Y-137742380D02*
X57677619Y-138742380D01*
X49868095Y-140352380D02*
X49868095Y-139352380D01*
X50106190Y-139352380D01*
X50249047Y-139400000D01*
X50344285Y-139495238D01*
X50391904Y-139590476D01*
X50439523Y-139780952D01*
X50439523Y-139923809D01*
X50391904Y-140114285D01*
X50344285Y-140209523D01*
X50249047Y-140304761D01*
X50106190Y-140352380D01*
X49868095Y-140352380D01*
X50820476Y-139447619D02*
X50868095Y-139400000D01*
X50963333Y-139352380D01*
X51201428Y-139352380D01*
X51296666Y-139400000D01*
X51344285Y-139447619D01*
X51391904Y-139542857D01*
X51391904Y-139638095D01*
X51344285Y-139780952D01*
X50772857Y-140352380D01*
X51391904Y-140352380D01*
X51820476Y-140257142D02*
X51868095Y-140304761D01*
X51820476Y-140352380D01*
X51772857Y-140304761D01*
X51820476Y-140257142D01*
X51820476Y-140352380D01*
X51820476Y-139733333D02*
X51868095Y-139780952D01*
X51820476Y-139828571D01*
X51772857Y-139780952D01*
X51820476Y-139733333D01*
X51820476Y-139828571D01*
X53058571Y-140352380D02*
X53058571Y-139352380D01*
X53630000Y-140352380D01*
X53630000Y-139352380D01*
X54677619Y-140352380D02*
X54344285Y-139876190D01*
X54106190Y-140352380D02*
X54106190Y-139352380D01*
X54487142Y-139352380D01*
X54582380Y-139400000D01*
X54630000Y-139447619D01*
X54677619Y-139542857D01*
X54677619Y-139685714D01*
X54630000Y-139780952D01*
X54582380Y-139828571D01*
X54487142Y-139876190D01*
X54106190Y-139876190D01*
X55058571Y-140304761D02*
X55201428Y-140352380D01*
X55439523Y-140352380D01*
X55534761Y-140304761D01*
X55582380Y-140257142D01*
X55630000Y-140161904D01*
X55630000Y-140066666D01*
X55582380Y-139971428D01*
X55534761Y-139923809D01*
X55439523Y-139876190D01*
X55249047Y-139828571D01*
X55153809Y-139780952D01*
X55106190Y-139733333D01*
X55058571Y-139638095D01*
X55058571Y-139542857D01*
X55106190Y-139447619D01*
X55153809Y-139400000D01*
X55249047Y-139352380D01*
X55487142Y-139352380D01*
X55630000Y-139400000D01*
X55915714Y-139352380D02*
X56487142Y-139352380D01*
X56201428Y-140352380D02*
X56201428Y-139352380D01*
X49868095Y-141962380D02*
X49868095Y-140962380D01*
X50106190Y-140962380D01*
X50249047Y-141010000D01*
X50344285Y-141105238D01*
X50391904Y-141200476D01*
X50439523Y-141390952D01*
X50439523Y-141533809D01*
X50391904Y-141724285D01*
X50344285Y-141819523D01*
X50249047Y-141914761D01*
X50106190Y-141962380D01*
X49868095Y-141962380D01*
X51296666Y-140962380D02*
X51106190Y-140962380D01*
X51010952Y-141010000D01*
X50963333Y-141057619D01*
X50868095Y-141200476D01*
X50820476Y-141390952D01*
X50820476Y-141771904D01*
X50868095Y-141867142D01*
X50915714Y-141914761D01*
X51010952Y-141962380D01*
X51201428Y-141962380D01*
X51296666Y-141914761D01*
X51344285Y-141867142D01*
X51391904Y-141771904D01*
X51391904Y-141533809D01*
X51344285Y-141438571D01*
X51296666Y-141390952D01*
X51201428Y-141343333D01*
X51010952Y-141343333D01*
X50915714Y-141390952D01*
X50868095Y-141438571D01*
X50820476Y-141533809D01*
X51820476Y-141867142D02*
X51868095Y-141914761D01*
X51820476Y-141962380D01*
X51772857Y-141914761D01*
X51820476Y-141867142D01*
X51820476Y-141962380D01*
X51820476Y-141343333D02*
X51868095Y-141390952D01*
X51820476Y-141438571D01*
X51772857Y-141390952D01*
X51820476Y-141343333D01*
X51820476Y-141438571D01*
X53391904Y-141438571D02*
X53534761Y-141486190D01*
X53582380Y-141533809D01*
X53630000Y-141629047D01*
X53630000Y-141771904D01*
X53582380Y-141867142D01*
X53534761Y-141914761D01*
X53439523Y-141962380D01*
X53058571Y-141962380D01*
X53058571Y-140962380D01*
X53391904Y-140962380D01*
X53487142Y-141010000D01*
X53534761Y-141057619D01*
X53582380Y-141152857D01*
X53582380Y-141248095D01*
X53534761Y-141343333D01*
X53487142Y-141390952D01*
X53391904Y-141438571D01*
X53058571Y-141438571D01*
X54249047Y-140962380D02*
X54439523Y-140962380D01*
X54534761Y-141010000D01*
X54630000Y-141105238D01*
X54677619Y-141295714D01*
X54677619Y-141629047D01*
X54630000Y-141819523D01*
X54534761Y-141914761D01*
X54439523Y-141962380D01*
X54249047Y-141962380D01*
X54153809Y-141914761D01*
X54058571Y-141819523D01*
X54010952Y-141629047D01*
X54010952Y-141295714D01*
X54058571Y-141105238D01*
X54153809Y-141010000D01*
X54249047Y-140962380D01*
X55296666Y-140962380D02*
X55487142Y-140962380D01*
X55582380Y-141010000D01*
X55677619Y-141105238D01*
X55725238Y-141295714D01*
X55725238Y-141629047D01*
X55677619Y-141819523D01*
X55582380Y-141914761D01*
X55487142Y-141962380D01*
X55296666Y-141962380D01*
X55201428Y-141914761D01*
X55106190Y-141819523D01*
X55058571Y-141629047D01*
X55058571Y-141295714D01*
X55106190Y-141105238D01*
X55201428Y-141010000D01*
X55296666Y-140962380D01*
X56010952Y-140962380D02*
X56582380Y-140962380D01*
X56296666Y-141962380D02*
X56296666Y-140962380D01*
X49868095Y-143572380D02*
X49868095Y-142572380D01*
X50106190Y-142572380D01*
X50249047Y-142620000D01*
X50344285Y-142715238D01*
X50391904Y-142810476D01*
X50439523Y-143000952D01*
X50439523Y-143143809D01*
X50391904Y-143334285D01*
X50344285Y-143429523D01*
X50249047Y-143524761D01*
X50106190Y-143572380D01*
X49868095Y-143572380D01*
X50772857Y-142572380D02*
X51439523Y-142572380D01*
X51010952Y-143572380D01*
X51820476Y-143477142D02*
X51868095Y-143524761D01*
X51820476Y-143572380D01*
X51772857Y-143524761D01*
X51820476Y-143477142D01*
X51820476Y-143572380D01*
X51820476Y-142953333D02*
X51868095Y-143000952D01*
X51820476Y-143048571D01*
X51772857Y-143000952D01*
X51820476Y-142953333D01*
X51820476Y-143048571D01*
X53058571Y-143572380D02*
X53058571Y-142572380D01*
X53725238Y-142572380D02*
X53915714Y-142572380D01*
X54010952Y-142620000D01*
X54106190Y-142715238D01*
X54153809Y-142905714D01*
X54153809Y-143239047D01*
X54106190Y-143429523D01*
X54010952Y-143524761D01*
X53915714Y-143572380D01*
X53725238Y-143572380D01*
X53630000Y-143524761D01*
X53534761Y-143429523D01*
X53487142Y-143239047D01*
X53487142Y-142905714D01*
X53534761Y-142715238D01*
X53630000Y-142620000D01*
X53725238Y-142572380D01*
X55010952Y-142905714D02*
X55010952Y-143572380D01*
X54772857Y-142524761D02*
X54534761Y-143239047D01*
X55153809Y-143239047D01*
X62682380Y-106222380D02*
X62206190Y-106555714D01*
X62682380Y-106793809D02*
X61682380Y-106793809D01*
X61682380Y-106412857D01*
X61730000Y-106317619D01*
X61777619Y-106270000D01*
X61872857Y-106222380D01*
X62015714Y-106222380D01*
X62110952Y-106270000D01*
X62158571Y-106317619D01*
X62206190Y-106412857D01*
X62206190Y-106793809D01*
X61682380Y-105936666D02*
X61682380Y-105365238D01*
X62682380Y-105650952D02*
X61682380Y-105650952D01*
X62587142Y-104460476D02*
X62634761Y-104508095D01*
X62682380Y-104650952D01*
X62682380Y-104746190D01*
X62634761Y-104889047D01*
X62539523Y-104984285D01*
X62444285Y-105031904D01*
X62253809Y-105079523D01*
X62110952Y-105079523D01*
X61920476Y-105031904D01*
X61825238Y-104984285D01*
X61730000Y-104889047D01*
X61682380Y-104746190D01*
X61682380Y-104650952D01*
X61730000Y-104508095D01*
X61777619Y-104460476D01*
D12*
X59015714Y-79902857D02*
X59515714Y-79902857D01*
X59730000Y-80688571D02*
X59015714Y-80688571D01*
X59015714Y-79188571D01*
X59730000Y-79188571D01*
X60301428Y-80617142D02*
X60515714Y-80688571D01*
X60872857Y-80688571D01*
X61015714Y-80617142D01*
X61087142Y-80545714D01*
X61158571Y-80402857D01*
X61158571Y-80260000D01*
X61087142Y-80117142D01*
X61015714Y-80045714D01*
X60872857Y-79974285D01*
X60587142Y-79902857D01*
X60444285Y-79831428D01*
X60372857Y-79760000D01*
X60301428Y-79617142D01*
X60301428Y-79474285D01*
X60372857Y-79331428D01*
X60444285Y-79260000D01*
X60587142Y-79188571D01*
X60944285Y-79188571D01*
X61158571Y-79260000D01*
X61801428Y-80688571D02*
X61801428Y-79188571D01*
X62372857Y-79188571D01*
X62515714Y-79260000D01*
X62587142Y-79331428D01*
X62658571Y-79474285D01*
X62658571Y-79688571D01*
X62587142Y-79831428D01*
X62515714Y-79902857D01*
X62372857Y-79974285D01*
X61801428Y-79974285D01*
X63158571Y-79188571D02*
X64087142Y-79188571D01*
X63587142Y-79760000D01*
X63801428Y-79760000D01*
X63944285Y-79831428D01*
X64015714Y-79902857D01*
X64087142Y-80045714D01*
X64087142Y-80402857D01*
X64015714Y-80545714D01*
X63944285Y-80617142D01*
X63801428Y-80688571D01*
X63372857Y-80688571D01*
X63230000Y-80617142D01*
X63158571Y-80545714D01*
X64658571Y-79331428D02*
X64730000Y-79260000D01*
X64872857Y-79188571D01*
X65230000Y-79188571D01*
X65372857Y-79260000D01*
X65444285Y-79331428D01*
X65515714Y-79474285D01*
X65515714Y-79617142D01*
X65444285Y-79831428D01*
X64587142Y-80688571D01*
X65515714Y-80688571D01*
D11*
X67714761Y-107555714D02*
X67762380Y-107412857D01*
X67762380Y-107174761D01*
X67714761Y-107079523D01*
X67667142Y-107031904D01*
X67571904Y-106984285D01*
X67476666Y-106984285D01*
X67381428Y-107031904D01*
X67333809Y-107079523D01*
X67286190Y-107174761D01*
X67238571Y-107365238D01*
X67190952Y-107460476D01*
X67143333Y-107508095D01*
X67048095Y-107555714D01*
X66952857Y-107555714D01*
X66857619Y-107508095D01*
X66810000Y-107460476D01*
X66762380Y-107365238D01*
X66762380Y-107127142D01*
X66810000Y-106984285D01*
X67762380Y-106555714D02*
X66762380Y-106555714D01*
X66762380Y-106317619D01*
X66810000Y-106174761D01*
X66905238Y-106079523D01*
X67000476Y-106031904D01*
X67190952Y-105984285D01*
X67333809Y-105984285D01*
X67524285Y-106031904D01*
X67619523Y-106079523D01*
X67714761Y-106174761D01*
X67762380Y-106317619D01*
X67762380Y-106555714D01*
X67762380Y-105555714D02*
X66762380Y-105555714D01*
X66762380Y-104889047D02*
X66762380Y-104698571D01*
X66810000Y-104603333D01*
X66905238Y-104508095D01*
X67095714Y-104460476D01*
X67429047Y-104460476D01*
X67619523Y-104508095D01*
X67714761Y-104603333D01*
X67762380Y-104698571D01*
X67762380Y-104889047D01*
X67714761Y-104984285D01*
X67619523Y-105079523D01*
X67429047Y-105127142D01*
X67095714Y-105127142D01*
X66905238Y-105079523D01*
X66810000Y-104984285D01*
X66762380Y-104889047D01*
X56602380Y-109936666D02*
X57602380Y-109603333D01*
X56602380Y-109270000D01*
X57602380Y-108936666D02*
X56602380Y-108936666D01*
X56602380Y-108698571D01*
X56650000Y-108555714D01*
X56745238Y-108460476D01*
X56840476Y-108412857D01*
X57030952Y-108365238D01*
X57173809Y-108365238D01*
X57364285Y-108412857D01*
X57459523Y-108460476D01*
X57554761Y-108555714D01*
X57602380Y-108698571D01*
X57602380Y-108936666D01*
X57602380Y-107936666D02*
X56602380Y-107936666D01*
X56602380Y-107698571D01*
X56650000Y-107555714D01*
X56745238Y-107460476D01*
X56840476Y-107412857D01*
X57030952Y-107365238D01*
X57173809Y-107365238D01*
X57364285Y-107412857D01*
X57459523Y-107460476D01*
X57554761Y-107555714D01*
X57602380Y-107698571D01*
X57602380Y-107936666D01*
X56602380Y-107031904D02*
X56602380Y-106412857D01*
X56983333Y-106746190D01*
X56983333Y-106603333D01*
X57030952Y-106508095D01*
X57078571Y-106460476D01*
X57173809Y-106412857D01*
X57411904Y-106412857D01*
X57507142Y-106460476D01*
X57554761Y-106508095D01*
X57602380Y-106603333D01*
X57602380Y-106889047D01*
X57554761Y-106984285D01*
X57507142Y-107031904D01*
X57602380Y-105984285D02*
X56602380Y-105984285D01*
X56602380Y-105603333D01*
X56650000Y-105508095D01*
X56697619Y-105460476D01*
X56792857Y-105412857D01*
X56935714Y-105412857D01*
X57030952Y-105460476D01*
X57078571Y-105508095D01*
X57126190Y-105603333D01*
X57126190Y-105984285D01*
X56602380Y-105079523D02*
X56602380Y-104460476D01*
X56983333Y-104793809D01*
X56983333Y-104650952D01*
X57030952Y-104555714D01*
X57078571Y-104508095D01*
X57173809Y-104460476D01*
X57411904Y-104460476D01*
X57507142Y-104508095D01*
X57554761Y-104555714D01*
X57602380Y-104650952D01*
X57602380Y-104936666D01*
X57554761Y-105031904D01*
X57507142Y-105079523D01*
X49051142Y-114054000D02*
X48955904Y-114006380D01*
X48813047Y-114006380D01*
X48670190Y-114054000D01*
X48574952Y-114149238D01*
X48527333Y-114244476D01*
X48479714Y-114434952D01*
X48479714Y-114577809D01*
X48527333Y-114768285D01*
X48574952Y-114863523D01*
X48670190Y-114958761D01*
X48813047Y-115006380D01*
X48908285Y-115006380D01*
X49051142Y-114958761D01*
X49098761Y-114911142D01*
X49098761Y-114577809D01*
X48908285Y-114577809D01*
X49527333Y-115006380D02*
X49527333Y-114006380D01*
X50098761Y-115006380D01*
X50098761Y-114006380D01*
X50574952Y-115006380D02*
X50574952Y-114006380D01*
X50813047Y-114006380D01*
X50955904Y-114054000D01*
X51051142Y-114149238D01*
X51098761Y-114244476D01*
X51146380Y-114434952D01*
X51146380Y-114577809D01*
X51098761Y-114768285D01*
X51051142Y-114863523D01*
X50955904Y-114958761D01*
X50813047Y-115006380D01*
X50574952Y-115006380D01*
X51527333Y-114720666D02*
X52003523Y-114720666D01*
X51432095Y-115006380D02*
X51765428Y-114006380D01*
X52098761Y-115006380D01*
X65127142Y-106508095D02*
X65174761Y-106555714D01*
X65222380Y-106698571D01*
X65222380Y-106793809D01*
X65174761Y-106936666D01*
X65079523Y-107031904D01*
X64984285Y-107079523D01*
X64793809Y-107127142D01*
X64650952Y-107127142D01*
X64460476Y-107079523D01*
X64365238Y-107031904D01*
X64270000Y-106936666D01*
X64222380Y-106793809D01*
X64222380Y-106698571D01*
X64270000Y-106555714D01*
X64317619Y-106508095D01*
X65222380Y-106079523D02*
X64222380Y-106079523D01*
X64222380Y-105698571D01*
X64270000Y-105603333D01*
X64317619Y-105555714D01*
X64412857Y-105508095D01*
X64555714Y-105508095D01*
X64650952Y-105555714D01*
X64698571Y-105603333D01*
X64746190Y-105698571D01*
X64746190Y-106079523D01*
X64222380Y-105079523D02*
X65031904Y-105079523D01*
X65127142Y-105031904D01*
X65174761Y-104984285D01*
X65222380Y-104889047D01*
X65222380Y-104698571D01*
X65174761Y-104603333D01*
X65127142Y-104555714D01*
X65031904Y-104508095D01*
X64222380Y-104508095D01*
D10*
X76512380Y-115361904D02*
X77321904Y-115361904D01*
X77417142Y-115314285D01*
X77464761Y-115266666D01*
X77512380Y-115171428D01*
X77512380Y-114980952D01*
X77464761Y-114885714D01*
X77417142Y-114838095D01*
X77321904Y-114790476D01*
X76512380Y-114790476D01*
X76607619Y-114361904D02*
X76560000Y-114314285D01*
X76512380Y-114219047D01*
X76512380Y-113980952D01*
X76560000Y-113885714D01*
X76607619Y-113838095D01*
X76702857Y-113790476D01*
X76798095Y-113790476D01*
X76940952Y-113838095D01*
X77512380Y-114409523D01*
X77512380Y-113790476D01*
X52523809Y-122976190D02*
X52523809Y-123452380D01*
X52190476Y-122452380D02*
X52523809Y-122976190D01*
X52857142Y-122452380D01*
X53714285Y-123452380D02*
X53142857Y-123452380D01*
X53428571Y-123452380D02*
X53428571Y-122452380D01*
X53333333Y-122595238D01*
X53238095Y-122690476D01*
X53142857Y-122738095D01*
X54272380Y-101563333D02*
X54986666Y-101563333D01*
X55129523Y-101610952D01*
X55224761Y-101706190D01*
X55272380Y-101849047D01*
X55272380Y-101944285D01*
X54272380Y-101182380D02*
X54272380Y-100563333D01*
X54653333Y-100896666D01*
X54653333Y-100753809D01*
X54700952Y-100658571D01*
X54748571Y-100610952D01*
X54843809Y-100563333D01*
X55081904Y-100563333D01*
X55177142Y-100610952D01*
X55224761Y-100658571D01*
X55272380Y-100753809D01*
X55272380Y-101039523D01*
X55224761Y-101134761D01*
X55177142Y-101182380D01*
X63338095Y-121152380D02*
X63338095Y-121961904D01*
X63385714Y-122057142D01*
X63433333Y-122104761D01*
X63528571Y-122152380D01*
X63719047Y-122152380D01*
X63814285Y-122104761D01*
X63861904Y-122057142D01*
X63909523Y-121961904D01*
X63909523Y-121152380D01*
X64909523Y-122152380D02*
X64338095Y-122152380D01*
X64623809Y-122152380D02*
X64623809Y-121152380D01*
X64528571Y-121295238D01*
X64433333Y-121390476D01*
X64338095Y-121438095D01*
X53866666Y-111522380D02*
X53866666Y-112236666D01*
X53819047Y-112379523D01*
X53723809Y-112474761D01*
X53580952Y-112522380D01*
X53485714Y-112522380D01*
X54771428Y-111855714D02*
X54771428Y-112522380D01*
X54533333Y-111474761D02*
X54295238Y-112189047D01*
X54914285Y-112189047D01*
X50127142Y-120366666D02*
X50174761Y-120414285D01*
X50222380Y-120557142D01*
X50222380Y-120652380D01*
X50174761Y-120795238D01*
X50079523Y-120890476D01*
X49984285Y-120938095D01*
X49793809Y-120985714D01*
X49650952Y-120985714D01*
X49460476Y-120938095D01*
X49365238Y-120890476D01*
X49270000Y-120795238D01*
X49222380Y-120652380D01*
X49222380Y-120557142D01*
X49270000Y-120414285D01*
X49317619Y-120366666D01*
X49317619Y-119985714D02*
X49270000Y-119938095D01*
X49222380Y-119842857D01*
X49222380Y-119604761D01*
X49270000Y-119509523D01*
X49317619Y-119461904D01*
X49412857Y-119414285D01*
X49508095Y-119414285D01*
X49650952Y-119461904D01*
X50222380Y-120033333D01*
X50222380Y-119414285D01*
X55033333Y-125387142D02*
X54985714Y-125434761D01*
X54842857Y-125482380D01*
X54747619Y-125482380D01*
X54604761Y-125434761D01*
X54509523Y-125339523D01*
X54461904Y-125244285D01*
X54414285Y-125053809D01*
X54414285Y-124910952D01*
X54461904Y-124720476D01*
X54509523Y-124625238D01*
X54604761Y-124530000D01*
X54747619Y-124482380D01*
X54842857Y-124482380D01*
X54985714Y-124530000D01*
X55033333Y-124577619D01*
X55985714Y-125482380D02*
X55414285Y-125482380D01*
X55700000Y-125482380D02*
X55700000Y-124482380D01*
X55604761Y-124625238D01*
X55509523Y-124720476D01*
X55414285Y-124768095D01*
X57957142Y-120366666D02*
X58004761Y-120414285D01*
X58052380Y-120557142D01*
X58052380Y-120652380D01*
X58004761Y-120795238D01*
X57909523Y-120890476D01*
X57814285Y-120938095D01*
X57623809Y-120985714D01*
X57480952Y-120985714D01*
X57290476Y-120938095D01*
X57195238Y-120890476D01*
X57100000Y-120795238D01*
X57052380Y-120652380D01*
X57052380Y-120557142D01*
X57100000Y-120414285D01*
X57147619Y-120366666D01*
X57052380Y-120033333D02*
X57052380Y-119414285D01*
X57433333Y-119747619D01*
X57433333Y-119604761D01*
X57480952Y-119509523D01*
X57528571Y-119461904D01*
X57623809Y-119414285D01*
X57861904Y-119414285D01*
X57957142Y-119461904D01*
X58004761Y-119509523D01*
X58052380Y-119604761D01*
X58052380Y-119890476D01*
X58004761Y-119985714D01*
X57957142Y-120033333D01*
D13*
X70775000Y-114600000D02*
X70775000Y-117350000D01*
X70775000Y-117350000D02*
X71035000Y-117350000D01*
X70775000Y-114600000D02*
X70775000Y-111850000D01*
X70775000Y-111850000D02*
X71035000Y-111850000D01*
X76225000Y-114600000D02*
X76225000Y-117350000D01*
X76225000Y-117350000D02*
X75965000Y-117350000D01*
X76225000Y-114600000D02*
X76225000Y-111850000D01*
X76225000Y-111850000D02*
X75965000Y-111850000D01*
X75965000Y-111850000D02*
X75965000Y-110200000D01*
D14*
X53000000Y-90394903D02*
X53000000Y-92395600D01*
X53000000Y-92395600D02*
X52965075Y-92395367D01*
X52965075Y-92395367D02*
X52937834Y-92390507D01*
X52937834Y-92390507D02*
X52894917Y-92377722D01*
X52894917Y-92377722D02*
X52843870Y-92359371D01*
X52843870Y-92359371D02*
X52822200Y-92350727D01*
X52822200Y-92350727D02*
X52641186Y-92263797D01*
X52641186Y-92263797D02*
X52461335Y-92152773D01*
X52461335Y-92152773D02*
X52284490Y-92018949D01*
X52284490Y-92018949D02*
X52112496Y-91863621D01*
X52112496Y-91863621D02*
X52073734Y-91824906D01*
X52073734Y-91824906D02*
X51887609Y-91617539D01*
X51887609Y-91617539D02*
X51720004Y-91393433D01*
X51720004Y-91393433D02*
X51571570Y-91153902D01*
X51571570Y-91153902D02*
X51442961Y-90900262D01*
X51442961Y-90900262D02*
X51334831Y-90633827D01*
X51334831Y-90633827D02*
X51247833Y-90355914D01*
X51247833Y-90355914D02*
X51182619Y-90067836D01*
X51182619Y-90067836D02*
X51172447Y-90010293D01*
X51172447Y-90010293D02*
X51164556Y-89957730D01*
X51164556Y-89957730D02*
X51156300Y-89892725D01*
X51156300Y-89892725D02*
X51148050Y-89819507D01*
X51148050Y-89819507D02*
X51140181Y-89742307D01*
X51140181Y-89742307D02*
X51133065Y-89665353D01*
X51133065Y-89665353D02*
X51127074Y-89592876D01*
X51127074Y-89592876D02*
X51122583Y-89529106D01*
X51122583Y-89529106D02*
X51119963Y-89478272D01*
X51119963Y-89478272D02*
X51119588Y-89444605D01*
X51119588Y-89444605D02*
X51121498Y-89432462D01*
X51121498Y-89432462D02*
X51133233Y-89425787D01*
X51133233Y-89425787D02*
X51165199Y-89407936D01*
X51165199Y-89407936D02*
X51215395Y-89380016D01*
X51215395Y-89380016D02*
X51281820Y-89343134D01*
X51281820Y-89343134D02*
X51362472Y-89298398D01*
X51362472Y-89298398D02*
X51455351Y-89246914D01*
X51455351Y-89246914D02*
X51558455Y-89189790D01*
X51558455Y-89189790D02*
X51669783Y-89128133D01*
X51669783Y-89128133D02*
X51787333Y-89063050D01*
X51787333Y-89063050D02*
X51909106Y-88995649D01*
X51909106Y-88995649D02*
X52033098Y-88927037D01*
X52033098Y-88927037D02*
X52157311Y-88858320D01*
X52157311Y-88858320D02*
X52279741Y-88790607D01*
X52279741Y-88790607D02*
X52398388Y-88725004D01*
X52398388Y-88725004D02*
X52511251Y-88662619D01*
X52511251Y-88662619D02*
X52616328Y-88604559D01*
X52616328Y-88604559D02*
X52711618Y-88551931D01*
X52711618Y-88551931D02*
X52795121Y-88505842D01*
X52795121Y-88505842D02*
X52864835Y-88467400D01*
X52864835Y-88467400D02*
X52918759Y-88437711D01*
X52918759Y-88437711D02*
X52954891Y-88417884D01*
X52954891Y-88417884D02*
X52971230Y-88409025D01*
X52971230Y-88409025D02*
X52971425Y-88408924D01*
X52971425Y-88408924D02*
X52999999Y-88394206D01*
X52999999Y-88394206D02*
X53000000Y-90394903D01*
X53000000Y-90394903D02*
X53000000Y-90394903D01*
G36*
X53000000Y-90394903D02*
G01*
X53000000Y-92395600D01*
X52965075Y-92395367D01*
X52937834Y-92390507D01*
X52894917Y-92377722D01*
X52843870Y-92359371D01*
X52822200Y-92350727D01*
X52641186Y-92263797D01*
X52461335Y-92152773D01*
X52284490Y-92018949D01*
X52112496Y-91863621D01*
X52073734Y-91824906D01*
X51887609Y-91617539D01*
X51720004Y-91393433D01*
X51571570Y-91153902D01*
X51442961Y-90900262D01*
X51334831Y-90633827D01*
X51247833Y-90355914D01*
X51182619Y-90067836D01*
X51172447Y-90010293D01*
X51164556Y-89957730D01*
X51156300Y-89892725D01*
X51148050Y-89819507D01*
X51140181Y-89742307D01*
X51133065Y-89665353D01*
X51127074Y-89592876D01*
X51122583Y-89529106D01*
X51119963Y-89478272D01*
X51119588Y-89444605D01*
X51121498Y-89432462D01*
X51133233Y-89425787D01*
X51165199Y-89407936D01*
X51215395Y-89380016D01*
X51281820Y-89343134D01*
X51362472Y-89298398D01*
X51455351Y-89246914D01*
X51558455Y-89189790D01*
X51669783Y-89128133D01*
X51787333Y-89063050D01*
X51909106Y-88995649D01*
X52033098Y-88927037D01*
X52157311Y-88858320D01*
X52279741Y-88790607D01*
X52398388Y-88725004D01*
X52511251Y-88662619D01*
X52616328Y-88604559D01*
X52711618Y-88551931D01*
X52795121Y-88505842D01*
X52864835Y-88467400D01*
X52918759Y-88437711D01*
X52954891Y-88417884D01*
X52971230Y-88409025D01*
X52971425Y-88408924D01*
X52999999Y-88394206D01*
X53000000Y-90394903D01*
G37*
X53000000Y-90394903D02*
X53000000Y-92395600D01*
X52965075Y-92395367D01*
X52937834Y-92390507D01*
X52894917Y-92377722D01*
X52843870Y-92359371D01*
X52822200Y-92350727D01*
X52641186Y-92263797D01*
X52461335Y-92152773D01*
X52284490Y-92018949D01*
X52112496Y-91863621D01*
X52073734Y-91824906D01*
X51887609Y-91617539D01*
X51720004Y-91393433D01*
X51571570Y-91153902D01*
X51442961Y-90900262D01*
X51334831Y-90633827D01*
X51247833Y-90355914D01*
X51182619Y-90067836D01*
X51172447Y-90010293D01*
X51164556Y-89957730D01*
X51156300Y-89892725D01*
X51148050Y-89819507D01*
X51140181Y-89742307D01*
X51133065Y-89665353D01*
X51127074Y-89592876D01*
X51122583Y-89529106D01*
X51119963Y-89478272D01*
X51119588Y-89444605D01*
X51121498Y-89432462D01*
X51133233Y-89425787D01*
X51165199Y-89407936D01*
X51215395Y-89380016D01*
X51281820Y-89343134D01*
X51362472Y-89298398D01*
X51455351Y-89246914D01*
X51558455Y-89189790D01*
X51669783Y-89128133D01*
X51787333Y-89063050D01*
X51909106Y-88995649D01*
X52033098Y-88927037D01*
X52157311Y-88858320D01*
X52279741Y-88790607D01*
X52398388Y-88725004D01*
X52511251Y-88662619D01*
X52616328Y-88604559D01*
X52711618Y-88551931D01*
X52795121Y-88505842D01*
X52864835Y-88467400D01*
X52918759Y-88437711D01*
X52954891Y-88417884D01*
X52971230Y-88409025D01*
X52971425Y-88408924D01*
X52999999Y-88394206D01*
X53000000Y-90394903D01*
X53439282Y-86838901D02*
X53470744Y-86855395D01*
X53470744Y-86855395D02*
X53517646Y-86880665D01*
X53517646Y-86880665D02*
X53576626Y-86912895D01*
X53576626Y-86912895D02*
X53644322Y-86950269D01*
X53644322Y-86950269D02*
X53666852Y-86962782D01*
X53666852Y-86962782D02*
X53754210Y-87012200D01*
X53754210Y-87012200D02*
X53819340Y-87050952D01*
X53819340Y-87050952D02*
X53862875Y-87079448D01*
X53862875Y-87079448D02*
X53885445Y-87098096D01*
X53885445Y-87098096D02*
X53888579Y-87106556D01*
X53888579Y-87106556D02*
X53884372Y-87123534D01*
X53884372Y-87123534D02*
X53880380Y-87161200D01*
X53880380Y-87161200D02*
X53876937Y-87214841D01*
X53876937Y-87214841D02*
X53874379Y-87279745D01*
X53874379Y-87279745D02*
X53873459Y-87319185D01*
X53873459Y-87319185D02*
X53869950Y-87517824D01*
X53869950Y-87517824D02*
X53444500Y-87284102D01*
X53444500Y-87284102D02*
X53444500Y-87091127D01*
X53444500Y-87091127D02*
X53443702Y-87021077D01*
X53443702Y-87021077D02*
X53441508Y-86957833D01*
X53441508Y-86957833D02*
X53438212Y-86906796D01*
X53438212Y-86906796D02*
X53434113Y-86873363D01*
X53434113Y-86873363D02*
X53432114Y-86865576D01*
X53432114Y-86865576D02*
X53425303Y-86842032D01*
X53425303Y-86842032D02*
X53426620Y-86833000D01*
X53426620Y-86833000D02*
X53439282Y-86838901D01*
X53439282Y-86838901D02*
X53439282Y-86838901D01*
G36*
X53439282Y-86838901D02*
G01*
X53470744Y-86855395D01*
X53517646Y-86880665D01*
X53576626Y-86912895D01*
X53644322Y-86950269D01*
X53666852Y-86962782D01*
X53754210Y-87012200D01*
X53819340Y-87050952D01*
X53862875Y-87079448D01*
X53885445Y-87098096D01*
X53888579Y-87106556D01*
X53884372Y-87123534D01*
X53880380Y-87161200D01*
X53876937Y-87214841D01*
X53874379Y-87279745D01*
X53873459Y-87319185D01*
X53869950Y-87517824D01*
X53444500Y-87284102D01*
X53444500Y-87091127D01*
X53443702Y-87021077D01*
X53441508Y-86957833D01*
X53438212Y-86906796D01*
X53434113Y-86873363D01*
X53432114Y-86865576D01*
X53425303Y-86842032D01*
X53426620Y-86833000D01*
X53439282Y-86838901D01*
G37*
X53439282Y-86838901D02*
X53470744Y-86855395D01*
X53517646Y-86880665D01*
X53576626Y-86912895D01*
X53644322Y-86950269D01*
X53666852Y-86962782D01*
X53754210Y-87012200D01*
X53819340Y-87050952D01*
X53862875Y-87079448D01*
X53885445Y-87098096D01*
X53888579Y-87106556D01*
X53884372Y-87123534D01*
X53880380Y-87161200D01*
X53876937Y-87214841D01*
X53874379Y-87279745D01*
X53873459Y-87319185D01*
X53869950Y-87517824D01*
X53444500Y-87284102D01*
X53444500Y-87091127D01*
X53443702Y-87021077D01*
X53441508Y-86957833D01*
X53438212Y-86906796D01*
X53434113Y-86873363D01*
X53432114Y-86865576D01*
X53425303Y-86842032D01*
X53426620Y-86833000D01*
X53439282Y-86838901D01*
X53025770Y-87893073D02*
X53058501Y-87910307D01*
X53058501Y-87910307D02*
X53109714Y-87937772D01*
X53109714Y-87937772D02*
X53177538Y-87974440D01*
X53177538Y-87974440D02*
X53260097Y-88019283D01*
X53260097Y-88019283D02*
X53355520Y-88071270D01*
X53355520Y-88071270D02*
X53461933Y-88129374D01*
X53461933Y-88129374D02*
X53577463Y-88192565D01*
X53577463Y-88192565D02*
X53700237Y-88259815D01*
X53700237Y-88259815D02*
X53828381Y-88330094D01*
X53828381Y-88330094D02*
X53960023Y-88402375D01*
X53960023Y-88402375D02*
X54093289Y-88475627D01*
X54093289Y-88475627D02*
X54226306Y-88548822D01*
X54226306Y-88548822D02*
X54357202Y-88620932D01*
X54357202Y-88620932D02*
X54484102Y-88690927D01*
X54484102Y-88690927D02*
X54605134Y-88757778D01*
X54605134Y-88757778D02*
X54718424Y-88820457D01*
X54718424Y-88820457D02*
X54822099Y-88877935D01*
X54822099Y-88877935D02*
X54914287Y-88929183D01*
X54914287Y-88929183D02*
X54993114Y-88973172D01*
X54993114Y-88973172D02*
X55056707Y-89008873D01*
X55056707Y-89008873D02*
X55089150Y-89027241D01*
X55089150Y-89027241D02*
X55129821Y-89051960D01*
X55129821Y-89051960D02*
X55159448Y-89073009D01*
X55159448Y-89073009D02*
X55173081Y-89086764D01*
X55173081Y-89086764D02*
X55173328Y-89088887D01*
X55173328Y-89088887D02*
X55163354Y-89102744D01*
X55163354Y-89102744D02*
X55140233Y-89131041D01*
X55140233Y-89131041D02*
X55107280Y-89169994D01*
X55107280Y-89169994D02*
X55067814Y-89215820D01*
X55067814Y-89215820D02*
X55025151Y-89264737D01*
X55025151Y-89264737D02*
X54982609Y-89312961D01*
X54982609Y-89312961D02*
X54943504Y-89356708D01*
X54943504Y-89356708D02*
X54911153Y-89392195D01*
X54911153Y-89392195D02*
X54888875Y-89415640D01*
X54888875Y-89415640D02*
X54880106Y-89423320D01*
X54880106Y-89423320D02*
X54868218Y-89417221D01*
X54868218Y-89417221D02*
X54835772Y-89399674D01*
X54835772Y-89399674D02*
X54784401Y-89371584D01*
X54784401Y-89371584D02*
X54715744Y-89333853D01*
X54715744Y-89333853D02*
X54631434Y-89287385D01*
X54631434Y-89287385D02*
X54533109Y-89233082D01*
X54533109Y-89233082D02*
X54422405Y-89171848D01*
X54422405Y-89171848D02*
X54300956Y-89104586D01*
X54300956Y-89104586D02*
X54170400Y-89032199D01*
X54170400Y-89032199D02*
X54032371Y-88955591D01*
X54032371Y-88955591D02*
X53939800Y-88904170D01*
X53939800Y-88904170D02*
X53006350Y-88385500D01*
X53006350Y-88385500D02*
X53002906Y-88136300D01*
X53002906Y-88136300D02*
X53002133Y-88041004D01*
X53002133Y-88041004D02*
X53002828Y-87969762D01*
X53002828Y-87969762D02*
X53005047Y-87921267D01*
X53005047Y-87921267D02*
X53008844Y-87894213D01*
X53008844Y-87894213D02*
X53013394Y-87887100D01*
X53013394Y-87887100D02*
X53025770Y-87893073D01*
X53025770Y-87893073D02*
X53025770Y-87893073D01*
G36*
X53025770Y-87893073D02*
G01*
X53058501Y-87910307D01*
X53109714Y-87937772D01*
X53177538Y-87974440D01*
X53260097Y-88019283D01*
X53355520Y-88071270D01*
X53461933Y-88129374D01*
X53577463Y-88192565D01*
X53700237Y-88259815D01*
X53828381Y-88330094D01*
X53960023Y-88402375D01*
X54093289Y-88475627D01*
X54226306Y-88548822D01*
X54357202Y-88620932D01*
X54484102Y-88690927D01*
X54605134Y-88757778D01*
X54718424Y-88820457D01*
X54822099Y-88877935D01*
X54914287Y-88929183D01*
X54993114Y-88973172D01*
X55056707Y-89008873D01*
X55089150Y-89027241D01*
X55129821Y-89051960D01*
X55159448Y-89073009D01*
X55173081Y-89086764D01*
X55173328Y-89088887D01*
X55163354Y-89102744D01*
X55140233Y-89131041D01*
X55107280Y-89169994D01*
X55067814Y-89215820D01*
X55025151Y-89264737D01*
X54982609Y-89312961D01*
X54943504Y-89356708D01*
X54911153Y-89392195D01*
X54888875Y-89415640D01*
X54880106Y-89423320D01*
X54868218Y-89417221D01*
X54835772Y-89399674D01*
X54784401Y-89371584D01*
X54715744Y-89333853D01*
X54631434Y-89287385D01*
X54533109Y-89233082D01*
X54422405Y-89171848D01*
X54300956Y-89104586D01*
X54170400Y-89032199D01*
X54032371Y-88955591D01*
X53939800Y-88904170D01*
X53006350Y-88385500D01*
X53002906Y-88136300D01*
X53002133Y-88041004D01*
X53002828Y-87969762D01*
X53005047Y-87921267D01*
X53008844Y-87894213D01*
X53013394Y-87887100D01*
X53025770Y-87893073D01*
G37*
X53025770Y-87893073D02*
X53058501Y-87910307D01*
X53109714Y-87937772D01*
X53177538Y-87974440D01*
X53260097Y-88019283D01*
X53355520Y-88071270D01*
X53461933Y-88129374D01*
X53577463Y-88192565D01*
X53700237Y-88259815D01*
X53828381Y-88330094D01*
X53960023Y-88402375D01*
X54093289Y-88475627D01*
X54226306Y-88548822D01*
X54357202Y-88620932D01*
X54484102Y-88690927D01*
X54605134Y-88757778D01*
X54718424Y-88820457D01*
X54822099Y-88877935D01*
X54914287Y-88929183D01*
X54993114Y-88973172D01*
X55056707Y-89008873D01*
X55089150Y-89027241D01*
X55129821Y-89051960D01*
X55159448Y-89073009D01*
X55173081Y-89086764D01*
X55173328Y-89088887D01*
X55163354Y-89102744D01*
X55140233Y-89131041D01*
X55107280Y-89169994D01*
X55067814Y-89215820D01*
X55025151Y-89264737D01*
X54982609Y-89312961D01*
X54943504Y-89356708D01*
X54911153Y-89392195D01*
X54888875Y-89415640D01*
X54880106Y-89423320D01*
X54868218Y-89417221D01*
X54835772Y-89399674D01*
X54784401Y-89371584D01*
X54715744Y-89333853D01*
X54631434Y-89287385D01*
X54533109Y-89233082D01*
X54422405Y-89171848D01*
X54300956Y-89104586D01*
X54170400Y-89032199D01*
X54032371Y-88955591D01*
X53939800Y-88904170D01*
X53006350Y-88385500D01*
X53002906Y-88136300D01*
X53002133Y-88041004D01*
X53002828Y-87969762D01*
X53005047Y-87921267D01*
X53008844Y-87894213D01*
X53013394Y-87887100D01*
X53025770Y-87893073D01*
X53914236Y-89844237D02*
X53974478Y-89871905D01*
X53974478Y-89871905D02*
X54033178Y-89918017D01*
X54033178Y-89918017D02*
X54087583Y-89981291D01*
X54087583Y-89981291D02*
X54134943Y-90060447D01*
X54134943Y-90060447D02*
X54136688Y-90064000D01*
X54136688Y-90064000D02*
X54159039Y-90114309D01*
X54159039Y-90114309D02*
X54175684Y-90164025D01*
X54175684Y-90164025D02*
X54187193Y-90217688D01*
X54187193Y-90217688D02*
X54194133Y-90279840D01*
X54194133Y-90279840D02*
X54197076Y-90355022D01*
X54197076Y-90355022D02*
X54196590Y-90447775D01*
X54196590Y-90447775D02*
X54194525Y-90525290D01*
X54194525Y-90525290D02*
X54187450Y-90744130D01*
X54187450Y-90744130D02*
X53670800Y-90509650D01*
X53670800Y-90509650D02*
X53676716Y-90262000D01*
X53676716Y-90262000D02*
X53679784Y-90162088D01*
X53679784Y-90162088D02*
X53684140Y-90083805D01*
X53684140Y-90083805D02*
X53690533Y-90023388D01*
X53690533Y-90023388D02*
X53699710Y-89977070D01*
X53699710Y-89977070D02*
X53712422Y-89941087D01*
X53712422Y-89941087D02*
X53729417Y-89911674D01*
X53729417Y-89911674D02*
X53751444Y-89885067D01*
X53751444Y-89885067D02*
X53751773Y-89884716D01*
X53751773Y-89884716D02*
X53800132Y-89849361D01*
X53800132Y-89849361D02*
X53855204Y-89836296D01*
X53855204Y-89836296D02*
X53914236Y-89844237D01*
X53914236Y-89844237D02*
X53914236Y-89844237D01*
G36*
X53914236Y-89844237D02*
G01*
X53974478Y-89871905D01*
X54033178Y-89918017D01*
X54087583Y-89981291D01*
X54134943Y-90060447D01*
X54136688Y-90064000D01*
X54159039Y-90114309D01*
X54175684Y-90164025D01*
X54187193Y-90217688D01*
X54194133Y-90279840D01*
X54197076Y-90355022D01*
X54196590Y-90447775D01*
X54194525Y-90525290D01*
X54187450Y-90744130D01*
X53670800Y-90509650D01*
X53676716Y-90262000D01*
X53679784Y-90162088D01*
X53684140Y-90083805D01*
X53690533Y-90023388D01*
X53699710Y-89977070D01*
X53712422Y-89941087D01*
X53729417Y-89911674D01*
X53751444Y-89885067D01*
X53751773Y-89884716D01*
X53800132Y-89849361D01*
X53855204Y-89836296D01*
X53914236Y-89844237D01*
G37*
X53914236Y-89844237D02*
X53974478Y-89871905D01*
X54033178Y-89918017D01*
X54087583Y-89981291D01*
X54134943Y-90060447D01*
X54136688Y-90064000D01*
X54159039Y-90114309D01*
X54175684Y-90164025D01*
X54187193Y-90217688D01*
X54194133Y-90279840D01*
X54197076Y-90355022D01*
X54196590Y-90447775D01*
X54194525Y-90525290D01*
X54187450Y-90744130D01*
X53670800Y-90509650D01*
X53676716Y-90262000D01*
X53679784Y-90162088D01*
X53684140Y-90083805D01*
X53690533Y-90023388D01*
X53699710Y-89977070D01*
X53712422Y-89941087D01*
X53729417Y-89911674D01*
X53751444Y-89885067D01*
X53751773Y-89884716D01*
X53800132Y-89849361D01*
X53855204Y-89836296D01*
X53914236Y-89844237D01*
X54314163Y-87321460D02*
X54344017Y-87337863D01*
X54344017Y-87337863D02*
X54389410Y-87362950D01*
X54389410Y-87362950D02*
X54447017Y-87394883D01*
X54447017Y-87394883D02*
X54513514Y-87431824D01*
X54513514Y-87431824D02*
X54529763Y-87440861D01*
X54529763Y-87440861D02*
X54754929Y-87566123D01*
X54754929Y-87566123D02*
X54753207Y-87780085D01*
X54753207Y-87780085D02*
X54752455Y-87850894D01*
X54752455Y-87850894D02*
X54751459Y-87912200D01*
X54751459Y-87912200D02*
X54750315Y-87959775D01*
X54750315Y-87959775D02*
X54749120Y-87989395D01*
X54749120Y-87989395D02*
X54748236Y-87997297D01*
X54748236Y-87997297D02*
X54736650Y-87992497D01*
X54736650Y-87992497D02*
X54706291Y-87977205D01*
X54706291Y-87977205D02*
X54660605Y-87953232D01*
X54660605Y-87953232D02*
X54603042Y-87922391D01*
X54603042Y-87922391D02*
X54537048Y-87886492D01*
X54537048Y-87886492D02*
X54529718Y-87882475D01*
X54529718Y-87882475D02*
X54314450Y-87764404D01*
X54314450Y-87764404D02*
X54308100Y-87539982D01*
X54308100Y-87539982D02*
X54306130Y-87467681D01*
X54306130Y-87467681D02*
X54304570Y-87405065D01*
X54304570Y-87405065D02*
X54303508Y-87356177D01*
X54303508Y-87356177D02*
X54303033Y-87325057D01*
X54303033Y-87325057D02*
X54303173Y-87315580D01*
X54303173Y-87315580D02*
X54314163Y-87321460D01*
X54314163Y-87321460D02*
X54314163Y-87321460D01*
G36*
X54314163Y-87321460D02*
G01*
X54344017Y-87337863D01*
X54389410Y-87362950D01*
X54447017Y-87394883D01*
X54513514Y-87431824D01*
X54529763Y-87440861D01*
X54754929Y-87566123D01*
X54753207Y-87780085D01*
X54752455Y-87850894D01*
X54751459Y-87912200D01*
X54750315Y-87959775D01*
X54749120Y-87989395D01*
X54748236Y-87997297D01*
X54736650Y-87992497D01*
X54706291Y-87977205D01*
X54660605Y-87953232D01*
X54603042Y-87922391D01*
X54537048Y-87886492D01*
X54529718Y-87882475D01*
X54314450Y-87764404D01*
X54308100Y-87539982D01*
X54306130Y-87467681D01*
X54304570Y-87405065D01*
X54303508Y-87356177D01*
X54303033Y-87325057D01*
X54303173Y-87315580D01*
X54314163Y-87321460D01*
G37*
X54314163Y-87321460D02*
X54344017Y-87337863D01*
X54389410Y-87362950D01*
X54447017Y-87394883D01*
X54513514Y-87431824D01*
X54529763Y-87440861D01*
X54754929Y-87566123D01*
X54753207Y-87780085D01*
X54752455Y-87850894D01*
X54751459Y-87912200D01*
X54750315Y-87959775D01*
X54749120Y-87989395D01*
X54748236Y-87997297D01*
X54736650Y-87992497D01*
X54706291Y-87977205D01*
X54660605Y-87953232D01*
X54603042Y-87922391D01*
X54537048Y-87886492D01*
X54529718Y-87882475D01*
X54314450Y-87764404D01*
X54308100Y-87539982D01*
X54306130Y-87467681D01*
X54304570Y-87405065D01*
X54303508Y-87356177D01*
X54303033Y-87325057D01*
X54303173Y-87315580D01*
X54314163Y-87321460D01*
X52996943Y-87231167D02*
X52997402Y-87355854D01*
X52997402Y-87355854D02*
X52997468Y-87472775D01*
X52997468Y-87472775D02*
X52997167Y-87579484D01*
X52997167Y-87579484D02*
X52996522Y-87673533D01*
X52996522Y-87673533D02*
X52995557Y-87752476D01*
X52995557Y-87752476D02*
X52994298Y-87813865D01*
X52994298Y-87813865D02*
X52992766Y-87855253D01*
X52992766Y-87855253D02*
X52990988Y-87874194D01*
X52990988Y-87874194D02*
X52990593Y-87875084D01*
X52990593Y-87875084D02*
X52978155Y-87882460D01*
X52978155Y-87882460D02*
X52945319Y-87901037D01*
X52945319Y-87901037D02*
X52893948Y-87929787D01*
X52893948Y-87929787D02*
X52825908Y-87967683D01*
X52825908Y-87967683D02*
X52743063Y-88013696D01*
X52743063Y-88013696D02*
X52647276Y-88066799D01*
X52647276Y-88066799D02*
X52540412Y-88125964D01*
X52540412Y-88125964D02*
X52424335Y-88190163D01*
X52424335Y-88190163D02*
X52300909Y-88258368D01*
X52300909Y-88258368D02*
X52171999Y-88329552D01*
X52171999Y-88329552D02*
X52039468Y-88402686D01*
X52039468Y-88402686D02*
X51905182Y-88476743D01*
X51905182Y-88476743D02*
X51771003Y-88550695D01*
X51771003Y-88550695D02*
X51638797Y-88623514D01*
X51638797Y-88623514D02*
X51510428Y-88694173D01*
X51510428Y-88694173D02*
X51387759Y-88761642D01*
X51387759Y-88761642D02*
X51272655Y-88824896D01*
X51272655Y-88824896D02*
X51166981Y-88882905D01*
X51166981Y-88882905D02*
X51072600Y-88934642D01*
X51072600Y-88934642D02*
X50991376Y-88979080D01*
X50991376Y-88979080D02*
X50925175Y-89015189D01*
X50925175Y-89015189D02*
X50875859Y-89041943D01*
X50875859Y-89041943D02*
X50845294Y-89058314D01*
X50845294Y-89058314D02*
X50835556Y-89063259D01*
X50835556Y-89063259D02*
X50830994Y-89063098D01*
X50830994Y-89063098D02*
X50827177Y-89057468D01*
X50827177Y-89057468D02*
X50824041Y-89044350D01*
X50824041Y-89044350D02*
X50821519Y-89021727D01*
X50821519Y-89021727D02*
X50819547Y-88987582D01*
X50819547Y-88987582D02*
X50818059Y-88939897D01*
X50818059Y-88939897D02*
X50816991Y-88876656D01*
X50816991Y-88876656D02*
X50816276Y-88795841D01*
X50816276Y-88795841D02*
X50815849Y-88695434D01*
X50815849Y-88695434D02*
X50815646Y-88573419D01*
X50815646Y-88573419D02*
X50815600Y-88446681D01*
X50815600Y-88446681D02*
X50815600Y-87822445D01*
X50815600Y-87822445D02*
X50844175Y-87794058D01*
X50844175Y-87794058D02*
X50865455Y-87777818D01*
X50865455Y-87777818D02*
X50903205Y-87753614D01*
X50903205Y-87753614D02*
X50952654Y-87724078D01*
X50952654Y-87724078D02*
X51009031Y-87691842D01*
X51009031Y-87691842D02*
X51067565Y-87659539D01*
X51067565Y-87659539D02*
X51123486Y-87629801D01*
X51123486Y-87629801D02*
X51172022Y-87605260D01*
X51172022Y-87605260D02*
X51208404Y-87588549D01*
X51208404Y-87588549D02*
X51227860Y-87582300D01*
X51227860Y-87582300D02*
X51227959Y-87582299D01*
X51227959Y-87582299D02*
X51235240Y-87585402D01*
X51235240Y-87585402D02*
X51240481Y-87596988D01*
X51240481Y-87596988D02*
X51244001Y-87620475D01*
X51244001Y-87620475D02*
X51246116Y-87659279D01*
X51246116Y-87659279D02*
X51247143Y-87716819D01*
X51247143Y-87716819D02*
X51247400Y-87791850D01*
X51247400Y-87791850D02*
X51247850Y-87861588D01*
X51247850Y-87861588D02*
X51249098Y-87921496D01*
X51249098Y-87921496D02*
X51250985Y-87967389D01*
X51250985Y-87967389D02*
X51253355Y-87995081D01*
X51253355Y-87995081D02*
X51255271Y-88001400D01*
X51255271Y-88001400D02*
X51268348Y-87995564D01*
X51268348Y-87995564D02*
X51300090Y-87979314D01*
X51300090Y-87979314D02*
X51346941Y-87954532D01*
X51346941Y-87954532D02*
X51405341Y-87923102D01*
X51405341Y-87923102D02*
X51471734Y-87886908D01*
X51471734Y-87886908D02*
X51477173Y-87883925D01*
X51477173Y-87883925D02*
X51691203Y-87766450D01*
X51691203Y-87766450D02*
X51691551Y-87556550D01*
X51691551Y-87556550D02*
X51692213Y-87472819D01*
X51692213Y-87472819D02*
X51694067Y-87410957D01*
X51694067Y-87410957D02*
X51697393Y-87367452D01*
X51697393Y-87367452D02*
X51702473Y-87338789D01*
X51702473Y-87338789D02*
X51709586Y-87321455D01*
X51709586Y-87321455D02*
X51710423Y-87320205D01*
X51710423Y-87320205D02*
X51728237Y-87304339D01*
X51728237Y-87304339D02*
X51763061Y-87280640D01*
X51763061Y-87280640D02*
X51810329Y-87251600D01*
X51810329Y-87251600D02*
X51865477Y-87219710D01*
X51865477Y-87219710D02*
X51923941Y-87187461D01*
X51923941Y-87187461D02*
X51981156Y-87157344D01*
X51981156Y-87157344D02*
X52032557Y-87131851D01*
X52032557Y-87131851D02*
X52073579Y-87113472D01*
X52073579Y-87113472D02*
X52099660Y-87104699D01*
X52099660Y-87104699D02*
X52105466Y-87104605D01*
X52105466Y-87104605D02*
X52112517Y-87111742D01*
X52112517Y-87111742D02*
X52117564Y-87129162D01*
X52117564Y-87129162D02*
X52120902Y-87160263D01*
X52120902Y-87160263D02*
X52122824Y-87208443D01*
X52122824Y-87208443D02*
X52123626Y-87277101D01*
X52123626Y-87277101D02*
X52123700Y-87315201D01*
X52123700Y-87315201D02*
X52124260Y-87383831D01*
X52124260Y-87383831D02*
X52125810Y-87442523D01*
X52125810Y-87442523D02*
X52128150Y-87487046D01*
X52128150Y-87487046D02*
X52131083Y-87513167D01*
X52131083Y-87513167D02*
X52133225Y-87518273D01*
X52133225Y-87518273D02*
X52146802Y-87512175D01*
X52146802Y-87512175D02*
X52178883Y-87495522D01*
X52178883Y-87495522D02*
X52225858Y-87470255D01*
X52225858Y-87470255D02*
X52284119Y-87438317D01*
X52284119Y-87438317D02*
X52350055Y-87401649D01*
X52350055Y-87401649D02*
X52352300Y-87400392D01*
X52352300Y-87400392D02*
X52561850Y-87283037D01*
X52561850Y-87283037D02*
X52568200Y-87064781D01*
X52568200Y-87064781D02*
X52571012Y-86981898D01*
X52571012Y-86981898D02*
X52574189Y-86920832D01*
X52574189Y-86920832D02*
X52578134Y-86877999D01*
X52578134Y-86877999D02*
X52583248Y-86849816D01*
X52583248Y-86849816D02*
X52589933Y-86832699D01*
X52589933Y-86832699D02*
X52594972Y-86826143D01*
X52594972Y-86826143D02*
X52612562Y-86813372D01*
X52612562Y-86813372D02*
X52648295Y-86790954D01*
X52648295Y-86790954D02*
X52698002Y-86761381D01*
X52698002Y-86761381D02*
X52757515Y-86727147D01*
X52757515Y-86727147D02*
X52804522Y-86700776D01*
X52804522Y-86700776D02*
X52993650Y-86595791D01*
X52993650Y-86595791D02*
X52996943Y-87231167D01*
X52996943Y-87231167D02*
X52996943Y-87231167D01*
G36*
X52996943Y-87231167D02*
G01*
X52997402Y-87355854D01*
X52997468Y-87472775D01*
X52997167Y-87579484D01*
X52996522Y-87673533D01*
X52995557Y-87752476D01*
X52994298Y-87813865D01*
X52992766Y-87855253D01*
X52990988Y-87874194D01*
X52990593Y-87875084D01*
X52978155Y-87882460D01*
X52945319Y-87901037D01*
X52893948Y-87929787D01*
X52825908Y-87967683D01*
X52743063Y-88013696D01*
X52647276Y-88066799D01*
X52540412Y-88125964D01*
X52424335Y-88190163D01*
X52300909Y-88258368D01*
X52171999Y-88329552D01*
X52039468Y-88402686D01*
X51905182Y-88476743D01*
X51771003Y-88550695D01*
X51638797Y-88623514D01*
X51510428Y-88694173D01*
X51387759Y-88761642D01*
X51272655Y-88824896D01*
X51166981Y-88882905D01*
X51072600Y-88934642D01*
X50991376Y-88979080D01*
X50925175Y-89015189D01*
X50875859Y-89041943D01*
X50845294Y-89058314D01*
X50835556Y-89063259D01*
X50830994Y-89063098D01*
X50827177Y-89057468D01*
X50824041Y-89044350D01*
X50821519Y-89021727D01*
X50819547Y-88987582D01*
X50818059Y-88939897D01*
X50816991Y-88876656D01*
X50816276Y-88795841D01*
X50815849Y-88695434D01*
X50815646Y-88573419D01*
X50815600Y-88446681D01*
X50815600Y-87822445D01*
X50844175Y-87794058D01*
X50865455Y-87777818D01*
X50903205Y-87753614D01*
X50952654Y-87724078D01*
X51009031Y-87691842D01*
X51067565Y-87659539D01*
X51123486Y-87629801D01*
X51172022Y-87605260D01*
X51208404Y-87588549D01*
X51227860Y-87582300D01*
X51227959Y-87582299D01*
X51235240Y-87585402D01*
X51240481Y-87596988D01*
X51244001Y-87620475D01*
X51246116Y-87659279D01*
X51247143Y-87716819D01*
X51247400Y-87791850D01*
X51247850Y-87861588D01*
X51249098Y-87921496D01*
X51250985Y-87967389D01*
X51253355Y-87995081D01*
X51255271Y-88001400D01*
X51268348Y-87995564D01*
X51300090Y-87979314D01*
X51346941Y-87954532D01*
X51405341Y-87923102D01*
X51471734Y-87886908D01*
X51477173Y-87883925D01*
X51691203Y-87766450D01*
X51691551Y-87556550D01*
X51692213Y-87472819D01*
X51694067Y-87410957D01*
X51697393Y-87367452D01*
X51702473Y-87338789D01*
X51709586Y-87321455D01*
X51710423Y-87320205D01*
X51728237Y-87304339D01*
X51763061Y-87280640D01*
X51810329Y-87251600D01*
X51865477Y-87219710D01*
X51923941Y-87187461D01*
X51981156Y-87157344D01*
X52032557Y-87131851D01*
X52073579Y-87113472D01*
X52099660Y-87104699D01*
X52105466Y-87104605D01*
X52112517Y-87111742D01*
X52117564Y-87129162D01*
X52120902Y-87160263D01*
X52122824Y-87208443D01*
X52123626Y-87277101D01*
X52123700Y-87315201D01*
X52124260Y-87383831D01*
X52125810Y-87442523D01*
X52128150Y-87487046D01*
X52131083Y-87513167D01*
X52133225Y-87518273D01*
X52146802Y-87512175D01*
X52178883Y-87495522D01*
X52225858Y-87470255D01*
X52284119Y-87438317D01*
X52350055Y-87401649D01*
X52352300Y-87400392D01*
X52561850Y-87283037D01*
X52568200Y-87064781D01*
X52571012Y-86981898D01*
X52574189Y-86920832D01*
X52578134Y-86877999D01*
X52583248Y-86849816D01*
X52589933Y-86832699D01*
X52594972Y-86826143D01*
X52612562Y-86813372D01*
X52648295Y-86790954D01*
X52698002Y-86761381D01*
X52757515Y-86727147D01*
X52804522Y-86700776D01*
X52993650Y-86595791D01*
X52996943Y-87231167D01*
G37*
X52996943Y-87231167D02*
X52997402Y-87355854D01*
X52997468Y-87472775D01*
X52997167Y-87579484D01*
X52996522Y-87673533D01*
X52995557Y-87752476D01*
X52994298Y-87813865D01*
X52992766Y-87855253D01*
X52990988Y-87874194D01*
X52990593Y-87875084D01*
X52978155Y-87882460D01*
X52945319Y-87901037D01*
X52893948Y-87929787D01*
X52825908Y-87967683D01*
X52743063Y-88013696D01*
X52647276Y-88066799D01*
X52540412Y-88125964D01*
X52424335Y-88190163D01*
X52300909Y-88258368D01*
X52171999Y-88329552D01*
X52039468Y-88402686D01*
X51905182Y-88476743D01*
X51771003Y-88550695D01*
X51638797Y-88623514D01*
X51510428Y-88694173D01*
X51387759Y-88761642D01*
X51272655Y-88824896D01*
X51166981Y-88882905D01*
X51072600Y-88934642D01*
X50991376Y-88979080D01*
X50925175Y-89015189D01*
X50875859Y-89041943D01*
X50845294Y-89058314D01*
X50835556Y-89063259D01*
X50830994Y-89063098D01*
X50827177Y-89057468D01*
X50824041Y-89044350D01*
X50821519Y-89021727D01*
X50819547Y-88987582D01*
X50818059Y-88939897D01*
X50816991Y-88876656D01*
X50816276Y-88795841D01*
X50815849Y-88695434D01*
X50815646Y-88573419D01*
X50815600Y-88446681D01*
X50815600Y-87822445D01*
X50844175Y-87794058D01*
X50865455Y-87777818D01*
X50903205Y-87753614D01*
X50952654Y-87724078D01*
X51009031Y-87691842D01*
X51067565Y-87659539D01*
X51123486Y-87629801D01*
X51172022Y-87605260D01*
X51208404Y-87588549D01*
X51227860Y-87582300D01*
X51227959Y-87582299D01*
X51235240Y-87585402D01*
X51240481Y-87596988D01*
X51244001Y-87620475D01*
X51246116Y-87659279D01*
X51247143Y-87716819D01*
X51247400Y-87791850D01*
X51247850Y-87861588D01*
X51249098Y-87921496D01*
X51250985Y-87967389D01*
X51253355Y-87995081D01*
X51255271Y-88001400D01*
X51268348Y-87995564D01*
X51300090Y-87979314D01*
X51346941Y-87954532D01*
X51405341Y-87923102D01*
X51471734Y-87886908D01*
X51477173Y-87883925D01*
X51691203Y-87766450D01*
X51691551Y-87556550D01*
X51692213Y-87472819D01*
X51694067Y-87410957D01*
X51697393Y-87367452D01*
X51702473Y-87338789D01*
X51709586Y-87321455D01*
X51710423Y-87320205D01*
X51728237Y-87304339D01*
X51763061Y-87280640D01*
X51810329Y-87251600D01*
X51865477Y-87219710D01*
X51923941Y-87187461D01*
X51981156Y-87157344D01*
X52032557Y-87131851D01*
X52073579Y-87113472D01*
X52099660Y-87104699D01*
X52105466Y-87104605D01*
X52112517Y-87111742D01*
X52117564Y-87129162D01*
X52120902Y-87160263D01*
X52122824Y-87208443D01*
X52123626Y-87277101D01*
X52123700Y-87315201D01*
X52124260Y-87383831D01*
X52125810Y-87442523D01*
X52128150Y-87487046D01*
X52131083Y-87513167D01*
X52133225Y-87518273D01*
X52146802Y-87512175D01*
X52178883Y-87495522D01*
X52225858Y-87470255D01*
X52284119Y-87438317D01*
X52350055Y-87401649D01*
X52352300Y-87400392D01*
X52561850Y-87283037D01*
X52568200Y-87064781D01*
X52571012Y-86981898D01*
X52574189Y-86920832D01*
X52578134Y-86877999D01*
X52583248Y-86849816D01*
X52589933Y-86832699D01*
X52594972Y-86826143D01*
X52612562Y-86813372D01*
X52648295Y-86790954D01*
X52698002Y-86761381D01*
X52757515Y-86727147D01*
X52804522Y-86700776D01*
X52993650Y-86595791D01*
X52996943Y-87231167D01*
D13*
X55000000Y-121850000D02*
X55000000Y-118550000D01*
X52200000Y-121850000D02*
X55000000Y-121850000D01*
X58420000Y-101230000D02*
X55820000Y-101230000D01*
X57150000Y-103830000D02*
X55820000Y-103830000D01*
X55820000Y-98630000D02*
X68640000Y-98630000D01*
X55820000Y-101230000D02*
X55820000Y-98630000D01*
X58420000Y-103830000D02*
X58420000Y-101230000D01*
X58420000Y-103830000D02*
X68640000Y-103830000D01*
X55820000Y-103830000D02*
X55820000Y-102500000D01*
X68640000Y-103830000D02*
X68640000Y-98630000D01*
X59690000Y-129110000D02*
X59140000Y-129110000D01*
X59140000Y-129110000D02*
X59140000Y-128560000D01*
X64810000Y-122890000D02*
X65360000Y-122890000D01*
X64810000Y-129110000D02*
X65360000Y-129110000D01*
X65360000Y-129110000D02*
X65360000Y-128560000D01*
X65360000Y-122890000D02*
X65360000Y-123440000D01*
X59690000Y-122890000D02*
X59140000Y-122890000D01*
X55530000Y-115670000D02*
X55530000Y-115730000D01*
X52870000Y-114400000D02*
X52870000Y-113070000D01*
X52870000Y-113070000D02*
X54200000Y-113070000D01*
X52870000Y-115670000D02*
X52870000Y-115730000D01*
X52870000Y-115670000D02*
X55530000Y-115670000D01*
X52870000Y-115730000D02*
X55530000Y-115730000D01*
X51710000Y-120340580D02*
X51710000Y-120059420D01*
X50690000Y-120340580D02*
X50690000Y-120059420D01*
X55340580Y-124110000D02*
X55059420Y-124110000D01*
X55340580Y-123090000D02*
X55059420Y-123090000D01*
X55490000Y-120340580D02*
X55490000Y-120059420D01*
X56510000Y-120340580D02*
X56510000Y-120059420D01*
M02*
