G04 #@! TF.GenerationSoftware,KiCad,Pcbnew,5.99.0-unknown-3100cd3599~128~ubuntu20.04.1*
G04 #@! TF.CreationDate,2021-06-01T14:38:41+02:00*
G04 #@! TF.ProjectId,esp32,65737033-322e-46b6-9963-61645f706362,rev?*
G04 #@! TF.SameCoordinates,Original*
G04 #@! TF.FileFunction,Paste,Bot*
G04 #@! TF.FilePolarity,Positive*
%FSLAX46Y46*%
G04 Gerber Fmt 4.6, Leading zero omitted, Abs format (unit mm)*
G04 Created by KiCad (PCBNEW 5.99.0-unknown-3100cd3599~128~ubuntu20.04.1) date 2021-06-01 14:38:41*
%MOMM*%
%LPD*%
G01*
G04 APERTURE LIST*
G04 Aperture macros list*
%AMRoundRect*
0 Rectangle with rounded corners*
0 $1 Rounding radius*
0 $2 $3 $4 $5 $6 $7 $8 $9 X,Y pos of 4 corners*
0 Add a 4 corners polygon primitive as box body*
4,1,4,$2,$3,$4,$5,$6,$7,$8,$9,$2,$3,0*
0 Add four circle primitives for the rounded corners*
1,1,$1+$1,$2,$3*
1,1,$1+$1,$4,$5*
1,1,$1+$1,$6,$7*
1,1,$1+$1,$8,$9*
0 Add four rect primitives between the rounded corners*
20,1,$1+$1,$2,$3,$4,$5,0*
20,1,$1+$1,$4,$5,$6,$7,0*
20,1,$1+$1,$6,$7,$8,$9,0*
20,1,$1+$1,$8,$9,$2,$3,0*%
G04 Aperture macros list end*
%ADD10RoundRect,0.250000X-0.330000X-0.330000X0.330000X-0.330000X0.330000X0.330000X-0.330000X0.330000X0*%
%ADD11RoundRect,0.050000X-0.350000X-0.050000X0.350000X-0.050000X0.350000X0.050000X-0.350000X0.050000X0*%
%ADD12RoundRect,0.050000X-0.050000X-0.350000X0.050000X-0.350000X0.050000X0.350000X-0.050000X0.350000X0*%
G04 APERTURE END LIST*
D10*
X60820000Y-112820000D03*
X62250000Y-112820000D03*
X63680000Y-112820000D03*
X60820000Y-115680000D03*
X62250000Y-115680000D03*
X63680000Y-114250000D03*
X63680000Y-115680000D03*
X62250000Y-114250000D03*
X60820000Y-114250000D03*
D11*
X59300000Y-116450000D03*
X59300000Y-116050000D03*
X59300000Y-115650000D03*
X59300000Y-115250000D03*
X59300000Y-114850000D03*
X59300000Y-114450000D03*
X59300000Y-114050000D03*
X59300000Y-113650000D03*
X59300000Y-113250000D03*
X59300000Y-112850000D03*
X59300000Y-112450000D03*
X59300000Y-112050000D03*
D12*
X60050000Y-111300000D03*
X60450000Y-111300000D03*
X60850000Y-111300000D03*
X61250000Y-111300000D03*
X61650000Y-111300000D03*
X62050000Y-111300000D03*
X62450000Y-111300000D03*
X62850000Y-111300000D03*
X63250000Y-111300000D03*
X63650000Y-111300000D03*
X64050000Y-111300000D03*
X64450000Y-111300000D03*
D11*
X65200000Y-112050000D03*
X65200000Y-112450000D03*
X65200000Y-112850000D03*
X65200000Y-113250000D03*
X65200000Y-113650000D03*
X65200000Y-114050000D03*
X65200000Y-114450000D03*
X65200000Y-114850000D03*
X65200000Y-115250000D03*
X65200000Y-115650000D03*
X65200000Y-116050000D03*
X65200000Y-116450000D03*
D12*
X64450000Y-117200000D03*
X64050000Y-117200000D03*
X63650000Y-117200000D03*
X63250000Y-117200000D03*
X62850000Y-117200000D03*
X62450000Y-117200000D03*
X62050000Y-117200000D03*
X61650000Y-117200000D03*
X61250000Y-117200000D03*
X60850000Y-117200000D03*
X60450000Y-117200000D03*
X60050000Y-117200000D03*
M02*
