G04 #@! TF.GenerationSoftware,KiCad,Pcbnew,5.99.0-unknown-3100cd3599~128~ubuntu20.04.1*
G04 #@! TF.CreationDate,2021-06-01T14:38:41+02:00*
G04 #@! TF.ProjectId,esp32,65737033-322e-46b6-9963-61645f706362,rev?*
G04 #@! TF.SameCoordinates,Original*
G04 #@! TF.FileFunction,Soldermask,Top*
G04 #@! TF.FilePolarity,Negative*
%FSLAX46Y46*%
G04 Gerber Fmt 4.6, Leading zero omitted, Abs format (unit mm)*
G04 Created by KiCad (PCBNEW 5.99.0-unknown-3100cd3599~128~ubuntu20.04.1) date 2021-06-01 14:38:41*
%MOMM*%
%LPD*%
G01*
G04 APERTURE LIST*
G04 Aperture macros list*
%AMRoundRect*
0 Rectangle with rounded corners*
0 $1 Rounding radius*
0 $2 $3 $4 $5 $6 $7 $8 $9 X,Y pos of 4 corners*
0 Add a 4 corners polygon primitive as box body*
4,1,4,$2,$3,$4,$5,$6,$7,$8,$9,$2,$3,0*
0 Add four circle primitives for the rounded corners*
1,1,$1+$1,$2,$3*
1,1,$1+$1,$4,$5*
1,1,$1+$1,$6,$7*
1,1,$1+$1,$8,$9*
0 Add four rect primitives between the rounded corners*
20,1,$1+$1,$2,$3,$4,$5,0*
20,1,$1+$1,$4,$5,$6,$7,0*
20,1,$1+$1,$6,$7,$8,$9,0*
20,1,$1+$1,$8,$9,$2,$3,0*%
G04 Aperture macros list end*
%ADD10RoundRect,0.150000X-0.150000X0.650000X-0.150000X-0.650000X0.150000X-0.650000X0.150000X0.650000X0*%
%ADD11R,2.000000X2.000000*%
%ADD12R,1.000000X1.150000*%
%ADD13R,1.700000X1.700000*%
%ADD14O,1.700000X1.700000*%
%ADD15RoundRect,0.050000X-0.350000X-0.050000X0.350000X-0.050000X0.350000X0.050000X-0.350000X0.050000X0*%
%ADD16RoundRect,0.050000X-0.050000X-0.350000X0.050000X-0.350000X0.050000X0.350000X-0.050000X0.350000X0*%
%ADD17R,4.300000X4.300000*%
%ADD18RoundRect,0.225000X0.250000X-0.225000X0.250000X0.225000X-0.250000X0.225000X-0.250000X-0.225000X0*%
%ADD19RoundRect,0.225000X0.225000X0.250000X-0.225000X0.250000X-0.225000X-0.250000X0.225000X-0.250000X0*%
G04 APERTURE END LIST*
D10*
X75405000Y-111000000D03*
X74135000Y-111000000D03*
X72865000Y-111000000D03*
X71595000Y-111000000D03*
X71595000Y-118200000D03*
X72865000Y-118200000D03*
X74135000Y-118200000D03*
X75405000Y-118200000D03*
D11*
X76200000Y-83820000D03*
X60960000Y-86360000D03*
X73660000Y-83820000D03*
X66040000Y-96520000D03*
X63500000Y-86360000D03*
X71120000Y-83820000D03*
X60960000Y-96520000D03*
X68580000Y-96520000D03*
X66040000Y-86360000D03*
X68580000Y-83820000D03*
X63500000Y-96520000D03*
X71120000Y-96520000D03*
X68580000Y-93980000D03*
X68580000Y-86360000D03*
X66040000Y-83820000D03*
X76200000Y-96520000D03*
X73660000Y-96520000D03*
X71120000Y-93980000D03*
X71120000Y-86360000D03*
X63500000Y-83820000D03*
X60960000Y-93980000D03*
X66040000Y-93980000D03*
X60960000Y-91440000D03*
X73660000Y-86360000D03*
X60960000Y-83820000D03*
X63500000Y-93980000D03*
X73660000Y-93980000D03*
X66040000Y-91440000D03*
X76200000Y-86360000D03*
X60960000Y-88900000D03*
X71120000Y-91440000D03*
X76200000Y-93980000D03*
X68580000Y-91440000D03*
X68580000Y-88900000D03*
X63500000Y-88900000D03*
X73660000Y-91440000D03*
X63500000Y-91440000D03*
X73660000Y-88900000D03*
X66040000Y-88900000D03*
X76200000Y-91440000D03*
X76200000Y-88900000D03*
X71120000Y-88900000D03*
D12*
X54300000Y-121075000D03*
X54300000Y-119325000D03*
X52900000Y-119325000D03*
X52900000Y-121075000D03*
D13*
X57150000Y-102500000D03*
D14*
X57150000Y-99960000D03*
X59690000Y-102500000D03*
X59690000Y-99960000D03*
X62230000Y-102500000D03*
X62230000Y-99960000D03*
X64770000Y-102500000D03*
X64770000Y-99960000D03*
X67310000Y-102500000D03*
X67310000Y-99960000D03*
D15*
X59300000Y-123800000D03*
X59300000Y-124200000D03*
X59300000Y-124600000D03*
X59300000Y-125000000D03*
X59300000Y-125400000D03*
X59300000Y-125800000D03*
X59300000Y-126200000D03*
X59300000Y-126600000D03*
X59300000Y-127000000D03*
X59300000Y-127400000D03*
X59300000Y-127800000D03*
X59300000Y-128200000D03*
D16*
X60050000Y-128950000D03*
X60450000Y-128950000D03*
X60850000Y-128950000D03*
X61250000Y-128950000D03*
X61650000Y-128950000D03*
X62050000Y-128950000D03*
X62450000Y-128950000D03*
X62850000Y-128950000D03*
X63250000Y-128950000D03*
X63650000Y-128950000D03*
X64050000Y-128950000D03*
X64450000Y-128950000D03*
D15*
X65200000Y-128200000D03*
X65200000Y-127800000D03*
X65200000Y-127400000D03*
X65200000Y-127000000D03*
X65200000Y-126600000D03*
X65200000Y-126200000D03*
X65200000Y-125800000D03*
X65200000Y-125400000D03*
X65200000Y-125000000D03*
X65200000Y-124600000D03*
X65200000Y-124200000D03*
X65200000Y-123800000D03*
D16*
X64450000Y-123050000D03*
X64050000Y-123050000D03*
X63650000Y-123050000D03*
X63250000Y-123050000D03*
X62850000Y-123050000D03*
X62450000Y-123050000D03*
X62050000Y-123050000D03*
X61650000Y-123050000D03*
X61250000Y-123050000D03*
X60850000Y-123050000D03*
X60450000Y-123050000D03*
X60050000Y-123050000D03*
D17*
X62250000Y-126000000D03*
D13*
X54200000Y-114400000D03*
D18*
X51200000Y-120975000D03*
X51200000Y-119425000D03*
D19*
X55975000Y-123600000D03*
X54425000Y-123600000D03*
D18*
X56000000Y-120975000D03*
X56000000Y-119425000D03*
D13*
X50800000Y-76200000D03*
D14*
X50800000Y-73660000D03*
X53340000Y-76200000D03*
X53340000Y-73660000D03*
X55880000Y-76200000D03*
X55880000Y-73660000D03*
X58420000Y-76200000D03*
X58420000Y-73660000D03*
X60960000Y-76200000D03*
X60960000Y-73660000D03*
X63500000Y-76200000D03*
X63500000Y-73660000D03*
X66040000Y-76200000D03*
X66040000Y-73660000D03*
X68580000Y-76200000D03*
X68580000Y-73660000D03*
X71120000Y-76200000D03*
X71120000Y-73660000D03*
X73660000Y-76200000D03*
X73660000Y-73660000D03*
D13*
X50800000Y-154940000D03*
D14*
X50800000Y-152400000D03*
X53340000Y-154940000D03*
X53340000Y-152400000D03*
X55880000Y-154940000D03*
X55880000Y-152400000D03*
X58420000Y-154940000D03*
X58420000Y-152400000D03*
X60960000Y-154940000D03*
X60960000Y-152400000D03*
X63500000Y-154940000D03*
X63500000Y-152400000D03*
X66040000Y-154940000D03*
X66040000Y-152400000D03*
X68580000Y-154940000D03*
X68580000Y-152400000D03*
X71120000Y-154940000D03*
X71120000Y-152400000D03*
X73660000Y-154940000D03*
X73660000Y-152400000D03*
M02*
