M48
; DRILL file {KiCad 5.99.0-unknown-3100cd3599~128~ubuntu20.04.1} date Tue Jun  1 14:38:43 2021
; FORMAT={-:-/ absolute / inch / decimal}
; #@! TF.CreationDate,2021-06-01T14:38:43+02:00
; #@! TF.GenerationSoftware,Kicad,Pcbnew,5.99.0-unknown-3100cd3599~128~ubuntu20.04.1
; #@! TF.FileFunction,Plated,1,2,PTH
FMAT,2
INCH
; #@! TA.AperFunction,Plated,PTH,ViaDrill
T1C0.0157
; #@! TA.AperFunction,Plated,PTH,ComponentDrill
T2C0.0394
%
G90
G05
T1
X2.2047Y-4.622
X2.2205Y-4.937
X2.252Y-4.5197
X2.2835Y-4.5827
X2.2835Y-4.874
X2.2835Y-4.9213
X2.2913Y-5.0
X2.315Y-4.7795
X2.3622Y-4.7795
X2.3622Y-5.7874
X2.3937Y-4.748
X2.4252Y-4.7165
X2.4488Y-4.9606
X2.4488Y-5.1654
X2.4646Y-4.7795
X2.4803Y-4.7244
X2.5098Y-4.6929
X2.525Y-5.215
X2.53Y-5.13
X2.5433Y-4.6693
X2.5709Y-5.1122
X2.5709Y-5.2146
X2.5827Y-4.6929
X2.6142Y-4.4016
X2.6142Y-4.5512
X2.6142Y-4.7244
X2.6175Y-4.4468
X2.6457Y-4.7559
X2.65Y-4.33
X2.65Y-4.37
X2.6535Y-4.4626
X2.6535Y-4.5354
X2.6772Y-4.7874
X2.6929Y-4.4803
X2.6929Y-4.5197
X2.7087Y-4.8189
X2.7402Y-4.8504
X2.7874Y-4.685
X2.8189Y-4.311
X2.8701Y-4.4646
X2.8701Y-4.5433
X2.8976Y-5.4173
X2.9173Y-4.4646
X2.9409Y-4.4961
X2.9683Y-4.547
X3.0413Y-4.6555
T2
X2.0Y-2.9
X2.0Y-3.0
X2.0Y-6.0
X2.0Y-6.1
X2.1Y-2.9
X2.1Y-3.0
X2.1Y-6.0
X2.1Y-6.1
X2.1339Y-4.5039
X2.2Y-2.9
X2.2Y-3.0
X2.2Y-6.0
X2.2Y-6.1
X2.25Y-3.9354
X2.25Y-4.0354
X2.3Y-2.9
X2.3Y-3.0
X2.3Y-6.0
X2.3Y-6.1
X2.35Y-3.9354
X2.35Y-4.0354
X2.4Y-2.9
X2.4Y-3.0
X2.4Y-3.3
X2.4Y-3.4
X2.4Y-3.5
X2.4Y-3.6
X2.4Y-3.7
X2.4Y-3.8
X2.4Y-6.0
X2.4Y-6.1
X2.45Y-3.9354
X2.45Y-4.0354
X2.5Y-2.9
X2.5Y-3.0
X2.5Y-3.3
X2.5Y-3.4
X2.5Y-3.5
X2.5Y-3.6
X2.5Y-3.7
X2.5Y-3.8
X2.5Y-6.0
X2.5Y-6.1
X2.55Y-3.9354
X2.55Y-4.0354
X2.6Y-2.9
X2.6Y-3.0
X2.6Y-3.3
X2.6Y-3.4
X2.6Y-3.5
X2.6Y-3.6
X2.6Y-3.7
X2.6Y-3.8
X2.6Y-6.0
X2.6Y-6.1
X2.65Y-3.9354
X2.65Y-4.0354
X2.7Y-2.9
X2.7Y-3.0
X2.7Y-3.3
X2.7Y-3.4
X2.7Y-3.5
X2.7Y-3.6
X2.7Y-3.7
X2.7Y-3.8
X2.7Y-6.0
X2.7Y-6.1
X2.8Y-2.9
X2.8Y-3.0
X2.8Y-3.3
X2.8Y-3.4
X2.8Y-3.5
X2.8Y-3.6
X2.8Y-3.7
X2.8Y-3.8
X2.8Y-6.0
X2.8Y-6.1
X2.9Y-2.9
X2.9Y-3.0
X2.9Y-3.3
X2.9Y-3.4
X2.9Y-3.5
X2.9Y-3.6
X2.9Y-3.7
X2.9Y-3.8
X2.9Y-6.0
X2.9Y-6.1
X3.0Y-3.3
X3.0Y-3.4
X3.0Y-3.5
X3.0Y-3.6
X3.0Y-3.7
X3.0Y-3.8
T0
M30
