G04 #@! TF.GenerationSoftware,KiCad,Pcbnew,5.99.0-unknown-3100cd3599~128~ubuntu20.04.1*
G04 #@! TF.CreationDate,2021-06-01T14:38:40+02:00*
G04 #@! TF.ProjectId,esp32,65737033-322e-46b6-9963-61645f706362,rev?*
G04 #@! TF.SameCoordinates,Original*
G04 #@! TF.FileFunction,Copper,L1,Top*
G04 #@! TF.FilePolarity,Positive*
%FSLAX46Y46*%
G04 Gerber Fmt 4.6, Leading zero omitted, Abs format (unit mm)*
G04 Created by KiCad (PCBNEW 5.99.0-unknown-3100cd3599~128~ubuntu20.04.1) date 2021-06-01 14:38:40*
%MOMM*%
%LPD*%
G01*
G04 APERTURE LIST*
G04 Aperture macros list*
%AMRoundRect*
0 Rectangle with rounded corners*
0 $1 Rounding radius*
0 $2 $3 $4 $5 $6 $7 $8 $9 X,Y pos of 4 corners*
0 Add a 4 corners polygon primitive as box body*
4,1,4,$2,$3,$4,$5,$6,$7,$8,$9,$2,$3,0*
0 Add four circle primitives for the rounded corners*
1,1,$1+$1,$2,$3*
1,1,$1+$1,$4,$5*
1,1,$1+$1,$6,$7*
1,1,$1+$1,$8,$9*
0 Add four rect primitives between the rounded corners*
20,1,$1+$1,$2,$3,$4,$5,0*
20,1,$1+$1,$4,$5,$6,$7,0*
20,1,$1+$1,$6,$7,$8,$9,0*
20,1,$1+$1,$8,$9,$2,$3,0*%
G04 Aperture macros list end*
G04 #@! TA.AperFunction,SMDPad,CuDef*
%ADD10RoundRect,0.150000X-0.150000X0.650000X-0.150000X-0.650000X0.150000X-0.650000X0.150000X0.650000X0*%
G04 #@! TD*
G04 #@! TA.AperFunction,ComponentPad*
%ADD11R,2.000000X2.000000*%
G04 #@! TD*
G04 #@! TA.AperFunction,SMDPad,CuDef*
%ADD12R,1.000000X1.150000*%
G04 #@! TD*
G04 #@! TA.AperFunction,ComponentPad*
%ADD13R,1.700000X1.700000*%
G04 #@! TD*
G04 #@! TA.AperFunction,ComponentPad*
%ADD14O,1.700000X1.700000*%
G04 #@! TD*
G04 #@! TA.AperFunction,SMDPad,CuDef*
%ADD15RoundRect,0.050000X-0.350000X-0.050000X0.350000X-0.050000X0.350000X0.050000X-0.350000X0.050000X0*%
G04 #@! TD*
G04 #@! TA.AperFunction,SMDPad,CuDef*
%ADD16RoundRect,0.050000X-0.050000X-0.350000X0.050000X-0.350000X0.050000X0.350000X-0.050000X0.350000X0*%
G04 #@! TD*
G04 #@! TA.AperFunction,SMDPad,CuDef*
%ADD17R,4.300000X4.300000*%
G04 #@! TD*
G04 #@! TA.AperFunction,SMDPad,CuDef*
%ADD18RoundRect,0.225000X0.250000X-0.225000X0.250000X0.225000X-0.250000X0.225000X-0.250000X-0.225000X0*%
G04 #@! TD*
G04 #@! TA.AperFunction,SMDPad,CuDef*
%ADD19RoundRect,0.225000X0.225000X0.250000X-0.225000X0.250000X-0.225000X-0.250000X0.225000X-0.250000X0*%
G04 #@! TD*
G04 #@! TA.AperFunction,ViaPad*
%ADD20C,0.800000*%
G04 #@! TD*
G04 #@! TA.AperFunction,Conductor*
%ADD21C,0.200000*%
G04 #@! TD*
G04 #@! TA.AperFunction,Conductor*
%ADD22C,0.500000*%
G04 #@! TD*
G04 #@! TA.AperFunction,Conductor*
%ADD23C,0.250000*%
G04 #@! TD*
G04 APERTURE END LIST*
D10*
X75405000Y-111000000D03*
X74135000Y-111000000D03*
X72865000Y-111000000D03*
X71595000Y-111000000D03*
X71595000Y-118200000D03*
X72865000Y-118200000D03*
X74135000Y-118200000D03*
X75405000Y-118200000D03*
D11*
X76200000Y-83820000D03*
X60960000Y-86360000D03*
X73660000Y-83820000D03*
X66040000Y-96520000D03*
X63500000Y-86360000D03*
X71120000Y-83820000D03*
X60960000Y-96520000D03*
X68580000Y-96520000D03*
X66040000Y-86360000D03*
X68580000Y-83820000D03*
X63500000Y-96520000D03*
X71120000Y-96520000D03*
X68580000Y-93980000D03*
X68580000Y-86360000D03*
X66040000Y-83820000D03*
X76200000Y-96520000D03*
X73660000Y-96520000D03*
X71120000Y-93980000D03*
X71120000Y-86360000D03*
X63500000Y-83820000D03*
X60960000Y-93980000D03*
X66040000Y-93980000D03*
X60960000Y-91440000D03*
X73660000Y-86360000D03*
X60960000Y-83820000D03*
X63500000Y-93980000D03*
X73660000Y-93980000D03*
X66040000Y-91440000D03*
X76200000Y-86360000D03*
X60960000Y-88900000D03*
X71120000Y-91440000D03*
X76200000Y-93980000D03*
X68580000Y-91440000D03*
X68580000Y-88900000D03*
X63500000Y-88900000D03*
X73660000Y-91440000D03*
X63500000Y-91440000D03*
X73660000Y-88900000D03*
X66040000Y-88900000D03*
X76200000Y-91440000D03*
X76200000Y-88900000D03*
X71120000Y-88900000D03*
D12*
X54300000Y-121075000D03*
X54300000Y-119325000D03*
X52900000Y-119325000D03*
X52900000Y-121075000D03*
D13*
X57150000Y-102500000D03*
D14*
X57150000Y-99960000D03*
X59690000Y-102500000D03*
X59690000Y-99960000D03*
X62230000Y-102500000D03*
X62230000Y-99960000D03*
X64770000Y-102500000D03*
X64770000Y-99960000D03*
X67310000Y-102500000D03*
X67310000Y-99960000D03*
D15*
X59300000Y-123800000D03*
X59300000Y-124200000D03*
X59300000Y-124600000D03*
X59300000Y-125000000D03*
X59300000Y-125400000D03*
X59300000Y-125800000D03*
X59300000Y-126200000D03*
X59300000Y-126600000D03*
X59300000Y-127000000D03*
X59300000Y-127400000D03*
X59300000Y-127800000D03*
X59300000Y-128200000D03*
D16*
X60050000Y-128950000D03*
X60450000Y-128950000D03*
X60850000Y-128950000D03*
X61250000Y-128950000D03*
X61650000Y-128950000D03*
X62050000Y-128950000D03*
X62450000Y-128950000D03*
X62850000Y-128950000D03*
X63250000Y-128950000D03*
X63650000Y-128950000D03*
X64050000Y-128950000D03*
X64450000Y-128950000D03*
D15*
X65200000Y-128200000D03*
X65200000Y-127800000D03*
X65200000Y-127400000D03*
X65200000Y-127000000D03*
X65200000Y-126600000D03*
X65200000Y-126200000D03*
X65200000Y-125800000D03*
X65200000Y-125400000D03*
X65200000Y-125000000D03*
X65200000Y-124600000D03*
X65200000Y-124200000D03*
X65200000Y-123800000D03*
D16*
X64450000Y-123050000D03*
X64050000Y-123050000D03*
X63650000Y-123050000D03*
X63250000Y-123050000D03*
X62850000Y-123050000D03*
X62450000Y-123050000D03*
X62050000Y-123050000D03*
X61650000Y-123050000D03*
X61250000Y-123050000D03*
X60850000Y-123050000D03*
X60450000Y-123050000D03*
X60050000Y-123050000D03*
D17*
X62250000Y-126000000D03*
D13*
X54200000Y-114400000D03*
D18*
X51200000Y-120975000D03*
X51200000Y-119425000D03*
D19*
X55975000Y-123600000D03*
X54425000Y-123600000D03*
D18*
X56000000Y-120975000D03*
X56000000Y-119425000D03*
D13*
X50800000Y-76200000D03*
D14*
X50800000Y-73660000D03*
X53340000Y-76200000D03*
X53340000Y-73660000D03*
X55880000Y-76200000D03*
X55880000Y-73660000D03*
X58420000Y-76200000D03*
X58420000Y-73660000D03*
X60960000Y-76200000D03*
X60960000Y-73660000D03*
X63500000Y-76200000D03*
X63500000Y-73660000D03*
X66040000Y-76200000D03*
X66040000Y-73660000D03*
X68580000Y-76200000D03*
X68580000Y-73660000D03*
X71120000Y-76200000D03*
X71120000Y-73660000D03*
X73660000Y-76200000D03*
X73660000Y-73660000D03*
D13*
X50800000Y-154940000D03*
D14*
X50800000Y-152400000D03*
X53340000Y-154940000D03*
X53340000Y-152400000D03*
X55880000Y-154940000D03*
X55880000Y-152400000D03*
X58420000Y-154940000D03*
X58420000Y-152400000D03*
X60960000Y-154940000D03*
X60960000Y-152400000D03*
X63500000Y-154940000D03*
X63500000Y-152400000D03*
X66040000Y-154940000D03*
X66040000Y-152400000D03*
X68580000Y-154940000D03*
X68580000Y-152400000D03*
X71120000Y-154940000D03*
X71120000Y-152400000D03*
X73660000Y-154940000D03*
X73660000Y-152400000D03*
D20*
X77250000Y-118250000D03*
X60000000Y-147000000D03*
X69600000Y-123200000D03*
X68800000Y-122400000D03*
X68000000Y-121600000D03*
X67200000Y-120800000D03*
X66400000Y-120000000D03*
X65600000Y-119200000D03*
X62200000Y-126000000D03*
X62200000Y-131200000D03*
X73600000Y-137600000D03*
X63000000Y-120000000D03*
X63750000Y-119200000D03*
X58200000Y-127000000D03*
X58800000Y-121400000D03*
X61599999Y-119800000D03*
X67310000Y-110998000D03*
X65300000Y-129850000D03*
X65300000Y-132450000D03*
X64262000Y-130302000D03*
X67310000Y-109982000D03*
X64135000Y-132461000D03*
X71600000Y-109500000D03*
X58000000Y-116400000D03*
X60000000Y-121400000D03*
X58000000Y-123800000D03*
X62600000Y-121400000D03*
X56400000Y-125400000D03*
X56000000Y-117400000D03*
X64600000Y-118600000D03*
X66400000Y-111800000D03*
X60800000Y-120600000D03*
X66400000Y-115600000D03*
X70800000Y-119000000D03*
X67400000Y-115200000D03*
X74100000Y-113400000D03*
X68400000Y-114800000D03*
X72900000Y-115400000D03*
X74700000Y-114200000D03*
X68400000Y-113800000D03*
X72900000Y-113400000D03*
X67400000Y-113350000D03*
X66483841Y-112949181D03*
X75394975Y-115494975D03*
X58000000Y-125000000D03*
X57200000Y-114800000D03*
D21*
X71600000Y-109500000D02*
X71600000Y-110995000D01*
X71600000Y-110995000D02*
X71595000Y-111000000D01*
X75405000Y-112195000D02*
X75405000Y-113495000D01*
X75405000Y-111975000D02*
X75405000Y-112195000D01*
X75405000Y-112195000D02*
X75405000Y-111000000D01*
X74135000Y-111975000D02*
X74135000Y-111000000D01*
X74100000Y-113400000D02*
X74135000Y-113365000D01*
X74135000Y-113365000D02*
X74135000Y-111000000D01*
X72865000Y-111975000D02*
X72865000Y-112235000D01*
X72865000Y-112235000D02*
X72865000Y-113365000D01*
X72865000Y-111000000D02*
X72865000Y-112235000D01*
X74135000Y-117225000D02*
X74135000Y-118200000D01*
X72865000Y-117225000D02*
X72865000Y-118200000D01*
X72900000Y-115400000D02*
X72865000Y-115435000D01*
X72865000Y-115435000D02*
X72865000Y-118200000D01*
X75405000Y-118200000D02*
X77200000Y-118200000D01*
X77200000Y-118200000D02*
X77250000Y-118250000D01*
X56200000Y-147000000D02*
X59000000Y-147000000D01*
X59000000Y-147000000D02*
X60000000Y-147000000D01*
X67310000Y-109982000D02*
X68072000Y-109982000D01*
X70000000Y-117352210D02*
X70000000Y-119739976D01*
X68072000Y-109982000D02*
X71120000Y-113030000D01*
X70000000Y-119739976D02*
X71098550Y-120838526D01*
X71120000Y-113030000D02*
X71120000Y-116232210D01*
X71120000Y-116232210D02*
X70000000Y-117352210D01*
X71098550Y-120838526D02*
X71098550Y-125086727D01*
X71098550Y-125086727D02*
X65635766Y-130549511D01*
X65635766Y-130549511D02*
X64509511Y-130549511D01*
X64509511Y-130549511D02*
X64262000Y-130302000D01*
X67310000Y-110998000D02*
X68330402Y-110998000D01*
X70699549Y-113367147D02*
X70699545Y-115952575D01*
X70699031Y-124118969D02*
X69199568Y-125618432D01*
X68330402Y-110998000D02*
X70699549Y-113367147D01*
X70699545Y-115952575D02*
X70465512Y-116186608D01*
X70465512Y-116186608D02*
X70464820Y-116186608D01*
X70464820Y-116186608D02*
X69600000Y-117051428D01*
X69600000Y-117051428D02*
X69600000Y-119904982D01*
X69600000Y-119904982D02*
X70699031Y-121004013D01*
X70699031Y-121004013D02*
X70699031Y-124118969D01*
X66428494Y-127800000D02*
X68800048Y-125428446D01*
X65200000Y-127800000D02*
X66428494Y-127800000D01*
X66428494Y-127800000D02*
X70299511Y-123928983D01*
X70299511Y-123928983D02*
X70299511Y-123099511D01*
X70299511Y-123099511D02*
X70299511Y-123728005D01*
X70299511Y-121169499D02*
X70299511Y-123099511D01*
X66400000Y-111800000D02*
X68567397Y-111800000D01*
X70300029Y-113532633D02*
X70300026Y-115787088D01*
X68799520Y-119669508D02*
X70299511Y-121169499D01*
X68567397Y-111800000D02*
X70300029Y-113532633D01*
X70300026Y-115787088D02*
X70299334Y-115787088D01*
X70299334Y-115787088D02*
X68799520Y-117286902D01*
X68799520Y-117286902D02*
X68799520Y-119669508D01*
X66483841Y-112949181D02*
X66883840Y-112549182D01*
X68400000Y-117121416D02*
X68400000Y-119834994D01*
X66883840Y-112549182D02*
X68750883Y-112549182D01*
X69600000Y-121034994D02*
X69600000Y-123200000D01*
X68750883Y-112549182D02*
X69900020Y-113698321D01*
X69900020Y-113698321D02*
X69900018Y-115621398D01*
X69900018Y-115621398D02*
X68400000Y-117121416D01*
X68400000Y-119834994D02*
X69600000Y-121034994D01*
X67400000Y-113350000D02*
X67799999Y-112950001D01*
X69500010Y-115455708D02*
X68000028Y-116955690D01*
X68000028Y-120000028D02*
X68800000Y-120800000D01*
X67799999Y-112950001D02*
X68586003Y-112950001D01*
X68586003Y-112950001D02*
X69500011Y-113864009D01*
X69500011Y-113864009D02*
X69500010Y-115455708D01*
X68800000Y-120800000D02*
X68800000Y-122400000D01*
X68000028Y-116955690D02*
X68000028Y-120000028D01*
X68400000Y-113800000D02*
X69100001Y-114500001D01*
X69100001Y-114500001D02*
X69100001Y-115290019D01*
X69100001Y-115290019D02*
X67600018Y-116790002D01*
X67600018Y-116790002D02*
X67600018Y-120200018D01*
X67600018Y-120200018D02*
X68000000Y-120600000D01*
X68000000Y-120600000D02*
X68000000Y-121600000D01*
X68400038Y-125262757D02*
X68400038Y-124399962D01*
X68400038Y-124399962D02*
X69600000Y-123200000D01*
X68000028Y-125097068D02*
X68000028Y-123199972D01*
X68000028Y-123199972D02*
X68800000Y-122400000D01*
X67600018Y-121999982D02*
X68000000Y-121600000D01*
X67600018Y-124931379D02*
X67600018Y-121999982D01*
X65200000Y-126200000D02*
X66331397Y-126200000D01*
X66331397Y-126200000D02*
X67600018Y-124931379D01*
X67200000Y-124765682D02*
X67200008Y-124765690D01*
X67200000Y-120800000D02*
X67200000Y-124765682D01*
X67200008Y-124765690D02*
X66165698Y-125800000D01*
X66165698Y-125800000D02*
X65200000Y-125800000D01*
X66800000Y-124600000D02*
X66800000Y-121435277D01*
X66800000Y-121435277D02*
X66400000Y-121035277D01*
X66400000Y-121035277D02*
X66400000Y-120000000D01*
X67200008Y-120799992D02*
X67200000Y-120800000D01*
X67200008Y-116599992D02*
X67200008Y-120799992D01*
X66800000Y-119600000D02*
X66400000Y-120000000D01*
X66800000Y-116400000D02*
X66800000Y-119600000D01*
X66200000Y-124494990D02*
X65694990Y-125000000D01*
X66200000Y-123200000D02*
X66200000Y-124494990D01*
X65600000Y-122600000D02*
X66200000Y-123200000D01*
X65694990Y-125000000D02*
X65200000Y-125000000D01*
X65600000Y-119200000D02*
X65600000Y-122600000D01*
X66400000Y-115600000D02*
X66400000Y-118400000D01*
X66400000Y-118400000D02*
X65600000Y-119200000D01*
X67200008Y-116599992D02*
X68400000Y-115400000D01*
D22*
X74960001Y-153639999D02*
X74960001Y-136160001D01*
X74960001Y-136160001D02*
X70000000Y-131200000D01*
D21*
X54425000Y-123600000D02*
X52900000Y-122075000D01*
X51300000Y-121075000D02*
X51200000Y-120975000D01*
D22*
X73660000Y-154940000D02*
X74960001Y-153639999D01*
X54425000Y-124775000D02*
X54425000Y-123600000D01*
D21*
X54300000Y-119500000D02*
X52900000Y-120900000D01*
D22*
X62250000Y-126000000D02*
X62200000Y-126000000D01*
D21*
X56000000Y-119425000D02*
X54400000Y-119425000D01*
D22*
X56800000Y-131200000D02*
X54425000Y-128825000D01*
D21*
X52900000Y-121075000D02*
X51300000Y-121075000D01*
X52900000Y-120900000D02*
X52900000Y-121075000D01*
D22*
X52524980Y-124775000D02*
X54425000Y-124775000D01*
X62200000Y-131200000D02*
X56800000Y-131200000D01*
D21*
X54300000Y-119325000D02*
X54300000Y-119500000D01*
D22*
X54425000Y-128825000D02*
X54425000Y-124775000D01*
X50000000Y-122250020D02*
X52524980Y-124775000D01*
X50000000Y-118600000D02*
X50000000Y-122250020D01*
X54200000Y-114400000D02*
X50000000Y-118600000D01*
D21*
X52900000Y-122075000D02*
X52900000Y-121075000D01*
D22*
X70000000Y-131200000D02*
X62200000Y-131200000D01*
D21*
X54400000Y-119425000D02*
X54300000Y-119325000D01*
D22*
X73660000Y-137660000D02*
X73600000Y-137600000D01*
X73660000Y-152400000D02*
X73660000Y-137660000D01*
D21*
X62850000Y-122350000D02*
X63349990Y-121850010D01*
X63349990Y-121850010D02*
X63349990Y-120349990D01*
X62850000Y-123050000D02*
X62850000Y-122350000D01*
X63349990Y-120349990D02*
X63000000Y-120000000D01*
X63750000Y-122050000D02*
X63750000Y-119200000D01*
X63250000Y-122550000D02*
X63750000Y-122050000D01*
X63250000Y-123050000D02*
X63250000Y-122550000D01*
X50800000Y-152400000D02*
X56200000Y-147000000D01*
X58200000Y-127000000D02*
X59300000Y-127000000D01*
D23*
X52832000Y-151892000D02*
X53340000Y-152400000D01*
D21*
X60050000Y-123050000D02*
X60050000Y-122650000D01*
X60050000Y-122650000D02*
X58800000Y-121400000D01*
X58800000Y-121400000D02*
X58175000Y-121400000D01*
X58175000Y-121400000D02*
X55975000Y-123600000D01*
X61599999Y-119800000D02*
X60199999Y-118400000D01*
X52800000Y-119425000D02*
X52900000Y-119325000D01*
X61650000Y-119850001D02*
X61599999Y-119800000D01*
X51200000Y-119425000D02*
X52800000Y-119425000D01*
X52900000Y-119225720D02*
X52900000Y-119325000D01*
X53725720Y-118400000D02*
X52900000Y-119225720D01*
X60199999Y-118400000D02*
X53725720Y-118400000D01*
X61650000Y-123050000D02*
X61650000Y-119850001D01*
X64450000Y-128950000D02*
X64450000Y-129000000D01*
X65300000Y-145050000D02*
X59700000Y-150650000D01*
X69199568Y-125618432D02*
X69088000Y-125730000D01*
X59700000Y-150650000D02*
X59700000Y-153660000D01*
X65868000Y-128950000D02*
X65300000Y-128950000D01*
X69199568Y-125618432D02*
X65868000Y-128950000D01*
X65300000Y-128950000D02*
X64450000Y-128950000D01*
X59700000Y-153660000D02*
X58420000Y-154940000D01*
X65300000Y-132450000D02*
X65300000Y-145050000D01*
X65300000Y-129850000D02*
X65300000Y-128950000D01*
X64050000Y-129752000D02*
X64050000Y-128950000D01*
X58420000Y-150622000D02*
X64135000Y-144907000D01*
X64262000Y-130302000D02*
X64050000Y-130090000D01*
X64135000Y-144907000D02*
X64135000Y-132461000D01*
X58420000Y-152400000D02*
X58420000Y-150622000D01*
X64135000Y-132207000D02*
X64135000Y-132461000D01*
X64050000Y-130090000D02*
X64050000Y-129752000D01*
X60850000Y-122250000D02*
X60000000Y-121400000D01*
X58000000Y-104540000D02*
X59690000Y-102850000D01*
X58000000Y-123800000D02*
X59300000Y-123800000D01*
X58000000Y-116400000D02*
X58000000Y-104540000D01*
X59690000Y-102850000D02*
X59690000Y-102500000D01*
X60850000Y-123050000D02*
X60850000Y-122250000D01*
X62050000Y-123050000D02*
X62050000Y-121950000D01*
X62050000Y-121950000D02*
X62600000Y-121400000D01*
X62450000Y-128950000D02*
X62450000Y-129950000D01*
X58800000Y-106280000D02*
X62580000Y-102500000D01*
X58036002Y-117400000D02*
X58800000Y-116636002D01*
X62450000Y-129950000D02*
X61750010Y-130649990D01*
X58800000Y-116636002D02*
X58800000Y-106280000D01*
X58449990Y-130649990D02*
X56400000Y-128600000D01*
X61750010Y-130649990D02*
X58449990Y-130649990D01*
X56200000Y-117400000D02*
X58036002Y-117400000D01*
X56400000Y-128600000D02*
X56400000Y-125400000D01*
X64600000Y-118600000D02*
X65600000Y-117600000D01*
X65600000Y-103330000D02*
X64770000Y-102500000D01*
X64450000Y-123050000D02*
X64450000Y-118750000D01*
X65600000Y-104400000D02*
X65600000Y-103330000D01*
X65600000Y-117600000D02*
X65600000Y-104400000D01*
X64450000Y-118750000D02*
X64600000Y-118600000D01*
X67310000Y-107290000D02*
X67310000Y-102500000D01*
X66400000Y-108200000D02*
X67100000Y-107500000D01*
X66400000Y-111800000D02*
X66400000Y-108200000D01*
X67100000Y-107500000D02*
X67310000Y-107290000D01*
X61250000Y-121050000D02*
X60800000Y-120600000D01*
X54400000Y-120975000D02*
X54300000Y-121075000D01*
X56000000Y-120975000D02*
X56375000Y-120600000D01*
X61250000Y-123050000D02*
X61250000Y-121050000D01*
X56000000Y-120975000D02*
X54400000Y-120975000D01*
X56375000Y-120600000D02*
X60800000Y-120600000D01*
X71595000Y-118205000D02*
X70800000Y-119000000D01*
X66800000Y-124600000D02*
X66000000Y-125400000D01*
X66800000Y-116400000D02*
X67400000Y-115800000D01*
X67400000Y-115800000D02*
X67400000Y-115200000D01*
X66000000Y-125400000D02*
X65200000Y-125400000D01*
X68400000Y-115400000D02*
X68400000Y-114800000D01*
X75405000Y-113495000D02*
X74700000Y-114200000D01*
X68000028Y-125097068D02*
X66497096Y-126600000D01*
X72865000Y-113365000D02*
X72900000Y-113400000D01*
X66497096Y-126600000D02*
X65200000Y-126600000D01*
X74135000Y-116754950D02*
X74135000Y-117225000D01*
X74135000Y-116825267D02*
X74135000Y-117225000D01*
X66662795Y-127000000D02*
X65200000Y-127000000D01*
X68400038Y-125262757D02*
X66662795Y-127000000D01*
X75394975Y-115494975D02*
X74135000Y-116754950D01*
X58000000Y-125000000D02*
X59300000Y-125000000D01*
X58400000Y-124600000D02*
X58000000Y-125000000D01*
X57200000Y-102550000D02*
X57150000Y-102500000D01*
X59300000Y-124600000D02*
X58400000Y-124600000D01*
X57200000Y-114800000D02*
X57200000Y-102550000D01*
M02*
