G04 #@! TF.GenerationSoftware,KiCad,Pcbnew,5.0.2-bee76a0~70~ubuntu18.04.1*
G04 #@! TF.CreationDate,2019-05-09T10:07:15+02:00*
G04 #@! TF.ProjectId,smartcard,736d6172-7463-4617-9264-2e6b69636164,rev?*
G04 #@! TF.SameCoordinates,Original*
G04 #@! TF.FileFunction,Legend,Bot*
G04 #@! TF.FilePolarity,Positive*
%FSLAX46Y46*%
G04 Gerber Fmt 4.6, Leading zero omitted, Abs format (unit mm)*
G04 Created by KiCad (PCBNEW 5.0.2-bee76a0~70~ubuntu18.04.1) date jeu. 09 mai 2019 10:07:15 CEST*
%MOMM*%
%LPD*%
G01*
G04 APERTURE LIST*
%ADD10C,0.300000*%
%ADD11C,0.150000*%
G04 APERTURE END LIST*
D10*
X129443874Y-136309598D02*
X130158159Y-136309598D01*
X130229588Y-137023884D01*
X130158159Y-136952455D01*
X130015302Y-136881027D01*
X129658159Y-136881027D01*
X129515302Y-136952455D01*
X129443874Y-137023884D01*
X129372445Y-137166741D01*
X129372445Y-137523884D01*
X129443874Y-137666741D01*
X129515302Y-137738169D01*
X129658159Y-137809598D01*
X130015302Y-137809598D01*
X130158159Y-137738169D01*
X130229588Y-137666741D01*
X127048874Y-137809598D02*
X127048874Y-136309598D01*
X126548874Y-137381027D01*
X126048874Y-136309598D01*
X126048874Y-137809598D01*
X124691731Y-137809598D02*
X124691731Y-137023884D01*
X124763159Y-136881027D01*
X124906017Y-136809598D01*
X125191731Y-136809598D01*
X125334588Y-136881027D01*
X124691731Y-137738169D02*
X124834588Y-137809598D01*
X125191731Y-137809598D01*
X125334588Y-137738169D01*
X125406017Y-137595312D01*
X125406017Y-137452455D01*
X125334588Y-137309598D01*
X125191731Y-137238169D01*
X124834588Y-137238169D01*
X124691731Y-137166741D01*
X123977445Y-137809598D02*
X123977445Y-136309598D01*
X123834588Y-137238169D02*
X123406017Y-137809598D01*
X123406017Y-136809598D02*
X123977445Y-137381027D01*
X122191731Y-137738169D02*
X122334588Y-137809598D01*
X122620302Y-137809598D01*
X122763159Y-137738169D01*
X122834588Y-137595312D01*
X122834588Y-137023884D01*
X122763159Y-136881027D01*
X122620302Y-136809598D01*
X122334588Y-136809598D01*
X122191731Y-136881027D01*
X122120302Y-137023884D01*
X122120302Y-137166741D01*
X122834588Y-137309598D01*
X119477445Y-137666741D02*
X119548874Y-137738169D01*
X119763159Y-137809598D01*
X119906017Y-137809598D01*
X120120302Y-137738169D01*
X120263159Y-137595312D01*
X120334588Y-137452455D01*
X120406017Y-137166741D01*
X120406017Y-136952455D01*
X120334588Y-136666741D01*
X120263159Y-136523884D01*
X120120302Y-136381027D01*
X119906017Y-136309598D01*
X119763159Y-136309598D01*
X119548874Y-136381027D01*
X119477445Y-136452455D01*
X117977445Y-137666741D02*
X118048874Y-137738169D01*
X118263159Y-137809598D01*
X118406017Y-137809598D01*
X118620302Y-137738169D01*
X118763159Y-137595312D01*
X118834588Y-137452455D01*
X118906017Y-137166741D01*
X118906017Y-136952455D01*
X118834588Y-136666741D01*
X118763159Y-136523884D01*
X118620302Y-136381027D01*
X118406017Y-136309598D01*
X118263159Y-136309598D01*
X118048874Y-136381027D01*
X117977445Y-136452455D01*
X115548874Y-136809598D02*
X115548874Y-138309598D01*
X115548874Y-137738169D02*
X115691731Y-137809598D01*
X115977445Y-137809598D01*
X116120302Y-137738169D01*
X116191731Y-137666741D01*
X116263159Y-137523884D01*
X116263159Y-137095312D01*
X116191731Y-136952455D01*
X116120302Y-136881027D01*
X115977445Y-136809598D01*
X115691731Y-136809598D01*
X115548874Y-136881027D01*
X114191731Y-136809598D02*
X114191731Y-137809598D01*
X114834588Y-136809598D02*
X114834588Y-137595312D01*
X114763159Y-137738169D01*
X114620302Y-137809598D01*
X114406017Y-137809598D01*
X114263159Y-137738169D01*
X114191731Y-137666741D01*
X113263159Y-137809598D02*
X113406017Y-137738169D01*
X113477445Y-137666741D01*
X113548874Y-137523884D01*
X113548874Y-137095312D01*
X113477445Y-136952455D01*
X113406017Y-136881027D01*
X113263159Y-136809598D01*
X113048874Y-136809598D01*
X112906017Y-136881027D01*
X112834588Y-136952455D01*
X112763159Y-137095312D01*
X112763159Y-137523884D01*
X112834588Y-137666741D01*
X112906017Y-137738169D01*
X113048874Y-137809598D01*
X113263159Y-137809598D01*
X112334588Y-136809598D02*
X111763159Y-136809598D01*
X112120302Y-136309598D02*
X112120302Y-137595312D01*
X112048874Y-137738169D01*
X111906017Y-137809598D01*
X111763159Y-137809598D01*
X110620302Y-137809598D02*
X110620302Y-137023884D01*
X110691731Y-136881027D01*
X110834588Y-136809598D01*
X111120302Y-136809598D01*
X111263159Y-136881027D01*
X110620302Y-137738169D02*
X110763159Y-137809598D01*
X111120302Y-137809598D01*
X111263159Y-137738169D01*
X111334588Y-137595312D01*
X111334588Y-137452455D01*
X111263159Y-137309598D01*
X111120302Y-137238169D01*
X110763159Y-137238169D01*
X110620302Y-137166741D01*
X110120302Y-136809598D02*
X109548874Y-136809598D01*
X109906017Y-136309598D02*
X109906017Y-137595312D01*
X109834588Y-137738169D01*
X109691731Y-137809598D01*
X109548874Y-137809598D01*
X109048874Y-137809598D02*
X109048874Y-136809598D01*
X109048874Y-136309598D02*
X109120302Y-136381027D01*
X109048874Y-136452455D01*
X108977445Y-136381027D01*
X109048874Y-136309598D01*
X109048874Y-136452455D01*
X108120302Y-137809598D02*
X108263159Y-137738169D01*
X108334588Y-137666741D01*
X108406017Y-137523884D01*
X108406017Y-137095312D01*
X108334588Y-136952455D01*
X108263159Y-136881027D01*
X108120302Y-136809598D01*
X107906017Y-136809598D01*
X107763159Y-136881027D01*
X107691731Y-136952455D01*
X107620302Y-137095312D01*
X107620302Y-137523884D01*
X107691731Y-137666741D01*
X107763159Y-137738169D01*
X107906017Y-137809598D01*
X108120302Y-137809598D01*
X106977445Y-136809598D02*
X106977445Y-137809598D01*
X106977445Y-136952455D02*
X106906017Y-136881027D01*
X106763159Y-136809598D01*
X106548874Y-136809598D01*
X106406017Y-136881027D01*
X106334588Y-137023884D01*
X106334588Y-137809598D01*
X105620302Y-137666741D02*
X105548874Y-137738169D01*
X105620302Y-137809598D01*
X105691731Y-137738169D01*
X105620302Y-137666741D01*
X105620302Y-137809598D01*
X104906017Y-137666741D02*
X104834588Y-137738169D01*
X104906017Y-137809598D01*
X104977445Y-137738169D01*
X104906017Y-137666741D01*
X104906017Y-137809598D01*
X104191731Y-137666741D02*
X104120302Y-137738169D01*
X104191731Y-137809598D01*
X104263159Y-137738169D01*
X104191731Y-137666741D01*
X104191731Y-137809598D01*
X131243238Y-137131027D02*
G75*
G03X131243238Y-137131027I-1442221J0D01*
G01*
D11*
G04 #@! TO.C,P2*
X122386017Y-68621027D02*
X122386017Y-61131027D01*
X101116017Y-68621027D02*
X122386017Y-68621027D01*
X101116017Y-61131027D02*
X101116017Y-68621027D01*
X122386017Y-61131027D02*
X101116017Y-61131027D01*
G04 #@! TO.C,P1*
X122386017Y-146721027D02*
X122386017Y-139231027D01*
X101116017Y-146721027D02*
X122386017Y-146721027D01*
X101116017Y-139231027D02*
X101116017Y-146721027D01*
X122386017Y-139231027D02*
X101116017Y-139231027D01*
G04 #@! TO.C,U1*
X112103397Y-103249122D02*
X112912921Y-103249122D01*
X113008159Y-103296741D01*
X113055778Y-103344360D01*
X113103397Y-103439598D01*
X113103397Y-103630074D01*
X113055778Y-103725312D01*
X113008159Y-103772931D01*
X112912921Y-103820550D01*
X112103397Y-103820550D01*
X113103397Y-104820550D02*
X113103397Y-104249122D01*
X113103397Y-104534836D02*
X112103397Y-104534836D01*
X112246255Y-104439598D01*
X112341493Y-104344360D01*
X112389112Y-104249122D01*
G04 #@! TO.C,P2*
X116889112Y-62463407D02*
X116889112Y-61463407D01*
X116508159Y-61463407D01*
X116412921Y-61511027D01*
X116365302Y-61558646D01*
X116317683Y-61653884D01*
X116317683Y-61796741D01*
X116365302Y-61891979D01*
X116412921Y-61939598D01*
X116508159Y-61987217D01*
X116889112Y-61987217D01*
X115936731Y-61558646D02*
X115889112Y-61511027D01*
X115793874Y-61463407D01*
X115555778Y-61463407D01*
X115460540Y-61511027D01*
X115412921Y-61558646D01*
X115365302Y-61653884D01*
X115365302Y-61749122D01*
X115412921Y-61891979D01*
X115984350Y-62463407D01*
X115365302Y-62463407D01*
X119665302Y-70028407D02*
X120236731Y-70028407D01*
X119951017Y-70028407D02*
X119951017Y-69028407D01*
X120046255Y-69171265D01*
X120141493Y-69266503D01*
X120236731Y-69314122D01*
G04 #@! TO.C,P1*
X116889112Y-140563407D02*
X116889112Y-139563407D01*
X116508159Y-139563407D01*
X116412921Y-139611027D01*
X116365302Y-139658646D01*
X116317683Y-139753884D01*
X116317683Y-139896741D01*
X116365302Y-139991979D01*
X116412921Y-140039598D01*
X116508159Y-140087217D01*
X116889112Y-140087217D01*
X115365302Y-140563407D02*
X115936731Y-140563407D01*
X115651017Y-140563407D02*
X115651017Y-139563407D01*
X115746255Y-139706265D01*
X115841493Y-139801503D01*
X115936731Y-139849122D01*
X119665302Y-148128407D02*
X120236731Y-148128407D01*
X119951017Y-148128407D02*
X119951017Y-147128407D01*
X120046255Y-147271265D01*
X120141493Y-147366503D01*
X120236731Y-147414122D01*
G04 #@! TD*
M02*
