M48
;DRILL file {KiCad 5.0.2-bee76a0~70~ubuntu18.04.1} date ven. 25 oct. 2019 10:51:09 CEST
;FORMAT={-:-/ absolute / inch / decimal}
FMAT,2
INCH,TZ
T1C0.0157
T2C0.0394
%
G90
G05
T1
X2.22Y-4.91
X2.41Y-4.13
X2.41Y-4.87
T2
X2.Y-6.
X2.Y-6.1
X2.1Y-6.
X2.1Y-6.1
X2.2Y-6.
X2.2Y-6.1
X2.3Y-6.
X2.3Y-6.1
X2.4Y-6.
X2.4Y-6.1
X2.5Y-6.
X2.5Y-6.1
X2.6Y-6.
X2.6Y-6.1
X2.7Y-6.
X2.7Y-6.1
X2.8Y-6.
X2.8Y-6.1
X2.9Y-6.
X2.9Y-6.1
X2.Y-2.9
X2.Y-3.
X2.1Y-2.9
X2.1Y-3.
X2.2Y-2.9
X2.2Y-3.
X2.3Y-2.9
X2.3Y-3.
X2.4Y-2.9
X2.4Y-3.
X2.5Y-2.9
X2.5Y-3.
X2.6Y-2.9
X2.6Y-3.
X2.7Y-2.9
X2.7Y-3.
X2.8Y-2.9
X2.8Y-3.
X2.9Y-2.9
X2.9Y-3.
T0
M30
