G04 #@! TF.GenerationSoftware,KiCad,Pcbnew,5.0.2-bee76a0~70~ubuntu18.04.1*
G04 #@! TF.CreationDate,2019-10-25T10:51:07+02:00*
G04 #@! TF.ProjectId,atecc,61746563-632e-46b6-9963-61645f706362,rev?*
G04 #@! TF.SameCoordinates,Original*
G04 #@! TF.FileFunction,Legend,Bot*
G04 #@! TF.FilePolarity,Positive*
%FSLAX46Y46*%
G04 Gerber Fmt 4.6, Leading zero omitted, Abs format (unit mm)*
G04 Created by KiCad (PCBNEW 5.0.2-bee76a0~70~ubuntu18.04.1) date ven. 25 oct. 2019 10:51:07 CEST*
%MOMM*%
%LPD*%
G01*
G04 APERTURE LIST*
%ADD10C,0.120000*%
%ADD11C,0.150000*%
G04 APERTURE END LIST*
D10*
G04 #@! TO.C,J2*
X49470000Y-76200000D02*
X49470000Y-77530000D01*
X49470000Y-77530000D02*
X50800000Y-77530000D01*
X49470000Y-74930000D02*
X52070000Y-74930000D01*
X52070000Y-74930000D02*
X52070000Y-77530000D01*
X52070000Y-77530000D02*
X74990000Y-77530000D01*
X74990000Y-72330000D02*
X74990000Y-77530000D01*
X49470000Y-72330000D02*
X74990000Y-72330000D01*
X49470000Y-72330000D02*
X49470000Y-74930000D01*
G04 #@! TO.C,J1*
X49470000Y-151070000D02*
X49470000Y-153670000D01*
X49470000Y-151070000D02*
X74990000Y-151070000D01*
X74990000Y-151070000D02*
X74990000Y-156270000D01*
X52070000Y-156270000D02*
X74990000Y-156270000D01*
X52070000Y-153670000D02*
X52070000Y-156270000D01*
X49470000Y-153670000D02*
X52070000Y-153670000D01*
X49470000Y-156270000D02*
X50800000Y-156270000D01*
X49470000Y-154940000D02*
X49470000Y-156270000D01*
G04 #@! TO.C,J2*
D11*
X47482380Y-74596666D02*
X48196666Y-74596666D01*
X48339523Y-74549047D01*
X48434761Y-74453809D01*
X48482380Y-74310952D01*
X48482380Y-74215714D01*
X47577619Y-75025238D02*
X47530000Y-75072857D01*
X47482380Y-75168095D01*
X47482380Y-75406190D01*
X47530000Y-75501428D01*
X47577619Y-75549047D01*
X47672857Y-75596666D01*
X47768095Y-75596666D01*
X47910952Y-75549047D01*
X48482380Y-74977619D01*
X48482380Y-75596666D01*
G04 #@! TO.C,J1*
X47482380Y-153336666D02*
X48196666Y-153336666D01*
X48339523Y-153289047D01*
X48434761Y-153193809D01*
X48482380Y-153050952D01*
X48482380Y-152955714D01*
X48482380Y-154336666D02*
X48482380Y-153765238D01*
X48482380Y-154050952D02*
X47482380Y-154050952D01*
X47625238Y-153955714D01*
X47720476Y-153860476D01*
X47768095Y-153765238D01*
G04 #@! TD*
M02*
