G04 #@! TF.GenerationSoftware,KiCad,Pcbnew,5.0.2-bee76a0~70~ubuntu18.04.1*
G04 #@! TF.CreationDate,2019-10-25T10:51:07+02:00*
G04 #@! TF.ProjectId,atecc,61746563-632e-46b6-9963-61645f706362,rev?*
G04 #@! TF.SameCoordinates,Original*
G04 #@! TF.FileFunction,Soldermask,Bot*
G04 #@! TF.FilePolarity,Negative*
%FSLAX46Y46*%
G04 Gerber Fmt 4.6, Leading zero omitted, Abs format (unit mm)*
G04 Created by KiCad (PCBNEW 5.0.2-bee76a0~70~ubuntu18.04.1) date ven. 25 oct. 2019 10:51:07 CEST*
%MOMM*%
%LPD*%
G01*
G04 APERTURE LIST*
%ADD10C,0.100000*%
G04 APERTURE END LIST*
D10*
G36*
X51650000Y-155790000D02*
X49950000Y-155790000D01*
X49950000Y-154090000D01*
X51650000Y-154090000D01*
X51650000Y-155790000D01*
X51650000Y-155790000D01*
G37*
G36*
X53506630Y-154102299D02*
X53666855Y-154150903D01*
X53814520Y-154229831D01*
X53943949Y-154336051D01*
X54050169Y-154465480D01*
X54129097Y-154613145D01*
X54177701Y-154773370D01*
X54194112Y-154940000D01*
X54177701Y-155106630D01*
X54129097Y-155266855D01*
X54050169Y-155414520D01*
X53943949Y-155543949D01*
X53814520Y-155650169D01*
X53666855Y-155729097D01*
X53506630Y-155777701D01*
X53381752Y-155790000D01*
X53298248Y-155790000D01*
X53173370Y-155777701D01*
X53013145Y-155729097D01*
X52865480Y-155650169D01*
X52736051Y-155543949D01*
X52629831Y-155414520D01*
X52550903Y-155266855D01*
X52502299Y-155106630D01*
X52485888Y-154940000D01*
X52502299Y-154773370D01*
X52550903Y-154613145D01*
X52629831Y-154465480D01*
X52736051Y-154336051D01*
X52865480Y-154229831D01*
X53013145Y-154150903D01*
X53173370Y-154102299D01*
X53298248Y-154090000D01*
X53381752Y-154090000D01*
X53506630Y-154102299D01*
X53506630Y-154102299D01*
G37*
G36*
X56046630Y-154102299D02*
X56206855Y-154150903D01*
X56354520Y-154229831D01*
X56483949Y-154336051D01*
X56590169Y-154465480D01*
X56669097Y-154613145D01*
X56717701Y-154773370D01*
X56734112Y-154940000D01*
X56717701Y-155106630D01*
X56669097Y-155266855D01*
X56590169Y-155414520D01*
X56483949Y-155543949D01*
X56354520Y-155650169D01*
X56206855Y-155729097D01*
X56046630Y-155777701D01*
X55921752Y-155790000D01*
X55838248Y-155790000D01*
X55713370Y-155777701D01*
X55553145Y-155729097D01*
X55405480Y-155650169D01*
X55276051Y-155543949D01*
X55169831Y-155414520D01*
X55090903Y-155266855D01*
X55042299Y-155106630D01*
X55025888Y-154940000D01*
X55042299Y-154773370D01*
X55090903Y-154613145D01*
X55169831Y-154465480D01*
X55276051Y-154336051D01*
X55405480Y-154229831D01*
X55553145Y-154150903D01*
X55713370Y-154102299D01*
X55838248Y-154090000D01*
X55921752Y-154090000D01*
X56046630Y-154102299D01*
X56046630Y-154102299D01*
G37*
G36*
X58586630Y-154102299D02*
X58746855Y-154150903D01*
X58894520Y-154229831D01*
X59023949Y-154336051D01*
X59130169Y-154465480D01*
X59209097Y-154613145D01*
X59257701Y-154773370D01*
X59274112Y-154940000D01*
X59257701Y-155106630D01*
X59209097Y-155266855D01*
X59130169Y-155414520D01*
X59023949Y-155543949D01*
X58894520Y-155650169D01*
X58746855Y-155729097D01*
X58586630Y-155777701D01*
X58461752Y-155790000D01*
X58378248Y-155790000D01*
X58253370Y-155777701D01*
X58093145Y-155729097D01*
X57945480Y-155650169D01*
X57816051Y-155543949D01*
X57709831Y-155414520D01*
X57630903Y-155266855D01*
X57582299Y-155106630D01*
X57565888Y-154940000D01*
X57582299Y-154773370D01*
X57630903Y-154613145D01*
X57709831Y-154465480D01*
X57816051Y-154336051D01*
X57945480Y-154229831D01*
X58093145Y-154150903D01*
X58253370Y-154102299D01*
X58378248Y-154090000D01*
X58461752Y-154090000D01*
X58586630Y-154102299D01*
X58586630Y-154102299D01*
G37*
G36*
X61126630Y-154102299D02*
X61286855Y-154150903D01*
X61434520Y-154229831D01*
X61563949Y-154336051D01*
X61670169Y-154465480D01*
X61749097Y-154613145D01*
X61797701Y-154773370D01*
X61814112Y-154940000D01*
X61797701Y-155106630D01*
X61749097Y-155266855D01*
X61670169Y-155414520D01*
X61563949Y-155543949D01*
X61434520Y-155650169D01*
X61286855Y-155729097D01*
X61126630Y-155777701D01*
X61001752Y-155790000D01*
X60918248Y-155790000D01*
X60793370Y-155777701D01*
X60633145Y-155729097D01*
X60485480Y-155650169D01*
X60356051Y-155543949D01*
X60249831Y-155414520D01*
X60170903Y-155266855D01*
X60122299Y-155106630D01*
X60105888Y-154940000D01*
X60122299Y-154773370D01*
X60170903Y-154613145D01*
X60249831Y-154465480D01*
X60356051Y-154336051D01*
X60485480Y-154229831D01*
X60633145Y-154150903D01*
X60793370Y-154102299D01*
X60918248Y-154090000D01*
X61001752Y-154090000D01*
X61126630Y-154102299D01*
X61126630Y-154102299D01*
G37*
G36*
X63666630Y-154102299D02*
X63826855Y-154150903D01*
X63974520Y-154229831D01*
X64103949Y-154336051D01*
X64210169Y-154465480D01*
X64289097Y-154613145D01*
X64337701Y-154773370D01*
X64354112Y-154940000D01*
X64337701Y-155106630D01*
X64289097Y-155266855D01*
X64210169Y-155414520D01*
X64103949Y-155543949D01*
X63974520Y-155650169D01*
X63826855Y-155729097D01*
X63666630Y-155777701D01*
X63541752Y-155790000D01*
X63458248Y-155790000D01*
X63333370Y-155777701D01*
X63173145Y-155729097D01*
X63025480Y-155650169D01*
X62896051Y-155543949D01*
X62789831Y-155414520D01*
X62710903Y-155266855D01*
X62662299Y-155106630D01*
X62645888Y-154940000D01*
X62662299Y-154773370D01*
X62710903Y-154613145D01*
X62789831Y-154465480D01*
X62896051Y-154336051D01*
X63025480Y-154229831D01*
X63173145Y-154150903D01*
X63333370Y-154102299D01*
X63458248Y-154090000D01*
X63541752Y-154090000D01*
X63666630Y-154102299D01*
X63666630Y-154102299D01*
G37*
G36*
X66206630Y-154102299D02*
X66366855Y-154150903D01*
X66514520Y-154229831D01*
X66643949Y-154336051D01*
X66750169Y-154465480D01*
X66829097Y-154613145D01*
X66877701Y-154773370D01*
X66894112Y-154940000D01*
X66877701Y-155106630D01*
X66829097Y-155266855D01*
X66750169Y-155414520D01*
X66643949Y-155543949D01*
X66514520Y-155650169D01*
X66366855Y-155729097D01*
X66206630Y-155777701D01*
X66081752Y-155790000D01*
X65998248Y-155790000D01*
X65873370Y-155777701D01*
X65713145Y-155729097D01*
X65565480Y-155650169D01*
X65436051Y-155543949D01*
X65329831Y-155414520D01*
X65250903Y-155266855D01*
X65202299Y-155106630D01*
X65185888Y-154940000D01*
X65202299Y-154773370D01*
X65250903Y-154613145D01*
X65329831Y-154465480D01*
X65436051Y-154336051D01*
X65565480Y-154229831D01*
X65713145Y-154150903D01*
X65873370Y-154102299D01*
X65998248Y-154090000D01*
X66081752Y-154090000D01*
X66206630Y-154102299D01*
X66206630Y-154102299D01*
G37*
G36*
X71286630Y-154102299D02*
X71446855Y-154150903D01*
X71594520Y-154229831D01*
X71723949Y-154336051D01*
X71830169Y-154465480D01*
X71909097Y-154613145D01*
X71957701Y-154773370D01*
X71974112Y-154940000D01*
X71957701Y-155106630D01*
X71909097Y-155266855D01*
X71830169Y-155414520D01*
X71723949Y-155543949D01*
X71594520Y-155650169D01*
X71446855Y-155729097D01*
X71286630Y-155777701D01*
X71161752Y-155790000D01*
X71078248Y-155790000D01*
X70953370Y-155777701D01*
X70793145Y-155729097D01*
X70645480Y-155650169D01*
X70516051Y-155543949D01*
X70409831Y-155414520D01*
X70330903Y-155266855D01*
X70282299Y-155106630D01*
X70265888Y-154940000D01*
X70282299Y-154773370D01*
X70330903Y-154613145D01*
X70409831Y-154465480D01*
X70516051Y-154336051D01*
X70645480Y-154229831D01*
X70793145Y-154150903D01*
X70953370Y-154102299D01*
X71078248Y-154090000D01*
X71161752Y-154090000D01*
X71286630Y-154102299D01*
X71286630Y-154102299D01*
G37*
G36*
X73826630Y-154102299D02*
X73986855Y-154150903D01*
X74134520Y-154229831D01*
X74263949Y-154336051D01*
X74370169Y-154465480D01*
X74449097Y-154613145D01*
X74497701Y-154773370D01*
X74514112Y-154940000D01*
X74497701Y-155106630D01*
X74449097Y-155266855D01*
X74370169Y-155414520D01*
X74263949Y-155543949D01*
X74134520Y-155650169D01*
X73986855Y-155729097D01*
X73826630Y-155777701D01*
X73701752Y-155790000D01*
X73618248Y-155790000D01*
X73493370Y-155777701D01*
X73333145Y-155729097D01*
X73185480Y-155650169D01*
X73056051Y-155543949D01*
X72949831Y-155414520D01*
X72870903Y-155266855D01*
X72822299Y-155106630D01*
X72805888Y-154940000D01*
X72822299Y-154773370D01*
X72870903Y-154613145D01*
X72949831Y-154465480D01*
X73056051Y-154336051D01*
X73185480Y-154229831D01*
X73333145Y-154150903D01*
X73493370Y-154102299D01*
X73618248Y-154090000D01*
X73701752Y-154090000D01*
X73826630Y-154102299D01*
X73826630Y-154102299D01*
G37*
G36*
X68746630Y-154102299D02*
X68906855Y-154150903D01*
X69054520Y-154229831D01*
X69183949Y-154336051D01*
X69290169Y-154465480D01*
X69369097Y-154613145D01*
X69417701Y-154773370D01*
X69434112Y-154940000D01*
X69417701Y-155106630D01*
X69369097Y-155266855D01*
X69290169Y-155414520D01*
X69183949Y-155543949D01*
X69054520Y-155650169D01*
X68906855Y-155729097D01*
X68746630Y-155777701D01*
X68621752Y-155790000D01*
X68538248Y-155790000D01*
X68413370Y-155777701D01*
X68253145Y-155729097D01*
X68105480Y-155650169D01*
X67976051Y-155543949D01*
X67869831Y-155414520D01*
X67790903Y-155266855D01*
X67742299Y-155106630D01*
X67725888Y-154940000D01*
X67742299Y-154773370D01*
X67790903Y-154613145D01*
X67869831Y-154465480D01*
X67976051Y-154336051D01*
X68105480Y-154229831D01*
X68253145Y-154150903D01*
X68413370Y-154102299D01*
X68538248Y-154090000D01*
X68621752Y-154090000D01*
X68746630Y-154102299D01*
X68746630Y-154102299D01*
G37*
G36*
X61126630Y-151562299D02*
X61286855Y-151610903D01*
X61434520Y-151689831D01*
X61563949Y-151796051D01*
X61670169Y-151925480D01*
X61749097Y-152073145D01*
X61797701Y-152233370D01*
X61814112Y-152400000D01*
X61797701Y-152566630D01*
X61749097Y-152726855D01*
X61670169Y-152874520D01*
X61563949Y-153003949D01*
X61434520Y-153110169D01*
X61286855Y-153189097D01*
X61126630Y-153237701D01*
X61001752Y-153250000D01*
X60918248Y-153250000D01*
X60793370Y-153237701D01*
X60633145Y-153189097D01*
X60485480Y-153110169D01*
X60356051Y-153003949D01*
X60249831Y-152874520D01*
X60170903Y-152726855D01*
X60122299Y-152566630D01*
X60105888Y-152400000D01*
X60122299Y-152233370D01*
X60170903Y-152073145D01*
X60249831Y-151925480D01*
X60356051Y-151796051D01*
X60485480Y-151689831D01*
X60633145Y-151610903D01*
X60793370Y-151562299D01*
X60918248Y-151550000D01*
X61001752Y-151550000D01*
X61126630Y-151562299D01*
X61126630Y-151562299D01*
G37*
G36*
X50966630Y-151562299D02*
X51126855Y-151610903D01*
X51274520Y-151689831D01*
X51403949Y-151796051D01*
X51510169Y-151925480D01*
X51589097Y-152073145D01*
X51637701Y-152233370D01*
X51654112Y-152400000D01*
X51637701Y-152566630D01*
X51589097Y-152726855D01*
X51510169Y-152874520D01*
X51403949Y-153003949D01*
X51274520Y-153110169D01*
X51126855Y-153189097D01*
X50966630Y-153237701D01*
X50841752Y-153250000D01*
X50758248Y-153250000D01*
X50633370Y-153237701D01*
X50473145Y-153189097D01*
X50325480Y-153110169D01*
X50196051Y-153003949D01*
X50089831Y-152874520D01*
X50010903Y-152726855D01*
X49962299Y-152566630D01*
X49945888Y-152400000D01*
X49962299Y-152233370D01*
X50010903Y-152073145D01*
X50089831Y-151925480D01*
X50196051Y-151796051D01*
X50325480Y-151689831D01*
X50473145Y-151610903D01*
X50633370Y-151562299D01*
X50758248Y-151550000D01*
X50841752Y-151550000D01*
X50966630Y-151562299D01*
X50966630Y-151562299D01*
G37*
G36*
X71286630Y-151562299D02*
X71446855Y-151610903D01*
X71594520Y-151689831D01*
X71723949Y-151796051D01*
X71830169Y-151925480D01*
X71909097Y-152073145D01*
X71957701Y-152233370D01*
X71974112Y-152400000D01*
X71957701Y-152566630D01*
X71909097Y-152726855D01*
X71830169Y-152874520D01*
X71723949Y-153003949D01*
X71594520Y-153110169D01*
X71446855Y-153189097D01*
X71286630Y-153237701D01*
X71161752Y-153250000D01*
X71078248Y-153250000D01*
X70953370Y-153237701D01*
X70793145Y-153189097D01*
X70645480Y-153110169D01*
X70516051Y-153003949D01*
X70409831Y-152874520D01*
X70330903Y-152726855D01*
X70282299Y-152566630D01*
X70265888Y-152400000D01*
X70282299Y-152233370D01*
X70330903Y-152073145D01*
X70409831Y-151925480D01*
X70516051Y-151796051D01*
X70645480Y-151689831D01*
X70793145Y-151610903D01*
X70953370Y-151562299D01*
X71078248Y-151550000D01*
X71161752Y-151550000D01*
X71286630Y-151562299D01*
X71286630Y-151562299D01*
G37*
G36*
X53506630Y-151562299D02*
X53666855Y-151610903D01*
X53814520Y-151689831D01*
X53943949Y-151796051D01*
X54050169Y-151925480D01*
X54129097Y-152073145D01*
X54177701Y-152233370D01*
X54194112Y-152400000D01*
X54177701Y-152566630D01*
X54129097Y-152726855D01*
X54050169Y-152874520D01*
X53943949Y-153003949D01*
X53814520Y-153110169D01*
X53666855Y-153189097D01*
X53506630Y-153237701D01*
X53381752Y-153250000D01*
X53298248Y-153250000D01*
X53173370Y-153237701D01*
X53013145Y-153189097D01*
X52865480Y-153110169D01*
X52736051Y-153003949D01*
X52629831Y-152874520D01*
X52550903Y-152726855D01*
X52502299Y-152566630D01*
X52485888Y-152400000D01*
X52502299Y-152233370D01*
X52550903Y-152073145D01*
X52629831Y-151925480D01*
X52736051Y-151796051D01*
X52865480Y-151689831D01*
X53013145Y-151610903D01*
X53173370Y-151562299D01*
X53298248Y-151550000D01*
X53381752Y-151550000D01*
X53506630Y-151562299D01*
X53506630Y-151562299D01*
G37*
G36*
X56046630Y-151562299D02*
X56206855Y-151610903D01*
X56354520Y-151689831D01*
X56483949Y-151796051D01*
X56590169Y-151925480D01*
X56669097Y-152073145D01*
X56717701Y-152233370D01*
X56734112Y-152400000D01*
X56717701Y-152566630D01*
X56669097Y-152726855D01*
X56590169Y-152874520D01*
X56483949Y-153003949D01*
X56354520Y-153110169D01*
X56206855Y-153189097D01*
X56046630Y-153237701D01*
X55921752Y-153250000D01*
X55838248Y-153250000D01*
X55713370Y-153237701D01*
X55553145Y-153189097D01*
X55405480Y-153110169D01*
X55276051Y-153003949D01*
X55169831Y-152874520D01*
X55090903Y-152726855D01*
X55042299Y-152566630D01*
X55025888Y-152400000D01*
X55042299Y-152233370D01*
X55090903Y-152073145D01*
X55169831Y-151925480D01*
X55276051Y-151796051D01*
X55405480Y-151689831D01*
X55553145Y-151610903D01*
X55713370Y-151562299D01*
X55838248Y-151550000D01*
X55921752Y-151550000D01*
X56046630Y-151562299D01*
X56046630Y-151562299D01*
G37*
G36*
X68746630Y-151562299D02*
X68906855Y-151610903D01*
X69054520Y-151689831D01*
X69183949Y-151796051D01*
X69290169Y-151925480D01*
X69369097Y-152073145D01*
X69417701Y-152233370D01*
X69434112Y-152400000D01*
X69417701Y-152566630D01*
X69369097Y-152726855D01*
X69290169Y-152874520D01*
X69183949Y-153003949D01*
X69054520Y-153110169D01*
X68906855Y-153189097D01*
X68746630Y-153237701D01*
X68621752Y-153250000D01*
X68538248Y-153250000D01*
X68413370Y-153237701D01*
X68253145Y-153189097D01*
X68105480Y-153110169D01*
X67976051Y-153003949D01*
X67869831Y-152874520D01*
X67790903Y-152726855D01*
X67742299Y-152566630D01*
X67725888Y-152400000D01*
X67742299Y-152233370D01*
X67790903Y-152073145D01*
X67869831Y-151925480D01*
X67976051Y-151796051D01*
X68105480Y-151689831D01*
X68253145Y-151610903D01*
X68413370Y-151562299D01*
X68538248Y-151550000D01*
X68621752Y-151550000D01*
X68746630Y-151562299D01*
X68746630Y-151562299D01*
G37*
G36*
X58586630Y-151562299D02*
X58746855Y-151610903D01*
X58894520Y-151689831D01*
X59023949Y-151796051D01*
X59130169Y-151925480D01*
X59209097Y-152073145D01*
X59257701Y-152233370D01*
X59274112Y-152400000D01*
X59257701Y-152566630D01*
X59209097Y-152726855D01*
X59130169Y-152874520D01*
X59023949Y-153003949D01*
X58894520Y-153110169D01*
X58746855Y-153189097D01*
X58586630Y-153237701D01*
X58461752Y-153250000D01*
X58378248Y-153250000D01*
X58253370Y-153237701D01*
X58093145Y-153189097D01*
X57945480Y-153110169D01*
X57816051Y-153003949D01*
X57709831Y-152874520D01*
X57630903Y-152726855D01*
X57582299Y-152566630D01*
X57565888Y-152400000D01*
X57582299Y-152233370D01*
X57630903Y-152073145D01*
X57709831Y-151925480D01*
X57816051Y-151796051D01*
X57945480Y-151689831D01*
X58093145Y-151610903D01*
X58253370Y-151562299D01*
X58378248Y-151550000D01*
X58461752Y-151550000D01*
X58586630Y-151562299D01*
X58586630Y-151562299D01*
G37*
G36*
X73826630Y-151562299D02*
X73986855Y-151610903D01*
X74134520Y-151689831D01*
X74263949Y-151796051D01*
X74370169Y-151925480D01*
X74449097Y-152073145D01*
X74497701Y-152233370D01*
X74514112Y-152400000D01*
X74497701Y-152566630D01*
X74449097Y-152726855D01*
X74370169Y-152874520D01*
X74263949Y-153003949D01*
X74134520Y-153110169D01*
X73986855Y-153189097D01*
X73826630Y-153237701D01*
X73701752Y-153250000D01*
X73618248Y-153250000D01*
X73493370Y-153237701D01*
X73333145Y-153189097D01*
X73185480Y-153110169D01*
X73056051Y-153003949D01*
X72949831Y-152874520D01*
X72870903Y-152726855D01*
X72822299Y-152566630D01*
X72805888Y-152400000D01*
X72822299Y-152233370D01*
X72870903Y-152073145D01*
X72949831Y-151925480D01*
X73056051Y-151796051D01*
X73185480Y-151689831D01*
X73333145Y-151610903D01*
X73493370Y-151562299D01*
X73618248Y-151550000D01*
X73701752Y-151550000D01*
X73826630Y-151562299D01*
X73826630Y-151562299D01*
G37*
G36*
X66206630Y-151562299D02*
X66366855Y-151610903D01*
X66514520Y-151689831D01*
X66643949Y-151796051D01*
X66750169Y-151925480D01*
X66829097Y-152073145D01*
X66877701Y-152233370D01*
X66894112Y-152400000D01*
X66877701Y-152566630D01*
X66829097Y-152726855D01*
X66750169Y-152874520D01*
X66643949Y-153003949D01*
X66514520Y-153110169D01*
X66366855Y-153189097D01*
X66206630Y-153237701D01*
X66081752Y-153250000D01*
X65998248Y-153250000D01*
X65873370Y-153237701D01*
X65713145Y-153189097D01*
X65565480Y-153110169D01*
X65436051Y-153003949D01*
X65329831Y-152874520D01*
X65250903Y-152726855D01*
X65202299Y-152566630D01*
X65185888Y-152400000D01*
X65202299Y-152233370D01*
X65250903Y-152073145D01*
X65329831Y-151925480D01*
X65436051Y-151796051D01*
X65565480Y-151689831D01*
X65713145Y-151610903D01*
X65873370Y-151562299D01*
X65998248Y-151550000D01*
X66081752Y-151550000D01*
X66206630Y-151562299D01*
X66206630Y-151562299D01*
G37*
G36*
X63666630Y-151562299D02*
X63826855Y-151610903D01*
X63974520Y-151689831D01*
X64103949Y-151796051D01*
X64210169Y-151925480D01*
X64289097Y-152073145D01*
X64337701Y-152233370D01*
X64354112Y-152400000D01*
X64337701Y-152566630D01*
X64289097Y-152726855D01*
X64210169Y-152874520D01*
X64103949Y-153003949D01*
X63974520Y-153110169D01*
X63826855Y-153189097D01*
X63666630Y-153237701D01*
X63541752Y-153250000D01*
X63458248Y-153250000D01*
X63333370Y-153237701D01*
X63173145Y-153189097D01*
X63025480Y-153110169D01*
X62896051Y-153003949D01*
X62789831Y-152874520D01*
X62710903Y-152726855D01*
X62662299Y-152566630D01*
X62645888Y-152400000D01*
X62662299Y-152233370D01*
X62710903Y-152073145D01*
X62789831Y-151925480D01*
X62896051Y-151796051D01*
X63025480Y-151689831D01*
X63173145Y-151610903D01*
X63333370Y-151562299D01*
X63458248Y-151550000D01*
X63541752Y-151550000D01*
X63666630Y-151562299D01*
X63666630Y-151562299D01*
G37*
G36*
X53506630Y-75362299D02*
X53666855Y-75410903D01*
X53814520Y-75489831D01*
X53943949Y-75596051D01*
X54050169Y-75725480D01*
X54129097Y-75873145D01*
X54177701Y-76033370D01*
X54194112Y-76200000D01*
X54177701Y-76366630D01*
X54129097Y-76526855D01*
X54050169Y-76674520D01*
X53943949Y-76803949D01*
X53814520Y-76910169D01*
X53666855Y-76989097D01*
X53506630Y-77037701D01*
X53381752Y-77050000D01*
X53298248Y-77050000D01*
X53173370Y-77037701D01*
X53013145Y-76989097D01*
X52865480Y-76910169D01*
X52736051Y-76803949D01*
X52629831Y-76674520D01*
X52550903Y-76526855D01*
X52502299Y-76366630D01*
X52485888Y-76200000D01*
X52502299Y-76033370D01*
X52550903Y-75873145D01*
X52629831Y-75725480D01*
X52736051Y-75596051D01*
X52865480Y-75489831D01*
X53013145Y-75410903D01*
X53173370Y-75362299D01*
X53298248Y-75350000D01*
X53381752Y-75350000D01*
X53506630Y-75362299D01*
X53506630Y-75362299D01*
G37*
G36*
X73826630Y-75362299D02*
X73986855Y-75410903D01*
X74134520Y-75489831D01*
X74263949Y-75596051D01*
X74370169Y-75725480D01*
X74449097Y-75873145D01*
X74497701Y-76033370D01*
X74514112Y-76200000D01*
X74497701Y-76366630D01*
X74449097Y-76526855D01*
X74370169Y-76674520D01*
X74263949Y-76803949D01*
X74134520Y-76910169D01*
X73986855Y-76989097D01*
X73826630Y-77037701D01*
X73701752Y-77050000D01*
X73618248Y-77050000D01*
X73493370Y-77037701D01*
X73333145Y-76989097D01*
X73185480Y-76910169D01*
X73056051Y-76803949D01*
X72949831Y-76674520D01*
X72870903Y-76526855D01*
X72822299Y-76366630D01*
X72805888Y-76200000D01*
X72822299Y-76033370D01*
X72870903Y-75873145D01*
X72949831Y-75725480D01*
X73056051Y-75596051D01*
X73185480Y-75489831D01*
X73333145Y-75410903D01*
X73493370Y-75362299D01*
X73618248Y-75350000D01*
X73701752Y-75350000D01*
X73826630Y-75362299D01*
X73826630Y-75362299D01*
G37*
G36*
X71286630Y-75362299D02*
X71446855Y-75410903D01*
X71594520Y-75489831D01*
X71723949Y-75596051D01*
X71830169Y-75725480D01*
X71909097Y-75873145D01*
X71957701Y-76033370D01*
X71974112Y-76200000D01*
X71957701Y-76366630D01*
X71909097Y-76526855D01*
X71830169Y-76674520D01*
X71723949Y-76803949D01*
X71594520Y-76910169D01*
X71446855Y-76989097D01*
X71286630Y-77037701D01*
X71161752Y-77050000D01*
X71078248Y-77050000D01*
X70953370Y-77037701D01*
X70793145Y-76989097D01*
X70645480Y-76910169D01*
X70516051Y-76803949D01*
X70409831Y-76674520D01*
X70330903Y-76526855D01*
X70282299Y-76366630D01*
X70265888Y-76200000D01*
X70282299Y-76033370D01*
X70330903Y-75873145D01*
X70409831Y-75725480D01*
X70516051Y-75596051D01*
X70645480Y-75489831D01*
X70793145Y-75410903D01*
X70953370Y-75362299D01*
X71078248Y-75350000D01*
X71161752Y-75350000D01*
X71286630Y-75362299D01*
X71286630Y-75362299D01*
G37*
G36*
X68746630Y-75362299D02*
X68906855Y-75410903D01*
X69054520Y-75489831D01*
X69183949Y-75596051D01*
X69290169Y-75725480D01*
X69369097Y-75873145D01*
X69417701Y-76033370D01*
X69434112Y-76200000D01*
X69417701Y-76366630D01*
X69369097Y-76526855D01*
X69290169Y-76674520D01*
X69183949Y-76803949D01*
X69054520Y-76910169D01*
X68906855Y-76989097D01*
X68746630Y-77037701D01*
X68621752Y-77050000D01*
X68538248Y-77050000D01*
X68413370Y-77037701D01*
X68253145Y-76989097D01*
X68105480Y-76910169D01*
X67976051Y-76803949D01*
X67869831Y-76674520D01*
X67790903Y-76526855D01*
X67742299Y-76366630D01*
X67725888Y-76200000D01*
X67742299Y-76033370D01*
X67790903Y-75873145D01*
X67869831Y-75725480D01*
X67976051Y-75596051D01*
X68105480Y-75489831D01*
X68253145Y-75410903D01*
X68413370Y-75362299D01*
X68538248Y-75350000D01*
X68621752Y-75350000D01*
X68746630Y-75362299D01*
X68746630Y-75362299D01*
G37*
G36*
X66206630Y-75362299D02*
X66366855Y-75410903D01*
X66514520Y-75489831D01*
X66643949Y-75596051D01*
X66750169Y-75725480D01*
X66829097Y-75873145D01*
X66877701Y-76033370D01*
X66894112Y-76200000D01*
X66877701Y-76366630D01*
X66829097Y-76526855D01*
X66750169Y-76674520D01*
X66643949Y-76803949D01*
X66514520Y-76910169D01*
X66366855Y-76989097D01*
X66206630Y-77037701D01*
X66081752Y-77050000D01*
X65998248Y-77050000D01*
X65873370Y-77037701D01*
X65713145Y-76989097D01*
X65565480Y-76910169D01*
X65436051Y-76803949D01*
X65329831Y-76674520D01*
X65250903Y-76526855D01*
X65202299Y-76366630D01*
X65185888Y-76200000D01*
X65202299Y-76033370D01*
X65250903Y-75873145D01*
X65329831Y-75725480D01*
X65436051Y-75596051D01*
X65565480Y-75489831D01*
X65713145Y-75410903D01*
X65873370Y-75362299D01*
X65998248Y-75350000D01*
X66081752Y-75350000D01*
X66206630Y-75362299D01*
X66206630Y-75362299D01*
G37*
G36*
X63666630Y-75362299D02*
X63826855Y-75410903D01*
X63974520Y-75489831D01*
X64103949Y-75596051D01*
X64210169Y-75725480D01*
X64289097Y-75873145D01*
X64337701Y-76033370D01*
X64354112Y-76200000D01*
X64337701Y-76366630D01*
X64289097Y-76526855D01*
X64210169Y-76674520D01*
X64103949Y-76803949D01*
X63974520Y-76910169D01*
X63826855Y-76989097D01*
X63666630Y-77037701D01*
X63541752Y-77050000D01*
X63458248Y-77050000D01*
X63333370Y-77037701D01*
X63173145Y-76989097D01*
X63025480Y-76910169D01*
X62896051Y-76803949D01*
X62789831Y-76674520D01*
X62710903Y-76526855D01*
X62662299Y-76366630D01*
X62645888Y-76200000D01*
X62662299Y-76033370D01*
X62710903Y-75873145D01*
X62789831Y-75725480D01*
X62896051Y-75596051D01*
X63025480Y-75489831D01*
X63173145Y-75410903D01*
X63333370Y-75362299D01*
X63458248Y-75350000D01*
X63541752Y-75350000D01*
X63666630Y-75362299D01*
X63666630Y-75362299D01*
G37*
G36*
X61126630Y-75362299D02*
X61286855Y-75410903D01*
X61434520Y-75489831D01*
X61563949Y-75596051D01*
X61670169Y-75725480D01*
X61749097Y-75873145D01*
X61797701Y-76033370D01*
X61814112Y-76200000D01*
X61797701Y-76366630D01*
X61749097Y-76526855D01*
X61670169Y-76674520D01*
X61563949Y-76803949D01*
X61434520Y-76910169D01*
X61286855Y-76989097D01*
X61126630Y-77037701D01*
X61001752Y-77050000D01*
X60918248Y-77050000D01*
X60793370Y-77037701D01*
X60633145Y-76989097D01*
X60485480Y-76910169D01*
X60356051Y-76803949D01*
X60249831Y-76674520D01*
X60170903Y-76526855D01*
X60122299Y-76366630D01*
X60105888Y-76200000D01*
X60122299Y-76033370D01*
X60170903Y-75873145D01*
X60249831Y-75725480D01*
X60356051Y-75596051D01*
X60485480Y-75489831D01*
X60633145Y-75410903D01*
X60793370Y-75362299D01*
X60918248Y-75350000D01*
X61001752Y-75350000D01*
X61126630Y-75362299D01*
X61126630Y-75362299D01*
G37*
G36*
X58586630Y-75362299D02*
X58746855Y-75410903D01*
X58894520Y-75489831D01*
X59023949Y-75596051D01*
X59130169Y-75725480D01*
X59209097Y-75873145D01*
X59257701Y-76033370D01*
X59274112Y-76200000D01*
X59257701Y-76366630D01*
X59209097Y-76526855D01*
X59130169Y-76674520D01*
X59023949Y-76803949D01*
X58894520Y-76910169D01*
X58746855Y-76989097D01*
X58586630Y-77037701D01*
X58461752Y-77050000D01*
X58378248Y-77050000D01*
X58253370Y-77037701D01*
X58093145Y-76989097D01*
X57945480Y-76910169D01*
X57816051Y-76803949D01*
X57709831Y-76674520D01*
X57630903Y-76526855D01*
X57582299Y-76366630D01*
X57565888Y-76200000D01*
X57582299Y-76033370D01*
X57630903Y-75873145D01*
X57709831Y-75725480D01*
X57816051Y-75596051D01*
X57945480Y-75489831D01*
X58093145Y-75410903D01*
X58253370Y-75362299D01*
X58378248Y-75350000D01*
X58461752Y-75350000D01*
X58586630Y-75362299D01*
X58586630Y-75362299D01*
G37*
G36*
X51650000Y-77050000D02*
X49950000Y-77050000D01*
X49950000Y-75350000D01*
X51650000Y-75350000D01*
X51650000Y-77050000D01*
X51650000Y-77050000D01*
G37*
G36*
X56046630Y-75362299D02*
X56206855Y-75410903D01*
X56354520Y-75489831D01*
X56483949Y-75596051D01*
X56590169Y-75725480D01*
X56669097Y-75873145D01*
X56717701Y-76033370D01*
X56734112Y-76200000D01*
X56717701Y-76366630D01*
X56669097Y-76526855D01*
X56590169Y-76674520D01*
X56483949Y-76803949D01*
X56354520Y-76910169D01*
X56206855Y-76989097D01*
X56046630Y-77037701D01*
X55921752Y-77050000D01*
X55838248Y-77050000D01*
X55713370Y-77037701D01*
X55553145Y-76989097D01*
X55405480Y-76910169D01*
X55276051Y-76803949D01*
X55169831Y-76674520D01*
X55090903Y-76526855D01*
X55042299Y-76366630D01*
X55025888Y-76200000D01*
X55042299Y-76033370D01*
X55090903Y-75873145D01*
X55169831Y-75725480D01*
X55276051Y-75596051D01*
X55405480Y-75489831D01*
X55553145Y-75410903D01*
X55713370Y-75362299D01*
X55838248Y-75350000D01*
X55921752Y-75350000D01*
X56046630Y-75362299D01*
X56046630Y-75362299D01*
G37*
G36*
X58586630Y-72822299D02*
X58746855Y-72870903D01*
X58894520Y-72949831D01*
X59023949Y-73056051D01*
X59130169Y-73185480D01*
X59209097Y-73333145D01*
X59257701Y-73493370D01*
X59274112Y-73660000D01*
X59257701Y-73826630D01*
X59209097Y-73986855D01*
X59130169Y-74134520D01*
X59023949Y-74263949D01*
X58894520Y-74370169D01*
X58746855Y-74449097D01*
X58586630Y-74497701D01*
X58461752Y-74510000D01*
X58378248Y-74510000D01*
X58253370Y-74497701D01*
X58093145Y-74449097D01*
X57945480Y-74370169D01*
X57816051Y-74263949D01*
X57709831Y-74134520D01*
X57630903Y-73986855D01*
X57582299Y-73826630D01*
X57565888Y-73660000D01*
X57582299Y-73493370D01*
X57630903Y-73333145D01*
X57709831Y-73185480D01*
X57816051Y-73056051D01*
X57945480Y-72949831D01*
X58093145Y-72870903D01*
X58253370Y-72822299D01*
X58378248Y-72810000D01*
X58461752Y-72810000D01*
X58586630Y-72822299D01*
X58586630Y-72822299D01*
G37*
G36*
X68746630Y-72822299D02*
X68906855Y-72870903D01*
X69054520Y-72949831D01*
X69183949Y-73056051D01*
X69290169Y-73185480D01*
X69369097Y-73333145D01*
X69417701Y-73493370D01*
X69434112Y-73660000D01*
X69417701Y-73826630D01*
X69369097Y-73986855D01*
X69290169Y-74134520D01*
X69183949Y-74263949D01*
X69054520Y-74370169D01*
X68906855Y-74449097D01*
X68746630Y-74497701D01*
X68621752Y-74510000D01*
X68538248Y-74510000D01*
X68413370Y-74497701D01*
X68253145Y-74449097D01*
X68105480Y-74370169D01*
X67976051Y-74263949D01*
X67869831Y-74134520D01*
X67790903Y-73986855D01*
X67742299Y-73826630D01*
X67725888Y-73660000D01*
X67742299Y-73493370D01*
X67790903Y-73333145D01*
X67869831Y-73185480D01*
X67976051Y-73056051D01*
X68105480Y-72949831D01*
X68253145Y-72870903D01*
X68413370Y-72822299D01*
X68538248Y-72810000D01*
X68621752Y-72810000D01*
X68746630Y-72822299D01*
X68746630Y-72822299D01*
G37*
G36*
X56046630Y-72822299D02*
X56206855Y-72870903D01*
X56354520Y-72949831D01*
X56483949Y-73056051D01*
X56590169Y-73185480D01*
X56669097Y-73333145D01*
X56717701Y-73493370D01*
X56734112Y-73660000D01*
X56717701Y-73826630D01*
X56669097Y-73986855D01*
X56590169Y-74134520D01*
X56483949Y-74263949D01*
X56354520Y-74370169D01*
X56206855Y-74449097D01*
X56046630Y-74497701D01*
X55921752Y-74510000D01*
X55838248Y-74510000D01*
X55713370Y-74497701D01*
X55553145Y-74449097D01*
X55405480Y-74370169D01*
X55276051Y-74263949D01*
X55169831Y-74134520D01*
X55090903Y-73986855D01*
X55042299Y-73826630D01*
X55025888Y-73660000D01*
X55042299Y-73493370D01*
X55090903Y-73333145D01*
X55169831Y-73185480D01*
X55276051Y-73056051D01*
X55405480Y-72949831D01*
X55553145Y-72870903D01*
X55713370Y-72822299D01*
X55838248Y-72810000D01*
X55921752Y-72810000D01*
X56046630Y-72822299D01*
X56046630Y-72822299D01*
G37*
G36*
X61126630Y-72822299D02*
X61286855Y-72870903D01*
X61434520Y-72949831D01*
X61563949Y-73056051D01*
X61670169Y-73185480D01*
X61749097Y-73333145D01*
X61797701Y-73493370D01*
X61814112Y-73660000D01*
X61797701Y-73826630D01*
X61749097Y-73986855D01*
X61670169Y-74134520D01*
X61563949Y-74263949D01*
X61434520Y-74370169D01*
X61286855Y-74449097D01*
X61126630Y-74497701D01*
X61001752Y-74510000D01*
X60918248Y-74510000D01*
X60793370Y-74497701D01*
X60633145Y-74449097D01*
X60485480Y-74370169D01*
X60356051Y-74263949D01*
X60249831Y-74134520D01*
X60170903Y-73986855D01*
X60122299Y-73826630D01*
X60105888Y-73660000D01*
X60122299Y-73493370D01*
X60170903Y-73333145D01*
X60249831Y-73185480D01*
X60356051Y-73056051D01*
X60485480Y-72949831D01*
X60633145Y-72870903D01*
X60793370Y-72822299D01*
X60918248Y-72810000D01*
X61001752Y-72810000D01*
X61126630Y-72822299D01*
X61126630Y-72822299D01*
G37*
G36*
X53506630Y-72822299D02*
X53666855Y-72870903D01*
X53814520Y-72949831D01*
X53943949Y-73056051D01*
X54050169Y-73185480D01*
X54129097Y-73333145D01*
X54177701Y-73493370D01*
X54194112Y-73660000D01*
X54177701Y-73826630D01*
X54129097Y-73986855D01*
X54050169Y-74134520D01*
X53943949Y-74263949D01*
X53814520Y-74370169D01*
X53666855Y-74449097D01*
X53506630Y-74497701D01*
X53381752Y-74510000D01*
X53298248Y-74510000D01*
X53173370Y-74497701D01*
X53013145Y-74449097D01*
X52865480Y-74370169D01*
X52736051Y-74263949D01*
X52629831Y-74134520D01*
X52550903Y-73986855D01*
X52502299Y-73826630D01*
X52485888Y-73660000D01*
X52502299Y-73493370D01*
X52550903Y-73333145D01*
X52629831Y-73185480D01*
X52736051Y-73056051D01*
X52865480Y-72949831D01*
X53013145Y-72870903D01*
X53173370Y-72822299D01*
X53298248Y-72810000D01*
X53381752Y-72810000D01*
X53506630Y-72822299D01*
X53506630Y-72822299D01*
G37*
G36*
X63666630Y-72822299D02*
X63826855Y-72870903D01*
X63974520Y-72949831D01*
X64103949Y-73056051D01*
X64210169Y-73185480D01*
X64289097Y-73333145D01*
X64337701Y-73493370D01*
X64354112Y-73660000D01*
X64337701Y-73826630D01*
X64289097Y-73986855D01*
X64210169Y-74134520D01*
X64103949Y-74263949D01*
X63974520Y-74370169D01*
X63826855Y-74449097D01*
X63666630Y-74497701D01*
X63541752Y-74510000D01*
X63458248Y-74510000D01*
X63333370Y-74497701D01*
X63173145Y-74449097D01*
X63025480Y-74370169D01*
X62896051Y-74263949D01*
X62789831Y-74134520D01*
X62710903Y-73986855D01*
X62662299Y-73826630D01*
X62645888Y-73660000D01*
X62662299Y-73493370D01*
X62710903Y-73333145D01*
X62789831Y-73185480D01*
X62896051Y-73056051D01*
X63025480Y-72949831D01*
X63173145Y-72870903D01*
X63333370Y-72822299D01*
X63458248Y-72810000D01*
X63541752Y-72810000D01*
X63666630Y-72822299D01*
X63666630Y-72822299D01*
G37*
G36*
X66206630Y-72822299D02*
X66366855Y-72870903D01*
X66514520Y-72949831D01*
X66643949Y-73056051D01*
X66750169Y-73185480D01*
X66829097Y-73333145D01*
X66877701Y-73493370D01*
X66894112Y-73660000D01*
X66877701Y-73826630D01*
X66829097Y-73986855D01*
X66750169Y-74134520D01*
X66643949Y-74263949D01*
X66514520Y-74370169D01*
X66366855Y-74449097D01*
X66206630Y-74497701D01*
X66081752Y-74510000D01*
X65998248Y-74510000D01*
X65873370Y-74497701D01*
X65713145Y-74449097D01*
X65565480Y-74370169D01*
X65436051Y-74263949D01*
X65329831Y-74134520D01*
X65250903Y-73986855D01*
X65202299Y-73826630D01*
X65185888Y-73660000D01*
X65202299Y-73493370D01*
X65250903Y-73333145D01*
X65329831Y-73185480D01*
X65436051Y-73056051D01*
X65565480Y-72949831D01*
X65713145Y-72870903D01*
X65873370Y-72822299D01*
X65998248Y-72810000D01*
X66081752Y-72810000D01*
X66206630Y-72822299D01*
X66206630Y-72822299D01*
G37*
G36*
X50966630Y-72822299D02*
X51126855Y-72870903D01*
X51274520Y-72949831D01*
X51403949Y-73056051D01*
X51510169Y-73185480D01*
X51589097Y-73333145D01*
X51637701Y-73493370D01*
X51654112Y-73660000D01*
X51637701Y-73826630D01*
X51589097Y-73986855D01*
X51510169Y-74134520D01*
X51403949Y-74263949D01*
X51274520Y-74370169D01*
X51126855Y-74449097D01*
X50966630Y-74497701D01*
X50841752Y-74510000D01*
X50758248Y-74510000D01*
X50633370Y-74497701D01*
X50473145Y-74449097D01*
X50325480Y-74370169D01*
X50196051Y-74263949D01*
X50089831Y-74134520D01*
X50010903Y-73986855D01*
X49962299Y-73826630D01*
X49945888Y-73660000D01*
X49962299Y-73493370D01*
X50010903Y-73333145D01*
X50089831Y-73185480D01*
X50196051Y-73056051D01*
X50325480Y-72949831D01*
X50473145Y-72870903D01*
X50633370Y-72822299D01*
X50758248Y-72810000D01*
X50841752Y-72810000D01*
X50966630Y-72822299D01*
X50966630Y-72822299D01*
G37*
G36*
X71286630Y-72822299D02*
X71446855Y-72870903D01*
X71594520Y-72949831D01*
X71723949Y-73056051D01*
X71830169Y-73185480D01*
X71909097Y-73333145D01*
X71957701Y-73493370D01*
X71974112Y-73660000D01*
X71957701Y-73826630D01*
X71909097Y-73986855D01*
X71830169Y-74134520D01*
X71723949Y-74263949D01*
X71594520Y-74370169D01*
X71446855Y-74449097D01*
X71286630Y-74497701D01*
X71161752Y-74510000D01*
X71078248Y-74510000D01*
X70953370Y-74497701D01*
X70793145Y-74449097D01*
X70645480Y-74370169D01*
X70516051Y-74263949D01*
X70409831Y-74134520D01*
X70330903Y-73986855D01*
X70282299Y-73826630D01*
X70265888Y-73660000D01*
X70282299Y-73493370D01*
X70330903Y-73333145D01*
X70409831Y-73185480D01*
X70516051Y-73056051D01*
X70645480Y-72949831D01*
X70793145Y-72870903D01*
X70953370Y-72822299D01*
X71078248Y-72810000D01*
X71161752Y-72810000D01*
X71286630Y-72822299D01*
X71286630Y-72822299D01*
G37*
G36*
X73826630Y-72822299D02*
X73986855Y-72870903D01*
X74134520Y-72949831D01*
X74263949Y-73056051D01*
X74370169Y-73185480D01*
X74449097Y-73333145D01*
X74497701Y-73493370D01*
X74514112Y-73660000D01*
X74497701Y-73826630D01*
X74449097Y-73986855D01*
X74370169Y-74134520D01*
X74263949Y-74263949D01*
X74134520Y-74370169D01*
X73986855Y-74449097D01*
X73826630Y-74497701D01*
X73701752Y-74510000D01*
X73618248Y-74510000D01*
X73493370Y-74497701D01*
X73333145Y-74449097D01*
X73185480Y-74370169D01*
X73056051Y-74263949D01*
X72949831Y-74134520D01*
X72870903Y-73986855D01*
X72822299Y-73826630D01*
X72805888Y-73660000D01*
X72822299Y-73493370D01*
X72870903Y-73333145D01*
X72949831Y-73185480D01*
X73056051Y-73056051D01*
X73185480Y-72949831D01*
X73333145Y-72870903D01*
X73493370Y-72822299D01*
X73618248Y-72810000D01*
X73701752Y-72810000D01*
X73826630Y-72822299D01*
X73826630Y-72822299D01*
G37*
M02*
