G04 #@! TF.GenerationSoftware,KiCad,Pcbnew,5.0.2-bee76a0~70~ubuntu18.04.1*
G04 #@! TF.CreationDate,2019-10-25T10:51:07+02:00*
G04 #@! TF.ProjectId,atecc,61746563-632e-46b6-9963-61645f706362,rev?*
G04 #@! TF.SameCoordinates,Original*
G04 #@! TF.FileFunction,Legend,Top*
G04 #@! TF.FilePolarity,Positive*
%FSLAX46Y46*%
G04 Gerber Fmt 4.6, Leading zero omitted, Abs format (unit mm)*
G04 Created by KiCad (PCBNEW 5.0.2-bee76a0~70~ubuntu18.04.1) date ven. 25 oct. 2019 10:51:07 CEST*
%MOMM*%
%LPD*%
G01*
G04 APERTURE LIST*
%ADD10C,0.300000*%
%ADD11C,0.150000*%
%ADD12C,0.010000*%
G04 APERTURE END LIST*
D10*
X47962857Y-119272857D02*
X48177142Y-119344285D01*
X48248571Y-119415714D01*
X48320000Y-119558571D01*
X48320000Y-119772857D01*
X48248571Y-119915714D01*
X48177142Y-119987142D01*
X48034285Y-120058571D01*
X47462857Y-120058571D01*
X47462857Y-118558571D01*
X47962857Y-118558571D01*
X48105714Y-118630000D01*
X48177142Y-118701428D01*
X48248571Y-118844285D01*
X48248571Y-118987142D01*
X48177142Y-119130000D01*
X48105714Y-119201428D01*
X47962857Y-119272857D01*
X47462857Y-119272857D01*
X49605714Y-120058571D02*
X49605714Y-119272857D01*
X49534285Y-119130000D01*
X49391428Y-119058571D01*
X49105714Y-119058571D01*
X48962857Y-119130000D01*
X49605714Y-119987142D02*
X49462857Y-120058571D01*
X49105714Y-120058571D01*
X48962857Y-119987142D01*
X48891428Y-119844285D01*
X48891428Y-119701428D01*
X48962857Y-119558571D01*
X49105714Y-119487142D01*
X49462857Y-119487142D01*
X49605714Y-119415714D01*
X50962857Y-119987142D02*
X50820000Y-120058571D01*
X50534285Y-120058571D01*
X50391428Y-119987142D01*
X50320000Y-119915714D01*
X50248571Y-119772857D01*
X50248571Y-119344285D01*
X50320000Y-119201428D01*
X50391428Y-119130000D01*
X50534285Y-119058571D01*
X50820000Y-119058571D01*
X50962857Y-119130000D01*
X51605714Y-120058571D02*
X51605714Y-118558571D01*
X51748571Y-119487142D02*
X52177142Y-120058571D01*
X52177142Y-119058571D02*
X51605714Y-119630000D01*
X52748571Y-119987142D02*
X52891428Y-120058571D01*
X53177142Y-120058571D01*
X53320000Y-119987142D01*
X53391428Y-119844285D01*
X53391428Y-119772857D01*
X53320000Y-119630000D01*
X53177142Y-119558571D01*
X52962857Y-119558571D01*
X52820000Y-119487142D01*
X52748571Y-119344285D01*
X52748571Y-119272857D01*
X52820000Y-119130000D01*
X52962857Y-119058571D01*
X53177142Y-119058571D01*
X53320000Y-119130000D01*
X54034285Y-120058571D02*
X54034285Y-119058571D01*
X54034285Y-118558571D02*
X53962857Y-118630000D01*
X54034285Y-118701428D01*
X54105714Y-118630000D01*
X54034285Y-118558571D01*
X54034285Y-118701428D01*
X55391428Y-120058571D02*
X55391428Y-118558571D01*
X55391428Y-119987142D02*
X55248571Y-120058571D01*
X54962857Y-120058571D01*
X54820000Y-119987142D01*
X54748571Y-119915714D01*
X54677142Y-119772857D01*
X54677142Y-119344285D01*
X54748571Y-119201428D01*
X54820000Y-119130000D01*
X54962857Y-119058571D01*
X55248571Y-119058571D01*
X55391428Y-119130000D01*
X56677142Y-119987142D02*
X56534285Y-120058571D01*
X56248571Y-120058571D01*
X56105714Y-119987142D01*
X56034285Y-119844285D01*
X56034285Y-119272857D01*
X56105714Y-119130000D01*
X56248571Y-119058571D01*
X56534285Y-119058571D01*
X56677142Y-119130000D01*
X56748571Y-119272857D01*
X56748571Y-119415714D01*
X56034285Y-119558571D01*
X47748571Y-109112857D02*
X47248571Y-109112857D01*
X47248571Y-109898571D02*
X47248571Y-108398571D01*
X47962857Y-108398571D01*
X48534285Y-109898571D02*
X48534285Y-108898571D01*
X48534285Y-109184285D02*
X48605714Y-109041428D01*
X48677142Y-108970000D01*
X48820000Y-108898571D01*
X48962857Y-108898571D01*
X49677142Y-109898571D02*
X49534285Y-109827142D01*
X49462857Y-109755714D01*
X49391428Y-109612857D01*
X49391428Y-109184285D01*
X49462857Y-109041428D01*
X49534285Y-108970000D01*
X49677142Y-108898571D01*
X49891428Y-108898571D01*
X50034285Y-108970000D01*
X50105714Y-109041428D01*
X50177142Y-109184285D01*
X50177142Y-109612857D01*
X50105714Y-109755714D01*
X50034285Y-109827142D01*
X49891428Y-109898571D01*
X49677142Y-109898571D01*
X50820000Y-108898571D02*
X50820000Y-109898571D01*
X50820000Y-109041428D02*
X50891428Y-108970000D01*
X51034285Y-108898571D01*
X51248571Y-108898571D01*
X51391428Y-108970000D01*
X51462857Y-109112857D01*
X51462857Y-109898571D01*
X51962857Y-108898571D02*
X52534285Y-108898571D01*
X52177142Y-108398571D02*
X52177142Y-109684285D01*
X52248571Y-109827142D01*
X52391428Y-109898571D01*
X52534285Y-109898571D01*
X52962857Y-109827142D02*
X53105714Y-109898571D01*
X53391428Y-109898571D01*
X53534285Y-109827142D01*
X53605714Y-109684285D01*
X53605714Y-109612857D01*
X53534285Y-109470000D01*
X53391428Y-109398571D01*
X53177142Y-109398571D01*
X53034285Y-109327142D01*
X52962857Y-109184285D01*
X52962857Y-109112857D01*
X53034285Y-108970000D01*
X53177142Y-108898571D01*
X53391428Y-108898571D01*
X53534285Y-108970000D01*
X54248571Y-109898571D02*
X54248571Y-108898571D01*
X54248571Y-108398571D02*
X54177142Y-108470000D01*
X54248571Y-108541428D01*
X54320000Y-108470000D01*
X54248571Y-108398571D01*
X54248571Y-108541428D01*
X55605714Y-109898571D02*
X55605714Y-108398571D01*
X55605714Y-109827142D02*
X55462857Y-109898571D01*
X55177142Y-109898571D01*
X55034285Y-109827142D01*
X54962857Y-109755714D01*
X54891428Y-109612857D01*
X54891428Y-109184285D01*
X54962857Y-109041428D01*
X55034285Y-108970000D01*
X55177142Y-108898571D01*
X55462857Y-108898571D01*
X55605714Y-108970000D01*
X56891428Y-109827142D02*
X56748571Y-109898571D01*
X56462857Y-109898571D01*
X56320000Y-109827142D01*
X56248571Y-109684285D01*
X56248571Y-109112857D01*
X56320000Y-108970000D01*
X56462857Y-108898571D01*
X56748571Y-108898571D01*
X56891428Y-108970000D01*
X56962857Y-109112857D01*
X56962857Y-109255714D01*
X56248571Y-109398571D01*
X58340571Y-117264571D02*
X57483428Y-117264571D01*
X57912000Y-117264571D02*
X57912000Y-115764571D01*
X57769142Y-115978857D01*
X57626285Y-116121714D01*
X57483428Y-116193142D01*
X58340571Y-112946571D02*
X57483428Y-112946571D01*
X57912000Y-112946571D02*
X57912000Y-111446571D01*
X57769142Y-111660857D01*
X57626285Y-111803714D01*
X57483428Y-111875142D01*
D11*
X73249285Y-150961071D02*
X73999285Y-150711071D01*
X73249285Y-150461071D01*
X73999285Y-150211071D02*
X73249285Y-150211071D01*
X73249285Y-150032500D01*
X73285000Y-149925357D01*
X73356428Y-149853928D01*
X73427857Y-149818214D01*
X73570714Y-149782500D01*
X73677857Y-149782500D01*
X73820714Y-149818214D01*
X73892142Y-149853928D01*
X73963571Y-149925357D01*
X73999285Y-150032500D01*
X73999285Y-150211071D01*
X73999285Y-149461071D02*
X73249285Y-149461071D01*
X73249285Y-149282500D01*
X73285000Y-149175357D01*
X73356428Y-149103928D01*
X73427857Y-149068214D01*
X73570714Y-149032500D01*
X73677857Y-149032500D01*
X73820714Y-149068214D01*
X73892142Y-149103928D01*
X73963571Y-149175357D01*
X73999285Y-149282500D01*
X73999285Y-149461071D01*
X73785000Y-148746785D02*
X73785000Y-148389642D01*
X73999285Y-148818214D02*
X73249285Y-148568214D01*
X73999285Y-148318214D01*
X70709285Y-150961071D02*
X71459285Y-150711071D01*
X70709285Y-150461071D01*
X71459285Y-150211071D02*
X70709285Y-150211071D01*
X70709285Y-150032500D01*
X70745000Y-149925357D01*
X70816428Y-149853928D01*
X70887857Y-149818214D01*
X71030714Y-149782500D01*
X71137857Y-149782500D01*
X71280714Y-149818214D01*
X71352142Y-149853928D01*
X71423571Y-149925357D01*
X71459285Y-150032500D01*
X71459285Y-150211071D01*
X71459285Y-149461071D02*
X70709285Y-149461071D01*
X70709285Y-149282500D01*
X70745000Y-149175357D01*
X70816428Y-149103928D01*
X70887857Y-149068214D01*
X71030714Y-149032500D01*
X71137857Y-149032500D01*
X71280714Y-149068214D01*
X71352142Y-149103928D01*
X71423571Y-149175357D01*
X71459285Y-149282500D01*
X71459285Y-149461071D01*
X68919285Y-150853928D02*
X68169285Y-150853928D01*
X68169285Y-150675357D01*
X68205000Y-150568214D01*
X68276428Y-150496785D01*
X68347857Y-150461071D01*
X68490714Y-150425357D01*
X68597857Y-150425357D01*
X68740714Y-150461071D01*
X68812142Y-150496785D01*
X68883571Y-150568214D01*
X68919285Y-150675357D01*
X68919285Y-150853928D01*
X68919285Y-149711071D02*
X68919285Y-150139642D01*
X68919285Y-149925357D02*
X68169285Y-149925357D01*
X68276428Y-149996785D01*
X68347857Y-150068214D01*
X68383571Y-150139642D01*
X68419285Y-149068214D02*
X68919285Y-149068214D01*
X68133571Y-149246785D02*
X68669285Y-149425357D01*
X68669285Y-148961071D01*
X66379285Y-150853928D02*
X65629285Y-150853928D01*
X65629285Y-150675357D01*
X65665000Y-150568214D01*
X65736428Y-150496785D01*
X65807857Y-150461071D01*
X65950714Y-150425357D01*
X66057857Y-150425357D01*
X66200714Y-150461071D01*
X66272142Y-150496785D01*
X66343571Y-150568214D01*
X66379285Y-150675357D01*
X66379285Y-150853928D01*
X66379285Y-149711071D02*
X66379285Y-150139642D01*
X66379285Y-149925357D02*
X65629285Y-149925357D01*
X65736428Y-149996785D01*
X65807857Y-150068214D01*
X65843571Y-150139642D01*
X65700714Y-149425357D02*
X65665000Y-149389642D01*
X65629285Y-149318214D01*
X65629285Y-149139642D01*
X65665000Y-149068214D01*
X65700714Y-149032500D01*
X65772142Y-148996785D01*
X65843571Y-148996785D01*
X65950714Y-149032500D01*
X66379285Y-149461071D01*
X66379285Y-148996785D01*
X63839285Y-150853928D02*
X63089285Y-150853928D01*
X63089285Y-150675357D01*
X63125000Y-150568214D01*
X63196428Y-150496785D01*
X63267857Y-150461071D01*
X63410714Y-150425357D01*
X63517857Y-150425357D01*
X63660714Y-150461071D01*
X63732142Y-150496785D01*
X63803571Y-150568214D01*
X63839285Y-150675357D01*
X63839285Y-150853928D01*
X63839285Y-149711071D02*
X63839285Y-150139642D01*
X63839285Y-149925357D02*
X63089285Y-149925357D01*
X63196428Y-149996785D01*
X63267857Y-150068214D01*
X63303571Y-150139642D01*
X63089285Y-149246785D02*
X63089285Y-149175357D01*
X63125000Y-149103928D01*
X63160714Y-149068214D01*
X63232142Y-149032500D01*
X63375000Y-148996785D01*
X63553571Y-148996785D01*
X63696428Y-149032500D01*
X63767857Y-149068214D01*
X63803571Y-149103928D01*
X63839285Y-149175357D01*
X63839285Y-149246785D01*
X63803571Y-149318214D01*
X63767857Y-149353928D01*
X63696428Y-149389642D01*
X63553571Y-149425357D01*
X63375000Y-149425357D01*
X63232142Y-149389642D01*
X63160714Y-149353928D01*
X63125000Y-149318214D01*
X63089285Y-149246785D01*
X61299285Y-150853928D02*
X60549285Y-150853928D01*
X60549285Y-150675357D01*
X60585000Y-150568214D01*
X60656428Y-150496785D01*
X60727857Y-150461071D01*
X60870714Y-150425357D01*
X60977857Y-150425357D01*
X61120714Y-150461071D01*
X61192142Y-150496785D01*
X61263571Y-150568214D01*
X61299285Y-150675357D01*
X61299285Y-150853928D01*
X60870714Y-149996785D02*
X60835000Y-150068214D01*
X60799285Y-150103928D01*
X60727857Y-150139642D01*
X60692142Y-150139642D01*
X60620714Y-150103928D01*
X60585000Y-150068214D01*
X60549285Y-149996785D01*
X60549285Y-149853928D01*
X60585000Y-149782500D01*
X60620714Y-149746785D01*
X60692142Y-149711071D01*
X60727857Y-149711071D01*
X60799285Y-149746785D01*
X60835000Y-149782500D01*
X60870714Y-149853928D01*
X60870714Y-149996785D01*
X60906428Y-150068214D01*
X60942142Y-150103928D01*
X61013571Y-150139642D01*
X61156428Y-150139642D01*
X61227857Y-150103928D01*
X61263571Y-150068214D01*
X61299285Y-149996785D01*
X61299285Y-149853928D01*
X61263571Y-149782500D01*
X61227857Y-149746785D01*
X61156428Y-149711071D01*
X61013571Y-149711071D01*
X60942142Y-149746785D01*
X60906428Y-149782500D01*
X60870714Y-149853928D01*
X58759285Y-150853928D02*
X58009285Y-150853928D01*
X58009285Y-150675357D01*
X58045000Y-150568214D01*
X58116428Y-150496785D01*
X58187857Y-150461071D01*
X58330714Y-150425357D01*
X58437857Y-150425357D01*
X58580714Y-150461071D01*
X58652142Y-150496785D01*
X58723571Y-150568214D01*
X58759285Y-150675357D01*
X58759285Y-150853928D01*
X58009285Y-149782500D02*
X58009285Y-149925357D01*
X58045000Y-149996785D01*
X58080714Y-150032500D01*
X58187857Y-150103928D01*
X58330714Y-150139642D01*
X58616428Y-150139642D01*
X58687857Y-150103928D01*
X58723571Y-150068214D01*
X58759285Y-149996785D01*
X58759285Y-149853928D01*
X58723571Y-149782500D01*
X58687857Y-149746785D01*
X58616428Y-149711071D01*
X58437857Y-149711071D01*
X58366428Y-149746785D01*
X58330714Y-149782500D01*
X58295000Y-149853928D01*
X58295000Y-149996785D01*
X58330714Y-150068214D01*
X58366428Y-150103928D01*
X58437857Y-150139642D01*
X56219285Y-150853928D02*
X55469285Y-150853928D01*
X55469285Y-150675357D01*
X55505000Y-150568214D01*
X55576428Y-150496785D01*
X55647857Y-150461071D01*
X55790714Y-150425357D01*
X55897857Y-150425357D01*
X56040714Y-150461071D01*
X56112142Y-150496785D01*
X56183571Y-150568214D01*
X56219285Y-150675357D01*
X56219285Y-150853928D01*
X55719285Y-149782500D02*
X56219285Y-149782500D01*
X55433571Y-149961071D02*
X55969285Y-150139642D01*
X55969285Y-149675357D01*
X53679285Y-150853928D02*
X52929285Y-150853928D01*
X52929285Y-150675357D01*
X52965000Y-150568214D01*
X53036428Y-150496785D01*
X53107857Y-150461071D01*
X53250714Y-150425357D01*
X53357857Y-150425357D01*
X53500714Y-150461071D01*
X53572142Y-150496785D01*
X53643571Y-150568214D01*
X53679285Y-150675357D01*
X53679285Y-150853928D01*
X53000714Y-150139642D02*
X52965000Y-150103928D01*
X52929285Y-150032500D01*
X52929285Y-149853928D01*
X52965000Y-149782500D01*
X53000714Y-149746785D01*
X53072142Y-149711071D01*
X53143571Y-149711071D01*
X53250714Y-149746785D01*
X53679285Y-150175357D01*
X53679285Y-149711071D01*
X51139285Y-150853928D02*
X50389285Y-150853928D01*
X50389285Y-150675357D01*
X50425000Y-150568214D01*
X50496428Y-150496785D01*
X50567857Y-150461071D01*
X50710714Y-150425357D01*
X50817857Y-150425357D01*
X50960714Y-150461071D01*
X51032142Y-150496785D01*
X51103571Y-150568214D01*
X51139285Y-150675357D01*
X51139285Y-150853928D01*
X50389285Y-149961071D02*
X50389285Y-149889642D01*
X50425000Y-149818214D01*
X50460714Y-149782500D01*
X50532142Y-149746785D01*
X50675000Y-149711071D01*
X50853571Y-149711071D01*
X50996428Y-149746785D01*
X51067857Y-149782500D01*
X51103571Y-149818214D01*
X51139285Y-149889642D01*
X51139285Y-149961071D01*
X51103571Y-150032500D01*
X51067857Y-150068214D01*
X50996428Y-150103928D01*
X50853571Y-150139642D01*
X50675000Y-150139642D01*
X50532142Y-150103928D01*
X50460714Y-150068214D01*
X50425000Y-150032500D01*
X50389285Y-149961071D01*
X51139285Y-157593214D02*
X50389285Y-157593214D01*
X50389285Y-157414642D01*
X50425000Y-157307500D01*
X50496428Y-157236071D01*
X50567857Y-157200357D01*
X50710714Y-157164642D01*
X50817857Y-157164642D01*
X50960714Y-157200357D01*
X51032142Y-157236071D01*
X51103571Y-157307500D01*
X51139285Y-157414642D01*
X51139285Y-157593214D01*
X51139285Y-156450357D02*
X51139285Y-156878928D01*
X51139285Y-156664642D02*
X50389285Y-156664642D01*
X50496428Y-156736071D01*
X50567857Y-156807500D01*
X50603571Y-156878928D01*
X53679285Y-157593214D02*
X52929285Y-157593214D01*
X52929285Y-157414642D01*
X52965000Y-157307500D01*
X53036428Y-157236071D01*
X53107857Y-157200357D01*
X53250714Y-157164642D01*
X53357857Y-157164642D01*
X53500714Y-157200357D01*
X53572142Y-157236071D01*
X53643571Y-157307500D01*
X53679285Y-157414642D01*
X53679285Y-157593214D01*
X52929285Y-156914642D02*
X52929285Y-156450357D01*
X53215000Y-156700357D01*
X53215000Y-156593214D01*
X53250714Y-156521785D01*
X53286428Y-156486071D01*
X53357857Y-156450357D01*
X53536428Y-156450357D01*
X53607857Y-156486071D01*
X53643571Y-156521785D01*
X53679285Y-156593214D01*
X53679285Y-156807500D01*
X53643571Y-156878928D01*
X53607857Y-156914642D01*
X56219285Y-157593214D02*
X55469285Y-157593214D01*
X55469285Y-157414642D01*
X55505000Y-157307500D01*
X55576428Y-157236071D01*
X55647857Y-157200357D01*
X55790714Y-157164642D01*
X55897857Y-157164642D01*
X56040714Y-157200357D01*
X56112142Y-157236071D01*
X56183571Y-157307500D01*
X56219285Y-157414642D01*
X56219285Y-157593214D01*
X55469285Y-156486071D02*
X55469285Y-156843214D01*
X55826428Y-156878928D01*
X55790714Y-156843214D01*
X55755000Y-156771785D01*
X55755000Y-156593214D01*
X55790714Y-156521785D01*
X55826428Y-156486071D01*
X55897857Y-156450357D01*
X56076428Y-156450357D01*
X56147857Y-156486071D01*
X56183571Y-156521785D01*
X56219285Y-156593214D01*
X56219285Y-156771785D01*
X56183571Y-156843214D01*
X56147857Y-156878928D01*
X58759285Y-157593214D02*
X58009285Y-157593214D01*
X58009285Y-157414642D01*
X58045000Y-157307500D01*
X58116428Y-157236071D01*
X58187857Y-157200357D01*
X58330714Y-157164642D01*
X58437857Y-157164642D01*
X58580714Y-157200357D01*
X58652142Y-157236071D01*
X58723571Y-157307500D01*
X58759285Y-157414642D01*
X58759285Y-157593214D01*
X58009285Y-156914642D02*
X58009285Y-156414642D01*
X58759285Y-156736071D01*
X61299285Y-157593214D02*
X60549285Y-157593214D01*
X60549285Y-157414642D01*
X60585000Y-157307500D01*
X60656428Y-157236071D01*
X60727857Y-157200357D01*
X60870714Y-157164642D01*
X60977857Y-157164642D01*
X61120714Y-157200357D01*
X61192142Y-157236071D01*
X61263571Y-157307500D01*
X61299285Y-157414642D01*
X61299285Y-157593214D01*
X61299285Y-156807500D02*
X61299285Y-156664642D01*
X61263571Y-156593214D01*
X61227857Y-156557500D01*
X61120714Y-156486071D01*
X60977857Y-156450357D01*
X60692142Y-156450357D01*
X60620714Y-156486071D01*
X60585000Y-156521785D01*
X60549285Y-156593214D01*
X60549285Y-156736071D01*
X60585000Y-156807500D01*
X60620714Y-156843214D01*
X60692142Y-156878928D01*
X60870714Y-156878928D01*
X60942142Y-156843214D01*
X60977857Y-156807500D01*
X61013571Y-156736071D01*
X61013571Y-156593214D01*
X60977857Y-156521785D01*
X60942142Y-156486071D01*
X60870714Y-156450357D01*
X63839285Y-158307500D02*
X63089285Y-158307500D01*
X63089285Y-158128928D01*
X63125000Y-158021785D01*
X63196428Y-157950357D01*
X63267857Y-157914642D01*
X63410714Y-157878928D01*
X63517857Y-157878928D01*
X63660714Y-157914642D01*
X63732142Y-157950357D01*
X63803571Y-158021785D01*
X63839285Y-158128928D01*
X63839285Y-158307500D01*
X63839285Y-157164642D02*
X63839285Y-157593214D01*
X63839285Y-157378928D02*
X63089285Y-157378928D01*
X63196428Y-157450357D01*
X63267857Y-157521785D01*
X63303571Y-157593214D01*
X63839285Y-156450357D02*
X63839285Y-156878928D01*
X63839285Y-156664642D02*
X63089285Y-156664642D01*
X63196428Y-156736071D01*
X63267857Y-156807500D01*
X63303571Y-156878928D01*
X66379285Y-158307500D02*
X65629285Y-158307500D01*
X65629285Y-158128928D01*
X65665000Y-158021785D01*
X65736428Y-157950357D01*
X65807857Y-157914642D01*
X65950714Y-157878928D01*
X66057857Y-157878928D01*
X66200714Y-157914642D01*
X66272142Y-157950357D01*
X66343571Y-158021785D01*
X66379285Y-158128928D01*
X66379285Y-158307500D01*
X66379285Y-157164642D02*
X66379285Y-157593214D01*
X66379285Y-157378928D02*
X65629285Y-157378928D01*
X65736428Y-157450357D01*
X65807857Y-157521785D01*
X65843571Y-157593214D01*
X65629285Y-156914642D02*
X65629285Y-156450357D01*
X65915000Y-156700357D01*
X65915000Y-156593214D01*
X65950714Y-156521785D01*
X65986428Y-156486071D01*
X66057857Y-156450357D01*
X66236428Y-156450357D01*
X66307857Y-156486071D01*
X66343571Y-156521785D01*
X66379285Y-156593214D01*
X66379285Y-156807500D01*
X66343571Y-156878928D01*
X66307857Y-156914642D01*
X68919285Y-158307500D02*
X68169285Y-158307500D01*
X68169285Y-158128928D01*
X68205000Y-158021785D01*
X68276428Y-157950357D01*
X68347857Y-157914642D01*
X68490714Y-157878928D01*
X68597857Y-157878928D01*
X68740714Y-157914642D01*
X68812142Y-157950357D01*
X68883571Y-158021785D01*
X68919285Y-158128928D01*
X68919285Y-158307500D01*
X68919285Y-157164642D02*
X68919285Y-157593214D01*
X68919285Y-157378928D02*
X68169285Y-157378928D01*
X68276428Y-157450357D01*
X68347857Y-157521785D01*
X68383571Y-157593214D01*
X68169285Y-156486071D02*
X68169285Y-156843214D01*
X68526428Y-156878928D01*
X68490714Y-156843214D01*
X68455000Y-156771785D01*
X68455000Y-156593214D01*
X68490714Y-156521785D01*
X68526428Y-156486071D01*
X68597857Y-156450357D01*
X68776428Y-156450357D01*
X68847857Y-156486071D01*
X68883571Y-156521785D01*
X68919285Y-156593214D01*
X68919285Y-156771785D01*
X68883571Y-156843214D01*
X68847857Y-156878928D01*
X70745000Y-158021785D02*
X70709285Y-158093214D01*
X70709285Y-158200357D01*
X70745000Y-158307500D01*
X70816428Y-158378928D01*
X70887857Y-158414642D01*
X71030714Y-158450357D01*
X71137857Y-158450357D01*
X71280714Y-158414642D01*
X71352142Y-158378928D01*
X71423571Y-158307500D01*
X71459285Y-158200357D01*
X71459285Y-158128928D01*
X71423571Y-158021785D01*
X71387857Y-157986071D01*
X71137857Y-157986071D01*
X71137857Y-158128928D01*
X71459285Y-157664642D02*
X70709285Y-157664642D01*
X71459285Y-157236071D01*
X70709285Y-157236071D01*
X71459285Y-156878928D02*
X70709285Y-156878928D01*
X70709285Y-156700357D01*
X70745000Y-156593214D01*
X70816428Y-156521785D01*
X70887857Y-156486071D01*
X71030714Y-156450357D01*
X71137857Y-156450357D01*
X71280714Y-156486071D01*
X71352142Y-156521785D01*
X71423571Y-156593214D01*
X71459285Y-156700357D01*
X71459285Y-156878928D01*
X73285000Y-158664642D02*
X73249285Y-158736071D01*
X73249285Y-158843214D01*
X73285000Y-158950357D01*
X73356428Y-159021785D01*
X73427857Y-159057500D01*
X73570714Y-159093214D01*
X73677857Y-159093214D01*
X73820714Y-159057500D01*
X73892142Y-159021785D01*
X73963571Y-158950357D01*
X73999285Y-158843214D01*
X73999285Y-158771785D01*
X73963571Y-158664642D01*
X73927857Y-158628928D01*
X73677857Y-158628928D01*
X73677857Y-158771785D01*
X73999285Y-158307500D02*
X73249285Y-158307500D01*
X73999285Y-157878928D01*
X73249285Y-157878928D01*
X73999285Y-157521785D02*
X73249285Y-157521785D01*
X73249285Y-157343214D01*
X73285000Y-157236071D01*
X73356428Y-157164642D01*
X73427857Y-157128928D01*
X73570714Y-157093214D01*
X73677857Y-157093214D01*
X73820714Y-157128928D01*
X73892142Y-157164642D01*
X73963571Y-157236071D01*
X73999285Y-157343214D01*
X73999285Y-157521785D01*
X73785000Y-156807500D02*
X73785000Y-156450357D01*
X73999285Y-156878928D02*
X73249285Y-156628928D01*
X73999285Y-156378928D01*
D10*
X48229999Y-80260000D02*
X48944285Y-80260000D01*
X48087142Y-80688571D02*
X48587142Y-79188571D01*
X49087142Y-80688571D01*
X49372857Y-79188571D02*
X50229999Y-79188571D01*
X49801428Y-80688571D02*
X49801428Y-79188571D01*
X50729999Y-79902857D02*
X51229999Y-79902857D01*
X51444285Y-80688571D02*
X50729999Y-80688571D01*
X50729999Y-79188571D01*
X51444285Y-79188571D01*
X52944285Y-80545714D02*
X52872857Y-80617142D01*
X52658571Y-80688571D01*
X52515714Y-80688571D01*
X52301428Y-80617142D01*
X52158571Y-80474285D01*
X52087142Y-80331428D01*
X52015714Y-80045714D01*
X52015714Y-79831428D01*
X52087142Y-79545714D01*
X52158571Y-79402857D01*
X52301428Y-79260000D01*
X52515714Y-79188571D01*
X52658571Y-79188571D01*
X52872857Y-79260000D01*
X52944285Y-79331428D01*
X54444285Y-80545714D02*
X54372857Y-80617142D01*
X54158571Y-80688571D01*
X54015714Y-80688571D01*
X53801428Y-80617142D01*
X53658571Y-80474285D01*
X53587142Y-80331428D01*
X53515714Y-80045714D01*
X53515714Y-79831428D01*
X53587142Y-79545714D01*
X53658571Y-79402857D01*
X53801428Y-79260000D01*
X54015714Y-79188571D01*
X54158571Y-79188571D01*
X54372857Y-79260000D01*
X54444285Y-79331428D01*
X55801428Y-79188571D02*
X55087142Y-79188571D01*
X55015714Y-79902857D01*
X55087142Y-79831428D01*
X55229999Y-79760000D01*
X55587142Y-79760000D01*
X55729999Y-79831428D01*
X55801428Y-79902857D01*
X55872857Y-80045714D01*
X55872857Y-80402857D01*
X55801428Y-80545714D01*
X55729999Y-80617142D01*
X55587142Y-80688571D01*
X55229999Y-80688571D01*
X55087142Y-80617142D01*
X55015714Y-80545714D01*
X56801428Y-79188571D02*
X56944285Y-79188571D01*
X57087142Y-79260000D01*
X57158571Y-79331428D01*
X57229999Y-79474285D01*
X57301428Y-79760000D01*
X57301428Y-80117142D01*
X57229999Y-80402857D01*
X57158571Y-80545714D01*
X57087142Y-80617142D01*
X56944285Y-80688571D01*
X56801428Y-80688571D01*
X56658571Y-80617142D01*
X56587142Y-80545714D01*
X56515714Y-80402857D01*
X56444285Y-80117142D01*
X56444285Y-79760000D01*
X56515714Y-79474285D01*
X56587142Y-79331428D01*
X56658571Y-79260000D01*
X56801428Y-79188571D01*
X58158571Y-79831428D02*
X58015714Y-79760000D01*
X57944285Y-79688571D01*
X57872857Y-79545714D01*
X57872857Y-79474285D01*
X57944285Y-79331428D01*
X58015714Y-79260000D01*
X58158571Y-79188571D01*
X58444285Y-79188571D01*
X58587142Y-79260000D01*
X58658571Y-79331428D01*
X58729999Y-79474285D01*
X58729999Y-79545714D01*
X58658571Y-79688571D01*
X58587142Y-79760000D01*
X58444285Y-79831428D01*
X58158571Y-79831428D01*
X58015714Y-79902857D01*
X57944285Y-79974285D01*
X57872857Y-80117142D01*
X57872857Y-80402857D01*
X57944285Y-80545714D01*
X58015714Y-80617142D01*
X58158571Y-80688571D01*
X58444285Y-80688571D01*
X58587142Y-80617142D01*
X58658571Y-80545714D01*
X58729999Y-80402857D01*
X58729999Y-80117142D01*
X58658571Y-79974285D01*
X58587142Y-79902857D01*
X58444285Y-79831428D01*
X59301428Y-80260000D02*
X60015714Y-80260000D01*
X59158571Y-80688571D02*
X59658571Y-79188571D01*
X60158571Y-80688571D01*
X62872857Y-79117142D02*
X61587142Y-81045714D01*
X64444285Y-80260000D02*
X65158571Y-80260000D01*
X64301428Y-80688571D02*
X64801428Y-79188571D01*
X65301428Y-80688571D01*
X65587142Y-79188571D02*
X66444285Y-79188571D01*
X66015714Y-80688571D02*
X66015714Y-79188571D01*
X66944285Y-79902857D02*
X67444285Y-79902857D01*
X67658571Y-80688571D02*
X66944285Y-80688571D01*
X66944285Y-79188571D01*
X67658571Y-79188571D01*
X69158571Y-80545714D02*
X69087142Y-80617142D01*
X68872857Y-80688571D01*
X68730000Y-80688571D01*
X68515714Y-80617142D01*
X68372857Y-80474285D01*
X68301428Y-80331428D01*
X68230000Y-80045714D01*
X68230000Y-79831428D01*
X68301428Y-79545714D01*
X68372857Y-79402857D01*
X68515714Y-79260000D01*
X68730000Y-79188571D01*
X68872857Y-79188571D01*
X69087142Y-79260000D01*
X69158571Y-79331428D01*
X70658571Y-80545714D02*
X70587142Y-80617142D01*
X70372857Y-80688571D01*
X70230000Y-80688571D01*
X70015714Y-80617142D01*
X69872857Y-80474285D01*
X69801428Y-80331428D01*
X69730000Y-80045714D01*
X69730000Y-79831428D01*
X69801428Y-79545714D01*
X69872857Y-79402857D01*
X70015714Y-79260000D01*
X70230000Y-79188571D01*
X70372857Y-79188571D01*
X70587142Y-79260000D01*
X70658571Y-79331428D01*
X71944285Y-79188571D02*
X71658571Y-79188571D01*
X71515714Y-79260000D01*
X71444285Y-79331428D01*
X71301428Y-79545714D01*
X71230000Y-79831428D01*
X71230000Y-80402857D01*
X71301428Y-80545714D01*
X71372857Y-80617142D01*
X71515714Y-80688571D01*
X71801428Y-80688571D01*
X71944285Y-80617142D01*
X72015714Y-80545714D01*
X72087142Y-80402857D01*
X72087142Y-80045714D01*
X72015714Y-79902857D01*
X71944285Y-79831428D01*
X71801428Y-79760000D01*
X71515714Y-79760000D01*
X71372857Y-79831428D01*
X71301428Y-79902857D01*
X71230000Y-80045714D01*
X73015714Y-79188571D02*
X73158571Y-79188571D01*
X73301428Y-79260000D01*
X73372857Y-79331428D01*
X73444285Y-79474285D01*
X73515714Y-79760000D01*
X73515714Y-80117142D01*
X73444285Y-80402857D01*
X73372857Y-80545714D01*
X73301428Y-80617142D01*
X73158571Y-80688571D01*
X73015714Y-80688571D01*
X72872857Y-80617142D01*
X72801428Y-80545714D01*
X72730000Y-80402857D01*
X72658571Y-80117142D01*
X72658571Y-79760000D01*
X72730000Y-79474285D01*
X72801428Y-79331428D01*
X72872857Y-79260000D01*
X73015714Y-79188571D01*
X74372857Y-79831428D02*
X74230000Y-79760000D01*
X74158571Y-79688571D01*
X74087142Y-79545714D01*
X74087142Y-79474285D01*
X74158571Y-79331428D01*
X74230000Y-79260000D01*
X74372857Y-79188571D01*
X74658571Y-79188571D01*
X74801428Y-79260000D01*
X74872857Y-79331428D01*
X74944285Y-79474285D01*
X74944285Y-79545714D01*
X74872857Y-79688571D01*
X74801428Y-79760000D01*
X74658571Y-79831428D01*
X74372857Y-79831428D01*
X74230000Y-79902857D01*
X74158571Y-79974285D01*
X74087142Y-80117142D01*
X74087142Y-80402857D01*
X74158571Y-80545714D01*
X74230000Y-80617142D01*
X74372857Y-80688571D01*
X74658571Y-80688571D01*
X74801428Y-80617142D01*
X74872857Y-80545714D01*
X74944285Y-80402857D01*
X74944285Y-80117142D01*
X74872857Y-79974285D01*
X74801428Y-79902857D01*
X74658571Y-79831428D01*
X75515714Y-80260000D02*
X76230000Y-80260000D01*
X75372857Y-80688571D02*
X75872857Y-79188571D01*
X76372857Y-80688571D01*
X48812142Y-143548571D02*
X48812142Y-142048571D01*
X49169285Y-142048571D01*
X49383571Y-142120000D01*
X49526428Y-142262857D01*
X49597857Y-142405714D01*
X49669285Y-142691428D01*
X49669285Y-142905714D01*
X49597857Y-143191428D01*
X49526428Y-143334285D01*
X49383571Y-143477142D01*
X49169285Y-143548571D01*
X48812142Y-143548571D01*
X50597857Y-142048571D02*
X50740714Y-142048571D01*
X50883571Y-142120000D01*
X50955000Y-142191428D01*
X51026428Y-142334285D01*
X51097857Y-142620000D01*
X51097857Y-142977142D01*
X51026428Y-143262857D01*
X50955000Y-143405714D01*
X50883571Y-143477142D01*
X50740714Y-143548571D01*
X50597857Y-143548571D01*
X50455000Y-143477142D01*
X50383571Y-143405714D01*
X50312142Y-143262857D01*
X50240714Y-142977142D01*
X50240714Y-142620000D01*
X50312142Y-142334285D01*
X50383571Y-142191428D01*
X50455000Y-142120000D01*
X50597857Y-142048571D01*
X51740714Y-143405714D02*
X51812142Y-143477142D01*
X51740714Y-143548571D01*
X51669285Y-143477142D01*
X51740714Y-143405714D01*
X51740714Y-143548571D01*
X51740714Y-142620000D02*
X51812142Y-142691428D01*
X51740714Y-142762857D01*
X51669285Y-142691428D01*
X51740714Y-142620000D01*
X51740714Y-142762857D01*
X53526428Y-143477142D02*
X53740714Y-143548571D01*
X54097857Y-143548571D01*
X54240714Y-143477142D01*
X54312142Y-143405714D01*
X54383571Y-143262857D01*
X54383571Y-143120000D01*
X54312142Y-142977142D01*
X54240714Y-142905714D01*
X54097857Y-142834285D01*
X53812142Y-142762857D01*
X53669285Y-142691428D01*
X53597857Y-142620000D01*
X53526428Y-142477142D01*
X53526428Y-142334285D01*
X53597857Y-142191428D01*
X53669285Y-142120000D01*
X53812142Y-142048571D01*
X54169285Y-142048571D01*
X54383571Y-142120000D01*
X55026428Y-143548571D02*
X55026428Y-142048571D01*
X55383571Y-142048571D01*
X55597857Y-142120000D01*
X55740714Y-142262857D01*
X55812142Y-142405714D01*
X55883571Y-142691428D01*
X55883571Y-142905714D01*
X55812142Y-143191428D01*
X55740714Y-143334285D01*
X55597857Y-143477142D01*
X55383571Y-143548571D01*
X55026428Y-143548571D01*
X56455000Y-143120000D02*
X57169285Y-143120000D01*
X56312142Y-143548571D02*
X56812142Y-142048571D01*
X57312142Y-143548571D01*
X48812142Y-146098571D02*
X48812142Y-144598571D01*
X49169285Y-144598571D01*
X49383571Y-144670000D01*
X49526428Y-144812857D01*
X49597857Y-144955714D01*
X49669285Y-145241428D01*
X49669285Y-145455714D01*
X49597857Y-145741428D01*
X49526428Y-145884285D01*
X49383571Y-146027142D01*
X49169285Y-146098571D01*
X48812142Y-146098571D01*
X51097857Y-146098571D02*
X50240714Y-146098571D01*
X50669285Y-146098571D02*
X50669285Y-144598571D01*
X50526428Y-144812857D01*
X50383571Y-144955714D01*
X50240714Y-145027142D01*
X51740714Y-145955714D02*
X51812142Y-146027142D01*
X51740714Y-146098571D01*
X51669285Y-146027142D01*
X51740714Y-145955714D01*
X51740714Y-146098571D01*
X51740714Y-145170000D02*
X51812142Y-145241428D01*
X51740714Y-145312857D01*
X51669285Y-145241428D01*
X51740714Y-145170000D01*
X51740714Y-145312857D01*
X53526428Y-146027142D02*
X53740714Y-146098571D01*
X54097857Y-146098571D01*
X54240714Y-146027142D01*
X54312142Y-145955714D01*
X54383571Y-145812857D01*
X54383571Y-145670000D01*
X54312142Y-145527142D01*
X54240714Y-145455714D01*
X54097857Y-145384285D01*
X53812142Y-145312857D01*
X53669285Y-145241428D01*
X53597857Y-145170000D01*
X53526428Y-145027142D01*
X53526428Y-144884285D01*
X53597857Y-144741428D01*
X53669285Y-144670000D01*
X53812142Y-144598571D01*
X54169285Y-144598571D01*
X54383571Y-144670000D01*
X55883571Y-145955714D02*
X55812142Y-146027142D01*
X55597857Y-146098571D01*
X55455000Y-146098571D01*
X55240714Y-146027142D01*
X55097857Y-145884285D01*
X55026428Y-145741428D01*
X54955000Y-145455714D01*
X54955000Y-145241428D01*
X55026428Y-144955714D01*
X55097857Y-144812857D01*
X55240714Y-144670000D01*
X55455000Y-144598571D01*
X55597857Y-144598571D01*
X55812142Y-144670000D01*
X55883571Y-144741428D01*
X57240714Y-146098571D02*
X56526428Y-146098571D01*
X56526428Y-144598571D01*
D11*
G04 #@! TO.C,U2*
X60279791Y-121542755D02*
X60328087Y-121529814D01*
X60279791Y-121542755D02*
X60419850Y-121505226D01*
X64180209Y-116201245D02*
X64040150Y-116238774D01*
X65254309Y-120209837D02*
X65114249Y-120247366D01*
X60279791Y-121542755D02*
X59205691Y-117534163D01*
X65254309Y-120209837D02*
X64180209Y-116201245D01*
X59253988Y-117521222D02*
X58891641Y-116168926D01*
G04 #@! TO.C,U1*
X59205691Y-111065837D02*
X59253988Y-111078778D01*
X60279791Y-107057245D02*
X60419850Y-107094774D01*
X65254309Y-108390163D02*
X65114249Y-108352634D01*
X64180209Y-112398755D02*
X64040150Y-112361226D01*
X59205691Y-111065837D02*
X60279791Y-107057245D01*
X64180209Y-112398755D02*
X65254309Y-108390163D01*
X59253988Y-111078778D02*
X58891641Y-112431074D01*
D12*
G04 #@! TO.C,LOGO1*
G36*
X62230000Y-86619903D02*
X62230000Y-88620600D01*
X62195075Y-88620367D01*
X62167834Y-88615507D01*
X62124917Y-88602722D01*
X62073870Y-88584371D01*
X62052200Y-88575727D01*
X61871186Y-88488797D01*
X61691335Y-88377773D01*
X61514490Y-88243949D01*
X61342496Y-88088621D01*
X61303734Y-88049906D01*
X61117609Y-87842539D01*
X60950004Y-87618433D01*
X60801570Y-87378902D01*
X60672961Y-87125262D01*
X60564831Y-86858827D01*
X60477833Y-86580914D01*
X60412619Y-86292836D01*
X60402447Y-86235293D01*
X60394556Y-86182730D01*
X60386300Y-86117725D01*
X60378050Y-86044507D01*
X60370181Y-85967307D01*
X60363065Y-85890353D01*
X60357074Y-85817876D01*
X60352583Y-85754106D01*
X60349963Y-85703272D01*
X60349588Y-85669605D01*
X60351498Y-85657462D01*
X60363233Y-85650787D01*
X60395199Y-85632936D01*
X60445395Y-85605016D01*
X60511820Y-85568134D01*
X60592472Y-85523398D01*
X60685351Y-85471914D01*
X60788455Y-85414790D01*
X60899783Y-85353133D01*
X61017333Y-85288050D01*
X61139106Y-85220649D01*
X61263098Y-85152037D01*
X61387311Y-85083320D01*
X61509741Y-85015607D01*
X61628388Y-84950004D01*
X61741251Y-84887619D01*
X61846328Y-84829559D01*
X61941618Y-84776931D01*
X62025121Y-84730842D01*
X62094835Y-84692400D01*
X62148759Y-84662711D01*
X62184891Y-84642884D01*
X62201230Y-84634025D01*
X62201425Y-84633924D01*
X62229999Y-84619206D01*
X62230000Y-86619903D01*
X62230000Y-86619903D01*
G37*
X62230000Y-86619903D02*
X62230000Y-88620600D01*
X62195075Y-88620367D01*
X62167834Y-88615507D01*
X62124917Y-88602722D01*
X62073870Y-88584371D01*
X62052200Y-88575727D01*
X61871186Y-88488797D01*
X61691335Y-88377773D01*
X61514490Y-88243949D01*
X61342496Y-88088621D01*
X61303734Y-88049906D01*
X61117609Y-87842539D01*
X60950004Y-87618433D01*
X60801570Y-87378902D01*
X60672961Y-87125262D01*
X60564831Y-86858827D01*
X60477833Y-86580914D01*
X60412619Y-86292836D01*
X60402447Y-86235293D01*
X60394556Y-86182730D01*
X60386300Y-86117725D01*
X60378050Y-86044507D01*
X60370181Y-85967307D01*
X60363065Y-85890353D01*
X60357074Y-85817876D01*
X60352583Y-85754106D01*
X60349963Y-85703272D01*
X60349588Y-85669605D01*
X60351498Y-85657462D01*
X60363233Y-85650787D01*
X60395199Y-85632936D01*
X60445395Y-85605016D01*
X60511820Y-85568134D01*
X60592472Y-85523398D01*
X60685351Y-85471914D01*
X60788455Y-85414790D01*
X60899783Y-85353133D01*
X61017333Y-85288050D01*
X61139106Y-85220649D01*
X61263098Y-85152037D01*
X61387311Y-85083320D01*
X61509741Y-85015607D01*
X61628388Y-84950004D01*
X61741251Y-84887619D01*
X61846328Y-84829559D01*
X61941618Y-84776931D01*
X62025121Y-84730842D01*
X62094835Y-84692400D01*
X62148759Y-84662711D01*
X62184891Y-84642884D01*
X62201230Y-84634025D01*
X62201425Y-84633924D01*
X62229999Y-84619206D01*
X62230000Y-86619903D01*
G36*
X63144236Y-86069237D02*
X63204478Y-86096905D01*
X63263178Y-86143017D01*
X63317583Y-86206291D01*
X63364943Y-86285447D01*
X63366688Y-86289000D01*
X63389039Y-86339309D01*
X63405684Y-86389025D01*
X63417193Y-86442688D01*
X63424133Y-86504840D01*
X63427076Y-86580022D01*
X63426590Y-86672775D01*
X63424525Y-86750290D01*
X63417450Y-86969130D01*
X62900800Y-86734650D01*
X62906716Y-86487000D01*
X62909784Y-86387088D01*
X62914140Y-86308805D01*
X62920533Y-86248388D01*
X62929710Y-86202070D01*
X62942422Y-86166087D01*
X62959417Y-86136674D01*
X62981444Y-86110067D01*
X62981773Y-86109716D01*
X63030132Y-86074361D01*
X63085204Y-86061296D01*
X63144236Y-86069237D01*
X63144236Y-86069237D01*
G37*
X63144236Y-86069237D02*
X63204478Y-86096905D01*
X63263178Y-86143017D01*
X63317583Y-86206291D01*
X63364943Y-86285447D01*
X63366688Y-86289000D01*
X63389039Y-86339309D01*
X63405684Y-86389025D01*
X63417193Y-86442688D01*
X63424133Y-86504840D01*
X63427076Y-86580022D01*
X63426590Y-86672775D01*
X63424525Y-86750290D01*
X63417450Y-86969130D01*
X62900800Y-86734650D01*
X62906716Y-86487000D01*
X62909784Y-86387088D01*
X62914140Y-86308805D01*
X62920533Y-86248388D01*
X62929710Y-86202070D01*
X62942422Y-86166087D01*
X62959417Y-86136674D01*
X62981444Y-86110067D01*
X62981773Y-86109716D01*
X63030132Y-86074361D01*
X63085204Y-86061296D01*
X63144236Y-86069237D01*
G36*
X62255770Y-84118073D02*
X62288501Y-84135307D01*
X62339714Y-84162772D01*
X62407538Y-84199440D01*
X62490097Y-84244283D01*
X62585520Y-84296270D01*
X62691933Y-84354374D01*
X62807463Y-84417565D01*
X62930237Y-84484815D01*
X63058381Y-84555094D01*
X63190023Y-84627375D01*
X63323289Y-84700627D01*
X63456306Y-84773822D01*
X63587202Y-84845932D01*
X63714102Y-84915927D01*
X63835134Y-84982778D01*
X63948424Y-85045457D01*
X64052099Y-85102935D01*
X64144287Y-85154183D01*
X64223114Y-85198172D01*
X64286707Y-85233873D01*
X64319150Y-85252241D01*
X64359821Y-85276960D01*
X64389448Y-85298009D01*
X64403081Y-85311764D01*
X64403328Y-85313887D01*
X64393354Y-85327744D01*
X64370233Y-85356041D01*
X64337280Y-85394994D01*
X64297814Y-85440820D01*
X64255151Y-85489737D01*
X64212609Y-85537961D01*
X64173504Y-85581708D01*
X64141153Y-85617195D01*
X64118875Y-85640640D01*
X64110106Y-85648320D01*
X64098218Y-85642221D01*
X64065772Y-85624674D01*
X64014401Y-85596584D01*
X63945744Y-85558853D01*
X63861434Y-85512385D01*
X63763109Y-85458082D01*
X63652405Y-85396848D01*
X63530956Y-85329586D01*
X63400400Y-85257199D01*
X63262371Y-85180591D01*
X63169800Y-85129170D01*
X62236350Y-84610500D01*
X62232906Y-84361300D01*
X62232133Y-84266004D01*
X62232828Y-84194762D01*
X62235047Y-84146267D01*
X62238844Y-84119213D01*
X62243394Y-84112100D01*
X62255770Y-84118073D01*
X62255770Y-84118073D01*
G37*
X62255770Y-84118073D02*
X62288501Y-84135307D01*
X62339714Y-84162772D01*
X62407538Y-84199440D01*
X62490097Y-84244283D01*
X62585520Y-84296270D01*
X62691933Y-84354374D01*
X62807463Y-84417565D01*
X62930237Y-84484815D01*
X63058381Y-84555094D01*
X63190023Y-84627375D01*
X63323289Y-84700627D01*
X63456306Y-84773822D01*
X63587202Y-84845932D01*
X63714102Y-84915927D01*
X63835134Y-84982778D01*
X63948424Y-85045457D01*
X64052099Y-85102935D01*
X64144287Y-85154183D01*
X64223114Y-85198172D01*
X64286707Y-85233873D01*
X64319150Y-85252241D01*
X64359821Y-85276960D01*
X64389448Y-85298009D01*
X64403081Y-85311764D01*
X64403328Y-85313887D01*
X64393354Y-85327744D01*
X64370233Y-85356041D01*
X64337280Y-85394994D01*
X64297814Y-85440820D01*
X64255151Y-85489737D01*
X64212609Y-85537961D01*
X64173504Y-85581708D01*
X64141153Y-85617195D01*
X64118875Y-85640640D01*
X64110106Y-85648320D01*
X64098218Y-85642221D01*
X64065772Y-85624674D01*
X64014401Y-85596584D01*
X63945744Y-85558853D01*
X63861434Y-85512385D01*
X63763109Y-85458082D01*
X63652405Y-85396848D01*
X63530956Y-85329586D01*
X63400400Y-85257199D01*
X63262371Y-85180591D01*
X63169800Y-85129170D01*
X62236350Y-84610500D01*
X62232906Y-84361300D01*
X62232133Y-84266004D01*
X62232828Y-84194762D01*
X62235047Y-84146267D01*
X62238844Y-84119213D01*
X62243394Y-84112100D01*
X62255770Y-84118073D01*
G36*
X62226943Y-83456167D02*
X62227402Y-83580854D01*
X62227468Y-83697775D01*
X62227167Y-83804484D01*
X62226522Y-83898533D01*
X62225557Y-83977476D01*
X62224298Y-84038865D01*
X62222766Y-84080253D01*
X62220988Y-84099194D01*
X62220593Y-84100084D01*
X62208155Y-84107460D01*
X62175319Y-84126037D01*
X62123948Y-84154787D01*
X62055908Y-84192683D01*
X61973063Y-84238696D01*
X61877276Y-84291799D01*
X61770412Y-84350964D01*
X61654335Y-84415163D01*
X61530909Y-84483368D01*
X61401999Y-84554552D01*
X61269468Y-84627686D01*
X61135182Y-84701743D01*
X61001003Y-84775695D01*
X60868797Y-84848514D01*
X60740428Y-84919173D01*
X60617759Y-84986642D01*
X60502655Y-85049896D01*
X60396981Y-85107905D01*
X60302600Y-85159642D01*
X60221376Y-85204080D01*
X60155175Y-85240189D01*
X60105859Y-85266943D01*
X60075294Y-85283314D01*
X60065556Y-85288259D01*
X60060994Y-85288098D01*
X60057177Y-85282468D01*
X60054041Y-85269350D01*
X60051519Y-85246727D01*
X60049547Y-85212582D01*
X60048059Y-85164897D01*
X60046991Y-85101656D01*
X60046276Y-85020841D01*
X60045849Y-84920434D01*
X60045646Y-84798419D01*
X60045600Y-84671681D01*
X60045600Y-84047445D01*
X60074175Y-84019058D01*
X60095455Y-84002818D01*
X60133205Y-83978614D01*
X60182654Y-83949078D01*
X60239031Y-83916842D01*
X60297565Y-83884539D01*
X60353486Y-83854801D01*
X60402022Y-83830260D01*
X60438404Y-83813549D01*
X60457860Y-83807300D01*
X60457959Y-83807299D01*
X60465240Y-83810402D01*
X60470481Y-83821988D01*
X60474001Y-83845475D01*
X60476116Y-83884279D01*
X60477143Y-83941819D01*
X60477400Y-84016850D01*
X60477850Y-84086588D01*
X60479098Y-84146496D01*
X60480985Y-84192389D01*
X60483355Y-84220081D01*
X60485271Y-84226400D01*
X60498348Y-84220564D01*
X60530090Y-84204314D01*
X60576941Y-84179532D01*
X60635341Y-84148102D01*
X60701734Y-84111908D01*
X60707173Y-84108925D01*
X60921203Y-83991450D01*
X60921551Y-83781550D01*
X60922213Y-83697819D01*
X60924067Y-83635957D01*
X60927393Y-83592452D01*
X60932473Y-83563789D01*
X60939586Y-83546455D01*
X60940423Y-83545205D01*
X60958237Y-83529339D01*
X60993061Y-83505640D01*
X61040329Y-83476600D01*
X61095477Y-83444710D01*
X61153941Y-83412461D01*
X61211156Y-83382344D01*
X61262557Y-83356851D01*
X61303579Y-83338472D01*
X61329660Y-83329699D01*
X61335466Y-83329605D01*
X61342517Y-83336742D01*
X61347564Y-83354162D01*
X61350902Y-83385263D01*
X61352824Y-83433443D01*
X61353626Y-83502101D01*
X61353700Y-83540201D01*
X61354260Y-83608831D01*
X61355810Y-83667523D01*
X61358150Y-83712046D01*
X61361083Y-83738167D01*
X61363225Y-83743273D01*
X61376802Y-83737175D01*
X61408883Y-83720522D01*
X61455858Y-83695255D01*
X61514119Y-83663317D01*
X61580055Y-83626649D01*
X61582300Y-83625392D01*
X61791850Y-83508037D01*
X61798200Y-83289781D01*
X61801012Y-83206898D01*
X61804189Y-83145832D01*
X61808134Y-83102999D01*
X61813248Y-83074816D01*
X61819933Y-83057699D01*
X61824972Y-83051143D01*
X61842562Y-83038372D01*
X61878295Y-83015954D01*
X61928002Y-82986381D01*
X61987515Y-82952147D01*
X62034522Y-82925776D01*
X62223650Y-82820791D01*
X62226943Y-83456167D01*
X62226943Y-83456167D01*
G37*
X62226943Y-83456167D02*
X62227402Y-83580854D01*
X62227468Y-83697775D01*
X62227167Y-83804484D01*
X62226522Y-83898533D01*
X62225557Y-83977476D01*
X62224298Y-84038865D01*
X62222766Y-84080253D01*
X62220988Y-84099194D01*
X62220593Y-84100084D01*
X62208155Y-84107460D01*
X62175319Y-84126037D01*
X62123948Y-84154787D01*
X62055908Y-84192683D01*
X61973063Y-84238696D01*
X61877276Y-84291799D01*
X61770412Y-84350964D01*
X61654335Y-84415163D01*
X61530909Y-84483368D01*
X61401999Y-84554552D01*
X61269468Y-84627686D01*
X61135182Y-84701743D01*
X61001003Y-84775695D01*
X60868797Y-84848514D01*
X60740428Y-84919173D01*
X60617759Y-84986642D01*
X60502655Y-85049896D01*
X60396981Y-85107905D01*
X60302600Y-85159642D01*
X60221376Y-85204080D01*
X60155175Y-85240189D01*
X60105859Y-85266943D01*
X60075294Y-85283314D01*
X60065556Y-85288259D01*
X60060994Y-85288098D01*
X60057177Y-85282468D01*
X60054041Y-85269350D01*
X60051519Y-85246727D01*
X60049547Y-85212582D01*
X60048059Y-85164897D01*
X60046991Y-85101656D01*
X60046276Y-85020841D01*
X60045849Y-84920434D01*
X60045646Y-84798419D01*
X60045600Y-84671681D01*
X60045600Y-84047445D01*
X60074175Y-84019058D01*
X60095455Y-84002818D01*
X60133205Y-83978614D01*
X60182654Y-83949078D01*
X60239031Y-83916842D01*
X60297565Y-83884539D01*
X60353486Y-83854801D01*
X60402022Y-83830260D01*
X60438404Y-83813549D01*
X60457860Y-83807300D01*
X60457959Y-83807299D01*
X60465240Y-83810402D01*
X60470481Y-83821988D01*
X60474001Y-83845475D01*
X60476116Y-83884279D01*
X60477143Y-83941819D01*
X60477400Y-84016850D01*
X60477850Y-84086588D01*
X60479098Y-84146496D01*
X60480985Y-84192389D01*
X60483355Y-84220081D01*
X60485271Y-84226400D01*
X60498348Y-84220564D01*
X60530090Y-84204314D01*
X60576941Y-84179532D01*
X60635341Y-84148102D01*
X60701734Y-84111908D01*
X60707173Y-84108925D01*
X60921203Y-83991450D01*
X60921551Y-83781550D01*
X60922213Y-83697819D01*
X60924067Y-83635957D01*
X60927393Y-83592452D01*
X60932473Y-83563789D01*
X60939586Y-83546455D01*
X60940423Y-83545205D01*
X60958237Y-83529339D01*
X60993061Y-83505640D01*
X61040329Y-83476600D01*
X61095477Y-83444710D01*
X61153941Y-83412461D01*
X61211156Y-83382344D01*
X61262557Y-83356851D01*
X61303579Y-83338472D01*
X61329660Y-83329699D01*
X61335466Y-83329605D01*
X61342517Y-83336742D01*
X61347564Y-83354162D01*
X61350902Y-83385263D01*
X61352824Y-83433443D01*
X61353626Y-83502101D01*
X61353700Y-83540201D01*
X61354260Y-83608831D01*
X61355810Y-83667523D01*
X61358150Y-83712046D01*
X61361083Y-83738167D01*
X61363225Y-83743273D01*
X61376802Y-83737175D01*
X61408883Y-83720522D01*
X61455858Y-83695255D01*
X61514119Y-83663317D01*
X61580055Y-83626649D01*
X61582300Y-83625392D01*
X61791850Y-83508037D01*
X61798200Y-83289781D01*
X61801012Y-83206898D01*
X61804189Y-83145832D01*
X61808134Y-83102999D01*
X61813248Y-83074816D01*
X61819933Y-83057699D01*
X61824972Y-83051143D01*
X61842562Y-83038372D01*
X61878295Y-83015954D01*
X61928002Y-82986381D01*
X61987515Y-82952147D01*
X62034522Y-82925776D01*
X62223650Y-82820791D01*
X62226943Y-83456167D01*
G36*
X63544163Y-83546460D02*
X63574017Y-83562863D01*
X63619410Y-83587950D01*
X63677017Y-83619883D01*
X63743514Y-83656824D01*
X63759763Y-83665861D01*
X63984929Y-83791123D01*
X63983207Y-84005085D01*
X63982455Y-84075894D01*
X63981459Y-84137200D01*
X63980315Y-84184775D01*
X63979120Y-84214395D01*
X63978236Y-84222297D01*
X63966650Y-84217497D01*
X63936291Y-84202205D01*
X63890605Y-84178232D01*
X63833042Y-84147391D01*
X63767048Y-84111492D01*
X63759718Y-84107475D01*
X63544450Y-83989404D01*
X63538100Y-83764982D01*
X63536130Y-83692681D01*
X63534570Y-83630065D01*
X63533508Y-83581177D01*
X63533033Y-83550057D01*
X63533173Y-83540580D01*
X63544163Y-83546460D01*
X63544163Y-83546460D01*
G37*
X63544163Y-83546460D02*
X63574017Y-83562863D01*
X63619410Y-83587950D01*
X63677017Y-83619883D01*
X63743514Y-83656824D01*
X63759763Y-83665861D01*
X63984929Y-83791123D01*
X63983207Y-84005085D01*
X63982455Y-84075894D01*
X63981459Y-84137200D01*
X63980315Y-84184775D01*
X63979120Y-84214395D01*
X63978236Y-84222297D01*
X63966650Y-84217497D01*
X63936291Y-84202205D01*
X63890605Y-84178232D01*
X63833042Y-84147391D01*
X63767048Y-84111492D01*
X63759718Y-84107475D01*
X63544450Y-83989404D01*
X63538100Y-83764982D01*
X63536130Y-83692681D01*
X63534570Y-83630065D01*
X63533508Y-83581177D01*
X63533033Y-83550057D01*
X63533173Y-83540580D01*
X63544163Y-83546460D01*
G36*
X62669282Y-83063901D02*
X62700744Y-83080395D01*
X62747646Y-83105665D01*
X62806626Y-83137895D01*
X62874322Y-83175269D01*
X62896852Y-83187782D01*
X62984210Y-83237200D01*
X63049340Y-83275952D01*
X63092875Y-83304448D01*
X63115445Y-83323096D01*
X63118579Y-83331556D01*
X63114372Y-83348534D01*
X63110380Y-83386200D01*
X63106937Y-83439841D01*
X63104379Y-83504745D01*
X63103459Y-83544185D01*
X63099950Y-83742824D01*
X62674500Y-83509102D01*
X62674500Y-83316127D01*
X62673702Y-83246077D01*
X62671508Y-83182833D01*
X62668212Y-83131796D01*
X62664113Y-83098363D01*
X62662114Y-83090576D01*
X62655303Y-83067032D01*
X62656620Y-83058000D01*
X62669282Y-83063901D01*
X62669282Y-83063901D01*
G37*
X62669282Y-83063901D02*
X62700744Y-83080395D01*
X62747646Y-83105665D01*
X62806626Y-83137895D01*
X62874322Y-83175269D01*
X62896852Y-83187782D01*
X62984210Y-83237200D01*
X63049340Y-83275952D01*
X63092875Y-83304448D01*
X63115445Y-83323096D01*
X63118579Y-83331556D01*
X63114372Y-83348534D01*
X63110380Y-83386200D01*
X63106937Y-83439841D01*
X63104379Y-83504745D01*
X63103459Y-83544185D01*
X63099950Y-83742824D01*
X62674500Y-83509102D01*
X62674500Y-83316127D01*
X62673702Y-83246077D01*
X62671508Y-83182833D01*
X62668212Y-83131796D01*
X62664113Y-83098363D01*
X62662114Y-83090576D01*
X62655303Y-83067032D01*
X62656620Y-83058000D01*
X62669282Y-83063901D01*
G04 #@! TO.C,U2*
D11*
X65927263Y-117041822D02*
X65145323Y-117251342D01*
X65065655Y-117321988D01*
X65031983Y-117380309D01*
X65010636Y-117484627D01*
X65059935Y-117668613D01*
X65130581Y-117748281D01*
X65188902Y-117781953D01*
X65293220Y-117803300D01*
X66075160Y-117593779D01*
X66094090Y-118032397D02*
X66152411Y-118066069D01*
X66223057Y-118145737D01*
X66284680Y-118375719D01*
X66263333Y-118480037D01*
X66229661Y-118538358D01*
X66149993Y-118609004D01*
X66058000Y-118633654D01*
X65907686Y-118624631D01*
X65207832Y-118220570D01*
X65368053Y-118818524D01*
G04 #@! TO.C,U1*
X64938677Y-111242570D02*
X65720617Y-111452090D01*
X65824934Y-111430743D01*
X65883255Y-111397071D01*
X65953901Y-111317403D01*
X66003200Y-111133417D01*
X65981853Y-111029099D01*
X65948181Y-110970778D01*
X65868513Y-110900132D01*
X65086573Y-110690612D01*
X66311318Y-109983505D02*
X66163422Y-110535463D01*
X66237370Y-110259484D02*
X65271444Y-110000665D01*
X65384784Y-110129632D01*
X65452127Y-110246275D01*
X65473475Y-110350592D01*
G04 #@! TD*
M02*
