M48
;DRILL file {KiCad 5.0.2-bee76a0~70~ubuntu18.04.1} date mar. 23 juil. 2019 10:58:28 CEST
;FORMAT={-:-/ absolute / inch / decimal}
FMAT,2
INCH,TZ
T1C0.0394
%
G90
G05
T1
X2.8Y-5.9
X2.1Y-3.3
X2.Y-4.4
X2.Y-3.9
X2.Y-3.7
X2.Y-5.
X2.8Y-4.1
X2.5Y-5.8
X2.4Y-5.9
X2.3Y-6.2
X2.7Y-4.2
X2.4Y-5.1
X2.4Y-4.3
X2.6Y-5.1
X2.4Y-5.2
X3.Y-3.5
X3.Y-3.9
X1.9Y-5.5
X2.7Y-3.8
X2.9Y-3.5
X2.5Y-3.7
X2.4Y-4.6
X2.1Y-5.4
X2.8Y-3.2
X2.2Y-4.4
X2.2Y-4.
X1.9Y-4.
X2.2Y-4.3
X2.2Y-3.6
X2.1Y-3.2
X2.1Y-4.9
X2.8Y-4.5
X2.8Y-5.5
X2.6Y-3.6
X2.5Y-5.3
X1.9Y-4.9
X1.9Y-4.4
X1.9Y-3.6
X2.9Y-5.9
X2.7Y-4.3
X2.1Y-4.2
X2.6Y-3.5
X2.3Y-4.2
X2.3Y-3.2
X2.6Y-5.4
X2.3Y-3.4
X2.8Y-3.6
X2.7Y-5.9
X2.6Y-5.8
X2.9Y-4.9
X2.9Y-5.
X2.1Y-6.3
X2.1Y-5.9
X2.3Y-5.2
X2.Y-6.3
X3.Y-5.1
X2.6Y-4.
X2.9Y-5.3
X2.6Y-4.1
X2.9Y-3.9
X2.7Y-4.1
X2.3Y-3.8
X2.3Y-3.6
X2.3Y-3.7
X2.2Y-3.8
X2.Y-3.8
X1.9Y-4.8
X2.2Y-4.1
X2.7Y-3.3
X2.2Y-5.3
X2.8Y-4.7
X2.1Y-3.4
X2.1Y-4.8
X2.4Y-4.1
X2.3Y-5.1
X2.6Y-3.3
X2.Y-4.3
X1.9Y-5.2
X2.4Y-3.7
X2.9Y-3.4
X2.2Y-6.3
X2.7Y-6.2
X2.4Y-5.5
X2.Y-5.9
X2.1Y-5.3
X2.5Y-4.
X2.5Y-3.4
X3.Y-4.7
X3.Y-4.
X3.Y-3.2
X2.9Y-5.5
X2.2Y-4.7
X2.8Y-4.8
X2.7Y-4.8
X2.1Y-5.2
X2.2Y-3.4
X2.2Y-5.
X1.9Y-3.5
X1.9Y-5.
X2.1Y-4.4
X2.5Y-3.8
X2.5Y-4.1
X2.5Y-3.2
X2.4Y-4.8
X2.5Y-3.6
X2.8Y-5.2
X2.8Y-6.3
X2.7Y-6.3
X2.1Y-3.9
X2.Y-5.1
X2.Y-4.7
X2.Y-4.1
X2.Y-3.3
X2.8Y-4.
X2.8Y-4.6
X2.3Y-5.4
X2.4Y-4.7
X2.4Y-6.2
X2.5Y-6.3
X2.4Y-3.5
X2.4Y-4.9
X2.3Y-5.5
X2.6Y-5.2
X3.Y-4.9
X3.Y-4.2
X2.7Y-3.2
X2.6Y-4.7
X2.7Y-4.7
X2.6Y-3.8
X2.5Y-4.2
X2.2Y-5.1
X2.2Y-4.6
X3.Y-5.2
X1.9Y-4.6
X2.2Y-3.7
X2.1Y-4.3
X2.1Y-4.
X2.1Y-3.5
X2.9Y-3.3
X2.Y-5.4
X2.5Y-5.4
X1.9Y-3.9
X1.9Y-3.4
X1.9Y-3.3
X2.9Y-6.2
X2.9Y-5.8
X2.7Y-3.4
X2.8Y-3.5
X2.6Y-3.9
X2.3Y-4.3
X2.3Y-3.9
X2.4Y-3.3
X2.5Y-5.9
X2.7Y-4.5
X2.6Y-6.2
X2.6Y-5.9
X2.7Y-5.3
X2.9Y-4.4
X2.2Y-5.9
X2.1Y-6.2
X2.Y-6.2
X1.9Y-5.4
X2.2Y-5.5
X2.Y-6.
X2.Y-6.1
X2.1Y-6.
X2.1Y-6.1
X2.2Y-6.
X2.2Y-6.1
X2.3Y-6.
X2.3Y-6.1
X2.4Y-6.
X2.4Y-6.1
X2.5Y-6.
X2.5Y-6.1
X2.6Y-6.
X2.6Y-6.1
X2.7Y-6.
X2.7Y-6.1
X2.8Y-6.
X2.8Y-6.1
X2.9Y-6.
X2.9Y-6.1
X3.Y-4.4
X3.Y-3.7
X2.6Y-4.9
X2.Y-4.
X2.9Y-4.3
X2.6Y-4.2
X2.7Y-5.1
X2.8Y-5.1
X2.3Y-4.6
X2.3Y-4.
X2.2Y-3.9
X2.8Y-5.
X2.Y-3.6
X1.9Y-5.1
X2.7Y-3.9
X2.9Y-4.2
X2.1Y-4.1
X2.6Y-4.8
X2.4Y-4.4
X2.4Y-3.4
X2.9Y-4.7
X2.6Y-4.6
X3.Y-5.5
X2.8Y-4.9
X2.3Y-4.9
X2.7Y-3.6
X2.8Y-5.4
X2.8Y-4.4
X3.Y-5.3
X2.3Y-5.9
X2.2Y-6.2
X2.9Y-3.6
X2.1Y-5.5
X2.5Y-5.1
X3.Y-3.6
X3.Y-4.5
X3.Y-4.6
X2.Y-3.4
X2.9Y-4.1
X2.8Y-3.7
X2.Y-5.5
X2.2Y-4.2
X2.2Y-3.3
X2.8Y-3.3
X1.9Y-4.2
X1.9Y-3.7
X2.1Y-5.
X2.5Y-4.3
X2.5Y-3.5
X2.5Y-4.4
X2.4Y-3.6
X2.5Y-4.6
X2.7Y-5.5
X2.5Y-5.2
X2.8Y-5.8
X2.1Y-4.5
X2.1Y-3.6
X2.Y-3.2
X2.Y-4.9
X2.Y-4.5
X2.Y-4.2
X2.9Y-5.4
X2.4Y-6.3
X2.3Y-6.3
X2.7Y-3.7
X2.4Y-5.3
X2.4Y-4.2
X2.6Y-4.4
X2.5Y-5.5
X2.9Y-5.1
X2.7Y-4.9
X3.Y-3.8
X3.Y-4.8
X2.6Y-3.2
X2.Y-5.2
X3.Y-5.4
X2.7Y-5.
X2.6Y-4.5
X2.6Y-5.3
X2.5Y-4.5
X2.5Y-3.3
X2.8Y-5.3
X2.2Y-5.2
X2.2Y-3.5
X1.9Y-4.7
X2.2Y-3.2
X2.1Y-5.1
X2.1Y-4.7
X2.8Y-4.2
X2.9Y-5.2
X1.9Y-4.3
X1.9Y-3.8
X1.9Y-4.1
X2.9Y-6.3
X2.8Y-6.2
X2.7Y-4.
X2.8Y-4.3
X2.1Y-3.7
X2.3Y-3.5
X2.3Y-4.8
X2.3Y-4.4
X2.9Y-3.2
X2.7Y-5.2
X2.3Y-5.3
X2.Y-4.8
X2.4Y-3.9
X2.6Y-4.3
X2.7Y-5.8
X2.6Y-6.3
X2.4Y-3.2
X2.7Y-5.4
X2.9Y-4.8
X2.2Y-5.8
X2.1Y-5.8
X1.9Y-5.3
X2.Y-5.8
X3.Y-5.
X3.Y-4.3
X2.6Y-3.4
X2.6Y-3.7
X2.Y-4.6
X2.9Y-3.8
X2.9Y-4.
X2.7Y-3.5
X2.6Y-5.5
X2.3Y-5.
X2.3Y-4.5
X2.2Y-4.8
X1.9Y-3.2
X2.7Y-4.6
X2.9Y-4.5
X2.2Y-5.4
X2.8Y-3.9
X2.Y-5.3
X2.1Y-4.6
X2.4Y-3.8
X2.3Y-4.7
X2.6Y-5.
X2.8Y-3.4
X2.8Y-3.8
X2.3Y-3.3
X2.9Y-3.7
X2.5Y-6.2
X2.4Y-5.
X2.3Y-5.8
X2.4Y-5.8
X2.7Y-4.4
X2.Y-3.5
X2.5Y-4.8
X2.Y-2.9
X2.Y-3.
X2.1Y-2.9
X2.1Y-3.
X2.2Y-2.9
X2.2Y-3.
X2.3Y-2.9
X2.3Y-3.
X2.4Y-2.9
X2.4Y-3.
X2.5Y-2.9
X2.5Y-3.
X2.6Y-2.9
X2.6Y-3.
X2.7Y-2.9
X2.7Y-3.
X2.8Y-2.9
X2.8Y-3.
X2.9Y-2.9
X2.9Y-3.
X3.Y-4.1
X3.Y-3.4
X3.Y-3.3
X2.9Y-4.6
X2.3Y-4.1
X2.2Y-4.9
X2.2Y-4.5
X1.9Y-4.5
X2.1Y-3.8
X2.5Y-4.7
X2.5Y-3.9
X2.5Y-4.9
X2.4Y-4.5
X2.4Y-4.
X2.5Y-5.
X2.4Y-5.4
T0
M30
