G04 #@! TF.GenerationSoftware,KiCad,Pcbnew,5.0.2-bee76a0~70~ubuntu18.04.1*
G04 #@! TF.CreationDate,2019-07-23T10:58:26+02:00*
G04 #@! TF.ProjectId,breadboard,62726561-6462-46f6-9172-642e6b696361,rev?*
G04 #@! TF.SameCoordinates,Original*
G04 #@! TF.FileFunction,Copper,L2,Bot*
G04 #@! TF.FilePolarity,Positive*
%FSLAX46Y46*%
G04 Gerber Fmt 4.6, Leading zero omitted, Abs format (unit mm)*
G04 Created by KiCad (PCBNEW 5.0.2-bee76a0~70~ubuntu18.04.1) date mar. 23 juil. 2019 10:58:26 CEST*
%MOMM*%
%LPD*%
G01*
G04 APERTURE LIST*
G04 #@! TA.AperFunction,ComponentPad*
%ADD10R,2.000000X2.000000*%
G04 #@! TD*
G04 #@! TA.AperFunction,ComponentPad*
%ADD11O,1.700000X1.700000*%
G04 #@! TD*
G04 #@! TA.AperFunction,ComponentPad*
%ADD12R,1.700000X1.700000*%
G04 #@! TD*
G04 #@! TA.AperFunction,Conductor*
%ADD13C,2.000000*%
G04 #@! TD*
G04 APERTURE END LIST*
D10*
G04 #@! TO.P,TP328,1*
G04 #@! TO.N,GNDA*
X76200000Y-137160000D03*
G04 #@! TD*
G04 #@! TO.P,TP327,1*
G04 #@! TO.N,GNDA*
X76200000Y-139700000D03*
G04 #@! TD*
G04 #@! TO.P,TP326,1*
G04 #@! TO.N,VDDA*
X73660000Y-139700000D03*
G04 #@! TD*
G04 #@! TO.P,TP325,1*
G04 #@! TO.N,VDDA*
X73660000Y-137160000D03*
G04 #@! TD*
G04 #@! TO.P,TP324,1*
G04 #@! TO.N,GNDA*
X76200000Y-132080000D03*
G04 #@! TD*
G04 #@! TO.P,TP323,1*
G04 #@! TO.N,GNDA*
X76200000Y-134620000D03*
G04 #@! TD*
G04 #@! TO.P,TP322,1*
G04 #@! TO.N,VDDA*
X73660000Y-134620000D03*
G04 #@! TD*
G04 #@! TO.P,TP321,1*
G04 #@! TO.N,VDDA*
X73660000Y-132080000D03*
G04 #@! TD*
G04 #@! TO.P,TP320,1*
G04 #@! TO.N,Net-(TP320-Pad1)*
X71120000Y-139700000D03*
G04 #@! TD*
G04 #@! TO.P,TP319,1*
G04 #@! TO.N,Net-(TP319-Pad1)*
X71120000Y-137160000D03*
G04 #@! TD*
G04 #@! TO.P,TP318,1*
G04 #@! TO.N,Net-(TP318-Pad1)*
X71120000Y-134620000D03*
G04 #@! TD*
G04 #@! TO.P,TP317,1*
G04 #@! TO.N,Net-(TP317-Pad1)*
X71120000Y-132080000D03*
G04 #@! TD*
G04 #@! TO.P,TP316,1*
G04 #@! TO.N,Net-(TP316-Pad1)*
X68580000Y-139700000D03*
G04 #@! TD*
G04 #@! TO.P,TP315,1*
G04 #@! TO.N,Net-(TP315-Pad1)*
X68580000Y-134620000D03*
G04 #@! TD*
G04 #@! TO.P,TP314,1*
G04 #@! TO.N,Net-(TP314-Pad1)*
X68580000Y-137160000D03*
G04 #@! TD*
G04 #@! TO.P,TP313,1*
G04 #@! TO.N,Net-(TP313-Pad1)*
X68580000Y-132080000D03*
G04 #@! TD*
G04 #@! TO.P,TP312,1*
G04 #@! TO.N,Net-(TP312-Pad1)*
X66040000Y-137160000D03*
G04 #@! TD*
G04 #@! TO.P,TP311,1*
G04 #@! TO.N,Net-(TP311-Pad1)*
X66040000Y-139700000D03*
G04 #@! TD*
G04 #@! TO.P,TP310,1*
G04 #@! TO.N,Net-(TP310-Pad1)*
X66040000Y-134620000D03*
G04 #@! TD*
G04 #@! TO.P,TP309,1*
G04 #@! TO.N,Net-(TP309-Pad1)*
X66040000Y-132080000D03*
G04 #@! TD*
G04 #@! TO.P,TP308,1*
G04 #@! TO.N,Net-(TP308-Pad1)*
X63500000Y-139700000D03*
G04 #@! TD*
G04 #@! TO.P,TP307,1*
G04 #@! TO.N,Net-(TP307-Pad1)*
X63500000Y-134620000D03*
G04 #@! TD*
G04 #@! TO.P,TP306,1*
G04 #@! TO.N,Net-(TP306-Pad1)*
X63500000Y-137160000D03*
G04 #@! TD*
G04 #@! TO.P,TP305,1*
G04 #@! TO.N,Net-(TP305-Pad1)*
X63500000Y-132080000D03*
G04 #@! TD*
G04 #@! TO.P,TP304,1*
G04 #@! TO.N,Net-(TP304-Pad1)*
X60960000Y-137160000D03*
G04 #@! TD*
G04 #@! TO.P,TP303,1*
G04 #@! TO.N,Net-(TP303-Pad1)*
X60960000Y-134620000D03*
G04 #@! TD*
G04 #@! TO.P,TP302,1*
G04 #@! TO.N,Net-(TP302-Pad1)*
X60960000Y-139700000D03*
G04 #@! TD*
G04 #@! TO.P,TP301,1*
G04 #@! TO.N,Net-(TP301-Pad1)*
X60960000Y-132080000D03*
G04 #@! TD*
G04 #@! TO.P,TP300,1*
G04 #@! TO.N,Net-(TP300-Pad1)*
X58420000Y-139700000D03*
G04 #@! TD*
G04 #@! TO.P,TP299,1*
G04 #@! TO.N,Net-(TP299-Pad1)*
X58420000Y-134620000D03*
G04 #@! TD*
G04 #@! TO.P,TP298,1*
G04 #@! TO.N,Net-(TP298-Pad1)*
X58420000Y-137160000D03*
G04 #@! TD*
G04 #@! TO.P,TP297,1*
G04 #@! TO.N,Net-(TP297-Pad1)*
X58420000Y-132080000D03*
G04 #@! TD*
G04 #@! TO.P,TP296,1*
G04 #@! TO.N,Net-(TP296-Pad1)*
X55880000Y-139700000D03*
G04 #@! TD*
G04 #@! TO.P,TP295,1*
G04 #@! TO.N,Net-(TP295-Pad1)*
X55880000Y-137160000D03*
G04 #@! TD*
G04 #@! TO.P,TP294,1*
G04 #@! TO.N,Net-(TP294-Pad1)*
X55880000Y-134620000D03*
G04 #@! TD*
G04 #@! TO.P,TP293,1*
G04 #@! TO.N,Net-(TP293-Pad1)*
X55880000Y-132080000D03*
G04 #@! TD*
G04 #@! TO.P,TP292,1*
G04 #@! TO.N,Net-(TP292-Pad1)*
X53340000Y-137160000D03*
G04 #@! TD*
G04 #@! TO.P,TP291,1*
G04 #@! TO.N,Net-(TP291-Pad1)*
X53340000Y-134620000D03*
G04 #@! TD*
G04 #@! TO.P,TP290,1*
G04 #@! TO.N,Net-(TP290-Pad1)*
X53340000Y-139700000D03*
G04 #@! TD*
G04 #@! TO.P,TP289,1*
G04 #@! TO.N,Net-(TP289-Pad1)*
X53340000Y-132080000D03*
G04 #@! TD*
G04 #@! TO.P,TP288,1*
G04 #@! TO.N,Net-(TP288-Pad1)*
X50800000Y-139700000D03*
G04 #@! TD*
G04 #@! TO.P,TP287,1*
G04 #@! TO.N,Net-(TP287-Pad1)*
X50800000Y-134620000D03*
G04 #@! TD*
G04 #@! TO.P,TP286,1*
G04 #@! TO.N,Net-(TP286-Pad1)*
X50800000Y-137160000D03*
G04 #@! TD*
G04 #@! TO.P,TP285,1*
G04 #@! TO.N,Net-(TP285-Pad1)*
X50800000Y-132080000D03*
G04 #@! TD*
G04 #@! TO.P,TP284,1*
G04 #@! TO.N,Net-(TP284-Pad1)*
X48260000Y-139700000D03*
G04 #@! TD*
G04 #@! TO.P,TP283,1*
G04 #@! TO.N,Net-(TP283-Pad1)*
X48260000Y-137160000D03*
G04 #@! TD*
G04 #@! TO.P,TP282,1*
G04 #@! TO.N,Net-(TP282-Pad1)*
X48260000Y-134620000D03*
G04 #@! TD*
G04 #@! TO.P,TP281,1*
G04 #@! TO.N,Net-(TP281-Pad1)*
X48260000Y-132080000D03*
G04 #@! TD*
G04 #@! TO.P,TP280,1*
G04 #@! TO.N,Net-(TP280-Pad1)*
X71120000Y-111760000D03*
G04 #@! TD*
G04 #@! TO.P,TP279,1*
G04 #@! TO.N,Net-(TP279-Pad1)*
X71120000Y-129540000D03*
G04 #@! TD*
G04 #@! TO.P,TP278,1*
G04 #@! TO.N,Net-(TP278-Pad1)*
X71120000Y-81280000D03*
G04 #@! TD*
G04 #@! TO.P,TP277,1*
G04 #@! TO.N,Net-(TP277-Pad1)*
X71120000Y-104140000D03*
G04 #@! TD*
G04 #@! TO.P,TP276,1*
G04 #@! TO.N,Net-(TP276-Pad1)*
X71120000Y-116840000D03*
G04 #@! TD*
G04 #@! TO.P,TP275,1*
G04 #@! TO.N,Net-(TP275-Pad1)*
X71120000Y-124460000D03*
G04 #@! TD*
G04 #@! TO.P,TP274,1*
G04 #@! TO.N,Net-(TP274-Pad1)*
X71120000Y-86360000D03*
G04 #@! TD*
G04 #@! TO.P,TP273,1*
G04 #@! TO.N,Net-(TP273-Pad1)*
X71120000Y-106680000D03*
G04 #@! TD*
G04 #@! TO.P,TP271,1*
G04 #@! TO.N,Net-(TP271-Pad1)*
X71120000Y-114300000D03*
G04 #@! TD*
G04 #@! TO.P,TP270,1*
G04 #@! TO.N,Net-(TP270-Pad1)*
X71120000Y-121920000D03*
G04 #@! TD*
G04 #@! TO.P,TP269,1*
G04 #@! TO.N,Net-(TP269-Pad1)*
X71120000Y-93980000D03*
G04 #@! TD*
G04 #@! TO.P,TP268,1*
G04 #@! TO.N,Net-(TP268-Pad1)*
X71120000Y-99060000D03*
G04 #@! TD*
G04 #@! TO.P,TP267,1*
G04 #@! TO.N,Net-(TP267-Pad1)*
X71120000Y-119380000D03*
G04 #@! TD*
G04 #@! TO.P,TP265,1*
G04 #@! TO.N,Net-(TP265-Pad1)*
X71120000Y-127000000D03*
G04 #@! TD*
G04 #@! TO.P,TP272,1*
G04 #@! TO.N,Net-(TP272-Pad1)*
X71120000Y-83820000D03*
G04 #@! TD*
G04 #@! TO.P,TP263,1*
G04 #@! TO.N,Net-(TP263-Pad1)*
X71120000Y-101600000D03*
G04 #@! TD*
G04 #@! TO.P,TP262,1*
G04 #@! TO.N,Net-(TP262-Pad1)*
X71120000Y-96520000D03*
G04 #@! TD*
G04 #@! TO.P,TP261,1*
G04 #@! TO.N,Net-(TP261-Pad1)*
X71120000Y-88900000D03*
G04 #@! TD*
G04 #@! TO.P,TP266,1*
G04 #@! TO.N,Net-(TP266-Pad1)*
X71120000Y-109220000D03*
G04 #@! TD*
G04 #@! TO.P,TP264,1*
G04 #@! TO.N,Net-(TP264-Pad1)*
X71120000Y-91440000D03*
G04 #@! TD*
G04 #@! TO.P,TP246,1*
G04 #@! TO.N,Net-(TP246-Pad1)*
X68580000Y-114300000D03*
G04 #@! TD*
G04 #@! TO.P,TP247,1*
G04 #@! TO.N,Net-(TP247-Pad1)*
X68580000Y-129540000D03*
G04 #@! TD*
G04 #@! TO.P,TP248,1*
G04 #@! TO.N,Net-(TP248-Pad1)*
X68580000Y-88900000D03*
G04 #@! TD*
G04 #@! TO.P,TP249,1*
G04 #@! TO.N,Net-(TP249-Pad1)*
X68580000Y-104140000D03*
G04 #@! TD*
G04 #@! TO.P,TP250,1*
G04 #@! TO.N,Net-(TP250-Pad1)*
X68580000Y-111760000D03*
G04 #@! TD*
G04 #@! TO.P,TP251,1*
G04 #@! TO.N,Net-(TP251-Pad1)*
X68580000Y-124460000D03*
G04 #@! TD*
G04 #@! TO.P,TP252,1*
G04 #@! TO.N,Net-(TP252-Pad1)*
X68580000Y-86360000D03*
G04 #@! TD*
G04 #@! TO.P,TP253,1*
G04 #@! TO.N,Net-(TP253-Pad1)*
X68580000Y-101600000D03*
G04 #@! TD*
G04 #@! TO.P,TP254,1*
G04 #@! TO.N,Net-(TP254-Pad1)*
X68580000Y-109220000D03*
G04 #@! TD*
G04 #@! TO.P,TP255,1*
G04 #@! TO.N,Net-(TP255-Pad1)*
X68580000Y-121920000D03*
G04 #@! TD*
G04 #@! TO.P,TP256,1*
G04 #@! TO.N,Net-(TP256-Pad1)*
X68580000Y-91440000D03*
G04 #@! TD*
G04 #@! TO.P,TP257,1*
G04 #@! TO.N,Net-(TP257-Pad1)*
X68580000Y-96520000D03*
G04 #@! TD*
G04 #@! TO.P,TP259,1*
G04 #@! TO.N,Net-(TP259-Pad1)*
X68580000Y-119380000D03*
G04 #@! TD*
G04 #@! TO.P,TP245,1*
G04 #@! TO.N,Net-(TP245-Pad1)*
X68580000Y-127000000D03*
G04 #@! TD*
G04 #@! TO.P,TP241,1*
G04 #@! TO.N,Net-(TP241-Pad1)*
X68580000Y-83820000D03*
G04 #@! TD*
G04 #@! TO.P,TP242,1*
G04 #@! TO.N,Net-(TP242-Pad1)*
X68580000Y-99060000D03*
G04 #@! TD*
G04 #@! TO.P,TP243,1*
G04 #@! TO.N,Net-(TP243-Pad1)*
X68580000Y-116840000D03*
G04 #@! TD*
G04 #@! TO.P,TP244,1*
G04 #@! TO.N,Net-(TP244-Pad1)*
X68580000Y-93980000D03*
G04 #@! TD*
G04 #@! TO.P,TP258,1*
G04 #@! TO.N,Net-(TP258-Pad1)*
X68580000Y-106680000D03*
G04 #@! TD*
G04 #@! TO.P,TP260,1*
G04 #@! TO.N,Net-(TP260-Pad1)*
X68580000Y-81280000D03*
G04 #@! TD*
G04 #@! TO.P,TP225,1*
G04 #@! TO.N,Net-(TP225-Pad1)*
X66040000Y-111760000D03*
G04 #@! TD*
G04 #@! TO.P,TP227,1*
G04 #@! TO.N,Net-(TP227-Pad1)*
X66040000Y-129540000D03*
G04 #@! TD*
G04 #@! TO.P,TP228,1*
G04 #@! TO.N,Net-(TP228-Pad1)*
X66040000Y-93980000D03*
G04 #@! TD*
G04 #@! TO.P,TP229,1*
G04 #@! TO.N,Net-(TP229-Pad1)*
X66040000Y-104140000D03*
G04 #@! TD*
G04 #@! TO.P,TP230,1*
G04 #@! TO.N,Net-(TP230-Pad1)*
X66040000Y-114300000D03*
G04 #@! TD*
G04 #@! TO.P,TP231,1*
G04 #@! TO.N,Net-(TP231-Pad1)*
X66040000Y-121920000D03*
G04 #@! TD*
G04 #@! TO.P,TP232,1*
G04 #@! TO.N,Net-(TP232-Pad1)*
X66040000Y-88900000D03*
G04 #@! TD*
G04 #@! TO.P,TP233,1*
G04 #@! TO.N,Net-(TP233-Pad1)*
X66040000Y-99060000D03*
G04 #@! TD*
G04 #@! TO.P,TP234,1*
G04 #@! TO.N,Net-(TP234-Pad1)*
X66040000Y-109220000D03*
G04 #@! TD*
G04 #@! TO.P,TP235,1*
G04 #@! TO.N,Net-(TP235-Pad1)*
X66040000Y-124460000D03*
G04 #@! TD*
G04 #@! TO.P,TP236,1*
G04 #@! TO.N,Net-(TP236-Pad1)*
X66040000Y-86360000D03*
G04 #@! TD*
G04 #@! TO.P,TP237,1*
G04 #@! TO.N,Net-(TP237-Pad1)*
X66040000Y-101600000D03*
G04 #@! TD*
G04 #@! TO.P,TP238,1*
G04 #@! TO.N,Net-(TP238-Pad1)*
X66040000Y-116840000D03*
G04 #@! TD*
G04 #@! TO.P,TP240,1*
G04 #@! TO.N,Net-(TP240-Pad1)*
X66040000Y-127000000D03*
G04 #@! TD*
G04 #@! TO.P,TP224,1*
G04 #@! TO.N,Net-(TP224-Pad1)*
X66040000Y-83820000D03*
G04 #@! TD*
G04 #@! TO.P,TP223,1*
G04 #@! TO.N,Net-(TP223-Pad1)*
X66040000Y-96520000D03*
G04 #@! TD*
G04 #@! TO.P,TP222,1*
G04 #@! TO.N,Net-(TP222-Pad1)*
X66040000Y-119380000D03*
G04 #@! TD*
G04 #@! TO.P,TP221,1*
G04 #@! TO.N,Net-(TP221-Pad1)*
X66040000Y-81280000D03*
G04 #@! TD*
G04 #@! TO.P,TP239,1*
G04 #@! TO.N,Net-(TP239-Pad1)*
X66040000Y-106680000D03*
G04 #@! TD*
G04 #@! TO.P,TP226,1*
G04 #@! TO.N,Net-(TP226-Pad1)*
X66040000Y-91440000D03*
G04 #@! TD*
G04 #@! TO.P,TP219,1*
G04 #@! TO.N,Net-(TP219-Pad1)*
X63500000Y-116840000D03*
G04 #@! TD*
G04 #@! TO.P,TP217,1*
G04 #@! TO.N,Net-(TP217-Pad1)*
X63500000Y-127000000D03*
G04 #@! TD*
G04 #@! TO.P,TP216,1*
G04 #@! TO.N,Net-(TP216-Pad1)*
X63500000Y-91440000D03*
G04 #@! TD*
G04 #@! TO.P,TP215,1*
G04 #@! TO.N,Net-(TP215-Pad1)*
X63500000Y-101600000D03*
G04 #@! TD*
G04 #@! TO.P,TP214,1*
G04 #@! TO.N,Net-(TP214-Pad1)*
X63500000Y-129540000D03*
G04 #@! TD*
G04 #@! TO.P,TP213,1*
G04 #@! TO.N,Net-(TP213-Pad1)*
X63500000Y-121920000D03*
G04 #@! TD*
G04 #@! TO.P,TP212,1*
G04 #@! TO.N,Net-(TP212-Pad1)*
X63500000Y-86360000D03*
G04 #@! TD*
G04 #@! TO.P,TP211,1*
G04 #@! TO.N,Net-(TP211-Pad1)*
X63500000Y-104140000D03*
G04 #@! TD*
G04 #@! TO.P,TP210,1*
G04 #@! TO.N,Net-(TP210-Pad1)*
X63500000Y-111760000D03*
G04 #@! TD*
G04 #@! TO.P,TP209,1*
G04 #@! TO.N,Net-(TP209-Pad1)*
X63500000Y-124460000D03*
G04 #@! TD*
G04 #@! TO.P,TP208,1*
G04 #@! TO.N,Net-(TP208-Pad1)*
X63500000Y-81280000D03*
G04 #@! TD*
G04 #@! TO.P,TP206,1*
G04 #@! TO.N,Net-(TP206-Pad1)*
X63500000Y-109220000D03*
G04 #@! TD*
G04 #@! TO.P,TP205,1*
G04 #@! TO.N,Net-(TP205-Pad1)*
X63500000Y-119380000D03*
G04 #@! TD*
G04 #@! TO.P,TP204,1*
G04 #@! TO.N,Net-(TP204-Pad1)*
X63500000Y-96520000D03*
G04 #@! TD*
G04 #@! TO.P,TP203,1*
G04 #@! TO.N,Net-(TP203-Pad1)*
X63500000Y-88900000D03*
G04 #@! TD*
G04 #@! TO.P,TP202,1*
G04 #@! TO.N,Net-(TP202-Pad1)*
X63500000Y-99060000D03*
G04 #@! TD*
G04 #@! TO.P,TP201,1*
G04 #@! TO.N,Net-(TP201-Pad1)*
X63500000Y-114300000D03*
G04 #@! TD*
G04 #@! TO.P,TP218,1*
G04 #@! TO.N,Net-(TP218-Pad1)*
X63500000Y-93980000D03*
G04 #@! TD*
G04 #@! TO.P,TP207,1*
G04 #@! TO.N,Net-(TP207-Pad1)*
X63500000Y-106680000D03*
G04 #@! TD*
G04 #@! TO.P,TP220,1*
G04 #@! TO.N,Net-(TP220-Pad1)*
X63500000Y-83820000D03*
G04 #@! TD*
G04 #@! TO.P,TP200,1*
G04 #@! TO.N,Net-(TP200-Pad1)*
X60960000Y-116840000D03*
G04 #@! TD*
G04 #@! TO.P,TP198,1*
G04 #@! TO.N,Net-(TP198-Pad1)*
X60960000Y-129540000D03*
G04 #@! TD*
G04 #@! TO.P,TP197,1*
G04 #@! TO.N,Net-(TP197-Pad1)*
X60960000Y-88900000D03*
G04 #@! TD*
G04 #@! TO.P,TP196,1*
G04 #@! TO.N,Net-(TP196-Pad1)*
X60960000Y-106680000D03*
G04 #@! TD*
G04 #@! TO.P,TP195,1*
G04 #@! TO.N,Net-(TP195-Pad1)*
X60960000Y-109220000D03*
G04 #@! TD*
G04 #@! TO.P,TP194,1*
G04 #@! TO.N,Net-(TP194-Pad1)*
X60960000Y-124460000D03*
G04 #@! TD*
G04 #@! TO.P,TP193,1*
G04 #@! TO.N,Net-(TP193-Pad1)*
X60960000Y-83820000D03*
G04 #@! TD*
G04 #@! TO.P,TP192,1*
G04 #@! TO.N,Net-(TP192-Pad1)*
X60960000Y-99060000D03*
G04 #@! TD*
G04 #@! TO.P,TP191,1*
G04 #@! TO.N,Net-(TP191-Pad1)*
X60960000Y-119380000D03*
G04 #@! TD*
G04 #@! TO.P,TP190,1*
G04 #@! TO.N,Net-(TP190-Pad1)*
X60960000Y-127000000D03*
G04 #@! TD*
G04 #@! TO.P,TP188,1*
G04 #@! TO.N,Net-(TP188-Pad1)*
X60960000Y-93980000D03*
G04 #@! TD*
G04 #@! TO.P,TP187,1*
G04 #@! TO.N,Net-(TP187-Pad1)*
X60960000Y-81280000D03*
G04 #@! TD*
G04 #@! TO.P,TP186,1*
G04 #@! TO.N,Net-(TP186-Pad1)*
X60960000Y-114300000D03*
G04 #@! TD*
G04 #@! TO.P,TP185,1*
G04 #@! TO.N,Net-(TP185-Pad1)*
X60960000Y-121920000D03*
G04 #@! TD*
G04 #@! TO.P,TP184,1*
G04 #@! TO.N,Net-(TP184-Pad1)*
X60960000Y-91440000D03*
G04 #@! TD*
G04 #@! TO.P,TP183,1*
G04 #@! TO.N,Net-(TP183-Pad1)*
X60960000Y-101600000D03*
G04 #@! TD*
G04 #@! TO.P,TP182,1*
G04 #@! TO.N,Net-(TP182-Pad1)*
X60960000Y-111760000D03*
G04 #@! TD*
G04 #@! TO.P,TP181,1*
G04 #@! TO.N,Net-(TP181-Pad1)*
X60960000Y-96520000D03*
G04 #@! TD*
G04 #@! TO.P,TP199,1*
G04 #@! TO.N,Net-(TP199-Pad1)*
X60960000Y-104140000D03*
G04 #@! TD*
G04 #@! TO.P,TP189,1*
G04 #@! TO.N,Net-(TP189-Pad1)*
X60960000Y-86360000D03*
G04 #@! TD*
G04 #@! TO.P,TP179,1*
G04 #@! TO.N,Net-(TP179-Pad1)*
X58420000Y-119380000D03*
G04 #@! TD*
G04 #@! TO.P,TP177,1*
G04 #@! TO.N,Net-(TP177-Pad1)*
X58420000Y-129540000D03*
G04 #@! TD*
G04 #@! TO.P,TP176,1*
G04 #@! TO.N,Net-(TP176-Pad1)*
X58420000Y-88900000D03*
G04 #@! TD*
G04 #@! TO.P,TP175,1*
G04 #@! TO.N,Net-(TP175-Pad1)*
X58420000Y-106680000D03*
G04 #@! TD*
G04 #@! TO.P,TP174,1*
G04 #@! TO.N,Net-(TP174-Pad1)*
X58420000Y-109220000D03*
G04 #@! TD*
G04 #@! TO.P,TP173,1*
G04 #@! TO.N,Net-(TP173-Pad1)*
X58420000Y-121920000D03*
G04 #@! TD*
G04 #@! TO.P,TP172,1*
G04 #@! TO.N,Net-(TP172-Pad1)*
X58420000Y-81280000D03*
G04 #@! TD*
G04 #@! TO.P,TP171,1*
G04 #@! TO.N,Net-(TP171-Pad1)*
X58420000Y-99060000D03*
G04 #@! TD*
G04 #@! TO.P,TP169,1*
G04 #@! TO.N,Net-(TP169-Pad1)*
X58420000Y-111760000D03*
G04 #@! TD*
G04 #@! TO.P,TP168,1*
G04 #@! TO.N,Net-(TP168-Pad1)*
X58420000Y-124460000D03*
G04 #@! TD*
G04 #@! TO.P,TP167,1*
G04 #@! TO.N,Net-(TP167-Pad1)*
X58420000Y-83820000D03*
G04 #@! TD*
G04 #@! TO.P,TP166,1*
G04 #@! TO.N,Net-(TP166-Pad1)*
X58420000Y-96520000D03*
G04 #@! TD*
G04 #@! TO.P,TP165,1*
G04 #@! TO.N,Net-(TP165-Pad1)*
X58420000Y-116840000D03*
G04 #@! TD*
G04 #@! TO.P,TP164,1*
G04 #@! TO.N,Net-(TP164-Pad1)*
X58420000Y-127000000D03*
G04 #@! TD*
G04 #@! TO.P,TP163,1*
G04 #@! TO.N,Net-(TP163-Pad1)*
X58420000Y-91440000D03*
G04 #@! TD*
G04 #@! TO.P,TP162,1*
G04 #@! TO.N,Net-(TP162-Pad1)*
X58420000Y-101600000D03*
G04 #@! TD*
G04 #@! TO.P,TP161,1*
G04 #@! TO.N,Net-(TP161-Pad1)*
X58420000Y-114300000D03*
G04 #@! TD*
G04 #@! TO.P,TP178,1*
G04 #@! TO.N,Net-(TP178-Pad1)*
X58420000Y-93980000D03*
G04 #@! TD*
G04 #@! TO.P,TP170,1*
G04 #@! TO.N,Net-(TP170-Pad1)*
X58420000Y-104140000D03*
G04 #@! TD*
G04 #@! TO.P,TP180,1*
G04 #@! TO.N,Net-(TP180-Pad1)*
X58420000Y-86360000D03*
G04 #@! TD*
G04 #@! TO.P,TP160,1*
G04 #@! TO.N,Net-(TP160-Pad1)*
X55880000Y-119380000D03*
G04 #@! TD*
G04 #@! TO.P,TP158,1*
G04 #@! TO.N,Net-(TP158-Pad1)*
X55880000Y-121920000D03*
G04 #@! TD*
G04 #@! TO.P,TP157,1*
G04 #@! TO.N,Net-(TP157-Pad1)*
X55880000Y-96520000D03*
G04 #@! TD*
G04 #@! TO.P,TP156,1*
G04 #@! TO.N,Net-(TP156-Pad1)*
X55880000Y-99060000D03*
G04 #@! TD*
G04 #@! TO.P,TP155,1*
G04 #@! TO.N,Net-(TP155-Pad1)*
X55880000Y-111760000D03*
G04 #@! TD*
G04 #@! TO.P,TP154,1*
G04 #@! TO.N,Net-(TP154-Pad1)*
X55880000Y-129540000D03*
G04 #@! TD*
G04 #@! TO.P,TP153,1*
G04 #@! TO.N,Net-(TP153-Pad1)*
X55880000Y-88900000D03*
G04 #@! TD*
G04 #@! TO.P,TP152,1*
G04 #@! TO.N,Net-(TP152-Pad1)*
X55880000Y-101600000D03*
G04 #@! TD*
G04 #@! TO.P,TP141,1*
G04 #@! TO.N,Net-(TP141-Pad1)*
X55880000Y-116840000D03*
G04 #@! TD*
G04 #@! TO.P,TP150,1*
G04 #@! TO.N,Net-(TP150-Pad1)*
X55880000Y-124460000D03*
G04 #@! TD*
G04 #@! TO.P,TP149,1*
G04 #@! TO.N,Net-(TP149-Pad1)*
X55880000Y-86360000D03*
G04 #@! TD*
G04 #@! TO.P,TP148,1*
G04 #@! TO.N,Net-(TP148-Pad1)*
X55880000Y-106680000D03*
G04 #@! TD*
G04 #@! TO.P,TP147,1*
G04 #@! TO.N,Net-(TP147-Pad1)*
X55880000Y-114300000D03*
G04 #@! TD*
G04 #@! TO.P,TP146,1*
G04 #@! TO.N,Net-(TP146-Pad1)*
X55880000Y-127000000D03*
G04 #@! TD*
G04 #@! TO.P,TP145,1*
G04 #@! TO.N,Net-(TP145-Pad1)*
X55880000Y-83820000D03*
G04 #@! TD*
G04 #@! TO.P,TP144,1*
G04 #@! TO.N,Net-(TP144-Pad1)*
X55880000Y-104140000D03*
G04 #@! TD*
G04 #@! TO.P,TP143,1*
G04 #@! TO.N,Net-(TP143-Pad1)*
X55880000Y-109220000D03*
G04 #@! TD*
G04 #@! TO.P,TP142,1*
G04 #@! TO.N,Net-(TP142-Pad1)*
X55880000Y-93980000D03*
G04 #@! TD*
G04 #@! TO.P,TP159,1*
G04 #@! TO.N,Net-(TP159-Pad1)*
X55880000Y-81280000D03*
G04 #@! TD*
G04 #@! TO.P,TP151,1*
G04 #@! TO.N,Net-(TP151-Pad1)*
X55880000Y-91440000D03*
G04 #@! TD*
G04 #@! TO.P,TP139,1*
G04 #@! TO.N,Net-(TP139-Pad1)*
X53340000Y-109220000D03*
G04 #@! TD*
G04 #@! TO.P,TP137,1*
G04 #@! TO.N,Net-(TP137-Pad1)*
X53340000Y-129540000D03*
G04 #@! TD*
G04 #@! TO.P,TP136,1*
G04 #@! TO.N,Net-(TP136-Pad1)*
X53340000Y-81280000D03*
G04 #@! TD*
G04 #@! TO.P,TP135,1*
G04 #@! TO.N,Net-(TP135-Pad1)*
X53340000Y-101600000D03*
G04 #@! TD*
G04 #@! TO.P,TP134,1*
G04 #@! TO.N,Net-(TP134-Pad1)*
X53340000Y-119380000D03*
G04 #@! TD*
G04 #@! TO.P,TP133,1*
G04 #@! TO.N,Net-(TP133-Pad1)*
X53340000Y-124460000D03*
G04 #@! TD*
G04 #@! TO.P,TP123,1*
G04 #@! TO.N,Net-(TP123-Pad1)*
X53340000Y-88900000D03*
G04 #@! TD*
G04 #@! TO.P,TP131,1*
G04 #@! TO.N,Net-(TP131-Pad1)*
X53340000Y-96520000D03*
G04 #@! TD*
G04 #@! TO.P,TP130,1*
G04 #@! TO.N,Net-(TP130-Pad1)*
X53340000Y-111760000D03*
G04 #@! TD*
G04 #@! TO.P,TP129,1*
G04 #@! TO.N,Net-(TP129-Pad1)*
X53340000Y-127000000D03*
G04 #@! TD*
G04 #@! TO.P,TP128,1*
G04 #@! TO.N,Net-(TP128-Pad1)*
X53340000Y-86360000D03*
G04 #@! TD*
G04 #@! TO.P,TP127,1*
G04 #@! TO.N,Net-(TP127-Pad1)*
X53340000Y-104140000D03*
G04 #@! TD*
G04 #@! TO.P,TP126,1*
G04 #@! TO.N,Net-(TP126-Pad1)*
X53340000Y-116840000D03*
G04 #@! TD*
G04 #@! TO.P,TP125,1*
G04 #@! TO.N,Net-(TP125-Pad1)*
X53340000Y-121920000D03*
G04 #@! TD*
G04 #@! TO.P,TP124,1*
G04 #@! TO.N,Net-(TP124-Pad1)*
X53340000Y-93980000D03*
G04 #@! TD*
G04 #@! TO.P,TP138,1*
G04 #@! TO.N,Net-(TP138-Pad1)*
X53340000Y-106680000D03*
G04 #@! TD*
G04 #@! TO.P,TP122,1*
G04 #@! TO.N,Net-(TP122-Pad1)*
X53340000Y-114300000D03*
G04 #@! TD*
G04 #@! TO.P,TP132,1*
G04 #@! TO.N,Net-(TP132-Pad1)*
X53340000Y-83820000D03*
G04 #@! TD*
G04 #@! TO.P,TP140,1*
G04 #@! TO.N,Net-(TP140-Pad1)*
X53340000Y-99060000D03*
G04 #@! TD*
G04 #@! TO.P,TP121,1*
G04 #@! TO.N,Net-(TP121-Pad1)*
X53340000Y-91440000D03*
G04 #@! TD*
G04 #@! TO.P,TP107,1*
G04 #@! TO.N,Net-(TP107-Pad1)*
X50800000Y-111760000D03*
G04 #@! TD*
G04 #@! TO.P,TP109,1*
G04 #@! TO.N,Net-(TP109-Pad1)*
X50800000Y-129540000D03*
G04 #@! TD*
G04 #@! TO.P,TP110,1*
G04 #@! TO.N,Net-(TP110-Pad1)*
X50800000Y-81280000D03*
G04 #@! TD*
G04 #@! TO.P,TP111,1*
G04 #@! TO.N,Net-(TP111-Pad1)*
X50800000Y-99060000D03*
G04 #@! TD*
G04 #@! TO.P,TP112,1*
G04 #@! TO.N,Net-(TP112-Pad1)*
X50800000Y-119380000D03*
G04 #@! TD*
G04 #@! TO.P,TP113,1*
G04 #@! TO.N,Net-(TP113-Pad1)*
X50800000Y-124460000D03*
G04 #@! TD*
G04 #@! TO.P,TP114,1*
G04 #@! TO.N,Net-(TP114-Pad1)*
X50800000Y-93980000D03*
G04 #@! TD*
G04 #@! TO.P,TP115,1*
G04 #@! TO.N,Net-(TP115-Pad1)*
X50800000Y-104140000D03*
G04 #@! TD*
G04 #@! TO.P,TP116,1*
G04 #@! TO.N,Net-(TP116-Pad1)*
X50800000Y-114300000D03*
G04 #@! TD*
G04 #@! TO.P,TP117,1*
G04 #@! TO.N,Net-(TP117-Pad1)*
X50800000Y-127000000D03*
G04 #@! TD*
G04 #@! TO.P,TP118,1*
G04 #@! TO.N,Net-(TP118-Pad1)*
X50800000Y-83820000D03*
G04 #@! TD*
G04 #@! TO.P,TP119,1*
G04 #@! TO.N,Net-(TP119-Pad1)*
X50800000Y-106680000D03*
G04 #@! TD*
G04 #@! TO.P,TP120,1*
G04 #@! TO.N,Net-(TP120-Pad1)*
X50800000Y-109220000D03*
G04 #@! TD*
G04 #@! TO.P,TP108,1*
G04 #@! TO.N,Net-(TP108-Pad1)*
X50800000Y-121920000D03*
G04 #@! TD*
G04 #@! TO.P,TP105,1*
G04 #@! TO.N,Net-(TP105-Pad1)*
X50800000Y-88900000D03*
G04 #@! TD*
G04 #@! TO.P,TP104,1*
G04 #@! TO.N,Net-(TP104-Pad1)*
X50800000Y-101600000D03*
G04 #@! TD*
G04 #@! TO.P,TP103,1*
G04 #@! TO.N,Net-(TP103-Pad1)*
X50800000Y-116840000D03*
G04 #@! TD*
G04 #@! TO.P,TP102,1*
G04 #@! TO.N,Net-(TP102-Pad1)*
X50800000Y-86360000D03*
G04 #@! TD*
G04 #@! TO.P,TP101,1*
G04 #@! TO.N,Net-(TP101-Pad1)*
X50800000Y-96520000D03*
G04 #@! TD*
G04 #@! TO.P,TP106,1*
G04 #@! TO.N,Net-(TP106-Pad1)*
X50800000Y-91440000D03*
G04 #@! TD*
G04 #@! TO.P,TP100,1*
G04 #@! TO.N,Net-(TP100-Pad1)*
X48260000Y-81280000D03*
G04 #@! TD*
G04 #@! TO.P,TP99,1*
G04 #@! TO.N,Net-(TP99-Pad1)*
X48260000Y-121920000D03*
G04 #@! TD*
G04 #@! TO.P,TP98,1*
G04 #@! TO.N,Net-(TP98-Pad1)*
X48260000Y-129540000D03*
G04 #@! TD*
G04 #@! TO.P,TP97,1*
G04 #@! TO.N,Net-(TP97-Pad1)*
X48260000Y-101600000D03*
G04 #@! TD*
G04 #@! TO.P,TP96,1*
G04 #@! TO.N,Net-(TP96-Pad1)*
X48260000Y-116840000D03*
G04 #@! TD*
G04 #@! TO.P,TP95,1*
G04 #@! TO.N,Net-(TP95-Pad1)*
X48260000Y-119380000D03*
G04 #@! TD*
G04 #@! TO.P,TP94,1*
G04 #@! TO.N,Net-(TP94-Pad1)*
X48260000Y-88900000D03*
G04 #@! TD*
G04 #@! TO.P,TP93,1*
G04 #@! TO.N,Net-(TP93-Pad1)*
X48260000Y-106680000D03*
G04 #@! TD*
G04 #@! TO.P,TP92,1*
G04 #@! TO.N,Net-(TP92-Pad1)*
X48260000Y-114300000D03*
G04 #@! TD*
G04 #@! TO.P,TP91,1*
G04 #@! TO.N,Net-(TP91-Pad1)*
X48260000Y-127000000D03*
G04 #@! TD*
G04 #@! TO.P,TP90,1*
G04 #@! TO.N,Net-(TP90-Pad1)*
X48260000Y-93980000D03*
G04 #@! TD*
G04 #@! TO.P,TP89,1*
G04 #@! TO.N,Net-(TP89-Pad1)*
X48260000Y-99060000D03*
G04 #@! TD*
G04 #@! TO.P,TP87,1*
G04 #@! TO.N,Net-(TP87-Pad1)*
X48260000Y-109220000D03*
G04 #@! TD*
G04 #@! TO.P,TP86,1*
G04 #@! TO.N,Net-(TP86-Pad1)*
X48260000Y-124460000D03*
G04 #@! TD*
G04 #@! TO.P,TP85,1*
G04 #@! TO.N,Net-(TP85-Pad1)*
X48260000Y-86360000D03*
G04 #@! TD*
G04 #@! TO.P,TP84,1*
G04 #@! TO.N,Net-(TP84-Pad1)*
X48260000Y-96520000D03*
G04 #@! TD*
G04 #@! TO.P,TP83,1*
G04 #@! TO.N,Net-(TP83-Pad1)*
X48260000Y-111760000D03*
G04 #@! TD*
G04 #@! TO.P,TP82,1*
G04 #@! TO.N,Net-(TP82-Pad1)*
X48260000Y-83820000D03*
G04 #@! TD*
G04 #@! TO.P,TP81,1*
G04 #@! TO.N,Net-(TP81-Pad1)*
X48260000Y-104140000D03*
G04 #@! TD*
G04 #@! TO.P,TP88,1*
G04 #@! TO.N,Net-(TP88-Pad1)*
X48260000Y-91440000D03*
G04 #@! TD*
G04 #@! TO.P,TP80,1*
G04 #@! TO.N,GNDA*
X73660000Y-157480000D03*
G04 #@! TD*
G04 #@! TO.P,TP79,1*
G04 #@! TO.N,GNDA*
X73660000Y-160020000D03*
G04 #@! TD*
G04 #@! TO.P,TP78,1*
G04 #@! TO.N,VDDA*
X73660000Y-149860000D03*
G04 #@! TD*
G04 #@! TO.P,TP77,1*
G04 #@! TO.N,VDDA*
X73660000Y-147320000D03*
G04 #@! TD*
G04 #@! TO.P,TP76,1*
G04 #@! TO.N,GND*
X71120000Y-157480000D03*
G04 #@! TD*
G04 #@! TO.P,TP75,1*
G04 #@! TO.N,GND*
X71120000Y-160020000D03*
G04 #@! TD*
G04 #@! TO.P,TP74,1*
G04 #@! TO.N,VDD*
X71120000Y-147320000D03*
G04 #@! TD*
G04 #@! TO.P,TP73,1*
G04 #@! TO.N,VDD*
X71120000Y-149860000D03*
G04 #@! TD*
G04 #@! TO.P,TP72,1*
G04 #@! TO.N,/D15*
X68580000Y-160020000D03*
G04 #@! TD*
G04 #@! TO.P,TP71,1*
G04 #@! TO.N,/D15*
X68580000Y-157480000D03*
G04 #@! TD*
G04 #@! TO.P,TP70,1*
G04 #@! TO.N,/D14*
X68580000Y-147320000D03*
G04 #@! TD*
G04 #@! TO.P,TP69,1*
G04 #@! TO.N,/D14*
X68580000Y-149860000D03*
G04 #@! TD*
G04 #@! TO.P,TP68,1*
G04 #@! TO.N,/D13*
X66040000Y-157480000D03*
G04 #@! TD*
G04 #@! TO.P,TP67,1*
G04 #@! TO.N,/D13*
X66040000Y-160020000D03*
G04 #@! TD*
G04 #@! TO.P,TP66,1*
G04 #@! TO.N,/D12*
X66040000Y-147320000D03*
G04 #@! TD*
G04 #@! TO.P,TP65,1*
G04 #@! TO.N,/D12*
X66040000Y-149860000D03*
G04 #@! TD*
G04 #@! TO.P,TP63,1*
G04 #@! TO.N,/D11*
X63500000Y-157480000D03*
G04 #@! TD*
G04 #@! TO.P,TP62,1*
G04 #@! TO.N,/D10*
X63500000Y-149860000D03*
G04 #@! TD*
G04 #@! TO.P,TP61,1*
G04 #@! TO.N,/D10*
X63500000Y-147320000D03*
G04 #@! TD*
G04 #@! TO.P,TP60,1*
G04 #@! TO.N,/D9*
X60960000Y-157480000D03*
G04 #@! TD*
G04 #@! TO.P,TP59,1*
G04 #@! TO.N,/D9*
X60960000Y-160020000D03*
G04 #@! TD*
G04 #@! TO.P,TP58,1*
G04 #@! TO.N,/D8*
X60960000Y-149860000D03*
G04 #@! TD*
G04 #@! TO.P,TP64,1*
G04 #@! TO.N,/D11*
X63500000Y-160020000D03*
G04 #@! TD*
G04 #@! TO.P,TP52,1*
G04 #@! TO.N,/D7*
X58420000Y-160020000D03*
G04 #@! TD*
G04 #@! TO.P,TP51,1*
G04 #@! TO.N,/D7*
X58420000Y-157480000D03*
G04 #@! TD*
G04 #@! TO.P,TP50,1*
G04 #@! TO.N,/D6*
X58420000Y-149860000D03*
G04 #@! TD*
G04 #@! TO.P,TP49,1*
G04 #@! TO.N,/D6*
X58420000Y-147320000D03*
G04 #@! TD*
G04 #@! TO.P,TP48,1*
G04 #@! TO.N,/D5*
X55880000Y-160020000D03*
G04 #@! TD*
G04 #@! TO.P,TP47,1*
G04 #@! TO.N,/D5*
X55880000Y-157480000D03*
G04 #@! TD*
G04 #@! TO.P,TP57,1*
G04 #@! TO.N,/D8*
X60960000Y-147320000D03*
G04 #@! TD*
G04 #@! TO.P,TP26,1*
G04 #@! TO.N,/D4*
X55880000Y-149860000D03*
G04 #@! TD*
G04 #@! TO.P,TP25,1*
G04 #@! TO.N,/D4*
X55880000Y-147320000D03*
G04 #@! TD*
G04 #@! TO.P,TP24,1*
G04 #@! TO.N,/D3*
X53340000Y-160020000D03*
G04 #@! TD*
G04 #@! TO.P,TP23,1*
G04 #@! TO.N,/D3*
X53340000Y-157480000D03*
G04 #@! TD*
G04 #@! TO.P,TP22,1*
G04 #@! TO.N,/D2*
X53340000Y-147320000D03*
G04 #@! TD*
G04 #@! TO.P,TP21,1*
G04 #@! TO.N,/D2*
X53340000Y-149860000D03*
G04 #@! TD*
G04 #@! TO.P,TP56,1*
G04 #@! TO.N,/D1*
X50800000Y-157480000D03*
G04 #@! TD*
G04 #@! TO.P,TP54,1*
G04 #@! TO.N,/D0*
X50800000Y-149860000D03*
G04 #@! TD*
G04 #@! TO.P,TP53,1*
G04 #@! TO.N,/D0*
X50800000Y-147320000D03*
G04 #@! TD*
G04 #@! TO.P,TP55,1*
G04 #@! TO.N,/D1*
X50800000Y-160020000D03*
G04 #@! TD*
G04 #@! TO.P,TP46,1*
G04 #@! TO.N,GNDA*
X76200000Y-111760000D03*
G04 #@! TD*
G04 #@! TO.P,TP45,1*
G04 #@! TO.N,GNDA*
X76200000Y-127000000D03*
G04 #@! TD*
G04 #@! TO.P,TP44,1*
G04 #@! TO.N,GNDA*
X76200000Y-129540000D03*
G04 #@! TD*
G04 #@! TO.P,TP43,1*
G04 #@! TO.N,GNDA*
X76200000Y-93980000D03*
G04 #@! TD*
G04 #@! TO.P,TP42,1*
G04 #@! TO.N,GNDA*
X76200000Y-109220000D03*
G04 #@! TD*
G04 #@! TO.P,TP41,1*
G04 #@! TO.N,GNDA*
X76200000Y-124460000D03*
G04 #@! TD*
G04 #@! TO.P,TP39,1*
G04 #@! TO.N,GNDA*
X76200000Y-96520000D03*
G04 #@! TD*
G04 #@! TO.P,TP38,1*
G04 #@! TO.N,GNDA*
X76200000Y-88900000D03*
G04 #@! TD*
G04 #@! TO.P,TP37,1*
G04 #@! TO.N,GNDA*
X76200000Y-106680000D03*
G04 #@! TD*
G04 #@! TO.P,TP36,1*
G04 #@! TO.N,GNDA*
X76200000Y-121920000D03*
G04 #@! TD*
G04 #@! TO.P,TP35,1*
G04 #@! TO.N,GNDA*
X76200000Y-99060000D03*
G04 #@! TD*
G04 #@! TO.P,TP34,1*
G04 #@! TO.N,GNDA*
X76200000Y-91440000D03*
G04 #@! TD*
G04 #@! TO.P,TP33,1*
G04 #@! TO.N,GNDA*
X76200000Y-104140000D03*
G04 #@! TD*
G04 #@! TO.P,TP32,1*
G04 #@! TO.N,GNDA*
X76200000Y-119380000D03*
G04 #@! TD*
G04 #@! TO.P,TP31,1*
G04 #@! TO.N,GNDA*
X76200000Y-114300000D03*
G04 #@! TD*
G04 #@! TO.P,TP30,1*
G04 #@! TO.N,GNDA*
X76200000Y-86360000D03*
G04 #@! TD*
G04 #@! TO.P,TP29,1*
G04 #@! TO.N,GNDA*
X76200000Y-101600000D03*
G04 #@! TD*
G04 #@! TO.P,TP28,1*
G04 #@! TO.N,GNDA*
X76200000Y-116840000D03*
G04 #@! TD*
G04 #@! TO.P,TP27,1*
G04 #@! TO.N,GNDA*
X76200000Y-83820000D03*
G04 #@! TD*
G04 #@! TO.P,TP40,1*
G04 #@! TO.N,GNDA*
X76200000Y-81280000D03*
G04 #@! TD*
G04 #@! TO.P,TP20,1*
G04 #@! TO.N,VDDA*
X73660000Y-96520000D03*
G04 #@! TD*
G04 #@! TO.P,TP19,1*
G04 #@! TO.N,VDDA*
X73660000Y-99060000D03*
G04 #@! TD*
G04 #@! TO.P,TP18,1*
G04 #@! TO.N,VDDA*
X73660000Y-109220000D03*
G04 #@! TD*
G04 #@! TO.P,TP17,1*
G04 #@! TO.N,VDDA*
X73660000Y-101600000D03*
G04 #@! TD*
G04 #@! TO.P,TP16,1*
G04 #@! TO.N,VDDA*
X73660000Y-104140000D03*
G04 #@! TD*
G04 #@! TO.P,TP15,1*
G04 #@! TO.N,VDDA*
X73660000Y-116840000D03*
G04 #@! TD*
G04 #@! TO.P,TP14,1*
G04 #@! TO.N,VDDA*
X73660000Y-106680000D03*
G04 #@! TD*
G04 #@! TO.P,TP13,1*
G04 #@! TO.N,VDDA*
X73660000Y-114300000D03*
G04 #@! TD*
G04 #@! TO.P,TP12,1*
G04 #@! TO.N,VDDA*
X73660000Y-124460000D03*
G04 #@! TD*
G04 #@! TO.P,TP11,1*
G04 #@! TO.N,VDDA*
X73660000Y-111760000D03*
G04 #@! TD*
G04 #@! TO.P,TP10,1*
G04 #@! TO.N,VDDA*
X73660000Y-121920000D03*
G04 #@! TD*
G04 #@! TO.P,TP8,1*
G04 #@! TO.N,VDDA*
X73660000Y-127000000D03*
G04 #@! TD*
G04 #@! TO.P,TP7,1*
G04 #@! TO.N,VDDA*
X73660000Y-119380000D03*
G04 #@! TD*
G04 #@! TO.P,TP6,1*
G04 #@! TO.N,VDDA*
X73660000Y-129540000D03*
G04 #@! TD*
G04 #@! TO.P,TP9,1*
G04 #@! TO.N,VDDA*
X73660000Y-93980000D03*
G04 #@! TD*
G04 #@! TO.P,TP5,1*
G04 #@! TO.N,VDDA*
X73660000Y-88900000D03*
G04 #@! TD*
G04 #@! TO.P,TP4,1*
G04 #@! TO.N,VDDA*
X73660000Y-86360000D03*
G04 #@! TD*
G04 #@! TO.P,TP2,1*
G04 #@! TO.N,VDDA*
X73660000Y-83820000D03*
G04 #@! TD*
G04 #@! TO.P,TP1,1*
G04 #@! TO.N,VDDA*
X73660000Y-91440000D03*
G04 #@! TD*
G04 #@! TO.P,TP3,1*
G04 #@! TO.N,VDDA*
X73660000Y-81280000D03*
G04 #@! TD*
D11*
G04 #@! TO.P,J2,20*
G04 #@! TO.N,Net-(J2-Pad20)*
X73660000Y-73660000D03*
G04 #@! TO.P,J2,19*
G04 #@! TO.N,Net-(J2-Pad19)*
X73660000Y-76200000D03*
G04 #@! TO.P,J2,18*
G04 #@! TO.N,Net-(J2-Pad18)*
X71120000Y-73660000D03*
G04 #@! TO.P,J2,17*
G04 #@! TO.N,Net-(J2-Pad17)*
X71120000Y-76200000D03*
G04 #@! TO.P,J2,16*
G04 #@! TO.N,Net-(J2-Pad16)*
X68580000Y-73660000D03*
G04 #@! TO.P,J2,15*
G04 #@! TO.N,Net-(J2-Pad15)*
X68580000Y-76200000D03*
G04 #@! TO.P,J2,14*
G04 #@! TO.N,Net-(J2-Pad14)*
X66040000Y-73660000D03*
G04 #@! TO.P,J2,13*
G04 #@! TO.N,Net-(J2-Pad13)*
X66040000Y-76200000D03*
G04 #@! TO.P,J2,12*
G04 #@! TO.N,Net-(J2-Pad12)*
X63500000Y-73660000D03*
G04 #@! TO.P,J2,11*
G04 #@! TO.N,Net-(J2-Pad11)*
X63500000Y-76200000D03*
G04 #@! TO.P,J2,10*
G04 #@! TO.N,Net-(J2-Pad10)*
X60960000Y-73660000D03*
G04 #@! TO.P,J2,9*
G04 #@! TO.N,Net-(J2-Pad9)*
X60960000Y-76200000D03*
G04 #@! TO.P,J2,8*
G04 #@! TO.N,Net-(J2-Pad8)*
X58420000Y-73660000D03*
G04 #@! TO.P,J2,7*
G04 #@! TO.N,Net-(J2-Pad7)*
X58420000Y-76200000D03*
G04 #@! TO.P,J2,6*
G04 #@! TO.N,Net-(J2-Pad6)*
X55880000Y-73660000D03*
G04 #@! TO.P,J2,5*
G04 #@! TO.N,Net-(J2-Pad5)*
X55880000Y-76200000D03*
G04 #@! TO.P,J2,4*
G04 #@! TO.N,Net-(J2-Pad4)*
X53340000Y-73660000D03*
G04 #@! TO.P,J2,3*
G04 #@! TO.N,Net-(J2-Pad3)*
X53340000Y-76200000D03*
G04 #@! TO.P,J2,2*
G04 #@! TO.N,Net-(J2-Pad2)*
X50800000Y-73660000D03*
D12*
G04 #@! TO.P,J2,1*
G04 #@! TO.N,Net-(J2-Pad1)*
X50800000Y-76200000D03*
G04 #@! TD*
G04 #@! TO.P,J1,1*
G04 #@! TO.N,/D1*
X50800000Y-154940000D03*
D11*
G04 #@! TO.P,J1,2*
G04 #@! TO.N,/D0*
X50800000Y-152400000D03*
G04 #@! TO.P,J1,3*
G04 #@! TO.N,/D3*
X53340000Y-154940000D03*
G04 #@! TO.P,J1,4*
G04 #@! TO.N,/D2*
X53340000Y-152400000D03*
G04 #@! TO.P,J1,5*
G04 #@! TO.N,/D5*
X55880000Y-154940000D03*
G04 #@! TO.P,J1,6*
G04 #@! TO.N,/D4*
X55880000Y-152400000D03*
G04 #@! TO.P,J1,7*
G04 #@! TO.N,/D7*
X58420000Y-154940000D03*
G04 #@! TO.P,J1,8*
G04 #@! TO.N,/D6*
X58420000Y-152400000D03*
G04 #@! TO.P,J1,9*
G04 #@! TO.N,/D9*
X60960000Y-154940000D03*
G04 #@! TO.P,J1,10*
G04 #@! TO.N,/D8*
X60960000Y-152400000D03*
G04 #@! TO.P,J1,11*
G04 #@! TO.N,/D11*
X63500000Y-154940000D03*
G04 #@! TO.P,J1,12*
G04 #@! TO.N,/D10*
X63500000Y-152400000D03*
G04 #@! TO.P,J1,13*
G04 #@! TO.N,/D13*
X66040000Y-154940000D03*
G04 #@! TO.P,J1,14*
G04 #@! TO.N,/D12*
X66040000Y-152400000D03*
G04 #@! TO.P,J1,15*
G04 #@! TO.N,/D15*
X68580000Y-154940000D03*
G04 #@! TO.P,J1,16*
G04 #@! TO.N,/D14*
X68580000Y-152400000D03*
G04 #@! TO.P,J1,17*
G04 #@! TO.N,GND*
X71120000Y-154940000D03*
G04 #@! TO.P,J1,18*
G04 #@! TO.N,VDD*
X71120000Y-152400000D03*
G04 #@! TO.P,J1,19*
G04 #@! TO.N,GNDA*
X73660000Y-154940000D03*
G04 #@! TO.P,J1,20*
G04 #@! TO.N,VDDA*
X73660000Y-152400000D03*
G04 #@! TD*
D13*
G04 #@! TO.N,VDDA*
X73660000Y-137160000D02*
X73660000Y-139700000D01*
G04 #@! TD*
M02*
