G04 #@! TF.GenerationSoftware,KiCad,Pcbnew,5.0.2-bee76a0~70~ubuntu18.04.1*
G04 #@! TF.CreationDate,2019-05-09T10:06:10+02:00*
G04 #@! TF.ProjectId,breadboard,62726561-6462-46f6-9172-642e6b696361,rev?*
G04 #@! TF.SameCoordinates,Original*
G04 #@! TF.FileFunction,Copper,L1,Top*
G04 #@! TF.FilePolarity,Positive*
%FSLAX46Y46*%
G04 Gerber Fmt 4.6, Leading zero omitted, Abs format (unit mm)*
G04 Created by KiCad (PCBNEW 5.0.2-bee76a0~70~ubuntu18.04.1) date jeu. 09 mai 2019 10:06:10 CEST*
%MOMM*%
%LPD*%
G01*
G04 APERTURE LIST*
G04 #@! TA.AperFunction,BGAPad,CuDef*
%ADD10C,1.500000*%
G04 #@! TD*
G04 #@! TA.AperFunction,ViaPad*
%ADD11C,0.800000*%
G04 #@! TD*
G04 #@! TA.AperFunction,Conductor*
%ADD12C,0.400000*%
G04 #@! TD*
G04 APERTURE END LIST*
D10*
G04 #@! TO.P,TP38,1*
G04 #@! TO.N,Net-(P2-Pad19)*
X111760000Y-70358000D03*
G04 #@! TD*
G04 #@! TO.P,TP50,1*
G04 #@! TO.N,Net-(P2-Pad32)*
X104140000Y-64008000D03*
G04 #@! TD*
G04 #@! TO.P,TP49,1*
G04 #@! TO.N,Net-(P2-Pad28)*
X106680000Y-64008000D03*
G04 #@! TD*
G04 #@! TO.P,TP48,1*
G04 #@! TO.N,Net-(P2-Pad24)*
X109220000Y-64008000D03*
G04 #@! TD*
G04 #@! TO.P,TP47,1*
G04 #@! TO.N,Net-(P2-Pad20)*
X111760000Y-64008000D03*
G04 #@! TD*
G04 #@! TO.P,TP46,1*
G04 #@! TO.N,Net-(P2-Pad16)*
X114300000Y-64008000D03*
G04 #@! TD*
G04 #@! TO.P,TP45,1*
G04 #@! TO.N,Net-(P2-Pad12)*
X116840000Y-64008000D03*
G04 #@! TD*
G04 #@! TO.P,TP44,1*
G04 #@! TO.N,Net-(P2-Pad8)*
X119380000Y-64008000D03*
G04 #@! TD*
G04 #@! TO.P,TP43,1*
G04 #@! TO.N,Net-(P2-Pad4)*
X121920000Y-64008000D03*
G04 #@! TD*
G04 #@! TO.P,TP42,1*
G04 #@! TO.N,Net-(P2-Pad35)*
X101600000Y-70358000D03*
G04 #@! TD*
G04 #@! TO.P,TP41,1*
G04 #@! TO.N,Net-(P2-Pad31)*
X104140000Y-70358000D03*
G04 #@! TD*
G04 #@! TO.P,TP40,1*
G04 #@! TO.N,Net-(P2-Pad27)*
X106680000Y-70358000D03*
G04 #@! TD*
G04 #@! TO.P,TP39,1*
G04 #@! TO.N,Net-(P2-Pad23)*
X109220000Y-70358000D03*
G04 #@! TD*
G04 #@! TO.P,TP37,1*
G04 #@! TO.N,Net-(P2-Pad15)*
X114300000Y-70358000D03*
G04 #@! TD*
G04 #@! TO.P,TP36,1*
G04 #@! TO.N,Net-(P2-Pad11)*
X116840000Y-70358000D03*
G04 #@! TD*
G04 #@! TO.P,TP35,1*
G04 #@! TO.N,Net-(P2-Pad7)*
X119380000Y-70358000D03*
G04 #@! TD*
G04 #@! TO.P,TP34,1*
G04 #@! TO.N,Net-(P2-Pad3)*
X121920000Y-70358000D03*
G04 #@! TD*
G04 #@! TO.P,TP51,1*
G04 #@! TO.N,Net-(P2-Pad36)*
X101600000Y-64008000D03*
G04 #@! TD*
G04 #@! TO.P,TP32,1*
G04 #@! TO.N,+3V3*
X99822000Y-118491000D03*
G04 #@! TD*
G04 #@! TO.P,TP31,1*
G04 #@! TO.N,+3V3*
X99822000Y-107061000D03*
G04 #@! TD*
G04 #@! TO.P,TP30,1*
G04 #@! TO.N,+3V3*
X99822000Y-122301000D03*
G04 #@! TD*
G04 #@! TO.P,TP29,1*
G04 #@! TO.N,+3V3*
X99822000Y-126111000D03*
G04 #@! TD*
G04 #@! TO.P,TP28,1*
G04 #@! TO.N,+3V3*
X99822000Y-110871000D03*
G04 #@! TD*
G04 #@! TO.P,TP27,1*
G04 #@! TO.N,+3V3*
X99822000Y-129921000D03*
G04 #@! TD*
G04 #@! TO.P,TP26,1*
G04 #@! TO.N,+3V3*
X99822000Y-114681000D03*
G04 #@! TD*
G04 #@! TO.P,TP24,1*
G04 #@! TO.N,GNDA*
X124460000Y-114681000D03*
G04 #@! TD*
G04 #@! TO.P,TP23,1*
G04 #@! TO.N,GNDA*
X124460000Y-107061000D03*
G04 #@! TD*
G04 #@! TO.P,TP22,1*
G04 #@! TO.N,GNDA*
X124460000Y-103251000D03*
G04 #@! TD*
G04 #@! TO.P,TP21,1*
G04 #@! TO.N,GNDA*
X124460000Y-118491000D03*
G04 #@! TD*
G04 #@! TO.P,TP20,1*
G04 #@! TO.N,GNDA*
X124460000Y-110871000D03*
G04 #@! TD*
G04 #@! TO.P,TP19,1*
G04 #@! TO.N,GNDA*
X124460000Y-122301000D03*
G04 #@! TD*
G04 #@! TO.P,TP33,1*
G04 #@! TO.N,+3V3*
X99822000Y-103251000D03*
G04 #@! TD*
G04 #@! TO.P,TP18,1*
G04 #@! TO.N,GNDA*
X124460000Y-129921000D03*
G04 #@! TD*
G04 #@! TO.P,TP25,1*
G04 #@! TO.N,GNDA*
X124460000Y-126111000D03*
G04 #@! TD*
G04 #@! TO.P,TP17,1*
G04 #@! TO.N,Net-(P1-Pad36)*
X101600000Y-137541000D03*
G04 #@! TD*
G04 #@! TO.P,TP16,1*
G04 #@! TO.N,Net-(P1-Pad32)*
X104140000Y-137541000D03*
G04 #@! TD*
G04 #@! TO.P,TP15,1*
G04 #@! TO.N,Net-(P1-Pad28)*
X106680000Y-137541000D03*
G04 #@! TD*
G04 #@! TO.P,TP14,1*
G04 #@! TO.N,Net-(P1-Pad24)*
X109220000Y-137541000D03*
G04 #@! TD*
G04 #@! TO.P,TP13,1*
G04 #@! TO.N,Net-(P1-Pad20)*
X111760000Y-137541000D03*
G04 #@! TD*
G04 #@! TO.P,TP12,1*
G04 #@! TO.N,Net-(P1-Pad16)*
X114300000Y-137541000D03*
G04 #@! TD*
G04 #@! TO.P,TP11,1*
G04 #@! TO.N,Net-(P1-Pad12)*
X116840000Y-137541000D03*
G04 #@! TD*
G04 #@! TO.P,TP10,1*
G04 #@! TO.N,Net-(P1-Pad8)*
X119380000Y-137541000D03*
G04 #@! TD*
G04 #@! TO.P,TP9,1*
G04 #@! TO.N,Net-(P1-Pad35)*
X101600000Y-143891000D03*
G04 #@! TD*
G04 #@! TO.P,TP8,1*
G04 #@! TO.N,Net-(P1-Pad31)*
X104140000Y-143891000D03*
G04 #@! TD*
G04 #@! TO.P,TP7,1*
G04 #@! TO.N,Net-(P1-Pad27)*
X106680000Y-143891000D03*
G04 #@! TD*
G04 #@! TO.P,TP6,1*
G04 #@! TO.N,Net-(P1-Pad23)*
X109220000Y-143891000D03*
G04 #@! TD*
G04 #@! TO.P,TP5,1*
G04 #@! TO.N,Net-(P1-Pad19)*
X111760000Y-143891000D03*
G04 #@! TD*
G04 #@! TO.P,TP4,1*
G04 #@! TO.N,Net-(P1-Pad15)*
X114300000Y-143891000D03*
G04 #@! TD*
G04 #@! TO.P,TP3,1*
G04 #@! TO.N,Net-(P1-Pad11)*
X116840000Y-143891000D03*
G04 #@! TD*
G04 #@! TO.P,TP2,1*
G04 #@! TO.N,Net-(P1-Pad7)*
X119380000Y-143891000D03*
G04 #@! TD*
G04 #@! TO.P,TP1,1*
G04 #@! TO.N,Net-(P1-Pad4)*
X124460000Y-137541000D03*
G04 #@! TD*
D11*
G04 #@! TO.N,GNDA*
X124551017Y-132211027D03*
G04 #@! TO.N,Net-(P1-Pad7)*
X116951017Y-147611027D03*
G04 #@! TO.N,Net-(P1-Pad19)*
X112151017Y-147611027D03*
G04 #@! TO.N,Net-(P1-Pad11)*
X115351017Y-147611027D03*
G04 #@! TO.N,Net-(P1-Pad15)*
X113751017Y-147611027D03*
G04 #@! TO.N,Net-(P1-Pad23)*
X110551017Y-147611027D03*
G04 #@! TO.N,Net-(P1-Pad27)*
X108951017Y-147611027D03*
G04 #@! TO.N,Net-(P1-Pad28)*
X108951017Y-142011027D03*
G04 #@! TO.N,Net-(P1-Pad8)*
X116951017Y-142011027D03*
G04 #@! TO.N,Net-(P1-Pad4)*
X118551017Y-142011027D03*
G04 #@! TO.N,Net-(P1-Pad16)*
X113751017Y-142011027D03*
G04 #@! TO.N,Net-(P1-Pad12)*
X115351017Y-142011027D03*
G04 #@! TO.N,Net-(P1-Pad24)*
X110551017Y-142011027D03*
G04 #@! TO.N,Net-(P1-Pad20)*
X112151017Y-142011027D03*
G04 #@! TO.N,Net-(P1-Pad31)*
X107351017Y-147611027D03*
G04 #@! TO.N,Net-(P1-Pad35)*
X105751017Y-147611027D03*
G04 #@! TO.N,Net-(P1-Pad32)*
X107351017Y-142011027D03*
G04 #@! TO.N,+3V3*
X101551017Y-132211027D03*
G04 #@! TO.N,Net-(P1-Pad36)*
X105751017Y-142011027D03*
G04 #@! TO.N,Net-(P2-Pad36)*
X105751017Y-60211027D03*
G04 #@! TO.N,Net-(P2-Pad32)*
X107351017Y-60211027D03*
G04 #@! TO.N,Net-(P2-Pad35)*
X105751017Y-66011027D03*
G04 #@! TO.N,Net-(P2-Pad31)*
X107351017Y-66011027D03*
G04 #@! TO.N,Net-(P2-Pad20)*
X112151017Y-60211027D03*
G04 #@! TO.N,Net-(P2-Pad24)*
X110551017Y-60211027D03*
G04 #@! TO.N,Net-(P2-Pad12)*
X115351017Y-60211027D03*
G04 #@! TO.N,Net-(P2-Pad16)*
X113751017Y-60211027D03*
G04 #@! TO.N,Net-(P2-Pad4)*
X118551017Y-60211027D03*
G04 #@! TO.N,Net-(P2-Pad8)*
X116951017Y-60211027D03*
G04 #@! TO.N,Net-(P2-Pad28)*
X108951017Y-60211027D03*
G04 #@! TO.N,Net-(P2-Pad27)*
X108951017Y-66011027D03*
G04 #@! TO.N,Net-(P2-Pad23)*
X110551017Y-66011027D03*
G04 #@! TO.N,Net-(P2-Pad15)*
X113751017Y-66011027D03*
G04 #@! TO.N,Net-(P2-Pad11)*
X115351017Y-66011027D03*
G04 #@! TO.N,Net-(P2-Pad19)*
X112151017Y-66011027D03*
G04 #@! TO.N,Net-(P2-Pad7)*
X116951017Y-66011027D03*
G04 #@! TO.N,Net-(P2-Pad3)*
X118551017Y-66011027D03*
G04 #@! TD*
D12*
G04 #@! TO.N,GNDA*
X124460000Y-132120010D02*
X124551017Y-132211027D01*
X124460000Y-103251000D02*
X124460000Y-132120010D01*
G04 #@! TO.N,Net-(P1-Pad7)*
X116951017Y-146319983D02*
X119380000Y-143891000D01*
X116951017Y-147611027D02*
X116951017Y-146319983D01*
G04 #@! TO.N,Net-(P1-Pad19)*
X112151017Y-144282017D02*
X111760000Y-143891000D01*
X112151017Y-147611027D02*
X112151017Y-144282017D01*
G04 #@! TO.N,Net-(P1-Pad11)*
X115351017Y-145379983D02*
X116840000Y-143891000D01*
X115351017Y-147611027D02*
X115351017Y-145379983D01*
G04 #@! TO.N,Net-(P1-Pad15)*
X113751017Y-144439983D02*
X114300000Y-143891000D01*
X113751017Y-147611027D02*
X113751017Y-144439983D01*
G04 #@! TO.N,Net-(P1-Pad23)*
X110551017Y-145222017D02*
X109220000Y-143891000D01*
X110551017Y-147611027D02*
X110551017Y-145222017D01*
G04 #@! TO.N,Net-(P1-Pad27)*
X108951017Y-146162017D02*
X106680000Y-143891000D01*
X108951017Y-147611027D02*
X108951017Y-146162017D01*
G04 #@! TO.N,Net-(P1-Pad28)*
X108951017Y-139812017D02*
X106680000Y-137541000D01*
X108951017Y-142011027D02*
X108951017Y-139812017D01*
G04 #@! TO.N,Net-(P1-Pad8)*
X116951017Y-139969983D02*
X119380000Y-137541000D01*
X116951017Y-142011027D02*
X116951017Y-139969983D01*
G04 #@! TO.N,Net-(P1-Pad4)*
X123021044Y-137541000D02*
X124460000Y-137541000D01*
X118551017Y-142011027D02*
X123021044Y-137541000D01*
G04 #@! TO.N,Net-(P1-Pad16)*
X113751017Y-138089983D02*
X114300000Y-137541000D01*
X113751017Y-142011027D02*
X113751017Y-138089983D01*
G04 #@! TO.N,Net-(P1-Pad12)*
X115351017Y-139029983D02*
X116840000Y-137541000D01*
X115351017Y-142011027D02*
X115351017Y-139029983D01*
G04 #@! TO.N,Net-(P1-Pad24)*
X110551017Y-138872017D02*
X109220000Y-137541000D01*
X110551017Y-142011027D02*
X110551017Y-138872017D01*
G04 #@! TO.N,Net-(P1-Pad20)*
X112151017Y-137932017D02*
X111760000Y-137541000D01*
X112151017Y-142011027D02*
X112151017Y-137932017D01*
G04 #@! TO.N,Net-(P1-Pad31)*
X107351017Y-147102017D02*
X107351017Y-147611027D01*
X104140000Y-143891000D02*
X107351017Y-147102017D01*
G04 #@! TO.N,Net-(P1-Pad35)*
X102030990Y-143891000D02*
X101600000Y-143891000D01*
X105751017Y-147611027D02*
X102030990Y-143891000D01*
G04 #@! TO.N,Net-(P1-Pad32)*
X107351017Y-140752017D02*
X104140000Y-137541000D01*
X107351017Y-142011027D02*
X107351017Y-140752017D01*
G04 #@! TO.N,+3V3*
X99773017Y-129969983D02*
X99822000Y-129921000D01*
X99822000Y-103251000D02*
X99822000Y-129921000D01*
X99822000Y-129921000D02*
X99822000Y-130482010D01*
X99822000Y-130482010D02*
X101551017Y-132211027D01*
G04 #@! TO.N,Net-(P1-Pad36)*
X101600000Y-137860010D02*
X101600000Y-137541000D01*
X105751017Y-142011027D02*
X101600000Y-137860010D01*
G04 #@! TO.N,Net-(P2-Pad36)*
X101954044Y-64008000D02*
X101600000Y-64008000D01*
X105751017Y-60211027D02*
X101954044Y-64008000D01*
G04 #@! TO.N,Net-(P2-Pad32)*
X107351017Y-60796983D02*
X104140000Y-64008000D01*
X107351017Y-60211027D02*
X107351017Y-60796983D01*
G04 #@! TO.N,Net-(P2-Pad35)*
X101600000Y-70162044D02*
X101600000Y-70358000D01*
X105751017Y-66011027D02*
X101600000Y-70162044D01*
G04 #@! TO.N,Net-(P2-Pad31)*
X107351017Y-67146983D02*
X104140000Y-70358000D01*
X107351017Y-66011027D02*
X107351017Y-67146983D01*
G04 #@! TO.N,Net-(P2-Pad20)*
X112151017Y-63616983D02*
X111760000Y-64008000D01*
X112151017Y-60211027D02*
X112151017Y-63616983D01*
G04 #@! TO.N,Net-(P2-Pad24)*
X110551017Y-62676983D02*
X109220000Y-64008000D01*
X110551017Y-60211027D02*
X110551017Y-62676983D01*
G04 #@! TO.N,Net-(P2-Pad12)*
X115351017Y-62519017D02*
X116840000Y-64008000D01*
X115351017Y-60211027D02*
X115351017Y-62519017D01*
G04 #@! TO.N,Net-(P2-Pad16)*
X113751017Y-63459017D02*
X114300000Y-64008000D01*
X113751017Y-60211027D02*
X113751017Y-63459017D01*
G04 #@! TO.N,Net-(P2-Pad4)*
X118551017Y-60639017D02*
X118551017Y-60211027D01*
X121920000Y-64008000D02*
X118551017Y-60639017D01*
G04 #@! TO.N,Net-(P2-Pad8)*
X116951017Y-61579017D02*
X119380000Y-64008000D01*
X116951017Y-60211027D02*
X116951017Y-61579017D01*
G04 #@! TO.N,Net-(P2-Pad28)*
X108951017Y-61736983D02*
X106680000Y-64008000D01*
X108951017Y-60211027D02*
X108951017Y-61736983D01*
G04 #@! TO.N,Net-(P2-Pad27)*
X108951017Y-68086983D02*
X106680000Y-70358000D01*
X108951017Y-66011027D02*
X108951017Y-68086983D01*
G04 #@! TO.N,Net-(P2-Pad23)*
X110551017Y-69026983D02*
X109220000Y-70358000D01*
X110551017Y-66011027D02*
X110551017Y-69026983D01*
G04 #@! TO.N,Net-(P2-Pad15)*
X113751017Y-69809017D02*
X114300000Y-70358000D01*
X113751017Y-66011027D02*
X113751017Y-69809017D01*
G04 #@! TO.N,Net-(P2-Pad11)*
X115351017Y-68869017D02*
X116840000Y-70358000D01*
X115351017Y-66011027D02*
X115351017Y-68869017D01*
G04 #@! TO.N,Net-(P2-Pad19)*
X112151017Y-69966983D02*
X111760000Y-70358000D01*
X112151017Y-66011027D02*
X112151017Y-69966983D01*
G04 #@! TO.N,Net-(P2-Pad7)*
X116951017Y-67929017D02*
X119380000Y-70358000D01*
X116951017Y-66011027D02*
X116951017Y-67929017D01*
G04 #@! TO.N,Net-(P2-Pad3)*
X118551017Y-66989017D02*
X121920000Y-70358000D01*
X118551017Y-66011027D02*
X118551017Y-66989017D01*
G04 #@! TD*
M02*
