M48
;DRILL file {KiCad 5.0.2-bee76a0~70~ubuntu18.04.1} date jeu. 09 mai 2019 10:06:07 CEST
;FORMAT={-:-/ absolute / inch / decimal}
FMAT,2
INCH,TZ
T1C0.0157
%
G90
G05
T1
X3.9981Y-5.2052
X4.1634Y-2.3705
X4.1634Y-2.5989
X4.1634Y-5.591
X4.1634Y-5.8115
X4.2264Y-2.3705
X4.2264Y-2.5989
X4.2264Y-5.591
X4.2264Y-5.8115
X4.2894Y-2.3705
X4.2894Y-2.5989
X4.2894Y-5.591
X4.2894Y-5.8115
X4.3524Y-2.3705
X4.3524Y-2.5989
X4.3524Y-5.591
X4.3524Y-5.8115
X4.4154Y-2.3705
X4.4154Y-2.5989
X4.4154Y-5.591
X4.4154Y-5.8115
X4.4784Y-2.3705
X4.4784Y-2.5989
X4.4784Y-5.591
X4.4784Y-5.8115
X4.5414Y-2.3705
X4.5414Y-2.5989
X4.5414Y-5.591
X4.5414Y-5.8115
X4.6044Y-2.3705
X4.6044Y-2.5989
X4.6044Y-5.591
X4.6044Y-5.8115
X4.6674Y-2.3705
X4.6674Y-2.5989
X4.6674Y-5.591
X4.9036Y-5.2052
T0
M30
