G04 #@! TF.GenerationSoftware,KiCad,Pcbnew,5.0.2-bee76a0~70~ubuntu18.04.1*
G04 #@! TF.CreationDate,2019-10-10T11:49:15+02:00*
G04 #@! TF.ProjectId,breadboard,62726561-6462-46f6-9172-642e6b696361,rev?*
G04 #@! TF.SameCoordinates,Original*
G04 #@! TF.FileFunction,Copper,L1,Top*
G04 #@! TF.FilePolarity,Positive*
%FSLAX46Y46*%
G04 Gerber Fmt 4.6, Leading zero omitted, Abs format (unit mm)*
G04 Created by KiCad (PCBNEW 5.0.2-bee76a0~70~ubuntu18.04.1) date jeu. 10 oct. 2019 11:49:15 CEST*
%MOMM*%
%LPD*%
G01*
G04 APERTURE LIST*
G04 #@! TA.AperFunction,SMDPad,CuDef*
%ADD10R,2.000000X2.000000*%
G04 #@! TD*
G04 #@! TA.AperFunction,ComponentPad*
%ADD11O,1.700000X1.700000*%
G04 #@! TD*
G04 #@! TA.AperFunction,ComponentPad*
%ADD12R,1.700000X1.700000*%
G04 #@! TD*
G04 #@! TA.AperFunction,Conductor*
%ADD13C,2.000000*%
G04 #@! TD*
G04 APERTURE END LIST*
D10*
G04 #@! TO.P,U328,1*
G04 #@! TO.N,/D15*
X68580000Y-160020000D03*
G04 #@! TD*
G04 #@! TO.P,U327,1*
G04 #@! TO.N,/D15*
X68580000Y-157480000D03*
G04 #@! TD*
G04 #@! TO.P,U326,1*
G04 #@! TO.N,/D14*
X68580000Y-147320000D03*
G04 #@! TD*
G04 #@! TO.P,U325,1*
G04 #@! TO.N,/D14*
X68580000Y-149860000D03*
G04 #@! TD*
G04 #@! TO.P,U324,1*
G04 #@! TO.N,/D13*
X66040000Y-160020000D03*
G04 #@! TD*
G04 #@! TO.P,U323,1*
G04 #@! TO.N,/D13*
X66040000Y-157480000D03*
G04 #@! TD*
G04 #@! TO.P,U322,1*
G04 #@! TO.N,/D12*
X66040000Y-147320000D03*
G04 #@! TD*
G04 #@! TO.P,U321,1*
G04 #@! TO.N,/D12*
X66040000Y-149860000D03*
G04 #@! TD*
G04 #@! TO.P,U320,1*
G04 #@! TO.N,/D11*
X63500000Y-160020000D03*
G04 #@! TD*
G04 #@! TO.P,U318,1*
G04 #@! TO.N,/D10*
X63500000Y-149860000D03*
G04 #@! TD*
G04 #@! TO.P,U317,1*
G04 #@! TO.N,/D10*
X63500000Y-147320000D03*
G04 #@! TD*
G04 #@! TO.P,U316,1*
G04 #@! TO.N,/D9*
X60960000Y-157480000D03*
G04 #@! TD*
G04 #@! TO.P,U315,1*
G04 #@! TO.N,/D9*
X60960000Y-160020000D03*
G04 #@! TD*
G04 #@! TO.P,U314,1*
G04 #@! TO.N,/D8*
X60960000Y-149860000D03*
G04 #@! TD*
G04 #@! TO.P,U313,1*
G04 #@! TO.N,/D8*
X60960000Y-147320000D03*
G04 #@! TD*
G04 #@! TO.P,U312,1*
G04 #@! TO.N,/D7*
X58420000Y-160020000D03*
G04 #@! TD*
G04 #@! TO.P,U310,1*
G04 #@! TO.N,/D6*
X58420000Y-147320000D03*
G04 #@! TD*
G04 #@! TO.P,U319,1*
G04 #@! TO.N,/D11*
X63500000Y-157480000D03*
G04 #@! TD*
G04 #@! TO.P,U308,1*
G04 #@! TO.N,/D5*
X55880000Y-160020000D03*
G04 #@! TD*
G04 #@! TO.P,U307,1*
G04 #@! TO.N,/D5*
X55880000Y-157480000D03*
G04 #@! TD*
G04 #@! TO.P,U306,1*
G04 #@! TO.N,/D4*
X55880000Y-147320000D03*
G04 #@! TD*
G04 #@! TO.P,U305,1*
G04 #@! TO.N,/D4*
X55880000Y-149860000D03*
G04 #@! TD*
G04 #@! TO.P,U304,1*
G04 #@! TO.N,/D3*
X53340000Y-157480000D03*
G04 #@! TD*
G04 #@! TO.P,U303,1*
G04 #@! TO.N,/D3*
X53340000Y-160020000D03*
G04 #@! TD*
G04 #@! TO.P,U302,1*
G04 #@! TO.N,/D2*
X53340000Y-147320000D03*
G04 #@! TD*
G04 #@! TO.P,U301,1*
G04 #@! TO.N,/D2*
X53340000Y-149860000D03*
G04 #@! TD*
G04 #@! TO.P,U311,1*
G04 #@! TO.N,/D7*
X58420000Y-157480000D03*
G04 #@! TD*
G04 #@! TO.P,U299,1*
G04 #@! TO.N,/D1*
X50800000Y-157480000D03*
G04 #@! TD*
G04 #@! TO.P,U309,1*
G04 #@! TO.N,/D6*
X58420000Y-149860000D03*
G04 #@! TD*
G04 #@! TO.P,U297,1*
G04 #@! TO.N,/D0*
X50800000Y-149860000D03*
G04 #@! TD*
G04 #@! TO.P,U300,1*
G04 #@! TO.N,/D1*
X50800000Y-160020000D03*
G04 #@! TD*
G04 #@! TO.P,U298,1*
G04 #@! TO.N,/D0*
X50800000Y-147320000D03*
G04 #@! TD*
G04 #@! TO.P,U296,1*
G04 #@! TO.N,GND*
X71120000Y-160020000D03*
G04 #@! TD*
G04 #@! TO.P,U295,1*
G04 #@! TO.N,GND*
X71120000Y-157480000D03*
G04 #@! TD*
G04 #@! TO.P,U294,1*
G04 #@! TO.N,VDD*
X71120000Y-149860000D03*
G04 #@! TD*
G04 #@! TO.P,U293,1*
G04 #@! TO.N,VDD*
X71120000Y-147320000D03*
G04 #@! TD*
G04 #@! TO.P,U292,1*
G04 #@! TO.N,GNDA*
X76200000Y-137160000D03*
G04 #@! TD*
G04 #@! TO.P,U291,1*
G04 #@! TO.N,GNDA*
X76200000Y-81280000D03*
G04 #@! TD*
G04 #@! TO.P,U290,1*
G04 #@! TO.N,GNDA*
X76200000Y-124460000D03*
G04 #@! TD*
G04 #@! TO.P,U289,1*
G04 #@! TO.N,GNDA*
X76200000Y-134620000D03*
G04 #@! TD*
G04 #@! TO.P,U288,1*
G04 #@! TO.N,GNDA*
X76200000Y-88900000D03*
G04 #@! TD*
G04 #@! TO.P,U287,1*
G04 #@! TO.N,GNDA*
X76200000Y-111760000D03*
G04 #@! TD*
G04 #@! TO.P,U286,1*
G04 #@! TO.N,GNDA*
X76200000Y-119380000D03*
G04 #@! TD*
G04 #@! TO.P,U285,1*
G04 #@! TO.N,GNDA*
X76200000Y-132080000D03*
G04 #@! TD*
G04 #@! TO.P,U284,1*
G04 #@! TO.N,GNDA*
X76200000Y-91440000D03*
G04 #@! TD*
G04 #@! TO.P,U282,1*
G04 #@! TO.N,GNDA*
X76200000Y-106680000D03*
G04 #@! TD*
G04 #@! TO.P,U281,1*
G04 #@! TO.N,GNDA*
X76200000Y-121920000D03*
G04 #@! TD*
G04 #@! TO.P,U280,1*
G04 #@! TO.N,GNDA*
X76200000Y-139700000D03*
G04 #@! TD*
G04 #@! TO.P,U279,1*
G04 #@! TO.N,GNDA*
X76200000Y-86360000D03*
G04 #@! TD*
G04 #@! TO.P,U278,1*
G04 #@! TO.N,GNDA*
X76200000Y-104140000D03*
G04 #@! TD*
G04 #@! TO.P,U277,1*
G04 #@! TO.N,GNDA*
X76200000Y-127000000D03*
G04 #@! TD*
G04 #@! TO.P,U276,1*
G04 #@! TO.N,GNDA*
X73660000Y-160020000D03*
G04 #@! TD*
G04 #@! TO.P,U274,1*
G04 #@! TO.N,GNDA*
X76200000Y-83820000D03*
G04 #@! TD*
G04 #@! TO.P,U283,1*
G04 #@! TO.N,GNDA*
X76200000Y-114300000D03*
G04 #@! TD*
G04 #@! TO.P,U272,1*
G04 #@! TO.N,GNDA*
X76200000Y-129540000D03*
G04 #@! TD*
G04 #@! TO.P,U271,1*
G04 #@! TO.N,GNDA*
X73660000Y-157480000D03*
G04 #@! TD*
G04 #@! TO.P,U270,1*
G04 #@! TO.N,GNDA*
X76200000Y-96520000D03*
G04 #@! TD*
G04 #@! TO.P,U269,1*
G04 #@! TO.N,GNDA*
X76200000Y-101600000D03*
G04 #@! TD*
G04 #@! TO.P,U268,1*
G04 #@! TO.N,GNDA*
X76200000Y-116840000D03*
G04 #@! TD*
G04 #@! TO.P,U267,1*
G04 #@! TO.N,GNDA*
X76200000Y-99060000D03*
G04 #@! TD*
G04 #@! TO.P,U275,1*
G04 #@! TO.N,GNDA*
X76200000Y-109220000D03*
G04 #@! TD*
G04 #@! TO.P,U273,1*
G04 #@! TO.N,GNDA*
X76200000Y-93980000D03*
G04 #@! TD*
G04 #@! TO.P,U266,1*
G04 #@! TO.N,VDDA*
X73660000Y-147320000D03*
G04 #@! TD*
G04 #@! TO.P,U265,1*
G04 #@! TO.N,VDDA*
X73660000Y-101600000D03*
G04 #@! TD*
G04 #@! TO.P,U264,1*
G04 #@! TO.N,VDDA*
X73660000Y-129540000D03*
G04 #@! TD*
G04 #@! TO.P,U263,1*
G04 #@! TO.N,VDDA*
X73660000Y-149860000D03*
G04 #@! TD*
G04 #@! TO.P,U262,1*
G04 #@! TO.N,VDDA*
X73660000Y-81280000D03*
G04 #@! TD*
G04 #@! TO.P,U261,1*
G04 #@! TO.N,VDDA*
X73660000Y-114300000D03*
G04 #@! TD*
G04 #@! TO.P,U260,1*
G04 #@! TO.N,VDDA*
X73660000Y-119380000D03*
G04 #@! TD*
G04 #@! TO.P,U259,1*
G04 #@! TO.N,VDDA*
X73660000Y-132080000D03*
G04 #@! TD*
G04 #@! TO.P,U258,1*
G04 #@! TO.N,VDDA*
X73660000Y-96520000D03*
G04 #@! TD*
G04 #@! TO.P,U256,1*
G04 #@! TO.N,VDDA*
X73660000Y-111760000D03*
G04 #@! TD*
G04 #@! TO.P,U255,1*
G04 #@! TO.N,VDDA*
X73660000Y-116840000D03*
G04 #@! TD*
G04 #@! TO.P,U254,1*
G04 #@! TO.N,VDDA*
X73660000Y-137160000D03*
G04 #@! TD*
G04 #@! TO.P,U253,1*
G04 #@! TO.N,VDDA*
X73660000Y-86360000D03*
G04 #@! TD*
G04 #@! TO.P,U252,1*
G04 #@! TO.N,VDDA*
X73660000Y-104140000D03*
G04 #@! TD*
G04 #@! TO.P,U251,1*
G04 #@! TO.N,VDDA*
X73660000Y-127000000D03*
G04 #@! TD*
G04 #@! TO.P,U250,1*
G04 #@! TO.N,VDDA*
X73660000Y-139700000D03*
G04 #@! TD*
G04 #@! TO.P,U248,1*
G04 #@! TO.N,VDDA*
X73660000Y-83820000D03*
G04 #@! TD*
G04 #@! TO.P,U257,1*
G04 #@! TO.N,VDDA*
X73660000Y-106680000D03*
G04 #@! TD*
G04 #@! TO.P,U246,1*
G04 #@! TO.N,VDDA*
X73660000Y-124460000D03*
G04 #@! TD*
G04 #@! TO.P,U245,1*
G04 #@! TO.N,VDDA*
X73660000Y-134620000D03*
G04 #@! TD*
G04 #@! TO.P,U244,1*
G04 #@! TO.N,VDDA*
X73660000Y-88900000D03*
G04 #@! TD*
G04 #@! TO.P,U243,1*
G04 #@! TO.N,VDDA*
X73660000Y-109220000D03*
G04 #@! TD*
G04 #@! TO.P,U242,1*
G04 #@! TO.N,VDDA*
X73660000Y-121920000D03*
G04 #@! TD*
G04 #@! TO.P,U241,1*
G04 #@! TO.N,VDDA*
X73660000Y-91440000D03*
G04 #@! TD*
G04 #@! TO.P,U249,1*
G04 #@! TO.N,VDDA*
X73660000Y-99060000D03*
G04 #@! TD*
G04 #@! TO.P,U247,1*
G04 #@! TO.N,VDDA*
X73660000Y-93980000D03*
G04 #@! TD*
G04 #@! TO.P,U201,1*
G04 #@! TO.N,Net-(U201-Pad1)*
X55880000Y-119380000D03*
G04 #@! TD*
G04 #@! TO.P,U240,1*
G04 #@! TO.N,Net-(U240-Pad1)*
X53340000Y-93980000D03*
G04 #@! TD*
G04 #@! TO.P,U239,1*
G04 #@! TO.N,Net-(U239-Pad1)*
X53340000Y-132080000D03*
G04 #@! TD*
G04 #@! TO.P,U238,1*
G04 #@! TO.N,Net-(U238-Pad1)*
X50800000Y-139700000D03*
G04 #@! TD*
G04 #@! TO.P,U237,1*
G04 #@! TO.N,Net-(U237-Pad1)*
X63500000Y-99060000D03*
G04 #@! TD*
G04 #@! TO.P,U236,1*
G04 #@! TO.N,Net-(U236-Pad1)*
X60960000Y-116840000D03*
G04 #@! TD*
G04 #@! TO.P,U235,1*
G04 #@! TO.N,Net-(U235-Pad1)*
X60960000Y-127000000D03*
G04 #@! TD*
G04 #@! TO.P,U234,1*
G04 #@! TO.N,Net-(U234-Pad1)*
X58420000Y-129540000D03*
G04 #@! TD*
G04 #@! TO.P,U233,1*
G04 #@! TO.N,Net-(U233-Pad1)*
X55880000Y-99060000D03*
G04 #@! TD*
G04 #@! TO.P,U232,1*
G04 #@! TO.N,Net-(U232-Pad1)*
X53340000Y-121920000D03*
G04 #@! TD*
G04 #@! TO.P,U200,1*
G04 #@! TO.N,Net-(U200-Pad1)*
X53340000Y-139700000D03*
G04 #@! TD*
G04 #@! TO.P,U230,1*
G04 #@! TO.N,Net-(U230-Pad1)*
X50800000Y-114300000D03*
G04 #@! TD*
G04 #@! TO.P,U229,1*
G04 #@! TO.N,Net-(U229-Pad1)*
X66040000Y-124460000D03*
G04 #@! TD*
G04 #@! TO.P,U228,1*
G04 #@! TO.N,Net-(U228-Pad1)*
X63500000Y-129540000D03*
G04 #@! TD*
G04 #@! TO.P,U227,1*
G04 #@! TO.N,Net-(U227-Pad1)*
X55880000Y-104140000D03*
G04 #@! TD*
G04 #@! TO.P,U226,1*
G04 #@! TO.N,Net-(U226-Pad1)*
X58420000Y-104140000D03*
G04 #@! TD*
G04 #@! TO.P,U225,1*
G04 #@! TO.N,Net-(U225-Pad1)*
X58420000Y-121920000D03*
G04 #@! TD*
G04 #@! TO.P,U224,1*
G04 #@! TO.N,Net-(U224-Pad1)*
X55880000Y-106680000D03*
G04 #@! TD*
G04 #@! TO.P,U222,1*
G04 #@! TO.N,Net-(U222-Pad1)*
X53340000Y-106680000D03*
G04 #@! TD*
G04 #@! TO.P,U231,1*
G04 #@! TO.N,Net-(U231-Pad1)*
X50800000Y-91440000D03*
G04 #@! TD*
G04 #@! TO.P,U98,1*
G04 #@! TO.N,Net-(U98-Pad1)*
X50800000Y-111760000D03*
G04 #@! TD*
G04 #@! TO.P,U220,1*
G04 #@! TO.N,Net-(U220-Pad1)*
X68580000Y-134620000D03*
G04 #@! TD*
G04 #@! TO.P,U219,1*
G04 #@! TO.N,Net-(U219-Pad1)*
X66040000Y-119380000D03*
G04 #@! TD*
G04 #@! TO.P,U218,1*
G04 #@! TO.N,Net-(U218-Pad1)*
X63500000Y-127000000D03*
G04 #@! TD*
G04 #@! TO.P,U217,1*
G04 #@! TO.N,Net-(U217-Pad1)*
X63500000Y-137160000D03*
G04 #@! TD*
G04 #@! TO.P,U216,1*
G04 #@! TO.N,Net-(U216-Pad1)*
X60960000Y-134620000D03*
G04 #@! TD*
G04 #@! TO.P,U215,1*
G04 #@! TO.N,Net-(U215-Pad1)*
X58420000Y-137160000D03*
G04 #@! TD*
G04 #@! TO.P,U214,1*
G04 #@! TO.N,Net-(U214-Pad1)*
X55880000Y-124460000D03*
G04 #@! TD*
G04 #@! TO.P,U213,1*
G04 #@! TO.N,Net-(U213-Pad1)*
X53340000Y-114300000D03*
G04 #@! TD*
G04 #@! TO.P,U223,1*
G04 #@! TO.N,Net-(U223-Pad1)*
X50800000Y-83820000D03*
G04 #@! TD*
G04 #@! TO.P,U211,1*
G04 #@! TO.N,Net-(U211-Pad1)*
X50800000Y-116840000D03*
G04 #@! TD*
G04 #@! TO.P,U221,1*
G04 #@! TO.N,Net-(U221-Pad1)*
X68580000Y-83820000D03*
G04 #@! TD*
G04 #@! TO.P,U209,1*
G04 #@! TO.N,Net-(U209-Pad1)*
X68580000Y-99060000D03*
G04 #@! TD*
G04 #@! TO.P,U208,1*
G04 #@! TO.N,Net-(U208-Pad1)*
X66040000Y-139700000D03*
G04 #@! TD*
G04 #@! TO.P,U207,1*
G04 #@! TO.N,Net-(U207-Pad1)*
X63500000Y-88900000D03*
G04 #@! TD*
G04 #@! TO.P,U206,1*
G04 #@! TO.N,Net-(U206-Pad1)*
X60960000Y-91440000D03*
G04 #@! TD*
G04 #@! TO.P,U205,1*
G04 #@! TO.N,Net-(U205-Pad1)*
X58420000Y-101600000D03*
G04 #@! TD*
G04 #@! TO.P,U204,1*
G04 #@! TO.N,Net-(U204-Pad1)*
X58420000Y-119380000D03*
G04 #@! TD*
G04 #@! TO.P,U203,1*
G04 #@! TO.N,Net-(U203-Pad1)*
X55880000Y-114300000D03*
G04 #@! TD*
G04 #@! TO.P,U202,1*
G04 #@! TO.N,Net-(U202-Pad1)*
X53340000Y-91440000D03*
G04 #@! TD*
G04 #@! TO.P,U212,1*
G04 #@! TO.N,Net-(U212-Pad1)*
X53340000Y-124460000D03*
G04 #@! TD*
G04 #@! TO.P,U190,1*
G04 #@! TO.N,Net-(U190-Pad1)*
X50800000Y-137160000D03*
G04 #@! TD*
G04 #@! TO.P,U199,1*
G04 #@! TO.N,Net-(U199-Pad1)*
X48260000Y-139700000D03*
G04 #@! TD*
G04 #@! TO.P,U198,1*
G04 #@! TO.N,Net-(U198-Pad1)*
X68580000Y-93980000D03*
G04 #@! TD*
G04 #@! TO.P,U197,1*
G04 #@! TO.N,Net-(U197-Pad1)*
X66040000Y-86360000D03*
G04 #@! TD*
G04 #@! TO.P,U196,1*
G04 #@! TO.N,Net-(U196-Pad1)*
X66040000Y-91440000D03*
G04 #@! TD*
G04 #@! TO.P,U195,1*
G04 #@! TO.N,Net-(U195-Pad1)*
X63500000Y-124460000D03*
G04 #@! TD*
G04 #@! TO.P,U194,1*
G04 #@! TO.N,Net-(U194-Pad1)*
X60960000Y-96520000D03*
G04 #@! TD*
G04 #@! TO.P,U193,1*
G04 #@! TO.N,Net-(U193-Pad1)*
X58420000Y-86360000D03*
G04 #@! TD*
G04 #@! TO.P,U192,1*
G04 #@! TO.N,Net-(U192-Pad1)*
X58420000Y-132080000D03*
G04 #@! TD*
G04 #@! TO.P,U210,1*
G04 #@! TO.N,Net-(U210-Pad1)*
X55880000Y-109220000D03*
G04 #@! TD*
G04 #@! TO.P,U75,1*
G04 #@! TO.N,Net-(U75-Pad1)*
X53340000Y-116840000D03*
G04 #@! TD*
G04 #@! TO.P,U189,1*
G04 #@! TO.N,Net-(U189-Pad1)*
X53340000Y-127000000D03*
G04 #@! TD*
G04 #@! TO.P,U188,1*
G04 #@! TO.N,Net-(U188-Pad1)*
X50800000Y-121920000D03*
G04 #@! TD*
G04 #@! TO.P,U187,1*
G04 #@! TO.N,Net-(U187-Pad1)*
X71120000Y-86360000D03*
G04 #@! TD*
G04 #@! TO.P,U186,1*
G04 #@! TO.N,Net-(U186-Pad1)*
X71120000Y-132080000D03*
G04 #@! TD*
G04 #@! TO.P,U185,1*
G04 #@! TO.N,Net-(U185-Pad1)*
X68580000Y-106680000D03*
G04 #@! TD*
G04 #@! TO.P,U184,1*
G04 #@! TO.N,Net-(U184-Pad1)*
X66040000Y-109220000D03*
G04 #@! TD*
G04 #@! TO.P,U183,1*
G04 #@! TO.N,Net-(U183-Pad1)*
X63500000Y-114300000D03*
G04 #@! TD*
G04 #@! TO.P,U181,1*
G04 #@! TO.N,Net-(U181-Pad1)*
X60960000Y-121920000D03*
G04 #@! TD*
G04 #@! TO.P,U191,1*
G04 #@! TO.N,Net-(U191-Pad1)*
X58420000Y-96520000D03*
G04 #@! TD*
G04 #@! TO.P,U169,1*
G04 #@! TO.N,Net-(U169-Pad1)*
X58420000Y-127000000D03*
G04 #@! TD*
G04 #@! TO.P,U179,1*
G04 #@! TO.N,Net-(U179-Pad1)*
X55880000Y-129540000D03*
G04 #@! TD*
G04 #@! TO.P,U178,1*
G04 #@! TO.N,Net-(U178-Pad1)*
X53340000Y-104140000D03*
G04 #@! TD*
G04 #@! TO.P,U177,1*
G04 #@! TO.N,Net-(U177-Pad1)*
X50800000Y-99060000D03*
G04 #@! TD*
G04 #@! TO.P,U176,1*
G04 #@! TO.N,Net-(U176-Pad1)*
X50800000Y-127000000D03*
G04 #@! TD*
G04 #@! TO.P,U175,1*
G04 #@! TO.N,Net-(U175-Pad1)*
X48260000Y-134620000D03*
G04 #@! TD*
G04 #@! TO.P,U174,1*
G04 #@! TO.N,Net-(U174-Pad1)*
X68580000Y-91440000D03*
G04 #@! TD*
G04 #@! TO.P,U173,1*
G04 #@! TO.N,Net-(U173-Pad1)*
X68580000Y-129540000D03*
G04 #@! TD*
G04 #@! TO.P,U172,1*
G04 #@! TO.N,Net-(U172-Pad1)*
X66040000Y-132080000D03*
G04 #@! TD*
G04 #@! TO.P,U160,1*
G04 #@! TO.N,Net-(U160-Pad1)*
X63500000Y-101600000D03*
G04 #@! TD*
G04 #@! TO.P,U170,1*
G04 #@! TO.N,Net-(U170-Pad1)*
X63500000Y-139700000D03*
G04 #@! TD*
G04 #@! TO.P,U180,1*
G04 #@! TO.N,Net-(U180-Pad1)*
X58420000Y-81280000D03*
G04 #@! TD*
G04 #@! TO.P,U168,1*
G04 #@! TO.N,Net-(U168-Pad1)*
X58420000Y-124460000D03*
G04 #@! TD*
G04 #@! TO.P,U167,1*
G04 #@! TO.N,Net-(U167-Pad1)*
X60960000Y-101600000D03*
G04 #@! TD*
G04 #@! TO.P,U166,1*
G04 #@! TO.N,Net-(U166-Pad1)*
X53340000Y-96520000D03*
G04 #@! TD*
G04 #@! TO.P,U165,1*
G04 #@! TO.N,Net-(U165-Pad1)*
X53340000Y-137160000D03*
G04 #@! TD*
G04 #@! TO.P,U164,1*
G04 #@! TO.N,Net-(U164-Pad1)*
X50800000Y-106680000D03*
G04 #@! TD*
G04 #@! TO.P,U163,1*
G04 #@! TO.N,Net-(U163-Pad1)*
X71120000Y-91440000D03*
G04 #@! TD*
G04 #@! TO.P,U162,1*
G04 #@! TO.N,Net-(U162-Pad1)*
X71120000Y-121920000D03*
G04 #@! TD*
G04 #@! TO.P,U161,1*
G04 #@! TO.N,Net-(U161-Pad1)*
X66040000Y-83820000D03*
G04 #@! TD*
G04 #@! TO.P,U171,1*
G04 #@! TO.N,Net-(U171-Pad1)*
X66040000Y-137160000D03*
G04 #@! TD*
G04 #@! TO.P,U158,1*
G04 #@! TO.N,Net-(U158-Pad1)*
X63500000Y-96520000D03*
G04 #@! TD*
G04 #@! TO.P,U157,1*
G04 #@! TO.N,Net-(U157-Pad1)*
X60960000Y-119380000D03*
G04 #@! TD*
G04 #@! TO.P,U156,1*
G04 #@! TO.N,Net-(U156-Pad1)*
X58420000Y-91440000D03*
G04 #@! TD*
G04 #@! TO.P,U155,1*
G04 #@! TO.N,Net-(U155-Pad1)*
X58420000Y-139700000D03*
G04 #@! TD*
G04 #@! TO.P,U154,1*
G04 #@! TO.N,Net-(U154-Pad1)*
X55880000Y-111760000D03*
G04 #@! TD*
G04 #@! TO.P,U153,1*
G04 #@! TO.N,Net-(U153-Pad1)*
X53340000Y-119380000D03*
G04 #@! TD*
G04 #@! TO.P,U152,1*
G04 #@! TO.N,Net-(U152-Pad1)*
X50800000Y-101600000D03*
G04 #@! TD*
G04 #@! TO.P,U151,1*
G04 #@! TO.N,Net-(U151-Pad1)*
X50800000Y-104140000D03*
G04 #@! TD*
G04 #@! TO.P,U150,1*
G04 #@! TO.N,Net-(U150-Pad1)*
X48260000Y-132080000D03*
G04 #@! TD*
G04 #@! TO.P,U182,1*
G04 #@! TO.N,Net-(U182-Pad1)*
X71120000Y-129540000D03*
G04 #@! TD*
G04 #@! TO.P,U138,1*
G04 #@! TO.N,Net-(U138-Pad1)*
X68580000Y-127000000D03*
G04 #@! TD*
G04 #@! TO.P,U147,1*
G04 #@! TO.N,Net-(U147-Pad1)*
X66040000Y-101600000D03*
G04 #@! TD*
G04 #@! TO.P,U146,1*
G04 #@! TO.N,Net-(U146-Pad1)*
X63500000Y-91440000D03*
G04 #@! TD*
G04 #@! TO.P,U145,1*
G04 #@! TO.N,Net-(U145-Pad1)*
X60960000Y-81280000D03*
G04 #@! TD*
G04 #@! TO.P,U144,1*
G04 #@! TO.N,Net-(U144-Pad1)*
X58420000Y-88900000D03*
G04 #@! TD*
G04 #@! TO.P,U143,1*
G04 #@! TO.N,Net-(U143-Pad1)*
X55880000Y-88900000D03*
G04 #@! TD*
G04 #@! TO.P,U142,1*
G04 #@! TO.N,Net-(U142-Pad1)*
X55880000Y-132080000D03*
G04 #@! TD*
G04 #@! TO.P,U141,1*
G04 #@! TO.N,Net-(U141-Pad1)*
X53340000Y-88900000D03*
G04 #@! TD*
G04 #@! TO.P,U140,1*
G04 #@! TO.N,Net-(U140-Pad1)*
X53340000Y-134620000D03*
G04 #@! TD*
G04 #@! TO.P,U149,1*
G04 #@! TO.N,Net-(U149-Pad1)*
X50800000Y-124460000D03*
G04 #@! TD*
G04 #@! TO.P,U137,1*
G04 #@! TO.N,Net-(U137-Pad1)*
X71120000Y-101600000D03*
G04 #@! TD*
G04 #@! TO.P,U136,1*
G04 #@! TO.N,Net-(U136-Pad1)*
X71120000Y-109220000D03*
G04 #@! TD*
G04 #@! TO.P,U135,1*
G04 #@! TO.N,Net-(U135-Pad1)*
X68580000Y-137160000D03*
G04 #@! TD*
G04 #@! TO.P,U134,1*
G04 #@! TO.N,Net-(U134-Pad1)*
X66040000Y-106680000D03*
G04 #@! TD*
G04 #@! TO.P,U133,1*
G04 #@! TO.N,Net-(U133-Pad1)*
X63500000Y-119380000D03*
G04 #@! TD*
G04 #@! TO.P,U132,1*
G04 #@! TO.N,Net-(U132-Pad1)*
X60960000Y-93980000D03*
G04 #@! TD*
G04 #@! TO.P,U131,1*
G04 #@! TO.N,Net-(U131-Pad1)*
X58420000Y-106680000D03*
G04 #@! TD*
G04 #@! TO.P,U130,1*
G04 #@! TO.N,Net-(U130-Pad1)*
X55880000Y-86360000D03*
G04 #@! TD*
G04 #@! TO.P,U129,1*
G04 #@! TO.N,Net-(U129-Pad1)*
X55880000Y-101600000D03*
G04 #@! TD*
G04 #@! TO.P,U148,1*
G04 #@! TO.N,Net-(U148-Pad1)*
X53340000Y-86360000D03*
G04 #@! TD*
G04 #@! TO.P,U139,1*
G04 #@! TO.N,Net-(U139-Pad1)*
X50800000Y-88900000D03*
G04 #@! TD*
G04 #@! TO.P,U126,1*
G04 #@! TO.N,Net-(U126-Pad1)*
X50800000Y-119380000D03*
G04 #@! TD*
G04 #@! TO.P,U125,1*
G04 #@! TO.N,Net-(U125-Pad1)*
X71120000Y-93980000D03*
G04 #@! TD*
G04 #@! TO.P,U124,1*
G04 #@! TO.N,Net-(U124-Pad1)*
X71120000Y-114300000D03*
G04 #@! TD*
G04 #@! TO.P,U123,1*
G04 #@! TO.N,Net-(U123-Pad1)*
X68580000Y-114300000D03*
G04 #@! TD*
G04 #@! TO.P,U122,1*
G04 #@! TO.N,Net-(U122-Pad1)*
X66040000Y-129540000D03*
G04 #@! TD*
G04 #@! TO.P,U121,1*
G04 #@! TO.N,Net-(U121-Pad1)*
X63500000Y-104140000D03*
G04 #@! TD*
G04 #@! TO.P,U120,1*
G04 #@! TO.N,Net-(U120-Pad1)*
X60960000Y-88900000D03*
G04 #@! TD*
G04 #@! TO.P,U119,1*
G04 #@! TO.N,Net-(U119-Pad1)*
X60960000Y-129540000D03*
G04 #@! TD*
G04 #@! TO.P,U118,1*
G04 #@! TO.N,Net-(U118-Pad1)*
X58420000Y-114300000D03*
G04 #@! TD*
G04 #@! TO.P,U128,1*
G04 #@! TO.N,Net-(U128-Pad1)*
X55880000Y-134620000D03*
G04 #@! TD*
G04 #@! TO.P,U107,1*
G04 #@! TO.N,Net-(U107-Pad1)*
X53340000Y-101600000D03*
G04 #@! TD*
G04 #@! TO.P,U116,1*
G04 #@! TO.N,Net-(U116-Pad1)*
X50800000Y-93980000D03*
G04 #@! TD*
G04 #@! TO.P,U115,1*
G04 #@! TO.N,Net-(U115-Pad1)*
X50800000Y-132080000D03*
G04 #@! TD*
G04 #@! TO.P,U114,1*
G04 #@! TO.N,Net-(U114-Pad1)*
X71120000Y-83820000D03*
G04 #@! TD*
G04 #@! TO.P,U113,1*
G04 #@! TO.N,Net-(U113-Pad1)*
X68580000Y-88900000D03*
G04 #@! TD*
G04 #@! TO.P,U112,1*
G04 #@! TO.N,Net-(U112-Pad1)*
X68580000Y-124460000D03*
G04 #@! TD*
G04 #@! TO.P,U111,1*
G04 #@! TO.N,Net-(U111-Pad1)*
X66040000Y-104140000D03*
G04 #@! TD*
G04 #@! TO.P,U110,1*
G04 #@! TO.N,Net-(U110-Pad1)*
X63500000Y-93980000D03*
G04 #@! TD*
G04 #@! TO.P,U109,1*
G04 #@! TO.N,Net-(U109-Pad1)*
X60960000Y-111760000D03*
G04 #@! TD*
G04 #@! TO.P,U117,1*
G04 #@! TO.N,Net-(U117-Pad1)*
X58420000Y-93980000D03*
G04 #@! TD*
G04 #@! TO.P,U159,1*
G04 #@! TO.N,Net-(U159-Pad1)*
X55880000Y-83820000D03*
G04 #@! TD*
G04 #@! TO.P,U106,1*
G04 #@! TO.N,Net-(U106-Pad1)*
X48260000Y-109220000D03*
G04 #@! TD*
G04 #@! TO.P,U105,1*
G04 #@! TO.N,Net-(U105-Pad1)*
X53340000Y-83820000D03*
G04 #@! TD*
G04 #@! TO.P,U104,1*
G04 #@! TO.N,Net-(U104-Pad1)*
X50800000Y-86360000D03*
G04 #@! TD*
G04 #@! TO.P,U103,1*
G04 #@! TO.N,Net-(U103-Pad1)*
X50800000Y-134620000D03*
G04 #@! TD*
G04 #@! TO.P,U102,1*
G04 #@! TO.N,Net-(U102-Pad1)*
X48260000Y-116840000D03*
G04 #@! TD*
G04 #@! TO.P,U101,1*
G04 #@! TO.N,Net-(U101-Pad1)*
X71120000Y-139700000D03*
G04 #@! TD*
G04 #@! TO.P,U100,1*
G04 #@! TO.N,Net-(U100-Pad1)*
X66040000Y-81280000D03*
G04 #@! TD*
G04 #@! TO.P,U99,1*
G04 #@! TO.N,Net-(U99-Pad1)*
X66040000Y-127000000D03*
G04 #@! TD*
G04 #@! TO.P,U108,1*
G04 #@! TO.N,Net-(U108-Pad1)*
X63500000Y-86360000D03*
G04 #@! TD*
G04 #@! TO.P,U86,1*
G04 #@! TO.N,Net-(U86-Pad1)*
X60960000Y-114300000D03*
G04 #@! TD*
G04 #@! TO.P,U96,1*
G04 #@! TO.N,Net-(U96-Pad1)*
X60960000Y-139700000D03*
G04 #@! TD*
G04 #@! TO.P,U95,1*
G04 #@! TO.N,Net-(U95-Pad1)*
X55880000Y-81280000D03*
G04 #@! TD*
G04 #@! TO.P,U94,1*
G04 #@! TO.N,Net-(U94-Pad1)*
X55880000Y-139700000D03*
G04 #@! TD*
G04 #@! TO.P,U93,1*
G04 #@! TO.N,Net-(U93-Pad1)*
X53340000Y-109220000D03*
G04 #@! TD*
G04 #@! TO.P,U92,1*
G04 #@! TO.N,Net-(U92-Pad1)*
X53340000Y-129540000D03*
G04 #@! TD*
G04 #@! TO.P,U91,1*
G04 #@! TO.N,Net-(U91-Pad1)*
X50800000Y-129540000D03*
G04 #@! TD*
G04 #@! TO.P,U90,1*
G04 #@! TO.N,Net-(U90-Pad1)*
X71120000Y-99060000D03*
G04 #@! TD*
G04 #@! TO.P,U89,1*
G04 #@! TO.N,Net-(U89-Pad1)*
X71120000Y-111760000D03*
G04 #@! TD*
G04 #@! TO.P,U77,1*
G04 #@! TO.N,Net-(U77-Pad1)*
X68580000Y-119380000D03*
G04 #@! TD*
G04 #@! TO.P,U87,1*
G04 #@! TO.N,Net-(U87-Pad1)*
X66040000Y-99060000D03*
G04 #@! TD*
G04 #@! TO.P,U97,1*
G04 #@! TO.N,Net-(U97-Pad1)*
X63500000Y-83820000D03*
G04 #@! TD*
G04 #@! TO.P,U85,1*
G04 #@! TO.N,Net-(U85-Pad1)*
X60960000Y-106680000D03*
G04 #@! TD*
G04 #@! TO.P,U84,1*
G04 #@! TO.N,Net-(U84-Pad1)*
X58420000Y-99060000D03*
G04 #@! TD*
G04 #@! TO.P,U83,1*
G04 #@! TO.N,Net-(U83-Pad1)*
X55880000Y-91440000D03*
G04 #@! TD*
G04 #@! TO.P,U82,1*
G04 #@! TO.N,Net-(U82-Pad1)*
X55880000Y-137160000D03*
G04 #@! TD*
G04 #@! TO.P,U81,1*
G04 #@! TO.N,Net-(U81-Pad1)*
X53340000Y-111760000D03*
G04 #@! TD*
G04 #@! TO.P,U80,1*
G04 #@! TO.N,Net-(U80-Pad1)*
X50800000Y-81280000D03*
G04 #@! TD*
G04 #@! TO.P,U79,1*
G04 #@! TO.N,Net-(U79-Pad1)*
X53340000Y-81280000D03*
G04 #@! TD*
G04 #@! TO.P,U78,1*
G04 #@! TO.N,Net-(U78-Pad1)*
X48260000Y-124460000D03*
G04 #@! TD*
G04 #@! TO.P,U88,1*
G04 #@! TO.N,Net-(U88-Pad1)*
X71120000Y-106680000D03*
G04 #@! TD*
G04 #@! TO.P,U66,1*
G04 #@! TO.N,Net-(U66-Pad1)*
X68580000Y-101600000D03*
G04 #@! TD*
G04 #@! TO.P,U76,1*
G04 #@! TO.N,Net-(U76-Pad1)*
X66040000Y-93980000D03*
G04 #@! TD*
G04 #@! TO.P,U74,1*
G04 #@! TO.N,Net-(U74-Pad1)*
X63500000Y-109220000D03*
G04 #@! TD*
G04 #@! TO.P,U73,1*
G04 #@! TO.N,Net-(U73-Pad1)*
X60960000Y-86360000D03*
G04 #@! TD*
G04 #@! TO.P,U72,1*
G04 #@! TO.N,Net-(U72-Pad1)*
X60960000Y-137160000D03*
G04 #@! TD*
G04 #@! TO.P,U71,1*
G04 #@! TO.N,Net-(U71-Pad1)*
X55880000Y-93980000D03*
G04 #@! TD*
G04 #@! TO.P,U70,1*
G04 #@! TO.N,Net-(U70-Pad1)*
X55880000Y-121920000D03*
G04 #@! TD*
G04 #@! TO.P,U69,1*
G04 #@! TO.N,Net-(U69-Pad1)*
X53340000Y-99060000D03*
G04 #@! TD*
G04 #@! TO.P,U68,1*
G04 #@! TO.N,Net-(U68-Pad1)*
X55880000Y-96520000D03*
G04 #@! TD*
G04 #@! TO.P,U35,1*
G04 #@! TO.N,Net-(U35-Pad1)*
X50800000Y-109220000D03*
G04 #@! TD*
G04 #@! TO.P,U65,1*
G04 #@! TO.N,Net-(U65-Pad1)*
X71120000Y-81280000D03*
G04 #@! TD*
G04 #@! TO.P,U64,1*
G04 #@! TO.N,Net-(U64-Pad1)*
X71120000Y-124460000D03*
G04 #@! TD*
G04 #@! TO.P,U63,1*
G04 #@! TO.N,Net-(U63-Pad1)*
X68580000Y-109220000D03*
G04 #@! TD*
G04 #@! TO.P,U62,1*
G04 #@! TO.N,Net-(U62-Pad1)*
X66040000Y-96520000D03*
G04 #@! TD*
G04 #@! TO.P,U61,1*
G04 #@! TO.N,Net-(U61-Pad1)*
X63500000Y-132080000D03*
G04 #@! TD*
G04 #@! TO.P,U60,1*
G04 #@! TO.N,Net-(U60-Pad1)*
X48260000Y-81280000D03*
G04 #@! TD*
G04 #@! TO.P,U59,1*
G04 #@! TO.N,Net-(U59-Pad1)*
X58420000Y-109220000D03*
G04 #@! TD*
G04 #@! TO.P,U58,1*
G04 #@! TO.N,Net-(U58-Pad1)*
X58420000Y-134620000D03*
G04 #@! TD*
G04 #@! TO.P,U67,1*
G04 #@! TO.N,Net-(U67-Pad1)*
X55880000Y-127000000D03*
G04 #@! TD*
G04 #@! TO.P,U45,1*
G04 #@! TO.N,Net-(U45-Pad1)*
X58420000Y-111760000D03*
G04 #@! TD*
G04 #@! TO.P,U55,1*
G04 #@! TO.N,Net-(U55-Pad1)*
X50800000Y-96520000D03*
G04 #@! TD*
G04 #@! TO.P,U54,1*
G04 #@! TO.N,Net-(U54-Pad1)*
X48260000Y-129540000D03*
G04 #@! TD*
G04 #@! TO.P,U53,1*
G04 #@! TO.N,Net-(U53-Pad1)*
X71120000Y-137160000D03*
G04 #@! TD*
G04 #@! TO.P,U52,1*
G04 #@! TO.N,Net-(U52-Pad1)*
X68580000Y-116840000D03*
G04 #@! TD*
G04 #@! TO.P,U51,1*
G04 #@! TO.N,Net-(U51-Pad1)*
X66040000Y-114300000D03*
G04 #@! TD*
G04 #@! TO.P,U50,1*
G04 #@! TO.N,Net-(U50-Pad1)*
X63500000Y-121920000D03*
G04 #@! TD*
G04 #@! TO.P,U49,1*
G04 #@! TO.N,Net-(U49-Pad1)*
X60960000Y-109220000D03*
G04 #@! TD*
G04 #@! TO.P,U48,1*
G04 #@! TO.N,Net-(U48-Pad1)*
X58420000Y-83820000D03*
G04 #@! TD*
G04 #@! TO.P,U36,1*
G04 #@! TO.N,Net-(U36-Pad1)*
X58420000Y-116840000D03*
G04 #@! TD*
G04 #@! TO.P,U46,1*
G04 #@! TO.N,Net-(U46-Pad1)*
X60960000Y-124460000D03*
G04 #@! TD*
G04 #@! TO.P,U56,1*
G04 #@! TO.N,Net-(U56-Pad1)*
X55880000Y-116840000D03*
G04 #@! TD*
G04 #@! TO.P,U44,1*
G04 #@! TO.N,Net-(U44-Pad1)*
X48260000Y-127000000D03*
G04 #@! TD*
G04 #@! TO.P,U43,1*
G04 #@! TO.N,Net-(U43-Pad1)*
X68580000Y-86360000D03*
G04 #@! TD*
G04 #@! TO.P,U42,1*
G04 #@! TO.N,Net-(U42-Pad1)*
X68580000Y-104140000D03*
G04 #@! TD*
G04 #@! TO.P,U41,1*
G04 #@! TO.N,Net-(U41-Pad1)*
X66040000Y-116840000D03*
G04 #@! TD*
G04 #@! TO.P,U40,1*
G04 #@! TO.N,Net-(U40-Pad1)*
X63500000Y-106680000D03*
G04 #@! TD*
G04 #@! TO.P,U39,1*
G04 #@! TO.N,Net-(U39-Pad1)*
X60960000Y-83820000D03*
G04 #@! TD*
G04 #@! TO.P,U38,1*
G04 #@! TO.N,Net-(U38-Pad1)*
X60960000Y-132080000D03*
G04 #@! TD*
G04 #@! TO.P,U37,1*
G04 #@! TO.N,Net-(U37-Pad1)*
X63500000Y-134620000D03*
G04 #@! TD*
G04 #@! TO.P,U47,1*
G04 #@! TO.N,Net-(U47-Pad1)*
X48260000Y-106680000D03*
G04 #@! TD*
G04 #@! TO.P,U25,1*
G04 #@! TO.N,Net-(U25-Pad1)*
X48260000Y-119380000D03*
G04 #@! TD*
G04 #@! TO.P,U34,1*
G04 #@! TO.N,Net-(U34-Pad1)*
X71120000Y-116840000D03*
G04 #@! TD*
G04 #@! TO.P,U33,1*
G04 #@! TO.N,Net-(U33-Pad1)*
X68580000Y-121920000D03*
G04 #@! TD*
G04 #@! TO.P,U32,1*
G04 #@! TO.N,Net-(U32-Pad1)*
X66040000Y-111760000D03*
G04 #@! TD*
G04 #@! TO.P,U31,1*
G04 #@! TO.N,Net-(U31-Pad1)*
X63500000Y-116840000D03*
G04 #@! TD*
G04 #@! TO.P,U30,1*
G04 #@! TO.N,Net-(U30-Pad1)*
X60960000Y-104140000D03*
G04 #@! TD*
G04 #@! TO.P,U29,1*
G04 #@! TO.N,Net-(U29-Pad1)*
X63500000Y-81280000D03*
G04 #@! TD*
G04 #@! TO.P,U28,1*
G04 #@! TO.N,Net-(U28-Pad1)*
X48260000Y-104140000D03*
G04 #@! TD*
G04 #@! TO.P,U27,1*
G04 #@! TO.N,Net-(U27-Pad1)*
X71120000Y-88900000D03*
G04 #@! TD*
G04 #@! TO.P,U57,1*
G04 #@! TO.N,Net-(U57-Pad1)*
X71120000Y-134620000D03*
G04 #@! TD*
G04 #@! TO.P,U24,1*
G04 #@! TO.N,Net-(U24-Pad1)*
X68580000Y-132080000D03*
G04 #@! TD*
G04 #@! TO.P,U23,1*
G04 #@! TO.N,Net-(U23-Pad1)*
X66040000Y-134620000D03*
G04 #@! TD*
G04 #@! TO.P,U22,1*
G04 #@! TO.N,Net-(U22-Pad1)*
X63500000Y-111760000D03*
G04 #@! TD*
G04 #@! TO.P,U21,1*
G04 #@! TO.N,Net-(U21-Pad1)*
X66040000Y-88900000D03*
G04 #@! TD*
G04 #@! TO.P,U20,1*
G04 #@! TO.N,Net-(U20-Pad1)*
X48260000Y-101600000D03*
G04 #@! TD*
G04 #@! TO.P,U19,1*
G04 #@! TO.N,Net-(U19-Pad1)*
X48260000Y-121920000D03*
G04 #@! TD*
G04 #@! TO.P,U18,1*
G04 #@! TO.N,Net-(U18-Pad1)*
X71120000Y-127000000D03*
G04 #@! TD*
G04 #@! TO.P,U17,1*
G04 #@! TO.N,Net-(U17-Pad1)*
X68580000Y-139700000D03*
G04 #@! TD*
G04 #@! TO.P,U16,1*
G04 #@! TO.N,Net-(U16-Pad1)*
X66040000Y-121920000D03*
G04 #@! TD*
G04 #@! TO.P,U26,1*
G04 #@! TO.N,Net-(U26-Pad1)*
X68580000Y-96520000D03*
G04 #@! TD*
G04 #@! TO.P,U4,1*
G04 #@! TO.N,Net-(U4-Pad1)*
X48260000Y-99060000D03*
G04 #@! TD*
G04 #@! TO.P,U14,1*
G04 #@! TO.N,Net-(U14-Pad1)*
X48260000Y-137160000D03*
G04 #@! TD*
G04 #@! TO.P,U13,1*
G04 #@! TO.N,Net-(U13-Pad1)*
X71120000Y-119380000D03*
G04 #@! TD*
G04 #@! TO.P,U12,1*
G04 #@! TO.N,Net-(U12-Pad1)*
X68580000Y-111760000D03*
G04 #@! TD*
G04 #@! TO.P,U11,1*
G04 #@! TO.N,Net-(U11-Pad1)*
X71120000Y-104140000D03*
G04 #@! TD*
G04 #@! TO.P,U10,1*
G04 #@! TO.N,Net-(U10-Pad1)*
X48260000Y-96520000D03*
G04 #@! TD*
G04 #@! TO.P,U9,1*
G04 #@! TO.N,Net-(U9-Pad1)*
X71120000Y-96520000D03*
G04 #@! TD*
G04 #@! TO.P,U8,1*
G04 #@! TO.N,Net-(U8-Pad1)*
X68580000Y-81280000D03*
G04 #@! TD*
G04 #@! TO.P,U7,1*
G04 #@! TO.N,Net-(U7-Pad1)*
X48260000Y-114300000D03*
G04 #@! TD*
G04 #@! TO.P,U5,1*
G04 #@! TO.N,Net-(U5-Pad1)*
X48260000Y-93980000D03*
G04 #@! TD*
G04 #@! TO.P,U15,1*
G04 #@! TO.N,Net-(U15-Pad1)*
X48260000Y-86360000D03*
G04 #@! TD*
G04 #@! TO.P,U3,1*
G04 #@! TO.N,Net-(U3-Pad1)*
X48260000Y-111760000D03*
G04 #@! TD*
G04 #@! TO.P,U2,1*
G04 #@! TO.N,Net-(U2-Pad1)*
X48260000Y-91440000D03*
G04 #@! TD*
G04 #@! TO.P,U1,1*
G04 #@! TO.N,Net-(U1-Pad1)*
X48260000Y-83820000D03*
G04 #@! TD*
G04 #@! TO.P,U6,1*
G04 #@! TO.N,Net-(U6-Pad1)*
X48260000Y-88900000D03*
G04 #@! TD*
G04 #@! TO.P,U127,1*
G04 #@! TO.N,Net-(U127-Pad1)*
X60960000Y-99060000D03*
G04 #@! TD*
D11*
G04 #@! TO.P,J2,20*
G04 #@! TO.N,Net-(J2-Pad20)*
X73660000Y-73660000D03*
G04 #@! TO.P,J2,19*
G04 #@! TO.N,Net-(J2-Pad19)*
X73660000Y-76200000D03*
G04 #@! TO.P,J2,18*
G04 #@! TO.N,Net-(J2-Pad18)*
X71120000Y-73660000D03*
G04 #@! TO.P,J2,17*
G04 #@! TO.N,Net-(J2-Pad17)*
X71120000Y-76200000D03*
G04 #@! TO.P,J2,16*
G04 #@! TO.N,Net-(J2-Pad16)*
X68580000Y-73660000D03*
G04 #@! TO.P,J2,15*
G04 #@! TO.N,Net-(J2-Pad15)*
X68580000Y-76200000D03*
G04 #@! TO.P,J2,14*
G04 #@! TO.N,Net-(J2-Pad14)*
X66040000Y-73660000D03*
G04 #@! TO.P,J2,13*
G04 #@! TO.N,Net-(J2-Pad13)*
X66040000Y-76200000D03*
G04 #@! TO.P,J2,12*
G04 #@! TO.N,Net-(J2-Pad12)*
X63500000Y-73660000D03*
G04 #@! TO.P,J2,11*
G04 #@! TO.N,Net-(J2-Pad11)*
X63500000Y-76200000D03*
G04 #@! TO.P,J2,10*
G04 #@! TO.N,Net-(J2-Pad10)*
X60960000Y-73660000D03*
G04 #@! TO.P,J2,9*
G04 #@! TO.N,Net-(J2-Pad9)*
X60960000Y-76200000D03*
G04 #@! TO.P,J2,8*
G04 #@! TO.N,Net-(J2-Pad8)*
X58420000Y-73660000D03*
G04 #@! TO.P,J2,7*
G04 #@! TO.N,Net-(J2-Pad7)*
X58420000Y-76200000D03*
G04 #@! TO.P,J2,6*
G04 #@! TO.N,Net-(J2-Pad6)*
X55880000Y-73660000D03*
G04 #@! TO.P,J2,5*
G04 #@! TO.N,Net-(J2-Pad5)*
X55880000Y-76200000D03*
G04 #@! TO.P,J2,4*
G04 #@! TO.N,Net-(J2-Pad4)*
X53340000Y-73660000D03*
G04 #@! TO.P,J2,3*
G04 #@! TO.N,Net-(J2-Pad3)*
X53340000Y-76200000D03*
G04 #@! TO.P,J2,2*
G04 #@! TO.N,Net-(J2-Pad2)*
X50800000Y-73660000D03*
D12*
G04 #@! TO.P,J2,1*
G04 #@! TO.N,Net-(J2-Pad1)*
X50800000Y-76200000D03*
G04 #@! TD*
D11*
G04 #@! TO.P,J1,20*
G04 #@! TO.N,VDDA*
X73660000Y-152400000D03*
G04 #@! TO.P,J1,19*
G04 #@! TO.N,GNDA*
X73660000Y-154940000D03*
G04 #@! TO.P,J1,18*
G04 #@! TO.N,VDD*
X71120000Y-152400000D03*
G04 #@! TO.P,J1,17*
G04 #@! TO.N,GND*
X71120000Y-154940000D03*
G04 #@! TO.P,J1,16*
G04 #@! TO.N,/D14*
X68580000Y-152400000D03*
G04 #@! TO.P,J1,15*
G04 #@! TO.N,/D15*
X68580000Y-154940000D03*
G04 #@! TO.P,J1,14*
G04 #@! TO.N,/D12*
X66040000Y-152400000D03*
G04 #@! TO.P,J1,13*
G04 #@! TO.N,/D13*
X66040000Y-154940000D03*
G04 #@! TO.P,J1,12*
G04 #@! TO.N,/D10*
X63500000Y-152400000D03*
G04 #@! TO.P,J1,11*
G04 #@! TO.N,/D11*
X63500000Y-154940000D03*
G04 #@! TO.P,J1,10*
G04 #@! TO.N,/D8*
X60960000Y-152400000D03*
G04 #@! TO.P,J1,9*
G04 #@! TO.N,/D9*
X60960000Y-154940000D03*
G04 #@! TO.P,J1,8*
G04 #@! TO.N,/D6*
X58420000Y-152400000D03*
G04 #@! TO.P,J1,7*
G04 #@! TO.N,/D7*
X58420000Y-154940000D03*
G04 #@! TO.P,J1,6*
G04 #@! TO.N,/D4*
X55880000Y-152400000D03*
G04 #@! TO.P,J1,5*
G04 #@! TO.N,/D5*
X55880000Y-154940000D03*
G04 #@! TO.P,J1,4*
G04 #@! TO.N,/D2*
X53340000Y-152400000D03*
G04 #@! TO.P,J1,3*
G04 #@! TO.N,/D3*
X53340000Y-154940000D03*
G04 #@! TO.P,J1,2*
G04 #@! TO.N,/D0*
X50800000Y-152400000D03*
D12*
G04 #@! TO.P,J1,1*
G04 #@! TO.N,/D1*
X50800000Y-154940000D03*
G04 #@! TD*
D13*
G04 #@! TO.N,GNDA*
X73660000Y-160020000D02*
X73660000Y-154940000D01*
X76200000Y-81280000D02*
X76200000Y-83820000D01*
X76200000Y-153602081D02*
X76200000Y-84280000D01*
X73660000Y-154940000D02*
X74862081Y-154940000D01*
X74862081Y-154940000D02*
X76200000Y-153602081D01*
G04 #@! TO.N,GND*
X71120000Y-154940000D02*
X71120000Y-160020000D01*
G04 #@! TO.N,VDDA*
X73660000Y-139700000D02*
X73660000Y-152400000D01*
X73660000Y-139700000D02*
X73660000Y-81280000D01*
G04 #@! TO.N,VDD*
X71120000Y-147320000D02*
X71120000Y-152400000D01*
G04 #@! TO.N,/D0*
X50800000Y-147320000D02*
X50800000Y-152400000D01*
G04 #@! TO.N,/D1*
X50800000Y-154940000D02*
X50800000Y-160020000D01*
G04 #@! TO.N,/D2*
X53340000Y-152400000D02*
X53340000Y-147320000D01*
G04 #@! TO.N,/D3*
X53340000Y-160020000D02*
X53340000Y-154940000D01*
G04 #@! TO.N,/D4*
X55880000Y-147320000D02*
X55880000Y-152400000D01*
G04 #@! TO.N,/D8*
X60960000Y-147320000D02*
X60960000Y-152400000D01*
G04 #@! TO.N,/D5*
X55880000Y-154940000D02*
X55880000Y-160020000D01*
G04 #@! TO.N,/D6*
X58420000Y-152400000D02*
X58420000Y-147320000D01*
G04 #@! TO.N,/D7*
X58420000Y-160020000D02*
X58420000Y-154940000D01*
G04 #@! TO.N,/D11*
X63500000Y-160020000D02*
X63500000Y-154940000D01*
G04 #@! TO.N,/D9*
X60960000Y-154940000D02*
X60960000Y-160020000D01*
G04 #@! TO.N,/D10*
X63500000Y-152400000D02*
X63500000Y-147320000D01*
G04 #@! TO.N,/D12*
X66040000Y-147320000D02*
X66040000Y-152400000D01*
G04 #@! TO.N,/D13*
X66040000Y-154940000D02*
X66040000Y-160020000D01*
G04 #@! TO.N,/D14*
X68580000Y-152400000D02*
X68580000Y-147320000D01*
G04 #@! TO.N,/D15*
X68580000Y-154940000D02*
X68580000Y-160020000D01*
G04 #@! TD*
M02*
