G04 #@! TF.GenerationSoftware,KiCad,Pcbnew,5.0.2-bee76a0~70~ubuntu18.04.1*
G04 #@! TF.CreationDate,2019-05-09T10:06:10+02:00*
G04 #@! TF.ProjectId,breadboard,62726561-6462-46f6-9172-642e6b696361,rev?*
G04 #@! TF.SameCoordinates,Original*
G04 #@! TF.FileFunction,Soldermask,Bot*
G04 #@! TF.FilePolarity,Negative*
%FSLAX46Y46*%
G04 Gerber Fmt 4.6, Leading zero omitted, Abs format (unit mm)*
G04 Created by KiCad (PCBNEW 5.0.2-bee76a0~70~ubuntu18.04.1) date jeu. 09 mai 2019 10:06:10 CEST*
%MOMM*%
%LPD*%
G01*
G04 APERTURE LIST*
%ADD10C,0.100000*%
G04 APERTURE END LIST*
D10*
G36*
X119756017Y-147176027D02*
X103746017Y-147176027D01*
X103746017Y-144506027D01*
X119756017Y-144506027D01*
X119756017Y-147176027D01*
X119756017Y-147176027D01*
G37*
G36*
X121286017Y-143391027D02*
X118346017Y-143391027D01*
X118346017Y-142561027D01*
X121286017Y-142561027D01*
X121286017Y-143391027D01*
X121286017Y-143391027D01*
G37*
G36*
X105156017Y-143391027D02*
X102216017Y-143391027D01*
X102216017Y-142561027D01*
X105156017Y-142561027D01*
X105156017Y-143391027D01*
X105156017Y-143391027D01*
G37*
G36*
X117476017Y-143391027D02*
X112376017Y-143391027D01*
X112376017Y-142561027D01*
X117476017Y-142561027D01*
X117476017Y-143391027D01*
X117476017Y-143391027D01*
G37*
G36*
X111126017Y-143391027D02*
X106026017Y-143391027D01*
X106026017Y-142561027D01*
X111126017Y-142561027D01*
X111126017Y-143391027D01*
X111126017Y-143391027D01*
G37*
G36*
X119756017Y-141446027D02*
X103746017Y-141446027D01*
X103746017Y-138776027D01*
X119756017Y-138776027D01*
X119756017Y-141446027D01*
X119756017Y-141446027D01*
G37*
G36*
X122023116Y-139623312D02*
X122152328Y-139676833D01*
X122268618Y-139754536D01*
X122367508Y-139853426D01*
X122445211Y-139969716D01*
X122498732Y-140098928D01*
X122526017Y-140236099D01*
X122526017Y-140375955D01*
X122498732Y-140513126D01*
X122445211Y-140642338D01*
X122367508Y-140758628D01*
X122268618Y-140857518D01*
X122152328Y-140935221D01*
X122023116Y-140988742D01*
X121885946Y-141016027D01*
X121746088Y-141016027D01*
X121608918Y-140988742D01*
X121479706Y-140935221D01*
X121363416Y-140857518D01*
X121264526Y-140758628D01*
X121186823Y-140642338D01*
X121133302Y-140513126D01*
X121106017Y-140375955D01*
X121106017Y-140236099D01*
X121133302Y-140098928D01*
X121186823Y-139969716D01*
X121264526Y-139853426D01*
X121363416Y-139754536D01*
X121479706Y-139676833D01*
X121608918Y-139623312D01*
X121746088Y-139596027D01*
X121885946Y-139596027D01*
X122023116Y-139623312D01*
X122023116Y-139623312D01*
G37*
G36*
X101893116Y-139623312D02*
X102022328Y-139676833D01*
X102138618Y-139754536D01*
X102237508Y-139853426D01*
X102315211Y-139969716D01*
X102368732Y-140098928D01*
X102396017Y-140236099D01*
X102396017Y-140375955D01*
X102368732Y-140513126D01*
X102315211Y-140642338D01*
X102237508Y-140758628D01*
X102138618Y-140857518D01*
X102022328Y-140935221D01*
X101893116Y-140988742D01*
X101755946Y-141016027D01*
X101616088Y-141016027D01*
X101478918Y-140988742D01*
X101349706Y-140935221D01*
X101233416Y-140857518D01*
X101134526Y-140758628D01*
X101056823Y-140642338D01*
X101003302Y-140513126D01*
X100976017Y-140375955D01*
X100976017Y-140236099D01*
X101003302Y-140098928D01*
X101056823Y-139969716D01*
X101134526Y-139853426D01*
X101233416Y-139754536D01*
X101349706Y-139676833D01*
X101478918Y-139623312D01*
X101616088Y-139596027D01*
X101755946Y-139596027D01*
X101893116Y-139623312D01*
X101893116Y-139623312D01*
G37*
G36*
X119756017Y-69076027D02*
X103746017Y-69076027D01*
X103746017Y-66406027D01*
X119756017Y-66406027D01*
X119756017Y-69076027D01*
X119756017Y-69076027D01*
G37*
G36*
X111126017Y-65291027D02*
X106026017Y-65291027D01*
X106026017Y-64461027D01*
X111126017Y-64461027D01*
X111126017Y-65291027D01*
X111126017Y-65291027D01*
G37*
G36*
X121286017Y-65291027D02*
X118346017Y-65291027D01*
X118346017Y-64461027D01*
X121286017Y-64461027D01*
X121286017Y-65291027D01*
X121286017Y-65291027D01*
G37*
G36*
X105156017Y-65291027D02*
X102216017Y-65291027D01*
X102216017Y-64461027D01*
X105156017Y-64461027D01*
X105156017Y-65291027D01*
X105156017Y-65291027D01*
G37*
G36*
X117476017Y-65291027D02*
X112376017Y-65291027D01*
X112376017Y-64461027D01*
X117476017Y-64461027D01*
X117476017Y-65291027D01*
X117476017Y-65291027D01*
G37*
G36*
X119756017Y-63346027D02*
X103746017Y-63346027D01*
X103746017Y-60676027D01*
X119756017Y-60676027D01*
X119756017Y-63346027D01*
X119756017Y-63346027D01*
G37*
G36*
X122023116Y-61523312D02*
X122152328Y-61576833D01*
X122268618Y-61654536D01*
X122367508Y-61753426D01*
X122445211Y-61869716D01*
X122498732Y-61998928D01*
X122526017Y-62136099D01*
X122526017Y-62275955D01*
X122498732Y-62413126D01*
X122445211Y-62542338D01*
X122367508Y-62658628D01*
X122268618Y-62757518D01*
X122152328Y-62835221D01*
X122023116Y-62888742D01*
X121885946Y-62916027D01*
X121746088Y-62916027D01*
X121608918Y-62888742D01*
X121479706Y-62835221D01*
X121363416Y-62757518D01*
X121264526Y-62658628D01*
X121186823Y-62542338D01*
X121133302Y-62413126D01*
X121106017Y-62275955D01*
X121106017Y-62136099D01*
X121133302Y-61998928D01*
X121186823Y-61869716D01*
X121264526Y-61753426D01*
X121363416Y-61654536D01*
X121479706Y-61576833D01*
X121608918Y-61523312D01*
X121746088Y-61496027D01*
X121885946Y-61496027D01*
X122023116Y-61523312D01*
X122023116Y-61523312D01*
G37*
G36*
X101893116Y-61523312D02*
X102022328Y-61576833D01*
X102138618Y-61654536D01*
X102237508Y-61753426D01*
X102315211Y-61869716D01*
X102368732Y-61998928D01*
X102396017Y-62136099D01*
X102396017Y-62275955D01*
X102368732Y-62413126D01*
X102315211Y-62542338D01*
X102237508Y-62658628D01*
X102138618Y-62757518D01*
X102022328Y-62835221D01*
X101893116Y-62888742D01*
X101755946Y-62916027D01*
X101616088Y-62916027D01*
X101478918Y-62888742D01*
X101349706Y-62835221D01*
X101233416Y-62757518D01*
X101134526Y-62658628D01*
X101056823Y-62542338D01*
X101003302Y-62413126D01*
X100976017Y-62275955D01*
X100976017Y-62136099D01*
X101003302Y-61998928D01*
X101056823Y-61869716D01*
X101134526Y-61753426D01*
X101233416Y-61654536D01*
X101349706Y-61576833D01*
X101478918Y-61523312D01*
X101616088Y-61496027D01*
X101755946Y-61496027D01*
X101893116Y-61523312D01*
X101893116Y-61523312D01*
G37*
M02*
