G04 #@! TF.GenerationSoftware,KiCad,Pcbnew,5.0.2-bee76a0~70~ubuntu18.04.1*
G04 #@! TF.CreationDate,2019-10-10T11:49:15+02:00*
G04 #@! TF.ProjectId,breadboard,62726561-6462-46f6-9172-642e6b696361,rev?*
G04 #@! TF.SameCoordinates,Original*
G04 #@! TF.FileFunction,Copper,L2,Bot*
G04 #@! TF.FilePolarity,Positive*
%FSLAX46Y46*%
G04 Gerber Fmt 4.6, Leading zero omitted, Abs format (unit mm)*
G04 Created by KiCad (PCBNEW 5.0.2-bee76a0~70~ubuntu18.04.1) date jeu. 10 oct. 2019 11:49:15 CEST*
%MOMM*%
%LPD*%
G01*
G04 APERTURE LIST*
G04 #@! TA.AperFunction,SMDPad,CuDef*
%ADD10R,2.000000X2.000000*%
G04 #@! TD*
G04 #@! TA.AperFunction,ComponentPad*
%ADD11O,1.700000X1.700000*%
G04 #@! TD*
G04 #@! TA.AperFunction,ComponentPad*
%ADD12R,1.700000X1.700000*%
G04 #@! TD*
G04 #@! TA.AperFunction,Conductor*
%ADD13C,2.000000*%
G04 #@! TD*
G04 APERTURE END LIST*
D10*
G04 #@! TO.P,U328,2*
G04 #@! TO.N,/D15*
X68580000Y-160020000D03*
G04 #@! TD*
G04 #@! TO.P,U327,2*
G04 #@! TO.N,/D15*
X68580000Y-157480000D03*
G04 #@! TD*
G04 #@! TO.P,U326,2*
G04 #@! TO.N,/D14*
X68580000Y-147320000D03*
G04 #@! TD*
G04 #@! TO.P,U325,2*
G04 #@! TO.N,/D14*
X68580000Y-149860000D03*
G04 #@! TD*
G04 #@! TO.P,U324,2*
G04 #@! TO.N,/D13*
X66040000Y-160020000D03*
G04 #@! TD*
G04 #@! TO.P,U323,2*
G04 #@! TO.N,/D13*
X66040000Y-157480000D03*
G04 #@! TD*
G04 #@! TO.P,U322,2*
G04 #@! TO.N,/D12*
X66040000Y-147320000D03*
G04 #@! TD*
G04 #@! TO.P,U321,2*
G04 #@! TO.N,/D12*
X66040000Y-149860000D03*
G04 #@! TD*
G04 #@! TO.P,U320,2*
G04 #@! TO.N,/D11*
X63500000Y-160020000D03*
G04 #@! TD*
G04 #@! TO.P,U318,2*
G04 #@! TO.N,/D10*
X63500000Y-149860000D03*
G04 #@! TD*
G04 #@! TO.P,U317,2*
G04 #@! TO.N,/D10*
X63500000Y-147320000D03*
G04 #@! TD*
G04 #@! TO.P,U316,2*
G04 #@! TO.N,/D9*
X60960000Y-157480000D03*
G04 #@! TD*
G04 #@! TO.P,U315,2*
G04 #@! TO.N,/D9*
X60960000Y-160020000D03*
G04 #@! TD*
G04 #@! TO.P,U314,2*
G04 #@! TO.N,/D8*
X60960000Y-149860000D03*
G04 #@! TD*
G04 #@! TO.P,U313,2*
G04 #@! TO.N,/D8*
X60960000Y-147320000D03*
G04 #@! TD*
G04 #@! TO.P,U312,2*
G04 #@! TO.N,/D7*
X58420000Y-160020000D03*
G04 #@! TD*
G04 #@! TO.P,U310,2*
G04 #@! TO.N,/D6*
X58420000Y-147320000D03*
G04 #@! TD*
G04 #@! TO.P,U319,2*
G04 #@! TO.N,/D11*
X63500000Y-157480000D03*
G04 #@! TD*
G04 #@! TO.P,U308,2*
G04 #@! TO.N,/D5*
X55880000Y-160020000D03*
G04 #@! TD*
G04 #@! TO.P,U307,2*
G04 #@! TO.N,/D5*
X55880000Y-157480000D03*
G04 #@! TD*
G04 #@! TO.P,U306,2*
G04 #@! TO.N,/D4*
X55880000Y-147320000D03*
G04 #@! TD*
G04 #@! TO.P,U305,2*
G04 #@! TO.N,/D4*
X55880000Y-149860000D03*
G04 #@! TD*
G04 #@! TO.P,U304,2*
G04 #@! TO.N,/D3*
X53340000Y-157480000D03*
G04 #@! TD*
G04 #@! TO.P,U303,2*
G04 #@! TO.N,/D3*
X53340000Y-160020000D03*
G04 #@! TD*
G04 #@! TO.P,U302,2*
G04 #@! TO.N,/D2*
X53340000Y-147320000D03*
G04 #@! TD*
G04 #@! TO.P,U301,2*
G04 #@! TO.N,/D2*
X53340000Y-149860000D03*
G04 #@! TD*
G04 #@! TO.P,U311,2*
G04 #@! TO.N,/D7*
X58420000Y-157480000D03*
G04 #@! TD*
G04 #@! TO.P,U299,2*
G04 #@! TO.N,/D1*
X50800000Y-157480000D03*
G04 #@! TD*
G04 #@! TO.P,U309,2*
G04 #@! TO.N,/D6*
X58420000Y-149860000D03*
G04 #@! TD*
G04 #@! TO.P,U297,2*
G04 #@! TO.N,/D0*
X50800000Y-149860000D03*
G04 #@! TD*
G04 #@! TO.P,U300,2*
G04 #@! TO.N,/D1*
X50800000Y-160020000D03*
G04 #@! TD*
G04 #@! TO.P,U298,2*
G04 #@! TO.N,/D0*
X50800000Y-147320000D03*
G04 #@! TD*
G04 #@! TO.P,U296,2*
G04 #@! TO.N,GND*
X71120000Y-160020000D03*
G04 #@! TD*
G04 #@! TO.P,U295,2*
G04 #@! TO.N,GND*
X71120000Y-157480000D03*
G04 #@! TD*
G04 #@! TO.P,U294,2*
G04 #@! TO.N,VDD*
X71120000Y-149860000D03*
G04 #@! TD*
G04 #@! TO.P,U293,2*
G04 #@! TO.N,VDD*
X71120000Y-147320000D03*
G04 #@! TD*
G04 #@! TO.P,U292,2*
G04 #@! TO.N,GNDA*
X76200000Y-137160000D03*
G04 #@! TD*
G04 #@! TO.P,U291,2*
G04 #@! TO.N,GNDA*
X76200000Y-81280000D03*
G04 #@! TD*
G04 #@! TO.P,U290,2*
G04 #@! TO.N,GNDA*
X76200000Y-124460000D03*
G04 #@! TD*
G04 #@! TO.P,U289,2*
G04 #@! TO.N,GNDA*
X76200000Y-134620000D03*
G04 #@! TD*
G04 #@! TO.P,U288,2*
G04 #@! TO.N,GNDA*
X76200000Y-88900000D03*
G04 #@! TD*
G04 #@! TO.P,U287,2*
G04 #@! TO.N,GNDA*
X76200000Y-111760000D03*
G04 #@! TD*
G04 #@! TO.P,U286,2*
G04 #@! TO.N,GNDA*
X76200000Y-119380000D03*
G04 #@! TD*
G04 #@! TO.P,U285,2*
G04 #@! TO.N,GNDA*
X76200000Y-132080000D03*
G04 #@! TD*
G04 #@! TO.P,U284,2*
G04 #@! TO.N,GNDA*
X76200000Y-91440000D03*
G04 #@! TD*
G04 #@! TO.P,U282,2*
G04 #@! TO.N,GNDA*
X76200000Y-106680000D03*
G04 #@! TD*
G04 #@! TO.P,U281,2*
G04 #@! TO.N,GNDA*
X76200000Y-121920000D03*
G04 #@! TD*
G04 #@! TO.P,U280,2*
G04 #@! TO.N,GNDA*
X76200000Y-139700000D03*
G04 #@! TD*
G04 #@! TO.P,U279,2*
G04 #@! TO.N,GNDA*
X76200000Y-86360000D03*
G04 #@! TD*
G04 #@! TO.P,U278,2*
G04 #@! TO.N,GNDA*
X76200000Y-104140000D03*
G04 #@! TD*
G04 #@! TO.P,U277,2*
G04 #@! TO.N,GNDA*
X76200000Y-127000000D03*
G04 #@! TD*
G04 #@! TO.P,U276,2*
G04 #@! TO.N,GNDA*
X73660000Y-160020000D03*
G04 #@! TD*
G04 #@! TO.P,U274,2*
G04 #@! TO.N,GNDA*
X76200000Y-83820000D03*
G04 #@! TD*
G04 #@! TO.P,U283,2*
G04 #@! TO.N,GNDA*
X76200000Y-114300000D03*
G04 #@! TD*
G04 #@! TO.P,U272,2*
G04 #@! TO.N,GNDA*
X76200000Y-129540000D03*
G04 #@! TD*
G04 #@! TO.P,U271,2*
G04 #@! TO.N,GNDA*
X73660000Y-157480000D03*
G04 #@! TD*
G04 #@! TO.P,U270,2*
G04 #@! TO.N,GNDA*
X76200000Y-96520000D03*
G04 #@! TD*
G04 #@! TO.P,U269,2*
G04 #@! TO.N,GNDA*
X76200000Y-101600000D03*
G04 #@! TD*
G04 #@! TO.P,U268,2*
G04 #@! TO.N,GNDA*
X76200000Y-116840000D03*
G04 #@! TD*
G04 #@! TO.P,U267,2*
G04 #@! TO.N,GNDA*
X76200000Y-99060000D03*
G04 #@! TD*
G04 #@! TO.P,U275,2*
G04 #@! TO.N,GNDA*
X76200000Y-109220000D03*
G04 #@! TD*
G04 #@! TO.P,U273,2*
G04 #@! TO.N,GNDA*
X76200000Y-93980000D03*
G04 #@! TD*
G04 #@! TO.P,U266,2*
G04 #@! TO.N,VDDA*
X73660000Y-147320000D03*
G04 #@! TD*
G04 #@! TO.P,U265,2*
G04 #@! TO.N,VDDA*
X73660000Y-101600000D03*
G04 #@! TD*
G04 #@! TO.P,U264,2*
G04 #@! TO.N,VDDA*
X73660000Y-129540000D03*
G04 #@! TD*
G04 #@! TO.P,U263,2*
G04 #@! TO.N,VDDA*
X73660000Y-149860000D03*
G04 #@! TD*
G04 #@! TO.P,U262,2*
G04 #@! TO.N,VDDA*
X73660000Y-81280000D03*
G04 #@! TD*
G04 #@! TO.P,U261,2*
G04 #@! TO.N,VDDA*
X73660000Y-114300000D03*
G04 #@! TD*
G04 #@! TO.P,U260,2*
G04 #@! TO.N,VDDA*
X73660000Y-119380000D03*
G04 #@! TD*
G04 #@! TO.P,U259,2*
G04 #@! TO.N,VDDA*
X73660000Y-132080000D03*
G04 #@! TD*
G04 #@! TO.P,U258,2*
G04 #@! TO.N,VDDA*
X73660000Y-96520000D03*
G04 #@! TD*
G04 #@! TO.P,U256,2*
G04 #@! TO.N,VDDA*
X73660000Y-111760000D03*
G04 #@! TD*
G04 #@! TO.P,U255,2*
G04 #@! TO.N,VDDA*
X73660000Y-116840000D03*
G04 #@! TD*
G04 #@! TO.P,U254,2*
G04 #@! TO.N,VDDA*
X73660000Y-137160000D03*
G04 #@! TD*
G04 #@! TO.P,U253,2*
G04 #@! TO.N,VDDA*
X73660000Y-86360000D03*
G04 #@! TD*
G04 #@! TO.P,U252,2*
G04 #@! TO.N,VDDA*
X73660000Y-104140000D03*
G04 #@! TD*
G04 #@! TO.P,U251,2*
G04 #@! TO.N,VDDA*
X73660000Y-127000000D03*
G04 #@! TD*
G04 #@! TO.P,U250,2*
G04 #@! TO.N,VDDA*
X73660000Y-139700000D03*
G04 #@! TD*
G04 #@! TO.P,U248,2*
G04 #@! TO.N,VDDA*
X73660000Y-83820000D03*
G04 #@! TD*
G04 #@! TO.P,U257,2*
G04 #@! TO.N,VDDA*
X73660000Y-106680000D03*
G04 #@! TD*
G04 #@! TO.P,U246,2*
G04 #@! TO.N,VDDA*
X73660000Y-124460000D03*
G04 #@! TD*
G04 #@! TO.P,U245,2*
G04 #@! TO.N,VDDA*
X73660000Y-134620000D03*
G04 #@! TD*
G04 #@! TO.P,U244,2*
G04 #@! TO.N,VDDA*
X73660000Y-88900000D03*
G04 #@! TD*
G04 #@! TO.P,U243,2*
G04 #@! TO.N,VDDA*
X73660000Y-109220000D03*
G04 #@! TD*
G04 #@! TO.P,U242,2*
G04 #@! TO.N,VDDA*
X73660000Y-121920000D03*
G04 #@! TD*
G04 #@! TO.P,U241,2*
G04 #@! TO.N,VDDA*
X73660000Y-91440000D03*
G04 #@! TD*
G04 #@! TO.P,U249,2*
G04 #@! TO.N,VDDA*
X73660000Y-99060000D03*
G04 #@! TD*
G04 #@! TO.P,U247,2*
G04 #@! TO.N,VDDA*
X73660000Y-93980000D03*
G04 #@! TD*
G04 #@! TO.P,U201,2*
G04 #@! TO.N,Net-(U201-Pad2)*
X55880000Y-119380000D03*
G04 #@! TD*
G04 #@! TO.P,U240,2*
G04 #@! TO.N,Net-(U240-Pad2)*
X53340000Y-93980000D03*
G04 #@! TD*
G04 #@! TO.P,U239,2*
G04 #@! TO.N,Net-(U239-Pad2)*
X53340000Y-132080000D03*
G04 #@! TD*
G04 #@! TO.P,U238,2*
G04 #@! TO.N,Net-(U238-Pad2)*
X50800000Y-139700000D03*
G04 #@! TD*
G04 #@! TO.P,U237,2*
G04 #@! TO.N,Net-(U237-Pad2)*
X63500000Y-99060000D03*
G04 #@! TD*
G04 #@! TO.P,U236,2*
G04 #@! TO.N,Net-(U236-Pad2)*
X60960000Y-116840000D03*
G04 #@! TD*
G04 #@! TO.P,U235,2*
G04 #@! TO.N,Net-(U235-Pad2)*
X60960000Y-127000000D03*
G04 #@! TD*
G04 #@! TO.P,U234,2*
G04 #@! TO.N,Net-(U234-Pad2)*
X58420000Y-129540000D03*
G04 #@! TD*
G04 #@! TO.P,U233,2*
G04 #@! TO.N,Net-(U233-Pad2)*
X55880000Y-99060000D03*
G04 #@! TD*
G04 #@! TO.P,U232,2*
G04 #@! TO.N,Net-(U232-Pad2)*
X53340000Y-121920000D03*
G04 #@! TD*
G04 #@! TO.P,U200,2*
G04 #@! TO.N,Net-(U200-Pad2)*
X53340000Y-139700000D03*
G04 #@! TD*
G04 #@! TO.P,U230,2*
G04 #@! TO.N,Net-(U230-Pad2)*
X50800000Y-114300000D03*
G04 #@! TD*
G04 #@! TO.P,U229,2*
G04 #@! TO.N,Net-(U229-Pad2)*
X66040000Y-124460000D03*
G04 #@! TD*
G04 #@! TO.P,U228,2*
G04 #@! TO.N,Net-(U228-Pad2)*
X63500000Y-129540000D03*
G04 #@! TD*
G04 #@! TO.P,U227,2*
G04 #@! TO.N,Net-(U227-Pad2)*
X55880000Y-104140000D03*
G04 #@! TD*
G04 #@! TO.P,U226,2*
G04 #@! TO.N,Net-(U226-Pad2)*
X58420000Y-104140000D03*
G04 #@! TD*
G04 #@! TO.P,U225,2*
G04 #@! TO.N,Net-(U225-Pad2)*
X58420000Y-121920000D03*
G04 #@! TD*
G04 #@! TO.P,U224,2*
G04 #@! TO.N,Net-(U224-Pad2)*
X55880000Y-106680000D03*
G04 #@! TD*
G04 #@! TO.P,U222,2*
G04 #@! TO.N,Net-(U222-Pad2)*
X53340000Y-106680000D03*
G04 #@! TD*
G04 #@! TO.P,U231,2*
G04 #@! TO.N,Net-(U231-Pad2)*
X50800000Y-91440000D03*
G04 #@! TD*
G04 #@! TO.P,U98,2*
G04 #@! TO.N,Net-(U98-Pad2)*
X50800000Y-111760000D03*
G04 #@! TD*
G04 #@! TO.P,U220,2*
G04 #@! TO.N,Net-(U220-Pad2)*
X68580000Y-134620000D03*
G04 #@! TD*
G04 #@! TO.P,U219,2*
G04 #@! TO.N,Net-(U219-Pad2)*
X66040000Y-119380000D03*
G04 #@! TD*
G04 #@! TO.P,U218,2*
G04 #@! TO.N,Net-(U218-Pad2)*
X63500000Y-127000000D03*
G04 #@! TD*
G04 #@! TO.P,U217,2*
G04 #@! TO.N,Net-(U217-Pad2)*
X63500000Y-137160000D03*
G04 #@! TD*
G04 #@! TO.P,U216,2*
G04 #@! TO.N,Net-(U216-Pad2)*
X60960000Y-134620000D03*
G04 #@! TD*
G04 #@! TO.P,U215,2*
G04 #@! TO.N,Net-(U215-Pad2)*
X58420000Y-137160000D03*
G04 #@! TD*
G04 #@! TO.P,U214,2*
G04 #@! TO.N,Net-(U214-Pad2)*
X55880000Y-124460000D03*
G04 #@! TD*
G04 #@! TO.P,U213,2*
G04 #@! TO.N,Net-(U213-Pad2)*
X53340000Y-114300000D03*
G04 #@! TD*
G04 #@! TO.P,U223,2*
G04 #@! TO.N,Net-(U223-Pad2)*
X50800000Y-83820000D03*
G04 #@! TD*
G04 #@! TO.P,U211,2*
G04 #@! TO.N,Net-(U211-Pad2)*
X50800000Y-116840000D03*
G04 #@! TD*
G04 #@! TO.P,U221,2*
G04 #@! TO.N,Net-(U221-Pad2)*
X68580000Y-83820000D03*
G04 #@! TD*
G04 #@! TO.P,U209,2*
G04 #@! TO.N,Net-(U209-Pad2)*
X68580000Y-99060000D03*
G04 #@! TD*
G04 #@! TO.P,U208,2*
G04 #@! TO.N,Net-(U208-Pad2)*
X66040000Y-139700000D03*
G04 #@! TD*
G04 #@! TO.P,U207,2*
G04 #@! TO.N,Net-(U207-Pad2)*
X63500000Y-88900000D03*
G04 #@! TD*
G04 #@! TO.P,U206,2*
G04 #@! TO.N,Net-(U206-Pad2)*
X60960000Y-91440000D03*
G04 #@! TD*
G04 #@! TO.P,U205,2*
G04 #@! TO.N,Net-(U205-Pad2)*
X58420000Y-101600000D03*
G04 #@! TD*
G04 #@! TO.P,U204,2*
G04 #@! TO.N,Net-(U204-Pad2)*
X58420000Y-119380000D03*
G04 #@! TD*
G04 #@! TO.P,U203,2*
G04 #@! TO.N,Net-(U203-Pad2)*
X55880000Y-114300000D03*
G04 #@! TD*
G04 #@! TO.P,U202,2*
G04 #@! TO.N,Net-(U202-Pad2)*
X53340000Y-91440000D03*
G04 #@! TD*
G04 #@! TO.P,U212,2*
G04 #@! TO.N,Net-(U212-Pad2)*
X53340000Y-124460000D03*
G04 #@! TD*
G04 #@! TO.P,U190,2*
G04 #@! TO.N,Net-(U190-Pad2)*
X50800000Y-137160000D03*
G04 #@! TD*
G04 #@! TO.P,U199,2*
G04 #@! TO.N,Net-(U199-Pad2)*
X48260000Y-139700000D03*
G04 #@! TD*
G04 #@! TO.P,U198,2*
G04 #@! TO.N,Net-(U198-Pad2)*
X68580000Y-93980000D03*
G04 #@! TD*
G04 #@! TO.P,U197,2*
G04 #@! TO.N,Net-(U197-Pad2)*
X66040000Y-86360000D03*
G04 #@! TD*
G04 #@! TO.P,U196,2*
G04 #@! TO.N,Net-(U196-Pad2)*
X66040000Y-91440000D03*
G04 #@! TD*
G04 #@! TO.P,U195,2*
G04 #@! TO.N,Net-(U195-Pad2)*
X63500000Y-124460000D03*
G04 #@! TD*
G04 #@! TO.P,U194,2*
G04 #@! TO.N,Net-(U194-Pad2)*
X60960000Y-96520000D03*
G04 #@! TD*
G04 #@! TO.P,U193,2*
G04 #@! TO.N,Net-(U193-Pad2)*
X58420000Y-86360000D03*
G04 #@! TD*
G04 #@! TO.P,U192,2*
G04 #@! TO.N,Net-(U192-Pad2)*
X58420000Y-132080000D03*
G04 #@! TD*
G04 #@! TO.P,U210,2*
G04 #@! TO.N,Net-(U210-Pad2)*
X55880000Y-109220000D03*
G04 #@! TD*
G04 #@! TO.P,U75,2*
G04 #@! TO.N,Net-(U75-Pad2)*
X53340000Y-116840000D03*
G04 #@! TD*
G04 #@! TO.P,U189,2*
G04 #@! TO.N,Net-(U189-Pad2)*
X53340000Y-127000000D03*
G04 #@! TD*
G04 #@! TO.P,U188,2*
G04 #@! TO.N,Net-(U188-Pad2)*
X50800000Y-121920000D03*
G04 #@! TD*
G04 #@! TO.P,U187,2*
G04 #@! TO.N,Net-(U187-Pad2)*
X71120000Y-86360000D03*
G04 #@! TD*
G04 #@! TO.P,U186,2*
G04 #@! TO.N,Net-(U186-Pad2)*
X71120000Y-132080000D03*
G04 #@! TD*
G04 #@! TO.P,U185,2*
G04 #@! TO.N,Net-(U185-Pad2)*
X68580000Y-106680000D03*
G04 #@! TD*
G04 #@! TO.P,U184,2*
G04 #@! TO.N,Net-(U184-Pad2)*
X66040000Y-109220000D03*
G04 #@! TD*
G04 #@! TO.P,U183,2*
G04 #@! TO.N,Net-(U183-Pad2)*
X63500000Y-114300000D03*
G04 #@! TD*
G04 #@! TO.P,U181,2*
G04 #@! TO.N,Net-(U181-Pad2)*
X60960000Y-121920000D03*
G04 #@! TD*
G04 #@! TO.P,U191,2*
G04 #@! TO.N,Net-(U191-Pad2)*
X58420000Y-96520000D03*
G04 #@! TD*
G04 #@! TO.P,U169,2*
G04 #@! TO.N,Net-(U169-Pad2)*
X58420000Y-127000000D03*
G04 #@! TD*
G04 #@! TO.P,U179,2*
G04 #@! TO.N,Net-(U179-Pad2)*
X55880000Y-129540000D03*
G04 #@! TD*
G04 #@! TO.P,U178,2*
G04 #@! TO.N,Net-(U178-Pad2)*
X53340000Y-104140000D03*
G04 #@! TD*
G04 #@! TO.P,U177,2*
G04 #@! TO.N,Net-(U177-Pad2)*
X50800000Y-99060000D03*
G04 #@! TD*
G04 #@! TO.P,U176,2*
G04 #@! TO.N,Net-(U176-Pad2)*
X50800000Y-127000000D03*
G04 #@! TD*
G04 #@! TO.P,U175,2*
G04 #@! TO.N,Net-(U175-Pad2)*
X48260000Y-134620000D03*
G04 #@! TD*
G04 #@! TO.P,U174,2*
G04 #@! TO.N,Net-(U174-Pad2)*
X68580000Y-91440000D03*
G04 #@! TD*
G04 #@! TO.P,U173,2*
G04 #@! TO.N,Net-(U173-Pad2)*
X68580000Y-129540000D03*
G04 #@! TD*
G04 #@! TO.P,U172,2*
G04 #@! TO.N,Net-(U172-Pad2)*
X66040000Y-132080000D03*
G04 #@! TD*
G04 #@! TO.P,U160,2*
G04 #@! TO.N,Net-(U160-Pad2)*
X63500000Y-101600000D03*
G04 #@! TD*
G04 #@! TO.P,U170,2*
G04 #@! TO.N,Net-(U170-Pad2)*
X63500000Y-139700000D03*
G04 #@! TD*
G04 #@! TO.P,U180,2*
G04 #@! TO.N,Net-(U180-Pad2)*
X58420000Y-81280000D03*
G04 #@! TD*
G04 #@! TO.P,U168,2*
G04 #@! TO.N,Net-(U168-Pad2)*
X58420000Y-124460000D03*
G04 #@! TD*
G04 #@! TO.P,U167,2*
G04 #@! TO.N,Net-(U167-Pad2)*
X60960000Y-101600000D03*
G04 #@! TD*
G04 #@! TO.P,U166,2*
G04 #@! TO.N,Net-(U166-Pad2)*
X53340000Y-96520000D03*
G04 #@! TD*
G04 #@! TO.P,U165,2*
G04 #@! TO.N,Net-(U165-Pad2)*
X53340000Y-137160000D03*
G04 #@! TD*
G04 #@! TO.P,U164,2*
G04 #@! TO.N,Net-(U164-Pad2)*
X50800000Y-106680000D03*
G04 #@! TD*
G04 #@! TO.P,U163,2*
G04 #@! TO.N,Net-(U163-Pad2)*
X71120000Y-91440000D03*
G04 #@! TD*
G04 #@! TO.P,U162,2*
G04 #@! TO.N,Net-(U162-Pad2)*
X71120000Y-121920000D03*
G04 #@! TD*
G04 #@! TO.P,U161,2*
G04 #@! TO.N,Net-(U161-Pad2)*
X66040000Y-83820000D03*
G04 #@! TD*
G04 #@! TO.P,U171,2*
G04 #@! TO.N,Net-(U171-Pad2)*
X66040000Y-137160000D03*
G04 #@! TD*
G04 #@! TO.P,U158,2*
G04 #@! TO.N,Net-(U158-Pad2)*
X63500000Y-96520000D03*
G04 #@! TD*
G04 #@! TO.P,U157,2*
G04 #@! TO.N,Net-(U157-Pad2)*
X60960000Y-119380000D03*
G04 #@! TD*
G04 #@! TO.P,U156,2*
G04 #@! TO.N,Net-(U156-Pad2)*
X58420000Y-91440000D03*
G04 #@! TD*
G04 #@! TO.P,U155,2*
G04 #@! TO.N,Net-(U155-Pad2)*
X58420000Y-139700000D03*
G04 #@! TD*
G04 #@! TO.P,U154,2*
G04 #@! TO.N,Net-(U154-Pad2)*
X55880000Y-111760000D03*
G04 #@! TD*
G04 #@! TO.P,U153,2*
G04 #@! TO.N,Net-(U153-Pad2)*
X53340000Y-119380000D03*
G04 #@! TD*
G04 #@! TO.P,U152,2*
G04 #@! TO.N,Net-(U152-Pad2)*
X50800000Y-101600000D03*
G04 #@! TD*
G04 #@! TO.P,U151,2*
G04 #@! TO.N,Net-(U151-Pad2)*
X50800000Y-104140000D03*
G04 #@! TD*
G04 #@! TO.P,U150,2*
G04 #@! TO.N,Net-(U150-Pad2)*
X48260000Y-132080000D03*
G04 #@! TD*
G04 #@! TO.P,U182,2*
G04 #@! TO.N,Net-(U182-Pad2)*
X71120000Y-129540000D03*
G04 #@! TD*
G04 #@! TO.P,U138,2*
G04 #@! TO.N,Net-(U138-Pad2)*
X68580000Y-127000000D03*
G04 #@! TD*
G04 #@! TO.P,U147,2*
G04 #@! TO.N,Net-(U147-Pad2)*
X66040000Y-101600000D03*
G04 #@! TD*
G04 #@! TO.P,U146,2*
G04 #@! TO.N,Net-(U146-Pad2)*
X63500000Y-91440000D03*
G04 #@! TD*
G04 #@! TO.P,U145,2*
G04 #@! TO.N,Net-(U145-Pad2)*
X60960000Y-81280000D03*
G04 #@! TD*
G04 #@! TO.P,U144,2*
G04 #@! TO.N,Net-(U144-Pad2)*
X58420000Y-88900000D03*
G04 #@! TD*
G04 #@! TO.P,U143,2*
G04 #@! TO.N,Net-(U143-Pad2)*
X55880000Y-88900000D03*
G04 #@! TD*
G04 #@! TO.P,U142,2*
G04 #@! TO.N,Net-(U142-Pad2)*
X55880000Y-132080000D03*
G04 #@! TD*
G04 #@! TO.P,U141,2*
G04 #@! TO.N,Net-(U141-Pad2)*
X53340000Y-88900000D03*
G04 #@! TD*
G04 #@! TO.P,U140,2*
G04 #@! TO.N,Net-(U140-Pad2)*
X53340000Y-134620000D03*
G04 #@! TD*
G04 #@! TO.P,U149,2*
G04 #@! TO.N,Net-(U149-Pad2)*
X50800000Y-124460000D03*
G04 #@! TD*
G04 #@! TO.P,U137,2*
G04 #@! TO.N,Net-(U137-Pad2)*
X71120000Y-101600000D03*
G04 #@! TD*
G04 #@! TO.P,U136,2*
G04 #@! TO.N,Net-(U136-Pad2)*
X71120000Y-109220000D03*
G04 #@! TD*
G04 #@! TO.P,U135,2*
G04 #@! TO.N,Net-(U135-Pad2)*
X68580000Y-137160000D03*
G04 #@! TD*
G04 #@! TO.P,U134,2*
G04 #@! TO.N,Net-(U134-Pad2)*
X66040000Y-106680000D03*
G04 #@! TD*
G04 #@! TO.P,U133,2*
G04 #@! TO.N,Net-(U133-Pad2)*
X63500000Y-119380000D03*
G04 #@! TD*
G04 #@! TO.P,U132,2*
G04 #@! TO.N,Net-(U132-Pad2)*
X60960000Y-93980000D03*
G04 #@! TD*
G04 #@! TO.P,U131,2*
G04 #@! TO.N,Net-(U131-Pad2)*
X58420000Y-106680000D03*
G04 #@! TD*
G04 #@! TO.P,U130,2*
G04 #@! TO.N,Net-(U130-Pad2)*
X55880000Y-86360000D03*
G04 #@! TD*
G04 #@! TO.P,U129,2*
G04 #@! TO.N,Net-(U129-Pad2)*
X55880000Y-101600000D03*
G04 #@! TD*
G04 #@! TO.P,U148,2*
G04 #@! TO.N,Net-(U148-Pad2)*
X53340000Y-86360000D03*
G04 #@! TD*
G04 #@! TO.P,U139,2*
G04 #@! TO.N,Net-(U139-Pad2)*
X50800000Y-88900000D03*
G04 #@! TD*
G04 #@! TO.P,U126,2*
G04 #@! TO.N,Net-(U126-Pad2)*
X50800000Y-119380000D03*
G04 #@! TD*
G04 #@! TO.P,U125,2*
G04 #@! TO.N,Net-(U125-Pad2)*
X71120000Y-93980000D03*
G04 #@! TD*
G04 #@! TO.P,U124,2*
G04 #@! TO.N,Net-(U124-Pad2)*
X71120000Y-114300000D03*
G04 #@! TD*
G04 #@! TO.P,U123,2*
G04 #@! TO.N,Net-(U123-Pad2)*
X68580000Y-114300000D03*
G04 #@! TD*
G04 #@! TO.P,U122,2*
G04 #@! TO.N,Net-(U122-Pad2)*
X66040000Y-129540000D03*
G04 #@! TD*
G04 #@! TO.P,U121,2*
G04 #@! TO.N,Net-(U121-Pad2)*
X63500000Y-104140000D03*
G04 #@! TD*
G04 #@! TO.P,U120,2*
G04 #@! TO.N,Net-(U120-Pad2)*
X60960000Y-88900000D03*
G04 #@! TD*
G04 #@! TO.P,U119,2*
G04 #@! TO.N,Net-(U119-Pad2)*
X60960000Y-129540000D03*
G04 #@! TD*
G04 #@! TO.P,U118,2*
G04 #@! TO.N,Net-(U118-Pad2)*
X58420000Y-114300000D03*
G04 #@! TD*
G04 #@! TO.P,U128,2*
G04 #@! TO.N,Net-(U128-Pad2)*
X55880000Y-134620000D03*
G04 #@! TD*
G04 #@! TO.P,U107,2*
G04 #@! TO.N,Net-(U107-Pad2)*
X53340000Y-101600000D03*
G04 #@! TD*
G04 #@! TO.P,U116,2*
G04 #@! TO.N,Net-(U116-Pad2)*
X50800000Y-93980000D03*
G04 #@! TD*
G04 #@! TO.P,U115,2*
G04 #@! TO.N,Net-(U115-Pad2)*
X50800000Y-132080000D03*
G04 #@! TD*
G04 #@! TO.P,U114,2*
G04 #@! TO.N,Net-(U114-Pad2)*
X71120000Y-83820000D03*
G04 #@! TD*
G04 #@! TO.P,U113,2*
G04 #@! TO.N,Net-(U113-Pad2)*
X68580000Y-88900000D03*
G04 #@! TD*
G04 #@! TO.P,U112,2*
G04 #@! TO.N,Net-(U112-Pad2)*
X68580000Y-124460000D03*
G04 #@! TD*
G04 #@! TO.P,U111,2*
G04 #@! TO.N,Net-(U111-Pad2)*
X66040000Y-104140000D03*
G04 #@! TD*
G04 #@! TO.P,U110,2*
G04 #@! TO.N,Net-(U110-Pad2)*
X63500000Y-93980000D03*
G04 #@! TD*
G04 #@! TO.P,U109,2*
G04 #@! TO.N,Net-(U109-Pad2)*
X60960000Y-111760000D03*
G04 #@! TD*
G04 #@! TO.P,U117,2*
G04 #@! TO.N,Net-(U117-Pad2)*
X58420000Y-93980000D03*
G04 #@! TD*
G04 #@! TO.P,U159,2*
G04 #@! TO.N,Net-(U159-Pad2)*
X55880000Y-83820000D03*
G04 #@! TD*
G04 #@! TO.P,U106,2*
G04 #@! TO.N,Net-(U106-Pad2)*
X48260000Y-109220000D03*
G04 #@! TD*
G04 #@! TO.P,U105,2*
G04 #@! TO.N,Net-(U105-Pad2)*
X53340000Y-83820000D03*
G04 #@! TD*
G04 #@! TO.P,U104,2*
G04 #@! TO.N,Net-(U104-Pad2)*
X50800000Y-86360000D03*
G04 #@! TD*
G04 #@! TO.P,U103,2*
G04 #@! TO.N,Net-(U103-Pad2)*
X50800000Y-134620000D03*
G04 #@! TD*
G04 #@! TO.P,U102,2*
G04 #@! TO.N,Net-(U102-Pad2)*
X48260000Y-116840000D03*
G04 #@! TD*
G04 #@! TO.P,U101,2*
G04 #@! TO.N,Net-(U101-Pad2)*
X71120000Y-139700000D03*
G04 #@! TD*
G04 #@! TO.P,U100,2*
G04 #@! TO.N,Net-(U100-Pad2)*
X66040000Y-81280000D03*
G04 #@! TD*
G04 #@! TO.P,U99,2*
G04 #@! TO.N,Net-(U99-Pad2)*
X66040000Y-127000000D03*
G04 #@! TD*
G04 #@! TO.P,U108,2*
G04 #@! TO.N,Net-(U108-Pad2)*
X63500000Y-86360000D03*
G04 #@! TD*
G04 #@! TO.P,U86,2*
G04 #@! TO.N,Net-(U86-Pad2)*
X60960000Y-114300000D03*
G04 #@! TD*
G04 #@! TO.P,U96,2*
G04 #@! TO.N,Net-(U96-Pad2)*
X60960000Y-139700000D03*
G04 #@! TD*
G04 #@! TO.P,U95,2*
G04 #@! TO.N,Net-(U95-Pad2)*
X55880000Y-81280000D03*
G04 #@! TD*
G04 #@! TO.P,U94,2*
G04 #@! TO.N,Net-(U94-Pad2)*
X55880000Y-139700000D03*
G04 #@! TD*
G04 #@! TO.P,U93,2*
G04 #@! TO.N,Net-(U93-Pad2)*
X53340000Y-109220000D03*
G04 #@! TD*
G04 #@! TO.P,U92,2*
G04 #@! TO.N,Net-(U92-Pad2)*
X53340000Y-129540000D03*
G04 #@! TD*
G04 #@! TO.P,U91,2*
G04 #@! TO.N,Net-(U91-Pad2)*
X50800000Y-129540000D03*
G04 #@! TD*
G04 #@! TO.P,U90,2*
G04 #@! TO.N,Net-(U90-Pad2)*
X71120000Y-99060000D03*
G04 #@! TD*
G04 #@! TO.P,U89,2*
G04 #@! TO.N,Net-(U89-Pad2)*
X71120000Y-111760000D03*
G04 #@! TD*
G04 #@! TO.P,U77,2*
G04 #@! TO.N,Net-(U77-Pad2)*
X68580000Y-119380000D03*
G04 #@! TD*
G04 #@! TO.P,U87,2*
G04 #@! TO.N,Net-(U87-Pad2)*
X66040000Y-99060000D03*
G04 #@! TD*
G04 #@! TO.P,U97,2*
G04 #@! TO.N,Net-(U97-Pad2)*
X63500000Y-83820000D03*
G04 #@! TD*
G04 #@! TO.P,U85,2*
G04 #@! TO.N,Net-(U85-Pad2)*
X60960000Y-106680000D03*
G04 #@! TD*
G04 #@! TO.P,U84,2*
G04 #@! TO.N,Net-(U84-Pad2)*
X58420000Y-99060000D03*
G04 #@! TD*
G04 #@! TO.P,U83,2*
G04 #@! TO.N,Net-(U83-Pad2)*
X55880000Y-91440000D03*
G04 #@! TD*
G04 #@! TO.P,U82,2*
G04 #@! TO.N,Net-(U82-Pad2)*
X55880000Y-137160000D03*
G04 #@! TD*
G04 #@! TO.P,U81,2*
G04 #@! TO.N,Net-(U81-Pad2)*
X53340000Y-111760000D03*
G04 #@! TD*
G04 #@! TO.P,U80,2*
G04 #@! TO.N,Net-(U80-Pad2)*
X50800000Y-81280000D03*
G04 #@! TD*
G04 #@! TO.P,U79,2*
G04 #@! TO.N,Net-(U79-Pad2)*
X53340000Y-81280000D03*
G04 #@! TD*
G04 #@! TO.P,U78,2*
G04 #@! TO.N,Net-(U78-Pad2)*
X48260000Y-124460000D03*
G04 #@! TD*
G04 #@! TO.P,U88,2*
G04 #@! TO.N,Net-(U88-Pad2)*
X71120000Y-106680000D03*
G04 #@! TD*
G04 #@! TO.P,U66,2*
G04 #@! TO.N,Net-(U66-Pad2)*
X68580000Y-101600000D03*
G04 #@! TD*
G04 #@! TO.P,U76,2*
G04 #@! TO.N,Net-(U76-Pad2)*
X66040000Y-93980000D03*
G04 #@! TD*
G04 #@! TO.P,U74,2*
G04 #@! TO.N,Net-(U74-Pad2)*
X63500000Y-109220000D03*
G04 #@! TD*
G04 #@! TO.P,U73,2*
G04 #@! TO.N,Net-(U73-Pad2)*
X60960000Y-86360000D03*
G04 #@! TD*
G04 #@! TO.P,U72,2*
G04 #@! TO.N,Net-(U72-Pad2)*
X60960000Y-137160000D03*
G04 #@! TD*
G04 #@! TO.P,U71,2*
G04 #@! TO.N,Net-(U71-Pad2)*
X55880000Y-93980000D03*
G04 #@! TD*
G04 #@! TO.P,U70,2*
G04 #@! TO.N,Net-(U70-Pad2)*
X55880000Y-121920000D03*
G04 #@! TD*
G04 #@! TO.P,U69,2*
G04 #@! TO.N,Net-(U69-Pad2)*
X53340000Y-99060000D03*
G04 #@! TD*
G04 #@! TO.P,U68,2*
G04 #@! TO.N,Net-(U68-Pad2)*
X55880000Y-96520000D03*
G04 #@! TD*
G04 #@! TO.P,U35,2*
G04 #@! TO.N,Net-(U35-Pad2)*
X50800000Y-109220000D03*
G04 #@! TD*
G04 #@! TO.P,U65,2*
G04 #@! TO.N,Net-(U65-Pad2)*
X71120000Y-81280000D03*
G04 #@! TD*
G04 #@! TO.P,U64,2*
G04 #@! TO.N,Net-(U64-Pad2)*
X71120000Y-124460000D03*
G04 #@! TD*
G04 #@! TO.P,U63,2*
G04 #@! TO.N,Net-(U63-Pad2)*
X68580000Y-109220000D03*
G04 #@! TD*
G04 #@! TO.P,U62,2*
G04 #@! TO.N,Net-(U62-Pad2)*
X66040000Y-96520000D03*
G04 #@! TD*
G04 #@! TO.P,U61,2*
G04 #@! TO.N,Net-(U61-Pad2)*
X63500000Y-132080000D03*
G04 #@! TD*
G04 #@! TO.P,U60,2*
G04 #@! TO.N,Net-(U60-Pad2)*
X48260000Y-81280000D03*
G04 #@! TD*
G04 #@! TO.P,U59,2*
G04 #@! TO.N,Net-(U59-Pad2)*
X58420000Y-109220000D03*
G04 #@! TD*
G04 #@! TO.P,U58,2*
G04 #@! TO.N,Net-(U58-Pad2)*
X58420000Y-134620000D03*
G04 #@! TD*
G04 #@! TO.P,U67,2*
G04 #@! TO.N,Net-(U67-Pad2)*
X55880000Y-127000000D03*
G04 #@! TD*
G04 #@! TO.P,U45,2*
G04 #@! TO.N,Net-(U45-Pad2)*
X58420000Y-111760000D03*
G04 #@! TD*
G04 #@! TO.P,U55,2*
G04 #@! TO.N,Net-(U55-Pad2)*
X50800000Y-96520000D03*
G04 #@! TD*
G04 #@! TO.P,U54,2*
G04 #@! TO.N,Net-(U54-Pad2)*
X48260000Y-129540000D03*
G04 #@! TD*
G04 #@! TO.P,U53,2*
G04 #@! TO.N,Net-(U53-Pad2)*
X71120000Y-137160000D03*
G04 #@! TD*
G04 #@! TO.P,U52,2*
G04 #@! TO.N,Net-(U52-Pad2)*
X68580000Y-116840000D03*
G04 #@! TD*
G04 #@! TO.P,U51,2*
G04 #@! TO.N,Net-(U51-Pad2)*
X66040000Y-114300000D03*
G04 #@! TD*
G04 #@! TO.P,U50,2*
G04 #@! TO.N,Net-(U50-Pad2)*
X63500000Y-121920000D03*
G04 #@! TD*
G04 #@! TO.P,U49,2*
G04 #@! TO.N,Net-(U49-Pad2)*
X60960000Y-109220000D03*
G04 #@! TD*
G04 #@! TO.P,U48,2*
G04 #@! TO.N,Net-(U48-Pad2)*
X58420000Y-83820000D03*
G04 #@! TD*
G04 #@! TO.P,U36,2*
G04 #@! TO.N,Net-(U36-Pad2)*
X58420000Y-116840000D03*
G04 #@! TD*
G04 #@! TO.P,U46,2*
G04 #@! TO.N,Net-(U46-Pad2)*
X60960000Y-124460000D03*
G04 #@! TD*
G04 #@! TO.P,U56,2*
G04 #@! TO.N,Net-(U56-Pad2)*
X55880000Y-116840000D03*
G04 #@! TD*
G04 #@! TO.P,U44,2*
G04 #@! TO.N,Net-(U44-Pad2)*
X48260000Y-127000000D03*
G04 #@! TD*
G04 #@! TO.P,U43,2*
G04 #@! TO.N,Net-(U43-Pad2)*
X68580000Y-86360000D03*
G04 #@! TD*
G04 #@! TO.P,U42,2*
G04 #@! TO.N,Net-(U42-Pad2)*
X68580000Y-104140000D03*
G04 #@! TD*
G04 #@! TO.P,U41,2*
G04 #@! TO.N,Net-(U41-Pad2)*
X66040000Y-116840000D03*
G04 #@! TD*
G04 #@! TO.P,U40,2*
G04 #@! TO.N,Net-(U40-Pad2)*
X63500000Y-106680000D03*
G04 #@! TD*
G04 #@! TO.P,U39,2*
G04 #@! TO.N,Net-(U39-Pad2)*
X60960000Y-83820000D03*
G04 #@! TD*
G04 #@! TO.P,U38,2*
G04 #@! TO.N,Net-(U38-Pad2)*
X60960000Y-132080000D03*
G04 #@! TD*
G04 #@! TO.P,U37,2*
G04 #@! TO.N,Net-(U37-Pad2)*
X63500000Y-134620000D03*
G04 #@! TD*
G04 #@! TO.P,U47,2*
G04 #@! TO.N,Net-(U47-Pad2)*
X48260000Y-106680000D03*
G04 #@! TD*
G04 #@! TO.P,U25,2*
G04 #@! TO.N,Net-(U25-Pad2)*
X48260000Y-119380000D03*
G04 #@! TD*
G04 #@! TO.P,U34,2*
G04 #@! TO.N,Net-(U34-Pad2)*
X71120000Y-116840000D03*
G04 #@! TD*
G04 #@! TO.P,U33,2*
G04 #@! TO.N,Net-(U33-Pad2)*
X68580000Y-121920000D03*
G04 #@! TD*
G04 #@! TO.P,U32,2*
G04 #@! TO.N,Net-(U32-Pad2)*
X66040000Y-111760000D03*
G04 #@! TD*
G04 #@! TO.P,U31,2*
G04 #@! TO.N,Net-(U31-Pad2)*
X63500000Y-116840000D03*
G04 #@! TD*
G04 #@! TO.P,U30,2*
G04 #@! TO.N,Net-(U30-Pad2)*
X60960000Y-104140000D03*
G04 #@! TD*
G04 #@! TO.P,U29,2*
G04 #@! TO.N,Net-(U29-Pad2)*
X63500000Y-81280000D03*
G04 #@! TD*
G04 #@! TO.P,U28,2*
G04 #@! TO.N,Net-(U28-Pad2)*
X48260000Y-104140000D03*
G04 #@! TD*
G04 #@! TO.P,U27,2*
G04 #@! TO.N,Net-(U27-Pad2)*
X71120000Y-88900000D03*
G04 #@! TD*
G04 #@! TO.P,U57,2*
G04 #@! TO.N,Net-(U57-Pad2)*
X71120000Y-134620000D03*
G04 #@! TD*
G04 #@! TO.P,U24,2*
G04 #@! TO.N,Net-(U24-Pad2)*
X68580000Y-132080000D03*
G04 #@! TD*
G04 #@! TO.P,U23,2*
G04 #@! TO.N,Net-(U23-Pad2)*
X66040000Y-134620000D03*
G04 #@! TD*
G04 #@! TO.P,U22,2*
G04 #@! TO.N,Net-(U22-Pad2)*
X63500000Y-111760000D03*
G04 #@! TD*
G04 #@! TO.P,U21,2*
G04 #@! TO.N,Net-(U21-Pad2)*
X66040000Y-88900000D03*
G04 #@! TD*
G04 #@! TO.P,U20,2*
G04 #@! TO.N,Net-(U20-Pad2)*
X48260000Y-101600000D03*
G04 #@! TD*
G04 #@! TO.P,U19,2*
G04 #@! TO.N,Net-(U19-Pad2)*
X48260000Y-121920000D03*
G04 #@! TD*
G04 #@! TO.P,U18,2*
G04 #@! TO.N,Net-(U18-Pad2)*
X71120000Y-127000000D03*
G04 #@! TD*
G04 #@! TO.P,U17,2*
G04 #@! TO.N,Net-(U17-Pad2)*
X68580000Y-139700000D03*
G04 #@! TD*
G04 #@! TO.P,U16,2*
G04 #@! TO.N,Net-(U16-Pad2)*
X66040000Y-121920000D03*
G04 #@! TD*
G04 #@! TO.P,U26,2*
G04 #@! TO.N,Net-(U26-Pad2)*
X68580000Y-96520000D03*
G04 #@! TD*
G04 #@! TO.P,U4,2*
G04 #@! TO.N,Net-(U4-Pad2)*
X48260000Y-99060000D03*
G04 #@! TD*
G04 #@! TO.P,U14,2*
G04 #@! TO.N,Net-(U14-Pad2)*
X48260000Y-137160000D03*
G04 #@! TD*
G04 #@! TO.P,U13,2*
G04 #@! TO.N,Net-(U13-Pad2)*
X71120000Y-119380000D03*
G04 #@! TD*
G04 #@! TO.P,U12,2*
G04 #@! TO.N,Net-(U12-Pad2)*
X68580000Y-111760000D03*
G04 #@! TD*
G04 #@! TO.P,U11,2*
G04 #@! TO.N,Net-(U11-Pad2)*
X71120000Y-104140000D03*
G04 #@! TD*
G04 #@! TO.P,U10,2*
G04 #@! TO.N,Net-(U10-Pad2)*
X48260000Y-96520000D03*
G04 #@! TD*
G04 #@! TO.P,U9,2*
G04 #@! TO.N,Net-(U9-Pad2)*
X71120000Y-96520000D03*
G04 #@! TD*
G04 #@! TO.P,U8,2*
G04 #@! TO.N,Net-(U8-Pad2)*
X68580000Y-81280000D03*
G04 #@! TD*
G04 #@! TO.P,U7,2*
G04 #@! TO.N,Net-(U7-Pad2)*
X48260000Y-114300000D03*
G04 #@! TD*
G04 #@! TO.P,U5,2*
G04 #@! TO.N,Net-(U5-Pad2)*
X48260000Y-93980000D03*
G04 #@! TD*
G04 #@! TO.P,U15,2*
G04 #@! TO.N,Net-(U15-Pad2)*
X48260000Y-86360000D03*
G04 #@! TD*
G04 #@! TO.P,U3,2*
G04 #@! TO.N,Net-(U3-Pad2)*
X48260000Y-111760000D03*
G04 #@! TD*
G04 #@! TO.P,U2,2*
G04 #@! TO.N,Net-(U2-Pad2)*
X48260000Y-91440000D03*
G04 #@! TD*
G04 #@! TO.P,U1,2*
G04 #@! TO.N,Net-(U1-Pad2)*
X48260000Y-83820000D03*
G04 #@! TD*
G04 #@! TO.P,U6,2*
G04 #@! TO.N,Net-(U6-Pad2)*
X48260000Y-88900000D03*
G04 #@! TD*
G04 #@! TO.P,U127,2*
G04 #@! TO.N,Net-(U127-Pad2)*
X60960000Y-99060000D03*
G04 #@! TD*
D11*
G04 #@! TO.P,J2,20*
G04 #@! TO.N,Net-(J2-Pad20)*
X73660000Y-73660000D03*
G04 #@! TO.P,J2,19*
G04 #@! TO.N,Net-(J2-Pad19)*
X73660000Y-76200000D03*
G04 #@! TO.P,J2,18*
G04 #@! TO.N,Net-(J2-Pad18)*
X71120000Y-73660000D03*
G04 #@! TO.P,J2,17*
G04 #@! TO.N,Net-(J2-Pad17)*
X71120000Y-76200000D03*
G04 #@! TO.P,J2,16*
G04 #@! TO.N,Net-(J2-Pad16)*
X68580000Y-73660000D03*
G04 #@! TO.P,J2,15*
G04 #@! TO.N,Net-(J2-Pad15)*
X68580000Y-76200000D03*
G04 #@! TO.P,J2,14*
G04 #@! TO.N,Net-(J2-Pad14)*
X66040000Y-73660000D03*
G04 #@! TO.P,J2,13*
G04 #@! TO.N,Net-(J2-Pad13)*
X66040000Y-76200000D03*
G04 #@! TO.P,J2,12*
G04 #@! TO.N,Net-(J2-Pad12)*
X63500000Y-73660000D03*
G04 #@! TO.P,J2,11*
G04 #@! TO.N,Net-(J2-Pad11)*
X63500000Y-76200000D03*
G04 #@! TO.P,J2,10*
G04 #@! TO.N,Net-(J2-Pad10)*
X60960000Y-73660000D03*
G04 #@! TO.P,J2,9*
G04 #@! TO.N,Net-(J2-Pad9)*
X60960000Y-76200000D03*
G04 #@! TO.P,J2,8*
G04 #@! TO.N,Net-(J2-Pad8)*
X58420000Y-73660000D03*
G04 #@! TO.P,J2,7*
G04 #@! TO.N,Net-(J2-Pad7)*
X58420000Y-76200000D03*
G04 #@! TO.P,J2,6*
G04 #@! TO.N,Net-(J2-Pad6)*
X55880000Y-73660000D03*
G04 #@! TO.P,J2,5*
G04 #@! TO.N,Net-(J2-Pad5)*
X55880000Y-76200000D03*
G04 #@! TO.P,J2,4*
G04 #@! TO.N,Net-(J2-Pad4)*
X53340000Y-73660000D03*
G04 #@! TO.P,J2,3*
G04 #@! TO.N,Net-(J2-Pad3)*
X53340000Y-76200000D03*
G04 #@! TO.P,J2,2*
G04 #@! TO.N,Net-(J2-Pad2)*
X50800000Y-73660000D03*
D12*
G04 #@! TO.P,J2,1*
G04 #@! TO.N,Net-(J2-Pad1)*
X50800000Y-76200000D03*
G04 #@! TD*
D11*
G04 #@! TO.P,J1,20*
G04 #@! TO.N,VDDA*
X73660000Y-152400000D03*
G04 #@! TO.P,J1,19*
G04 #@! TO.N,GNDA*
X73660000Y-154940000D03*
G04 #@! TO.P,J1,18*
G04 #@! TO.N,VDD*
X71120000Y-152400000D03*
G04 #@! TO.P,J1,17*
G04 #@! TO.N,GND*
X71120000Y-154940000D03*
G04 #@! TO.P,J1,16*
G04 #@! TO.N,/D14*
X68580000Y-152400000D03*
G04 #@! TO.P,J1,15*
G04 #@! TO.N,/D15*
X68580000Y-154940000D03*
G04 #@! TO.P,J1,14*
G04 #@! TO.N,/D12*
X66040000Y-152400000D03*
G04 #@! TO.P,J1,13*
G04 #@! TO.N,/D13*
X66040000Y-154940000D03*
G04 #@! TO.P,J1,12*
G04 #@! TO.N,/D10*
X63500000Y-152400000D03*
G04 #@! TO.P,J1,11*
G04 #@! TO.N,/D11*
X63500000Y-154940000D03*
G04 #@! TO.P,J1,10*
G04 #@! TO.N,/D8*
X60960000Y-152400000D03*
G04 #@! TO.P,J1,9*
G04 #@! TO.N,/D9*
X60960000Y-154940000D03*
G04 #@! TO.P,J1,8*
G04 #@! TO.N,/D6*
X58420000Y-152400000D03*
G04 #@! TO.P,J1,7*
G04 #@! TO.N,/D7*
X58420000Y-154940000D03*
G04 #@! TO.P,J1,6*
G04 #@! TO.N,/D4*
X55880000Y-152400000D03*
G04 #@! TO.P,J1,5*
G04 #@! TO.N,/D5*
X55880000Y-154940000D03*
G04 #@! TO.P,J1,4*
G04 #@! TO.N,/D2*
X53340000Y-152400000D03*
G04 #@! TO.P,J1,3*
G04 #@! TO.N,/D3*
X53340000Y-154940000D03*
G04 #@! TO.P,J1,2*
G04 #@! TO.N,/D0*
X50800000Y-152400000D03*
D12*
G04 #@! TO.P,J1,1*
G04 #@! TO.N,/D1*
X50800000Y-154940000D03*
G04 #@! TD*
D13*
G04 #@! TO.N,GNDA*
X73660000Y-160020000D02*
X73660000Y-154940000D01*
X76200000Y-153602081D02*
X76200000Y-81280000D01*
X73660000Y-154940000D02*
X74862081Y-154940000D01*
X74862081Y-154940000D02*
X76200000Y-153602081D01*
G04 #@! TO.N,GND*
X71120000Y-154940000D02*
X71120000Y-160020000D01*
G04 #@! TO.N,VDDA*
X73660000Y-152400000D02*
X73660000Y-81280000D01*
G04 #@! TO.N,VDD*
X71120000Y-147320000D02*
X71120000Y-152400000D01*
G04 #@! TO.N,/D0*
X50800000Y-147320000D02*
X50800000Y-152400000D01*
G04 #@! TO.N,/D1*
X50800000Y-154940000D02*
X50800000Y-160020000D01*
G04 #@! TO.N,/D2*
X53340000Y-152400000D02*
X53340000Y-147320000D01*
G04 #@! TO.N,/D3*
X53340000Y-160020000D02*
X53340000Y-154940000D01*
G04 #@! TO.N,/D4*
X55880000Y-147320000D02*
X55880000Y-152400000D01*
G04 #@! TO.N,/D8*
X60960000Y-147320000D02*
X60960000Y-152400000D01*
G04 #@! TO.N,/D5*
X55880000Y-154940000D02*
X55880000Y-160020000D01*
G04 #@! TO.N,/D6*
X58420000Y-152400000D02*
X58420000Y-147320000D01*
G04 #@! TO.N,/D7*
X58420000Y-160020000D02*
X58420000Y-154940000D01*
G04 #@! TO.N,/D11*
X63500000Y-160020000D02*
X63500000Y-154940000D01*
G04 #@! TO.N,/D9*
X60960000Y-154940000D02*
X60960000Y-160020000D01*
G04 #@! TO.N,/D10*
X63500000Y-152400000D02*
X63500000Y-147320000D01*
G04 #@! TO.N,/D12*
X66040000Y-147320000D02*
X66040000Y-152400000D01*
G04 #@! TO.N,/D13*
X66040000Y-154940000D02*
X66040000Y-160020000D01*
G04 #@! TO.N,/D14*
X68580000Y-152400000D02*
X68580000Y-147320000D01*
G04 #@! TO.N,/D15*
X68580000Y-154940000D02*
X68580000Y-160020000D01*
G04 #@! TD*
M02*
