M48
; DRILL file {KiCad 9.99.0-unknown-d5f02ba7bc~182~ubuntu22.04.1} date 2025-03-17T15:10:38+0100
; FORMAT={-:-/ absolute / metric / decimal}
; #@! TF.CreationDate,2025-03-17T15:10:38+01:00
; #@! TF.GenerationSoftware,Kicad,Pcbnew,9.99.0-unknown-d5f02ba7bc~182~ubuntu22.04.1
; #@! TF.FileFunction,Plated,1,2,PTH
FMAT,2
METRIC
; #@! TA.AperFunction,Plated,PTH,ViaDrill
T1C0.300
; #@! TA.AperFunction,Plated,PTH,ComponentDrill
T2C1.000
%
G90
G05
T1
X77.216Y-124.46
X77.216Y-126.492
X77.216Y-128.524
X77.216Y-130.556
X77.216Y-132.588
X77.216Y-134.62
X77.216Y-136.652
X77.216Y-138.684
X77.216Y-140.716
X77.216Y-142.748
X77.216Y-144.78
X77.216Y-146.812
X77.216Y-148.844
X79.248Y-124.46
X79.502Y-151.384
X81.28Y-124.46
X81.534Y-151.384
X83.312Y-124.46
X83.566Y-151.384
X83.81Y-131.88
X83.81Y-132.68
X83.81Y-133.48
X84.01Y-128.92
X84.08Y-135.32
X84.58Y-140.62
X85.344Y-124.46
X85.38Y-136.52
X85.46Y-133.93
X85.471Y-128.905
X85.598Y-151.384
X86.359Y-126.804
X86.38Y-130.12
X86.38Y-132.72
X87.376Y-124.46
X87.48Y-130.12
X87.61Y-134.88
X87.63Y-151.384
X88.21Y-127.93
X88.98Y-132.72
X89.03Y-130.07
X89.408Y-124.46
X89.48Y-134.92
X89.58Y-136.52
X89.662Y-151.384
X90.68Y-140.92
X90.681Y-134.246
X91.44Y-124.46
X91.694Y-151.384
X93.472Y-124.46
X93.726Y-151.384
X93.88Y-130.52
X93.88Y-140.92
X94.615Y-138.557
X95.31Y-131.673
X95.504Y-124.46
X95.758Y-151.384
X96.48Y-140.92
X97.58Y-140.92
X97.79Y-151.384
X98.88Y-140.92
X99.822Y-151.384
X100.711Y-118.52
X101.68Y-140.92
X101.854Y-151.384
X104.14Y-124.46
X105.918Y-151.384
X106.172Y-124.46
X108.204Y-124.46
X108.204Y-126.492
X108.204Y-128.524
X108.204Y-130.556
X108.204Y-132.588
X108.204Y-134.62
X108.204Y-136.652
X108.204Y-138.684
X108.204Y-140.716
X108.204Y-142.748
X108.204Y-144.78
X108.204Y-146.812
X108.204Y-148.844
T2
X81.28Y-66.04
X81.28Y-68.58
X81.28Y-144.78
X81.28Y-147.32
X83.82Y-66.04
X83.82Y-68.58
X83.82Y-144.78
X83.82Y-147.32
X86.36Y-66.04
X86.36Y-68.58
X86.36Y-144.78
X86.36Y-147.32
X88.9Y-66.04
X88.9Y-68.58
X88.9Y-144.78
X88.9Y-147.32
X91.44Y-66.04
X91.44Y-68.58
X91.44Y-144.78
X91.44Y-147.32
X93.98Y-66.04
X93.98Y-68.58
X93.98Y-144.78
X93.98Y-147.32
X96.52Y-66.04
X96.52Y-68.58
X96.52Y-144.78
X96.52Y-147.32
X99.06Y-66.04
X99.06Y-68.58
X99.06Y-144.78
X99.06Y-147.32
X101.6Y-66.04
X101.6Y-68.58
X101.6Y-144.78
X101.6Y-147.32
X104.14Y-66.04
X104.14Y-68.58
X104.14Y-144.78
X104.14Y-147.32
M30
