G04 #@! TF.GenerationSoftware,KiCad,Pcbnew,9.99.0-unknown-d5f02ba7bc~182~ubuntu22.04.1*
G04 #@! TF.CreationDate,2025-03-17T15:10:36+01:00*
G04 #@! TF.ProjectId,rfid-reader,72666964-2d72-4656-9164-65722e6b6963,rev?*
G04 #@! TF.SameCoordinates,Original*
G04 #@! TF.FileFunction,Copper,L1,Top*
G04 #@! TF.FilePolarity,Positive*
%FSLAX46Y46*%
G04 Gerber Fmt 4.6, Leading zero omitted, Abs format (unit mm)*
G04 Created by KiCad (PCBNEW 9.99.0-unknown-d5f02ba7bc~182~ubuntu22.04.1) date 2025-03-17 15:10:36*
%MOMM*%
%LPD*%
G01*
G04 APERTURE LIST*
G04 Aperture macros list*
%AMRoundRect*
0 Rectangle with rounded corners*
0 $1 Rounding radius*
0 $2 $3 $4 $5 $6 $7 $8 $9 X,Y pos of 4 corners*
0 Add a 4 corners polygon primitive as box body*
4,1,4,$2,$3,$4,$5,$6,$7,$8,$9,$2,$3,0*
0 Add four circle primitives for the rounded corners*
1,1,$1+$1,$2,$3*
1,1,$1+$1,$4,$5*
1,1,$1+$1,$6,$7*
1,1,$1+$1,$8,$9*
0 Add four rect primitives between the rounded corners*
20,1,$1+$1,$2,$3,$4,$5,0*
20,1,$1+$1,$4,$5,$6,$7,0*
20,1,$1+$1,$6,$7,$8,$9,0*
20,1,$1+$1,$8,$9,$2,$3,0*%
G04 Aperture macros list end*
G04 #@! TA.AperFunction,EtchedComponent*
%ADD10C,0.200000*%
G04 #@! TD*
G04 #@! TA.AperFunction,SMDPad,CuDef*
%ADD11RoundRect,0.225000X0.250000X-0.225000X0.250000X0.225000X-0.250000X0.225000X-0.250000X-0.225000X0*%
G04 #@! TD*
G04 #@! TA.AperFunction,SMDPad,CuDef*
%ADD12RoundRect,0.225000X-0.225000X-0.250000X0.225000X-0.250000X0.225000X0.250000X-0.225000X0.250000X0*%
G04 #@! TD*
G04 #@! TA.AperFunction,SMDPad,CuDef*
%ADD13RoundRect,0.200000X-0.200000X-0.275000X0.200000X-0.275000X0.200000X0.275000X-0.200000X0.275000X0*%
G04 #@! TD*
G04 #@! TA.AperFunction,SMDPad,CuDef*
%ADD14RoundRect,0.225000X0.225000X0.250000X-0.225000X0.250000X-0.225000X-0.250000X0.225000X-0.250000X0*%
G04 #@! TD*
G04 #@! TA.AperFunction,SMDPad,CuDef*
%ADD15C,1.000000*%
G04 #@! TD*
G04 #@! TA.AperFunction,SMDPad,CuDef*
%ADD16RoundRect,0.062500X0.375000X0.062500X-0.375000X0.062500X-0.375000X-0.062500X0.375000X-0.062500X0*%
G04 #@! TD*
G04 #@! TA.AperFunction,SMDPad,CuDef*
%ADD17RoundRect,0.062500X0.062500X0.375000X-0.062500X0.375000X-0.062500X-0.375000X0.062500X-0.375000X0*%
G04 #@! TD*
G04 #@! TA.AperFunction,HeatsinkPad*
%ADD18R,3.450000X3.450000*%
G04 #@! TD*
G04 #@! TA.AperFunction,SMDPad,CuDef*
%ADD19RoundRect,0.030000X0.070000X-0.070000X0.070000X0.070000X-0.070000X0.070000X-0.070000X-0.070000X0*%
G04 #@! TD*
G04 #@! TA.AperFunction,SMDPad,CuDef*
%ADD20RoundRect,0.200000X0.200000X0.275000X-0.200000X0.275000X-0.200000X-0.275000X0.200000X-0.275000X0*%
G04 #@! TD*
G04 #@! TA.AperFunction,SMDPad,CuDef*
%ADD21RoundRect,0.100000X0.400000X-0.400000X0.400000X0.400000X-0.400000X0.400000X-0.400000X-0.400000X0*%
G04 #@! TD*
G04 #@! TA.AperFunction,SMDPad,CuDef*
%ADD22RoundRect,0.105000X0.995000X-0.420000X0.995000X0.420000X-0.995000X0.420000X-0.995000X-0.420000X0*%
G04 #@! TD*
G04 #@! TA.AperFunction,SMDPad,CuDef*
%ADD23RoundRect,0.218750X0.256250X-0.218750X0.256250X0.218750X-0.256250X0.218750X-0.256250X-0.218750X0*%
G04 #@! TD*
G04 #@! TA.AperFunction,SMDPad,CuDef*
%ADD24R,1.400000X1.200000*%
G04 #@! TD*
G04 #@! TA.AperFunction,ComponentPad*
%ADD25R,1.700000X1.700000*%
G04 #@! TD*
G04 #@! TA.AperFunction,ComponentPad*
%ADD26O,1.700000X1.700000*%
G04 #@! TD*
G04 #@! TA.AperFunction,ViaPad*
%ADD27C,0.600000*%
G04 #@! TD*
G04 #@! TA.AperFunction,Conductor*
%ADD28C,0.200000*%
G04 #@! TD*
G04 APERTURE END LIST*
D10*
X77810000Y-91780000D02*
X107610000Y-91780000D01*
X77810000Y-121580000D02*
X77810000Y-91780000D01*
X78410000Y-92380000D02*
X107010000Y-92380000D01*
X78410000Y-120980000D02*
X78410000Y-92380000D01*
X79010000Y-92980000D02*
X106410000Y-92980000D01*
X79010000Y-120380000D02*
X79010000Y-92980000D01*
X79610000Y-93580000D02*
X105810000Y-93580000D01*
X79610000Y-119780000D02*
X79610000Y-93580000D01*
X100710000Y-121580000D02*
X77810000Y-121580000D01*
X105810000Y-93580000D02*
X105810000Y-119180000D01*
X105810000Y-119180000D02*
X100710000Y-119180000D01*
X106410000Y-92980000D02*
X106410000Y-119780000D01*
X106410000Y-119780000D02*
X79610000Y-119780000D01*
X107010000Y-92380000D02*
X107010000Y-120380000D01*
X107010000Y-120380000D02*
X79010000Y-120380000D01*
X107610000Y-91780000D02*
X107610000Y-120980000D01*
X107610000Y-120980000D02*
X78410000Y-120980000D01*
D11*
X102210000Y-127455000D03*
X102210000Y-125905000D03*
X100710000Y-127455000D03*
X100710000Y-125905000D03*
D12*
X91685000Y-134930000D03*
X93235000Y-134930000D03*
D13*
X100635000Y-128930000D03*
X102285000Y-128930000D03*
D14*
X99235000Y-127430000D03*
X97685000Y-127430000D03*
X99235000Y-133430000D03*
X97685000Y-133430000D03*
D11*
X102210000Y-131955000D03*
X102210000Y-130405000D03*
D15*
X86960000Y-135680000D03*
D16*
X90147500Y-133180000D03*
X90147500Y-132680000D03*
X90147500Y-132180000D03*
X90147500Y-131680000D03*
X90147500Y-131180000D03*
X90147500Y-130680000D03*
X90147500Y-130180000D03*
X90147500Y-129680000D03*
D17*
X89460000Y-128992500D03*
X88960000Y-128992500D03*
X88460000Y-128992500D03*
X87960000Y-128992500D03*
X87460000Y-128992500D03*
X86960000Y-128992500D03*
X86460000Y-128992500D03*
X85960000Y-128992500D03*
D16*
X85272500Y-129680000D03*
X85272500Y-130180000D03*
X85272500Y-130680000D03*
X85272500Y-131180000D03*
X85272500Y-131680000D03*
X85272500Y-132180000D03*
X85272500Y-132680000D03*
X85272500Y-133180000D03*
D17*
X85960000Y-133867500D03*
X86460000Y-133867500D03*
X86960000Y-133867500D03*
X87460000Y-133867500D03*
X87960000Y-133867500D03*
X88460000Y-133867500D03*
X88960000Y-133867500D03*
X89460000Y-133867500D03*
D18*
X87710000Y-131430000D03*
D11*
X90210000Y-139430000D03*
X90210000Y-137880000D03*
D14*
X99235000Y-131930000D03*
X97685000Y-131930000D03*
X99235000Y-130430000D03*
X97685000Y-130430000D03*
D19*
X100710000Y-121580000D03*
X100710000Y-119180000D03*
D15*
X100710000Y-122680000D03*
D12*
X91685000Y-137930000D03*
X93235000Y-137930000D03*
D11*
X96210000Y-130455000D03*
X96210000Y-128905000D03*
X85460000Y-127455000D03*
X85460000Y-125905000D03*
D20*
X99285000Y-125930000D03*
X97635000Y-125930000D03*
D11*
X83960000Y-127455000D03*
X83960000Y-125905000D03*
D14*
X99235000Y-128930000D03*
X97685000Y-128930000D03*
D21*
X104315000Y-127430000D03*
D22*
X105815000Y-125955000D03*
D21*
X107315000Y-127430000D03*
D22*
X105815000Y-128905000D03*
D12*
X91685000Y-136430000D03*
X93235000Y-136430000D03*
D11*
X96210000Y-133455000D03*
X96210000Y-131905000D03*
D12*
X91685000Y-133430000D03*
X93235000Y-133430000D03*
D23*
X100710000Y-134967500D03*
X100710000Y-133392500D03*
D11*
X91210000Y-127455000D03*
X91210000Y-125905000D03*
D12*
X91685000Y-139430000D03*
X93235000Y-139430000D03*
D15*
X87960000Y-126680000D03*
D12*
X100685000Y-124430000D03*
X102235000Y-124430000D03*
X97685000Y-134930000D03*
X99235000Y-134930000D03*
D14*
X99235000Y-124430000D03*
X97685000Y-124430000D03*
D11*
X89710000Y-127455000D03*
X89710000Y-125905000D03*
X84210000Y-139455000D03*
X84210000Y-137905000D03*
D12*
X91685000Y-131930000D03*
X93235000Y-131930000D03*
X97685000Y-136430000D03*
X99235000Y-136430000D03*
D24*
X86110000Y-139530000D03*
X88310000Y-139530000D03*
X88310000Y-137830000D03*
X86110000Y-137830000D03*
D23*
X100710000Y-131967500D03*
X100710000Y-130392500D03*
D25*
X81280000Y-147320000D03*
D26*
X81280000Y-144780000D03*
X83820000Y-147320000D03*
X83820000Y-144780000D03*
X86360000Y-147320000D03*
X86360000Y-144780000D03*
X88900000Y-147320000D03*
X88900000Y-144780000D03*
X91440000Y-147320000D03*
X91440000Y-144780000D03*
X93980000Y-147320000D03*
X93980000Y-144780000D03*
X96520000Y-147320000D03*
X96520000Y-144780000D03*
X99060000Y-147320000D03*
X99060000Y-144780000D03*
X101600000Y-147320000D03*
X101600000Y-144780000D03*
X104140000Y-147320000D03*
X104140000Y-144780000D03*
D25*
X81280000Y-68580000D03*
D26*
X81280000Y-66040000D03*
X83820000Y-68580000D03*
X83820000Y-66040000D03*
X86360000Y-68580000D03*
X86360000Y-66040000D03*
X88900000Y-68580000D03*
X88900000Y-66040000D03*
X91440000Y-68580000D03*
X91440000Y-66040000D03*
X93980000Y-68580000D03*
X93980000Y-66040000D03*
X96520000Y-68580000D03*
X96520000Y-66040000D03*
X99060000Y-68580000D03*
X99060000Y-66040000D03*
X101600000Y-68580000D03*
X101600000Y-66040000D03*
X104140000Y-68580000D03*
X104140000Y-66040000D03*
D27*
X90680747Y-134245595D03*
X94615000Y-138557000D03*
X97790000Y-151384000D03*
X108204000Y-130556000D03*
X104140000Y-124460000D03*
X101680000Y-140920000D03*
X77216000Y-146812000D03*
X87630000Y-151384000D03*
X85598000Y-151384000D03*
X95310000Y-131672735D03*
X84010000Y-128920000D03*
X93880000Y-130520000D03*
X85460000Y-133930000D03*
X99822000Y-151384000D03*
X89662000Y-151384000D03*
X108204000Y-142748000D03*
X100711000Y-118520000D03*
X85380000Y-136520000D03*
X108204000Y-124460000D03*
X106172000Y-124460000D03*
X81280000Y-124460000D03*
X108204000Y-134620000D03*
X98880000Y-140920000D03*
X77216000Y-140716000D03*
X86380000Y-132720000D03*
X83312000Y-124460000D03*
X83566000Y-151384000D03*
X77216000Y-134620000D03*
X90680000Y-140920000D03*
X77216000Y-128524000D03*
X81534000Y-151384000D03*
X108204000Y-144780000D03*
X84580000Y-140620000D03*
X77216000Y-142748000D03*
X86380000Y-130120000D03*
X85344000Y-124460000D03*
X77216000Y-124460000D03*
X91694000Y-151384000D03*
X89408000Y-124460000D03*
X108204000Y-136652000D03*
X88980000Y-132720000D03*
X93880000Y-140920000D03*
X96480000Y-140920000D03*
X77216000Y-144780000D03*
X108204000Y-128524000D03*
X87376000Y-124460000D03*
X79502000Y-151384000D03*
X87480000Y-130120000D03*
X95758000Y-151384000D03*
X84080000Y-135320000D03*
X77216000Y-126492000D03*
X93472000Y-124460000D03*
X77216000Y-138684000D03*
X108204000Y-148844000D03*
X108204000Y-140716000D03*
X101854000Y-151384000D03*
X95504000Y-124460000D03*
X105918000Y-151384000D03*
X77216000Y-132588000D03*
X86359000Y-126804000D03*
X89580000Y-136520000D03*
X91440000Y-124460000D03*
X108204000Y-132588000D03*
X108204000Y-146812000D03*
X108204000Y-138684000D03*
X79248000Y-124460000D03*
X89030000Y-130070000D03*
X108204000Y-126492000D03*
X77216000Y-130556000D03*
X77216000Y-136652000D03*
X93726000Y-151384000D03*
X77216000Y-148844000D03*
X89480000Y-134920000D03*
X85471000Y-128905000D03*
X87610000Y-134880000D03*
X83810000Y-131880000D03*
X97580000Y-140920000D03*
X88210000Y-127930000D03*
X83810000Y-133480006D03*
X83810000Y-132680003D03*
D28*
X90867000Y-134112000D02*
X91685000Y-134930000D01*
X90814342Y-134112000D02*
X90867000Y-134112000D01*
X90680747Y-134245595D02*
X90814342Y-134112000D01*
X104140000Y-144780000D02*
X97917000Y-138557000D01*
X90886000Y-134131000D02*
X91685000Y-134930000D01*
X90147500Y-132680000D02*
X90600798Y-132680000D01*
X90886000Y-132965202D02*
X90886000Y-134131000D01*
X90600798Y-132680000D02*
X90886000Y-132965202D01*
X97917000Y-138557000D02*
X94615000Y-138557000D01*
X91685000Y-134930000D02*
X91685000Y-136430000D01*
X88960000Y-128992500D02*
X88960000Y-130180000D01*
X85522500Y-133867500D02*
X85460000Y-133930000D01*
X86359000Y-128178943D02*
X86359000Y-126804000D01*
X86460000Y-128279943D02*
X86359000Y-128178943D01*
X100710000Y-118619000D02*
X100711000Y-118618000D01*
X95542265Y-131905000D02*
X95310000Y-131672735D01*
X84210000Y-137905000D02*
X84210000Y-137690000D01*
X86460000Y-128992500D02*
X86460000Y-130180000D01*
X86460000Y-130180000D02*
X87710000Y-131430000D01*
X90986000Y-140206000D02*
X92459000Y-140206000D01*
X88460000Y-130680000D02*
X87710000Y-131430000D01*
X87960000Y-133867500D02*
X87960000Y-131680000D01*
X92459000Y-140206000D02*
X93235000Y-139430000D01*
X100710000Y-119180000D02*
X100710000Y-118521000D01*
X96210000Y-131905000D02*
X95542265Y-131905000D01*
X87960000Y-133867500D02*
X87960000Y-133930000D01*
X90210000Y-139430000D02*
X90986000Y-140206000D01*
X100710000Y-118521000D02*
X100711000Y-118520000D01*
X90147500Y-130680000D02*
X88460000Y-130680000D01*
X87960000Y-131680000D02*
X87710000Y-131430000D01*
X88960000Y-130180000D02*
X87710000Y-131430000D01*
X86460000Y-128992500D02*
X86460000Y-128279943D01*
X86359000Y-126804000D02*
X85460000Y-125905000D01*
X85960000Y-133867500D02*
X85522500Y-133867500D01*
X84210000Y-137690000D02*
X85380000Y-136520000D01*
X90147500Y-132180000D02*
X91435000Y-132180000D01*
X91435000Y-132180000D02*
X91685000Y-131930000D01*
X90147500Y-131680000D02*
X91435000Y-131680000D01*
X91435000Y-131680000D02*
X91685000Y-131930000D01*
X91685000Y-133430000D02*
X91685000Y-131930000D01*
X85960000Y-128992500D02*
X85960000Y-128347043D01*
X83960000Y-127455000D02*
X85460000Y-127455000D01*
X89460000Y-134900000D02*
X89480000Y-134920000D01*
X89460000Y-134799000D02*
X89460000Y-134900000D01*
X85958000Y-127953000D02*
X85460000Y-127455000D01*
X85872500Y-128905000D02*
X85960000Y-128992500D01*
X85958000Y-128012843D02*
X85958000Y-127953000D01*
X85471000Y-128905000D02*
X85872500Y-128905000D01*
X85958000Y-128345043D02*
X85958000Y-128012843D01*
X89460000Y-133867500D02*
X89460000Y-134799000D01*
X85960000Y-128347043D02*
X85958000Y-128345043D01*
X96210000Y-130455000D02*
X94747500Y-128992500D01*
X96235000Y-130430000D02*
X96210000Y-130455000D01*
X94747500Y-128992500D02*
X89460000Y-128992500D01*
X97685000Y-130430000D02*
X96235000Y-130430000D01*
X88460000Y-128992500D02*
X88460000Y-128539202D01*
X88460000Y-128539202D02*
X89544202Y-127455000D01*
X89710000Y-127455000D02*
X91210000Y-127455000D01*
X89544202Y-127455000D02*
X89710000Y-127455000D01*
X94309000Y-132121100D02*
X94309000Y-131788900D01*
X97685000Y-134930000D02*
X96459890Y-134930000D01*
X95434000Y-133904110D02*
X95210000Y-133680110D01*
X94543900Y-132356000D02*
X94309000Y-132121100D01*
X95735890Y-134206000D02*
X95434000Y-133904110D01*
X93960000Y-131154000D02*
X90173500Y-131154000D01*
X90173500Y-131154000D02*
X90147500Y-131180000D01*
X95210000Y-133680110D02*
X95210000Y-133022100D01*
X94309000Y-131503000D02*
X93960000Y-131154000D01*
X95210000Y-133022100D02*
X94543900Y-132356000D01*
X94309000Y-131788900D02*
X94309000Y-131503000D01*
X97685000Y-136430000D02*
X97685000Y-134930000D01*
X96459890Y-134930000D02*
X95735890Y-134206000D01*
X90022500Y-133305000D02*
X90022500Y-134627557D01*
X90147500Y-133180000D02*
X90022500Y-133305000D01*
X91235890Y-137206000D02*
X91685000Y-137206000D01*
X91685000Y-137930000D02*
X91685000Y-139430000D01*
X90880000Y-135485057D02*
X90880000Y-136850110D01*
X91685000Y-137206000D02*
X91685000Y-137930000D01*
X90880000Y-136850110D02*
X91235890Y-137206000D01*
X90022500Y-134627557D02*
X90880000Y-135485057D01*
X94710000Y-130430000D02*
X93960000Y-129680000D01*
X94710000Y-131955000D02*
X94710000Y-130430000D01*
X96235000Y-133430000D02*
X96210000Y-133455000D01*
X93960000Y-129680000D02*
X90147500Y-129680000D01*
X96210000Y-133455000D02*
X94710000Y-131955000D01*
X97685000Y-133430000D02*
X96235000Y-133430000D01*
X100710000Y-133392500D02*
X100710000Y-131967500D01*
X102210000Y-131955000D02*
X100722500Y-131955000D01*
X100722500Y-131955000D02*
X100710000Y-131967500D01*
X99235000Y-131930000D02*
X100672500Y-131930000D01*
X100672500Y-133430000D02*
X100710000Y-133392500D01*
X99235000Y-133430000D02*
X100672500Y-133430000D01*
X100672500Y-131930000D02*
X100710000Y-131967500D01*
X100635000Y-128930000D02*
X99235000Y-128930000D01*
X100710000Y-129005000D02*
X100635000Y-128930000D01*
X99235000Y-128930000D02*
X99235000Y-130430000D01*
X100722500Y-130405000D02*
X100710000Y-130392500D01*
X100710000Y-130392500D02*
X100710000Y-129005000D01*
X102210000Y-130405000D02*
X100722500Y-130405000D01*
X99235000Y-128930000D02*
X99235000Y-127430000D01*
X99235000Y-134930000D02*
X99235000Y-136430000D01*
X99272500Y-134967500D02*
X99235000Y-134930000D01*
X100710000Y-134967500D02*
X99272500Y-134967500D01*
X102210000Y-127455000D02*
X104290000Y-127455000D01*
X102285000Y-128930000D02*
X102285000Y-127530000D01*
X100710000Y-127455000D02*
X102210000Y-127455000D01*
X102285000Y-127530000D02*
X102210000Y-127455000D01*
X104290000Y-127455000D02*
X104315000Y-127430000D01*
X102235000Y-127430000D02*
X102210000Y-127455000D01*
X100710000Y-122680000D02*
X100710000Y-124405000D01*
X100710000Y-124405000D02*
X100685000Y-124430000D01*
X99285000Y-125930000D02*
X100685000Y-125930000D01*
X99235000Y-124430000D02*
X100685000Y-124430000D01*
X100710000Y-121580000D02*
X100710000Y-122680000D01*
X100685000Y-124430000D02*
X100685000Y-125880000D01*
X100685000Y-125880000D02*
X100710000Y-125905000D01*
X102210000Y-125905000D02*
X100710000Y-125905000D01*
X100685000Y-125930000D02*
X100710000Y-125905000D01*
X87210000Y-138632000D02*
X87210000Y-137129000D01*
X87410000Y-136929000D02*
X87610000Y-136929000D01*
X86110000Y-139530000D02*
X86312000Y-139530000D01*
X87210000Y-137129000D02*
X87410000Y-136929000D01*
X88460000Y-136079000D02*
X88460000Y-133867500D01*
X86035000Y-139455000D02*
X86110000Y-139530000D01*
X84210000Y-139455000D02*
X86035000Y-139455000D01*
X87610000Y-136929000D02*
X88460000Y-136079000D01*
X84285000Y-139530000D02*
X84210000Y-139455000D01*
X86312000Y-139530000D02*
X87210000Y-138632000D01*
X88360000Y-137880000D02*
X88310000Y-137830000D01*
X90210000Y-137880000D02*
X88360000Y-137880000D01*
X90160000Y-137830000D02*
X90210000Y-137880000D01*
X88861000Y-137279000D02*
X88861000Y-134619000D01*
X88960000Y-134520000D02*
X88960000Y-133867500D01*
X88310000Y-137830000D02*
X88861000Y-137279000D01*
X88861000Y-134619000D02*
X88960000Y-134520000D01*
X81281000Y-131409000D02*
X83010000Y-129680000D01*
X87440000Y-143320000D02*
X83480000Y-143320000D01*
X81281000Y-141121000D02*
X81281000Y-131409000D01*
X88900000Y-144780000D02*
X87440000Y-143320000D01*
X83010000Y-129680000D02*
X85272500Y-129680000D01*
X83480000Y-143320000D02*
X81281000Y-141121000D01*
X81682000Y-140954900D02*
X81682000Y-131575100D01*
X83646100Y-142919000D02*
X81682000Y-140954900D01*
X90170000Y-146050000D02*
X90170000Y-144240000D01*
X88900000Y-147320000D02*
X90170000Y-146050000D01*
X90170000Y-144240000D02*
X88849000Y-142919000D01*
X81682000Y-131575100D02*
X83077100Y-130180000D01*
X83077100Y-130180000D02*
X85272500Y-130180000D01*
X88849000Y-142919000D02*
X83646100Y-142919000D01*
X87460000Y-134730000D02*
X87610000Y-134880000D01*
X87460000Y-133867500D02*
X87460000Y-134730000D01*
X83286000Y-137494798D02*
X83286000Y-140290500D01*
X86460000Y-134320798D02*
X83286000Y-137494798D01*
X89676300Y-141315000D02*
X91188300Y-142827000D01*
X84310500Y-141315000D02*
X89676300Y-141315000D01*
X91188300Y-142827000D02*
X94567000Y-142827000D01*
X94567000Y-142827000D02*
X96520000Y-144780000D01*
X83286000Y-140290500D02*
X84310500Y-141315000D01*
X86460000Y-133867500D02*
X86460000Y-134320798D01*
X84010000Y-131680000D02*
X83810000Y-131880000D01*
X85272500Y-131680000D02*
X84010000Y-131680000D01*
X87960000Y-128992500D02*
X87960000Y-128180000D01*
X97580000Y-142320000D02*
X97790000Y-142530000D01*
X97580000Y-140920000D02*
X97580000Y-142320000D01*
X97790000Y-142530000D02*
X97790000Y-146050000D01*
X97790000Y-146050000D02*
X96520000Y-147320000D01*
X87960000Y-128180000D02*
X88210000Y-127930000D01*
X91022200Y-143228000D02*
X94055760Y-143228000D01*
X82885000Y-140456600D02*
X84144400Y-141716000D01*
X95250000Y-144422240D02*
X95250000Y-146050000D01*
X82885000Y-135315000D02*
X82885000Y-140456600D01*
X89510200Y-141716000D02*
X91022200Y-143228000D01*
X85020000Y-133180000D02*
X82885000Y-135315000D01*
X85272500Y-133180000D02*
X85020000Y-133180000D01*
X84144400Y-141716000D02*
X89510200Y-141716000D01*
X95250000Y-146050000D02*
X93980000Y-147320000D01*
X94055760Y-143228000D02*
X95250000Y-144422240D01*
X89344100Y-142117000D02*
X89579000Y-142351900D01*
X90856100Y-143629000D02*
X90963240Y-143629000D01*
X89011900Y-142117000D02*
X89344100Y-142117000D01*
X91916760Y-143629000D02*
X92591000Y-144303240D01*
X82484000Y-140622700D02*
X83978300Y-142117000D01*
X83510000Y-131180000D02*
X82484000Y-132206000D01*
X92710000Y-144422240D02*
X92710000Y-146050000D01*
X92710000Y-146050000D02*
X91440000Y-147320000D01*
X90963240Y-143629000D02*
X91916760Y-143629000D01*
X82484000Y-132206000D02*
X82484000Y-140622700D01*
X85272500Y-131180000D02*
X83510000Y-131180000D01*
X89947100Y-142720000D02*
X90856100Y-143629000D01*
X92591000Y-144303240D02*
X92710000Y-144422240D01*
X83978300Y-142117000D02*
X89011900Y-142117000D01*
X89579000Y-142351900D02*
X89947100Y-142720000D01*
X86960000Y-128992500D02*
X86960000Y-126179890D01*
X80880000Y-131242900D02*
X80880000Y-144380000D01*
X83080000Y-129042900D02*
X80880000Y-131242900D01*
X83080000Y-125559890D02*
X83080000Y-129042900D01*
X83485890Y-125154000D02*
X83080000Y-125559890D01*
X86960000Y-126179890D02*
X85934110Y-125154000D01*
X85934110Y-125154000D02*
X83485890Y-125154000D01*
X80880000Y-144380000D02*
X81280000Y-144780000D01*
X82083000Y-131741200D02*
X82083000Y-140788800D01*
X83812200Y-142518000D02*
X89178000Y-142518000D01*
X83144200Y-130680000D02*
X82083000Y-131741200D01*
X85272500Y-130680000D02*
X83144200Y-130680000D01*
X82083000Y-140788800D02*
X83812200Y-142518000D01*
X89178000Y-142518000D02*
X91440000Y-144780000D01*
X85272500Y-132680000D02*
X84777100Y-132680000D01*
X84777100Y-132680000D02*
X83977094Y-133480006D01*
X83977094Y-133480006D02*
X83810000Y-133480006D01*
X84710000Y-132180000D02*
X84209997Y-132680003D01*
X85272500Y-132180000D02*
X84710000Y-132180000D01*
X84209997Y-132680003D02*
X83810000Y-132680003D01*
X86960000Y-133867500D02*
X86960000Y-135680000D01*
X87460000Y-128992500D02*
X87460001Y-127179999D01*
X87460001Y-127179999D02*
X87960000Y-126680000D01*
G04 #@! TA.AperFunction,Conductor*
G36*
X96701919Y-123970907D02*
G01*
X96737883Y-124020407D01*
X96742215Y-124061063D01*
X96735000Y-124131677D01*
X96735000Y-124179999D01*
X96735001Y-124180000D01*
X97586000Y-124180000D01*
X97644191Y-124198907D01*
X97680155Y-124248407D01*
X97685000Y-124279000D01*
X97685000Y-124429999D01*
X97685001Y-124430000D01*
X97836000Y-124430000D01*
X97894191Y-124448907D01*
X97930155Y-124498407D01*
X97935000Y-124529000D01*
X97935000Y-125418993D01*
X97916093Y-125477184D01*
X97906004Y-125488997D01*
X97885000Y-125510001D01*
X97885000Y-126349999D01*
X97906004Y-126371003D01*
X97933781Y-126425520D01*
X97935000Y-126441007D01*
X97935000Y-128831000D01*
X97916093Y-128889191D01*
X97866593Y-128925155D01*
X97836000Y-128930000D01*
X97685001Y-128930000D01*
X97685000Y-128930001D01*
X97685000Y-129081000D01*
X97666093Y-129139191D01*
X97616593Y-129175155D01*
X97586000Y-129180000D01*
X96696007Y-129180000D01*
X96637816Y-129161093D01*
X96630682Y-129155000D01*
X95375979Y-129155000D01*
X95317788Y-129136093D01*
X95305976Y-129126004D01*
X94932010Y-128752039D01*
X94915315Y-128742400D01*
X94867688Y-128714903D01*
X94863489Y-128712479D01*
X94863488Y-128712478D01*
X94863487Y-128712478D01*
X94863485Y-128712477D01*
X94787064Y-128692000D01*
X94787062Y-128692000D01*
X89884499Y-128692000D01*
X89826308Y-128673093D01*
X89796217Y-128631676D01*
X95235000Y-128631676D01*
X95235000Y-128654999D01*
X95235001Y-128655000D01*
X95959999Y-128655000D01*
X95960000Y-128654999D01*
X95960000Y-127955001D01*
X96460000Y-127955001D01*
X96460000Y-128654999D01*
X96460001Y-128655000D01*
X97223993Y-128655000D01*
X97282184Y-128673907D01*
X97289318Y-128680000D01*
X97434999Y-128680000D01*
X97435000Y-128679999D01*
X97435000Y-127680001D01*
X97434999Y-127680000D01*
X96735002Y-127680000D01*
X96735001Y-127680001D01*
X96735001Y-127728322D01*
X96745142Y-127827597D01*
X96745144Y-127827607D01*
X96751301Y-127846187D01*
X96751655Y-127907372D01*
X96715979Y-127957079D01*
X96657899Y-127976323D01*
X96626187Y-127971301D01*
X96607601Y-127965143D01*
X96607603Y-127965143D01*
X96508323Y-127955000D01*
X96460001Y-127955000D01*
X96460000Y-127955001D01*
X95960000Y-127955001D01*
X95960000Y-127954999D01*
X95911679Y-127955000D01*
X95911676Y-127955001D01*
X95812402Y-127965142D01*
X95812390Y-127965145D01*
X95651512Y-128018454D01*
X95507270Y-128107425D01*
X95387425Y-128227270D01*
X95298454Y-128371512D01*
X95245143Y-128532396D01*
X95235000Y-128631676D01*
X89796217Y-128631676D01*
X89790344Y-128623593D01*
X89786042Y-128596430D01*
X89785975Y-128596437D01*
X89785862Y-128595296D01*
X89785499Y-128593000D01*
X89785499Y-128591602D01*
X89785498Y-128591595D01*
X89770240Y-128514883D01*
X89770239Y-128514881D01*
X89723774Y-128445342D01*
X89712112Y-128427888D01*
X89625117Y-128369760D01*
X89625115Y-128369759D01*
X89625114Y-128369759D01*
X89562885Y-128357380D01*
X89558783Y-128355082D01*
X89554084Y-128355206D01*
X89532427Y-128340322D01*
X89509502Y-128327483D01*
X89503659Y-128320551D01*
X89460855Y-128264768D01*
X89440431Y-128207092D01*
X89457808Y-128148426D01*
X89506350Y-128111179D01*
X89539397Y-128105500D01*
X89993490Y-128105500D01*
X90014885Y-128102111D01*
X90093126Y-128089719D01*
X90213220Y-128028528D01*
X90308528Y-127933220D01*
X90369719Y-127813126D01*
X90369719Y-127813124D01*
X90371538Y-127809555D01*
X90387929Y-127793163D01*
X90401557Y-127774407D01*
X90409154Y-127771938D01*
X90414803Y-127766290D01*
X90459748Y-127755500D01*
X90460252Y-127755500D01*
X90518443Y-127774407D01*
X90548462Y-127809555D01*
X90550280Y-127813124D01*
X90550281Y-127813126D01*
X90611472Y-127933220D01*
X90706780Y-128028528D01*
X90706782Y-128028529D01*
X90826867Y-128089716D01*
X90826869Y-128089716D01*
X90826874Y-128089719D01*
X90902541Y-128101703D01*
X90926510Y-128105500D01*
X90926512Y-128105500D01*
X91493490Y-128105500D01*
X91514885Y-128102111D01*
X91593126Y-128089719D01*
X91713220Y-128028528D01*
X91808528Y-127933220D01*
X91869719Y-127813126D01*
X91885500Y-127713488D01*
X91885500Y-127196512D01*
X91875231Y-127131676D01*
X96735000Y-127131676D01*
X96735000Y-127179999D01*
X96735001Y-127180000D01*
X97434999Y-127180000D01*
X97435000Y-127179999D01*
X97435000Y-127010001D01*
X97413996Y-126988997D01*
X97386219Y-126934480D01*
X97385000Y-126918993D01*
X97385000Y-126180001D01*
X97384999Y-126180000D01*
X96735002Y-126180000D01*
X96735001Y-126180001D01*
X96735001Y-126261582D01*
X96741408Y-126332103D01*
X96741410Y-126332109D01*
X96791979Y-126494392D01*
X96791984Y-126494404D01*
X96879044Y-126638418D01*
X96892968Y-126697998D01*
X96878582Y-126741607D01*
X96798454Y-126871512D01*
X96745143Y-127032396D01*
X96735000Y-127131676D01*
X91875231Y-127131676D01*
X91869719Y-127096874D01*
X91869716Y-127096869D01*
X91869716Y-127096867D01*
X91808529Y-126976782D01*
X91808528Y-126976780D01*
X91767215Y-126935467D01*
X91739440Y-126880953D01*
X91749011Y-126820521D01*
X91785248Y-126781205D01*
X91912732Y-126702571D01*
X92032574Y-126582729D01*
X92121545Y-126438487D01*
X92174856Y-126277603D01*
X92185000Y-126178323D01*
X92185000Y-126155001D01*
X92184999Y-126155000D01*
X88735002Y-126155000D01*
X88735001Y-126155001D01*
X88735001Y-126178322D01*
X88742843Y-126255088D01*
X88729948Y-126314899D01*
X88684359Y-126355707D01*
X88623490Y-126361925D01*
X88570592Y-126331178D01*
X88562041Y-126320151D01*
X88531080Y-126273816D01*
X88504114Y-126233458D01*
X88406542Y-126135886D01*
X88406541Y-126135885D01*
X88291817Y-126059228D01*
X88291806Y-126059222D01*
X88164328Y-126006420D01*
X88028995Y-125979500D01*
X88028993Y-125979500D01*
X87891007Y-125979500D01*
X87891004Y-125979500D01*
X87755672Y-126006420D01*
X87755670Y-126006420D01*
X87628193Y-126059222D01*
X87628182Y-126059228D01*
X87513458Y-126135885D01*
X87513454Y-126135889D01*
X87429504Y-126219840D01*
X87374987Y-126247617D01*
X87314555Y-126238046D01*
X87271290Y-126194781D01*
X87261882Y-126166320D01*
X87260500Y-126158135D01*
X87260500Y-126140328D01*
X87253582Y-126114511D01*
X87240022Y-126063902D01*
X87200460Y-125995379D01*
X86836757Y-125631676D01*
X88735000Y-125631676D01*
X88735000Y-125654999D01*
X88735001Y-125655000D01*
X89459999Y-125655000D01*
X89460000Y-125654999D01*
X89460000Y-124955001D01*
X89960000Y-124955001D01*
X89960000Y-125654999D01*
X89960001Y-125655000D01*
X90959999Y-125655000D01*
X90960000Y-125654999D01*
X90960000Y-124955001D01*
X91460000Y-124955001D01*
X91460000Y-125654999D01*
X91460001Y-125655000D01*
X92184998Y-125655000D01*
X92184999Y-125654999D01*
X92184999Y-125631685D01*
X92182400Y-125606242D01*
X92182400Y-125606239D01*
X92181601Y-125598418D01*
X96735000Y-125598418D01*
X96735000Y-125679999D01*
X96735001Y-125680000D01*
X97384999Y-125680000D01*
X97385000Y-125679999D01*
X97385000Y-124941007D01*
X97403907Y-124882816D01*
X97413996Y-124871003D01*
X97435000Y-124849999D01*
X97435000Y-124680001D01*
X97434999Y-124680000D01*
X96735002Y-124680000D01*
X96735001Y-124680001D01*
X96735001Y-124728322D01*
X96745142Y-124827597D01*
X96745145Y-124827609D01*
X96798454Y-124988487D01*
X96878582Y-125118392D01*
X96893039Y-125177845D01*
X96879045Y-125221581D01*
X96791981Y-125365602D01*
X96791979Y-125365607D01*
X96741410Y-125527889D01*
X96741408Y-125527895D01*
X96735000Y-125598418D01*
X92181601Y-125598418D01*
X92174856Y-125532401D01*
X92174854Y-125532390D01*
X92121545Y-125371512D01*
X92032574Y-125227270D01*
X91912729Y-125107425D01*
X91768487Y-125018454D01*
X91607603Y-124965143D01*
X91508323Y-124955000D01*
X91460001Y-124955000D01*
X91460000Y-124955001D01*
X90960000Y-124955001D01*
X90960000Y-124954999D01*
X90911679Y-124955000D01*
X90911676Y-124955001D01*
X90812402Y-124965142D01*
X90812390Y-124965145D01*
X90651512Y-125018454D01*
X90511973Y-125104525D01*
X90452520Y-125118982D01*
X90408027Y-125104525D01*
X90268487Y-125018454D01*
X90107603Y-124965143D01*
X90008323Y-124955000D01*
X89960001Y-124955000D01*
X89960000Y-124955001D01*
X89460000Y-124955001D01*
X89460000Y-124954999D01*
X89411679Y-124955000D01*
X89411676Y-124955001D01*
X89312402Y-124965142D01*
X89312390Y-124965145D01*
X89151512Y-125018454D01*
X89007270Y-125107425D01*
X88887425Y-125227270D01*
X88798454Y-125371512D01*
X88745143Y-125532396D01*
X88735000Y-125631676D01*
X86836757Y-125631676D01*
X86118621Y-124913540D01*
X86118618Y-124913538D01*
X86050102Y-124873980D01*
X86050098Y-124873978D01*
X85973674Y-124853500D01*
X85973672Y-124853500D01*
X83446328Y-124853500D01*
X83446325Y-124853500D01*
X83369901Y-124873978D01*
X83369897Y-124873980D01*
X83301379Y-124913539D01*
X82839539Y-125375379D01*
X82799980Y-125443897D01*
X82799978Y-125443901D01*
X82779501Y-125520322D01*
X82779500Y-125520327D01*
X82779500Y-128877421D01*
X82760593Y-128935612D01*
X82750504Y-128947425D01*
X80695489Y-131002440D01*
X80695488Y-131002439D01*
X80639539Y-131058389D01*
X80599980Y-131126907D01*
X80599978Y-131126911D01*
X80579500Y-131203335D01*
X80579500Y-143953860D01*
X80560593Y-144012051D01*
X80550504Y-144023863D01*
X80464022Y-144110345D01*
X80349058Y-144282402D01*
X80269869Y-144473581D01*
X80229500Y-144676532D01*
X80229500Y-144883467D01*
X80269869Y-145086418D01*
X80349058Y-145277597D01*
X80464020Y-145449651D01*
X80464023Y-145449655D01*
X80610345Y-145595977D01*
X80782402Y-145710941D01*
X80973580Y-145790130D01*
X81176535Y-145830500D01*
X81176536Y-145830500D01*
X81383464Y-145830500D01*
X81383465Y-145830500D01*
X81586420Y-145790130D01*
X81777598Y-145710941D01*
X81949655Y-145595977D01*
X82095977Y-145449655D01*
X82210941Y-145277598D01*
X82290130Y-145086420D01*
X82330500Y-144883465D01*
X82330500Y-144676535D01*
X82290130Y-144473580D01*
X82210941Y-144282402D01*
X82095977Y-144110345D01*
X81949655Y-143964023D01*
X81934445Y-143953860D01*
X81777597Y-143849058D01*
X81586418Y-143769869D01*
X81383467Y-143729500D01*
X81383465Y-143729500D01*
X81279500Y-143729500D01*
X81221309Y-143710593D01*
X81185345Y-143661093D01*
X81180500Y-143630500D01*
X81180500Y-141684478D01*
X81199407Y-141626287D01*
X81248907Y-141590323D01*
X81310093Y-141590323D01*
X81349501Y-141614472D01*
X83295489Y-143560460D01*
X83295491Y-143560461D01*
X83295493Y-143560463D01*
X83364008Y-143600020D01*
X83364009Y-143600020D01*
X83364012Y-143600022D01*
X83422109Y-143615588D01*
X83473423Y-143648912D01*
X83495350Y-143706033D01*
X83479515Y-143765134D01*
X83434372Y-143802679D01*
X83322402Y-143849058D01*
X83150348Y-143964020D01*
X83004020Y-144110348D01*
X82889058Y-144282402D01*
X82809869Y-144473581D01*
X82769500Y-144676532D01*
X82769500Y-144883467D01*
X82809869Y-145086418D01*
X82889058Y-145277597D01*
X83004020Y-145449651D01*
X83004023Y-145449655D01*
X83150345Y-145595977D01*
X83322402Y-145710941D01*
X83513580Y-145790130D01*
X83716535Y-145830500D01*
X83716536Y-145830500D01*
X83923464Y-145830500D01*
X83923465Y-145830500D01*
X84126420Y-145790130D01*
X84317598Y-145710941D01*
X84489655Y-145595977D01*
X84635977Y-145449655D01*
X84750941Y-145277598D01*
X84830130Y-145086420D01*
X84870500Y-144883465D01*
X84870500Y-144676535D01*
X84830130Y-144473580D01*
X84750941Y-144282402D01*
X84635977Y-144110345D01*
X84489655Y-143964023D01*
X84474445Y-143953860D01*
X84317597Y-143849058D01*
X84225629Y-143810964D01*
X84179104Y-143771227D01*
X84164820Y-143711732D01*
X84188235Y-143655205D01*
X84240404Y-143623235D01*
X84263515Y-143620500D01*
X85916485Y-143620500D01*
X85974676Y-143639407D01*
X86010640Y-143688907D01*
X86010640Y-143750093D01*
X85974676Y-143799593D01*
X85954371Y-143810964D01*
X85862402Y-143849058D01*
X85690348Y-143964020D01*
X85544020Y-144110348D01*
X85429058Y-144282402D01*
X85349869Y-144473581D01*
X85309500Y-144676532D01*
X85309500Y-144883467D01*
X85349869Y-145086418D01*
X85429058Y-145277597D01*
X85544020Y-145449651D01*
X85544023Y-145449655D01*
X85690345Y-145595977D01*
X85862402Y-145710941D01*
X86053580Y-145790130D01*
X86256535Y-145830500D01*
X86256536Y-145830500D01*
X86463464Y-145830500D01*
X86463465Y-145830500D01*
X86666420Y-145790130D01*
X86857598Y-145710941D01*
X87029655Y-145595977D01*
X87175977Y-145449655D01*
X87290941Y-145277598D01*
X87370130Y-145086420D01*
X87410500Y-144883465D01*
X87410500Y-144676535D01*
X87370130Y-144473580D01*
X87290941Y-144282402D01*
X87175977Y-144110345D01*
X87029655Y-143964023D01*
X87014445Y-143953860D01*
X86857597Y-143849058D01*
X86765629Y-143810964D01*
X86719104Y-143771227D01*
X86704820Y-143711732D01*
X86728235Y-143655205D01*
X86780404Y-143623235D01*
X86803515Y-143620500D01*
X87274521Y-143620500D01*
X87332712Y-143639407D01*
X87344525Y-143649496D01*
X87924736Y-144229707D01*
X87952513Y-144284224D01*
X87946196Y-144337596D01*
X87889870Y-144473578D01*
X87889870Y-144473580D01*
X87849500Y-144676532D01*
X87849500Y-144883467D01*
X87889869Y-145086418D01*
X87969058Y-145277597D01*
X88084020Y-145449651D01*
X88084023Y-145449655D01*
X88230345Y-145595977D01*
X88402402Y-145710941D01*
X88593580Y-145790130D01*
X88796535Y-145830500D01*
X88796536Y-145830500D01*
X89003464Y-145830500D01*
X89003465Y-145830500D01*
X89206420Y-145790130D01*
X89397598Y-145710941D01*
X89569655Y-145595977D01*
X89700498Y-145465133D01*
X89755013Y-145437358D01*
X89815445Y-145446929D01*
X89858710Y-145490194D01*
X89869500Y-145535139D01*
X89869500Y-145884521D01*
X89850593Y-145942712D01*
X89840503Y-145954525D01*
X89450291Y-146344736D01*
X89395775Y-146372513D01*
X89342402Y-146366196D01*
X89206418Y-146309869D01*
X89003467Y-146269500D01*
X89003465Y-146269500D01*
X88796535Y-146269500D01*
X88796532Y-146269500D01*
X88593581Y-146309869D01*
X88402402Y-146389058D01*
X88230348Y-146504020D01*
X88084020Y-146650348D01*
X87969058Y-146822402D01*
X87889869Y-147013581D01*
X87849500Y-147216532D01*
X87849500Y-147423467D01*
X87889869Y-147626418D01*
X87969058Y-147817597D01*
X88084020Y-147989651D01*
X88084023Y-147989655D01*
X88230345Y-148135977D01*
X88402402Y-148250941D01*
X88593580Y-148330130D01*
X88796535Y-148370500D01*
X88796536Y-148370500D01*
X89003464Y-148370500D01*
X89003465Y-148370500D01*
X89206420Y-148330130D01*
X89397598Y-148250941D01*
X89569655Y-148135977D01*
X89715977Y-147989655D01*
X89830941Y-147817598D01*
X89910130Y-147626420D01*
X89950500Y-147423465D01*
X89950500Y-147216535D01*
X89910130Y-147013580D01*
X89853802Y-146877595D01*
X89849002Y-146816599D01*
X89875261Y-146769708D01*
X90410460Y-146234511D01*
X90450021Y-146165989D01*
X90470500Y-146089562D01*
X90470500Y-145535139D01*
X90489407Y-145476948D01*
X90538907Y-145440984D01*
X90600093Y-145440984D01*
X90639501Y-145465133D01*
X90770345Y-145595977D01*
X90942402Y-145710941D01*
X91133580Y-145790130D01*
X91336535Y-145830500D01*
X91336536Y-145830500D01*
X91543464Y-145830500D01*
X91543465Y-145830500D01*
X91746420Y-145790130D01*
X91937598Y-145710941D01*
X92109655Y-145595977D01*
X92240498Y-145465133D01*
X92295013Y-145437358D01*
X92355445Y-145446929D01*
X92398710Y-145490194D01*
X92409500Y-145535139D01*
X92409500Y-145884521D01*
X92390593Y-145942712D01*
X92380503Y-145954525D01*
X91990291Y-146344736D01*
X91935775Y-146372513D01*
X91882402Y-146366196D01*
X91746418Y-146309869D01*
X91543467Y-146269500D01*
X91543465Y-146269500D01*
X91336535Y-146269500D01*
X91336532Y-146269500D01*
X91133581Y-146309869D01*
X90942402Y-146389058D01*
X90770348Y-146504020D01*
X90624020Y-146650348D01*
X90509058Y-146822402D01*
X90429869Y-147013581D01*
X90389500Y-147216532D01*
X90389500Y-147423467D01*
X90429869Y-147626418D01*
X90509058Y-147817597D01*
X90624020Y-147989651D01*
X90624023Y-147989655D01*
X90770345Y-148135977D01*
X90942402Y-148250941D01*
X91133580Y-148330130D01*
X91336535Y-148370500D01*
X91336536Y-148370500D01*
X91543464Y-148370500D01*
X91543465Y-148370500D01*
X91746420Y-148330130D01*
X91937598Y-148250941D01*
X92109655Y-148135977D01*
X92255977Y-147989655D01*
X92370941Y-147817598D01*
X92450130Y-147626420D01*
X92490500Y-147423465D01*
X92490500Y-147216535D01*
X92450130Y-147013580D01*
X92393802Y-146877595D01*
X92389002Y-146816599D01*
X92415261Y-146769708D01*
X92950460Y-146234511D01*
X92990021Y-146165989D01*
X93010500Y-146089562D01*
X93010500Y-145535139D01*
X93029407Y-145476948D01*
X93078907Y-145440984D01*
X93140093Y-145440984D01*
X93179501Y-145465133D01*
X93310345Y-145595977D01*
X93482402Y-145710941D01*
X93673580Y-145790130D01*
X93876535Y-145830500D01*
X93876536Y-145830500D01*
X94083464Y-145830500D01*
X94083465Y-145830500D01*
X94286420Y-145790130D01*
X94477598Y-145710941D01*
X94649655Y-145595977D01*
X94780498Y-145465133D01*
X94835013Y-145437358D01*
X94895445Y-145446929D01*
X94938710Y-145490194D01*
X94949500Y-145535139D01*
X94949500Y-145884521D01*
X94930593Y-145942712D01*
X94920503Y-145954525D01*
X94530291Y-146344736D01*
X94475775Y-146372513D01*
X94422402Y-146366196D01*
X94286418Y-146309869D01*
X94083467Y-146269500D01*
X94083465Y-146269500D01*
X93876535Y-146269500D01*
X93876532Y-146269500D01*
X93673581Y-146309869D01*
X93482402Y-146389058D01*
X93310348Y-146504020D01*
X93164020Y-146650348D01*
X93049058Y-146822402D01*
X92969869Y-147013581D01*
X92929500Y-147216532D01*
X92929500Y-147423467D01*
X92969869Y-147626418D01*
X93049058Y-147817597D01*
X93164020Y-147989651D01*
X93164023Y-147989655D01*
X93310345Y-148135977D01*
X93482402Y-148250941D01*
X93673580Y-148330130D01*
X93876535Y-148370500D01*
X93876536Y-148370500D01*
X94083464Y-148370500D01*
X94083465Y-148370500D01*
X94286420Y-148330130D01*
X94477598Y-148250941D01*
X94649655Y-148135977D01*
X94795977Y-147989655D01*
X94910941Y-147817598D01*
X94990130Y-147626420D01*
X95030500Y-147423465D01*
X95030500Y-147216535D01*
X94990130Y-147013580D01*
X94933802Y-146877595D01*
X94929002Y-146816599D01*
X94955261Y-146769708D01*
X95490460Y-146234511D01*
X95530021Y-146165989D01*
X95550500Y-146089562D01*
X95550500Y-145535139D01*
X95569407Y-145476948D01*
X95618907Y-145440984D01*
X95680093Y-145440984D01*
X95719501Y-145465133D01*
X95850345Y-145595977D01*
X96022402Y-145710941D01*
X96213580Y-145790130D01*
X96416535Y-145830500D01*
X96416536Y-145830500D01*
X96623464Y-145830500D01*
X96623465Y-145830500D01*
X96826420Y-145790130D01*
X97017598Y-145710941D01*
X97189655Y-145595977D01*
X97320498Y-145465133D01*
X97375013Y-145437358D01*
X97435445Y-145446929D01*
X97478710Y-145490194D01*
X97489500Y-145535139D01*
X97489500Y-145884521D01*
X97470593Y-145942712D01*
X97460503Y-145954525D01*
X97070291Y-146344736D01*
X97015775Y-146372513D01*
X96962402Y-146366196D01*
X96826418Y-146309869D01*
X96623467Y-146269500D01*
X96623465Y-146269500D01*
X96416535Y-146269500D01*
X96416532Y-146269500D01*
X96213581Y-146309869D01*
X96022402Y-146389058D01*
X95850348Y-146504020D01*
X95704020Y-146650348D01*
X95589058Y-146822402D01*
X95509869Y-147013581D01*
X95469500Y-147216532D01*
X95469500Y-147423467D01*
X95509869Y-147626418D01*
X95589058Y-147817597D01*
X95704020Y-147989651D01*
X95704023Y-147989655D01*
X95850345Y-148135977D01*
X96022402Y-148250941D01*
X96213580Y-148330130D01*
X96416535Y-148370500D01*
X96416536Y-148370500D01*
X96623464Y-148370500D01*
X96623465Y-148370500D01*
X96826420Y-148330130D01*
X97017598Y-148250941D01*
X97189655Y-148135977D01*
X97335977Y-147989655D01*
X97450941Y-147817598D01*
X97530130Y-147626420D01*
X97570500Y-147423465D01*
X97570500Y-147216535D01*
X97570499Y-147216532D01*
X98009500Y-147216532D01*
X98009500Y-147423467D01*
X98049869Y-147626418D01*
X98129058Y-147817597D01*
X98244020Y-147989651D01*
X98244023Y-147989655D01*
X98390345Y-148135977D01*
X98562402Y-148250941D01*
X98753580Y-148330130D01*
X98956535Y-148370500D01*
X98956536Y-148370500D01*
X99163464Y-148370500D01*
X99163465Y-148370500D01*
X99366420Y-148330130D01*
X99557598Y-148250941D01*
X99729655Y-148135977D01*
X99875977Y-147989655D01*
X99990941Y-147817598D01*
X100070130Y-147626420D01*
X100079762Y-147577996D01*
X100109656Y-147524613D01*
X100165221Y-147498996D01*
X100225231Y-147510932D01*
X100266764Y-147555861D01*
X100274640Y-147581822D01*
X100283241Y-147636122D01*
X100348904Y-147838215D01*
X100445375Y-148027552D01*
X100570277Y-148199464D01*
X100720535Y-148349722D01*
X100892447Y-148474624D01*
X101081784Y-148571095D01*
X101283877Y-148636758D01*
X101349999Y-148647231D01*
X101350000Y-148647230D01*
X101350000Y-147753012D01*
X101407007Y-147785925D01*
X101534174Y-147820000D01*
X101665826Y-147820000D01*
X101792993Y-147785925D01*
X101850000Y-147753012D01*
X101850000Y-148647231D01*
X101916122Y-148636758D01*
X102118215Y-148571095D01*
X102307552Y-148474624D01*
X102479464Y-148349722D01*
X102629722Y-148199464D01*
X102754624Y-148027552D01*
X102851095Y-147838215D01*
X102916759Y-147636121D01*
X102925359Y-147581823D01*
X102953136Y-147527307D01*
X103007653Y-147499529D01*
X103068085Y-147509100D01*
X103111349Y-147552365D01*
X103120238Y-147577996D01*
X103129869Y-147626418D01*
X103209058Y-147817597D01*
X103324020Y-147989651D01*
X103324023Y-147989655D01*
X103470345Y-148135977D01*
X103642402Y-148250941D01*
X103833580Y-148330130D01*
X104036535Y-148370500D01*
X104036536Y-148370500D01*
X104243464Y-148370500D01*
X104243465Y-148370500D01*
X104446420Y-148330130D01*
X104637598Y-148250941D01*
X104809655Y-148135977D01*
X104955977Y-147989655D01*
X105070941Y-147817598D01*
X105150130Y-147626420D01*
X105190500Y-147423465D01*
X105190500Y-147216535D01*
X105150130Y-147013580D01*
X105070941Y-146822402D01*
X104955977Y-146650345D01*
X104809655Y-146504023D01*
X104729182Y-146450253D01*
X104637597Y-146389058D01*
X104446418Y-146309869D01*
X104243467Y-146269500D01*
X104243465Y-146269500D01*
X104036535Y-146269500D01*
X104036532Y-146269500D01*
X103833581Y-146309869D01*
X103642402Y-146389058D01*
X103470348Y-146504020D01*
X103324020Y-146650348D01*
X103209058Y-146822402D01*
X103129869Y-147013581D01*
X103120238Y-147062003D01*
X103090341Y-147115387D01*
X103034776Y-147141003D01*
X102974766Y-147129066D01*
X102933234Y-147084136D01*
X102925359Y-147058176D01*
X102916759Y-147003878D01*
X102851095Y-146801784D01*
X102754624Y-146612447D01*
X102629722Y-146440535D01*
X102479464Y-146290277D01*
X102307552Y-146165375D01*
X102118215Y-146068904D01*
X101916122Y-146003241D01*
X101861822Y-145994640D01*
X101807306Y-145966862D01*
X101779529Y-145912345D01*
X101789101Y-145851913D01*
X101832366Y-145808649D01*
X101857993Y-145799762D01*
X101906420Y-145790130D01*
X102097598Y-145710941D01*
X102269655Y-145595977D01*
X102415977Y-145449655D01*
X102530941Y-145277598D01*
X102610130Y-145086420D01*
X102650500Y-144883465D01*
X102650500Y-144676535D01*
X102610130Y-144473580D01*
X102530941Y-144282402D01*
X102415977Y-144110345D01*
X102269655Y-143964023D01*
X102254445Y-143953860D01*
X102097597Y-143849058D01*
X101906418Y-143769869D01*
X101703467Y-143729500D01*
X101703465Y-143729500D01*
X101496535Y-143729500D01*
X101496532Y-143729500D01*
X101293581Y-143769869D01*
X101102402Y-143849058D01*
X100930348Y-143964020D01*
X100784020Y-144110348D01*
X100669058Y-144282402D01*
X100589869Y-144473581D01*
X100549500Y-144676532D01*
X100549500Y-144883467D01*
X100589869Y-145086418D01*
X100669058Y-145277597D01*
X100784020Y-145449651D01*
X100784023Y-145449655D01*
X100930345Y-145595977D01*
X101102402Y-145710941D01*
X101293580Y-145790130D01*
X101342003Y-145799762D01*
X101395386Y-145829657D01*
X101421003Y-145885221D01*
X101409067Y-145945231D01*
X101364138Y-145986765D01*
X101338177Y-145994640D01*
X101283877Y-146003241D01*
X101081784Y-146068904D01*
X100892447Y-146165375D01*
X100720535Y-146290277D01*
X100570277Y-146440535D01*
X100445375Y-146612447D01*
X100348904Y-146801784D01*
X100283241Y-147003877D01*
X100274640Y-147058177D01*
X100246862Y-147112694D01*
X100192345Y-147140470D01*
X100131913Y-147130898D01*
X100088649Y-147087633D01*
X100079762Y-147062006D01*
X100070130Y-147013580D01*
X99990941Y-146822402D01*
X99875977Y-146650345D01*
X99729655Y-146504023D01*
X99649182Y-146450253D01*
X99557597Y-146389058D01*
X99366418Y-146309869D01*
X99163467Y-146269500D01*
X99163465Y-146269500D01*
X98956535Y-146269500D01*
X98956532Y-146269500D01*
X98753581Y-146309869D01*
X98562402Y-146389058D01*
X98390348Y-146504020D01*
X98244020Y-146650348D01*
X98129058Y-146822402D01*
X98049869Y-147013581D01*
X98009500Y-147216532D01*
X97570499Y-147216532D01*
X97530130Y-147013580D01*
X97473802Y-146877595D01*
X97469002Y-146816599D01*
X97495261Y-146769708D01*
X98030460Y-146234511D01*
X98070021Y-146165989D01*
X98090500Y-146089562D01*
X98090500Y-145535139D01*
X98109407Y-145476948D01*
X98158907Y-145440984D01*
X98220093Y-145440984D01*
X98259501Y-145465133D01*
X98390345Y-145595977D01*
X98562402Y-145710941D01*
X98753580Y-145790130D01*
X98956535Y-145830500D01*
X98956536Y-145830500D01*
X99163464Y-145830500D01*
X99163465Y-145830500D01*
X99366420Y-145790130D01*
X99557598Y-145710941D01*
X99729655Y-145595977D01*
X99875977Y-145449655D01*
X99990941Y-145277598D01*
X100070130Y-145086420D01*
X100110500Y-144883465D01*
X100110500Y-144676535D01*
X100070130Y-144473580D01*
X99990941Y-144282402D01*
X99875977Y-144110345D01*
X99729655Y-143964023D01*
X99714445Y-143953860D01*
X99557597Y-143849058D01*
X99366418Y-143769869D01*
X99163467Y-143729500D01*
X99163465Y-143729500D01*
X98956535Y-143729500D01*
X98956532Y-143729500D01*
X98753581Y-143769869D01*
X98562402Y-143849058D01*
X98390348Y-143964020D01*
X98390345Y-143964022D01*
X98390345Y-143964023D01*
X98259501Y-144094866D01*
X98204987Y-144122642D01*
X98144555Y-144113071D01*
X98101290Y-144069806D01*
X98090500Y-144024861D01*
X98090500Y-142490437D01*
X98090499Y-142490435D01*
X98070021Y-142414011D01*
X98070019Y-142414007D01*
X98030460Y-142345489D01*
X97974511Y-142289539D01*
X97974511Y-142289540D01*
X97909496Y-142224525D01*
X97881719Y-142170008D01*
X97880500Y-142154521D01*
X97880500Y-141368321D01*
X97899407Y-141310130D01*
X97909490Y-141298323D01*
X97980500Y-141227314D01*
X98046392Y-141113186D01*
X98080500Y-140985892D01*
X98080500Y-140854108D01*
X98046392Y-140726814D01*
X98046390Y-140726811D01*
X98046390Y-140726809D01*
X97980503Y-140612690D01*
X97980501Y-140612688D01*
X97980500Y-140612686D01*
X97887314Y-140519500D01*
X97887311Y-140519498D01*
X97887309Y-140519496D01*
X97773189Y-140453609D01*
X97773191Y-140453609D01*
X97723799Y-140440375D01*
X97645892Y-140419500D01*
X97514108Y-140419500D01*
X97436200Y-140440375D01*
X97386809Y-140453609D01*
X97272690Y-140519496D01*
X97179496Y-140612690D01*
X97113609Y-140726809D01*
X97113608Y-140726814D01*
X97079500Y-140854108D01*
X97079500Y-140985892D01*
X97102275Y-141070889D01*
X97113609Y-141113190D01*
X97179496Y-141227309D01*
X97179498Y-141227311D01*
X97179500Y-141227314D01*
X97250505Y-141298319D01*
X97278281Y-141352834D01*
X97279500Y-141368321D01*
X97279500Y-142359561D01*
X97299979Y-142435989D01*
X97299979Y-142435991D01*
X97302282Y-142439978D01*
X97302283Y-142439979D01*
X97339540Y-142504511D01*
X97460505Y-142625476D01*
X97488281Y-142679991D01*
X97489500Y-142695478D01*
X97489500Y-144024861D01*
X97470593Y-144083052D01*
X97421093Y-144119016D01*
X97359907Y-144119016D01*
X97320498Y-144094866D01*
X97189655Y-143964023D01*
X97174445Y-143953860D01*
X97017597Y-143849058D01*
X96826418Y-143769869D01*
X96623467Y-143729500D01*
X96623465Y-143729500D01*
X96416535Y-143729500D01*
X96416532Y-143729500D01*
X96213580Y-143769870D01*
X96213578Y-143769870D01*
X96077596Y-143826196D01*
X96016600Y-143830997D01*
X95969707Y-143804736D01*
X95384471Y-143219500D01*
X94751511Y-142586540D01*
X94747569Y-142584264D01*
X94722104Y-142569561D01*
X94722104Y-142569562D01*
X94682989Y-142546979D01*
X94682988Y-142546978D01*
X94682987Y-142546978D01*
X94606564Y-142526500D01*
X94606562Y-142526500D01*
X91353779Y-142526500D01*
X91295588Y-142507593D01*
X91283775Y-142497504D01*
X90940792Y-142154521D01*
X89860811Y-141074540D01*
X89860805Y-141074536D01*
X89860803Y-141074535D01*
X89854488Y-141070889D01*
X89854487Y-141070888D01*
X89854487Y-141070889D01*
X89792289Y-141034979D01*
X89792288Y-141034978D01*
X89792287Y-141034978D01*
X89715864Y-141014500D01*
X89715862Y-141014500D01*
X84475979Y-141014500D01*
X84417788Y-140995593D01*
X84405975Y-140985504D01*
X83623191Y-140202720D01*
X83595414Y-140148203D01*
X83604985Y-140087771D01*
X83648250Y-140044506D01*
X83708682Y-140034935D01*
X83738139Y-140044506D01*
X83826874Y-140089719D01*
X83902541Y-140101703D01*
X83926510Y-140105500D01*
X83926512Y-140105500D01*
X84493490Y-140105500D01*
X84514885Y-140102111D01*
X84593126Y-140089719D01*
X84713220Y-140028528D01*
X84808528Y-139933220D01*
X84869719Y-139813126D01*
X84869719Y-139813124D01*
X84871538Y-139809555D01*
X84887929Y-139793163D01*
X84901557Y-139774407D01*
X84909154Y-139771938D01*
X84914803Y-139766290D01*
X84959748Y-139755500D01*
X85110500Y-139755500D01*
X85168691Y-139774407D01*
X85204655Y-139823907D01*
X85209500Y-139854500D01*
X85209500Y-140149746D01*
X85209501Y-140149758D01*
X85221132Y-140208227D01*
X85221134Y-140208233D01*
X85255946Y-140260332D01*
X85265448Y-140274552D01*
X85331769Y-140318867D01*
X85376231Y-140327711D01*
X85390241Y-140330498D01*
X85390246Y-140330498D01*
X85390252Y-140330500D01*
X85390253Y-140330500D01*
X86829747Y-140330500D01*
X86829748Y-140330500D01*
X86888231Y-140318867D01*
X86954552Y-140274552D01*
X86959847Y-140266627D01*
X87007892Y-140228747D01*
X87069030Y-140226341D01*
X87119906Y-140260332D01*
X87134921Y-140287029D01*
X87166647Y-140372090D01*
X87252807Y-140487184D01*
X87252815Y-140487192D01*
X87367909Y-140573352D01*
X87367911Y-140573353D01*
X87502618Y-140623596D01*
X87502629Y-140623598D01*
X87562176Y-140630000D01*
X88059999Y-140630000D01*
X88060000Y-140629999D01*
X88060000Y-139780001D01*
X88560000Y-139780001D01*
X88560000Y-140629999D01*
X88560001Y-140630000D01*
X89057824Y-140630000D01*
X89117370Y-140623598D01*
X89117381Y-140623596D01*
X89252088Y-140573353D01*
X89252090Y-140573352D01*
X89367184Y-140487192D01*
X89367192Y-140487184D01*
X89453352Y-140372090D01*
X89453353Y-140372088D01*
X89465129Y-140340517D01*
X89503179Y-140292602D01*
X89562126Y-140276204D01*
X89609861Y-140290853D01*
X89651514Y-140316546D01*
X89812396Y-140369856D01*
X89911677Y-140379999D01*
X89960000Y-140379998D01*
X89960000Y-139680001D01*
X89959999Y-139680000D01*
X89615001Y-139680000D01*
X89615000Y-139680001D01*
X89615000Y-139681000D01*
X89596093Y-139739191D01*
X89546593Y-139775155D01*
X89516000Y-139780000D01*
X88560001Y-139780000D01*
X88560000Y-139780001D01*
X88060000Y-139780001D01*
X88060000Y-139629000D01*
X88078907Y-139570809D01*
X88128407Y-139534845D01*
X88159000Y-139530000D01*
X88309999Y-139530000D01*
X88310000Y-139529999D01*
X88310000Y-139379000D01*
X88328907Y-139320809D01*
X88378407Y-139284845D01*
X88409000Y-139280000D01*
X89129999Y-139280000D01*
X89130000Y-139279999D01*
X89130000Y-139279000D01*
X89148907Y-139220809D01*
X89198407Y-139184845D01*
X89229000Y-139180000D01*
X90111000Y-139180000D01*
X90169191Y-139198907D01*
X90205155Y-139248407D01*
X90210000Y-139279000D01*
X90210000Y-139429999D01*
X90210001Y-139430000D01*
X90361000Y-139430000D01*
X90419191Y-139448907D01*
X90455155Y-139498407D01*
X90460000Y-139529000D01*
X90460000Y-140379998D01*
X90460001Y-140379999D01*
X90508322Y-140379999D01*
X90607597Y-140369857D01*
X90607609Y-140369854D01*
X90768487Y-140316545D01*
X90912729Y-140227574D01*
X91032572Y-140107731D01*
X91064157Y-140056524D01*
X91110798Y-140016923D01*
X91171808Y-140012299D01*
X91199723Y-140025216D01*
X91199838Y-140024991D01*
X91205783Y-140028020D01*
X91206606Y-140028401D01*
X91206775Y-140028523D01*
X91206780Y-140028528D01*
X91238139Y-140044506D01*
X91326867Y-140089716D01*
X91326869Y-140089716D01*
X91326874Y-140089719D01*
X91402541Y-140101703D01*
X91426510Y-140105500D01*
X91426512Y-140105500D01*
X91943490Y-140105500D01*
X91964885Y-140102111D01*
X92043126Y-140089719D01*
X92163220Y-140028528D01*
X92204531Y-139987216D01*
X92259045Y-139959440D01*
X92319477Y-139969011D01*
X92358793Y-140005248D01*
X92437426Y-140132729D01*
X92437426Y-140132730D01*
X92557270Y-140252574D01*
X92701512Y-140341545D01*
X92862396Y-140394856D01*
X92961676Y-140404999D01*
X92985000Y-140404998D01*
X92985000Y-139680001D01*
X93485000Y-139680001D01*
X93485000Y-140404998D01*
X93485001Y-140404999D01*
X93508322Y-140404999D01*
X93607597Y-140394857D01*
X93607609Y-140394854D01*
X93768487Y-140341545D01*
X93912729Y-140252574D01*
X94032574Y-140132729D01*
X94121545Y-139988487D01*
X94174856Y-139827603D01*
X94185000Y-139728323D01*
X94185000Y-139680001D01*
X94184999Y-139680000D01*
X93485001Y-139680000D01*
X93485000Y-139680001D01*
X92985000Y-139680001D01*
X92985000Y-138180001D01*
X93485000Y-138180001D01*
X93485000Y-139179999D01*
X93485001Y-139180000D01*
X94184998Y-139180000D01*
X94184999Y-139179999D01*
X94184999Y-139131678D01*
X94178075Y-139063908D01*
X94190970Y-139004097D01*
X94236558Y-138963288D01*
X94297426Y-138957070D01*
X94326062Y-138968110D01*
X94421810Y-139023390D01*
X94421808Y-139023390D01*
X94421812Y-139023391D01*
X94421814Y-139023392D01*
X94549108Y-139057500D01*
X94549110Y-139057500D01*
X94680890Y-139057500D01*
X94680892Y-139057500D01*
X94808186Y-139023392D01*
X94808188Y-139023390D01*
X94808190Y-139023390D01*
X94922309Y-138957503D01*
X94922309Y-138957502D01*
X94922314Y-138957500D01*
X94993319Y-138886494D01*
X95047834Y-138858719D01*
X95063321Y-138857500D01*
X97751521Y-138857500D01*
X97809712Y-138876407D01*
X97821525Y-138886496D01*
X103164736Y-144229707D01*
X103192513Y-144284224D01*
X103186196Y-144337596D01*
X103129870Y-144473578D01*
X103129870Y-144473580D01*
X103089500Y-144676532D01*
X103089500Y-144883467D01*
X103129869Y-145086418D01*
X103209058Y-145277597D01*
X103324020Y-145449651D01*
X103324023Y-145449655D01*
X103470345Y-145595977D01*
X103642402Y-145710941D01*
X103833580Y-145790130D01*
X104036535Y-145830500D01*
X104036536Y-145830500D01*
X104243464Y-145830500D01*
X104243465Y-145830500D01*
X104446420Y-145790130D01*
X104637598Y-145710941D01*
X104809655Y-145595977D01*
X104955977Y-145449655D01*
X105070941Y-145277598D01*
X105150130Y-145086420D01*
X105190500Y-144883465D01*
X105190500Y-144676535D01*
X105150130Y-144473580D01*
X105070941Y-144282402D01*
X104955977Y-144110345D01*
X104809655Y-143964023D01*
X104794445Y-143953860D01*
X104637597Y-143849058D01*
X104446418Y-143769869D01*
X104243467Y-143729500D01*
X104243465Y-143729500D01*
X104036535Y-143729500D01*
X104036532Y-143729500D01*
X103833580Y-143769870D01*
X103833578Y-143769870D01*
X103697596Y-143826196D01*
X103636600Y-143830997D01*
X103589707Y-143804736D01*
X100855859Y-141070888D01*
X98101511Y-138316540D01*
X98092066Y-138311087D01*
X98032989Y-138276979D01*
X98032988Y-138276978D01*
X98032987Y-138276978D01*
X97956564Y-138256500D01*
X97956562Y-138256500D01*
X95063321Y-138256500D01*
X95005130Y-138237593D01*
X94993323Y-138227509D01*
X94922314Y-138156500D01*
X94922311Y-138156498D01*
X94922309Y-138156496D01*
X94808189Y-138090609D01*
X94808191Y-138090609D01*
X94758799Y-138077375D01*
X94680892Y-138056500D01*
X94549108Y-138056500D01*
X94471200Y-138077375D01*
X94421809Y-138090609D01*
X94307690Y-138156496D01*
X94307680Y-138156504D01*
X94304586Y-138159598D01*
X94250066Y-138187368D01*
X94203584Y-138180000D01*
X93485001Y-138180000D01*
X93485000Y-138180001D01*
X92985000Y-138180001D01*
X92985000Y-136680001D01*
X93485000Y-136680001D01*
X93485000Y-137679999D01*
X93485001Y-137680000D01*
X94184998Y-137680000D01*
X94184999Y-137679999D01*
X94184999Y-137631677D01*
X94174857Y-137532402D01*
X94174854Y-137532390D01*
X94121546Y-137371514D01*
X94035474Y-137231974D01*
X94021017Y-137172521D01*
X94035474Y-137128026D01*
X94121546Y-136988485D01*
X94174856Y-136827603D01*
X94185000Y-136728323D01*
X94185000Y-136680001D01*
X94184999Y-136680000D01*
X93485001Y-136680000D01*
X93485000Y-136680001D01*
X92985000Y-136680001D01*
X92985000Y-135180001D01*
X93485000Y-135180001D01*
X93485000Y-136179999D01*
X93485001Y-136180000D01*
X94184998Y-136180000D01*
X94184999Y-136179999D01*
X94184999Y-136131677D01*
X94174857Y-136032402D01*
X94174854Y-136032390D01*
X94121546Y-135871514D01*
X94035474Y-135731974D01*
X94021017Y-135672521D01*
X94035474Y-135628026D01*
X94121546Y-135488485D01*
X94174856Y-135327603D01*
X94185000Y-135228323D01*
X94185000Y-135180001D01*
X94184999Y-135180000D01*
X93485001Y-135180000D01*
X93485000Y-135180001D01*
X92985000Y-135180001D01*
X92985000Y-133680001D01*
X93485000Y-133680001D01*
X93485000Y-134679999D01*
X93485001Y-134680000D01*
X94184998Y-134680000D01*
X94184999Y-134679999D01*
X94184999Y-134631677D01*
X94174857Y-134532402D01*
X94174854Y-134532390D01*
X94121546Y-134371514D01*
X94035474Y-134231974D01*
X94021017Y-134172521D01*
X94035474Y-134128026D01*
X94121546Y-133988485D01*
X94174856Y-133827603D01*
X94185000Y-133728323D01*
X94185000Y-133680001D01*
X94184999Y-133680000D01*
X93485001Y-133680000D01*
X93485000Y-133680001D01*
X92985000Y-133680001D01*
X92985000Y-131553500D01*
X93003907Y-131495309D01*
X93053407Y-131459345D01*
X93084000Y-131454500D01*
X93386000Y-131454500D01*
X93444191Y-131473407D01*
X93480155Y-131522907D01*
X93485000Y-131553500D01*
X93485000Y-133179999D01*
X93485001Y-133180000D01*
X94184998Y-133180000D01*
X94184999Y-133179999D01*
X94184999Y-133131677D01*
X94174857Y-133032402D01*
X94174854Y-133032390D01*
X94121546Y-132871514D01*
X94035474Y-132731974D01*
X94029930Y-132709178D01*
X94021017Y-132687480D01*
X94022835Y-132680000D01*
X94021017Y-132672521D01*
X94035474Y-132628027D01*
X94105360Y-132514726D01*
X94152001Y-132475125D01*
X94213012Y-132470502D01*
X94259624Y-132496695D01*
X94880504Y-133117575D01*
X94908281Y-133172092D01*
X94909500Y-133187579D01*
X94909500Y-133719674D01*
X94929978Y-133796098D01*
X94937463Y-133809061D01*
X94958266Y-133845093D01*
X94958267Y-133845097D01*
X94958268Y-133845097D01*
X94969538Y-133864618D01*
X94969539Y-133864620D01*
X95193539Y-134088621D01*
X95193540Y-134088621D01*
X95495430Y-134390511D01*
X96275379Y-135170460D01*
X96275381Y-135170461D01*
X96275382Y-135170462D01*
X96275383Y-135170463D01*
X96343898Y-135210020D01*
X96343896Y-135210020D01*
X96343900Y-135210021D01*
X96343902Y-135210022D01*
X96420328Y-135230500D01*
X96499452Y-135230500D01*
X96952641Y-135230500D01*
X97010832Y-135249407D01*
X97046796Y-135298907D01*
X97050004Y-135312275D01*
X97050282Y-135313129D01*
X97111470Y-135433217D01*
X97111472Y-135433220D01*
X97206780Y-135528528D01*
X97326874Y-135589719D01*
X97326878Y-135589719D01*
X97330445Y-135591537D01*
X97346835Y-135607927D01*
X97365593Y-135621556D01*
X97368061Y-135629154D01*
X97373709Y-135634802D01*
X97384500Y-135679747D01*
X97384500Y-135680251D01*
X97365593Y-135738442D01*
X97330446Y-135768460D01*
X97206781Y-135831471D01*
X97111470Y-135926782D01*
X97050283Y-136046867D01*
X97050281Y-136046874D01*
X97034500Y-136146510D01*
X97034500Y-136713489D01*
X97050281Y-136813125D01*
X97050283Y-136813132D01*
X97111470Y-136933217D01*
X97111472Y-136933220D01*
X97206780Y-137028528D01*
X97206782Y-137028529D01*
X97326867Y-137089716D01*
X97326869Y-137089716D01*
X97326874Y-137089719D01*
X97401869Y-137101597D01*
X97426510Y-137105500D01*
X97426512Y-137105500D01*
X97943490Y-137105500D01*
X97964885Y-137102111D01*
X98043126Y-137089719D01*
X98163220Y-137028528D01*
X98258528Y-136933220D01*
X98319719Y-136813126D01*
X98335500Y-136713488D01*
X98335500Y-136146512D01*
X98333150Y-136131677D01*
X98331703Y-136122541D01*
X98319719Y-136046874D01*
X98319716Y-136046869D01*
X98319716Y-136046867D01*
X98258529Y-135926782D01*
X98258528Y-135926780D01*
X98163220Y-135831472D01*
X98160844Y-135830261D01*
X98039554Y-135768460D01*
X98023164Y-135752070D01*
X98004407Y-135738442D01*
X98001938Y-135730843D01*
X97996290Y-135725195D01*
X97985500Y-135680251D01*
X97985500Y-135679747D01*
X98004407Y-135621556D01*
X98039555Y-135591537D01*
X98043121Y-135589719D01*
X98043126Y-135589719D01*
X98163220Y-135528528D01*
X98258528Y-135433220D01*
X98319719Y-135313126D01*
X98334588Y-135219246D01*
X98335500Y-135213489D01*
X98335500Y-134646510D01*
X98323360Y-134569864D01*
X98319719Y-134546874D01*
X98319716Y-134546869D01*
X98319716Y-134546867D01*
X98258529Y-134426782D01*
X98258528Y-134426780D01*
X98163220Y-134331472D01*
X98163217Y-134331470D01*
X98039061Y-134268209D01*
X97995796Y-134224945D01*
X97986225Y-134164513D01*
X98014003Y-134109996D01*
X98039061Y-134091791D01*
X98146147Y-134037227D01*
X98163220Y-134028528D01*
X98258528Y-133933220D01*
X98319719Y-133813126D01*
X98335500Y-133713488D01*
X98335500Y-133146512D01*
X98333150Y-133131677D01*
X98331703Y-133122541D01*
X98319719Y-133046874D01*
X98258528Y-132926780D01*
X98258526Y-132926778D01*
X98257334Y-132924438D01*
X98247762Y-132864006D01*
X98275539Y-132809489D01*
X98293571Y-132795231D01*
X98362731Y-132752572D01*
X98482571Y-132632732D01*
X98561205Y-132505248D01*
X98607847Y-132465647D01*
X98668857Y-132461024D01*
X98715467Y-132487215D01*
X98756780Y-132528528D01*
X98768609Y-132534555D01*
X98880939Y-132591791D01*
X98924203Y-132635056D01*
X98933774Y-132695488D01*
X98905996Y-132750004D01*
X98880939Y-132768209D01*
X98756781Y-132831471D01*
X98661470Y-132926782D01*
X98600283Y-133046867D01*
X98600281Y-133046874D01*
X98586850Y-133131677D01*
X98584500Y-133146512D01*
X98584500Y-133713488D01*
X98600067Y-133811778D01*
X98600281Y-133813125D01*
X98600283Y-133813132D01*
X98661470Y-133933217D01*
X98661472Y-133933220D01*
X98756780Y-134028528D01*
X98773853Y-134037227D01*
X98880939Y-134091791D01*
X98924203Y-134135056D01*
X98933774Y-134195488D01*
X98905996Y-134250004D01*
X98880939Y-134268209D01*
X98756781Y-134331471D01*
X98661470Y-134426782D01*
X98600283Y-134546867D01*
X98600281Y-134546874D01*
X98584500Y-134646510D01*
X98584500Y-135213489D01*
X98600281Y-135313125D01*
X98600283Y-135313132D01*
X98661470Y-135433217D01*
X98661472Y-135433220D01*
X98756780Y-135528528D01*
X98876874Y-135589719D01*
X98876878Y-135589719D01*
X98880445Y-135591537D01*
X98896835Y-135607927D01*
X98915593Y-135621556D01*
X98918061Y-135629154D01*
X98923709Y-135634802D01*
X98934500Y-135679747D01*
X98934500Y-135680251D01*
X98915593Y-135738442D01*
X98880446Y-135768460D01*
X98756781Y-135831471D01*
X98661470Y-135926782D01*
X98600283Y-136046867D01*
X98600281Y-136046874D01*
X98584500Y-136146510D01*
X98584500Y-136713489D01*
X98600281Y-136813125D01*
X98600283Y-136813132D01*
X98661470Y-136933217D01*
X98661472Y-136933220D01*
X98756780Y-137028528D01*
X98756782Y-137028529D01*
X98876867Y-137089716D01*
X98876869Y-137089716D01*
X98876874Y-137089719D01*
X98951869Y-137101597D01*
X98976510Y-137105500D01*
X98976512Y-137105500D01*
X99493490Y-137105500D01*
X99514885Y-137102111D01*
X99593126Y-137089719D01*
X99713220Y-137028528D01*
X99808528Y-136933220D01*
X99869719Y-136813126D01*
X99885500Y-136713488D01*
X99885500Y-136146512D01*
X99883150Y-136131677D01*
X99881703Y-136122541D01*
X99869719Y-136046874D01*
X99869716Y-136046869D01*
X99869716Y-136046867D01*
X99808529Y-135926782D01*
X99808528Y-135926780D01*
X99713220Y-135831472D01*
X99710844Y-135830261D01*
X99589554Y-135768460D01*
X99573164Y-135752070D01*
X99554407Y-135738442D01*
X99551938Y-135730843D01*
X99546290Y-135725195D01*
X99535500Y-135680251D01*
X99535500Y-135679747D01*
X99554407Y-135621556D01*
X99589555Y-135591537D01*
X99593121Y-135589719D01*
X99593126Y-135589719D01*
X99713220Y-135528528D01*
X99808528Y-135433220D01*
X99865169Y-135322054D01*
X99881560Y-135305663D01*
X99895188Y-135286907D01*
X99902785Y-135284438D01*
X99908434Y-135278790D01*
X99953379Y-135268000D01*
X99964201Y-135268000D01*
X100022392Y-135286907D01*
X100052410Y-135322054D01*
X100064810Y-135346390D01*
X100110342Y-135435751D01*
X100204249Y-135529658D01*
X100322580Y-135589951D01*
X100389130Y-135600491D01*
X100420751Y-135605500D01*
X100420754Y-135605500D01*
X100999249Y-135605500D01*
X101027803Y-135600976D01*
X101097420Y-135589951D01*
X101215751Y-135529658D01*
X101309658Y-135435751D01*
X101369951Y-135317420D01*
X101383249Y-135233458D01*
X101385500Y-135219248D01*
X101385500Y-134715751D01*
X101377778Y-134667000D01*
X101369951Y-134617580D01*
X101309658Y-134499249D01*
X101215751Y-134405342D01*
X101186644Y-134390511D01*
X101097423Y-134345050D01*
X101097420Y-134345049D01*
X101072876Y-134341161D01*
X100999249Y-134329500D01*
X100999246Y-134329500D01*
X100420754Y-134329500D01*
X100420751Y-134329500D01*
X100322580Y-134345049D01*
X100322576Y-134345050D01*
X100204250Y-134405341D01*
X100110341Y-134499250D01*
X100059350Y-134599324D01*
X100016085Y-134642588D01*
X99955653Y-134652159D01*
X99901137Y-134624381D01*
X99873360Y-134569864D01*
X99869719Y-134546875D01*
X99869716Y-134546867D01*
X99808529Y-134426782D01*
X99808528Y-134426780D01*
X99713220Y-134331472D01*
X99713217Y-134331470D01*
X99589061Y-134268209D01*
X99545796Y-134224945D01*
X99536225Y-134164513D01*
X99564003Y-134109996D01*
X99589061Y-134091791D01*
X99696147Y-134037227D01*
X99713220Y-134028528D01*
X99808528Y-133933220D01*
X99869719Y-133813126D01*
X99869719Y-133813119D01*
X99872126Y-133805718D01*
X99873204Y-133806068D01*
X99873204Y-133798907D01*
X99886830Y-133780151D01*
X99897351Y-133759501D01*
X99904470Y-133755873D01*
X99909168Y-133749407D01*
X99931215Y-133742243D01*
X99951866Y-133731720D01*
X99967359Y-133730500D01*
X99983308Y-133730500D01*
X100041499Y-133749407D01*
X100071517Y-133784554D01*
X100092987Y-133826691D01*
X100110342Y-133860751D01*
X100204249Y-133954658D01*
X100322580Y-134014951D01*
X100389130Y-134025491D01*
X100420751Y-134030500D01*
X100420754Y-134030500D01*
X100999249Y-134030500D01*
X101027803Y-134025976D01*
X101097420Y-134014951D01*
X101215751Y-133954658D01*
X101309658Y-133860751D01*
X101369951Y-133742420D01*
X101385500Y-133644246D01*
X101385500Y-133140754D01*
X101384062Y-133131677D01*
X101377715Y-133091600D01*
X101369951Y-133042580D01*
X101309658Y-132924249D01*
X101215751Y-132830342D01*
X101097420Y-132770049D01*
X101093809Y-132768209D01*
X101050545Y-132724945D01*
X101040974Y-132664512D01*
X101068752Y-132609996D01*
X101093809Y-132591791D01*
X101132470Y-132572092D01*
X101215751Y-132529658D01*
X101309658Y-132435751D01*
X101369951Y-132317420D01*
X101369951Y-132317415D01*
X101372999Y-132311435D01*
X101416264Y-132268170D01*
X101476696Y-132258599D01*
X101531212Y-132286376D01*
X101549418Y-132311434D01*
X101581806Y-132374998D01*
X101611472Y-132433220D01*
X101706780Y-132528528D01*
X101706782Y-132528529D01*
X101826867Y-132589716D01*
X101826869Y-132589716D01*
X101826874Y-132589719D01*
X101902541Y-132601703D01*
X101926510Y-132605500D01*
X101926512Y-132605500D01*
X102493490Y-132605500D01*
X102514936Y-132602103D01*
X102593126Y-132589719D01*
X102713220Y-132528528D01*
X102808528Y-132433220D01*
X102869719Y-132313126D01*
X102885500Y-132213488D01*
X102885500Y-131696512D01*
X102869719Y-131596874D01*
X102869716Y-131596869D01*
X102869716Y-131596867D01*
X102808529Y-131476782D01*
X102808528Y-131476780D01*
X102713220Y-131381472D01*
X102713217Y-131381470D01*
X102593132Y-131320283D01*
X102593127Y-131320281D01*
X102593126Y-131320281D01*
X102559913Y-131315020D01*
X102493490Y-131304500D01*
X102493488Y-131304500D01*
X101926512Y-131304500D01*
X101926510Y-131304500D01*
X101826874Y-131320281D01*
X101826867Y-131320283D01*
X101706782Y-131381470D01*
X101706780Y-131381472D01*
X101611472Y-131476780D01*
X101550281Y-131596874D01*
X101550280Y-131596875D01*
X101548462Y-131600445D01*
X101532070Y-131616836D01*
X101518443Y-131635593D01*
X101510845Y-131638061D01*
X101505197Y-131643710D01*
X101460252Y-131654500D01*
X101449430Y-131654500D01*
X101391239Y-131635593D01*
X101361221Y-131600446D01*
X101317622Y-131514880D01*
X101309658Y-131499249D01*
X101215751Y-131405342D01*
X101151849Y-131372782D01*
X101097423Y-131345050D01*
X101097420Y-131345049D01*
X101072876Y-131341161D01*
X100999249Y-131329500D01*
X100999246Y-131329500D01*
X100420754Y-131329500D01*
X100420751Y-131329500D01*
X100322580Y-131345049D01*
X100322576Y-131345050D01*
X100204250Y-131405341D01*
X100110341Y-131499250D01*
X100071517Y-131575446D01*
X100055127Y-131591835D01*
X100041499Y-131610593D01*
X100033900Y-131613061D01*
X100028252Y-131618710D01*
X99983308Y-131629500D01*
X99967359Y-131629500D01*
X99909168Y-131610593D01*
X99873204Y-131561093D01*
X99869995Y-131547724D01*
X99869719Y-131546878D01*
X99869719Y-131546874D01*
X99808528Y-131426780D01*
X99713220Y-131331472D01*
X99713217Y-131331470D01*
X99589061Y-131268209D01*
X99545796Y-131224945D01*
X99536225Y-131164513D01*
X99564003Y-131109996D01*
X99589061Y-131091791D01*
X99703116Y-131033676D01*
X99713220Y-131028528D01*
X99808528Y-130933220D01*
X99869719Y-130813126D01*
X99873360Y-130790133D01*
X99901137Y-130735618D01*
X99955653Y-130707840D01*
X100016085Y-130717411D01*
X100059350Y-130760675D01*
X100086075Y-130813125D01*
X100110342Y-130860751D01*
X100204249Y-130954658D01*
X100285375Y-130995994D01*
X100322446Y-131014883D01*
X100322580Y-131014951D01*
X100389130Y-131025491D01*
X100420751Y-131030500D01*
X100420754Y-131030500D01*
X100999249Y-131030500D01*
X101027803Y-131025976D01*
X101097420Y-131014951D01*
X101215751Y-130954658D01*
X101309658Y-130860751D01*
X101350775Y-130780052D01*
X101361221Y-130759554D01*
X101377610Y-130743164D01*
X101391239Y-130724407D01*
X101398837Y-130721938D01*
X101404486Y-130716290D01*
X101449430Y-130705500D01*
X101460252Y-130705500D01*
X101518443Y-130724407D01*
X101548462Y-130759555D01*
X101550280Y-130763124D01*
X101550281Y-130763126D01*
X101611472Y-130883220D01*
X101706780Y-130978528D01*
X101706782Y-130978529D01*
X101826867Y-131039716D01*
X101826869Y-131039716D01*
X101826874Y-131039719D01*
X101902541Y-131051703D01*
X101926510Y-131055500D01*
X101926512Y-131055500D01*
X102493490Y-131055500D01*
X102514885Y-131052111D01*
X102593126Y-131039719D01*
X102713220Y-130978528D01*
X102808528Y-130883220D01*
X102869719Y-130763126D01*
X102885500Y-130663488D01*
X102885500Y-130146512D01*
X102869719Y-130046874D01*
X102869716Y-130046869D01*
X102869716Y-130046867D01*
X102808529Y-129926782D01*
X102808528Y-129926780D01*
X102713220Y-129831472D01*
X102709810Y-129829735D01*
X102597496Y-129772507D01*
X102554232Y-129729242D01*
X102544661Y-129668810D01*
X102572439Y-129614294D01*
X102603812Y-129595070D01*
X102603361Y-129594184D01*
X102633948Y-129578598D01*
X102723342Y-129533050D01*
X102813050Y-129443342D01*
X102870646Y-129330304D01*
X102883380Y-129249907D01*
X102885500Y-129236521D01*
X102885500Y-129155001D01*
X104215001Y-129155001D01*
X104215001Y-129364658D01*
X104230571Y-129482935D01*
X104230572Y-129482936D01*
X104291531Y-129630107D01*
X104291533Y-129630111D01*
X104388508Y-129756490D01*
X104388509Y-129756491D01*
X104514888Y-129853466D01*
X104514892Y-129853468D01*
X104662058Y-129914426D01*
X104662066Y-129914428D01*
X104780343Y-129929999D01*
X105564998Y-129929999D01*
X105565000Y-129929998D01*
X105565000Y-129155001D01*
X106065000Y-129155001D01*
X106065000Y-129929998D01*
X106065001Y-129929999D01*
X106849654Y-129929999D01*
X106849658Y-129929998D01*
X106967935Y-129914428D01*
X106967936Y-129914427D01*
X107115107Y-129853468D01*
X107115111Y-129853466D01*
X107241490Y-129756491D01*
X107241491Y-129756490D01*
X107338466Y-129630111D01*
X107338468Y-129630107D01*
X107399426Y-129482941D01*
X107399428Y-129482933D01*
X107414999Y-129364657D01*
X107415000Y-129364656D01*
X107415000Y-129155001D01*
X107414999Y-129155000D01*
X106065001Y-129155000D01*
X106065000Y-129155001D01*
X105565000Y-129155001D01*
X105564999Y-129155000D01*
X104215002Y-129155000D01*
X104215001Y-129155001D01*
X102885500Y-129155001D01*
X102885500Y-129113993D01*
X102885499Y-128623479D01*
X102885498Y-128623476D01*
X102870647Y-128529700D01*
X102870646Y-128529698D01*
X102870646Y-128529696D01*
X102813050Y-128416658D01*
X102723342Y-128326950D01*
X102710783Y-128320551D01*
X102639554Y-128284257D01*
X102623164Y-128267867D01*
X102604407Y-128254239D01*
X102601938Y-128246640D01*
X102596290Y-128240992D01*
X102585500Y-128196048D01*
X102585500Y-128154271D01*
X102604407Y-128096080D01*
X102639551Y-128066064D01*
X102713220Y-128028528D01*
X102808528Y-127933220D01*
X102869719Y-127813126D01*
X102869719Y-127813124D01*
X102871538Y-127809555D01*
X102914803Y-127766290D01*
X102959748Y-127755500D01*
X103515501Y-127755500D01*
X103573692Y-127774407D01*
X103609656Y-127823907D01*
X103614501Y-127854500D01*
X103614501Y-127874863D01*
X103617414Y-127899990D01*
X103632087Y-127933220D01*
X103662794Y-128002765D01*
X103742235Y-128082206D01*
X103845009Y-128127585D01*
X103870135Y-128130500D01*
X104163829Y-128130499D01*
X104222017Y-128149406D01*
X104257981Y-128198906D01*
X104257982Y-128260091D01*
X104255291Y-128267384D01*
X104230573Y-128327057D01*
X104230571Y-128327066D01*
X104215000Y-128445342D01*
X104215000Y-128654999D01*
X104215001Y-128655000D01*
X105564999Y-128655000D01*
X105565000Y-128654999D01*
X105565000Y-127880001D01*
X106065000Y-127880001D01*
X106065000Y-128654999D01*
X106065001Y-128655000D01*
X107414998Y-128655000D01*
X107414999Y-128654999D01*
X107414999Y-128528999D01*
X107433906Y-128470808D01*
X107483406Y-128434844D01*
X107513999Y-128429999D01*
X107754320Y-128429999D01*
X107754324Y-128429998D01*
X107871629Y-128414556D01*
X107871631Y-128414555D01*
X108017585Y-128354100D01*
X108017589Y-128354098D01*
X108142919Y-128257929D01*
X108142929Y-128257919D01*
X108239098Y-128132589D01*
X108239100Y-128132585D01*
X108299555Y-127986631D01*
X108299556Y-127986630D01*
X108314999Y-127869323D01*
X108315000Y-127869322D01*
X108315000Y-127680001D01*
X108314999Y-127680000D01*
X106315002Y-127680000D01*
X106315001Y-127680001D01*
X106315001Y-127781000D01*
X106296094Y-127839191D01*
X106246594Y-127875155D01*
X106216001Y-127880000D01*
X106065001Y-127880000D01*
X106065000Y-127880001D01*
X105565000Y-127880001D01*
X105564999Y-127880000D01*
X105114500Y-127880000D01*
X105056309Y-127861093D01*
X105020345Y-127811593D01*
X105015500Y-127781000D01*
X105015499Y-127078999D01*
X105034406Y-127020808D01*
X105083906Y-126984844D01*
X105114499Y-126979999D01*
X105564999Y-126979999D01*
X105565000Y-126979998D01*
X105565000Y-126205001D01*
X106065000Y-126205001D01*
X106065000Y-126979998D01*
X106065001Y-126979999D01*
X106216000Y-126979999D01*
X106274191Y-126998906D01*
X106310155Y-127048406D01*
X106315000Y-127078999D01*
X106315000Y-127179999D01*
X106315001Y-127180000D01*
X108314998Y-127180000D01*
X108314999Y-127179999D01*
X108314999Y-126990680D01*
X108314998Y-126990675D01*
X108299556Y-126873370D01*
X108299555Y-126873368D01*
X108239100Y-126727414D01*
X108239098Y-126727410D01*
X108142929Y-126602080D01*
X108142919Y-126602070D01*
X108017589Y-126505901D01*
X108017585Y-126505899D01*
X107871631Y-126445444D01*
X107871630Y-126445443D01*
X107754323Y-126430000D01*
X107514000Y-126430000D01*
X107455809Y-126411093D01*
X107419845Y-126361593D01*
X107415000Y-126331000D01*
X107415000Y-126205001D01*
X107414999Y-126205000D01*
X106065001Y-126205000D01*
X106065000Y-126205001D01*
X105565000Y-126205001D01*
X105564999Y-126205000D01*
X104215002Y-126205000D01*
X104215001Y-126205001D01*
X104215001Y-126414658D01*
X104230571Y-126532935D01*
X104230572Y-126532937D01*
X104255291Y-126592615D01*
X104260091Y-126653612D01*
X104228122Y-126705781D01*
X104171594Y-126729195D01*
X104163827Y-126729500D01*
X103870139Y-126729500D01*
X103870136Y-126729501D01*
X103845009Y-126732414D01*
X103742235Y-126777794D01*
X103662794Y-126857235D01*
X103617414Y-126960011D01*
X103614500Y-126985130D01*
X103614500Y-127055500D01*
X103595593Y-127113691D01*
X103546093Y-127149655D01*
X103515500Y-127154500D01*
X102959748Y-127154500D01*
X102901557Y-127135593D01*
X102871538Y-127100445D01*
X102869719Y-127096875D01*
X102869719Y-127096874D01*
X102808528Y-126976780D01*
X102713220Y-126881472D01*
X102713217Y-126881470D01*
X102593132Y-126820283D01*
X102593127Y-126820281D01*
X102593126Y-126820281D01*
X102559913Y-126815020D01*
X102493490Y-126804500D01*
X102493488Y-126804500D01*
X101926512Y-126804500D01*
X101926510Y-126804500D01*
X101826874Y-126820281D01*
X101826867Y-126820283D01*
X101706782Y-126881470D01*
X101706780Y-126881472D01*
X101611472Y-126976780D01*
X101550281Y-127096874D01*
X101550280Y-127096875D01*
X101548462Y-127100445D01*
X101532070Y-127116836D01*
X101518443Y-127135593D01*
X101510845Y-127138061D01*
X101505197Y-127143710D01*
X101460252Y-127154500D01*
X101459748Y-127154500D01*
X101401557Y-127135593D01*
X101371538Y-127100445D01*
X101369719Y-127096875D01*
X101369719Y-127096874D01*
X101308528Y-126976780D01*
X101213220Y-126881472D01*
X101213217Y-126881470D01*
X101093132Y-126820283D01*
X101093127Y-126820281D01*
X101093126Y-126820281D01*
X101059913Y-126815020D01*
X100993490Y-126804500D01*
X100993488Y-126804500D01*
X100426512Y-126804500D01*
X100426510Y-126804500D01*
X100326874Y-126820281D01*
X100326867Y-126820283D01*
X100206782Y-126881470D01*
X100111471Y-126976781D01*
X100056903Y-127083876D01*
X100013638Y-127127140D01*
X99953206Y-127136711D01*
X99898690Y-127108933D01*
X99870913Y-127054417D01*
X99869719Y-127046874D01*
X99869717Y-127046870D01*
X99869716Y-127046867D01*
X99808529Y-126926782D01*
X99808528Y-126926780D01*
X99713220Y-126831472D01*
X99699843Y-126824656D01*
X99597496Y-126772507D01*
X99554232Y-126729242D01*
X99544661Y-126668810D01*
X99572439Y-126614294D01*
X99603812Y-126595070D01*
X99603361Y-126594184D01*
X99637894Y-126576588D01*
X99723342Y-126533050D01*
X99813050Y-126443342D01*
X99870646Y-126330304D01*
X99873226Y-126314013D01*
X99876852Y-126306897D01*
X99876852Y-126298907D01*
X99890480Y-126280148D01*
X99901003Y-126259497D01*
X99908119Y-126255870D01*
X99912816Y-126249407D01*
X99934865Y-126242242D01*
X99955519Y-126231719D01*
X99971007Y-126230500D01*
X99972990Y-126230500D01*
X100031181Y-126249407D01*
X100061199Y-126284555D01*
X100105247Y-126371003D01*
X100111472Y-126383220D01*
X100206780Y-126478528D01*
X100206782Y-126478529D01*
X100326867Y-126539716D01*
X100326869Y-126539716D01*
X100326874Y-126539719D01*
X100402541Y-126551703D01*
X100426510Y-126555500D01*
X100426512Y-126555500D01*
X100993490Y-126555500D01*
X101014885Y-126552111D01*
X101093126Y-126539719D01*
X101213220Y-126478528D01*
X101308528Y-126383220D01*
X101369719Y-126263126D01*
X101369719Y-126263124D01*
X101371538Y-126259555D01*
X101387929Y-126243163D01*
X101401557Y-126224407D01*
X101409154Y-126221938D01*
X101414803Y-126216290D01*
X101459748Y-126205500D01*
X101460252Y-126205500D01*
X101518443Y-126224407D01*
X101548462Y-126259555D01*
X101550280Y-126263124D01*
X101550281Y-126263126D01*
X101611472Y-126383220D01*
X101706780Y-126478528D01*
X101706782Y-126478529D01*
X101826867Y-126539716D01*
X101826869Y-126539716D01*
X101826874Y-126539719D01*
X101902541Y-126551703D01*
X101926510Y-126555500D01*
X101926512Y-126555500D01*
X102493490Y-126555500D01*
X102514885Y-126552111D01*
X102593126Y-126539719D01*
X102713220Y-126478528D01*
X102808528Y-126383220D01*
X102869719Y-126263126D01*
X102883601Y-126175473D01*
X102885500Y-126163489D01*
X102885500Y-125646510D01*
X102878846Y-125604500D01*
X102869719Y-125546874D01*
X102869717Y-125546870D01*
X102869717Y-125546869D01*
X102864713Y-125537048D01*
X102843463Y-125495342D01*
X104215000Y-125495342D01*
X104215000Y-125704999D01*
X104215001Y-125705000D01*
X105564999Y-125705000D01*
X105565000Y-125704999D01*
X105565000Y-124930001D01*
X106065000Y-124930001D01*
X106065000Y-125704999D01*
X106065001Y-125705000D01*
X107414998Y-125705000D01*
X107414999Y-125704999D01*
X107414999Y-125495346D01*
X107414998Y-125495341D01*
X107399428Y-125377064D01*
X107399427Y-125377063D01*
X107338468Y-125229892D01*
X107338466Y-125229888D01*
X107241491Y-125103509D01*
X107241490Y-125103508D01*
X107115111Y-125006533D01*
X107115107Y-125006531D01*
X106967941Y-124945573D01*
X106967933Y-124945571D01*
X106849657Y-124930000D01*
X106065001Y-124930000D01*
X106065000Y-124930001D01*
X105565000Y-124930001D01*
X105564999Y-124930000D01*
X104780346Y-124930000D01*
X104780341Y-124930001D01*
X104662064Y-124945571D01*
X104662063Y-124945572D01*
X104514892Y-125006531D01*
X104514888Y-125006533D01*
X104388509Y-125103508D01*
X104388508Y-125103509D01*
X104291533Y-125229888D01*
X104291531Y-125229892D01*
X104230573Y-125377058D01*
X104230571Y-125377066D01*
X104215000Y-125495342D01*
X102843463Y-125495342D01*
X102832286Y-125473407D01*
X102808528Y-125426780D01*
X102808526Y-125426778D01*
X102807334Y-125424438D01*
X102797762Y-125364006D01*
X102825539Y-125309489D01*
X102843571Y-125295231D01*
X102912731Y-125252572D01*
X103032574Y-125132729D01*
X103121545Y-124988487D01*
X103174856Y-124827603D01*
X103185000Y-124728323D01*
X103185000Y-124680001D01*
X103184999Y-124680000D01*
X102334000Y-124680000D01*
X102275809Y-124661093D01*
X102239845Y-124611593D01*
X102235000Y-124581000D01*
X102235000Y-124279000D01*
X102253907Y-124220809D01*
X102303407Y-124184845D01*
X102334000Y-124180000D01*
X103184998Y-124180000D01*
X103184999Y-124179999D01*
X103184999Y-124131677D01*
X103177785Y-124061061D01*
X103190680Y-124001250D01*
X103236269Y-123960442D01*
X103276272Y-123952000D01*
X108620500Y-123952000D01*
X108678691Y-123970907D01*
X108714655Y-124020407D01*
X108719500Y-124051000D01*
X108719500Y-149611678D01*
X108700593Y-149669869D01*
X108690504Y-149681682D01*
X106501682Y-151870504D01*
X106447165Y-151898281D01*
X106431678Y-151899500D01*
X78988322Y-151899500D01*
X78930131Y-151880593D01*
X78918318Y-151870504D01*
X76729496Y-149681682D01*
X76701719Y-149627165D01*
X76700500Y-149611678D01*
X76700500Y-146450253D01*
X80229500Y-146450253D01*
X80229500Y-148189746D01*
X80229501Y-148189758D01*
X80241132Y-148248227D01*
X80241134Y-148248233D01*
X80285445Y-148314548D01*
X80285448Y-148314552D01*
X80351769Y-148358867D01*
X80396231Y-148367711D01*
X80410241Y-148370498D01*
X80410246Y-148370498D01*
X80410252Y-148370500D01*
X80410253Y-148370500D01*
X82149747Y-148370500D01*
X82149748Y-148370500D01*
X82208231Y-148358867D01*
X82274552Y-148314552D01*
X82318867Y-148248231D01*
X82330500Y-148189748D01*
X82330500Y-147216532D01*
X82769500Y-147216532D01*
X82769500Y-147423467D01*
X82809869Y-147626418D01*
X82889058Y-147817597D01*
X83004020Y-147989651D01*
X83004023Y-147989655D01*
X83150345Y-148135977D01*
X83322402Y-148250941D01*
X83513580Y-148330130D01*
X83716535Y-148370500D01*
X83716536Y-148370500D01*
X83923464Y-148370500D01*
X83923465Y-148370500D01*
X84126420Y-148330130D01*
X84317598Y-148250941D01*
X84489655Y-148135977D01*
X84635977Y-147989655D01*
X84750941Y-147817598D01*
X84830130Y-147626420D01*
X84870500Y-147423465D01*
X84870500Y-147216535D01*
X84870499Y-147216532D01*
X85309500Y-147216532D01*
X85309500Y-147423467D01*
X85349869Y-147626418D01*
X85429058Y-147817597D01*
X85544020Y-147989651D01*
X85544023Y-147989655D01*
X85690345Y-148135977D01*
X85862402Y-148250941D01*
X86053580Y-148330130D01*
X86256535Y-148370500D01*
X86256536Y-148370500D01*
X86463464Y-148370500D01*
X86463465Y-148370500D01*
X86666420Y-148330130D01*
X86857598Y-148250941D01*
X87029655Y-148135977D01*
X87175977Y-147989655D01*
X87290941Y-147817598D01*
X87370130Y-147626420D01*
X87410500Y-147423465D01*
X87410500Y-147216535D01*
X87370130Y-147013580D01*
X87290941Y-146822402D01*
X87175977Y-146650345D01*
X87029655Y-146504023D01*
X86949182Y-146450253D01*
X86857597Y-146389058D01*
X86666418Y-146309869D01*
X86463467Y-146269500D01*
X86463465Y-146269500D01*
X86256535Y-146269500D01*
X86256532Y-146269500D01*
X86053581Y-146309869D01*
X85862402Y-146389058D01*
X85690348Y-146504020D01*
X85544020Y-146650348D01*
X85429058Y-146822402D01*
X85349869Y-147013581D01*
X85309500Y-147216532D01*
X84870499Y-147216532D01*
X84830130Y-147013580D01*
X84750941Y-146822402D01*
X84635977Y-146650345D01*
X84489655Y-146504023D01*
X84409182Y-146450253D01*
X84317597Y-146389058D01*
X84126418Y-146309869D01*
X83923467Y-146269500D01*
X83923465Y-146269500D01*
X83716535Y-146269500D01*
X83716532Y-146269500D01*
X83513581Y-146309869D01*
X83322402Y-146389058D01*
X83150348Y-146504020D01*
X83004020Y-146650348D01*
X82889058Y-146822402D01*
X82809869Y-147013581D01*
X82769500Y-147216532D01*
X82330500Y-147216532D01*
X82330500Y-146450252D01*
X82318867Y-146391769D01*
X82274552Y-146325448D01*
X82274548Y-146325445D01*
X82208233Y-146281134D01*
X82208231Y-146281133D01*
X82208228Y-146281132D01*
X82208227Y-146281132D01*
X82149758Y-146269501D01*
X82149748Y-146269500D01*
X80410252Y-146269500D01*
X80410251Y-146269500D01*
X80410241Y-146269501D01*
X80351772Y-146281132D01*
X80351766Y-146281134D01*
X80285451Y-146325445D01*
X80285445Y-146325451D01*
X80241134Y-146391766D01*
X80241132Y-146391772D01*
X80229501Y-146450241D01*
X80229500Y-146450253D01*
X76700500Y-146450253D01*
X76700500Y-124051000D01*
X76719407Y-123992809D01*
X76768907Y-123956845D01*
X76799500Y-123952000D01*
X96643728Y-123952000D01*
X96701919Y-123970907D01*
G37*
G04 #@! TD.AperFunction*
G04 #@! TA.AperFunction,Conductor*
G36*
X90087682Y-135117710D02*
G01*
X90550504Y-135580532D01*
X90578281Y-135635049D01*
X90579500Y-135650536D01*
X90579500Y-136889672D01*
X90597005Y-136955000D01*
X90599979Y-136966099D01*
X90603962Y-136972999D01*
X90603965Y-136973003D01*
X90607139Y-136978500D01*
X90639540Y-137034621D01*
X90687814Y-137082895D01*
X90691833Y-137088162D01*
X90699879Y-137111082D01*
X90710908Y-137132728D01*
X90709841Y-137139460D01*
X90712100Y-137145893D01*
X90705137Y-137169164D01*
X90701337Y-137193160D01*
X90696515Y-137197981D01*
X90694562Y-137204511D01*
X90675253Y-137219243D01*
X90658072Y-137236425D01*
X90651337Y-137237491D01*
X90645919Y-137241626D01*
X90621635Y-137242195D01*
X90597640Y-137245996D01*
X90493491Y-137229500D01*
X90493488Y-137229500D01*
X89926512Y-137229500D01*
X89926510Y-137229500D01*
X89826874Y-137245281D01*
X89826867Y-137245283D01*
X89706782Y-137306470D01*
X89706780Y-137306472D01*
X89611472Y-137401780D01*
X89550281Y-137521874D01*
X89550280Y-137521875D01*
X89548462Y-137525445D01*
X89532070Y-137541836D01*
X89518443Y-137560593D01*
X89510845Y-137563061D01*
X89505197Y-137568710D01*
X89460252Y-137579500D01*
X89309500Y-137579500D01*
X89251309Y-137560593D01*
X89215345Y-137511093D01*
X89210500Y-137480500D01*
X89210500Y-137210253D01*
X89210498Y-137210241D01*
X89202995Y-137172521D01*
X89198867Y-137151769D01*
X89194941Y-137145893D01*
X89178184Y-137120814D01*
X89161500Y-137065814D01*
X89161500Y-135481833D01*
X89180407Y-135423642D01*
X89229907Y-135387678D01*
X89286123Y-135386206D01*
X89286811Y-135386390D01*
X89286814Y-135386392D01*
X89414108Y-135420500D01*
X89414110Y-135420500D01*
X89545890Y-135420500D01*
X89545892Y-135420500D01*
X89673186Y-135386392D01*
X89673188Y-135386390D01*
X89673190Y-135386390D01*
X89787309Y-135320503D01*
X89787309Y-135320502D01*
X89787314Y-135320500D01*
X89880500Y-135227314D01*
X89931943Y-135138212D01*
X89977411Y-135097273D01*
X90038261Y-135090877D01*
X90087682Y-135117710D01*
G37*
G04 #@! TD.AperFunction*
G04 #@! TA.AperFunction,Conductor*
G36*
X86605445Y-134697066D02*
G01*
X86648710Y-134740331D01*
X86659500Y-134785276D01*
X86659500Y-134985387D01*
X86640593Y-135043578D01*
X86615502Y-135067702D01*
X86513458Y-135135886D01*
X86513454Y-135135889D01*
X86415885Y-135233458D01*
X86339228Y-135348182D01*
X86339222Y-135348193D01*
X86286420Y-135475670D01*
X86286420Y-135475672D01*
X86259500Y-135611004D01*
X86259500Y-135748995D01*
X86286420Y-135884327D01*
X86286420Y-135884329D01*
X86339222Y-136011806D01*
X86339228Y-136011817D01*
X86415885Y-136126541D01*
X86513458Y-136224114D01*
X86628182Y-136300771D01*
X86628193Y-136300777D01*
X86675283Y-136320282D01*
X86755672Y-136353580D01*
X86891007Y-136380500D01*
X86891008Y-136380500D01*
X87028992Y-136380500D01*
X87028993Y-136380500D01*
X87164328Y-136353580D01*
X87291811Y-136300775D01*
X87406542Y-136224114D01*
X87504114Y-136126542D01*
X87580775Y-136011811D01*
X87633580Y-135884328D01*
X87660500Y-135748993D01*
X87660500Y-135611007D01*
X87635837Y-135487019D01*
X87643029Y-135426260D01*
X87684561Y-135381330D01*
X87707306Y-135372082D01*
X87803186Y-135346392D01*
X87917314Y-135280500D01*
X87990498Y-135207315D01*
X88045013Y-135179540D01*
X88105445Y-135189111D01*
X88148710Y-135232376D01*
X88159500Y-135277321D01*
X88159500Y-135913521D01*
X88140593Y-135971712D01*
X88130504Y-135983525D01*
X87514525Y-136599504D01*
X87460008Y-136627281D01*
X87444521Y-136628500D01*
X87370438Y-136628500D01*
X87323661Y-136641033D01*
X87294007Y-136648979D01*
X87225493Y-136688536D01*
X87225488Y-136688540D01*
X86969542Y-136944486D01*
X86946585Y-136984248D01*
X86901114Y-137025188D01*
X86841537Y-137031844D01*
X86829756Y-137029500D01*
X86829748Y-137029500D01*
X85390252Y-137029500D01*
X85390251Y-137029500D01*
X85390241Y-137029501D01*
X85331772Y-137041132D01*
X85331766Y-137041134D01*
X85265451Y-137085445D01*
X85265445Y-137085451D01*
X85221134Y-137151766D01*
X85221132Y-137151772D01*
X85212932Y-137192994D01*
X85183035Y-137246377D01*
X85127469Y-137271992D01*
X85067460Y-137260054D01*
X85037150Y-137230994D01*
X85036146Y-137231788D01*
X85032573Y-137227269D01*
X84912729Y-137107425D01*
X84768487Y-137018454D01*
X84607603Y-136965143D01*
X84508323Y-136955000D01*
X84489776Y-136955000D01*
X84431585Y-136936093D01*
X84395621Y-136886593D01*
X84395621Y-136825407D01*
X84419770Y-136785998D01*
X86490498Y-134715270D01*
X86545013Y-134687495D01*
X86605445Y-134697066D01*
G37*
G04 #@! TD.AperFunction*
G04 #@! TA.AperFunction,Conductor*
G36*
X86050291Y-133309418D02*
G01*
X86082263Y-133361585D01*
X86085000Y-133384702D01*
X86085000Y-133768500D01*
X86080155Y-133783411D01*
X86080155Y-133799093D01*
X86070938Y-133811778D01*
X86066093Y-133826691D01*
X86053407Y-133835907D01*
X86044191Y-133848593D01*
X86029278Y-133853438D01*
X86016593Y-133862655D01*
X85986000Y-133867500D01*
X85960000Y-133867500D01*
X85960000Y-133893500D01*
X85941093Y-133951691D01*
X85891593Y-133987655D01*
X85861000Y-133992500D01*
X85335001Y-133992500D01*
X85335000Y-133992501D01*
X85335000Y-134279371D01*
X85349477Y-134389338D01*
X85349479Y-134389346D01*
X85406155Y-134526174D01*
X85406155Y-134526175D01*
X85496315Y-134643674D01*
X85496320Y-134643679D01*
X85528879Y-134668662D01*
X85563535Y-134719087D01*
X85561934Y-134780251D01*
X85538616Y-134817209D01*
X83354504Y-137001322D01*
X83299987Y-137029099D01*
X83239555Y-137019528D01*
X83196290Y-136976263D01*
X83185500Y-136931318D01*
X83185500Y-135480478D01*
X83204407Y-135422287D01*
X83214490Y-135410480D01*
X85090475Y-133534494D01*
X85097592Y-133530868D01*
X85102288Y-133524406D01*
X85124336Y-133517242D01*
X85144992Y-133506718D01*
X85160479Y-133505499D01*
X85236000Y-133505499D01*
X85294191Y-133524406D01*
X85330155Y-133573906D01*
X85335000Y-133604499D01*
X85335000Y-133742499D01*
X85335001Y-133742500D01*
X85835000Y-133742500D01*
X85835000Y-133465304D01*
X85851685Y-133410302D01*
X85900658Y-133337009D01*
X85902094Y-133337968D01*
X85934268Y-133300294D01*
X85993762Y-133286007D01*
X86050291Y-133309418D01*
G37*
G04 #@! TD.AperFunction*
G04 #@! TA.AperFunction,Conductor*
G36*
X86578741Y-126225202D02*
G01*
X86590090Y-126234951D01*
X86630504Y-126275365D01*
X86658281Y-126329882D01*
X86659500Y-126345369D01*
X86659500Y-127955294D01*
X86640593Y-128013485D01*
X86614902Y-128032150D01*
X86585000Y-128058374D01*
X86585000Y-129926625D01*
X86669339Y-129915522D01*
X86669346Y-129915520D01*
X86806174Y-129858844D01*
X86806175Y-129858844D01*
X86923674Y-129768684D01*
X86923683Y-129768675D01*
X87003659Y-129664448D01*
X87047949Y-129631829D01*
X87055251Y-129629136D01*
X87125117Y-129615240D01*
X87164748Y-129588759D01*
X87175748Y-129584703D01*
X87195173Y-129583942D01*
X87213886Y-129578665D01*
X87226370Y-129582721D01*
X87236887Y-129582310D01*
X87248034Y-129589760D01*
X87265002Y-129595274D01*
X87294879Y-129615238D01*
X87294880Y-129615238D01*
X87294883Y-129615240D01*
X87371599Y-129630500D01*
X87548400Y-129630499D01*
X87625117Y-129615240D01*
X87654998Y-129595273D01*
X87713886Y-129578665D01*
X87765002Y-129595274D01*
X87794879Y-129615238D01*
X87794880Y-129615238D01*
X87794883Y-129615240D01*
X87871599Y-129630500D01*
X88048400Y-129630499D01*
X88125117Y-129615240D01*
X88154998Y-129595273D01*
X88213886Y-129578665D01*
X88244252Y-129584703D01*
X88255251Y-129588759D01*
X88294883Y-129615240D01*
X88364749Y-129629137D01*
X88372051Y-129631830D01*
X88390263Y-129646183D01*
X88410497Y-129657515D01*
X88416341Y-129664449D01*
X88496315Y-129768674D01*
X88496325Y-129768684D01*
X88613825Y-129858844D01*
X88750653Y-129915520D01*
X88750660Y-129915522D01*
X88834999Y-129926625D01*
X88835000Y-129926624D01*
X88835000Y-129091500D01*
X88839845Y-129076588D01*
X88839845Y-129060907D01*
X88849061Y-129048221D01*
X88853907Y-129033309D01*
X88866592Y-129024092D01*
X88875809Y-129011407D01*
X88890721Y-129006561D01*
X88903407Y-128997345D01*
X88934000Y-128992500D01*
X88986000Y-128992500D01*
X89044191Y-129011407D01*
X89080155Y-129060907D01*
X89085000Y-129091500D01*
X89085000Y-129926624D01*
X89104920Y-129924002D01*
X89165081Y-129935152D01*
X89207199Y-129979534D01*
X89215996Y-130035076D01*
X89213373Y-130054999D01*
X89213374Y-130055000D01*
X91081626Y-130055000D01*
X91096668Y-130037846D01*
X91097705Y-130032258D01*
X91142089Y-129990142D01*
X91184706Y-129980500D01*
X93794521Y-129980500D01*
X93852712Y-129999407D01*
X93864525Y-130009496D01*
X94380504Y-130525475D01*
X94408281Y-130579992D01*
X94409500Y-130595479D01*
X94409500Y-130939521D01*
X94390593Y-130997712D01*
X94341093Y-131033676D01*
X94279907Y-131033676D01*
X94240497Y-131009525D01*
X94144510Y-130913539D01*
X94075992Y-130873980D01*
X94075988Y-130873978D01*
X93999564Y-130853500D01*
X93999562Y-130853500D01*
X91169016Y-130853500D01*
X91110825Y-130834593D01*
X91094584Y-130819776D01*
X91081626Y-130805000D01*
X89213374Y-130805000D01*
X89224478Y-130889342D01*
X89281155Y-131026174D01*
X89281155Y-131026175D01*
X89371315Y-131143674D01*
X89371325Y-131143684D01*
X89475551Y-131223659D01*
X89508170Y-131267949D01*
X89510864Y-131275257D01*
X89524760Y-131345117D01*
X89551240Y-131384747D01*
X89555296Y-131395747D01*
X89556056Y-131415173D01*
X89561334Y-131433887D01*
X89557277Y-131446371D01*
X89557689Y-131456885D01*
X89550241Y-131468028D01*
X89544727Y-131484999D01*
X89524761Y-131514880D01*
X89524759Y-131514886D01*
X89509501Y-131591589D01*
X89509500Y-131591599D01*
X89509500Y-131768397D01*
X89509501Y-131768404D01*
X89524759Y-131845115D01*
X89524759Y-131845116D01*
X89524760Y-131845117D01*
X89544726Y-131874999D01*
X89561334Y-131933887D01*
X89544727Y-131984999D01*
X89524761Y-132014880D01*
X89524759Y-132014886D01*
X89509501Y-132091589D01*
X89509500Y-132091599D01*
X89509500Y-132268397D01*
X89509501Y-132268404D01*
X89524759Y-132345115D01*
X89524759Y-132345116D01*
X89524760Y-132345117D01*
X89544726Y-132374999D01*
X89561334Y-132433887D01*
X89544727Y-132484999D01*
X89524761Y-132514880D01*
X89524759Y-132514886D01*
X89509501Y-132591589D01*
X89509500Y-132591599D01*
X89509500Y-132768397D01*
X89509501Y-132768404D01*
X89524759Y-132845115D01*
X89524759Y-132845116D01*
X89524760Y-132845117D01*
X89544726Y-132874999D01*
X89561334Y-132933887D01*
X89544727Y-132984999D01*
X89524761Y-133014880D01*
X89524759Y-133014886D01*
X89509501Y-133091588D01*
X89509500Y-133091600D01*
X89509500Y-133130500D01*
X89490593Y-133188691D01*
X89441093Y-133224655D01*
X89410502Y-133229500D01*
X89371603Y-133229500D01*
X89371595Y-133229501D01*
X89294884Y-133244759D01*
X89265000Y-133264727D01*
X89206111Y-133281334D01*
X89154999Y-133264726D01*
X89125119Y-133244761D01*
X89125117Y-133244760D01*
X89125114Y-133244759D01*
X89125113Y-133244759D01*
X89048410Y-133229501D01*
X89048402Y-133229500D01*
X89048401Y-133229500D01*
X89048400Y-133229500D01*
X88871602Y-133229500D01*
X88871595Y-133229501D01*
X88794884Y-133244759D01*
X88765000Y-133264727D01*
X88706111Y-133281334D01*
X88675748Y-133275296D01*
X88664746Y-133271239D01*
X88625117Y-133244760D01*
X88555256Y-133230863D01*
X88547949Y-133228169D01*
X88529734Y-133213814D01*
X88509502Y-133202483D01*
X88503659Y-133195551D01*
X88423680Y-133091321D01*
X88423674Y-133091315D01*
X88306174Y-133001155D01*
X88169342Y-132944478D01*
X88169342Y-132944477D01*
X88085000Y-132933373D01*
X88085000Y-133768500D01*
X88080155Y-133783411D01*
X88080155Y-133799093D01*
X88070938Y-133811778D01*
X88066093Y-133826691D01*
X88053407Y-133835907D01*
X88044191Y-133848593D01*
X88029278Y-133853438D01*
X88016593Y-133862655D01*
X87986000Y-133867500D01*
X87934000Y-133867500D01*
X87875809Y-133848593D01*
X87839845Y-133799093D01*
X87835000Y-133768500D01*
X87835000Y-132933374D01*
X87834999Y-132933373D01*
X87750657Y-132944477D01*
X87750657Y-132944478D01*
X87613825Y-133001155D01*
X87613824Y-133001155D01*
X87496325Y-133091315D01*
X87496315Y-133091325D01*
X87416341Y-133195551D01*
X87372051Y-133228170D01*
X87364742Y-133230864D01*
X87294883Y-133244760D01*
X87255253Y-133271239D01*
X87244252Y-133275296D01*
X87224825Y-133276056D01*
X87206111Y-133281334D01*
X87193626Y-133277277D01*
X87183113Y-133277689D01*
X87171968Y-133270239D01*
X87154999Y-133264726D01*
X87125119Y-133244761D01*
X87125117Y-133244760D01*
X87125114Y-133244759D01*
X87125113Y-133244759D01*
X87048410Y-133229501D01*
X87048402Y-133229500D01*
X87048401Y-133229500D01*
X87048400Y-133229500D01*
X86871602Y-133229500D01*
X86871595Y-133229501D01*
X86794884Y-133244759D01*
X86765000Y-133264727D01*
X86706111Y-133281334D01*
X86675748Y-133275296D01*
X86664746Y-133271239D01*
X86625117Y-133244760D01*
X86555256Y-133230863D01*
X86547949Y-133228169D01*
X86529734Y-133213814D01*
X86509502Y-133202483D01*
X86503659Y-133195551D01*
X86423680Y-133091321D01*
X86423674Y-133091315D01*
X86306174Y-133001155D01*
X86169342Y-132944478D01*
X86169342Y-132944477D01*
X86085000Y-132933373D01*
X86085000Y-132975297D01*
X86066093Y-133033488D01*
X86016593Y-133069452D01*
X85955407Y-133069452D01*
X85905907Y-133033488D01*
X85902132Y-133027900D01*
X85895830Y-133017853D01*
X85895240Y-133014883D01*
X85874483Y-132983818D01*
X85873721Y-132982603D01*
X85866604Y-132954262D01*
X85858665Y-132926114D01*
X85859155Y-132924602D01*
X85858819Y-132923261D01*
X85862848Y-132913237D01*
X85875274Y-132874998D01*
X85895238Y-132845120D01*
X85895238Y-132845119D01*
X85895240Y-132845117D01*
X85910500Y-132768401D01*
X85910499Y-132591600D01*
X85895240Y-132514883D01*
X85875273Y-132485001D01*
X85858665Y-132426114D01*
X85875274Y-132374998D01*
X85895238Y-132345120D01*
X85895238Y-132345119D01*
X85895240Y-132345117D01*
X85910500Y-132268401D01*
X85910499Y-132091600D01*
X85895240Y-132014883D01*
X85875273Y-131985001D01*
X85858665Y-131926114D01*
X85875274Y-131874998D01*
X85895238Y-131845120D01*
X85895238Y-131845119D01*
X85895240Y-131845117D01*
X85910500Y-131768401D01*
X85910499Y-131591600D01*
X85895240Y-131514883D01*
X85875273Y-131485001D01*
X85858665Y-131426114D01*
X85875274Y-131374998D01*
X85895238Y-131345120D01*
X85895238Y-131345119D01*
X85895240Y-131345117D01*
X85910500Y-131268401D01*
X85910499Y-131091600D01*
X85895240Y-131014883D01*
X85875273Y-130985001D01*
X85858665Y-130926114D01*
X85875274Y-130874998D01*
X85895238Y-130845120D01*
X85895238Y-130845119D01*
X85895240Y-130845117D01*
X85910500Y-130768401D01*
X85910499Y-130591600D01*
X85903219Y-130554999D01*
X89213373Y-130554999D01*
X89213374Y-130555000D01*
X91081626Y-130555000D01*
X91081626Y-130554999D01*
X91070522Y-130470660D01*
X91070521Y-130470657D01*
X91069377Y-130467895D01*
X91069208Y-130465756D01*
X91068842Y-130464389D01*
X91069095Y-130464321D01*
X91064570Y-130406898D01*
X91069377Y-130392105D01*
X91070521Y-130389342D01*
X91070522Y-130389339D01*
X91081626Y-130305000D01*
X89214597Y-130305000D01*
X89231943Y-130414512D01*
X89228900Y-130433722D01*
X89230426Y-130453115D01*
X89225628Y-130467882D01*
X89224478Y-130470656D01*
X89224477Y-130470661D01*
X89213373Y-130554999D01*
X85903219Y-130554999D01*
X85895240Y-130514883D01*
X85875273Y-130485001D01*
X85858665Y-130426114D01*
X85863617Y-130398850D01*
X85867830Y-130386137D01*
X85895240Y-130345117D01*
X85910500Y-130268401D01*
X85910499Y-130091600D01*
X85895240Y-130014883D01*
X85888970Y-130005500D01*
X85875274Y-129985002D01*
X85868315Y-129960329D01*
X85858804Y-129936525D01*
X85860166Y-129931436D01*
X85858665Y-129926114D01*
X85873835Y-129877214D01*
X85874525Y-129876119D01*
X85895240Y-129845117D01*
X85895782Y-129842390D01*
X85901980Y-129832557D01*
X85919335Y-129818107D01*
X85933996Y-129800938D01*
X85942376Y-129798924D01*
X85949002Y-129793409D01*
X85971533Y-129791920D01*
X85993489Y-129786647D01*
X86001989Y-129789909D01*
X86010055Y-129789377D01*
X86024775Y-129798654D01*
X86046001Y-129806801D01*
X86113825Y-129858844D01*
X86250653Y-129915520D01*
X86250660Y-129915522D01*
X86334999Y-129926625D01*
X86335000Y-129926624D01*
X86335000Y-128058374D01*
X86318762Y-128044134D01*
X86310256Y-128042557D01*
X86268141Y-127998172D01*
X86258500Y-127955557D01*
X86258500Y-127913437D01*
X86258499Y-127913435D01*
X86256874Y-127907372D01*
X86238021Y-127837011D01*
X86230455Y-127823907D01*
X86198460Y-127768489D01*
X86164496Y-127734524D01*
X86136719Y-127680007D01*
X86135500Y-127664521D01*
X86135500Y-127196510D01*
X86128846Y-127154500D01*
X86119719Y-127096874D01*
X86119716Y-127096869D01*
X86119716Y-127096867D01*
X86058529Y-126976782D01*
X86058528Y-126976780D01*
X86017215Y-126935467D01*
X85989440Y-126880953D01*
X85999011Y-126820521D01*
X86035248Y-126781205D01*
X86162732Y-126702571D01*
X86282574Y-126582729D01*
X86371545Y-126438486D01*
X86426111Y-126273816D01*
X86462362Y-126224525D01*
X86520661Y-126205957D01*
X86578741Y-126225202D01*
G37*
G04 #@! TD.AperFunction*
G04 #@! TA.AperFunction,Conductor*
G36*
X94640212Y-129311907D02*
G01*
X94652025Y-129321996D01*
X95505504Y-130175475D01*
X95533281Y-130229992D01*
X95534500Y-130245479D01*
X95534500Y-130713489D01*
X95550281Y-130813125D01*
X95550283Y-130813132D01*
X95612665Y-130935562D01*
X95622237Y-130995994D01*
X95594460Y-131050510D01*
X95576430Y-131064767D01*
X95507268Y-131107427D01*
X95387425Y-131227270D01*
X95298454Y-131371512D01*
X95245143Y-131532396D01*
X95235000Y-131631676D01*
X95235000Y-131654999D01*
X95235001Y-131655000D01*
X97223993Y-131655000D01*
X97282184Y-131673907D01*
X97289318Y-131680000D01*
X97586000Y-131680000D01*
X97644191Y-131698907D01*
X97680155Y-131748407D01*
X97685000Y-131779000D01*
X97685000Y-132081000D01*
X97666093Y-132139191D01*
X97616593Y-132175155D01*
X97586000Y-132180000D01*
X96696007Y-132180000D01*
X96637816Y-132161093D01*
X96630682Y-132155000D01*
X95375979Y-132155000D01*
X95317788Y-132136093D01*
X95305975Y-132126004D01*
X95039496Y-131859525D01*
X95011719Y-131805008D01*
X95010500Y-131789521D01*
X95010500Y-130390437D01*
X95010499Y-130390435D01*
X95010205Y-130389339D01*
X94990021Y-130314011D01*
X94950460Y-130245489D01*
X94934963Y-130229992D01*
X94894511Y-130189539D01*
X94894511Y-130189540D01*
X94166972Y-129462001D01*
X94139197Y-129407487D01*
X94148768Y-129347055D01*
X94192033Y-129303790D01*
X94236978Y-129293000D01*
X94582021Y-129293000D01*
X94640212Y-129311907D01*
G37*
G04 #@! TD.AperFunction*
G04 #@! TA.AperFunction,Conductor*
G36*
X84768443Y-127774407D02*
G01*
X84798462Y-127809555D01*
X84800280Y-127813124D01*
X84800281Y-127813126D01*
X84861472Y-127933220D01*
X84956780Y-128028528D01*
X84956782Y-128028529D01*
X85076867Y-128089716D01*
X85076869Y-128089716D01*
X85076874Y-128089719D01*
X85152541Y-128101703D01*
X85176510Y-128105500D01*
X85176512Y-128105500D01*
X85558500Y-128105500D01*
X85573412Y-128110345D01*
X85589093Y-128110345D01*
X85601778Y-128119561D01*
X85616691Y-128124407D01*
X85625907Y-128137092D01*
X85638593Y-128146309D01*
X85643438Y-128161221D01*
X85652655Y-128173907D01*
X85657500Y-128204500D01*
X85657500Y-128307797D01*
X85638593Y-128365988D01*
X85589093Y-128401952D01*
X85543613Y-128403149D01*
X85543324Y-128405347D01*
X85536892Y-128404500D01*
X85405108Y-128404500D01*
X85359730Y-128416659D01*
X85277809Y-128438609D01*
X85163690Y-128504496D01*
X85070496Y-128597690D01*
X85004609Y-128711809D01*
X84985539Y-128782978D01*
X84970500Y-128839108D01*
X84970500Y-128970892D01*
X84991220Y-129048221D01*
X85004609Y-129098190D01*
X85066854Y-129206000D01*
X85079576Y-129265848D01*
X85054690Y-129321744D01*
X85001702Y-129352337D01*
X84981119Y-129354500D01*
X84871602Y-129354500D01*
X84871595Y-129354501D01*
X84794881Y-129369760D01*
X84789561Y-129371964D01*
X84751676Y-129379500D01*
X83404125Y-129379500D01*
X83394064Y-129376231D01*
X83383544Y-129377337D01*
X83365620Y-129366989D01*
X83345934Y-129360593D01*
X83339715Y-129352033D01*
X83330555Y-129346745D01*
X83322137Y-129327840D01*
X83309970Y-129311093D01*
X83309970Y-129300512D01*
X83305668Y-129290850D01*
X83309970Y-129270607D01*
X83309970Y-129249907D01*
X83318387Y-129231002D01*
X83342339Y-129189514D01*
X83342341Y-129189511D01*
X83347832Y-129180000D01*
X83360021Y-129158889D01*
X83380500Y-129082462D01*
X83380500Y-128151214D01*
X83399407Y-128093023D01*
X83448907Y-128057059D01*
X83510093Y-128057059D01*
X83524439Y-128063002D01*
X83576874Y-128089719D01*
X83652541Y-128101703D01*
X83676510Y-128105500D01*
X83676512Y-128105500D01*
X84243490Y-128105500D01*
X84264885Y-128102111D01*
X84343126Y-128089719D01*
X84463220Y-128028528D01*
X84558528Y-127933220D01*
X84619719Y-127813126D01*
X84619719Y-127813124D01*
X84621538Y-127809555D01*
X84637929Y-127793163D01*
X84651557Y-127774407D01*
X84659154Y-127771938D01*
X84664803Y-127766290D01*
X84709748Y-127755500D01*
X84710252Y-127755500D01*
X84768443Y-127774407D01*
G37*
G04 #@! TD.AperFunction*
G04 #@! TA.AperFunction,Conductor*
G36*
X84169191Y-125473407D02*
G01*
X84205155Y-125522907D01*
X84210000Y-125553500D01*
X84210000Y-125654999D01*
X84210001Y-125655000D01*
X85209999Y-125655000D01*
X85210000Y-125654999D01*
X85210000Y-125553500D01*
X85228907Y-125495309D01*
X85278407Y-125459345D01*
X85309000Y-125454500D01*
X85611000Y-125454500D01*
X85669191Y-125473407D01*
X85705155Y-125522907D01*
X85710000Y-125553500D01*
X85710000Y-125806000D01*
X85691093Y-125864191D01*
X85641593Y-125900155D01*
X85611000Y-125905000D01*
X85460001Y-125905000D01*
X85460000Y-125905001D01*
X85460000Y-126056000D01*
X85441093Y-126114191D01*
X85391593Y-126150155D01*
X85361000Y-126155000D01*
X84059000Y-126155000D01*
X84000809Y-126136093D01*
X83964845Y-126086593D01*
X83960000Y-126056000D01*
X83960000Y-125905001D01*
X83959999Y-125905000D01*
X83809000Y-125905000D01*
X83750809Y-125886093D01*
X83714845Y-125836593D01*
X83710000Y-125806000D01*
X83710000Y-125553500D01*
X83728907Y-125495309D01*
X83778407Y-125459345D01*
X83809000Y-125454500D01*
X84111000Y-125454500D01*
X84169191Y-125473407D01*
G37*
G04 #@! TD.AperFunction*
M02*
