G04 #@! TF.GenerationSoftware,KiCad,Pcbnew,9.99.0-unknown-d5f02ba7bc~182~ubuntu22.04.1*
G04 #@! TF.CreationDate,2025-03-17T15:10:36+01:00*
G04 #@! TF.ProjectId,rfid-reader,72666964-2d72-4656-9164-65722e6b6963,rev?*
G04 #@! TF.SameCoordinates,Original*
G04 #@! TF.FileFunction,Copper,L2,Bot*
G04 #@! TF.FilePolarity,Positive*
%FSLAX46Y46*%
G04 Gerber Fmt 4.6, Leading zero omitted, Abs format (unit mm)*
G04 Created by KiCad (PCBNEW 9.99.0-unknown-d5f02ba7bc~182~ubuntu22.04.1) date 2025-03-17 15:10:36*
%MOMM*%
%LPD*%
G01*
G04 APERTURE LIST*
G04 #@! TA.AperFunction,ComponentPad*
%ADD10R,1.700000X1.700000*%
G04 #@! TD*
G04 #@! TA.AperFunction,ComponentPad*
%ADD11O,1.700000X1.700000*%
G04 #@! TD*
G04 #@! TA.AperFunction,ViaPad*
%ADD12C,0.600000*%
G04 #@! TD*
G04 #@! TA.AperFunction,Conductor*
%ADD13C,0.200000*%
G04 #@! TD*
G04 APERTURE END LIST*
D10*
X81280000Y-147320000D03*
D11*
X81280000Y-144780000D03*
X83820000Y-147320000D03*
X83820000Y-144780000D03*
X86360000Y-147320000D03*
X86360000Y-144780000D03*
X88900000Y-147320000D03*
X88900000Y-144780000D03*
X91440000Y-147320000D03*
X91440000Y-144780000D03*
X93980000Y-147320000D03*
X93980000Y-144780000D03*
X96520000Y-147320000D03*
X96520000Y-144780000D03*
X99060000Y-147320000D03*
X99060000Y-144780000D03*
X101600000Y-147320000D03*
X101600000Y-144780000D03*
X104140000Y-147320000D03*
X104140000Y-144780000D03*
D10*
X81280000Y-68580000D03*
D11*
X81280000Y-66040000D03*
X83820000Y-68580000D03*
X83820000Y-66040000D03*
X86360000Y-68580000D03*
X86360000Y-66040000D03*
X88900000Y-68580000D03*
X88900000Y-66040000D03*
X91440000Y-68580000D03*
X91440000Y-66040000D03*
X93980000Y-68580000D03*
X93980000Y-66040000D03*
X96520000Y-68580000D03*
X96520000Y-66040000D03*
X99060000Y-68580000D03*
X99060000Y-66040000D03*
X101600000Y-68580000D03*
X101600000Y-66040000D03*
X104140000Y-68580000D03*
X104140000Y-66040000D03*
D12*
X90680747Y-134245595D03*
X94615000Y-138557000D03*
X97790000Y-151384000D03*
X108204000Y-130556000D03*
X104140000Y-124460000D03*
X101680000Y-140920000D03*
X77216000Y-146812000D03*
X87630000Y-151384000D03*
X85598000Y-151384000D03*
X95310000Y-131672735D03*
X84010000Y-128920000D03*
X93880000Y-130520000D03*
X85460000Y-133930000D03*
X99822000Y-151384000D03*
X89662000Y-151384000D03*
X108204000Y-142748000D03*
X100711000Y-118520000D03*
X85380000Y-136520000D03*
X108204000Y-124460000D03*
X106172000Y-124460000D03*
X81280000Y-124460000D03*
X108204000Y-134620000D03*
X98880000Y-140920000D03*
X77216000Y-140716000D03*
X86380000Y-132720000D03*
X83312000Y-124460000D03*
X83566000Y-151384000D03*
X77216000Y-134620000D03*
X90680000Y-140920000D03*
X77216000Y-128524000D03*
X81534000Y-151384000D03*
X108204000Y-144780000D03*
X84580000Y-140620000D03*
X77216000Y-142748000D03*
X86380000Y-130120000D03*
X85344000Y-124460000D03*
X77216000Y-124460000D03*
X91694000Y-151384000D03*
X89408000Y-124460000D03*
X108204000Y-136652000D03*
X88980000Y-132720000D03*
X93880000Y-140920000D03*
X96480000Y-140920000D03*
X77216000Y-144780000D03*
X108204000Y-128524000D03*
X87376000Y-124460000D03*
X79502000Y-151384000D03*
X87480000Y-130120000D03*
X95758000Y-151384000D03*
X84080000Y-135320000D03*
X77216000Y-126492000D03*
X93472000Y-124460000D03*
X77216000Y-138684000D03*
X108204000Y-148844000D03*
X108204000Y-140716000D03*
X101854000Y-151384000D03*
X95504000Y-124460000D03*
X105918000Y-151384000D03*
X77216000Y-132588000D03*
X86359000Y-126804000D03*
X89580000Y-136520000D03*
X91440000Y-124460000D03*
X108204000Y-132588000D03*
X108204000Y-146812000D03*
X108204000Y-138684000D03*
X79248000Y-124460000D03*
X89030000Y-130070000D03*
X108204000Y-126492000D03*
X77216000Y-130556000D03*
X77216000Y-136652000D03*
X93726000Y-151384000D03*
X77216000Y-148844000D03*
X89480000Y-134920000D03*
X85471000Y-128905000D03*
X87610000Y-134880000D03*
X83810000Y-131880000D03*
X97580000Y-140920000D03*
X88210000Y-127930000D03*
X83810000Y-133480006D03*
X83810000Y-132680003D03*
D13*
X90680747Y-134370804D02*
X94615000Y-138305057D01*
X94615000Y-138305057D02*
X94615000Y-138557000D01*
X90680747Y-134245595D02*
X90680747Y-134370804D01*
X100710000Y-118520000D02*
X100710000Y-124289000D01*
X85480000Y-128914000D02*
X85471000Y-128905000D01*
X85480000Y-130920000D02*
X85480000Y-128914000D01*
X89480000Y-134920000D02*
X85480000Y-130920000D01*
X89880000Y-137720000D02*
X87610000Y-135450000D01*
X87610000Y-135450000D02*
X87610000Y-134880000D01*
X92000000Y-137720000D02*
X89880000Y-137720000D01*
X99060000Y-144780000D02*
X92000000Y-137720000D01*
X85081000Y-135886100D02*
X85080000Y-135887100D01*
X84411000Y-132431060D02*
X84411000Y-132663963D01*
X84811000Y-133063963D02*
X84811000Y-134251000D01*
X92700000Y-143500000D02*
X93980000Y-144780000D01*
X85081000Y-134521000D02*
X85081000Y-135886100D01*
X84058943Y-132079003D02*
X84411000Y-132431060D01*
X84811000Y-134251000D02*
X85081000Y-134521000D01*
X84680000Y-136370057D02*
X84680000Y-138820000D01*
X85080000Y-135887100D02*
X85080000Y-135970057D01*
X85080000Y-135970057D02*
X84680000Y-136370057D01*
X89360000Y-143500000D02*
X92700000Y-143500000D01*
X83810000Y-131880000D02*
X83810000Y-132079003D01*
X84680000Y-138820000D02*
X89360000Y-143500000D01*
X83810000Y-132079003D02*
X84058943Y-132079003D01*
X84411000Y-132663963D02*
X84811000Y-133063963D01*
X97580000Y-140920000D02*
X97580000Y-140120000D01*
X88210000Y-130750000D02*
X88210000Y-127930000D01*
X97580000Y-140120000D02*
X88210000Y-130750000D01*
X83810000Y-133480006D02*
X82550000Y-134740006D01*
X82550000Y-146050000D02*
X81280000Y-147320000D01*
X82550000Y-134740006D02*
X82550000Y-146050000D01*
X84680000Y-135720000D02*
X84680000Y-134687100D01*
X83820000Y-136580000D02*
X84680000Y-135720000D01*
X84410000Y-134417100D02*
X84410000Y-133230063D01*
X83820000Y-144780000D02*
X83820000Y-136580000D01*
X83859940Y-132680003D02*
X83810000Y-132680003D01*
X84410000Y-133230063D02*
X83859940Y-132680003D01*
X84680000Y-134687100D02*
X84410000Y-134417100D01*
G04 #@! TA.AperFunction,Conductor*
G36*
X84045978Y-133954506D02*
G01*
X84093528Y-133993011D01*
X84109500Y-134046930D01*
X84109500Y-134456664D01*
X84129977Y-134533085D01*
X84129979Y-134533090D01*
X84152839Y-134572685D01*
X84152840Y-134572686D01*
X84169540Y-134601611D01*
X84350505Y-134782576D01*
X84378281Y-134837091D01*
X84379500Y-134852578D01*
X84379500Y-135554521D01*
X84360593Y-135612712D01*
X84350504Y-135624525D01*
X83635489Y-136339540D01*
X83635488Y-136339539D01*
X83579539Y-136395489D01*
X83539980Y-136464007D01*
X83539978Y-136464011D01*
X83519500Y-136540435D01*
X83519500Y-143701267D01*
X83500593Y-143759458D01*
X83458387Y-143792731D01*
X83322401Y-143849059D01*
X83150348Y-143964020D01*
X83150345Y-143964022D01*
X83150345Y-143964023D01*
X83019501Y-144094866D01*
X82964987Y-144122642D01*
X82904555Y-144113071D01*
X82861290Y-144069806D01*
X82850500Y-144024861D01*
X82850500Y-134905484D01*
X82869407Y-134847293D01*
X82879490Y-134835486D01*
X83705474Y-134009501D01*
X83759991Y-133981725D01*
X83775478Y-133980506D01*
X83875890Y-133980506D01*
X83875892Y-133980506D01*
X83984879Y-133951303D01*
X84045978Y-133954506D01*
G37*
G04 #@! TD.AperFunction*
G04 #@! TA.AperFunction,Conductor*
G36*
X108678691Y-123970907D02*
G01*
X108714655Y-124020407D01*
X108719500Y-124051000D01*
X108719500Y-149611678D01*
X108700593Y-149669869D01*
X108690504Y-149681682D01*
X106501682Y-151870504D01*
X106447165Y-151898281D01*
X106431678Y-151899500D01*
X78988322Y-151899500D01*
X78930131Y-151880593D01*
X78918318Y-151870504D01*
X76729496Y-149681682D01*
X76701719Y-149627165D01*
X76700500Y-149611678D01*
X76700500Y-144676532D01*
X80229500Y-144676532D01*
X80229500Y-144883467D01*
X80269869Y-145086418D01*
X80349058Y-145277597D01*
X80464020Y-145449651D01*
X80464023Y-145449655D01*
X80610345Y-145595977D01*
X80782402Y-145710941D01*
X80973580Y-145790130D01*
X81176535Y-145830500D01*
X81176536Y-145830500D01*
X81383464Y-145830500D01*
X81383465Y-145830500D01*
X81586420Y-145790130D01*
X81777598Y-145710941D01*
X81949655Y-145595977D01*
X82080498Y-145465133D01*
X82135013Y-145437358D01*
X82195445Y-145446929D01*
X82238710Y-145490194D01*
X82249500Y-145535139D01*
X82249500Y-145884521D01*
X82230593Y-145942712D01*
X82220504Y-145954525D01*
X81934525Y-146240504D01*
X81880008Y-146268281D01*
X81864521Y-146269500D01*
X80410252Y-146269500D01*
X80410251Y-146269500D01*
X80410241Y-146269501D01*
X80351772Y-146281132D01*
X80351766Y-146281134D01*
X80285451Y-146325445D01*
X80285445Y-146325451D01*
X80241134Y-146391766D01*
X80241132Y-146391772D01*
X80229501Y-146450241D01*
X80229500Y-146450253D01*
X80229500Y-148189746D01*
X80229501Y-148189758D01*
X80241132Y-148248227D01*
X80241134Y-148248233D01*
X80285445Y-148314548D01*
X80285448Y-148314552D01*
X80351769Y-148358867D01*
X80396231Y-148367711D01*
X80410241Y-148370498D01*
X80410246Y-148370498D01*
X80410252Y-148370500D01*
X80410253Y-148370500D01*
X82149747Y-148370500D01*
X82149748Y-148370500D01*
X82208231Y-148358867D01*
X82274552Y-148314552D01*
X82318867Y-148248231D01*
X82330500Y-148189748D01*
X82330500Y-147216532D01*
X82769500Y-147216532D01*
X82769500Y-147423467D01*
X82809869Y-147626418D01*
X82889058Y-147817597D01*
X83004020Y-147989651D01*
X83004023Y-147989655D01*
X83150345Y-148135977D01*
X83322402Y-148250941D01*
X83513580Y-148330130D01*
X83716535Y-148370500D01*
X83716536Y-148370500D01*
X83923464Y-148370500D01*
X83923465Y-148370500D01*
X84126420Y-148330130D01*
X84317598Y-148250941D01*
X84489655Y-148135977D01*
X84635977Y-147989655D01*
X84750941Y-147817598D01*
X84830130Y-147626420D01*
X84870500Y-147423465D01*
X84870500Y-147216535D01*
X84870499Y-147216532D01*
X85309500Y-147216532D01*
X85309500Y-147423467D01*
X85349869Y-147626418D01*
X85429058Y-147817597D01*
X85544020Y-147989651D01*
X85544023Y-147989655D01*
X85690345Y-148135977D01*
X85862402Y-148250941D01*
X86053580Y-148330130D01*
X86256535Y-148370500D01*
X86256536Y-148370500D01*
X86463464Y-148370500D01*
X86463465Y-148370500D01*
X86666420Y-148330130D01*
X86857598Y-148250941D01*
X87029655Y-148135977D01*
X87175977Y-147989655D01*
X87290941Y-147817598D01*
X87370130Y-147626420D01*
X87410500Y-147423465D01*
X87410500Y-147216535D01*
X87410499Y-147216532D01*
X87849500Y-147216532D01*
X87849500Y-147423467D01*
X87889869Y-147626418D01*
X87969058Y-147817597D01*
X88084020Y-147989651D01*
X88084023Y-147989655D01*
X88230345Y-148135977D01*
X88402402Y-148250941D01*
X88593580Y-148330130D01*
X88796535Y-148370500D01*
X88796536Y-148370500D01*
X89003464Y-148370500D01*
X89003465Y-148370500D01*
X89206420Y-148330130D01*
X89397598Y-148250941D01*
X89569655Y-148135977D01*
X89715977Y-147989655D01*
X89830941Y-147817598D01*
X89910130Y-147626420D01*
X89950500Y-147423465D01*
X89950500Y-147216535D01*
X89950499Y-147216532D01*
X90389500Y-147216532D01*
X90389500Y-147423467D01*
X90429869Y-147626418D01*
X90509058Y-147817597D01*
X90624020Y-147989651D01*
X90624023Y-147989655D01*
X90770345Y-148135977D01*
X90942402Y-148250941D01*
X91133580Y-148330130D01*
X91336535Y-148370500D01*
X91336536Y-148370500D01*
X91543464Y-148370500D01*
X91543465Y-148370500D01*
X91746420Y-148330130D01*
X91937598Y-148250941D01*
X92109655Y-148135977D01*
X92255977Y-147989655D01*
X92370941Y-147817598D01*
X92450130Y-147626420D01*
X92490500Y-147423465D01*
X92490500Y-147216535D01*
X92490499Y-147216532D01*
X92929500Y-147216532D01*
X92929500Y-147423467D01*
X92969869Y-147626418D01*
X93049058Y-147817597D01*
X93164020Y-147989651D01*
X93164023Y-147989655D01*
X93310345Y-148135977D01*
X93482402Y-148250941D01*
X93673580Y-148330130D01*
X93876535Y-148370500D01*
X93876536Y-148370500D01*
X94083464Y-148370500D01*
X94083465Y-148370500D01*
X94286420Y-148330130D01*
X94477598Y-148250941D01*
X94649655Y-148135977D01*
X94795977Y-147989655D01*
X94910941Y-147817598D01*
X94990130Y-147626420D01*
X95030500Y-147423465D01*
X95030500Y-147216535D01*
X95030499Y-147216532D01*
X95469500Y-147216532D01*
X95469500Y-147423467D01*
X95509869Y-147626418D01*
X95589058Y-147817597D01*
X95704020Y-147989651D01*
X95704023Y-147989655D01*
X95850345Y-148135977D01*
X96022402Y-148250941D01*
X96213580Y-148330130D01*
X96416535Y-148370500D01*
X96416536Y-148370500D01*
X96623464Y-148370500D01*
X96623465Y-148370500D01*
X96826420Y-148330130D01*
X97017598Y-148250941D01*
X97189655Y-148135977D01*
X97335977Y-147989655D01*
X97450941Y-147817598D01*
X97530130Y-147626420D01*
X97570500Y-147423465D01*
X97570500Y-147216535D01*
X97570499Y-147216532D01*
X98009500Y-147216532D01*
X98009500Y-147423467D01*
X98049869Y-147626418D01*
X98129058Y-147817597D01*
X98244020Y-147989651D01*
X98244023Y-147989655D01*
X98390345Y-148135977D01*
X98562402Y-148250941D01*
X98753580Y-148330130D01*
X98956535Y-148370500D01*
X98956536Y-148370500D01*
X99163464Y-148370500D01*
X99163465Y-148370500D01*
X99366420Y-148330130D01*
X99557598Y-148250941D01*
X99729655Y-148135977D01*
X99875977Y-147989655D01*
X99990941Y-147817598D01*
X100070130Y-147626420D01*
X100079762Y-147577996D01*
X100109656Y-147524613D01*
X100165221Y-147498996D01*
X100225231Y-147510932D01*
X100266764Y-147555861D01*
X100274640Y-147581822D01*
X100283241Y-147636122D01*
X100348904Y-147838215D01*
X100445375Y-148027552D01*
X100570277Y-148199464D01*
X100720535Y-148349722D01*
X100892447Y-148474624D01*
X101081784Y-148571095D01*
X101283877Y-148636758D01*
X101349999Y-148647231D01*
X101350000Y-148647230D01*
X101350000Y-147753012D01*
X101407007Y-147785925D01*
X101534174Y-147820000D01*
X101665826Y-147820000D01*
X101792993Y-147785925D01*
X101850000Y-147753012D01*
X101850000Y-148647231D01*
X101916122Y-148636758D01*
X102118215Y-148571095D01*
X102307552Y-148474624D01*
X102479464Y-148349722D01*
X102629722Y-148199464D01*
X102754624Y-148027552D01*
X102851095Y-147838215D01*
X102916759Y-147636121D01*
X102925359Y-147581823D01*
X102953136Y-147527307D01*
X103007653Y-147499529D01*
X103068085Y-147509100D01*
X103111349Y-147552365D01*
X103120238Y-147577996D01*
X103129869Y-147626418D01*
X103209058Y-147817597D01*
X103324020Y-147989651D01*
X103324023Y-147989655D01*
X103470345Y-148135977D01*
X103642402Y-148250941D01*
X103833580Y-148330130D01*
X104036535Y-148370500D01*
X104036536Y-148370500D01*
X104243464Y-148370500D01*
X104243465Y-148370500D01*
X104446420Y-148330130D01*
X104637598Y-148250941D01*
X104809655Y-148135977D01*
X104955977Y-147989655D01*
X105070941Y-147817598D01*
X105150130Y-147626420D01*
X105190500Y-147423465D01*
X105190500Y-147216535D01*
X105150130Y-147013580D01*
X105070941Y-146822402D01*
X104955977Y-146650345D01*
X104809655Y-146504023D01*
X104729182Y-146450253D01*
X104637597Y-146389058D01*
X104446418Y-146309869D01*
X104243467Y-146269500D01*
X104243465Y-146269500D01*
X104036535Y-146269500D01*
X104036532Y-146269500D01*
X103833581Y-146309869D01*
X103642402Y-146389058D01*
X103470348Y-146504020D01*
X103324020Y-146650348D01*
X103209058Y-146822402D01*
X103129869Y-147013581D01*
X103120238Y-147062003D01*
X103090341Y-147115387D01*
X103034776Y-147141003D01*
X102974766Y-147129066D01*
X102933234Y-147084136D01*
X102925359Y-147058176D01*
X102916759Y-147003878D01*
X102851095Y-146801784D01*
X102754624Y-146612447D01*
X102629722Y-146440535D01*
X102479464Y-146290277D01*
X102307552Y-146165375D01*
X102118215Y-146068904D01*
X101916122Y-146003241D01*
X101861822Y-145994640D01*
X101807306Y-145966862D01*
X101779529Y-145912345D01*
X101789101Y-145851913D01*
X101832366Y-145808649D01*
X101857993Y-145799762D01*
X101906420Y-145790130D01*
X102097598Y-145710941D01*
X102269655Y-145595977D01*
X102415977Y-145449655D01*
X102530941Y-145277598D01*
X102610130Y-145086420D01*
X102650500Y-144883465D01*
X102650500Y-144676535D01*
X102650499Y-144676532D01*
X103089500Y-144676532D01*
X103089500Y-144883467D01*
X103129869Y-145086418D01*
X103209058Y-145277597D01*
X103324020Y-145449651D01*
X103324023Y-145449655D01*
X103470345Y-145595977D01*
X103642402Y-145710941D01*
X103833580Y-145790130D01*
X104036535Y-145830500D01*
X104036536Y-145830500D01*
X104243464Y-145830500D01*
X104243465Y-145830500D01*
X104446420Y-145790130D01*
X104637598Y-145710941D01*
X104809655Y-145595977D01*
X104955977Y-145449655D01*
X105070941Y-145277598D01*
X105150130Y-145086420D01*
X105190500Y-144883465D01*
X105190500Y-144676535D01*
X105150130Y-144473580D01*
X105070941Y-144282402D01*
X104955977Y-144110345D01*
X104809655Y-143964023D01*
X104667303Y-143868907D01*
X104637597Y-143849058D01*
X104446418Y-143769869D01*
X104243467Y-143729500D01*
X104243465Y-143729500D01*
X104036535Y-143729500D01*
X104036532Y-143729500D01*
X103833581Y-143769869D01*
X103642402Y-143849058D01*
X103470348Y-143964020D01*
X103324020Y-144110348D01*
X103209058Y-144282402D01*
X103129869Y-144473581D01*
X103089500Y-144676532D01*
X102650499Y-144676532D01*
X102610130Y-144473580D01*
X102530941Y-144282402D01*
X102415977Y-144110345D01*
X102269655Y-143964023D01*
X102127303Y-143868907D01*
X102097597Y-143849058D01*
X101906418Y-143769869D01*
X101703467Y-143729500D01*
X101703465Y-143729500D01*
X101496535Y-143729500D01*
X101496532Y-143729500D01*
X101293581Y-143769869D01*
X101102402Y-143849058D01*
X100930348Y-143964020D01*
X100784020Y-144110348D01*
X100669058Y-144282402D01*
X100589869Y-144473581D01*
X100549500Y-144676532D01*
X100549500Y-144883467D01*
X100589869Y-145086418D01*
X100669058Y-145277597D01*
X100784020Y-145449651D01*
X100784023Y-145449655D01*
X100930345Y-145595977D01*
X101102402Y-145710941D01*
X101293580Y-145790130D01*
X101342003Y-145799762D01*
X101395386Y-145829657D01*
X101421003Y-145885221D01*
X101409067Y-145945231D01*
X101364138Y-145986765D01*
X101338177Y-145994640D01*
X101283877Y-146003241D01*
X101081784Y-146068904D01*
X100892447Y-146165375D01*
X100720535Y-146290277D01*
X100570277Y-146440535D01*
X100445375Y-146612447D01*
X100348904Y-146801784D01*
X100283241Y-147003877D01*
X100274640Y-147058177D01*
X100246862Y-147112694D01*
X100192345Y-147140470D01*
X100131913Y-147130898D01*
X100088649Y-147087633D01*
X100079762Y-147062006D01*
X100070130Y-147013580D01*
X99990941Y-146822402D01*
X99875977Y-146650345D01*
X99729655Y-146504023D01*
X99649182Y-146450253D01*
X99557597Y-146389058D01*
X99366418Y-146309869D01*
X99163467Y-146269500D01*
X99163465Y-146269500D01*
X98956535Y-146269500D01*
X98956532Y-146269500D01*
X98753581Y-146309869D01*
X98562402Y-146389058D01*
X98390348Y-146504020D01*
X98244020Y-146650348D01*
X98129058Y-146822402D01*
X98049869Y-147013581D01*
X98009500Y-147216532D01*
X97570499Y-147216532D01*
X97530130Y-147013580D01*
X97450941Y-146822402D01*
X97335977Y-146650345D01*
X97189655Y-146504023D01*
X97109182Y-146450253D01*
X97017597Y-146389058D01*
X96826418Y-146309869D01*
X96623467Y-146269500D01*
X96623465Y-146269500D01*
X96416535Y-146269500D01*
X96416532Y-146269500D01*
X96213581Y-146309869D01*
X96022402Y-146389058D01*
X95850348Y-146504020D01*
X95704020Y-146650348D01*
X95589058Y-146822402D01*
X95509869Y-147013581D01*
X95469500Y-147216532D01*
X95030499Y-147216532D01*
X94990130Y-147013580D01*
X94910941Y-146822402D01*
X94795977Y-146650345D01*
X94649655Y-146504023D01*
X94569182Y-146450253D01*
X94477597Y-146389058D01*
X94286418Y-146309869D01*
X94083467Y-146269500D01*
X94083465Y-146269500D01*
X93876535Y-146269500D01*
X93876532Y-146269500D01*
X93673581Y-146309869D01*
X93482402Y-146389058D01*
X93310348Y-146504020D01*
X93164020Y-146650348D01*
X93049058Y-146822402D01*
X92969869Y-147013581D01*
X92929500Y-147216532D01*
X92490499Y-147216532D01*
X92450130Y-147013580D01*
X92370941Y-146822402D01*
X92255977Y-146650345D01*
X92109655Y-146504023D01*
X92029182Y-146450253D01*
X91937597Y-146389058D01*
X91746418Y-146309869D01*
X91543467Y-146269500D01*
X91543465Y-146269500D01*
X91336535Y-146269500D01*
X91336532Y-146269500D01*
X91133581Y-146309869D01*
X90942402Y-146389058D01*
X90770348Y-146504020D01*
X90624020Y-146650348D01*
X90509058Y-146822402D01*
X90429869Y-147013581D01*
X90389500Y-147216532D01*
X89950499Y-147216532D01*
X89910130Y-147013580D01*
X89830941Y-146822402D01*
X89715977Y-146650345D01*
X89569655Y-146504023D01*
X89489182Y-146450253D01*
X89397597Y-146389058D01*
X89206418Y-146309869D01*
X89003467Y-146269500D01*
X89003465Y-146269500D01*
X88796535Y-146269500D01*
X88796532Y-146269500D01*
X88593581Y-146309869D01*
X88402402Y-146389058D01*
X88230348Y-146504020D01*
X88084020Y-146650348D01*
X87969058Y-146822402D01*
X87889869Y-147013581D01*
X87849500Y-147216532D01*
X87410499Y-147216532D01*
X87370130Y-147013580D01*
X87290941Y-146822402D01*
X87175977Y-146650345D01*
X87029655Y-146504023D01*
X86949182Y-146450253D01*
X86857597Y-146389058D01*
X86666418Y-146309869D01*
X86463467Y-146269500D01*
X86463465Y-146269500D01*
X86256535Y-146269500D01*
X86256532Y-146269500D01*
X86053581Y-146309869D01*
X85862402Y-146389058D01*
X85690348Y-146504020D01*
X85544020Y-146650348D01*
X85429058Y-146822402D01*
X85349869Y-147013581D01*
X85309500Y-147216532D01*
X84870499Y-147216532D01*
X84830130Y-147013580D01*
X84750941Y-146822402D01*
X84635977Y-146650345D01*
X84489655Y-146504023D01*
X84409182Y-146450253D01*
X84317597Y-146389058D01*
X84126418Y-146309869D01*
X83923467Y-146269500D01*
X83923465Y-146269500D01*
X83716535Y-146269500D01*
X83716532Y-146269500D01*
X83513581Y-146309869D01*
X83322402Y-146389058D01*
X83150348Y-146504020D01*
X83004020Y-146650348D01*
X82889058Y-146822402D01*
X82809869Y-147013581D01*
X82769500Y-147216532D01*
X82330500Y-147216532D01*
X82330500Y-146735478D01*
X82349407Y-146677287D01*
X82359490Y-146665480D01*
X82790460Y-146234511D01*
X82830021Y-146165989D01*
X82850500Y-146089562D01*
X82850500Y-145535139D01*
X82869407Y-145476948D01*
X82918907Y-145440984D01*
X82980093Y-145440984D01*
X83019501Y-145465133D01*
X83150345Y-145595977D01*
X83322402Y-145710941D01*
X83513580Y-145790130D01*
X83716535Y-145830500D01*
X83716536Y-145830500D01*
X83923464Y-145830500D01*
X83923465Y-145830500D01*
X84126420Y-145790130D01*
X84317598Y-145710941D01*
X84489655Y-145595977D01*
X84635977Y-145449655D01*
X84750941Y-145277598D01*
X84830130Y-145086420D01*
X84870500Y-144883465D01*
X84870500Y-144676535D01*
X84870499Y-144676532D01*
X85309500Y-144676532D01*
X85309500Y-144883467D01*
X85349869Y-145086418D01*
X85429058Y-145277597D01*
X85544020Y-145449651D01*
X85544023Y-145449655D01*
X85690345Y-145595977D01*
X85862402Y-145710941D01*
X86053580Y-145790130D01*
X86256535Y-145830500D01*
X86256536Y-145830500D01*
X86463464Y-145830500D01*
X86463465Y-145830500D01*
X86666420Y-145790130D01*
X86857598Y-145710941D01*
X87029655Y-145595977D01*
X87175977Y-145449655D01*
X87290941Y-145277598D01*
X87370130Y-145086420D01*
X87410500Y-144883465D01*
X87410500Y-144676535D01*
X87370130Y-144473580D01*
X87290941Y-144282402D01*
X87175977Y-144110345D01*
X87029655Y-143964023D01*
X86887303Y-143868907D01*
X86857597Y-143849058D01*
X86666418Y-143769869D01*
X86463467Y-143729500D01*
X86463465Y-143729500D01*
X86256535Y-143729500D01*
X86256532Y-143729500D01*
X86053581Y-143769869D01*
X85862402Y-143849058D01*
X85690348Y-143964020D01*
X85544020Y-144110348D01*
X85429058Y-144282402D01*
X85349869Y-144473581D01*
X85309500Y-144676532D01*
X84870499Y-144676532D01*
X84830130Y-144473580D01*
X84750941Y-144282402D01*
X84635977Y-144110345D01*
X84489655Y-143964023D01*
X84317598Y-143849059D01*
X84273993Y-143830997D01*
X84181613Y-143792731D01*
X84135088Y-143752994D01*
X84120500Y-143701267D01*
X84120500Y-136745479D01*
X84122968Y-136737881D01*
X84121719Y-136729992D01*
X84132243Y-136709336D01*
X84139407Y-136687288D01*
X84149496Y-136675475D01*
X84210496Y-136614475D01*
X84265013Y-136586698D01*
X84325445Y-136596269D01*
X84368710Y-136639534D01*
X84379500Y-136684479D01*
X84379500Y-138859564D01*
X84399978Y-138935988D01*
X84399980Y-138935992D01*
X84439538Y-139004508D01*
X84439540Y-139004511D01*
X86755529Y-141320500D01*
X88995525Y-143560496D01*
X89023302Y-143615013D01*
X89013731Y-143675445D01*
X88970466Y-143718710D01*
X88925521Y-143729500D01*
X88796532Y-143729500D01*
X88593581Y-143769869D01*
X88402402Y-143849058D01*
X88230348Y-143964020D01*
X88084020Y-144110348D01*
X87969058Y-144282402D01*
X87889869Y-144473581D01*
X87849500Y-144676532D01*
X87849500Y-144883467D01*
X87889869Y-145086418D01*
X87969058Y-145277597D01*
X88084020Y-145449651D01*
X88084023Y-145449655D01*
X88230345Y-145595977D01*
X88402402Y-145710941D01*
X88593580Y-145790130D01*
X88796535Y-145830500D01*
X88796536Y-145830500D01*
X89003464Y-145830500D01*
X89003465Y-145830500D01*
X89206420Y-145790130D01*
X89397598Y-145710941D01*
X89569655Y-145595977D01*
X89715977Y-145449655D01*
X89830941Y-145277598D01*
X89910130Y-145086420D01*
X89950500Y-144883465D01*
X89950500Y-144676535D01*
X89910130Y-144473580D01*
X89830941Y-144282402D01*
X89715977Y-144110345D01*
X89575133Y-143969501D01*
X89547358Y-143914987D01*
X89556929Y-143854555D01*
X89600194Y-143811290D01*
X89645139Y-143800500D01*
X90694861Y-143800500D01*
X90753052Y-143819407D01*
X90789016Y-143868907D01*
X90789016Y-143930093D01*
X90764866Y-143969501D01*
X90664562Y-144069806D01*
X90624020Y-144110348D01*
X90509058Y-144282402D01*
X90429869Y-144473581D01*
X90389500Y-144676532D01*
X90389500Y-144883467D01*
X90429869Y-145086418D01*
X90509058Y-145277597D01*
X90624020Y-145449651D01*
X90624023Y-145449655D01*
X90770345Y-145595977D01*
X90942402Y-145710941D01*
X91133580Y-145790130D01*
X91336535Y-145830500D01*
X91336536Y-145830500D01*
X91543464Y-145830500D01*
X91543465Y-145830500D01*
X91746420Y-145790130D01*
X91937598Y-145710941D01*
X92109655Y-145595977D01*
X92255977Y-145449655D01*
X92370941Y-145277598D01*
X92450130Y-145086420D01*
X92490500Y-144883465D01*
X92490500Y-144676535D01*
X92450130Y-144473580D01*
X92370941Y-144282402D01*
X92255977Y-144110345D01*
X92115133Y-143969501D01*
X92087358Y-143914987D01*
X92096929Y-143854555D01*
X92140194Y-143811290D01*
X92185139Y-143800500D01*
X92534521Y-143800500D01*
X92592712Y-143819407D01*
X92604525Y-143829496D01*
X93004736Y-144229707D01*
X93032513Y-144284224D01*
X93026196Y-144337596D01*
X92969870Y-144473578D01*
X92969870Y-144473580D01*
X92929500Y-144676532D01*
X92929500Y-144883467D01*
X92969869Y-145086418D01*
X93049058Y-145277597D01*
X93164020Y-145449651D01*
X93164023Y-145449655D01*
X93310345Y-145595977D01*
X93482402Y-145710941D01*
X93673580Y-145790130D01*
X93876535Y-145830500D01*
X93876536Y-145830500D01*
X94083464Y-145830500D01*
X94083465Y-145830500D01*
X94286420Y-145790130D01*
X94477598Y-145710941D01*
X94649655Y-145595977D01*
X94795977Y-145449655D01*
X94910941Y-145277598D01*
X94990130Y-145086420D01*
X95030500Y-144883465D01*
X95030500Y-144676535D01*
X95030499Y-144676532D01*
X95469500Y-144676532D01*
X95469500Y-144883467D01*
X95509869Y-145086418D01*
X95589058Y-145277597D01*
X95704020Y-145449651D01*
X95704023Y-145449655D01*
X95850345Y-145595977D01*
X96022402Y-145710941D01*
X96213580Y-145790130D01*
X96416535Y-145830500D01*
X96416536Y-145830500D01*
X96623464Y-145830500D01*
X96623465Y-145830500D01*
X96826420Y-145790130D01*
X97017598Y-145710941D01*
X97189655Y-145595977D01*
X97335977Y-145449655D01*
X97450941Y-145277598D01*
X97530130Y-145086420D01*
X97570500Y-144883465D01*
X97570500Y-144676535D01*
X97530130Y-144473580D01*
X97450941Y-144282402D01*
X97335977Y-144110345D01*
X97189655Y-143964023D01*
X97047303Y-143868907D01*
X97017597Y-143849058D01*
X96826418Y-143769869D01*
X96623467Y-143729500D01*
X96623465Y-143729500D01*
X96416535Y-143729500D01*
X96416532Y-143729500D01*
X96213581Y-143769869D01*
X96022402Y-143849058D01*
X95850348Y-143964020D01*
X95704020Y-144110348D01*
X95589058Y-144282402D01*
X95509869Y-144473581D01*
X95469500Y-144676532D01*
X95030499Y-144676532D01*
X94990130Y-144473580D01*
X94910941Y-144282402D01*
X94795977Y-144110345D01*
X94649655Y-143964023D01*
X94507303Y-143868907D01*
X94477597Y-143849058D01*
X94286418Y-143769869D01*
X94083467Y-143729500D01*
X94083465Y-143729500D01*
X93876535Y-143729500D01*
X93876532Y-143729500D01*
X93673580Y-143769870D01*
X93673578Y-143769870D01*
X93537596Y-143826196D01*
X93476600Y-143830997D01*
X93429707Y-143804736D01*
X93185467Y-143560496D01*
X92884511Y-143259540D01*
X92884508Y-143259538D01*
X92815992Y-143219980D01*
X92815988Y-143219978D01*
X92739564Y-143199500D01*
X92739562Y-143199500D01*
X89525479Y-143199500D01*
X89467288Y-143180593D01*
X89455475Y-143170504D01*
X85009496Y-138724525D01*
X84981719Y-138670008D01*
X84980500Y-138654521D01*
X84980500Y-136535535D01*
X84999407Y-136477344D01*
X85009490Y-136465537D01*
X85320460Y-136154568D01*
X85357717Y-136090036D01*
X85360021Y-136086046D01*
X85380500Y-136009619D01*
X85380500Y-135939745D01*
X85381348Y-135926817D01*
X85381500Y-135925663D01*
X85381500Y-134814108D01*
X87109500Y-134814108D01*
X87109500Y-134945892D01*
X87120218Y-134985892D01*
X87143609Y-135073190D01*
X87209496Y-135187309D01*
X87209498Y-135187311D01*
X87209500Y-135187314D01*
X87280505Y-135258319D01*
X87308281Y-135312834D01*
X87309500Y-135328321D01*
X87309500Y-135489564D01*
X87329978Y-135565988D01*
X87329979Y-135565989D01*
X87353125Y-135606079D01*
X87363774Y-135624525D01*
X87369540Y-135634511D01*
X89695489Y-137960460D01*
X89695491Y-137960461D01*
X89695493Y-137960463D01*
X89764008Y-138000020D01*
X89764006Y-138000020D01*
X89764010Y-138000021D01*
X89764012Y-138000022D01*
X89840438Y-138020500D01*
X91834521Y-138020500D01*
X91892712Y-138039407D01*
X91904525Y-138049496D01*
X98084736Y-144229707D01*
X98112513Y-144284224D01*
X98106196Y-144337596D01*
X98049870Y-144473578D01*
X98049870Y-144473580D01*
X98009500Y-144676532D01*
X98009500Y-144883467D01*
X98049869Y-145086418D01*
X98129058Y-145277597D01*
X98244020Y-145449651D01*
X98244023Y-145449655D01*
X98390345Y-145595977D01*
X98562402Y-145710941D01*
X98753580Y-145790130D01*
X98956535Y-145830500D01*
X98956536Y-145830500D01*
X99163464Y-145830500D01*
X99163465Y-145830500D01*
X99366420Y-145790130D01*
X99557598Y-145710941D01*
X99729655Y-145595977D01*
X99875977Y-145449655D01*
X99990941Y-145277598D01*
X100070130Y-145086420D01*
X100110500Y-144883465D01*
X100110500Y-144676535D01*
X100070130Y-144473580D01*
X99990941Y-144282402D01*
X99875977Y-144110345D01*
X99729655Y-143964023D01*
X99587303Y-143868907D01*
X99557597Y-143849058D01*
X99366418Y-143769869D01*
X99163467Y-143729500D01*
X99163465Y-143729500D01*
X98956535Y-143729500D01*
X98956532Y-143729500D01*
X98753580Y-143769870D01*
X98753578Y-143769870D01*
X98617596Y-143826196D01*
X98556600Y-143830997D01*
X98509707Y-143804736D01*
X95431780Y-140726809D01*
X92184511Y-137479540D01*
X92184508Y-137479538D01*
X92115992Y-137439980D01*
X92115988Y-137439978D01*
X92039564Y-137419500D01*
X92039562Y-137419500D01*
X90045479Y-137419500D01*
X89987288Y-137400593D01*
X89975475Y-137390504D01*
X87961396Y-135376425D01*
X87933619Y-135321908D01*
X87943190Y-135261476D01*
X87961393Y-135236420D01*
X88010500Y-135187314D01*
X88076392Y-135073186D01*
X88110500Y-134945892D01*
X88110500Y-134814108D01*
X88076392Y-134686814D01*
X88076390Y-134686811D01*
X88076390Y-134686809D01*
X88010503Y-134572690D01*
X88010501Y-134572688D01*
X88010500Y-134572686D01*
X87917314Y-134479500D01*
X87917311Y-134479498D01*
X87917309Y-134479496D01*
X87803189Y-134413609D01*
X87803191Y-134413609D01*
X87753799Y-134400375D01*
X87675892Y-134379500D01*
X87544108Y-134379500D01*
X87466200Y-134400375D01*
X87416809Y-134413609D01*
X87302690Y-134479496D01*
X87209496Y-134572690D01*
X87143609Y-134686809D01*
X87136863Y-134711987D01*
X87109500Y-134814108D01*
X85381500Y-134814108D01*
X85381500Y-134481439D01*
X85381500Y-134481438D01*
X85372176Y-134446640D01*
X85361022Y-134405012D01*
X85346293Y-134379500D01*
X85321463Y-134336493D01*
X85321459Y-134336488D01*
X85140496Y-134155524D01*
X85112719Y-134101008D01*
X85111500Y-134085521D01*
X85111500Y-133024400D01*
X85111499Y-133024398D01*
X85091021Y-132947974D01*
X85091019Y-132947970D01*
X85051460Y-132879452D01*
X84995511Y-132823502D01*
X84995511Y-132823503D01*
X84740496Y-132568488D01*
X84738521Y-132564612D01*
X84734828Y-132562318D01*
X84728424Y-132544795D01*
X84712719Y-132513971D01*
X84711760Y-132505648D01*
X84711500Y-132502064D01*
X84711500Y-132391498D01*
X84702932Y-132359523D01*
X84691022Y-132315072D01*
X84651460Y-132246549D01*
X84592220Y-132187309D01*
X84339496Y-131934584D01*
X84311719Y-131880068D01*
X84310500Y-131864581D01*
X84310500Y-131814109D01*
X84310500Y-131814108D01*
X84276392Y-131686814D01*
X84276390Y-131686811D01*
X84276390Y-131686809D01*
X84210503Y-131572690D01*
X84210501Y-131572688D01*
X84210500Y-131572686D01*
X84117314Y-131479500D01*
X84117311Y-131479498D01*
X84117309Y-131479496D01*
X84003189Y-131413609D01*
X84003191Y-131413609D01*
X83953799Y-131400375D01*
X83875892Y-131379500D01*
X83744108Y-131379500D01*
X83666200Y-131400375D01*
X83616809Y-131413609D01*
X83502690Y-131479496D01*
X83409496Y-131572690D01*
X83343609Y-131686809D01*
X83343608Y-131686814D01*
X83309500Y-131814108D01*
X83309500Y-131945892D01*
X83339579Y-132058151D01*
X83343609Y-132073190D01*
X83409496Y-132187309D01*
X83409498Y-132187311D01*
X83409500Y-132187314D01*
X83432185Y-132209999D01*
X83459961Y-132264514D01*
X83450390Y-132324946D01*
X83432185Y-132350003D01*
X83409499Y-132372689D01*
X83343609Y-132486812D01*
X83343608Y-132486817D01*
X83309500Y-132614111D01*
X83309500Y-132745895D01*
X83330295Y-132823502D01*
X83343609Y-132873193D01*
X83409496Y-132987312D01*
X83409498Y-132987314D01*
X83409500Y-132987317D01*
X83432185Y-133010002D01*
X83459961Y-133064517D01*
X83450390Y-133124949D01*
X83432185Y-133150006D01*
X83409499Y-133172692D01*
X83343609Y-133286815D01*
X83309500Y-133414115D01*
X83309500Y-133514526D01*
X83290593Y-133572717D01*
X83280504Y-133584530D01*
X82365489Y-134499546D01*
X82365488Y-134499545D01*
X82309539Y-134555495D01*
X82269980Y-134624013D01*
X82269978Y-134624017D01*
X82249500Y-134700441D01*
X82249500Y-144024861D01*
X82230593Y-144083052D01*
X82181093Y-144119016D01*
X82119907Y-144119016D01*
X82080498Y-144094866D01*
X81949655Y-143964023D01*
X81807303Y-143868907D01*
X81777597Y-143849058D01*
X81586418Y-143769869D01*
X81383467Y-143729500D01*
X81383465Y-143729500D01*
X81176535Y-143729500D01*
X81176532Y-143729500D01*
X80973581Y-143769869D01*
X80782402Y-143849058D01*
X80610348Y-143964020D01*
X80464020Y-144110348D01*
X80349058Y-144282402D01*
X80269869Y-144473581D01*
X80229500Y-144676532D01*
X76700500Y-144676532D01*
X76700500Y-128839108D01*
X84970500Y-128839108D01*
X84970500Y-128970892D01*
X85000579Y-129083151D01*
X85004609Y-129098190D01*
X85070496Y-129212309D01*
X85070498Y-129212311D01*
X85070500Y-129212314D01*
X85150505Y-129292319D01*
X85178281Y-129346834D01*
X85179500Y-129362321D01*
X85179500Y-130959564D01*
X85199978Y-131035986D01*
X85199979Y-131035989D01*
X85208356Y-131050498D01*
X85208356Y-131050500D01*
X85235361Y-131097273D01*
X85239540Y-131104511D01*
X88950505Y-134815476D01*
X88978281Y-134869991D01*
X88979500Y-134885478D01*
X88979500Y-134985892D01*
X89002890Y-135073186D01*
X89013609Y-135113190D01*
X89079496Y-135227309D01*
X89079498Y-135227311D01*
X89079500Y-135227314D01*
X89172686Y-135320500D01*
X89172688Y-135320501D01*
X89172690Y-135320503D01*
X89286810Y-135386390D01*
X89286808Y-135386390D01*
X89286812Y-135386391D01*
X89286814Y-135386392D01*
X89414108Y-135420500D01*
X89414110Y-135420500D01*
X89545890Y-135420500D01*
X89545892Y-135420500D01*
X89673186Y-135386392D01*
X89673188Y-135386390D01*
X89673190Y-135386390D01*
X89787309Y-135320503D01*
X89787309Y-135320502D01*
X89787314Y-135320500D01*
X89880500Y-135227314D01*
X89903594Y-135187314D01*
X89946390Y-135113190D01*
X89946390Y-135113188D01*
X89946392Y-135113186D01*
X89980500Y-134985892D01*
X89980500Y-134854108D01*
X89946392Y-134726814D01*
X89946390Y-134726811D01*
X89946390Y-134726809D01*
X89880503Y-134612690D01*
X89880501Y-134612688D01*
X89880500Y-134612686D01*
X89787314Y-134519500D01*
X89787311Y-134519498D01*
X89787309Y-134519496D01*
X89673189Y-134453609D01*
X89673191Y-134453609D01*
X89617850Y-134438781D01*
X89545892Y-134419500D01*
X89445479Y-134419500D01*
X89387288Y-134400593D01*
X89375475Y-134390504D01*
X85809496Y-130824525D01*
X85781719Y-130770008D01*
X85780500Y-130754521D01*
X85780500Y-129344321D01*
X85799407Y-129286130D01*
X85809490Y-129274323D01*
X85871500Y-129212314D01*
X85937392Y-129098186D01*
X85971500Y-128970892D01*
X85971500Y-128839108D01*
X85937392Y-128711814D01*
X85937390Y-128711811D01*
X85937390Y-128711809D01*
X85871503Y-128597690D01*
X85871501Y-128597688D01*
X85871500Y-128597686D01*
X85778314Y-128504500D01*
X85778311Y-128504498D01*
X85778309Y-128504496D01*
X85664189Y-128438609D01*
X85664191Y-128438609D01*
X85614799Y-128425375D01*
X85536892Y-128404500D01*
X85405108Y-128404500D01*
X85327200Y-128425375D01*
X85277809Y-128438609D01*
X85163690Y-128504496D01*
X85070496Y-128597690D01*
X85004609Y-128711809D01*
X85004608Y-128711814D01*
X84970500Y-128839108D01*
X76700500Y-128839108D01*
X76700500Y-127864108D01*
X87709500Y-127864108D01*
X87709500Y-127995892D01*
X87739579Y-128108151D01*
X87743609Y-128123190D01*
X87809496Y-128237309D01*
X87809498Y-128237311D01*
X87809500Y-128237314D01*
X87880505Y-128308319D01*
X87908281Y-128362834D01*
X87909500Y-128378321D01*
X87909500Y-130789564D01*
X87929978Y-130865988D01*
X87929980Y-130865992D01*
X87969538Y-130934508D01*
X87969540Y-130934511D01*
X89299543Y-132264514D01*
X90623948Y-133588919D01*
X90651725Y-133643436D01*
X90642154Y-133703868D01*
X90598889Y-133747133D01*
X90579567Y-133754550D01*
X90487561Y-133779203D01*
X90487559Y-133779203D01*
X90487555Y-133779205D01*
X90373437Y-133845091D01*
X90280243Y-133938285D01*
X90214356Y-134052404D01*
X90214355Y-134052409D01*
X90180247Y-134179703D01*
X90180247Y-134311487D01*
X90189701Y-134346770D01*
X90214356Y-134438785D01*
X90280243Y-134552904D01*
X90280245Y-134552906D01*
X90280247Y-134552909D01*
X90373433Y-134646095D01*
X90373435Y-134646096D01*
X90373437Y-134646098D01*
X90487557Y-134711985D01*
X90487555Y-134711985D01*
X90487559Y-134711986D01*
X90487561Y-134711987D01*
X90611378Y-134745163D01*
X90655757Y-134770785D01*
X94131560Y-138246588D01*
X94159337Y-138301105D01*
X94150400Y-138357530D01*
X94151092Y-138357817D01*
X94149898Y-138360697D01*
X94149766Y-138361537D01*
X94148860Y-138363203D01*
X94148609Y-138363809D01*
X94148608Y-138363814D01*
X94114500Y-138491108D01*
X94114500Y-138622892D01*
X94122975Y-138654521D01*
X94148609Y-138750190D01*
X94214496Y-138864309D01*
X94214498Y-138864311D01*
X94214500Y-138864314D01*
X94307686Y-138957500D01*
X94307688Y-138957501D01*
X94307690Y-138957503D01*
X94421810Y-139023390D01*
X94421808Y-139023390D01*
X94421812Y-139023391D01*
X94421814Y-139023392D01*
X94549108Y-139057500D01*
X94549110Y-139057500D01*
X94680890Y-139057500D01*
X94680892Y-139057500D01*
X94808186Y-139023392D01*
X94808188Y-139023390D01*
X94808190Y-139023390D01*
X94922309Y-138957503D01*
X94922309Y-138957502D01*
X94922314Y-138957500D01*
X95015500Y-138864314D01*
X95015503Y-138864309D01*
X95081390Y-138750190D01*
X95081390Y-138750188D01*
X95081392Y-138750186D01*
X95115500Y-138622892D01*
X95115500Y-138491108D01*
X95081392Y-138363814D01*
X95081390Y-138363811D01*
X95081390Y-138363809D01*
X95023737Y-138263952D01*
X95011015Y-138204104D01*
X95035901Y-138148208D01*
X95088889Y-138117615D01*
X95149740Y-138124011D01*
X95179477Y-138144448D01*
X97250504Y-140215475D01*
X97254130Y-140222592D01*
X97260593Y-140227288D01*
X97267756Y-140249336D01*
X97278281Y-140269992D01*
X97279500Y-140285479D01*
X97279500Y-140471679D01*
X97260593Y-140529870D01*
X97250509Y-140541676D01*
X97179500Y-140612686D01*
X97179497Y-140612689D01*
X97179496Y-140612690D01*
X97113609Y-140726809D01*
X97113608Y-140726814D01*
X97079500Y-140854108D01*
X97079500Y-140985892D01*
X97109579Y-141098151D01*
X97113609Y-141113190D01*
X97179496Y-141227309D01*
X97179498Y-141227311D01*
X97179500Y-141227314D01*
X97272686Y-141320500D01*
X97272688Y-141320501D01*
X97272690Y-141320503D01*
X97386810Y-141386390D01*
X97386808Y-141386390D01*
X97386812Y-141386391D01*
X97386814Y-141386392D01*
X97514108Y-141420500D01*
X97514110Y-141420500D01*
X97645890Y-141420500D01*
X97645892Y-141420500D01*
X97773186Y-141386392D01*
X97773188Y-141386390D01*
X97773190Y-141386390D01*
X97887309Y-141320503D01*
X97887309Y-141320502D01*
X97887314Y-141320500D01*
X97980500Y-141227314D01*
X98046392Y-141113186D01*
X98080500Y-140985892D01*
X98080500Y-140854108D01*
X98046392Y-140726814D01*
X98046390Y-140726811D01*
X98046390Y-140726809D01*
X97980503Y-140612690D01*
X97980501Y-140612688D01*
X97980500Y-140612686D01*
X97909494Y-140541680D01*
X97881719Y-140487166D01*
X97880500Y-140471679D01*
X97880500Y-140080437D01*
X97880499Y-140080435D01*
X97860021Y-140004011D01*
X97860019Y-140004007D01*
X97820460Y-139935489D01*
X97764511Y-139879539D01*
X97764511Y-139879540D01*
X88539496Y-130654525D01*
X88511719Y-130600008D01*
X88510500Y-130584521D01*
X88510500Y-128378321D01*
X88529407Y-128320130D01*
X88539490Y-128308323D01*
X88610500Y-128237314D01*
X88676392Y-128123186D01*
X88710500Y-127995892D01*
X88710500Y-127864108D01*
X88676392Y-127736814D01*
X88676390Y-127736811D01*
X88676390Y-127736809D01*
X88610503Y-127622690D01*
X88610501Y-127622688D01*
X88610500Y-127622686D01*
X88517314Y-127529500D01*
X88517311Y-127529498D01*
X88517309Y-127529496D01*
X88403189Y-127463609D01*
X88403191Y-127463609D01*
X88353799Y-127450375D01*
X88275892Y-127429500D01*
X88144108Y-127429500D01*
X88066200Y-127450375D01*
X88016809Y-127463609D01*
X87902690Y-127529496D01*
X87809496Y-127622690D01*
X87743609Y-127736809D01*
X87743608Y-127736814D01*
X87709500Y-127864108D01*
X76700500Y-127864108D01*
X76700500Y-124051000D01*
X76719407Y-123992809D01*
X76768907Y-123956845D01*
X76799500Y-123952000D01*
X108620500Y-123952000D01*
X108678691Y-123970907D01*
G37*
G04 #@! TD.AperFunction*
M02*
