G04 #@! TF.GenerationSoftware,KiCad,Pcbnew,9.99.0-unknown-d5f02ba7bc~182~ubuntu22.04.1*
G04 #@! TF.CreationDate,2025-03-17T15:10:36+01:00*
G04 #@! TF.ProjectId,rfid-reader,72666964-2d72-4656-9164-65722e6b6963,rev?*
G04 #@! TF.SameCoordinates,Original*
G04 #@! TF.FileFunction,Soldermask,Top*
G04 #@! TF.FilePolarity,Negative*
%FSLAX46Y46*%
G04 Gerber Fmt 4.6, Leading zero omitted, Abs format (unit mm)*
G04 Created by KiCad (PCBNEW 9.99.0-unknown-d5f02ba7bc~182~ubuntu22.04.1) date 2025-03-17 15:10:36*
%MOMM*%
%LPD*%
G01*
G04 APERTURE LIST*
G04 Aperture macros list*
%AMRoundRect*
0 Rectangle with rounded corners*
0 $1 Rounding radius*
0 $2 $3 $4 $5 $6 $7 $8 $9 X,Y pos of 4 corners*
0 Add a 4 corners polygon primitive as box body*
4,1,4,$2,$3,$4,$5,$6,$7,$8,$9,$2,$3,0*
0 Add four circle primitives for the rounded corners*
1,1,$1+$1,$2,$3*
1,1,$1+$1,$4,$5*
1,1,$1+$1,$6,$7*
1,1,$1+$1,$8,$9*
0 Add four rect primitives between the rounded corners*
20,1,$1+$1,$2,$3,$4,$5,0*
20,1,$1+$1,$4,$5,$6,$7,0*
20,1,$1+$1,$6,$7,$8,$9,0*
20,1,$1+$1,$8,$9,$2,$3,0*%
G04 Aperture macros list end*
%ADD10RoundRect,0.225000X0.250000X-0.225000X0.250000X0.225000X-0.250000X0.225000X-0.250000X-0.225000X0*%
%ADD11RoundRect,0.225000X-0.225000X-0.250000X0.225000X-0.250000X0.225000X0.250000X-0.225000X0.250000X0*%
%ADD12RoundRect,0.200000X-0.200000X-0.275000X0.200000X-0.275000X0.200000X0.275000X-0.200000X0.275000X0*%
%ADD13RoundRect,0.225000X0.225000X0.250000X-0.225000X0.250000X-0.225000X-0.250000X0.225000X-0.250000X0*%
%ADD14C,1.000000*%
%ADD15RoundRect,0.062500X0.375000X0.062500X-0.375000X0.062500X-0.375000X-0.062500X0.375000X-0.062500X0*%
%ADD16RoundRect,0.062500X0.062500X0.375000X-0.062500X0.375000X-0.062500X-0.375000X0.062500X-0.375000X0*%
%ADD17R,3.450000X3.450000*%
%ADD18RoundRect,0.030000X0.070000X-0.070000X0.070000X0.070000X-0.070000X0.070000X-0.070000X-0.070000X0*%
%ADD19RoundRect,0.200000X0.200000X0.275000X-0.200000X0.275000X-0.200000X-0.275000X0.200000X-0.275000X0*%
%ADD20RoundRect,0.100000X0.400000X-0.400000X0.400000X0.400000X-0.400000X0.400000X-0.400000X-0.400000X0*%
%ADD21RoundRect,0.105000X0.995000X-0.420000X0.995000X0.420000X-0.995000X0.420000X-0.995000X-0.420000X0*%
%ADD22RoundRect,0.218750X0.256250X-0.218750X0.256250X0.218750X-0.256250X0.218750X-0.256250X-0.218750X0*%
%ADD23R,1.400000X1.200000*%
%ADD24R,1.700000X1.700000*%
%ADD25O,1.700000X1.700000*%
G04 APERTURE END LIST*
D10*
X102210000Y-127455000D03*
X102210000Y-125905000D03*
X100710000Y-127455000D03*
X100710000Y-125905000D03*
D11*
X91685000Y-134930000D03*
X93235000Y-134930000D03*
D12*
X100635000Y-128930000D03*
X102285000Y-128930000D03*
D13*
X99235000Y-127430000D03*
X97685000Y-127430000D03*
X99235000Y-133430000D03*
X97685000Y-133430000D03*
D10*
X102210000Y-131955000D03*
X102210000Y-130405000D03*
D14*
X86960000Y-135680000D03*
D15*
X90147500Y-133180000D03*
X90147500Y-132680000D03*
X90147500Y-132180000D03*
X90147500Y-131680000D03*
X90147500Y-131180000D03*
X90147500Y-130680000D03*
X90147500Y-130180000D03*
X90147500Y-129680000D03*
D16*
X89460000Y-128992500D03*
X88960000Y-128992500D03*
X88460000Y-128992500D03*
X87960000Y-128992500D03*
X87460000Y-128992500D03*
X86960000Y-128992500D03*
X86460000Y-128992500D03*
X85960000Y-128992500D03*
D15*
X85272500Y-129680000D03*
X85272500Y-130180000D03*
X85272500Y-130680000D03*
X85272500Y-131180000D03*
X85272500Y-131680000D03*
X85272500Y-132180000D03*
X85272500Y-132680000D03*
X85272500Y-133180000D03*
D16*
X85960000Y-133867500D03*
X86460000Y-133867500D03*
X86960000Y-133867500D03*
X87460000Y-133867500D03*
X87960000Y-133867500D03*
X88460000Y-133867500D03*
X88960000Y-133867500D03*
X89460000Y-133867500D03*
D17*
X87710000Y-131430000D03*
D10*
X90210000Y-139430000D03*
X90210000Y-137880000D03*
D13*
X99235000Y-131930000D03*
X97685000Y-131930000D03*
X99235000Y-130430000D03*
X97685000Y-130430000D03*
D18*
X100710000Y-121580000D03*
X100710000Y-119180000D03*
D14*
X100710000Y-122680000D03*
D11*
X91685000Y-137930000D03*
X93235000Y-137930000D03*
D10*
X96210000Y-130455000D03*
X96210000Y-128905000D03*
X85460000Y-127455000D03*
X85460000Y-125905000D03*
D19*
X99285000Y-125930000D03*
X97635000Y-125930000D03*
D10*
X83960000Y-127455000D03*
X83960000Y-125905000D03*
D13*
X99235000Y-128930000D03*
X97685000Y-128930000D03*
D20*
X104315000Y-127430000D03*
D21*
X105815000Y-125955000D03*
D20*
X107315000Y-127430000D03*
D21*
X105815000Y-128905000D03*
D11*
X91685000Y-136430000D03*
X93235000Y-136430000D03*
D10*
X96210000Y-133455000D03*
X96210000Y-131905000D03*
D11*
X91685000Y-133430000D03*
X93235000Y-133430000D03*
D22*
X100710000Y-134967500D03*
X100710000Y-133392500D03*
D10*
X91210000Y-127455000D03*
X91210000Y-125905000D03*
D11*
X91685000Y-139430000D03*
X93235000Y-139430000D03*
D14*
X87960000Y-126680000D03*
D11*
X100685000Y-124430000D03*
X102235000Y-124430000D03*
X97685000Y-134930000D03*
X99235000Y-134930000D03*
D13*
X99235000Y-124430000D03*
X97685000Y-124430000D03*
D10*
X89710000Y-127455000D03*
X89710000Y-125905000D03*
X84210000Y-139455000D03*
X84210000Y-137905000D03*
D11*
X91685000Y-131930000D03*
X93235000Y-131930000D03*
X97685000Y-136430000D03*
X99235000Y-136430000D03*
D23*
X86110000Y-139530000D03*
X88310000Y-139530000D03*
X88310000Y-137830000D03*
X86110000Y-137830000D03*
D22*
X100710000Y-131967500D03*
X100710000Y-130392500D03*
D24*
X81280000Y-147320000D03*
D25*
X81280000Y-144780000D03*
X83820000Y-147320000D03*
X83820000Y-144780000D03*
X86360000Y-147320000D03*
X86360000Y-144780000D03*
X88900000Y-147320000D03*
X88900000Y-144780000D03*
X91440000Y-147320000D03*
X91440000Y-144780000D03*
X93980000Y-147320000D03*
X93980000Y-144780000D03*
X96520000Y-147320000D03*
X96520000Y-144780000D03*
X99060000Y-147320000D03*
X99060000Y-144780000D03*
X101600000Y-147320000D03*
X101600000Y-144780000D03*
X104140000Y-147320000D03*
X104140000Y-144780000D03*
D24*
X81280000Y-68580000D03*
D25*
X81280000Y-66040000D03*
X83820000Y-68580000D03*
X83820000Y-66040000D03*
X86360000Y-68580000D03*
X86360000Y-66040000D03*
X88900000Y-68580000D03*
X88900000Y-66040000D03*
X91440000Y-68580000D03*
X91440000Y-66040000D03*
X93980000Y-68580000D03*
X93980000Y-66040000D03*
X96520000Y-68580000D03*
X96520000Y-66040000D03*
X99060000Y-68580000D03*
X99060000Y-66040000D03*
X101600000Y-68580000D03*
X101600000Y-66040000D03*
X104140000Y-68580000D03*
X104140000Y-66040000D03*
M02*
