M48
;DRILL file {KiCad 5.0.2-bee76a0~70~ubuntu18.04.1} date jeu. 09 mai 2019 10:06:36 CEST
;FORMAT={-:-/ absolute / inch / decimal}
FMAT,2
INCH,TZ
T1C0.0157
T2C0.0276
T3C0.0315
T4C0.0630
T5C0.1280
%
G90
G05
T1
X3.9311Y-5.2012
X4.002Y-5.0792
X4.0611Y-5.0792
X4.1004Y-5.03
X4.1634Y-2.3705
X4.1634Y-2.5989
X4.1634Y-5.591
X4.1634Y-5.8115
X4.2087Y-5.03
X4.2264Y-2.3705
X4.2264Y-2.5989
X4.2264Y-5.591
X4.2264Y-5.8115
X4.2678Y-4.5674
X4.2894Y-2.3705
X4.2894Y-2.5989
X4.2894Y-5.591
X4.2894Y-5.8115
X4.3524Y-2.3705
X4.3524Y-2.5989
X4.3524Y-5.591
X4.3524Y-5.8115
X4.4154Y-2.3705
X4.4154Y-2.5989
X4.4154Y-5.591
X4.4154Y-5.8115
X4.4784Y-2.3705
X4.4784Y-2.5989
X4.4784Y-5.591
X4.4784Y-5.8115
X4.5414Y-2.3705
X4.5414Y-2.5989
X4.5414Y-5.591
X4.5414Y-5.8115
X4.6044Y-2.3705
X4.6044Y-2.5989
X4.6044Y-5.591
X4.6044Y-5.8115
X4.6674Y-2.3705
X4.6674Y-2.5989
X4.6674Y-5.591
X4.8996Y-4.1304
X4.9036Y-5.2052
T2
X3.9567Y-4.4985
X3.9567Y-4.5575
X3.9567Y-4.6166
X3.9567Y-4.6756
X3.9567Y-4.7347
X3.9567Y-4.7937
X4.0355Y-4.5378
X4.0355Y-4.5969
X4.0355Y-4.6559
X4.0355Y-4.715
X4.0355Y-4.7741
X4.1142Y-4.5182
X4.1142Y-4.5772
X4.1142Y-4.6363
X4.1142Y-4.6953
X4.1142Y-4.7544
X4.2678Y-4.2662
X4.2678Y-5.026
X4.2874Y-4.3449
X4.2874Y-5.1048
X4.3071Y-4.1874
X4.3071Y-4.9473
X4.3268Y-4.2662
X4.3268Y-5.026
X4.3465Y-4.3449
X4.3465Y-5.1048
X4.3662Y-4.1874
X4.3662Y-4.9473
X4.3859Y-4.2662
X4.3859Y-5.026
X4.4056Y-4.3449
X4.4056Y-5.1048
X4.4252Y-4.1874
X4.4252Y-4.9473
X4.4449Y-4.2662
X4.4449Y-5.026
X4.4646Y-4.3449
X4.4646Y-5.1048
X4.4843Y-4.1874
X4.4843Y-4.9473
X4.504Y-4.2662
X4.504Y-5.026
X4.5237Y-4.3449
X4.5237Y-5.1048
X4.5433Y-4.1874
X4.5433Y-4.9473
X4.563Y-4.2662
X4.563Y-5.026
X4.7166Y-4.4985
X4.7166Y-4.5575
X4.7166Y-4.6166
X4.7166Y-4.6756
X4.7166Y-4.7347
X4.7166Y-4.7937
X4.7953Y-4.5378
X4.7953Y-4.5969
X4.7953Y-4.6559
X4.7953Y-4.715
X4.7953Y-4.7741
X4.8741Y-4.5182
X4.8741Y-4.5772
X4.8741Y-4.6363
X4.8741Y-4.6953
X4.8741Y-4.7544
T3
X4.318Y-3.8912
X4.5109Y-3.8912
T4
X4.1516Y-4.9099
X4.6792Y-4.3823
T5
X4.4154Y-4.6461
T0
M30
