G04 #@! TF.GenerationSoftware,KiCad,Pcbnew,5.0.2-bee76a0~70~ubuntu18.04.1*
G04 #@! TF.CreationDate,2019-05-09T10:06:34+02:00*
G04 #@! TF.ProjectId,stm32f205,73746d33-3266-4323-9035-2e6b69636164,rev?*
G04 #@! TF.SameCoordinates,Original*
G04 #@! TF.FileFunction,Legend,Bot*
G04 #@! TF.FilePolarity,Positive*
%FSLAX46Y46*%
G04 Gerber Fmt 4.6, Leading zero omitted, Abs format (unit mm)*
G04 Created by KiCad (PCBNEW 5.0.2-bee76a0~70~ubuntu18.04.1) date jeu. 09 mai 2019 10:06:34 CEST*
%MOMM*%
%LPD*%
G01*
G04 APERTURE LIST*
%ADD10C,0.120000*%
%ADD11C,0.150000*%
G04 APERTURE END LIST*
D10*
G04 #@! TO.C,C2*
X110361017Y-95502449D02*
X110361017Y-96019605D01*
X108941017Y-95502449D02*
X108941017Y-96019605D01*
G04 #@! TO.C,C3*
X113941017Y-95502449D02*
X113941017Y-96019605D01*
X115361017Y-95502449D02*
X115361017Y-96019605D01*
G04 #@! TO.C,C1*
X118861017Y-107769605D02*
X118861017Y-107252449D01*
X117441017Y-107769605D02*
X117441017Y-107252449D01*
D11*
G04 #@! TO.C,P2*
X122386017Y-68621027D02*
X122386017Y-61131027D01*
X101116017Y-68621027D02*
X122386017Y-68621027D01*
X101116017Y-61131027D02*
X101116017Y-68621027D01*
X122386017Y-61131027D02*
X101116017Y-61131027D01*
G04 #@! TO.C,P1*
X122386017Y-146721027D02*
X122386017Y-139231027D01*
X101116017Y-146721027D02*
X122386017Y-146721027D01*
X101116017Y-139231027D02*
X101116017Y-146721027D01*
X122386017Y-139231027D02*
X101116017Y-139231027D01*
G04 #@! TO.C,C2*
X108358159Y-95594360D02*
X108405778Y-95546741D01*
X108453397Y-95403884D01*
X108453397Y-95308646D01*
X108405778Y-95165788D01*
X108310540Y-95070550D01*
X108215302Y-95022931D01*
X108024826Y-94975312D01*
X107881969Y-94975312D01*
X107691493Y-95022931D01*
X107596255Y-95070550D01*
X107501017Y-95165788D01*
X107453397Y-95308646D01*
X107453397Y-95403884D01*
X107501017Y-95546741D01*
X107548636Y-95594360D01*
X107548636Y-95975312D02*
X107501017Y-96022931D01*
X107453397Y-96118169D01*
X107453397Y-96356265D01*
X107501017Y-96451503D01*
X107548636Y-96499122D01*
X107643874Y-96546741D01*
X107739112Y-96546741D01*
X107881969Y-96499122D01*
X108453397Y-95927693D01*
X108453397Y-96546741D01*
G04 #@! TO.C,C3*
X113358159Y-95594360D02*
X113405778Y-95546741D01*
X113453397Y-95403884D01*
X113453397Y-95308646D01*
X113405778Y-95165788D01*
X113310540Y-95070550D01*
X113215302Y-95022931D01*
X113024826Y-94975312D01*
X112881969Y-94975312D01*
X112691493Y-95022931D01*
X112596255Y-95070550D01*
X112501017Y-95165788D01*
X112453397Y-95308646D01*
X112453397Y-95403884D01*
X112501017Y-95546741D01*
X112548636Y-95594360D01*
X112453397Y-95927693D02*
X112453397Y-96546741D01*
X112834350Y-96213407D01*
X112834350Y-96356265D01*
X112881969Y-96451503D01*
X112929588Y-96499122D01*
X113024826Y-96546741D01*
X113262921Y-96546741D01*
X113358159Y-96499122D01*
X113405778Y-96451503D01*
X113453397Y-96356265D01*
X113453397Y-96070550D01*
X113405778Y-95975312D01*
X113358159Y-95927693D01*
G04 #@! TO.C,C1*
X120158159Y-107344360D02*
X120205778Y-107296741D01*
X120253397Y-107153884D01*
X120253397Y-107058646D01*
X120205778Y-106915788D01*
X120110540Y-106820550D01*
X120015302Y-106772931D01*
X119824826Y-106725312D01*
X119681969Y-106725312D01*
X119491493Y-106772931D01*
X119396255Y-106820550D01*
X119301017Y-106915788D01*
X119253397Y-107058646D01*
X119253397Y-107153884D01*
X119301017Y-107296741D01*
X119348636Y-107344360D01*
X120253397Y-108296741D02*
X120253397Y-107725312D01*
X120253397Y-108011027D02*
X119253397Y-108011027D01*
X119396255Y-107915788D01*
X119491493Y-107820550D01*
X119539112Y-107725312D01*
G04 #@! TO.C,P2*
X116889112Y-62463407D02*
X116889112Y-61463407D01*
X116508159Y-61463407D01*
X116412921Y-61511027D01*
X116365302Y-61558646D01*
X116317683Y-61653884D01*
X116317683Y-61796741D01*
X116365302Y-61891979D01*
X116412921Y-61939598D01*
X116508159Y-61987217D01*
X116889112Y-61987217D01*
X115936731Y-61558646D02*
X115889112Y-61511027D01*
X115793874Y-61463407D01*
X115555778Y-61463407D01*
X115460540Y-61511027D01*
X115412921Y-61558646D01*
X115365302Y-61653884D01*
X115365302Y-61749122D01*
X115412921Y-61891979D01*
X115984350Y-62463407D01*
X115365302Y-62463407D01*
X119665302Y-70028407D02*
X120236731Y-70028407D01*
X119951017Y-70028407D02*
X119951017Y-69028407D01*
X120046255Y-69171265D01*
X120141493Y-69266503D01*
X120236731Y-69314122D01*
G04 #@! TO.C,P1*
X116889112Y-140563407D02*
X116889112Y-139563407D01*
X116508159Y-139563407D01*
X116412921Y-139611027D01*
X116365302Y-139658646D01*
X116317683Y-139753884D01*
X116317683Y-139896741D01*
X116365302Y-139991979D01*
X116412921Y-140039598D01*
X116508159Y-140087217D01*
X116889112Y-140087217D01*
X115365302Y-140563407D02*
X115936731Y-140563407D01*
X115651017Y-140563407D02*
X115651017Y-139563407D01*
X115746255Y-139706265D01*
X115841493Y-139801503D01*
X115936731Y-139849122D01*
X119665302Y-148128407D02*
X120236731Y-148128407D01*
X119951017Y-148128407D02*
X119951017Y-147128407D01*
X120046255Y-147271265D01*
X120141493Y-147366503D01*
X120236731Y-147414122D01*
G04 #@! TD*
M02*
