G04 #@! TF.GenerationSoftware,KiCad,Pcbnew,7.99.0-unknown-099e5dd9e7~172~ubuntu22.04.1*
G04 #@! TF.CreationDate,2023-10-11T09:46:22+02:00*
G04 #@! TF.ProjectId,stm32u5a9zjt6q,73746d33-3275-4356-9139-7a6a7436712e,rev?*
G04 #@! TF.SameCoordinates,Original*
G04 #@! TF.FileFunction,Legend,Top*
G04 #@! TF.FilePolarity,Positive*
%FSLAX46Y46*%
G04 Gerber Fmt 4.6, Leading zero omitted, Abs format (unit mm)*
G04 Created by KiCad (PCBNEW 7.99.0-unknown-099e5dd9e7~172~ubuntu22.04.1) date 2023-10-11 09:46:22*
%MOMM*%
%LPD*%
G01*
G04 APERTURE LIST*
%ADD10C,0.150000*%
%ADD11C,0.300000*%
%ADD12C,0.010000*%
G04 APERTURE END LIST*
D10*
X103764878Y-151045826D02*
X103729164Y-151117255D01*
X103729164Y-151117255D02*
X103729164Y-151224397D01*
X103729164Y-151224397D02*
X103764878Y-151331540D01*
X103764878Y-151331540D02*
X103836307Y-151402969D01*
X103836307Y-151402969D02*
X103907735Y-151438683D01*
X103907735Y-151438683D02*
X104050592Y-151474397D01*
X104050592Y-151474397D02*
X104157735Y-151474397D01*
X104157735Y-151474397D02*
X104300592Y-151438683D01*
X104300592Y-151438683D02*
X104372021Y-151402969D01*
X104372021Y-151402969D02*
X104443450Y-151331540D01*
X104443450Y-151331540D02*
X104479164Y-151224397D01*
X104479164Y-151224397D02*
X104479164Y-151152969D01*
X104479164Y-151152969D02*
X104443450Y-151045826D01*
X104443450Y-151045826D02*
X104407735Y-151010112D01*
X104407735Y-151010112D02*
X104157735Y-151010112D01*
X104157735Y-151010112D02*
X104157735Y-151152969D01*
X104479164Y-150688683D02*
X103729164Y-150688683D01*
X103729164Y-150688683D02*
X104479164Y-150260112D01*
X104479164Y-150260112D02*
X103729164Y-150260112D01*
X104479164Y-149902969D02*
X103729164Y-149902969D01*
X103729164Y-149902969D02*
X103729164Y-149724398D01*
X103729164Y-149724398D02*
X103764878Y-149617255D01*
X103764878Y-149617255D02*
X103836307Y-149545826D01*
X103836307Y-149545826D02*
X103907735Y-149510112D01*
X103907735Y-149510112D02*
X104050592Y-149474398D01*
X104050592Y-149474398D02*
X104157735Y-149474398D01*
X104157735Y-149474398D02*
X104300592Y-149510112D01*
X104300592Y-149510112D02*
X104372021Y-149545826D01*
X104372021Y-149545826D02*
X104443450Y-149617255D01*
X104443450Y-149617255D02*
X104479164Y-149724398D01*
X104479164Y-149724398D02*
X104479164Y-149902969D01*
X104264878Y-149188683D02*
X104264878Y-148831541D01*
X104479164Y-149260112D02*
X103729164Y-149010112D01*
X103729164Y-149010112D02*
X104479164Y-148760112D01*
X101224878Y-150402969D02*
X101189164Y-150474398D01*
X101189164Y-150474398D02*
X101189164Y-150581540D01*
X101189164Y-150581540D02*
X101224878Y-150688683D01*
X101224878Y-150688683D02*
X101296307Y-150760112D01*
X101296307Y-150760112D02*
X101367735Y-150795826D01*
X101367735Y-150795826D02*
X101510592Y-150831540D01*
X101510592Y-150831540D02*
X101617735Y-150831540D01*
X101617735Y-150831540D02*
X101760592Y-150795826D01*
X101760592Y-150795826D02*
X101832021Y-150760112D01*
X101832021Y-150760112D02*
X101903450Y-150688683D01*
X101903450Y-150688683D02*
X101939164Y-150581540D01*
X101939164Y-150581540D02*
X101939164Y-150510112D01*
X101939164Y-150510112D02*
X101903450Y-150402969D01*
X101903450Y-150402969D02*
X101867735Y-150367255D01*
X101867735Y-150367255D02*
X101617735Y-150367255D01*
X101617735Y-150367255D02*
X101617735Y-150510112D01*
X101939164Y-150045826D02*
X101189164Y-150045826D01*
X101189164Y-150045826D02*
X101939164Y-149617255D01*
X101939164Y-149617255D02*
X101189164Y-149617255D01*
X101939164Y-149260112D02*
X101189164Y-149260112D01*
X101189164Y-149260112D02*
X101189164Y-149081541D01*
X101189164Y-149081541D02*
X101224878Y-148974398D01*
X101224878Y-148974398D02*
X101296307Y-148902969D01*
X101296307Y-148902969D02*
X101367735Y-148867255D01*
X101367735Y-148867255D02*
X101510592Y-148831541D01*
X101510592Y-148831541D02*
X101617735Y-148831541D01*
X101617735Y-148831541D02*
X101760592Y-148867255D01*
X101760592Y-148867255D02*
X101832021Y-148902969D01*
X101832021Y-148902969D02*
X101903450Y-148974398D01*
X101903450Y-148974398D02*
X101939164Y-149081541D01*
X101939164Y-149081541D02*
X101939164Y-149260112D01*
X99399164Y-150688684D02*
X98649164Y-150688684D01*
X98649164Y-150688684D02*
X98649164Y-150510113D01*
X98649164Y-150510113D02*
X98684878Y-150402970D01*
X98684878Y-150402970D02*
X98756307Y-150331541D01*
X98756307Y-150331541D02*
X98827735Y-150295827D01*
X98827735Y-150295827D02*
X98970592Y-150260113D01*
X98970592Y-150260113D02*
X99077735Y-150260113D01*
X99077735Y-150260113D02*
X99220592Y-150295827D01*
X99220592Y-150295827D02*
X99292021Y-150331541D01*
X99292021Y-150331541D02*
X99363450Y-150402970D01*
X99363450Y-150402970D02*
X99399164Y-150510113D01*
X99399164Y-150510113D02*
X99399164Y-150688684D01*
X99399164Y-149545827D02*
X99399164Y-149974398D01*
X99399164Y-149760113D02*
X98649164Y-149760113D01*
X98649164Y-149760113D02*
X98756307Y-149831541D01*
X98756307Y-149831541D02*
X98827735Y-149902970D01*
X98827735Y-149902970D02*
X98863450Y-149974398D01*
X98649164Y-148867255D02*
X98649164Y-149224398D01*
X98649164Y-149224398D02*
X99006307Y-149260112D01*
X99006307Y-149260112D02*
X98970592Y-149224398D01*
X98970592Y-149224398D02*
X98934878Y-149152970D01*
X98934878Y-149152970D02*
X98934878Y-148974398D01*
X98934878Y-148974398D02*
X98970592Y-148902970D01*
X98970592Y-148902970D02*
X99006307Y-148867255D01*
X99006307Y-148867255D02*
X99077735Y-148831541D01*
X99077735Y-148831541D02*
X99256307Y-148831541D01*
X99256307Y-148831541D02*
X99327735Y-148867255D01*
X99327735Y-148867255D02*
X99363450Y-148902970D01*
X99363450Y-148902970D02*
X99399164Y-148974398D01*
X99399164Y-148974398D02*
X99399164Y-149152970D01*
X99399164Y-149152970D02*
X99363450Y-149224398D01*
X99363450Y-149224398D02*
X99327735Y-149260112D01*
X96859164Y-150688684D02*
X96109164Y-150688684D01*
X96109164Y-150688684D02*
X96109164Y-150510113D01*
X96109164Y-150510113D02*
X96144878Y-150402970D01*
X96144878Y-150402970D02*
X96216307Y-150331541D01*
X96216307Y-150331541D02*
X96287735Y-150295827D01*
X96287735Y-150295827D02*
X96430592Y-150260113D01*
X96430592Y-150260113D02*
X96537735Y-150260113D01*
X96537735Y-150260113D02*
X96680592Y-150295827D01*
X96680592Y-150295827D02*
X96752021Y-150331541D01*
X96752021Y-150331541D02*
X96823450Y-150402970D01*
X96823450Y-150402970D02*
X96859164Y-150510113D01*
X96859164Y-150510113D02*
X96859164Y-150688684D01*
X96859164Y-149545827D02*
X96859164Y-149974398D01*
X96859164Y-149760113D02*
X96109164Y-149760113D01*
X96109164Y-149760113D02*
X96216307Y-149831541D01*
X96216307Y-149831541D02*
X96287735Y-149902970D01*
X96287735Y-149902970D02*
X96323450Y-149974398D01*
X96109164Y-149295827D02*
X96109164Y-148831541D01*
X96109164Y-148831541D02*
X96394878Y-149081541D01*
X96394878Y-149081541D02*
X96394878Y-148974398D01*
X96394878Y-148974398D02*
X96430592Y-148902970D01*
X96430592Y-148902970D02*
X96466307Y-148867255D01*
X96466307Y-148867255D02*
X96537735Y-148831541D01*
X96537735Y-148831541D02*
X96716307Y-148831541D01*
X96716307Y-148831541D02*
X96787735Y-148867255D01*
X96787735Y-148867255D02*
X96823450Y-148902970D01*
X96823450Y-148902970D02*
X96859164Y-148974398D01*
X96859164Y-148974398D02*
X96859164Y-149188684D01*
X96859164Y-149188684D02*
X96823450Y-149260112D01*
X96823450Y-149260112D02*
X96787735Y-149295827D01*
X94319164Y-150688684D02*
X93569164Y-150688684D01*
X93569164Y-150688684D02*
X93569164Y-150510113D01*
X93569164Y-150510113D02*
X93604878Y-150402970D01*
X93604878Y-150402970D02*
X93676307Y-150331541D01*
X93676307Y-150331541D02*
X93747735Y-150295827D01*
X93747735Y-150295827D02*
X93890592Y-150260113D01*
X93890592Y-150260113D02*
X93997735Y-150260113D01*
X93997735Y-150260113D02*
X94140592Y-150295827D01*
X94140592Y-150295827D02*
X94212021Y-150331541D01*
X94212021Y-150331541D02*
X94283450Y-150402970D01*
X94283450Y-150402970D02*
X94319164Y-150510113D01*
X94319164Y-150510113D02*
X94319164Y-150688684D01*
X94319164Y-149545827D02*
X94319164Y-149974398D01*
X94319164Y-149760113D02*
X93569164Y-149760113D01*
X93569164Y-149760113D02*
X93676307Y-149831541D01*
X93676307Y-149831541D02*
X93747735Y-149902970D01*
X93747735Y-149902970D02*
X93783450Y-149974398D01*
X94319164Y-148831541D02*
X94319164Y-149260112D01*
X94319164Y-149045827D02*
X93569164Y-149045827D01*
X93569164Y-149045827D02*
X93676307Y-149117255D01*
X93676307Y-149117255D02*
X93747735Y-149188684D01*
X93747735Y-149188684D02*
X93783450Y-149260112D01*
X91779164Y-149974398D02*
X91029164Y-149974398D01*
X91029164Y-149974398D02*
X91029164Y-149795827D01*
X91029164Y-149795827D02*
X91064878Y-149688684D01*
X91064878Y-149688684D02*
X91136307Y-149617255D01*
X91136307Y-149617255D02*
X91207735Y-149581541D01*
X91207735Y-149581541D02*
X91350592Y-149545827D01*
X91350592Y-149545827D02*
X91457735Y-149545827D01*
X91457735Y-149545827D02*
X91600592Y-149581541D01*
X91600592Y-149581541D02*
X91672021Y-149617255D01*
X91672021Y-149617255D02*
X91743450Y-149688684D01*
X91743450Y-149688684D02*
X91779164Y-149795827D01*
X91779164Y-149795827D02*
X91779164Y-149974398D01*
X91779164Y-149188684D02*
X91779164Y-149045827D01*
X91779164Y-149045827D02*
X91743450Y-148974398D01*
X91743450Y-148974398D02*
X91707735Y-148938684D01*
X91707735Y-148938684D02*
X91600592Y-148867255D01*
X91600592Y-148867255D02*
X91457735Y-148831541D01*
X91457735Y-148831541D02*
X91172021Y-148831541D01*
X91172021Y-148831541D02*
X91100592Y-148867255D01*
X91100592Y-148867255D02*
X91064878Y-148902970D01*
X91064878Y-148902970D02*
X91029164Y-148974398D01*
X91029164Y-148974398D02*
X91029164Y-149117255D01*
X91029164Y-149117255D02*
X91064878Y-149188684D01*
X91064878Y-149188684D02*
X91100592Y-149224398D01*
X91100592Y-149224398D02*
X91172021Y-149260112D01*
X91172021Y-149260112D02*
X91350592Y-149260112D01*
X91350592Y-149260112D02*
X91422021Y-149224398D01*
X91422021Y-149224398D02*
X91457735Y-149188684D01*
X91457735Y-149188684D02*
X91493450Y-149117255D01*
X91493450Y-149117255D02*
X91493450Y-148974398D01*
X91493450Y-148974398D02*
X91457735Y-148902970D01*
X91457735Y-148902970D02*
X91422021Y-148867255D01*
X91422021Y-148867255D02*
X91350592Y-148831541D01*
X89239164Y-149974398D02*
X88489164Y-149974398D01*
X88489164Y-149974398D02*
X88489164Y-149795827D01*
X88489164Y-149795827D02*
X88524878Y-149688684D01*
X88524878Y-149688684D02*
X88596307Y-149617255D01*
X88596307Y-149617255D02*
X88667735Y-149581541D01*
X88667735Y-149581541D02*
X88810592Y-149545827D01*
X88810592Y-149545827D02*
X88917735Y-149545827D01*
X88917735Y-149545827D02*
X89060592Y-149581541D01*
X89060592Y-149581541D02*
X89132021Y-149617255D01*
X89132021Y-149617255D02*
X89203450Y-149688684D01*
X89203450Y-149688684D02*
X89239164Y-149795827D01*
X89239164Y-149795827D02*
X89239164Y-149974398D01*
X88489164Y-149295827D02*
X88489164Y-148795827D01*
X88489164Y-148795827D02*
X89239164Y-149117255D01*
X86699164Y-149974398D02*
X85949164Y-149974398D01*
X85949164Y-149974398D02*
X85949164Y-149795827D01*
X85949164Y-149795827D02*
X85984878Y-149688684D01*
X85984878Y-149688684D02*
X86056307Y-149617255D01*
X86056307Y-149617255D02*
X86127735Y-149581541D01*
X86127735Y-149581541D02*
X86270592Y-149545827D01*
X86270592Y-149545827D02*
X86377735Y-149545827D01*
X86377735Y-149545827D02*
X86520592Y-149581541D01*
X86520592Y-149581541D02*
X86592021Y-149617255D01*
X86592021Y-149617255D02*
X86663450Y-149688684D01*
X86663450Y-149688684D02*
X86699164Y-149795827D01*
X86699164Y-149795827D02*
X86699164Y-149974398D01*
X85949164Y-148867255D02*
X85949164Y-149224398D01*
X85949164Y-149224398D02*
X86306307Y-149260112D01*
X86306307Y-149260112D02*
X86270592Y-149224398D01*
X86270592Y-149224398D02*
X86234878Y-149152970D01*
X86234878Y-149152970D02*
X86234878Y-148974398D01*
X86234878Y-148974398D02*
X86270592Y-148902970D01*
X86270592Y-148902970D02*
X86306307Y-148867255D01*
X86306307Y-148867255D02*
X86377735Y-148831541D01*
X86377735Y-148831541D02*
X86556307Y-148831541D01*
X86556307Y-148831541D02*
X86627735Y-148867255D01*
X86627735Y-148867255D02*
X86663450Y-148902970D01*
X86663450Y-148902970D02*
X86699164Y-148974398D01*
X86699164Y-148974398D02*
X86699164Y-149152970D01*
X86699164Y-149152970D02*
X86663450Y-149224398D01*
X86663450Y-149224398D02*
X86627735Y-149260112D01*
X84159164Y-149974398D02*
X83409164Y-149974398D01*
X83409164Y-149974398D02*
X83409164Y-149795827D01*
X83409164Y-149795827D02*
X83444878Y-149688684D01*
X83444878Y-149688684D02*
X83516307Y-149617255D01*
X83516307Y-149617255D02*
X83587735Y-149581541D01*
X83587735Y-149581541D02*
X83730592Y-149545827D01*
X83730592Y-149545827D02*
X83837735Y-149545827D01*
X83837735Y-149545827D02*
X83980592Y-149581541D01*
X83980592Y-149581541D02*
X84052021Y-149617255D01*
X84052021Y-149617255D02*
X84123450Y-149688684D01*
X84123450Y-149688684D02*
X84159164Y-149795827D01*
X84159164Y-149795827D02*
X84159164Y-149974398D01*
X83409164Y-149295827D02*
X83409164Y-148831541D01*
X83409164Y-148831541D02*
X83694878Y-149081541D01*
X83694878Y-149081541D02*
X83694878Y-148974398D01*
X83694878Y-148974398D02*
X83730592Y-148902970D01*
X83730592Y-148902970D02*
X83766307Y-148867255D01*
X83766307Y-148867255D02*
X83837735Y-148831541D01*
X83837735Y-148831541D02*
X84016307Y-148831541D01*
X84016307Y-148831541D02*
X84087735Y-148867255D01*
X84087735Y-148867255D02*
X84123450Y-148902970D01*
X84123450Y-148902970D02*
X84159164Y-148974398D01*
X84159164Y-148974398D02*
X84159164Y-149188684D01*
X84159164Y-149188684D02*
X84123450Y-149260112D01*
X84123450Y-149260112D02*
X84087735Y-149295827D01*
X81619164Y-149974398D02*
X80869164Y-149974398D01*
X80869164Y-149974398D02*
X80869164Y-149795827D01*
X80869164Y-149795827D02*
X80904878Y-149688684D01*
X80904878Y-149688684D02*
X80976307Y-149617255D01*
X80976307Y-149617255D02*
X81047735Y-149581541D01*
X81047735Y-149581541D02*
X81190592Y-149545827D01*
X81190592Y-149545827D02*
X81297735Y-149545827D01*
X81297735Y-149545827D02*
X81440592Y-149581541D01*
X81440592Y-149581541D02*
X81512021Y-149617255D01*
X81512021Y-149617255D02*
X81583450Y-149688684D01*
X81583450Y-149688684D02*
X81619164Y-149795827D01*
X81619164Y-149795827D02*
X81619164Y-149974398D01*
X81619164Y-148831541D02*
X81619164Y-149260112D01*
X81619164Y-149045827D02*
X80869164Y-149045827D01*
X80869164Y-149045827D02*
X80976307Y-149117255D01*
X80976307Y-149117255D02*
X81047735Y-149188684D01*
X81047735Y-149188684D02*
X81083450Y-149260112D01*
X81619164Y-143232744D02*
X80869164Y-143232744D01*
X80869164Y-143232744D02*
X80869164Y-143054173D01*
X80869164Y-143054173D02*
X80904878Y-142947030D01*
X80904878Y-142947030D02*
X80976307Y-142875601D01*
X80976307Y-142875601D02*
X81047735Y-142839887D01*
X81047735Y-142839887D02*
X81190592Y-142804173D01*
X81190592Y-142804173D02*
X81297735Y-142804173D01*
X81297735Y-142804173D02*
X81440592Y-142839887D01*
X81440592Y-142839887D02*
X81512021Y-142875601D01*
X81512021Y-142875601D02*
X81583450Y-142947030D01*
X81583450Y-142947030D02*
X81619164Y-143054173D01*
X81619164Y-143054173D02*
X81619164Y-143232744D01*
X80869164Y-142339887D02*
X80869164Y-142268458D01*
X80869164Y-142268458D02*
X80904878Y-142197030D01*
X80904878Y-142197030D02*
X80940592Y-142161316D01*
X80940592Y-142161316D02*
X81012021Y-142125601D01*
X81012021Y-142125601D02*
X81154878Y-142089887D01*
X81154878Y-142089887D02*
X81333450Y-142089887D01*
X81333450Y-142089887D02*
X81476307Y-142125601D01*
X81476307Y-142125601D02*
X81547735Y-142161316D01*
X81547735Y-142161316D02*
X81583450Y-142197030D01*
X81583450Y-142197030D02*
X81619164Y-142268458D01*
X81619164Y-142268458D02*
X81619164Y-142339887D01*
X81619164Y-142339887D02*
X81583450Y-142411316D01*
X81583450Y-142411316D02*
X81547735Y-142447030D01*
X81547735Y-142447030D02*
X81476307Y-142482744D01*
X81476307Y-142482744D02*
X81333450Y-142518458D01*
X81333450Y-142518458D02*
X81154878Y-142518458D01*
X81154878Y-142518458D02*
X81012021Y-142482744D01*
X81012021Y-142482744D02*
X80940592Y-142447030D01*
X80940592Y-142447030D02*
X80904878Y-142411316D01*
X80904878Y-142411316D02*
X80869164Y-142339887D01*
X84159164Y-143232744D02*
X83409164Y-143232744D01*
X83409164Y-143232744D02*
X83409164Y-143054173D01*
X83409164Y-143054173D02*
X83444878Y-142947030D01*
X83444878Y-142947030D02*
X83516307Y-142875601D01*
X83516307Y-142875601D02*
X83587735Y-142839887D01*
X83587735Y-142839887D02*
X83730592Y-142804173D01*
X83730592Y-142804173D02*
X83837735Y-142804173D01*
X83837735Y-142804173D02*
X83980592Y-142839887D01*
X83980592Y-142839887D02*
X84052021Y-142875601D01*
X84052021Y-142875601D02*
X84123450Y-142947030D01*
X84123450Y-142947030D02*
X84159164Y-143054173D01*
X84159164Y-143054173D02*
X84159164Y-143232744D01*
X83480592Y-142518458D02*
X83444878Y-142482744D01*
X83444878Y-142482744D02*
X83409164Y-142411316D01*
X83409164Y-142411316D02*
X83409164Y-142232744D01*
X83409164Y-142232744D02*
X83444878Y-142161316D01*
X83444878Y-142161316D02*
X83480592Y-142125601D01*
X83480592Y-142125601D02*
X83552021Y-142089887D01*
X83552021Y-142089887D02*
X83623450Y-142089887D01*
X83623450Y-142089887D02*
X83730592Y-142125601D01*
X83730592Y-142125601D02*
X84159164Y-142554173D01*
X84159164Y-142554173D02*
X84159164Y-142089887D01*
X86699164Y-143232744D02*
X85949164Y-143232744D01*
X85949164Y-143232744D02*
X85949164Y-143054173D01*
X85949164Y-143054173D02*
X85984878Y-142947030D01*
X85984878Y-142947030D02*
X86056307Y-142875601D01*
X86056307Y-142875601D02*
X86127735Y-142839887D01*
X86127735Y-142839887D02*
X86270592Y-142804173D01*
X86270592Y-142804173D02*
X86377735Y-142804173D01*
X86377735Y-142804173D02*
X86520592Y-142839887D01*
X86520592Y-142839887D02*
X86592021Y-142875601D01*
X86592021Y-142875601D02*
X86663450Y-142947030D01*
X86663450Y-142947030D02*
X86699164Y-143054173D01*
X86699164Y-143054173D02*
X86699164Y-143232744D01*
X86199164Y-142161316D02*
X86699164Y-142161316D01*
X85913450Y-142339887D02*
X86449164Y-142518458D01*
X86449164Y-142518458D02*
X86449164Y-142054173D01*
X89239164Y-143232744D02*
X88489164Y-143232744D01*
X88489164Y-143232744D02*
X88489164Y-143054173D01*
X88489164Y-143054173D02*
X88524878Y-142947030D01*
X88524878Y-142947030D02*
X88596307Y-142875601D01*
X88596307Y-142875601D02*
X88667735Y-142839887D01*
X88667735Y-142839887D02*
X88810592Y-142804173D01*
X88810592Y-142804173D02*
X88917735Y-142804173D01*
X88917735Y-142804173D02*
X89060592Y-142839887D01*
X89060592Y-142839887D02*
X89132021Y-142875601D01*
X89132021Y-142875601D02*
X89203450Y-142947030D01*
X89203450Y-142947030D02*
X89239164Y-143054173D01*
X89239164Y-143054173D02*
X89239164Y-143232744D01*
X88489164Y-142161316D02*
X88489164Y-142304173D01*
X88489164Y-142304173D02*
X88524878Y-142375601D01*
X88524878Y-142375601D02*
X88560592Y-142411316D01*
X88560592Y-142411316D02*
X88667735Y-142482744D01*
X88667735Y-142482744D02*
X88810592Y-142518458D01*
X88810592Y-142518458D02*
X89096307Y-142518458D01*
X89096307Y-142518458D02*
X89167735Y-142482744D01*
X89167735Y-142482744D02*
X89203450Y-142447030D01*
X89203450Y-142447030D02*
X89239164Y-142375601D01*
X89239164Y-142375601D02*
X89239164Y-142232744D01*
X89239164Y-142232744D02*
X89203450Y-142161316D01*
X89203450Y-142161316D02*
X89167735Y-142125601D01*
X89167735Y-142125601D02*
X89096307Y-142089887D01*
X89096307Y-142089887D02*
X88917735Y-142089887D01*
X88917735Y-142089887D02*
X88846307Y-142125601D01*
X88846307Y-142125601D02*
X88810592Y-142161316D01*
X88810592Y-142161316D02*
X88774878Y-142232744D01*
X88774878Y-142232744D02*
X88774878Y-142375601D01*
X88774878Y-142375601D02*
X88810592Y-142447030D01*
X88810592Y-142447030D02*
X88846307Y-142482744D01*
X88846307Y-142482744D02*
X88917735Y-142518458D01*
X91779164Y-143232744D02*
X91029164Y-143232744D01*
X91029164Y-143232744D02*
X91029164Y-143054173D01*
X91029164Y-143054173D02*
X91064878Y-142947030D01*
X91064878Y-142947030D02*
X91136307Y-142875601D01*
X91136307Y-142875601D02*
X91207735Y-142839887D01*
X91207735Y-142839887D02*
X91350592Y-142804173D01*
X91350592Y-142804173D02*
X91457735Y-142804173D01*
X91457735Y-142804173D02*
X91600592Y-142839887D01*
X91600592Y-142839887D02*
X91672021Y-142875601D01*
X91672021Y-142875601D02*
X91743450Y-142947030D01*
X91743450Y-142947030D02*
X91779164Y-143054173D01*
X91779164Y-143054173D02*
X91779164Y-143232744D01*
X91350592Y-142375601D02*
X91314878Y-142447030D01*
X91314878Y-142447030D02*
X91279164Y-142482744D01*
X91279164Y-142482744D02*
X91207735Y-142518458D01*
X91207735Y-142518458D02*
X91172021Y-142518458D01*
X91172021Y-142518458D02*
X91100592Y-142482744D01*
X91100592Y-142482744D02*
X91064878Y-142447030D01*
X91064878Y-142447030D02*
X91029164Y-142375601D01*
X91029164Y-142375601D02*
X91029164Y-142232744D01*
X91029164Y-142232744D02*
X91064878Y-142161316D01*
X91064878Y-142161316D02*
X91100592Y-142125601D01*
X91100592Y-142125601D02*
X91172021Y-142089887D01*
X91172021Y-142089887D02*
X91207735Y-142089887D01*
X91207735Y-142089887D02*
X91279164Y-142125601D01*
X91279164Y-142125601D02*
X91314878Y-142161316D01*
X91314878Y-142161316D02*
X91350592Y-142232744D01*
X91350592Y-142232744D02*
X91350592Y-142375601D01*
X91350592Y-142375601D02*
X91386307Y-142447030D01*
X91386307Y-142447030D02*
X91422021Y-142482744D01*
X91422021Y-142482744D02*
X91493450Y-142518458D01*
X91493450Y-142518458D02*
X91636307Y-142518458D01*
X91636307Y-142518458D02*
X91707735Y-142482744D01*
X91707735Y-142482744D02*
X91743450Y-142447030D01*
X91743450Y-142447030D02*
X91779164Y-142375601D01*
X91779164Y-142375601D02*
X91779164Y-142232744D01*
X91779164Y-142232744D02*
X91743450Y-142161316D01*
X91743450Y-142161316D02*
X91707735Y-142125601D01*
X91707735Y-142125601D02*
X91636307Y-142089887D01*
X91636307Y-142089887D02*
X91493450Y-142089887D01*
X91493450Y-142089887D02*
X91422021Y-142125601D01*
X91422021Y-142125601D02*
X91386307Y-142161316D01*
X91386307Y-142161316D02*
X91350592Y-142232744D01*
X94319164Y-143232744D02*
X93569164Y-143232744D01*
X93569164Y-143232744D02*
X93569164Y-143054173D01*
X93569164Y-143054173D02*
X93604878Y-142947030D01*
X93604878Y-142947030D02*
X93676307Y-142875601D01*
X93676307Y-142875601D02*
X93747735Y-142839887D01*
X93747735Y-142839887D02*
X93890592Y-142804173D01*
X93890592Y-142804173D02*
X93997735Y-142804173D01*
X93997735Y-142804173D02*
X94140592Y-142839887D01*
X94140592Y-142839887D02*
X94212021Y-142875601D01*
X94212021Y-142875601D02*
X94283450Y-142947030D01*
X94283450Y-142947030D02*
X94319164Y-143054173D01*
X94319164Y-143054173D02*
X94319164Y-143232744D01*
X94319164Y-142089887D02*
X94319164Y-142518458D01*
X94319164Y-142304173D02*
X93569164Y-142304173D01*
X93569164Y-142304173D02*
X93676307Y-142375601D01*
X93676307Y-142375601D02*
X93747735Y-142447030D01*
X93747735Y-142447030D02*
X93783450Y-142518458D01*
X93569164Y-141625601D02*
X93569164Y-141554172D01*
X93569164Y-141554172D02*
X93604878Y-141482744D01*
X93604878Y-141482744D02*
X93640592Y-141447030D01*
X93640592Y-141447030D02*
X93712021Y-141411315D01*
X93712021Y-141411315D02*
X93854878Y-141375601D01*
X93854878Y-141375601D02*
X94033450Y-141375601D01*
X94033450Y-141375601D02*
X94176307Y-141411315D01*
X94176307Y-141411315D02*
X94247735Y-141447030D01*
X94247735Y-141447030D02*
X94283450Y-141482744D01*
X94283450Y-141482744D02*
X94319164Y-141554172D01*
X94319164Y-141554172D02*
X94319164Y-141625601D01*
X94319164Y-141625601D02*
X94283450Y-141697030D01*
X94283450Y-141697030D02*
X94247735Y-141732744D01*
X94247735Y-141732744D02*
X94176307Y-141768458D01*
X94176307Y-141768458D02*
X94033450Y-141804172D01*
X94033450Y-141804172D02*
X93854878Y-141804172D01*
X93854878Y-141804172D02*
X93712021Y-141768458D01*
X93712021Y-141768458D02*
X93640592Y-141732744D01*
X93640592Y-141732744D02*
X93604878Y-141697030D01*
X93604878Y-141697030D02*
X93569164Y-141625601D01*
X96859164Y-143232744D02*
X96109164Y-143232744D01*
X96109164Y-143232744D02*
X96109164Y-143054173D01*
X96109164Y-143054173D02*
X96144878Y-142947030D01*
X96144878Y-142947030D02*
X96216307Y-142875601D01*
X96216307Y-142875601D02*
X96287735Y-142839887D01*
X96287735Y-142839887D02*
X96430592Y-142804173D01*
X96430592Y-142804173D02*
X96537735Y-142804173D01*
X96537735Y-142804173D02*
X96680592Y-142839887D01*
X96680592Y-142839887D02*
X96752021Y-142875601D01*
X96752021Y-142875601D02*
X96823450Y-142947030D01*
X96823450Y-142947030D02*
X96859164Y-143054173D01*
X96859164Y-143054173D02*
X96859164Y-143232744D01*
X96859164Y-142089887D02*
X96859164Y-142518458D01*
X96859164Y-142304173D02*
X96109164Y-142304173D01*
X96109164Y-142304173D02*
X96216307Y-142375601D01*
X96216307Y-142375601D02*
X96287735Y-142447030D01*
X96287735Y-142447030D02*
X96323450Y-142518458D01*
X96180592Y-141804172D02*
X96144878Y-141768458D01*
X96144878Y-141768458D02*
X96109164Y-141697030D01*
X96109164Y-141697030D02*
X96109164Y-141518458D01*
X96109164Y-141518458D02*
X96144878Y-141447030D01*
X96144878Y-141447030D02*
X96180592Y-141411315D01*
X96180592Y-141411315D02*
X96252021Y-141375601D01*
X96252021Y-141375601D02*
X96323450Y-141375601D01*
X96323450Y-141375601D02*
X96430592Y-141411315D01*
X96430592Y-141411315D02*
X96859164Y-141839887D01*
X96859164Y-141839887D02*
X96859164Y-141375601D01*
X99399164Y-143232744D02*
X98649164Y-143232744D01*
X98649164Y-143232744D02*
X98649164Y-143054173D01*
X98649164Y-143054173D02*
X98684878Y-142947030D01*
X98684878Y-142947030D02*
X98756307Y-142875601D01*
X98756307Y-142875601D02*
X98827735Y-142839887D01*
X98827735Y-142839887D02*
X98970592Y-142804173D01*
X98970592Y-142804173D02*
X99077735Y-142804173D01*
X99077735Y-142804173D02*
X99220592Y-142839887D01*
X99220592Y-142839887D02*
X99292021Y-142875601D01*
X99292021Y-142875601D02*
X99363450Y-142947030D01*
X99363450Y-142947030D02*
X99399164Y-143054173D01*
X99399164Y-143054173D02*
X99399164Y-143232744D01*
X99399164Y-142089887D02*
X99399164Y-142518458D01*
X99399164Y-142304173D02*
X98649164Y-142304173D01*
X98649164Y-142304173D02*
X98756307Y-142375601D01*
X98756307Y-142375601D02*
X98827735Y-142447030D01*
X98827735Y-142447030D02*
X98863450Y-142518458D01*
X98899164Y-141447030D02*
X99399164Y-141447030D01*
X98613450Y-141625601D02*
X99149164Y-141804172D01*
X99149164Y-141804172D02*
X99149164Y-141339887D01*
X101189164Y-143339887D02*
X101939164Y-143089887D01*
X101939164Y-143089887D02*
X101189164Y-142839887D01*
X101939164Y-142589887D02*
X101189164Y-142589887D01*
X101189164Y-142589887D02*
X101189164Y-142411316D01*
X101189164Y-142411316D02*
X101224878Y-142304173D01*
X101224878Y-142304173D02*
X101296307Y-142232744D01*
X101296307Y-142232744D02*
X101367735Y-142197030D01*
X101367735Y-142197030D02*
X101510592Y-142161316D01*
X101510592Y-142161316D02*
X101617735Y-142161316D01*
X101617735Y-142161316D02*
X101760592Y-142197030D01*
X101760592Y-142197030D02*
X101832021Y-142232744D01*
X101832021Y-142232744D02*
X101903450Y-142304173D01*
X101903450Y-142304173D02*
X101939164Y-142411316D01*
X101939164Y-142411316D02*
X101939164Y-142589887D01*
X101939164Y-141839887D02*
X101189164Y-141839887D01*
X101189164Y-141839887D02*
X101189164Y-141661316D01*
X101189164Y-141661316D02*
X101224878Y-141554173D01*
X101224878Y-141554173D02*
X101296307Y-141482744D01*
X101296307Y-141482744D02*
X101367735Y-141447030D01*
X101367735Y-141447030D02*
X101510592Y-141411316D01*
X101510592Y-141411316D02*
X101617735Y-141411316D01*
X101617735Y-141411316D02*
X101760592Y-141447030D01*
X101760592Y-141447030D02*
X101832021Y-141482744D01*
X101832021Y-141482744D02*
X101903450Y-141554173D01*
X101903450Y-141554173D02*
X101939164Y-141661316D01*
X101939164Y-141661316D02*
X101939164Y-141839887D01*
X103729164Y-143339887D02*
X104479164Y-143089887D01*
X104479164Y-143089887D02*
X103729164Y-142839887D01*
X104479164Y-142589887D02*
X103729164Y-142589887D01*
X103729164Y-142589887D02*
X103729164Y-142411316D01*
X103729164Y-142411316D02*
X103764878Y-142304173D01*
X103764878Y-142304173D02*
X103836307Y-142232744D01*
X103836307Y-142232744D02*
X103907735Y-142197030D01*
X103907735Y-142197030D02*
X104050592Y-142161316D01*
X104050592Y-142161316D02*
X104157735Y-142161316D01*
X104157735Y-142161316D02*
X104300592Y-142197030D01*
X104300592Y-142197030D02*
X104372021Y-142232744D01*
X104372021Y-142232744D02*
X104443450Y-142304173D01*
X104443450Y-142304173D02*
X104479164Y-142411316D01*
X104479164Y-142411316D02*
X104479164Y-142589887D01*
X104479164Y-141839887D02*
X103729164Y-141839887D01*
X103729164Y-141839887D02*
X103729164Y-141661316D01*
X103729164Y-141661316D02*
X103764878Y-141554173D01*
X103764878Y-141554173D02*
X103836307Y-141482744D01*
X103836307Y-141482744D02*
X103907735Y-141447030D01*
X103907735Y-141447030D02*
X104050592Y-141411316D01*
X104050592Y-141411316D02*
X104157735Y-141411316D01*
X104157735Y-141411316D02*
X104300592Y-141447030D01*
X104300592Y-141447030D02*
X104372021Y-141482744D01*
X104372021Y-141482744D02*
X104443450Y-141554173D01*
X104443450Y-141554173D02*
X104479164Y-141661316D01*
X104479164Y-141661316D02*
X104479164Y-141839887D01*
X104264878Y-141125601D02*
X104264878Y-140768459D01*
X104479164Y-141197030D02*
X103729164Y-140947030D01*
X103729164Y-140947030D02*
X104479164Y-140697030D01*
D11*
X83210001Y-72996900D02*
X83424287Y-73068328D01*
X83424287Y-73068328D02*
X83781429Y-73068328D01*
X83781429Y-73068328D02*
X83924287Y-72996900D01*
X83924287Y-72996900D02*
X83995715Y-72925471D01*
X83995715Y-72925471D02*
X84067144Y-72782614D01*
X84067144Y-72782614D02*
X84067144Y-72639757D01*
X84067144Y-72639757D02*
X83995715Y-72496900D01*
X83995715Y-72496900D02*
X83924287Y-72425471D01*
X83924287Y-72425471D02*
X83781429Y-72354042D01*
X83781429Y-72354042D02*
X83495715Y-72282614D01*
X83495715Y-72282614D02*
X83352858Y-72211185D01*
X83352858Y-72211185D02*
X83281429Y-72139757D01*
X83281429Y-72139757D02*
X83210001Y-71996900D01*
X83210001Y-71996900D02*
X83210001Y-71854042D01*
X83210001Y-71854042D02*
X83281429Y-71711185D01*
X83281429Y-71711185D02*
X83352858Y-71639757D01*
X83352858Y-71639757D02*
X83495715Y-71568328D01*
X83495715Y-71568328D02*
X83852858Y-71568328D01*
X83852858Y-71568328D02*
X84067144Y-71639757D01*
X84495715Y-71568328D02*
X85352858Y-71568328D01*
X84924286Y-73068328D02*
X84924286Y-71568328D01*
X85852857Y-73068328D02*
X85852857Y-71568328D01*
X85852857Y-71568328D02*
X86352857Y-72639757D01*
X86352857Y-72639757D02*
X86852857Y-71568328D01*
X86852857Y-71568328D02*
X86852857Y-73068328D01*
X87424286Y-71568328D02*
X88352858Y-71568328D01*
X88352858Y-71568328D02*
X87852858Y-72139757D01*
X87852858Y-72139757D02*
X88067143Y-72139757D01*
X88067143Y-72139757D02*
X88210001Y-72211185D01*
X88210001Y-72211185D02*
X88281429Y-72282614D01*
X88281429Y-72282614D02*
X88352858Y-72425471D01*
X88352858Y-72425471D02*
X88352858Y-72782614D01*
X88352858Y-72782614D02*
X88281429Y-72925471D01*
X88281429Y-72925471D02*
X88210001Y-72996900D01*
X88210001Y-72996900D02*
X88067143Y-73068328D01*
X88067143Y-73068328D02*
X87638572Y-73068328D01*
X87638572Y-73068328D02*
X87495715Y-72996900D01*
X87495715Y-72996900D02*
X87424286Y-72925471D01*
X88924286Y-71711185D02*
X88995714Y-71639757D01*
X88995714Y-71639757D02*
X89138572Y-71568328D01*
X89138572Y-71568328D02*
X89495714Y-71568328D01*
X89495714Y-71568328D02*
X89638572Y-71639757D01*
X89638572Y-71639757D02*
X89710000Y-71711185D01*
X89710000Y-71711185D02*
X89781429Y-71854042D01*
X89781429Y-71854042D02*
X89781429Y-71996900D01*
X89781429Y-71996900D02*
X89710000Y-72211185D01*
X89710000Y-72211185D02*
X88852857Y-73068328D01*
X88852857Y-73068328D02*
X89781429Y-73068328D01*
X90424285Y-71568328D02*
X90424285Y-72782614D01*
X90424285Y-72782614D02*
X90495714Y-72925471D01*
X90495714Y-72925471D02*
X90567143Y-72996900D01*
X90567143Y-72996900D02*
X90710000Y-73068328D01*
X90710000Y-73068328D02*
X90995714Y-73068328D01*
X90995714Y-73068328D02*
X91138571Y-72996900D01*
X91138571Y-72996900D02*
X91210000Y-72925471D01*
X91210000Y-72925471D02*
X91281428Y-72782614D01*
X91281428Y-72782614D02*
X91281428Y-71568328D01*
X92710000Y-71568328D02*
X91995714Y-71568328D01*
X91995714Y-71568328D02*
X91924286Y-72282614D01*
X91924286Y-72282614D02*
X91995714Y-72211185D01*
X91995714Y-72211185D02*
X92138572Y-72139757D01*
X92138572Y-72139757D02*
X92495714Y-72139757D01*
X92495714Y-72139757D02*
X92638572Y-72211185D01*
X92638572Y-72211185D02*
X92710000Y-72282614D01*
X92710000Y-72282614D02*
X92781429Y-72425471D01*
X92781429Y-72425471D02*
X92781429Y-72782614D01*
X92781429Y-72782614D02*
X92710000Y-72925471D01*
X92710000Y-72925471D02*
X92638572Y-72996900D01*
X92638572Y-72996900D02*
X92495714Y-73068328D01*
X92495714Y-73068328D02*
X92138572Y-73068328D01*
X92138572Y-73068328D02*
X91995714Y-72996900D01*
X91995714Y-72996900D02*
X91924286Y-72925471D01*
X93352857Y-72639757D02*
X94067143Y-72639757D01*
X93210000Y-73068328D02*
X93710000Y-71568328D01*
X93710000Y-71568328D02*
X94210000Y-73068328D01*
X94781428Y-73068328D02*
X95067142Y-73068328D01*
X95067142Y-73068328D02*
X95209999Y-72996900D01*
X95209999Y-72996900D02*
X95281428Y-72925471D01*
X95281428Y-72925471D02*
X95424285Y-72711185D01*
X95424285Y-72711185D02*
X95495714Y-72425471D01*
X95495714Y-72425471D02*
X95495714Y-71854042D01*
X95495714Y-71854042D02*
X95424285Y-71711185D01*
X95424285Y-71711185D02*
X95352857Y-71639757D01*
X95352857Y-71639757D02*
X95209999Y-71568328D01*
X95209999Y-71568328D02*
X94924285Y-71568328D01*
X94924285Y-71568328D02*
X94781428Y-71639757D01*
X94781428Y-71639757D02*
X94709999Y-71711185D01*
X94709999Y-71711185D02*
X94638571Y-71854042D01*
X94638571Y-71854042D02*
X94638571Y-72211185D01*
X94638571Y-72211185D02*
X94709999Y-72354042D01*
X94709999Y-72354042D02*
X94781428Y-72425471D01*
X94781428Y-72425471D02*
X94924285Y-72496900D01*
X94924285Y-72496900D02*
X95209999Y-72496900D01*
X95209999Y-72496900D02*
X95352857Y-72425471D01*
X95352857Y-72425471D02*
X95424285Y-72354042D01*
X95424285Y-72354042D02*
X95495714Y-72211185D01*
X95995713Y-71568328D02*
X96995713Y-71568328D01*
X96995713Y-71568328D02*
X95995713Y-73068328D01*
X95995713Y-73068328D02*
X96995713Y-73068328D01*
X97995713Y-71568328D02*
X97995713Y-72639757D01*
X97995713Y-72639757D02*
X97924284Y-72854042D01*
X97924284Y-72854042D02*
X97781427Y-72996900D01*
X97781427Y-72996900D02*
X97567141Y-73068328D01*
X97567141Y-73068328D02*
X97424284Y-73068328D01*
X98495713Y-71568328D02*
X99352856Y-71568328D01*
X98924284Y-73068328D02*
X98924284Y-71568328D01*
X100495713Y-71568328D02*
X100209998Y-71568328D01*
X100209998Y-71568328D02*
X100067141Y-71639757D01*
X100067141Y-71639757D02*
X99995713Y-71711185D01*
X99995713Y-71711185D02*
X99852855Y-71925471D01*
X99852855Y-71925471D02*
X99781427Y-72211185D01*
X99781427Y-72211185D02*
X99781427Y-72782614D01*
X99781427Y-72782614D02*
X99852855Y-72925471D01*
X99852855Y-72925471D02*
X99924284Y-72996900D01*
X99924284Y-72996900D02*
X100067141Y-73068328D01*
X100067141Y-73068328D02*
X100352855Y-73068328D01*
X100352855Y-73068328D02*
X100495713Y-72996900D01*
X100495713Y-72996900D02*
X100567141Y-72925471D01*
X100567141Y-72925471D02*
X100638570Y-72782614D01*
X100638570Y-72782614D02*
X100638570Y-72425471D01*
X100638570Y-72425471D02*
X100567141Y-72282614D01*
X100567141Y-72282614D02*
X100495713Y-72211185D01*
X100495713Y-72211185D02*
X100352855Y-72139757D01*
X100352855Y-72139757D02*
X100067141Y-72139757D01*
X100067141Y-72139757D02*
X99924284Y-72211185D01*
X99924284Y-72211185D02*
X99852855Y-72282614D01*
X99852855Y-72282614D02*
X99781427Y-72425471D01*
X102281426Y-73211185D02*
X102138569Y-73139757D01*
X102138569Y-73139757D02*
X101995712Y-72996900D01*
X101995712Y-72996900D02*
X101781426Y-72782614D01*
X101781426Y-72782614D02*
X101638569Y-72711185D01*
X101638569Y-72711185D02*
X101495712Y-72711185D01*
X101567141Y-73068328D02*
X101424284Y-72996900D01*
X101424284Y-72996900D02*
X101281426Y-72854042D01*
X101281426Y-72854042D02*
X101209998Y-72568328D01*
X101209998Y-72568328D02*
X101209998Y-72068328D01*
X101209998Y-72068328D02*
X101281426Y-71782614D01*
X101281426Y-71782614D02*
X101424284Y-71639757D01*
X101424284Y-71639757D02*
X101567141Y-71568328D01*
X101567141Y-71568328D02*
X101852855Y-71568328D01*
X101852855Y-71568328D02*
X101995712Y-71639757D01*
X101995712Y-71639757D02*
X102138569Y-71782614D01*
X102138569Y-71782614D02*
X102209998Y-72068328D01*
X102209998Y-72068328D02*
X102209998Y-72568328D01*
X102209998Y-72568328D02*
X102138569Y-72854042D01*
X102138569Y-72854042D02*
X101995712Y-72996900D01*
X101995712Y-72996900D02*
X101852855Y-73068328D01*
X101852855Y-73068328D02*
X101567141Y-73068328D01*
X79294510Y-127928496D02*
X79294510Y-126428496D01*
X79294510Y-126428496D02*
X79651653Y-126428496D01*
X79651653Y-126428496D02*
X79865939Y-126499925D01*
X79865939Y-126499925D02*
X80008796Y-126642782D01*
X80008796Y-126642782D02*
X80080225Y-126785639D01*
X80080225Y-126785639D02*
X80151653Y-127071353D01*
X80151653Y-127071353D02*
X80151653Y-127285639D01*
X80151653Y-127285639D02*
X80080225Y-127571353D01*
X80080225Y-127571353D02*
X80008796Y-127714210D01*
X80008796Y-127714210D02*
X79865939Y-127857068D01*
X79865939Y-127857068D02*
X79651653Y-127928496D01*
X79651653Y-127928496D02*
X79294510Y-127928496D01*
X81080225Y-126428496D02*
X81223082Y-126428496D01*
X81223082Y-126428496D02*
X81365939Y-126499925D01*
X81365939Y-126499925D02*
X81437368Y-126571353D01*
X81437368Y-126571353D02*
X81508796Y-126714210D01*
X81508796Y-126714210D02*
X81580225Y-126999925D01*
X81580225Y-126999925D02*
X81580225Y-127357068D01*
X81580225Y-127357068D02*
X81508796Y-127642782D01*
X81508796Y-127642782D02*
X81437368Y-127785639D01*
X81437368Y-127785639D02*
X81365939Y-127857068D01*
X81365939Y-127857068D02*
X81223082Y-127928496D01*
X81223082Y-127928496D02*
X81080225Y-127928496D01*
X81080225Y-127928496D02*
X80937368Y-127857068D01*
X80937368Y-127857068D02*
X80865939Y-127785639D01*
X80865939Y-127785639D02*
X80794510Y-127642782D01*
X80794510Y-127642782D02*
X80723082Y-127357068D01*
X80723082Y-127357068D02*
X80723082Y-126999925D01*
X80723082Y-126999925D02*
X80794510Y-126714210D01*
X80794510Y-126714210D02*
X80865939Y-126571353D01*
X80865939Y-126571353D02*
X80937368Y-126499925D01*
X80937368Y-126499925D02*
X81080225Y-126428496D01*
X82223081Y-127785639D02*
X82294510Y-127857068D01*
X82294510Y-127857068D02*
X82223081Y-127928496D01*
X82223081Y-127928496D02*
X82151653Y-127857068D01*
X82151653Y-127857068D02*
X82223081Y-127785639D01*
X82223081Y-127785639D02*
X82223081Y-127928496D01*
X82223081Y-126999925D02*
X82294510Y-127071353D01*
X82294510Y-127071353D02*
X82223081Y-127142782D01*
X82223081Y-127142782D02*
X82151653Y-127071353D01*
X82151653Y-127071353D02*
X82223081Y-126999925D01*
X82223081Y-126999925D02*
X82223081Y-127142782D01*
X84080224Y-127928496D02*
X84080224Y-126428496D01*
X84080224Y-126428496D02*
X84580224Y-127499925D01*
X84580224Y-127499925D02*
X85080224Y-126428496D01*
X85080224Y-126428496D02*
X85080224Y-127928496D01*
X86651653Y-127785639D02*
X86580225Y-127857068D01*
X86580225Y-127857068D02*
X86365939Y-127928496D01*
X86365939Y-127928496D02*
X86223082Y-127928496D01*
X86223082Y-127928496D02*
X86008796Y-127857068D01*
X86008796Y-127857068D02*
X85865939Y-127714210D01*
X85865939Y-127714210D02*
X85794510Y-127571353D01*
X85794510Y-127571353D02*
X85723082Y-127285639D01*
X85723082Y-127285639D02*
X85723082Y-127071353D01*
X85723082Y-127071353D02*
X85794510Y-126785639D01*
X85794510Y-126785639D02*
X85865939Y-126642782D01*
X85865939Y-126642782D02*
X86008796Y-126499925D01*
X86008796Y-126499925D02*
X86223082Y-126428496D01*
X86223082Y-126428496D02*
X86365939Y-126428496D01*
X86365939Y-126428496D02*
X86580225Y-126499925D01*
X86580225Y-126499925D02*
X86651653Y-126571353D01*
X87294510Y-126428496D02*
X87294510Y-127642782D01*
X87294510Y-127642782D02*
X87365939Y-127785639D01*
X87365939Y-127785639D02*
X87437368Y-127857068D01*
X87437368Y-127857068D02*
X87580225Y-127928496D01*
X87580225Y-127928496D02*
X87865939Y-127928496D01*
X87865939Y-127928496D02*
X88008796Y-127857068D01*
X88008796Y-127857068D02*
X88080225Y-127785639D01*
X88080225Y-127785639D02*
X88151653Y-127642782D01*
X88151653Y-127642782D02*
X88151653Y-126428496D01*
X90865939Y-127928496D02*
X90365939Y-127214210D01*
X90008796Y-127928496D02*
X90008796Y-126428496D01*
X90008796Y-126428496D02*
X90580225Y-126428496D01*
X90580225Y-126428496D02*
X90723082Y-126499925D01*
X90723082Y-126499925D02*
X90794511Y-126571353D01*
X90794511Y-126571353D02*
X90865939Y-126714210D01*
X90865939Y-126714210D02*
X90865939Y-126928496D01*
X90865939Y-126928496D02*
X90794511Y-127071353D01*
X90794511Y-127071353D02*
X90723082Y-127142782D01*
X90723082Y-127142782D02*
X90580225Y-127214210D01*
X90580225Y-127214210D02*
X90008796Y-127214210D01*
X91365939Y-126428496D02*
X92365939Y-127928496D01*
X92365939Y-126428496D02*
X91365939Y-127928496D01*
X79294510Y-130343412D02*
X79294510Y-128843412D01*
X79294510Y-128843412D02*
X79651653Y-128843412D01*
X79651653Y-128843412D02*
X79865939Y-128914841D01*
X79865939Y-128914841D02*
X80008796Y-129057698D01*
X80008796Y-129057698D02*
X80080225Y-129200555D01*
X80080225Y-129200555D02*
X80151653Y-129486269D01*
X80151653Y-129486269D02*
X80151653Y-129700555D01*
X80151653Y-129700555D02*
X80080225Y-129986269D01*
X80080225Y-129986269D02*
X80008796Y-130129126D01*
X80008796Y-130129126D02*
X79865939Y-130271984D01*
X79865939Y-130271984D02*
X79651653Y-130343412D01*
X79651653Y-130343412D02*
X79294510Y-130343412D01*
X81580225Y-130343412D02*
X80723082Y-130343412D01*
X81151653Y-130343412D02*
X81151653Y-128843412D01*
X81151653Y-128843412D02*
X81008796Y-129057698D01*
X81008796Y-129057698D02*
X80865939Y-129200555D01*
X80865939Y-129200555D02*
X80723082Y-129271984D01*
X82223081Y-130200555D02*
X82294510Y-130271984D01*
X82294510Y-130271984D02*
X82223081Y-130343412D01*
X82223081Y-130343412D02*
X82151653Y-130271984D01*
X82151653Y-130271984D02*
X82223081Y-130200555D01*
X82223081Y-130200555D02*
X82223081Y-130343412D01*
X82223081Y-129414841D02*
X82294510Y-129486269D01*
X82294510Y-129486269D02*
X82223081Y-129557698D01*
X82223081Y-129557698D02*
X82151653Y-129486269D01*
X82151653Y-129486269D02*
X82223081Y-129414841D01*
X82223081Y-129414841D02*
X82223081Y-129557698D01*
X84080224Y-130343412D02*
X84080224Y-128843412D01*
X84080224Y-128843412D02*
X84580224Y-129914841D01*
X84580224Y-129914841D02*
X85080224Y-128843412D01*
X85080224Y-128843412D02*
X85080224Y-130343412D01*
X86651653Y-130200555D02*
X86580225Y-130271984D01*
X86580225Y-130271984D02*
X86365939Y-130343412D01*
X86365939Y-130343412D02*
X86223082Y-130343412D01*
X86223082Y-130343412D02*
X86008796Y-130271984D01*
X86008796Y-130271984D02*
X85865939Y-130129126D01*
X85865939Y-130129126D02*
X85794510Y-129986269D01*
X85794510Y-129986269D02*
X85723082Y-129700555D01*
X85723082Y-129700555D02*
X85723082Y-129486269D01*
X85723082Y-129486269D02*
X85794510Y-129200555D01*
X85794510Y-129200555D02*
X85865939Y-129057698D01*
X85865939Y-129057698D02*
X86008796Y-128914841D01*
X86008796Y-128914841D02*
X86223082Y-128843412D01*
X86223082Y-128843412D02*
X86365939Y-128843412D01*
X86365939Y-128843412D02*
X86580225Y-128914841D01*
X86580225Y-128914841D02*
X86651653Y-128986269D01*
X87294510Y-128843412D02*
X87294510Y-130057698D01*
X87294510Y-130057698D02*
X87365939Y-130200555D01*
X87365939Y-130200555D02*
X87437368Y-130271984D01*
X87437368Y-130271984D02*
X87580225Y-130343412D01*
X87580225Y-130343412D02*
X87865939Y-130343412D01*
X87865939Y-130343412D02*
X88008796Y-130271984D01*
X88008796Y-130271984D02*
X88080225Y-130200555D01*
X88080225Y-130200555D02*
X88151653Y-130057698D01*
X88151653Y-130057698D02*
X88151653Y-128843412D01*
X89794511Y-128843412D02*
X90651654Y-128843412D01*
X90223082Y-130343412D02*
X90223082Y-128843412D01*
X91008796Y-128843412D02*
X92008796Y-130343412D01*
X92008796Y-128843412D02*
X91008796Y-130343412D01*
X79294510Y-132758328D02*
X79294510Y-131258328D01*
X79294510Y-131258328D02*
X79651653Y-131258328D01*
X79651653Y-131258328D02*
X79865939Y-131329757D01*
X79865939Y-131329757D02*
X80008796Y-131472614D01*
X80008796Y-131472614D02*
X80080225Y-131615471D01*
X80080225Y-131615471D02*
X80151653Y-131901185D01*
X80151653Y-131901185D02*
X80151653Y-132115471D01*
X80151653Y-132115471D02*
X80080225Y-132401185D01*
X80080225Y-132401185D02*
X80008796Y-132544042D01*
X80008796Y-132544042D02*
X79865939Y-132686900D01*
X79865939Y-132686900D02*
X79651653Y-132758328D01*
X79651653Y-132758328D02*
X79294510Y-132758328D01*
X80723082Y-131401185D02*
X80794510Y-131329757D01*
X80794510Y-131329757D02*
X80937368Y-131258328D01*
X80937368Y-131258328D02*
X81294510Y-131258328D01*
X81294510Y-131258328D02*
X81437368Y-131329757D01*
X81437368Y-131329757D02*
X81508796Y-131401185D01*
X81508796Y-131401185D02*
X81580225Y-131544042D01*
X81580225Y-131544042D02*
X81580225Y-131686900D01*
X81580225Y-131686900D02*
X81508796Y-131901185D01*
X81508796Y-131901185D02*
X80651653Y-132758328D01*
X80651653Y-132758328D02*
X81580225Y-132758328D01*
X82223081Y-132615471D02*
X82294510Y-132686900D01*
X82294510Y-132686900D02*
X82223081Y-132758328D01*
X82223081Y-132758328D02*
X82151653Y-132686900D01*
X82151653Y-132686900D02*
X82223081Y-132615471D01*
X82223081Y-132615471D02*
X82223081Y-132758328D01*
X82223081Y-131829757D02*
X82294510Y-131901185D01*
X82294510Y-131901185D02*
X82223081Y-131972614D01*
X82223081Y-131972614D02*
X82151653Y-131901185D01*
X82151653Y-131901185D02*
X82223081Y-131829757D01*
X82223081Y-131829757D02*
X82223081Y-131972614D01*
X84080224Y-132758328D02*
X84080224Y-131258328D01*
X84080224Y-131258328D02*
X84937367Y-132758328D01*
X84937367Y-132758328D02*
X84937367Y-131258328D01*
X86508796Y-132758328D02*
X86008796Y-132044042D01*
X85651653Y-132758328D02*
X85651653Y-131258328D01*
X85651653Y-131258328D02*
X86223082Y-131258328D01*
X86223082Y-131258328D02*
X86365939Y-131329757D01*
X86365939Y-131329757D02*
X86437368Y-131401185D01*
X86437368Y-131401185D02*
X86508796Y-131544042D01*
X86508796Y-131544042D02*
X86508796Y-131758328D01*
X86508796Y-131758328D02*
X86437368Y-131901185D01*
X86437368Y-131901185D02*
X86365939Y-131972614D01*
X86365939Y-131972614D02*
X86223082Y-132044042D01*
X86223082Y-132044042D02*
X85651653Y-132044042D01*
X87080225Y-132686900D02*
X87294511Y-132758328D01*
X87294511Y-132758328D02*
X87651653Y-132758328D01*
X87651653Y-132758328D02*
X87794511Y-132686900D01*
X87794511Y-132686900D02*
X87865939Y-132615471D01*
X87865939Y-132615471D02*
X87937368Y-132472614D01*
X87937368Y-132472614D02*
X87937368Y-132329757D01*
X87937368Y-132329757D02*
X87865939Y-132186900D01*
X87865939Y-132186900D02*
X87794511Y-132115471D01*
X87794511Y-132115471D02*
X87651653Y-132044042D01*
X87651653Y-132044042D02*
X87365939Y-131972614D01*
X87365939Y-131972614D02*
X87223082Y-131901185D01*
X87223082Y-131901185D02*
X87151653Y-131829757D01*
X87151653Y-131829757D02*
X87080225Y-131686900D01*
X87080225Y-131686900D02*
X87080225Y-131544042D01*
X87080225Y-131544042D02*
X87151653Y-131401185D01*
X87151653Y-131401185D02*
X87223082Y-131329757D01*
X87223082Y-131329757D02*
X87365939Y-131258328D01*
X87365939Y-131258328D02*
X87723082Y-131258328D01*
X87723082Y-131258328D02*
X87937368Y-131329757D01*
X88365939Y-131258328D02*
X89223082Y-131258328D01*
X88794510Y-132758328D02*
X88794510Y-131258328D01*
X79294510Y-135173244D02*
X79294510Y-133673244D01*
X79294510Y-133673244D02*
X79651653Y-133673244D01*
X79651653Y-133673244D02*
X79865939Y-133744673D01*
X79865939Y-133744673D02*
X80008796Y-133887530D01*
X80008796Y-133887530D02*
X80080225Y-134030387D01*
X80080225Y-134030387D02*
X80151653Y-134316101D01*
X80151653Y-134316101D02*
X80151653Y-134530387D01*
X80151653Y-134530387D02*
X80080225Y-134816101D01*
X80080225Y-134816101D02*
X80008796Y-134958958D01*
X80008796Y-134958958D02*
X79865939Y-135101816D01*
X79865939Y-135101816D02*
X79651653Y-135173244D01*
X79651653Y-135173244D02*
X79294510Y-135173244D01*
X80651653Y-133673244D02*
X81580225Y-133673244D01*
X81580225Y-133673244D02*
X81080225Y-134244673D01*
X81080225Y-134244673D02*
X81294510Y-134244673D01*
X81294510Y-134244673D02*
X81437368Y-134316101D01*
X81437368Y-134316101D02*
X81508796Y-134387530D01*
X81508796Y-134387530D02*
X81580225Y-134530387D01*
X81580225Y-134530387D02*
X81580225Y-134887530D01*
X81580225Y-134887530D02*
X81508796Y-135030387D01*
X81508796Y-135030387D02*
X81437368Y-135101816D01*
X81437368Y-135101816D02*
X81294510Y-135173244D01*
X81294510Y-135173244D02*
X80865939Y-135173244D01*
X80865939Y-135173244D02*
X80723082Y-135101816D01*
X80723082Y-135101816D02*
X80651653Y-135030387D01*
X82223081Y-135030387D02*
X82294510Y-135101816D01*
X82294510Y-135101816D02*
X82223081Y-135173244D01*
X82223081Y-135173244D02*
X82151653Y-135101816D01*
X82151653Y-135101816D02*
X82223081Y-135030387D01*
X82223081Y-135030387D02*
X82223081Y-135173244D01*
X82223081Y-134244673D02*
X82294510Y-134316101D01*
X82294510Y-134316101D02*
X82223081Y-134387530D01*
X82223081Y-134387530D02*
X82151653Y-134316101D01*
X82151653Y-134316101D02*
X82223081Y-134244673D01*
X82223081Y-134244673D02*
X82223081Y-134387530D01*
X84080224Y-135173244D02*
X84080224Y-133673244D01*
X84080224Y-133673244D02*
X84651653Y-133673244D01*
X84651653Y-133673244D02*
X84794510Y-133744673D01*
X84794510Y-133744673D02*
X84865939Y-133816101D01*
X84865939Y-133816101D02*
X84937367Y-133958958D01*
X84937367Y-133958958D02*
X84937367Y-134173244D01*
X84937367Y-134173244D02*
X84865939Y-134316101D01*
X84865939Y-134316101D02*
X84794510Y-134387530D01*
X84794510Y-134387530D02*
X84651653Y-134458958D01*
X84651653Y-134458958D02*
X84080224Y-134458958D01*
X86437367Y-135030387D02*
X86365939Y-135101816D01*
X86365939Y-135101816D02*
X86151653Y-135173244D01*
X86151653Y-135173244D02*
X86008796Y-135173244D01*
X86008796Y-135173244D02*
X85794510Y-135101816D01*
X85794510Y-135101816D02*
X85651653Y-134958958D01*
X85651653Y-134958958D02*
X85580224Y-134816101D01*
X85580224Y-134816101D02*
X85508796Y-134530387D01*
X85508796Y-134530387D02*
X85508796Y-134316101D01*
X85508796Y-134316101D02*
X85580224Y-134030387D01*
X85580224Y-134030387D02*
X85651653Y-133887530D01*
X85651653Y-133887530D02*
X85794510Y-133744673D01*
X85794510Y-133744673D02*
X86008796Y-133673244D01*
X86008796Y-133673244D02*
X86151653Y-133673244D01*
X86151653Y-133673244D02*
X86365939Y-133744673D01*
X86365939Y-133744673D02*
X86437367Y-133816101D01*
X87365939Y-133673244D02*
X87508796Y-133673244D01*
X87508796Y-133673244D02*
X87651653Y-133744673D01*
X87651653Y-133744673D02*
X87723082Y-133816101D01*
X87723082Y-133816101D02*
X87794510Y-133958958D01*
X87794510Y-133958958D02*
X87865939Y-134244673D01*
X87865939Y-134244673D02*
X87865939Y-134601816D01*
X87865939Y-134601816D02*
X87794510Y-134887530D01*
X87794510Y-134887530D02*
X87723082Y-135030387D01*
X87723082Y-135030387D02*
X87651653Y-135101816D01*
X87651653Y-135101816D02*
X87508796Y-135173244D01*
X87508796Y-135173244D02*
X87365939Y-135173244D01*
X87365939Y-135173244D02*
X87223082Y-135101816D01*
X87223082Y-135101816D02*
X87151653Y-135030387D01*
X87151653Y-135030387D02*
X87080224Y-134887530D01*
X87080224Y-134887530D02*
X87008796Y-134601816D01*
X87008796Y-134601816D02*
X87008796Y-134244673D01*
X87008796Y-134244673D02*
X87080224Y-133958958D01*
X87080224Y-133958958D02*
X87151653Y-133816101D01*
X87151653Y-133816101D02*
X87223082Y-133744673D01*
X87223082Y-133744673D02*
X87365939Y-133673244D01*
X79294510Y-137588160D02*
X79294510Y-136088160D01*
X79294510Y-136088160D02*
X79651653Y-136088160D01*
X79651653Y-136088160D02*
X79865939Y-136159589D01*
X79865939Y-136159589D02*
X80008796Y-136302446D01*
X80008796Y-136302446D02*
X80080225Y-136445303D01*
X80080225Y-136445303D02*
X80151653Y-136731017D01*
X80151653Y-136731017D02*
X80151653Y-136945303D01*
X80151653Y-136945303D02*
X80080225Y-137231017D01*
X80080225Y-137231017D02*
X80008796Y-137373874D01*
X80008796Y-137373874D02*
X79865939Y-137516732D01*
X79865939Y-137516732D02*
X79651653Y-137588160D01*
X79651653Y-137588160D02*
X79294510Y-137588160D01*
X81437368Y-136088160D02*
X81151653Y-136088160D01*
X81151653Y-136088160D02*
X81008796Y-136159589D01*
X81008796Y-136159589D02*
X80937368Y-136231017D01*
X80937368Y-136231017D02*
X80794510Y-136445303D01*
X80794510Y-136445303D02*
X80723082Y-136731017D01*
X80723082Y-136731017D02*
X80723082Y-137302446D01*
X80723082Y-137302446D02*
X80794510Y-137445303D01*
X80794510Y-137445303D02*
X80865939Y-137516732D01*
X80865939Y-137516732D02*
X81008796Y-137588160D01*
X81008796Y-137588160D02*
X81294510Y-137588160D01*
X81294510Y-137588160D02*
X81437368Y-137516732D01*
X81437368Y-137516732D02*
X81508796Y-137445303D01*
X81508796Y-137445303D02*
X81580225Y-137302446D01*
X81580225Y-137302446D02*
X81580225Y-136945303D01*
X81580225Y-136945303D02*
X81508796Y-136802446D01*
X81508796Y-136802446D02*
X81437368Y-136731017D01*
X81437368Y-136731017D02*
X81294510Y-136659589D01*
X81294510Y-136659589D02*
X81008796Y-136659589D01*
X81008796Y-136659589D02*
X80865939Y-136731017D01*
X80865939Y-136731017D02*
X80794510Y-136802446D01*
X80794510Y-136802446D02*
X80723082Y-136945303D01*
X82223081Y-137445303D02*
X82294510Y-137516732D01*
X82294510Y-137516732D02*
X82223081Y-137588160D01*
X82223081Y-137588160D02*
X82151653Y-137516732D01*
X82151653Y-137516732D02*
X82223081Y-137445303D01*
X82223081Y-137445303D02*
X82223081Y-137588160D01*
X82223081Y-136659589D02*
X82294510Y-136731017D01*
X82294510Y-136731017D02*
X82223081Y-136802446D01*
X82223081Y-136802446D02*
X82151653Y-136731017D01*
X82151653Y-136731017D02*
X82223081Y-136659589D01*
X82223081Y-136659589D02*
X82223081Y-136802446D01*
X84580224Y-136802446D02*
X84794510Y-136873874D01*
X84794510Y-136873874D02*
X84865939Y-136945303D01*
X84865939Y-136945303D02*
X84937367Y-137088160D01*
X84937367Y-137088160D02*
X84937367Y-137302446D01*
X84937367Y-137302446D02*
X84865939Y-137445303D01*
X84865939Y-137445303D02*
X84794510Y-137516732D01*
X84794510Y-137516732D02*
X84651653Y-137588160D01*
X84651653Y-137588160D02*
X84080224Y-137588160D01*
X84080224Y-137588160D02*
X84080224Y-136088160D01*
X84080224Y-136088160D02*
X84580224Y-136088160D01*
X84580224Y-136088160D02*
X84723082Y-136159589D01*
X84723082Y-136159589D02*
X84794510Y-136231017D01*
X84794510Y-136231017D02*
X84865939Y-136373874D01*
X84865939Y-136373874D02*
X84865939Y-136516732D01*
X84865939Y-136516732D02*
X84794510Y-136659589D01*
X84794510Y-136659589D02*
X84723082Y-136731017D01*
X84723082Y-136731017D02*
X84580224Y-136802446D01*
X84580224Y-136802446D02*
X84080224Y-136802446D01*
X85865939Y-136088160D02*
X86151653Y-136088160D01*
X86151653Y-136088160D02*
X86294510Y-136159589D01*
X86294510Y-136159589D02*
X86437367Y-136302446D01*
X86437367Y-136302446D02*
X86508796Y-136588160D01*
X86508796Y-136588160D02*
X86508796Y-137088160D01*
X86508796Y-137088160D02*
X86437367Y-137373874D01*
X86437367Y-137373874D02*
X86294510Y-137516732D01*
X86294510Y-137516732D02*
X86151653Y-137588160D01*
X86151653Y-137588160D02*
X85865939Y-137588160D01*
X85865939Y-137588160D02*
X85723082Y-137516732D01*
X85723082Y-137516732D02*
X85580224Y-137373874D01*
X85580224Y-137373874D02*
X85508796Y-137088160D01*
X85508796Y-137088160D02*
X85508796Y-136588160D01*
X85508796Y-136588160D02*
X85580224Y-136302446D01*
X85580224Y-136302446D02*
X85723082Y-136159589D01*
X85723082Y-136159589D02*
X85865939Y-136088160D01*
X87437368Y-136088160D02*
X87723082Y-136088160D01*
X87723082Y-136088160D02*
X87865939Y-136159589D01*
X87865939Y-136159589D02*
X88008796Y-136302446D01*
X88008796Y-136302446D02*
X88080225Y-136588160D01*
X88080225Y-136588160D02*
X88080225Y-137088160D01*
X88080225Y-137088160D02*
X88008796Y-137373874D01*
X88008796Y-137373874D02*
X87865939Y-137516732D01*
X87865939Y-137516732D02*
X87723082Y-137588160D01*
X87723082Y-137588160D02*
X87437368Y-137588160D01*
X87437368Y-137588160D02*
X87294511Y-137516732D01*
X87294511Y-137516732D02*
X87151653Y-137373874D01*
X87151653Y-137373874D02*
X87080225Y-137088160D01*
X87080225Y-137088160D02*
X87080225Y-136588160D01*
X87080225Y-136588160D02*
X87151653Y-136302446D01*
X87151653Y-136302446D02*
X87294511Y-136159589D01*
X87294511Y-136159589D02*
X87437368Y-136088160D01*
X88508797Y-136088160D02*
X89365940Y-136088160D01*
X88937368Y-137588160D02*
X88937368Y-136088160D01*
X90151654Y-136088160D02*
X90294511Y-136088160D01*
X90294511Y-136088160D02*
X90437368Y-136159589D01*
X90437368Y-136159589D02*
X90508797Y-136231017D01*
X90508797Y-136231017D02*
X90580225Y-136373874D01*
X90580225Y-136373874D02*
X90651654Y-136659589D01*
X90651654Y-136659589D02*
X90651654Y-137016732D01*
X90651654Y-137016732D02*
X90580225Y-137302446D01*
X90580225Y-137302446D02*
X90508797Y-137445303D01*
X90508797Y-137445303D02*
X90437368Y-137516732D01*
X90437368Y-137516732D02*
X90294511Y-137588160D01*
X90294511Y-137588160D02*
X90151654Y-137588160D01*
X90151654Y-137588160D02*
X90008797Y-137516732D01*
X90008797Y-137516732D02*
X89937368Y-137445303D01*
X89937368Y-137445303D02*
X89865939Y-137302446D01*
X89865939Y-137302446D02*
X89794511Y-137016732D01*
X89794511Y-137016732D02*
X89794511Y-136659589D01*
X89794511Y-136659589D02*
X89865939Y-136373874D01*
X89865939Y-136373874D02*
X89937368Y-136231017D01*
X89937368Y-136231017D02*
X90008797Y-136159589D01*
X90008797Y-136159589D02*
X90151654Y-136088160D01*
D12*
X93149282Y-74808901D02*
X93180744Y-74825395D01*
X93227646Y-74850665D01*
X93286626Y-74882895D01*
X93354322Y-74920269D01*
X93376852Y-74932782D01*
X93464210Y-74982200D01*
X93529340Y-75020952D01*
X93572875Y-75049448D01*
X93595445Y-75068096D01*
X93598579Y-75076556D01*
X93594372Y-75093534D01*
X93590380Y-75131200D01*
X93586937Y-75184841D01*
X93584379Y-75249745D01*
X93583459Y-75289185D01*
X93579950Y-75487824D01*
X93154500Y-75254102D01*
X93154500Y-75061127D01*
X93153702Y-74991077D01*
X93151508Y-74927833D01*
X93148212Y-74876796D01*
X93144113Y-74843363D01*
X93142114Y-74835576D01*
X93135303Y-74812032D01*
X93136620Y-74803000D01*
X93149282Y-74808901D01*
G36*
X93149282Y-74808901D02*
G01*
X93180744Y-74825395D01*
X93227646Y-74850665D01*
X93286626Y-74882895D01*
X93354322Y-74920269D01*
X93376852Y-74932782D01*
X93464210Y-74982200D01*
X93529340Y-75020952D01*
X93572875Y-75049448D01*
X93595445Y-75068096D01*
X93598579Y-75076556D01*
X93594372Y-75093534D01*
X93590380Y-75131200D01*
X93586937Y-75184841D01*
X93584379Y-75249745D01*
X93583459Y-75289185D01*
X93579950Y-75487824D01*
X93154500Y-75254102D01*
X93154500Y-75061127D01*
X93153702Y-74991077D01*
X93151508Y-74927833D01*
X93148212Y-74876796D01*
X93144113Y-74843363D01*
X93142114Y-74835576D01*
X93135303Y-74812032D01*
X93136620Y-74803000D01*
X93149282Y-74808901D01*
G37*
X93624236Y-77814237D02*
X93684478Y-77841905D01*
X93743178Y-77888017D01*
X93797583Y-77951291D01*
X93844943Y-78030447D01*
X93846688Y-78034000D01*
X93869039Y-78084309D01*
X93885684Y-78134025D01*
X93897193Y-78187688D01*
X93904133Y-78249840D01*
X93907076Y-78325022D01*
X93906590Y-78417775D01*
X93904525Y-78495290D01*
X93897450Y-78714130D01*
X93380800Y-78479650D01*
X93386716Y-78232000D01*
X93389784Y-78132088D01*
X93394140Y-78053805D01*
X93400533Y-77993388D01*
X93409710Y-77947070D01*
X93422422Y-77911087D01*
X93439417Y-77881674D01*
X93461444Y-77855067D01*
X93461773Y-77854716D01*
X93510132Y-77819361D01*
X93565204Y-77806296D01*
X93624236Y-77814237D01*
G36*
X93624236Y-77814237D02*
G01*
X93684478Y-77841905D01*
X93743178Y-77888017D01*
X93797583Y-77951291D01*
X93844943Y-78030447D01*
X93846688Y-78034000D01*
X93869039Y-78084309D01*
X93885684Y-78134025D01*
X93897193Y-78187688D01*
X93904133Y-78249840D01*
X93907076Y-78325022D01*
X93906590Y-78417775D01*
X93904525Y-78495290D01*
X93897450Y-78714130D01*
X93380800Y-78479650D01*
X93386716Y-78232000D01*
X93389784Y-78132088D01*
X93394140Y-78053805D01*
X93400533Y-77993388D01*
X93409710Y-77947070D01*
X93422422Y-77911087D01*
X93439417Y-77881674D01*
X93461444Y-77855067D01*
X93461773Y-77854716D01*
X93510132Y-77819361D01*
X93565204Y-77806296D01*
X93624236Y-77814237D01*
G37*
X94024163Y-75291460D02*
X94054017Y-75307863D01*
X94099410Y-75332950D01*
X94157017Y-75364883D01*
X94223514Y-75401824D01*
X94239763Y-75410861D01*
X94464929Y-75536123D01*
X94463207Y-75750085D01*
X94462455Y-75820894D01*
X94461459Y-75882200D01*
X94460315Y-75929775D01*
X94459120Y-75959395D01*
X94458236Y-75967297D01*
X94446650Y-75962497D01*
X94416291Y-75947205D01*
X94370605Y-75923232D01*
X94313042Y-75892391D01*
X94247048Y-75856492D01*
X94239718Y-75852475D01*
X94024450Y-75734404D01*
X94018100Y-75509982D01*
X94016130Y-75437681D01*
X94014570Y-75375065D01*
X94013508Y-75326177D01*
X94013033Y-75295057D01*
X94013173Y-75285580D01*
X94024163Y-75291460D01*
G36*
X94024163Y-75291460D02*
G01*
X94054017Y-75307863D01*
X94099410Y-75332950D01*
X94157017Y-75364883D01*
X94223514Y-75401824D01*
X94239763Y-75410861D01*
X94464929Y-75536123D01*
X94463207Y-75750085D01*
X94462455Y-75820894D01*
X94461459Y-75882200D01*
X94460315Y-75929775D01*
X94459120Y-75959395D01*
X94458236Y-75967297D01*
X94446650Y-75962497D01*
X94416291Y-75947205D01*
X94370605Y-75923232D01*
X94313042Y-75892391D01*
X94247048Y-75856492D01*
X94239718Y-75852475D01*
X94024450Y-75734404D01*
X94018100Y-75509982D01*
X94016130Y-75437681D01*
X94014570Y-75375065D01*
X94013508Y-75326177D01*
X94013033Y-75295057D01*
X94013173Y-75285580D01*
X94024163Y-75291460D01*
G37*
X92710000Y-78364903D02*
X92710000Y-80365600D01*
X92675075Y-80365367D01*
X92647834Y-80360507D01*
X92604917Y-80347722D01*
X92553870Y-80329371D01*
X92532200Y-80320727D01*
X92351186Y-80233797D01*
X92171335Y-80122773D01*
X91994490Y-79988949D01*
X91822496Y-79833621D01*
X91783734Y-79794906D01*
X91597609Y-79587539D01*
X91430004Y-79363433D01*
X91281570Y-79123902D01*
X91152961Y-78870262D01*
X91044831Y-78603827D01*
X90957833Y-78325914D01*
X90892619Y-78037836D01*
X90882447Y-77980293D01*
X90874556Y-77927730D01*
X90866300Y-77862725D01*
X90858050Y-77789507D01*
X90850181Y-77712307D01*
X90843065Y-77635353D01*
X90837074Y-77562876D01*
X90832583Y-77499106D01*
X90829963Y-77448272D01*
X90829588Y-77414605D01*
X90831498Y-77402462D01*
X90843233Y-77395787D01*
X90875199Y-77377936D01*
X90925395Y-77350016D01*
X90991820Y-77313134D01*
X91072472Y-77268398D01*
X91165351Y-77216914D01*
X91268455Y-77159790D01*
X91379783Y-77098133D01*
X91497333Y-77033050D01*
X91619106Y-76965649D01*
X91743098Y-76897037D01*
X91867311Y-76828320D01*
X91989741Y-76760607D01*
X92108388Y-76695004D01*
X92221251Y-76632619D01*
X92326328Y-76574559D01*
X92421618Y-76521931D01*
X92505121Y-76475842D01*
X92574835Y-76437400D01*
X92628759Y-76407711D01*
X92664891Y-76387884D01*
X92681230Y-76379025D01*
X92681425Y-76378924D01*
X92709999Y-76364206D01*
X92710000Y-78364903D01*
G36*
X92710000Y-78364903D02*
G01*
X92710000Y-80365600D01*
X92675075Y-80365367D01*
X92647834Y-80360507D01*
X92604917Y-80347722D01*
X92553870Y-80329371D01*
X92532200Y-80320727D01*
X92351186Y-80233797D01*
X92171335Y-80122773D01*
X91994490Y-79988949D01*
X91822496Y-79833621D01*
X91783734Y-79794906D01*
X91597609Y-79587539D01*
X91430004Y-79363433D01*
X91281570Y-79123902D01*
X91152961Y-78870262D01*
X91044831Y-78603827D01*
X90957833Y-78325914D01*
X90892619Y-78037836D01*
X90882447Y-77980293D01*
X90874556Y-77927730D01*
X90866300Y-77862725D01*
X90858050Y-77789507D01*
X90850181Y-77712307D01*
X90843065Y-77635353D01*
X90837074Y-77562876D01*
X90832583Y-77499106D01*
X90829963Y-77448272D01*
X90829588Y-77414605D01*
X90831498Y-77402462D01*
X90843233Y-77395787D01*
X90875199Y-77377936D01*
X90925395Y-77350016D01*
X90991820Y-77313134D01*
X91072472Y-77268398D01*
X91165351Y-77216914D01*
X91268455Y-77159790D01*
X91379783Y-77098133D01*
X91497333Y-77033050D01*
X91619106Y-76965649D01*
X91743098Y-76897037D01*
X91867311Y-76828320D01*
X91989741Y-76760607D01*
X92108388Y-76695004D01*
X92221251Y-76632619D01*
X92326328Y-76574559D01*
X92421618Y-76521931D01*
X92505121Y-76475842D01*
X92574835Y-76437400D01*
X92628759Y-76407711D01*
X92664891Y-76387884D01*
X92681230Y-76379025D01*
X92681425Y-76378924D01*
X92709999Y-76364206D01*
X92710000Y-78364903D01*
G37*
X92735770Y-75863073D02*
X92768501Y-75880307D01*
X92819714Y-75907772D01*
X92887538Y-75944440D01*
X92970097Y-75989283D01*
X93065520Y-76041270D01*
X93171933Y-76099374D01*
X93287463Y-76162565D01*
X93410237Y-76229815D01*
X93538381Y-76300094D01*
X93670023Y-76372375D01*
X93803289Y-76445627D01*
X93936306Y-76518822D01*
X94067202Y-76590932D01*
X94194102Y-76660927D01*
X94315134Y-76727778D01*
X94428424Y-76790457D01*
X94532099Y-76847935D01*
X94624287Y-76899183D01*
X94703114Y-76943172D01*
X94766707Y-76978873D01*
X94799150Y-76997241D01*
X94839821Y-77021960D01*
X94869448Y-77043009D01*
X94883081Y-77056764D01*
X94883328Y-77058887D01*
X94873354Y-77072744D01*
X94850233Y-77101041D01*
X94817280Y-77139994D01*
X94777814Y-77185820D01*
X94735151Y-77234737D01*
X94692609Y-77282961D01*
X94653504Y-77326708D01*
X94621153Y-77362195D01*
X94598875Y-77385640D01*
X94590106Y-77393320D01*
X94578218Y-77387221D01*
X94545772Y-77369674D01*
X94494401Y-77341584D01*
X94425744Y-77303853D01*
X94341434Y-77257385D01*
X94243109Y-77203082D01*
X94132405Y-77141848D01*
X94010956Y-77074586D01*
X93880400Y-77002199D01*
X93742371Y-76925591D01*
X93649800Y-76874170D01*
X92716350Y-76355500D01*
X92712906Y-76106300D01*
X92712133Y-76011004D01*
X92712828Y-75939762D01*
X92715047Y-75891267D01*
X92718844Y-75864213D01*
X92723394Y-75857100D01*
X92735770Y-75863073D01*
G36*
X92735770Y-75863073D02*
G01*
X92768501Y-75880307D01*
X92819714Y-75907772D01*
X92887538Y-75944440D01*
X92970097Y-75989283D01*
X93065520Y-76041270D01*
X93171933Y-76099374D01*
X93287463Y-76162565D01*
X93410237Y-76229815D01*
X93538381Y-76300094D01*
X93670023Y-76372375D01*
X93803289Y-76445627D01*
X93936306Y-76518822D01*
X94067202Y-76590932D01*
X94194102Y-76660927D01*
X94315134Y-76727778D01*
X94428424Y-76790457D01*
X94532099Y-76847935D01*
X94624287Y-76899183D01*
X94703114Y-76943172D01*
X94766707Y-76978873D01*
X94799150Y-76997241D01*
X94839821Y-77021960D01*
X94869448Y-77043009D01*
X94883081Y-77056764D01*
X94883328Y-77058887D01*
X94873354Y-77072744D01*
X94850233Y-77101041D01*
X94817280Y-77139994D01*
X94777814Y-77185820D01*
X94735151Y-77234737D01*
X94692609Y-77282961D01*
X94653504Y-77326708D01*
X94621153Y-77362195D01*
X94598875Y-77385640D01*
X94590106Y-77393320D01*
X94578218Y-77387221D01*
X94545772Y-77369674D01*
X94494401Y-77341584D01*
X94425744Y-77303853D01*
X94341434Y-77257385D01*
X94243109Y-77203082D01*
X94132405Y-77141848D01*
X94010956Y-77074586D01*
X93880400Y-77002199D01*
X93742371Y-76925591D01*
X93649800Y-76874170D01*
X92716350Y-76355500D01*
X92712906Y-76106300D01*
X92712133Y-76011004D01*
X92712828Y-75939762D01*
X92715047Y-75891267D01*
X92718844Y-75864213D01*
X92723394Y-75857100D01*
X92735770Y-75863073D01*
G37*
X92706943Y-75201167D02*
X92707402Y-75325854D01*
X92707468Y-75442775D01*
X92707167Y-75549484D01*
X92706522Y-75643533D01*
X92705557Y-75722476D01*
X92704298Y-75783865D01*
X92702766Y-75825253D01*
X92700988Y-75844194D01*
X92700593Y-75845084D01*
X92688155Y-75852460D01*
X92655319Y-75871037D01*
X92603948Y-75899787D01*
X92535908Y-75937683D01*
X92453063Y-75983696D01*
X92357276Y-76036799D01*
X92250412Y-76095964D01*
X92134335Y-76160163D01*
X92010909Y-76228368D01*
X91881999Y-76299552D01*
X91749468Y-76372686D01*
X91615182Y-76446743D01*
X91481003Y-76520695D01*
X91348797Y-76593514D01*
X91220428Y-76664173D01*
X91097759Y-76731642D01*
X90982655Y-76794896D01*
X90876981Y-76852905D01*
X90782600Y-76904642D01*
X90701376Y-76949080D01*
X90635175Y-76985189D01*
X90585859Y-77011943D01*
X90555294Y-77028314D01*
X90545556Y-77033259D01*
X90540994Y-77033098D01*
X90537177Y-77027468D01*
X90534041Y-77014350D01*
X90531519Y-76991727D01*
X90529547Y-76957582D01*
X90528059Y-76909897D01*
X90526991Y-76846656D01*
X90526276Y-76765841D01*
X90525849Y-76665434D01*
X90525646Y-76543419D01*
X90525600Y-76416681D01*
X90525600Y-75792445D01*
X90554175Y-75764058D01*
X90575455Y-75747818D01*
X90613205Y-75723614D01*
X90662654Y-75694078D01*
X90719031Y-75661842D01*
X90777565Y-75629539D01*
X90833486Y-75599801D01*
X90882022Y-75575260D01*
X90918404Y-75558549D01*
X90937860Y-75552300D01*
X90937959Y-75552299D01*
X90945240Y-75555402D01*
X90950481Y-75566988D01*
X90954001Y-75590475D01*
X90956116Y-75629279D01*
X90957143Y-75686819D01*
X90957400Y-75761850D01*
X90957850Y-75831588D01*
X90959098Y-75891496D01*
X90960985Y-75937389D01*
X90963355Y-75965081D01*
X90965271Y-75971400D01*
X90978348Y-75965564D01*
X91010090Y-75949314D01*
X91056941Y-75924532D01*
X91115341Y-75893102D01*
X91181734Y-75856908D01*
X91187173Y-75853925D01*
X91401203Y-75736450D01*
X91401551Y-75526550D01*
X91402213Y-75442819D01*
X91404067Y-75380957D01*
X91407393Y-75337452D01*
X91412473Y-75308789D01*
X91419586Y-75291455D01*
X91420423Y-75290205D01*
X91438237Y-75274339D01*
X91473061Y-75250640D01*
X91520329Y-75221600D01*
X91575477Y-75189710D01*
X91633941Y-75157461D01*
X91691156Y-75127344D01*
X91742557Y-75101851D01*
X91783579Y-75083472D01*
X91809660Y-75074699D01*
X91815466Y-75074605D01*
X91822517Y-75081742D01*
X91827564Y-75099162D01*
X91830902Y-75130263D01*
X91832824Y-75178443D01*
X91833626Y-75247101D01*
X91833700Y-75285201D01*
X91834260Y-75353831D01*
X91835810Y-75412523D01*
X91838150Y-75457046D01*
X91841083Y-75483167D01*
X91843225Y-75488273D01*
X91856802Y-75482175D01*
X91888883Y-75465522D01*
X91935858Y-75440255D01*
X91994119Y-75408317D01*
X92060055Y-75371649D01*
X92062300Y-75370392D01*
X92271850Y-75253037D01*
X92278200Y-75034781D01*
X92281012Y-74951898D01*
X92284189Y-74890832D01*
X92288134Y-74847999D01*
X92293248Y-74819816D01*
X92299933Y-74802699D01*
X92304972Y-74796143D01*
X92322562Y-74783372D01*
X92358295Y-74760954D01*
X92408002Y-74731381D01*
X92467515Y-74697147D01*
X92514522Y-74670776D01*
X92703650Y-74565791D01*
X92706943Y-75201167D01*
G36*
X92706943Y-75201167D02*
G01*
X92707402Y-75325854D01*
X92707468Y-75442775D01*
X92707167Y-75549484D01*
X92706522Y-75643533D01*
X92705557Y-75722476D01*
X92704298Y-75783865D01*
X92702766Y-75825253D01*
X92700988Y-75844194D01*
X92700593Y-75845084D01*
X92688155Y-75852460D01*
X92655319Y-75871037D01*
X92603948Y-75899787D01*
X92535908Y-75937683D01*
X92453063Y-75983696D01*
X92357276Y-76036799D01*
X92250412Y-76095964D01*
X92134335Y-76160163D01*
X92010909Y-76228368D01*
X91881999Y-76299552D01*
X91749468Y-76372686D01*
X91615182Y-76446743D01*
X91481003Y-76520695D01*
X91348797Y-76593514D01*
X91220428Y-76664173D01*
X91097759Y-76731642D01*
X90982655Y-76794896D01*
X90876981Y-76852905D01*
X90782600Y-76904642D01*
X90701376Y-76949080D01*
X90635175Y-76985189D01*
X90585859Y-77011943D01*
X90555294Y-77028314D01*
X90545556Y-77033259D01*
X90540994Y-77033098D01*
X90537177Y-77027468D01*
X90534041Y-77014350D01*
X90531519Y-76991727D01*
X90529547Y-76957582D01*
X90528059Y-76909897D01*
X90526991Y-76846656D01*
X90526276Y-76765841D01*
X90525849Y-76665434D01*
X90525646Y-76543419D01*
X90525600Y-76416681D01*
X90525600Y-75792445D01*
X90554175Y-75764058D01*
X90575455Y-75747818D01*
X90613205Y-75723614D01*
X90662654Y-75694078D01*
X90719031Y-75661842D01*
X90777565Y-75629539D01*
X90833486Y-75599801D01*
X90882022Y-75575260D01*
X90918404Y-75558549D01*
X90937860Y-75552300D01*
X90937959Y-75552299D01*
X90945240Y-75555402D01*
X90950481Y-75566988D01*
X90954001Y-75590475D01*
X90956116Y-75629279D01*
X90957143Y-75686819D01*
X90957400Y-75761850D01*
X90957850Y-75831588D01*
X90959098Y-75891496D01*
X90960985Y-75937389D01*
X90963355Y-75965081D01*
X90965271Y-75971400D01*
X90978348Y-75965564D01*
X91010090Y-75949314D01*
X91056941Y-75924532D01*
X91115341Y-75893102D01*
X91181734Y-75856908D01*
X91187173Y-75853925D01*
X91401203Y-75736450D01*
X91401551Y-75526550D01*
X91402213Y-75442819D01*
X91404067Y-75380957D01*
X91407393Y-75337452D01*
X91412473Y-75308789D01*
X91419586Y-75291455D01*
X91420423Y-75290205D01*
X91438237Y-75274339D01*
X91473061Y-75250640D01*
X91520329Y-75221600D01*
X91575477Y-75189710D01*
X91633941Y-75157461D01*
X91691156Y-75127344D01*
X91742557Y-75101851D01*
X91783579Y-75083472D01*
X91809660Y-75074699D01*
X91815466Y-75074605D01*
X91822517Y-75081742D01*
X91827564Y-75099162D01*
X91830902Y-75130263D01*
X91832824Y-75178443D01*
X91833626Y-75247101D01*
X91833700Y-75285201D01*
X91834260Y-75353831D01*
X91835810Y-75412523D01*
X91838150Y-75457046D01*
X91841083Y-75483167D01*
X91843225Y-75488273D01*
X91856802Y-75482175D01*
X91888883Y-75465522D01*
X91935858Y-75440255D01*
X91994119Y-75408317D01*
X92060055Y-75371649D01*
X92062300Y-75370392D01*
X92271850Y-75253037D01*
X92278200Y-75034781D01*
X92281012Y-74951898D01*
X92284189Y-74890832D01*
X92288134Y-74847999D01*
X92293248Y-74819816D01*
X92299933Y-74802699D01*
X92304972Y-74796143D01*
X92322562Y-74783372D01*
X92358295Y-74760954D01*
X92408002Y-74731381D01*
X92467515Y-74697147D01*
X92514522Y-74670776D01*
X92703650Y-74565791D01*
X92706943Y-75201167D01*
G37*
M02*
