G04 #@! TF.GenerationSoftware,KiCad,Pcbnew,7.99.0-unknown-099e5dd9e7~172~ubuntu22.04.1*
G04 #@! TF.CreationDate,2023-10-11T09:46:22+02:00*
G04 #@! TF.ProjectId,stm32u5a9zjt6q,73746d33-3275-4356-9139-7a6a7436712e,rev?*
G04 #@! TF.SameCoordinates,Original*
G04 #@! TF.FileFunction,Soldermask,Bot*
G04 #@! TF.FilePolarity,Negative*
%FSLAX46Y46*%
G04 Gerber Fmt 4.6, Leading zero omitted, Abs format (unit mm)*
G04 Created by KiCad (PCBNEW 7.99.0-unknown-099e5dd9e7~172~ubuntu22.04.1) date 2023-10-11 09:46:22*
%MOMM*%
%LPD*%
G01*
G04 APERTURE LIST*
G04 Aperture macros list*
%AMRoundRect*
0 Rectangle with rounded corners*
0 $1 Rounding radius*
0 $2 $3 $4 $5 $6 $7 $8 $9 X,Y pos of 4 corners*
0 Add a 4 corners polygon primitive as box body*
4,1,4,$2,$3,$4,$5,$6,$7,$8,$9,$2,$3,0*
0 Add four circle primitives for the rounded corners*
1,1,$1+$1,$2,$3*
1,1,$1+$1,$4,$5*
1,1,$1+$1,$6,$7*
1,1,$1+$1,$8,$9*
0 Add four rect primitives between the rounded corners*
20,1,$1+$1,$2,$3,$4,$5,0*
20,1,$1+$1,$4,$5,$6,$7,0*
20,1,$1+$1,$6,$7,$8,$9,0*
20,1,$1+$1,$8,$9,$2,$3,0*%
G04 Aperture macros list end*
%ADD10R,1.700000X1.700000*%
%ADD11O,1.700000X1.700000*%
%ADD12RoundRect,0.075000X0.662500X0.075000X-0.662500X0.075000X-0.662500X-0.075000X0.662500X-0.075000X0*%
%ADD13RoundRect,0.075000X0.075000X0.662500X-0.075000X0.662500X-0.075000X-0.662500X0.075000X-0.662500X0*%
%ADD14RoundRect,0.225000X-0.225000X-0.250000X0.225000X-0.250000X0.225000X0.250000X-0.225000X0.250000X0*%
%ADD15RoundRect,0.225000X0.225000X0.250000X-0.225000X0.250000X-0.225000X-0.250000X0.225000X-0.250000X0*%
G04 APERTURE END LIST*
D10*
X81280000Y-147320000D03*
D11*
X81280000Y-144780000D03*
X83820000Y-147320000D03*
X83820000Y-144780000D03*
X86360000Y-147320000D03*
X86360000Y-144780000D03*
X88900000Y-147320000D03*
X88900000Y-144780000D03*
X91440000Y-147320000D03*
X91440000Y-144780000D03*
X93980000Y-147320000D03*
X93980000Y-144780000D03*
X96520000Y-147320000D03*
X96520000Y-144780000D03*
X99060000Y-147320000D03*
X99060000Y-144780000D03*
X101600000Y-147320000D03*
X101600000Y-144780000D03*
X104140000Y-147320000D03*
X104140000Y-144780000D03*
D10*
X81280000Y-68580000D03*
D11*
X81280000Y-66040000D03*
X83820000Y-68580000D03*
X83820000Y-66040000D03*
X86360000Y-68580000D03*
X86360000Y-66040000D03*
X88900000Y-68580000D03*
X88900000Y-66040000D03*
X91440000Y-68580000D03*
X91440000Y-66040000D03*
X93980000Y-68580000D03*
X93980000Y-66040000D03*
X96520000Y-68580000D03*
X96520000Y-66040000D03*
X99060000Y-68580000D03*
X99060000Y-66040000D03*
X101600000Y-68580000D03*
X101600000Y-66040000D03*
X104140000Y-68580000D03*
X104140000Y-66040000D03*
D12*
X103372500Y-97930000D03*
X103372500Y-98430000D03*
X103372500Y-98930000D03*
X103372500Y-99430000D03*
X103372500Y-99930000D03*
X103372500Y-100430000D03*
X103372500Y-100930000D03*
X103372500Y-101430000D03*
X103372500Y-101930000D03*
X103372500Y-102430000D03*
X103372500Y-102930000D03*
X103372500Y-103430000D03*
X103372500Y-103930000D03*
X103372500Y-104430000D03*
X103372500Y-104930000D03*
X103372500Y-105430000D03*
X103372500Y-105930000D03*
X103372500Y-106430000D03*
X103372500Y-106930000D03*
X103372500Y-107430000D03*
X103372500Y-107930000D03*
X103372500Y-108430000D03*
X103372500Y-108930000D03*
X103372500Y-109430000D03*
X103372500Y-109930000D03*
X103372500Y-110430000D03*
X103372500Y-110930000D03*
X103372500Y-111430000D03*
X103372500Y-111930000D03*
X103372500Y-112430000D03*
X103372500Y-112930000D03*
X103372500Y-113430000D03*
X103372500Y-113930000D03*
X103372500Y-114430000D03*
X103372500Y-114930000D03*
X103372500Y-115430000D03*
D13*
X101460000Y-117342500D03*
X100960000Y-117342500D03*
X100460000Y-117342500D03*
X99960000Y-117342500D03*
X99460000Y-117342500D03*
X98960000Y-117342500D03*
X98460000Y-117342500D03*
X97960000Y-117342500D03*
X97460000Y-117342500D03*
X96960000Y-117342500D03*
X96460000Y-117342500D03*
X95960000Y-117342500D03*
X95460000Y-117342500D03*
X94960000Y-117342500D03*
X94460000Y-117342500D03*
X93960000Y-117342500D03*
X93460000Y-117342500D03*
X92960000Y-117342500D03*
X92460000Y-117342500D03*
X91960000Y-117342500D03*
X91460000Y-117342500D03*
X90960000Y-117342500D03*
X90460000Y-117342500D03*
X89960000Y-117342500D03*
X89460000Y-117342500D03*
X88960000Y-117342500D03*
X88460000Y-117342500D03*
X87960000Y-117342500D03*
X87460000Y-117342500D03*
X86960000Y-117342500D03*
X86460000Y-117342500D03*
X85960000Y-117342500D03*
X85460000Y-117342500D03*
X84960000Y-117342500D03*
X84460000Y-117342500D03*
X83960000Y-117342500D03*
D12*
X82047500Y-115430000D03*
X82047500Y-114930000D03*
X82047500Y-114430000D03*
X82047500Y-113930000D03*
X82047500Y-113430000D03*
X82047500Y-112930000D03*
X82047500Y-112430000D03*
X82047500Y-111930000D03*
X82047500Y-111430000D03*
X82047500Y-110930000D03*
X82047500Y-110430000D03*
X82047500Y-109930000D03*
X82047500Y-109430000D03*
X82047500Y-108930000D03*
X82047500Y-108430000D03*
X82047500Y-107930000D03*
X82047500Y-107430000D03*
X82047500Y-106930000D03*
X82047500Y-106430000D03*
X82047500Y-105930000D03*
X82047500Y-105430000D03*
X82047500Y-104930000D03*
X82047500Y-104430000D03*
X82047500Y-103930000D03*
X82047500Y-103430000D03*
X82047500Y-102930000D03*
X82047500Y-102430000D03*
X82047500Y-101930000D03*
X82047500Y-101430000D03*
X82047500Y-100930000D03*
X82047500Y-100430000D03*
X82047500Y-99930000D03*
X82047500Y-99430000D03*
X82047500Y-98930000D03*
X82047500Y-98430000D03*
X82047500Y-97930000D03*
D13*
X83960000Y-96017500D03*
X84460000Y-96017500D03*
X84960000Y-96017500D03*
X85460000Y-96017500D03*
X85960000Y-96017500D03*
X86460000Y-96017500D03*
X86960000Y-96017500D03*
X87460000Y-96017500D03*
X87960000Y-96017500D03*
X88460000Y-96017500D03*
X88960000Y-96017500D03*
X89460000Y-96017500D03*
X89960000Y-96017500D03*
X90460000Y-96017500D03*
X90960000Y-96017500D03*
X91460000Y-96017500D03*
X91960000Y-96017500D03*
X92460000Y-96017500D03*
X92960000Y-96017500D03*
X93460000Y-96017500D03*
X93960000Y-96017500D03*
X94460000Y-96017500D03*
X94960000Y-96017500D03*
X95460000Y-96017500D03*
X95960000Y-96017500D03*
X96460000Y-96017500D03*
X96960000Y-96017500D03*
X97460000Y-96017500D03*
X97960000Y-96017500D03*
X98460000Y-96017500D03*
X98960000Y-96017500D03*
X99460000Y-96017500D03*
X99960000Y-96017500D03*
X100460000Y-96017500D03*
X100960000Y-96017500D03*
X101460000Y-96017500D03*
D14*
X99809000Y-93726000D03*
X101359000Y-93726000D03*
D15*
X84214000Y-119634000D03*
X82664000Y-119634000D03*
M02*
