G04 #@! TF.GenerationSoftware,KiCad,Pcbnew,7.99.0-unknown-099e5dd9e7~172~ubuntu22.04.1*
G04 #@! TF.CreationDate,2023-10-11T09:46:22+02:00*
G04 #@! TF.ProjectId,stm32u5a9zjt6q,73746d33-3275-4356-9139-7a6a7436712e,rev?*
G04 #@! TF.SameCoordinates,Original*
G04 #@! TF.FileFunction,Legend,Bot*
G04 #@! TF.FilePolarity,Positive*
%FSLAX46Y46*%
G04 Gerber Fmt 4.6, Leading zero omitted, Abs format (unit mm)*
G04 Created by KiCad (PCBNEW 7.99.0-unknown-099e5dd9e7~172~ubuntu22.04.1) date 2023-10-11 09:46:22*
%MOMM*%
%LPD*%
G01*
G04 APERTURE LIST*
%ADD10C,0.150000*%
%ADD11C,0.120000*%
G04 APERTURE END LIST*
D10*
X77964819Y-145716666D02*
X78679104Y-145716666D01*
X78679104Y-145716666D02*
X78821961Y-145669047D01*
X78821961Y-145669047D02*
X78917200Y-145573809D01*
X78917200Y-145573809D02*
X78964819Y-145430952D01*
X78964819Y-145430952D02*
X78964819Y-145335714D01*
X78964819Y-146716666D02*
X78964819Y-146145238D01*
X78964819Y-146430952D02*
X77964819Y-146430952D01*
X77964819Y-146430952D02*
X78107676Y-146335714D01*
X78107676Y-146335714D02*
X78202914Y-146240476D01*
X78202914Y-146240476D02*
X78250533Y-146145238D01*
X77964819Y-66976666D02*
X78679104Y-66976666D01*
X78679104Y-66976666D02*
X78821961Y-66929047D01*
X78821961Y-66929047D02*
X78917200Y-66833809D01*
X78917200Y-66833809D02*
X78964819Y-66690952D01*
X78964819Y-66690952D02*
X78964819Y-66595714D01*
X78060057Y-67405238D02*
X78012438Y-67452857D01*
X78012438Y-67452857D02*
X77964819Y-67548095D01*
X77964819Y-67548095D02*
X77964819Y-67786190D01*
X77964819Y-67786190D02*
X78012438Y-67881428D01*
X78012438Y-67881428D02*
X78060057Y-67929047D01*
X78060057Y-67929047D02*
X78155295Y-67976666D01*
X78155295Y-67976666D02*
X78250533Y-67976666D01*
X78250533Y-67976666D02*
X78393390Y-67929047D01*
X78393390Y-67929047D02*
X78964819Y-67357619D01*
X78964819Y-67357619D02*
X78964819Y-67976666D01*
X93471904Y-93784819D02*
X93471904Y-94594342D01*
X93471904Y-94594342D02*
X93424285Y-94689580D01*
X93424285Y-94689580D02*
X93376666Y-94737200D01*
X93376666Y-94737200D02*
X93281428Y-94784819D01*
X93281428Y-94784819D02*
X93090952Y-94784819D01*
X93090952Y-94784819D02*
X92995714Y-94737200D01*
X92995714Y-94737200D02*
X92948095Y-94689580D01*
X92948095Y-94689580D02*
X92900476Y-94594342D01*
X92900476Y-94594342D02*
X92900476Y-93784819D01*
X91900476Y-94784819D02*
X92471904Y-94784819D01*
X92186190Y-94784819D02*
X92186190Y-93784819D01*
X92186190Y-93784819D02*
X92281428Y-93927676D01*
X92281428Y-93927676D02*
X92376666Y-94022914D01*
X92376666Y-94022914D02*
X92471904Y-94070533D01*
X100750666Y-92688580D02*
X100798285Y-92736200D01*
X100798285Y-92736200D02*
X100941142Y-92783819D01*
X100941142Y-92783819D02*
X101036380Y-92783819D01*
X101036380Y-92783819D02*
X101179237Y-92736200D01*
X101179237Y-92736200D02*
X101274475Y-92640961D01*
X101274475Y-92640961D02*
X101322094Y-92545723D01*
X101322094Y-92545723D02*
X101369713Y-92355247D01*
X101369713Y-92355247D02*
X101369713Y-92212390D01*
X101369713Y-92212390D02*
X101322094Y-92021914D01*
X101322094Y-92021914D02*
X101274475Y-91926676D01*
X101274475Y-91926676D02*
X101179237Y-91831438D01*
X101179237Y-91831438D02*
X101036380Y-91783819D01*
X101036380Y-91783819D02*
X100941142Y-91783819D01*
X100941142Y-91783819D02*
X100798285Y-91831438D01*
X100798285Y-91831438D02*
X100750666Y-91879057D01*
X99798285Y-92783819D02*
X100369713Y-92783819D01*
X100083999Y-92783819D02*
X100083999Y-91783819D01*
X100083999Y-91783819D02*
X100179237Y-91926676D01*
X100179237Y-91926676D02*
X100274475Y-92021914D01*
X100274475Y-92021914D02*
X100369713Y-92069533D01*
X82970666Y-121517580D02*
X83018285Y-121565200D01*
X83018285Y-121565200D02*
X83161142Y-121612819D01*
X83161142Y-121612819D02*
X83256380Y-121612819D01*
X83256380Y-121612819D02*
X83399237Y-121565200D01*
X83399237Y-121565200D02*
X83494475Y-121469961D01*
X83494475Y-121469961D02*
X83542094Y-121374723D01*
X83542094Y-121374723D02*
X83589713Y-121184247D01*
X83589713Y-121184247D02*
X83589713Y-121041390D01*
X83589713Y-121041390D02*
X83542094Y-120850914D01*
X83542094Y-120850914D02*
X83494475Y-120755676D01*
X83494475Y-120755676D02*
X83399237Y-120660438D01*
X83399237Y-120660438D02*
X83256380Y-120612819D01*
X83256380Y-120612819D02*
X83161142Y-120612819D01*
X83161142Y-120612819D02*
X83018285Y-120660438D01*
X83018285Y-120660438D02*
X82970666Y-120708057D01*
X82589713Y-120708057D02*
X82542094Y-120660438D01*
X82542094Y-120660438D02*
X82446856Y-120612819D01*
X82446856Y-120612819D02*
X82208761Y-120612819D01*
X82208761Y-120612819D02*
X82113523Y-120660438D01*
X82113523Y-120660438D02*
X82065904Y-120708057D01*
X82065904Y-120708057D02*
X82018285Y-120803295D01*
X82018285Y-120803295D02*
X82018285Y-120898533D01*
X82018285Y-120898533D02*
X82065904Y-121041390D01*
X82065904Y-121041390D02*
X82637332Y-121612819D01*
X82637332Y-121612819D02*
X82018285Y-121612819D01*
D11*
X79950000Y-146050000D02*
X79950000Y-143450000D01*
X79950000Y-148650000D02*
X79950000Y-147320000D01*
X81280000Y-148650000D02*
X79950000Y-148650000D01*
X82550000Y-146050000D02*
X79950000Y-146050000D01*
X82550000Y-148650000D02*
X82550000Y-146050000D01*
X105470000Y-143450000D02*
X79950000Y-143450000D01*
X105470000Y-148650000D02*
X82550000Y-148650000D01*
X105470000Y-148650000D02*
X105470000Y-143450000D01*
X79950000Y-67310000D02*
X79950000Y-64710000D01*
X79950000Y-69910000D02*
X79950000Y-68580000D01*
X81280000Y-69910000D02*
X79950000Y-69910000D01*
X82550000Y-67310000D02*
X79950000Y-67310000D01*
X82550000Y-69910000D02*
X82550000Y-67310000D01*
X105470000Y-64710000D02*
X79950000Y-64710000D01*
X105470000Y-69910000D02*
X82550000Y-69910000D01*
X105470000Y-69910000D02*
X105470000Y-64710000D01*
X82600000Y-96570000D02*
X83550000Y-96570000D01*
X82600000Y-97520000D02*
X82600000Y-96570000D01*
X82600000Y-115840000D02*
X82600000Y-116790000D01*
X82600000Y-116790000D02*
X83550000Y-116790000D01*
X102820000Y-96570000D02*
X101870000Y-96570000D01*
X102820000Y-97520000D02*
X102820000Y-96570000D01*
X102820000Y-115840000D02*
X102820000Y-116790000D01*
X102820000Y-116790000D02*
X101870000Y-116790000D01*
X104110000Y-97520000D02*
X102820000Y-97520000D01*
X100724580Y-93216000D02*
X100443420Y-93216000D01*
X100724580Y-94236000D02*
X100443420Y-94236000D01*
X83298420Y-119124000D02*
X83579580Y-119124000D01*
X83298420Y-120144000D02*
X83579580Y-120144000D01*
M02*
