G04 #@! TF.GenerationSoftware,KiCad,Pcbnew,7.99.0-unknown-099e5dd9e7~172~ubuntu22.04.1*
G04 #@! TF.CreationDate,2023-10-11T09:46:22+02:00*
G04 #@! TF.ProjectId,stm32u5a9zjt6q,73746d33-3275-4356-9139-7a6a7436712e,rev?*
G04 #@! TF.SameCoordinates,Original*
G04 #@! TF.FileFunction,Copper,L2,Bot*
G04 #@! TF.FilePolarity,Positive*
%FSLAX46Y46*%
G04 Gerber Fmt 4.6, Leading zero omitted, Abs format (unit mm)*
G04 Created by KiCad (PCBNEW 7.99.0-unknown-099e5dd9e7~172~ubuntu22.04.1) date 2023-10-11 09:46:22*
%MOMM*%
%LPD*%
G01*
G04 APERTURE LIST*
G04 Aperture macros list*
%AMRoundRect*
0 Rectangle with rounded corners*
0 $1 Rounding radius*
0 $2 $3 $4 $5 $6 $7 $8 $9 X,Y pos of 4 corners*
0 Add a 4 corners polygon primitive as box body*
4,1,4,$2,$3,$4,$5,$6,$7,$8,$9,$2,$3,0*
0 Add four circle primitives for the rounded corners*
1,1,$1+$1,$2,$3*
1,1,$1+$1,$4,$5*
1,1,$1+$1,$6,$7*
1,1,$1+$1,$8,$9*
0 Add four rect primitives between the rounded corners*
20,1,$1+$1,$2,$3,$4,$5,0*
20,1,$1+$1,$4,$5,$6,$7,0*
20,1,$1+$1,$6,$7,$8,$9,0*
20,1,$1+$1,$8,$9,$2,$3,0*%
G04 Aperture macros list end*
G04 #@! TA.AperFunction,ComponentPad*
%ADD10R,1.700000X1.700000*%
G04 #@! TD*
G04 #@! TA.AperFunction,ComponentPad*
%ADD11O,1.700000X1.700000*%
G04 #@! TD*
G04 #@! TA.AperFunction,SMDPad,CuDef*
%ADD12RoundRect,0.075000X0.662500X0.075000X-0.662500X0.075000X-0.662500X-0.075000X0.662500X-0.075000X0*%
G04 #@! TD*
G04 #@! TA.AperFunction,SMDPad,CuDef*
%ADD13RoundRect,0.075000X0.075000X0.662500X-0.075000X0.662500X-0.075000X-0.662500X0.075000X-0.662500X0*%
G04 #@! TD*
G04 #@! TA.AperFunction,SMDPad,CuDef*
%ADD14RoundRect,0.225000X-0.225000X-0.250000X0.225000X-0.250000X0.225000X0.250000X-0.225000X0.250000X0*%
G04 #@! TD*
G04 #@! TA.AperFunction,SMDPad,CuDef*
%ADD15RoundRect,0.225000X0.225000X0.250000X-0.225000X0.250000X-0.225000X-0.250000X0.225000X-0.250000X0*%
G04 #@! TD*
G04 #@! TA.AperFunction,ViaPad*
%ADD16C,0.800000*%
G04 #@! TD*
G04 #@! TA.AperFunction,Conductor*
%ADD17C,0.250000*%
G04 #@! TD*
G04 #@! TA.AperFunction,Conductor*
%ADD18C,0.500000*%
G04 #@! TD*
G04 APERTURE END LIST*
D10*
X81280000Y-147320000D03*
D11*
X81280000Y-144780000D03*
X83820000Y-147320000D03*
X83820000Y-144780000D03*
X86360000Y-147320000D03*
X86360000Y-144780000D03*
X88900000Y-147320000D03*
X88900000Y-144780000D03*
X91440000Y-147320000D03*
X91440000Y-144780000D03*
X93980000Y-147320000D03*
X93980000Y-144780000D03*
X96520000Y-147320000D03*
X96520000Y-144780000D03*
X99060000Y-147320000D03*
X99060000Y-144780000D03*
X101600000Y-147320000D03*
X101600000Y-144780000D03*
X104140000Y-147320000D03*
X104140000Y-144780000D03*
D10*
X81280000Y-68580000D03*
D11*
X81280000Y-66040000D03*
X83820000Y-68580000D03*
X83820000Y-66040000D03*
X86360000Y-68580000D03*
X86360000Y-66040000D03*
X88900000Y-68580000D03*
X88900000Y-66040000D03*
X91440000Y-68580000D03*
X91440000Y-66040000D03*
X93980000Y-68580000D03*
X93980000Y-66040000D03*
X96520000Y-68580000D03*
X96520000Y-66040000D03*
X99060000Y-68580000D03*
X99060000Y-66040000D03*
X101600000Y-68580000D03*
X101600000Y-66040000D03*
X104140000Y-68580000D03*
X104140000Y-66040000D03*
D12*
X103372500Y-97930000D03*
X103372500Y-98430000D03*
X103372500Y-98930000D03*
X103372500Y-99430000D03*
X103372500Y-99930000D03*
X103372500Y-100430000D03*
X103372500Y-100930000D03*
X103372500Y-101430000D03*
X103372500Y-101930000D03*
X103372500Y-102430000D03*
X103372500Y-102930000D03*
X103372500Y-103430000D03*
X103372500Y-103930000D03*
X103372500Y-104430000D03*
X103372500Y-104930000D03*
X103372500Y-105430000D03*
X103372500Y-105930000D03*
X103372500Y-106430000D03*
X103372500Y-106930000D03*
X103372500Y-107430000D03*
X103372500Y-107930000D03*
X103372500Y-108430000D03*
X103372500Y-108930000D03*
X103372500Y-109430000D03*
X103372500Y-109930000D03*
X103372500Y-110430000D03*
X103372500Y-110930000D03*
X103372500Y-111430000D03*
X103372500Y-111930000D03*
X103372500Y-112430000D03*
X103372500Y-112930000D03*
X103372500Y-113430000D03*
X103372500Y-113930000D03*
X103372500Y-114430000D03*
X103372500Y-114930000D03*
X103372500Y-115430000D03*
D13*
X101460000Y-117342500D03*
X100960000Y-117342500D03*
X100460000Y-117342500D03*
X99960000Y-117342500D03*
X99460000Y-117342500D03*
X98960000Y-117342500D03*
X98460000Y-117342500D03*
X97960000Y-117342500D03*
X97460000Y-117342500D03*
X96960000Y-117342500D03*
X96460000Y-117342500D03*
X95960000Y-117342500D03*
X95460000Y-117342500D03*
X94960000Y-117342500D03*
X94460000Y-117342500D03*
X93960000Y-117342500D03*
X93460000Y-117342500D03*
X92960000Y-117342500D03*
X92460000Y-117342500D03*
X91960000Y-117342500D03*
X91460000Y-117342500D03*
X90960000Y-117342500D03*
X90460000Y-117342500D03*
X89960000Y-117342500D03*
X89460000Y-117342500D03*
X88960000Y-117342500D03*
X88460000Y-117342500D03*
X87960000Y-117342500D03*
X87460000Y-117342500D03*
X86960000Y-117342500D03*
X86460000Y-117342500D03*
X85960000Y-117342500D03*
X85460000Y-117342500D03*
X84960000Y-117342500D03*
X84460000Y-117342500D03*
X83960000Y-117342500D03*
D12*
X82047500Y-115430000D03*
X82047500Y-114930000D03*
X82047500Y-114430000D03*
X82047500Y-113930000D03*
X82047500Y-113430000D03*
X82047500Y-112930000D03*
X82047500Y-112430000D03*
X82047500Y-111930000D03*
X82047500Y-111430000D03*
X82047500Y-110930000D03*
X82047500Y-110430000D03*
X82047500Y-109930000D03*
X82047500Y-109430000D03*
X82047500Y-108930000D03*
X82047500Y-108430000D03*
X82047500Y-107930000D03*
X82047500Y-107430000D03*
X82047500Y-106930000D03*
X82047500Y-106430000D03*
X82047500Y-105930000D03*
X82047500Y-105430000D03*
X82047500Y-104930000D03*
X82047500Y-104430000D03*
X82047500Y-103930000D03*
X82047500Y-103430000D03*
X82047500Y-102930000D03*
X82047500Y-102430000D03*
X82047500Y-101930000D03*
X82047500Y-101430000D03*
X82047500Y-100930000D03*
X82047500Y-100430000D03*
X82047500Y-99930000D03*
X82047500Y-99430000D03*
X82047500Y-98930000D03*
X82047500Y-98430000D03*
X82047500Y-97930000D03*
D13*
X83960000Y-96017500D03*
X84460000Y-96017500D03*
X84960000Y-96017500D03*
X85460000Y-96017500D03*
X85960000Y-96017500D03*
X86460000Y-96017500D03*
X86960000Y-96017500D03*
X87460000Y-96017500D03*
X87960000Y-96017500D03*
X88460000Y-96017500D03*
X88960000Y-96017500D03*
X89460000Y-96017500D03*
X89960000Y-96017500D03*
X90460000Y-96017500D03*
X90960000Y-96017500D03*
X91460000Y-96017500D03*
X91960000Y-96017500D03*
X92460000Y-96017500D03*
X92960000Y-96017500D03*
X93460000Y-96017500D03*
X93960000Y-96017500D03*
X94460000Y-96017500D03*
X94960000Y-96017500D03*
X95460000Y-96017500D03*
X95960000Y-96017500D03*
X96460000Y-96017500D03*
X96960000Y-96017500D03*
X97460000Y-96017500D03*
X97960000Y-96017500D03*
X98460000Y-96017500D03*
X98960000Y-96017500D03*
X99460000Y-96017500D03*
X99960000Y-96017500D03*
X100460000Y-96017500D03*
X100960000Y-96017500D03*
X101460000Y-96017500D03*
D14*
X99809000Y-93726000D03*
X101359000Y-93726000D03*
D15*
X84214000Y-119634000D03*
X82664000Y-119634000D03*
D16*
X84201000Y-121031000D03*
X98039701Y-93594701D03*
X77978000Y-101600000D03*
X78486000Y-100584000D03*
X105791000Y-110744000D03*
X105029000Y-109982000D03*
X98044000Y-94615000D03*
X100711000Y-121031000D03*
X102743000Y-94361000D03*
X95504000Y-118999000D03*
X105029000Y-106045000D03*
X90551000Y-118999000D03*
X80391000Y-115443000D03*
X90043000Y-94361000D03*
X100711000Y-118999000D03*
X80391000Y-109705500D03*
X80391000Y-97663000D03*
X80391000Y-99200000D03*
X105029000Y-113665000D03*
X104140000Y-131191000D03*
D17*
X84460000Y-117342500D02*
X84460000Y-119388000D01*
X99677701Y-93594701D02*
X99809000Y-93726000D01*
X98039701Y-93594701D02*
X99677701Y-93594701D01*
X84214000Y-119634000D02*
X84214000Y-121018000D01*
X84214000Y-121018000D02*
X84201000Y-121031000D01*
X84460000Y-119388000D02*
X84214000Y-119634000D01*
X100460000Y-94377000D02*
X99809000Y-93726000D01*
X100460000Y-96017500D02*
X100460000Y-94377000D01*
X77978000Y-101600000D02*
X78148000Y-101430000D01*
X78148000Y-101430000D02*
X82047500Y-101430000D01*
X79502000Y-100584000D02*
X78486000Y-100584000D01*
X79848000Y-100930000D02*
X79502000Y-100584000D01*
X82047500Y-100930000D02*
X79848000Y-100930000D01*
X104489686Y-110744000D02*
X104175686Y-110430000D01*
X104175686Y-110430000D02*
X103372500Y-110430000D01*
X105791000Y-110744000D02*
X104489686Y-110744000D01*
X104977000Y-109930000D02*
X103372500Y-109930000D01*
X105029000Y-109982000D02*
X104977000Y-109930000D01*
X97960000Y-94699000D02*
X97960000Y-96017500D01*
X98044000Y-94615000D02*
X97960000Y-94699000D01*
D18*
X106641000Y-144819000D02*
X106641000Y-123063000D01*
D17*
X83960000Y-118338000D02*
X82664000Y-119634000D01*
D18*
X79502000Y-104521000D02*
X79502000Y-104902000D01*
D17*
X101359000Y-92723000D02*
X101346000Y-92710000D01*
X82047500Y-104430000D02*
X79593000Y-104430000D01*
D18*
X94996000Y-94615000D02*
X94488000Y-94615000D01*
D17*
X85460000Y-119877000D02*
X85460000Y-119380000D01*
D18*
X85217000Y-120142000D02*
X85217000Y-121217082D01*
X104140000Y-147320000D02*
X106641000Y-144819000D01*
D17*
X96266000Y-118735695D02*
X96266000Y-119888000D01*
X94460000Y-94643000D02*
X94488000Y-94615000D01*
X84960000Y-117342500D02*
X84960000Y-118880000D01*
X104728695Y-105320000D02*
X106551000Y-105320000D01*
D18*
X91440000Y-94615000D02*
X94107000Y-94615000D01*
X102997000Y-92710000D02*
X101346000Y-92710000D01*
X85471000Y-119888000D02*
X85217000Y-120142000D01*
X106641000Y-121158000D02*
X106641000Y-113030000D01*
D17*
X80518000Y-98425000D02*
X79375000Y-98425000D01*
X101359000Y-93726000D02*
X101359000Y-92723000D01*
D18*
X85217000Y-121217082D02*
X84553082Y-121881000D01*
D17*
X85471000Y-119888000D02*
X85460000Y-119877000D01*
X84960000Y-118880000D02*
X85460000Y-119380000D01*
X106541000Y-112930000D02*
X106641000Y-113030000D01*
D18*
X106641000Y-105410000D02*
X106641000Y-96354000D01*
D17*
X91313000Y-118735695D02*
X91313000Y-119888000D01*
D18*
X96266000Y-119888000D02*
X101600000Y-119888000D01*
D17*
X101460000Y-117342500D02*
X101460000Y-119748000D01*
X89318000Y-94661305D02*
X89318000Y-93943000D01*
X101460000Y-119748000D02*
X101600000Y-119888000D01*
X79530000Y-104930000D02*
X79502000Y-104902000D01*
D18*
X91313000Y-119888000D02*
X96266000Y-119888000D01*
X106641000Y-113030000D02*
X106641000Y-112522000D01*
D17*
X90985000Y-117367500D02*
X90985000Y-118407695D01*
D18*
X82664000Y-120696082D02*
X82664000Y-119634000D01*
D17*
X82047500Y-98430000D02*
X80523000Y-98430000D01*
X82047500Y-104930000D02*
X79530000Y-104930000D01*
D18*
X96901000Y-92710000D02*
X94996000Y-94615000D01*
X79375000Y-98425000D02*
X77089000Y-100711000D01*
D17*
X106549000Y-112430000D02*
X106641000Y-112522000D01*
D18*
X106641000Y-122516000D02*
X106641000Y-123063000D01*
X79502000Y-104902000D02*
X79502000Y-110490000D01*
D17*
X85960000Y-117342500D02*
X85960000Y-119742000D01*
X85960000Y-119742000D02*
X86106000Y-119888000D01*
D18*
X79502000Y-110490000D02*
X79502000Y-117729000D01*
X83848918Y-121881000D02*
X82664000Y-120696082D01*
X77089000Y-102108000D02*
X79502000Y-104521000D01*
D17*
X82047500Y-110430000D02*
X79562000Y-110430000D01*
X89318000Y-93943000D02*
X89625000Y-93636000D01*
X103372500Y-112430000D02*
X106549000Y-112430000D01*
D18*
X77089000Y-100711000D02*
X77089000Y-102108000D01*
X104013000Y-119888000D02*
X106641000Y-122516000D01*
D17*
X95960000Y-118429695D02*
X96266000Y-118735695D01*
X80523000Y-98430000D02*
X80518000Y-98425000D01*
D18*
X101600000Y-119888000D02*
X104013000Y-119888000D01*
D17*
X94460000Y-96017500D02*
X94460000Y-94643000D01*
D18*
X81407000Y-119634000D02*
X82664000Y-119634000D01*
D17*
X103372500Y-105430000D02*
X104618695Y-105430000D01*
D18*
X106641000Y-96354000D02*
X102997000Y-92710000D01*
D17*
X85460000Y-117342500D02*
X85460000Y-119380000D01*
D18*
X84553082Y-121881000D02*
X83848918Y-121881000D01*
X79502000Y-117729000D02*
X81407000Y-119634000D01*
D17*
X103372500Y-112930000D02*
X106541000Y-112930000D01*
D18*
X106641000Y-112522000D02*
X106641000Y-105410000D01*
D17*
X79562000Y-110430000D02*
X79502000Y-110490000D01*
X89625000Y-93636000D02*
X90461000Y-93636000D01*
X89460000Y-94803305D02*
X89318000Y-94661305D01*
X89460000Y-96017500D02*
X89460000Y-94803305D01*
X90985000Y-118407695D02*
X91313000Y-118735695D01*
X83960000Y-117342500D02*
X83960000Y-118338000D01*
D18*
X101346000Y-92710000D02*
X96901000Y-92710000D01*
X94488000Y-94615000D02*
X94107000Y-94615000D01*
D17*
X106551000Y-105320000D02*
X106641000Y-105410000D01*
X90461000Y-93636000D02*
X91440000Y-94615000D01*
D18*
X85471000Y-119888000D02*
X86106000Y-119888000D01*
X86106000Y-119888000D02*
X91313000Y-119888000D01*
D17*
X95960000Y-117342500D02*
X95960000Y-118429695D01*
X90960000Y-117342500D02*
X90985000Y-117367500D01*
D18*
X106641000Y-123063000D02*
X106641000Y-121158000D01*
D17*
X100960000Y-94125000D02*
X100960000Y-96017500D01*
X93960000Y-94762000D02*
X94107000Y-94615000D01*
X93960000Y-96017500D02*
X93960000Y-94762000D01*
X101359000Y-93726000D02*
X100960000Y-94125000D01*
X104618695Y-105430000D02*
X104728695Y-105320000D01*
X79593000Y-104430000D02*
X79502000Y-104521000D01*
X101460000Y-95009000D02*
X101727000Y-94742000D01*
X82047500Y-98930000D02*
X80661000Y-98930000D01*
X104914000Y-105930000D02*
X105029000Y-106045000D01*
X80615500Y-109930000D02*
X80391000Y-109705500D01*
X104794000Y-113430000D02*
X105029000Y-113665000D01*
X100960000Y-118750000D02*
X100711000Y-118999000D01*
D18*
X100965000Y-128016000D02*
X104140000Y-131191000D01*
D17*
X82047500Y-97930000D02*
X80658000Y-97930000D01*
D18*
X100711000Y-127762000D02*
X100711000Y-121031000D01*
D17*
X102362000Y-94742000D02*
X102743000Y-94361000D01*
X82047500Y-115430000D02*
X80404000Y-115430000D01*
X80404000Y-115430000D02*
X80391000Y-115443000D01*
X95460000Y-117342500D02*
X95460000Y-118955000D01*
X82047500Y-109930000D02*
X80615500Y-109930000D01*
X90460000Y-117342500D02*
X90460000Y-118908000D01*
X89960000Y-94444000D02*
X90043000Y-94361000D01*
X101727000Y-94742000D02*
X102362000Y-94742000D01*
X101460000Y-96017500D02*
X101460000Y-95009000D01*
X103372500Y-105930000D02*
X104914000Y-105930000D01*
X80661000Y-98930000D02*
X80391000Y-99200000D01*
X90460000Y-118908000D02*
X90551000Y-118999000D01*
X80658000Y-97930000D02*
X80391000Y-97663000D01*
X100960000Y-117342500D02*
X100960000Y-118750000D01*
D18*
X100965000Y-128016000D02*
X100711000Y-127762000D01*
D17*
X89960000Y-96017500D02*
X89960000Y-94444000D01*
X103372500Y-113430000D02*
X104794000Y-113430000D01*
X95460000Y-118955000D02*
X95504000Y-118999000D01*
M02*
