G04 #@! TF.GenerationSoftware,KiCad,Pcbnew,7.99.0-unknown-099e5dd9e7~172~ubuntu22.04.1*
G04 #@! TF.CreationDate,2023-10-11T09:46:22+02:00*
G04 #@! TF.ProjectId,stm32u5a9zjt6q,73746d33-3275-4356-9139-7a6a7436712e,rev?*
G04 #@! TF.SameCoordinates,Original*
G04 #@! TF.FileFunction,Copper,L1,Top*
G04 #@! TF.FilePolarity,Positive*
%FSLAX46Y46*%
G04 Gerber Fmt 4.6, Leading zero omitted, Abs format (unit mm)*
G04 Created by KiCad (PCBNEW 7.99.0-unknown-099e5dd9e7~172~ubuntu22.04.1) date 2023-10-11 09:46:22*
%MOMM*%
%LPD*%
G01*
G04 APERTURE LIST*
G04 #@! TA.AperFunction,ComponentPad*
%ADD10R,1.700000X1.700000*%
G04 #@! TD*
G04 #@! TA.AperFunction,ComponentPad*
%ADD11O,1.700000X1.700000*%
G04 #@! TD*
G04 #@! TA.AperFunction,ViaPad*
%ADD12C,0.800000*%
G04 #@! TD*
G04 #@! TA.AperFunction,Conductor*
%ADD13C,0.500000*%
G04 #@! TD*
G04 #@! TA.AperFunction,Conductor*
%ADD14C,0.250000*%
G04 #@! TD*
G04 APERTURE END LIST*
D10*
X81280000Y-147320000D03*
D11*
X81280000Y-144780000D03*
X83820000Y-147320000D03*
X83820000Y-144780000D03*
X86360000Y-147320000D03*
X86360000Y-144780000D03*
X88900000Y-147320000D03*
X88900000Y-144780000D03*
X91440000Y-147320000D03*
X91440000Y-144780000D03*
X93980000Y-147320000D03*
X93980000Y-144780000D03*
X96520000Y-147320000D03*
X96520000Y-144780000D03*
X99060000Y-147320000D03*
X99060000Y-144780000D03*
X101600000Y-147320000D03*
X101600000Y-144780000D03*
X104140000Y-147320000D03*
X104140000Y-144780000D03*
D10*
X81280000Y-68580000D03*
D11*
X81280000Y-66040000D03*
X83820000Y-68580000D03*
X83820000Y-66040000D03*
X86360000Y-68580000D03*
X86360000Y-66040000D03*
X88900000Y-68580000D03*
X88900000Y-66040000D03*
X91440000Y-68580000D03*
X91440000Y-66040000D03*
X93980000Y-68580000D03*
X93980000Y-66040000D03*
X96520000Y-68580000D03*
X96520000Y-66040000D03*
X99060000Y-68580000D03*
X99060000Y-66040000D03*
X101600000Y-68580000D03*
X101600000Y-66040000D03*
X104140000Y-68580000D03*
X104140000Y-66040000D03*
D12*
X84201000Y-121031000D03*
X98039701Y-93594701D03*
X77978000Y-101600000D03*
X78486000Y-100584000D03*
X105791000Y-110744000D03*
X105029000Y-109982000D03*
X98044000Y-94615000D03*
X100711000Y-121031000D03*
X102743000Y-94361000D03*
X95504000Y-118999000D03*
X105029000Y-106045000D03*
X90551000Y-118999000D03*
X80391000Y-115443000D03*
X90043000Y-94361000D03*
X100711000Y-118999000D03*
X80391000Y-109705500D03*
X80391000Y-97663000D03*
X80391000Y-99200000D03*
X105029000Y-113665000D03*
X104140000Y-131191000D03*
D13*
X83146000Y-93511000D02*
X97956000Y-93511000D01*
X84201000Y-121031000D02*
X79375000Y-116205000D01*
X97956000Y-93511000D02*
X98039701Y-93594701D01*
X79375000Y-116205000D02*
X79375000Y-97282000D01*
X79375000Y-97282000D02*
X83146000Y-93511000D01*
D14*
X78350000Y-144390000D02*
X81280000Y-147320000D01*
X78350000Y-102353000D02*
X78350000Y-144390000D01*
X77978000Y-101981000D02*
X78350000Y-102353000D01*
X77978000Y-101600000D02*
X77978000Y-101981000D01*
X78800000Y-100898000D02*
X78486000Y-100584000D01*
X81280000Y-144780000D02*
X78800000Y-142300000D01*
X78800000Y-142300000D02*
X78800000Y-100898000D01*
X85090000Y-146050000D02*
X85090000Y-144146396D01*
X85090000Y-144146396D02*
X106865000Y-122371396D01*
X106865000Y-122371396D02*
X106865000Y-111818000D01*
X83820000Y-147320000D02*
X85090000Y-146050000D01*
X106865000Y-111818000D02*
X105791000Y-110744000D01*
X106415000Y-113146000D02*
X105029000Y-111760000D01*
X105029000Y-111760000D02*
X105029000Y-109982000D01*
X106415000Y-122185000D02*
X106415000Y-113146000D01*
X83820000Y-144780000D02*
X106415000Y-122185000D01*
X103632000Y-93345000D02*
X99314000Y-93345000D01*
X88900000Y-144780000D02*
X107315000Y-126365000D01*
X107315000Y-126365000D02*
X107315000Y-97028000D01*
X107315000Y-97028000D02*
X103632000Y-93345000D01*
X99314000Y-93345000D02*
X98044000Y-94615000D01*
D13*
X102743000Y-96901000D02*
X102870000Y-97028000D01*
X105029000Y-99568000D02*
X105029000Y-106045000D01*
X80391000Y-109705500D02*
X80391000Y-97663000D01*
X95377000Y-94361000D02*
X90043000Y-94361000D01*
X102870000Y-97028000D02*
X105029000Y-99187000D01*
X105029000Y-99187000D02*
X105029000Y-99568000D01*
X104140000Y-144780000D02*
X104140000Y-131191000D01*
X101473000Y-95631000D02*
X102870000Y-97028000D01*
X80391000Y-109705500D02*
X80391000Y-115443000D01*
X101473000Y-95631000D02*
X96647000Y-95631000D01*
X83947000Y-118999000D02*
X80391000Y-115443000D01*
X105029000Y-113665000D02*
X104179000Y-112815000D01*
X100711000Y-118999000D02*
X90551000Y-118999000D01*
X100711000Y-121031000D02*
X100711000Y-118999000D01*
X105029000Y-108521500D02*
X105029000Y-106045000D01*
X90551000Y-118999000D02*
X83947000Y-118999000D01*
X102743000Y-94361000D02*
X102743000Y-96901000D01*
X104179000Y-109371500D02*
X105029000Y-108521500D01*
X100711000Y-118999000D02*
X105029000Y-114681000D01*
X104179000Y-112815000D02*
X104179000Y-109371500D01*
X96647000Y-95631000D02*
X95377000Y-94361000D01*
X105029000Y-114681000D02*
X105029000Y-113665000D01*
M02*
