M48
;DRILL file {KiCad 5.0.2-bee76a0~70~ubuntu18.04.1} date jeu. 09 mai 2019 10:07:17 CEST
;FORMAT={-:-/ absolute / inch / decimal}
FMAT,2
INCH,TZ
T1C0.0157
T2C0.0394
T3C0.1260
%
G90
G05
T1
X3.6854Y-5.3341
X3.7654Y-4.5191
X3.8465Y-5.3656
X3.8689Y-5.2841
X3.9134Y-4.2729
X3.941Y-5.2841
X4.1634Y-2.3705
X4.1634Y-2.5989
X4.1634Y-5.591
X4.1634Y-5.8115
X4.2264Y-2.3705
X4.2264Y-2.5989
X4.2264Y-5.591
X4.2264Y-5.8115
X4.2894Y-2.3705
X4.2894Y-2.5989
X4.2894Y-5.591
X4.2894Y-5.8115
X4.3524Y-2.3705
X4.3524Y-2.5989
X4.3524Y-5.591
X4.3524Y-5.8115
X4.4154Y-2.3705
X4.4154Y-2.5989
X4.4154Y-5.591
X4.4154Y-5.8115
X4.4784Y-2.3705
X4.4784Y-2.5989
X4.4784Y-5.591
X4.4784Y-5.8115
X4.5414Y-2.3705
X4.5414Y-2.5989
X4.5414Y-5.591
X4.5414Y-5.8115
X4.6044Y-2.3705
X4.6044Y-2.5989
X4.6044Y-5.591
X4.6044Y-5.8115
X4.6674Y-2.3705
X4.6674Y-2.5989
X4.6674Y-5.591
X4.9567Y-4.1272
T2
X3.6654Y-3.8241
X3.6654Y-3.9241
X3.6654Y-4.0241
X3.6654Y-4.1241
X3.6654Y-4.2741
X3.7654Y-4.2741
X5.1654Y-3.8241
X5.1654Y-3.9241
X5.1654Y-4.0241
X5.1654Y-4.1241
T3
X4.0217Y-2.9532
X4.0217Y-5.2367
X4.8091Y-2.9532
X4.8091Y-5.2367
T0
M30
