G04 #@! TF.GenerationSoftware,KiCad,Pcbnew,5.0.2-bee76a0~70~ubuntu18.04.1*
G04 #@! TF.CreationDate,2019-05-09T10:07:15+02:00*
G04 #@! TF.ProjectId,smartcard,736d6172-7463-4617-9264-2e6b69636164,rev?*
G04 #@! TF.SameCoordinates,Original*
G04 #@! TF.FileFunction,Legend,Top*
G04 #@! TF.FilePolarity,Positive*
%FSLAX46Y46*%
G04 Gerber Fmt 4.6, Leading zero omitted, Abs format (unit mm)*
G04 Created by KiCad (PCBNEW 5.0.2-bee76a0~70~ubuntu18.04.1) date jeu. 09 mai 2019 10:07:15 CEST*
%MOMM*%
%LPD*%
G01*
G04 APERTURE LIST*
%ADD10C,0.300000*%
%ADD11C,0.150000*%
%ADD12C,0.250000*%
%ADD13C,0.010000*%
%ADD14C,0.120000*%
G04 APERTURE END LIST*
D10*
X101356017Y-91416027D02*
X122946017Y-91416027D01*
X101356017Y-110466027D02*
X101356017Y-91416027D01*
X122946017Y-110466027D02*
X101356017Y-110466027D01*
X122946017Y-91416027D02*
X122946017Y-110466027D01*
X96386731Y-80809598D02*
X96386731Y-81809598D01*
X96029588Y-80238169D02*
X95672445Y-81309598D01*
X96601017Y-81309598D01*
X97543238Y-81131027D02*
G75*
G03X97543238Y-81131027I-1442221J0D01*
G01*
X98581731Y-80309598D02*
X98581731Y-80595312D01*
X99153159Y-80309598D02*
X99153159Y-80595312D01*
X99796017Y-81023884D02*
X100296017Y-81023884D01*
X100510302Y-81809598D02*
X99796017Y-81809598D01*
X99796017Y-80309598D01*
X100510302Y-80309598D01*
X101010302Y-80809598D02*
X101367445Y-81809598D01*
X101724588Y-80809598D01*
X102938874Y-81809598D02*
X102938874Y-81023884D01*
X102867445Y-80881027D01*
X102724588Y-80809598D01*
X102438874Y-80809598D01*
X102296017Y-80881027D01*
X102938874Y-81738169D02*
X102796017Y-81809598D01*
X102438874Y-81809598D01*
X102296017Y-81738169D01*
X102224588Y-81595312D01*
X102224588Y-81452455D01*
X102296017Y-81309598D01*
X102438874Y-81238169D01*
X102796017Y-81238169D01*
X102938874Y-81166741D01*
X103867445Y-81809598D02*
X103724588Y-81738169D01*
X103653159Y-81595312D01*
X103653159Y-80309598D01*
X105081731Y-80809598D02*
X105081731Y-81809598D01*
X104438874Y-80809598D02*
X104438874Y-81595312D01*
X104510302Y-81738169D01*
X104653159Y-81809598D01*
X104867445Y-81809598D01*
X105010302Y-81738169D01*
X105081731Y-81666741D01*
X106438874Y-81809598D02*
X106438874Y-81023884D01*
X106367445Y-80881027D01*
X106224588Y-80809598D01*
X105938874Y-80809598D01*
X105796017Y-80881027D01*
X106438874Y-81738169D02*
X106296017Y-81809598D01*
X105938874Y-81809598D01*
X105796017Y-81738169D01*
X105724588Y-81595312D01*
X105724588Y-81452455D01*
X105796017Y-81309598D01*
X105938874Y-81238169D01*
X106296017Y-81238169D01*
X106438874Y-81166741D01*
X106938874Y-80809598D02*
X107510302Y-80809598D01*
X107153159Y-80309598D02*
X107153159Y-81595312D01*
X107224588Y-81738169D01*
X107367445Y-81809598D01*
X107510302Y-81809598D01*
X108581731Y-81738169D02*
X108438874Y-81809598D01*
X108153159Y-81809598D01*
X108010302Y-81738169D01*
X107938874Y-81595312D01*
X107938874Y-81023884D01*
X108010302Y-80881027D01*
X108153159Y-80809598D01*
X108438874Y-80809598D01*
X108581731Y-80881027D01*
X108653159Y-81023884D01*
X108653159Y-81166741D01*
X107938874Y-81309598D01*
X109224588Y-80309598D02*
X109224588Y-80595312D01*
X109796017Y-80309598D02*
X109796017Y-80595312D01*
D11*
G36*
X111501017Y-91131027D02*
X110601017Y-90031027D01*
X112001017Y-89831027D01*
X111501017Y-91131027D01*
G37*
X111501017Y-91131027D02*
X110601017Y-90031027D01*
X112001017Y-89831027D01*
X111501017Y-91131027D01*
D10*
X111427068Y-90703015D02*
G75*
G02X115601017Y-83331027I6173949J1371988D01*
G01*
X116601017Y-82309598D02*
X117529588Y-82309598D01*
X117029588Y-82881027D01*
X117243874Y-82881027D01*
X117386731Y-82952455D01*
X117458159Y-83023884D01*
X117529588Y-83166741D01*
X117529588Y-83523884D01*
X117458159Y-83666741D01*
X117386731Y-83738169D01*
X117243874Y-83809598D01*
X116815302Y-83809598D01*
X116672445Y-83738169D01*
X116601017Y-83666741D01*
X118543238Y-83131027D02*
G75*
G03X118543238Y-83131027I-1442221J0D01*
G01*
X119653159Y-81259598D02*
X119653159Y-79759598D01*
X120224588Y-79759598D01*
X120367445Y-79831027D01*
X120438874Y-79902455D01*
X120510302Y-80045312D01*
X120510302Y-80259598D01*
X120438874Y-80402455D01*
X120367445Y-80473884D01*
X120224588Y-80545312D01*
X119653159Y-80545312D01*
X121367445Y-81259598D02*
X121224588Y-81188169D01*
X121153159Y-81045312D01*
X121153159Y-79759598D01*
X122581731Y-81259598D02*
X122581731Y-80473884D01*
X122510302Y-80331027D01*
X122367445Y-80259598D01*
X122081731Y-80259598D01*
X121938874Y-80331027D01*
X122581731Y-81188169D02*
X122438874Y-81259598D01*
X122081731Y-81259598D01*
X121938874Y-81188169D01*
X121867445Y-81045312D01*
X121867445Y-80902455D01*
X121938874Y-80759598D01*
X122081731Y-80688169D01*
X122438874Y-80688169D01*
X122581731Y-80616741D01*
X123938874Y-81188169D02*
X123796017Y-81259598D01*
X123510302Y-81259598D01*
X123367445Y-81188169D01*
X123296017Y-81116741D01*
X123224588Y-80973884D01*
X123224588Y-80545312D01*
X123296017Y-80402455D01*
X123367445Y-80331027D01*
X123510302Y-80259598D01*
X123796017Y-80259598D01*
X123938874Y-80331027D01*
X125153159Y-81188169D02*
X125010302Y-81259598D01*
X124724588Y-81259598D01*
X124581731Y-81188169D01*
X124510302Y-81045312D01*
X124510302Y-80473884D01*
X124581731Y-80331027D01*
X124724588Y-80259598D01*
X125010302Y-80259598D01*
X125153159Y-80331027D01*
X125224588Y-80473884D01*
X125224588Y-80616741D01*
X124510302Y-80759598D01*
X126867445Y-80259598D02*
X127224588Y-81259598D01*
X127581731Y-80259598D02*
X127224588Y-81259598D01*
X127081731Y-81616741D01*
X127010302Y-81688169D01*
X126867445Y-81759598D01*
X128367445Y-81259598D02*
X128224588Y-81188169D01*
X128153159Y-81116741D01*
X128081731Y-80973884D01*
X128081731Y-80545312D01*
X128153159Y-80402455D01*
X128224588Y-80331027D01*
X128367445Y-80259598D01*
X128581731Y-80259598D01*
X128724588Y-80331027D01*
X128796017Y-80402455D01*
X128867445Y-80545312D01*
X128867445Y-80973884D01*
X128796017Y-81116741D01*
X128724588Y-81188169D01*
X128581731Y-81259598D01*
X128367445Y-81259598D01*
X130153159Y-80259598D02*
X130153159Y-81259598D01*
X129510302Y-80259598D02*
X129510302Y-81045312D01*
X129581731Y-81188169D01*
X129724588Y-81259598D01*
X129938874Y-81259598D01*
X130081731Y-81188169D01*
X130153159Y-81116741D01*
X130867445Y-81259598D02*
X130867445Y-80259598D01*
X130867445Y-80545312D02*
X130938874Y-80402455D01*
X131010302Y-80331027D01*
X131153159Y-80259598D01*
X131296017Y-80259598D01*
X119653159Y-82809598D02*
X119653159Y-84309598D01*
X119653159Y-82881027D02*
X119796017Y-82809598D01*
X120081731Y-82809598D01*
X120224588Y-82881027D01*
X120296017Y-82952455D01*
X120367445Y-83095312D01*
X120367445Y-83523884D01*
X120296017Y-83666741D01*
X120224588Y-83738169D01*
X120081731Y-83809598D01*
X119796017Y-83809598D01*
X119653159Y-83738169D01*
X121010302Y-83809598D02*
X121010302Y-82809598D01*
X121010302Y-83095312D02*
X121081731Y-82952455D01*
X121153159Y-82881027D01*
X121296017Y-82809598D01*
X121438874Y-82809598D01*
X122153159Y-83809598D02*
X122010302Y-83738169D01*
X121938874Y-83666741D01*
X121867445Y-83523884D01*
X121867445Y-83095312D01*
X121938874Y-82952455D01*
X122010302Y-82881027D01*
X122153159Y-82809598D01*
X122367445Y-82809598D01*
X122510302Y-82881027D01*
X122581731Y-82952455D01*
X122653159Y-83095312D01*
X122653159Y-83523884D01*
X122581731Y-83666741D01*
X122510302Y-83738169D01*
X122367445Y-83809598D01*
X122153159Y-83809598D01*
X123296017Y-83809598D02*
X123296017Y-82309598D01*
X123296017Y-82881027D02*
X123438874Y-82809598D01*
X123724588Y-82809598D01*
X123867445Y-82881027D01*
X123938874Y-82952455D01*
X124010302Y-83095312D01*
X124010302Y-83523884D01*
X123938874Y-83666741D01*
X123867445Y-83738169D01*
X123724588Y-83809598D01*
X123438874Y-83809598D01*
X123296017Y-83738169D01*
X125224588Y-83738169D02*
X125081731Y-83809598D01*
X124796017Y-83809598D01*
X124653159Y-83738169D01*
X124581731Y-83595312D01*
X124581731Y-83023884D01*
X124653159Y-82881027D01*
X124796017Y-82809598D01*
X125081731Y-82809598D01*
X125224588Y-82881027D01*
X125296017Y-83023884D01*
X125296017Y-83166741D01*
X124581731Y-83309598D01*
X125867445Y-83738169D02*
X126010302Y-83809598D01*
X126296017Y-83809598D01*
X126438874Y-83738169D01*
X126510302Y-83595312D01*
X126510302Y-83523884D01*
X126438874Y-83381027D01*
X126296017Y-83309598D01*
X126081731Y-83309598D01*
X125938874Y-83238169D01*
X125867445Y-83095312D01*
X125867445Y-83023884D01*
X125938874Y-82881027D01*
X126081731Y-82809598D01*
X126296017Y-82809598D01*
X126438874Y-82881027D01*
X128938874Y-83809598D02*
X128938874Y-83023884D01*
X128867445Y-82881027D01*
X128724588Y-82809598D01*
X128438874Y-82809598D01*
X128296017Y-82881027D01*
X128938874Y-83738169D02*
X128796017Y-83809598D01*
X128438874Y-83809598D01*
X128296017Y-83738169D01*
X128224588Y-83595312D01*
X128224588Y-83452455D01*
X128296017Y-83309598D01*
X128438874Y-83238169D01*
X128796017Y-83238169D01*
X128938874Y-83166741D01*
X129653159Y-82809598D02*
X129653159Y-83809598D01*
X129653159Y-82952455D02*
X129724588Y-82881027D01*
X129867445Y-82809598D01*
X130081731Y-82809598D01*
X130224588Y-82881027D01*
X130296017Y-83023884D01*
X130296017Y-83809598D01*
X131653159Y-83809598D02*
X131653159Y-82309598D01*
X131653159Y-83738169D02*
X131510302Y-83809598D01*
X131224588Y-83809598D01*
X131081731Y-83738169D01*
X131010302Y-83666741D01*
X130938874Y-83523884D01*
X130938874Y-83095312D01*
X131010302Y-82952455D01*
X131081731Y-82881027D01*
X131224588Y-82809598D01*
X131510302Y-82809598D01*
X131653159Y-82881027D01*
X119867445Y-86359598D02*
X119724588Y-86288169D01*
X119653159Y-86216741D01*
X119581731Y-86073884D01*
X119581731Y-85645312D01*
X119653159Y-85502455D01*
X119724588Y-85431027D01*
X119867445Y-85359598D01*
X120081731Y-85359598D01*
X120224588Y-85431027D01*
X120296017Y-85502455D01*
X120367445Y-85645312D01*
X120367445Y-86073884D01*
X120296017Y-86216741D01*
X120224588Y-86288169D01*
X120081731Y-86359598D01*
X119867445Y-86359598D01*
X120796017Y-85359598D02*
X121367445Y-85359598D01*
X121010302Y-84859598D02*
X121010302Y-86145312D01*
X121081731Y-86288169D01*
X121224588Y-86359598D01*
X121367445Y-86359598D01*
X121867445Y-86359598D02*
X121867445Y-84859598D01*
X122510302Y-86359598D02*
X122510302Y-85573884D01*
X122438874Y-85431027D01*
X122296017Y-85359598D01*
X122081731Y-85359598D01*
X121938874Y-85431027D01*
X121867445Y-85502455D01*
X123796017Y-86288169D02*
X123653159Y-86359598D01*
X123367445Y-86359598D01*
X123224588Y-86288169D01*
X123153159Y-86145312D01*
X123153159Y-85573884D01*
X123224588Y-85431027D01*
X123367445Y-85359598D01*
X123653159Y-85359598D01*
X123796017Y-85431027D01*
X123867445Y-85573884D01*
X123867445Y-85716741D01*
X123153159Y-85859598D01*
X124510302Y-86359598D02*
X124510302Y-85359598D01*
X124510302Y-85645312D02*
X124581731Y-85502455D01*
X124653159Y-85431027D01*
X124796017Y-85359598D01*
X124938874Y-85359598D01*
X125367445Y-86288169D02*
X125510302Y-86359598D01*
X125796017Y-86359598D01*
X125938874Y-86288169D01*
X126010302Y-86145312D01*
X126010302Y-86073884D01*
X125938874Y-85931027D01*
X125796017Y-85859598D01*
X125581731Y-85859598D01*
X125438874Y-85788169D01*
X125367445Y-85645312D01*
X125367445Y-85573884D01*
X125438874Y-85431027D01*
X125581731Y-85359598D01*
X125796017Y-85359598D01*
X125938874Y-85431027D01*
X126653159Y-86216741D02*
X126724588Y-86288169D01*
X126653159Y-86359598D01*
X126581731Y-86288169D01*
X126653159Y-86216741D01*
X126653159Y-86359598D01*
X127367445Y-86216741D02*
X127438874Y-86288169D01*
X127367445Y-86359598D01*
X127296017Y-86288169D01*
X127367445Y-86216741D01*
X127367445Y-86359598D01*
X128081731Y-86216741D02*
X128153159Y-86288169D01*
X128081731Y-86359598D01*
X128010302Y-86288169D01*
X128081731Y-86216741D01*
X128081731Y-86359598D01*
X127422445Y-125859598D02*
X127351017Y-125788169D01*
X127279588Y-125645312D01*
X127279588Y-125288169D01*
X127351017Y-125145312D01*
X127422445Y-125073884D01*
X127565302Y-125002455D01*
X127708159Y-125002455D01*
X127922445Y-125073884D01*
X128779588Y-125931027D01*
X128779588Y-125002455D01*
X129543238Y-125431027D02*
G75*
G03X129543238Y-125431027I-1442221J0D01*
G01*
X102529588Y-127809598D02*
X101672445Y-127809598D01*
X102101017Y-127809598D02*
X102101017Y-126309598D01*
X101958159Y-126523884D01*
X101815302Y-126666741D01*
X101672445Y-126738169D01*
X103543238Y-127131027D02*
G75*
G03X103543238Y-127131027I-1442221J0D01*
G01*
X104653159Y-125259598D02*
X104653159Y-123759598D01*
X105224588Y-123759598D01*
X105367445Y-123831027D01*
X105438874Y-123902455D01*
X105510302Y-124045312D01*
X105510302Y-124259598D01*
X105438874Y-124402455D01*
X105367445Y-124473884D01*
X105224588Y-124545312D01*
X104653159Y-124545312D01*
X106367445Y-125259598D02*
X106224588Y-125188169D01*
X106153159Y-125045312D01*
X106153159Y-123759598D01*
X107581731Y-124259598D02*
X107581731Y-125259598D01*
X106938874Y-124259598D02*
X106938874Y-125045312D01*
X107010302Y-125188169D01*
X107153159Y-125259598D01*
X107367445Y-125259598D01*
X107510302Y-125188169D01*
X107581731Y-125116741D01*
X108938874Y-124259598D02*
X108938874Y-125473884D01*
X108867445Y-125616741D01*
X108796017Y-125688169D01*
X108653159Y-125759598D01*
X108438874Y-125759598D01*
X108296017Y-125688169D01*
X108938874Y-125188169D02*
X108796017Y-125259598D01*
X108510302Y-125259598D01*
X108367445Y-125188169D01*
X108296017Y-125116741D01*
X108224588Y-124973884D01*
X108224588Y-124545312D01*
X108296017Y-124402455D01*
X108367445Y-124331027D01*
X108510302Y-124259598D01*
X108796017Y-124259598D01*
X108938874Y-124331027D01*
X110581731Y-124259598D02*
X111153159Y-124259598D01*
X110796017Y-123759598D02*
X110796017Y-125045312D01*
X110867445Y-125188169D01*
X111010302Y-125259598D01*
X111153159Y-125259598D01*
X111653159Y-125259598D02*
X111653159Y-123759598D01*
X112296017Y-125259598D02*
X112296017Y-124473884D01*
X112224588Y-124331027D01*
X112081731Y-124259598D01*
X111867445Y-124259598D01*
X111724588Y-124331027D01*
X111653159Y-124402455D01*
X113581731Y-125188169D02*
X113438874Y-125259598D01*
X113153159Y-125259598D01*
X113010302Y-125188169D01*
X112938874Y-125045312D01*
X112938874Y-124473884D01*
X113010302Y-124331027D01*
X113153159Y-124259598D01*
X113438874Y-124259598D01*
X113581731Y-124331027D01*
X113653159Y-124473884D01*
X113653159Y-124616741D01*
X112938874Y-124759598D01*
X104581731Y-127738169D02*
X104724588Y-127809598D01*
X105010302Y-127809598D01*
X105153159Y-127738169D01*
X105224588Y-127595312D01*
X105224588Y-127523884D01*
X105153159Y-127381027D01*
X105010302Y-127309598D01*
X104796017Y-127309598D01*
X104653159Y-127238169D01*
X104581731Y-127095312D01*
X104581731Y-127023884D01*
X104653159Y-126881027D01*
X104796017Y-126809598D01*
X105010302Y-126809598D01*
X105153159Y-126881027D01*
X106081731Y-127809598D02*
X105938874Y-127738169D01*
X105867445Y-127666741D01*
X105796017Y-127523884D01*
X105796017Y-127095312D01*
X105867445Y-126952455D01*
X105938874Y-126881027D01*
X106081731Y-126809598D01*
X106296017Y-126809598D01*
X106438874Y-126881027D01*
X106510302Y-126952455D01*
X106581731Y-127095312D01*
X106581731Y-127523884D01*
X106510302Y-127666741D01*
X106438874Y-127738169D01*
X106296017Y-127809598D01*
X106081731Y-127809598D01*
X107867445Y-127738169D02*
X107724588Y-127809598D01*
X107438874Y-127809598D01*
X107296017Y-127738169D01*
X107224588Y-127666741D01*
X107153159Y-127523884D01*
X107153159Y-127095312D01*
X107224588Y-126952455D01*
X107296017Y-126881027D01*
X107438874Y-126809598D01*
X107724588Y-126809598D01*
X107867445Y-126881027D01*
X108510302Y-127809598D02*
X108510302Y-126309598D01*
X108653159Y-127238169D02*
X109081731Y-127809598D01*
X109081731Y-126809598D02*
X108510302Y-127381027D01*
X110296017Y-127738169D02*
X110153159Y-127809598D01*
X109867445Y-127809598D01*
X109724588Y-127738169D01*
X109653159Y-127595312D01*
X109653159Y-127023884D01*
X109724588Y-126881027D01*
X109867445Y-126809598D01*
X110153159Y-126809598D01*
X110296017Y-126881027D01*
X110367445Y-127023884D01*
X110367445Y-127166741D01*
X109653159Y-127309598D01*
X110796017Y-126809598D02*
X111367445Y-126809598D01*
X111010302Y-126309598D02*
X111010302Y-127595312D01*
X111081731Y-127738169D01*
X111224588Y-127809598D01*
X111367445Y-127809598D01*
X113010302Y-127809598D02*
X113010302Y-126809598D01*
X113010302Y-126309598D02*
X112938874Y-126381027D01*
X113010302Y-126452455D01*
X113081731Y-126381027D01*
X113010302Y-126309598D01*
X113010302Y-126452455D01*
X113724588Y-126809598D02*
X113724588Y-127809598D01*
X113724588Y-126952455D02*
X113796017Y-126881027D01*
X113938874Y-126809598D01*
X114153159Y-126809598D01*
X114296017Y-126881027D01*
X114367445Y-127023884D01*
X114367445Y-127809598D01*
X114867445Y-126809598D02*
X115438874Y-126809598D01*
X115081731Y-126309598D02*
X115081731Y-127595312D01*
X115153159Y-127738169D01*
X115296017Y-127809598D01*
X115438874Y-127809598D01*
X116153159Y-127809598D02*
X116010302Y-127738169D01*
X115938874Y-127666741D01*
X115867445Y-127523884D01*
X115867445Y-127095312D01*
X115938874Y-126952455D01*
X116010302Y-126881027D01*
X116153159Y-126809598D01*
X116367445Y-126809598D01*
X116510302Y-126881027D01*
X116581731Y-126952455D01*
X116653159Y-127095312D01*
X116653159Y-127523884D01*
X116581731Y-127666741D01*
X116510302Y-127738169D01*
X116367445Y-127809598D01*
X116153159Y-127809598D01*
X104581731Y-130288169D02*
X104796017Y-130359598D01*
X105153159Y-130359598D01*
X105296017Y-130288169D01*
X105367445Y-130216741D01*
X105438874Y-130073884D01*
X105438874Y-129931027D01*
X105367445Y-129788169D01*
X105296017Y-129716741D01*
X105153159Y-129645312D01*
X104867445Y-129573884D01*
X104724588Y-129502455D01*
X104653159Y-129431027D01*
X104581731Y-129288169D01*
X104581731Y-129145312D01*
X104653159Y-129002455D01*
X104724588Y-128931027D01*
X104867445Y-128859598D01*
X105224588Y-128859598D01*
X105438874Y-128931027D01*
X106724588Y-130288169D02*
X106581731Y-130359598D01*
X106296017Y-130359598D01*
X106153159Y-130288169D01*
X106081731Y-130216741D01*
X106010302Y-130073884D01*
X106010302Y-129645312D01*
X106081731Y-129502455D01*
X106153159Y-129431027D01*
X106296017Y-129359598D01*
X106581731Y-129359598D01*
X106724588Y-129431027D01*
X108010302Y-130359598D02*
X108010302Y-129573884D01*
X107938874Y-129431027D01*
X107796017Y-129359598D01*
X107510302Y-129359598D01*
X107367445Y-129431027D01*
X108010302Y-130288169D02*
X107867445Y-130359598D01*
X107510302Y-130359598D01*
X107367445Y-130288169D01*
X107296017Y-130145312D01*
X107296017Y-130002455D01*
X107367445Y-129859598D01*
X107510302Y-129788169D01*
X107867445Y-129788169D01*
X108010302Y-129716741D01*
X108510302Y-129359598D02*
X109081731Y-129359598D01*
X108724588Y-130359598D02*
X108724588Y-129073884D01*
X108796017Y-128931027D01*
X108938874Y-128859598D01*
X109081731Y-128859598D01*
X109367445Y-129359598D02*
X109938874Y-129359598D01*
X109581731Y-130359598D02*
X109581731Y-129073884D01*
X109653159Y-128931027D01*
X109796017Y-128859598D01*
X109938874Y-128859598D01*
X110653159Y-130359598D02*
X110510302Y-130288169D01*
X110438874Y-130216741D01*
X110367445Y-130073884D01*
X110367445Y-129645312D01*
X110438874Y-129502455D01*
X110510302Y-129431027D01*
X110653159Y-129359598D01*
X110867445Y-129359598D01*
X111010302Y-129431027D01*
X111081731Y-129502455D01*
X111153159Y-129645312D01*
X111153159Y-130073884D01*
X111081731Y-130216741D01*
X111010302Y-130288169D01*
X110867445Y-130359598D01*
X110653159Y-130359598D01*
X112010302Y-130359598D02*
X111867445Y-130288169D01*
X111796017Y-130145312D01*
X111796017Y-128859598D01*
X113224588Y-130359598D02*
X113224588Y-128859598D01*
X113224588Y-130288169D02*
X113081731Y-130359598D01*
X112796017Y-130359598D01*
X112653159Y-130288169D01*
X112581731Y-130216741D01*
X112510302Y-130073884D01*
X112510302Y-129645312D01*
X112581731Y-129502455D01*
X112653159Y-129431027D01*
X112796017Y-129359598D01*
X113081731Y-129359598D01*
X113224588Y-129431027D01*
X127304588Y-122878884D02*
X125804588Y-122878884D01*
X126304588Y-122164598D02*
X127304588Y-122164598D01*
X126447445Y-122164598D02*
X126376017Y-122093169D01*
X126304588Y-121950312D01*
X126304588Y-121736027D01*
X126376017Y-121593169D01*
X126518874Y-121521741D01*
X127304588Y-121521741D01*
X127233159Y-120878884D02*
X127304588Y-120736027D01*
X127304588Y-120450312D01*
X127233159Y-120307455D01*
X127090302Y-120236027D01*
X127018874Y-120236027D01*
X126876017Y-120307455D01*
X126804588Y-120450312D01*
X126804588Y-120664598D01*
X126733159Y-120807455D01*
X126590302Y-120878884D01*
X126518874Y-120878884D01*
X126376017Y-120807455D01*
X126304588Y-120664598D01*
X126304588Y-120450312D01*
X126376017Y-120307455D01*
X127233159Y-119021741D02*
X127304588Y-119164598D01*
X127304588Y-119450312D01*
X127233159Y-119593169D01*
X127090302Y-119664598D01*
X126518874Y-119664598D01*
X126376017Y-119593169D01*
X126304588Y-119450312D01*
X126304588Y-119164598D01*
X126376017Y-119021741D01*
X126518874Y-118950312D01*
X126661731Y-118950312D01*
X126804588Y-119664598D01*
X127304588Y-118307455D02*
X126304588Y-118307455D01*
X126590302Y-118307455D02*
X126447445Y-118236027D01*
X126376017Y-118164598D01*
X126304588Y-118021741D01*
X126304588Y-117878884D01*
X126304588Y-117593169D02*
X126304588Y-117021741D01*
X125804588Y-117378884D02*
X127090302Y-117378884D01*
X127233159Y-117307455D01*
X127304588Y-117164598D01*
X127304588Y-117021741D01*
X126304588Y-115521741D02*
X127304588Y-115164598D01*
X126304588Y-114807455D02*
X127304588Y-115164598D01*
X127661731Y-115307455D01*
X127733159Y-115378884D01*
X127804588Y-115521741D01*
X127304588Y-114021741D02*
X127233159Y-114164598D01*
X127161731Y-114236027D01*
X127018874Y-114307455D01*
X126590302Y-114307455D01*
X126447445Y-114236027D01*
X126376017Y-114164598D01*
X126304588Y-114021741D01*
X126304588Y-113807455D01*
X126376017Y-113664598D01*
X126447445Y-113593169D01*
X126590302Y-113521741D01*
X127018874Y-113521741D01*
X127161731Y-113593169D01*
X127233159Y-113664598D01*
X127304588Y-113807455D01*
X127304588Y-114021741D01*
X126304588Y-112236027D02*
X127304588Y-112236027D01*
X126304588Y-112878884D02*
X127090302Y-112878884D01*
X127233159Y-112807455D01*
X127304588Y-112664598D01*
X127304588Y-112450312D01*
X127233159Y-112307455D01*
X127161731Y-112236027D01*
X127304588Y-111521741D02*
X126304588Y-111521741D01*
X126590302Y-111521741D02*
X126447445Y-111450312D01*
X126376017Y-111378884D01*
X126304588Y-111236027D01*
X126304588Y-111093169D01*
X129783159Y-122950312D02*
X129854588Y-122736027D01*
X129854588Y-122378884D01*
X129783159Y-122236027D01*
X129711731Y-122164598D01*
X129568874Y-122093169D01*
X129426017Y-122093169D01*
X129283159Y-122164598D01*
X129211731Y-122236027D01*
X129140302Y-122378884D01*
X129068874Y-122664598D01*
X128997445Y-122807455D01*
X128926017Y-122878884D01*
X128783159Y-122950312D01*
X128640302Y-122950312D01*
X128497445Y-122878884D01*
X128426017Y-122807455D01*
X128354588Y-122664598D01*
X128354588Y-122307455D01*
X128426017Y-122093169D01*
X129854588Y-121450312D02*
X128854588Y-121450312D01*
X128997445Y-121450312D02*
X128926017Y-121378884D01*
X128854588Y-121236027D01*
X128854588Y-121021741D01*
X128926017Y-120878884D01*
X129068874Y-120807455D01*
X129854588Y-120807455D01*
X129068874Y-120807455D02*
X128926017Y-120736027D01*
X128854588Y-120593169D01*
X128854588Y-120378884D01*
X128926017Y-120236027D01*
X129068874Y-120164598D01*
X129854588Y-120164598D01*
X129854588Y-118807455D02*
X129068874Y-118807455D01*
X128926017Y-118878884D01*
X128854588Y-119021741D01*
X128854588Y-119307455D01*
X128926017Y-119450312D01*
X129783159Y-118807455D02*
X129854588Y-118950312D01*
X129854588Y-119307455D01*
X129783159Y-119450312D01*
X129640302Y-119521741D01*
X129497445Y-119521741D01*
X129354588Y-119450312D01*
X129283159Y-119307455D01*
X129283159Y-118950312D01*
X129211731Y-118807455D01*
X129854588Y-118093169D02*
X128854588Y-118093169D01*
X129140302Y-118093169D02*
X128997445Y-118021741D01*
X128926017Y-117950312D01*
X128854588Y-117807455D01*
X128854588Y-117664598D01*
X128854588Y-117378884D02*
X128854588Y-116807455D01*
X128354588Y-117164598D02*
X129640302Y-117164598D01*
X129783159Y-117093169D01*
X129854588Y-116950312D01*
X129854588Y-116807455D01*
X129783159Y-115664598D02*
X129854588Y-115807455D01*
X129854588Y-116093169D01*
X129783159Y-116236027D01*
X129711731Y-116307455D01*
X129568874Y-116378884D01*
X129140302Y-116378884D01*
X128997445Y-116307455D01*
X128926017Y-116236027D01*
X128854588Y-116093169D01*
X128854588Y-115807455D01*
X128926017Y-115664598D01*
X129854588Y-114378884D02*
X129068874Y-114378884D01*
X128926017Y-114450312D01*
X128854588Y-114593169D01*
X128854588Y-114878884D01*
X128926017Y-115021741D01*
X129783159Y-114378884D02*
X129854588Y-114521741D01*
X129854588Y-114878884D01*
X129783159Y-115021741D01*
X129640302Y-115093169D01*
X129497445Y-115093169D01*
X129354588Y-115021741D01*
X129283159Y-114878884D01*
X129283159Y-114521741D01*
X129211731Y-114378884D01*
X129854588Y-113664598D02*
X128854588Y-113664598D01*
X129140302Y-113664598D02*
X128997445Y-113593169D01*
X128926017Y-113521741D01*
X128854588Y-113378884D01*
X128854588Y-113236027D01*
X129854588Y-112093169D02*
X128354588Y-112093169D01*
X129783159Y-112093169D02*
X129854588Y-112236027D01*
X129854588Y-112521741D01*
X129783159Y-112664598D01*
X129711731Y-112736027D01*
X129568874Y-112807455D01*
X129140302Y-112807455D01*
X128997445Y-112736027D01*
X128926017Y-112664598D01*
X128854588Y-112521741D01*
X128854588Y-112236027D01*
X128926017Y-112093169D01*
D11*
G36*
X124901017Y-117631027D02*
X123101017Y-117631027D01*
X123101017Y-118331027D01*
X121601017Y-117031027D01*
X123101017Y-115731027D01*
X123101017Y-116431027D01*
X124901017Y-116431027D01*
X124901017Y-117631027D01*
G37*
X124901017Y-117631027D02*
X123101017Y-117631027D01*
X123101017Y-118331027D01*
X121601017Y-117031027D01*
X123101017Y-115731027D01*
X123101017Y-116431027D01*
X124901017Y-116431027D01*
X124901017Y-117631027D01*
X92236612Y-139583407D02*
X92236612Y-138583407D01*
X92903278Y-138583407D02*
X93093755Y-138583407D01*
X93188993Y-138631027D01*
X93284231Y-138726265D01*
X93331850Y-138916741D01*
X93331850Y-139250074D01*
X93284231Y-139440550D01*
X93188993Y-139535788D01*
X93093755Y-139583407D01*
X92903278Y-139583407D01*
X92808040Y-139535788D01*
X92712802Y-139440550D01*
X92665183Y-139250074D01*
X92665183Y-138916741D01*
X92712802Y-138726265D01*
X92808040Y-138631027D01*
X92903278Y-138583407D01*
X94522326Y-138916741D02*
X94522326Y-139916741D01*
X94522326Y-138964360D02*
X94617564Y-138916741D01*
X94808040Y-138916741D01*
X94903278Y-138964360D01*
X94950897Y-139011979D01*
X94998517Y-139107217D01*
X94998517Y-139392931D01*
X94950897Y-139488169D01*
X94903278Y-139535788D01*
X94808040Y-139583407D01*
X94617564Y-139583407D01*
X94522326Y-139535788D01*
X95855659Y-138916741D02*
X95855659Y-139583407D01*
X95427088Y-138916741D02*
X95427088Y-139440550D01*
X95474707Y-139535788D01*
X95569945Y-139583407D01*
X95712802Y-139583407D01*
X95808040Y-139535788D01*
X95855659Y-139488169D01*
X96474707Y-139583407D02*
X96379469Y-139535788D01*
X96331850Y-139440550D01*
X96331850Y-138583407D01*
X96998517Y-139583407D02*
X96903278Y-139535788D01*
X96855659Y-139440550D01*
X96855659Y-138583407D01*
X97379469Y-139202455D02*
X98141374Y-139202455D01*
X99046136Y-138916741D02*
X99046136Y-139583407D01*
X98617564Y-138916741D02*
X98617564Y-139440550D01*
X98665183Y-139535788D01*
X98760421Y-139583407D01*
X98903278Y-139583407D01*
X98998517Y-139535788D01*
X99046136Y-139488169D01*
X99522326Y-138916741D02*
X99522326Y-139916741D01*
X99522326Y-138964360D02*
X99617564Y-138916741D01*
X99808040Y-138916741D01*
X99903278Y-138964360D01*
X99950897Y-139011979D01*
X99998517Y-139107217D01*
X99998517Y-139392931D01*
X99950897Y-139488169D01*
X99903278Y-139535788D01*
X99808040Y-139583407D01*
X99617564Y-139583407D01*
X99522326Y-139535788D01*
D12*
X123981612Y-102663407D02*
X123981612Y-101663407D01*
X124648278Y-101663407D02*
X124838755Y-101663407D01*
X124933993Y-101711027D01*
X125029231Y-101806265D01*
X125076850Y-101996741D01*
X125076850Y-102330074D01*
X125029231Y-102520550D01*
X124933993Y-102615788D01*
X124838755Y-102663407D01*
X124648278Y-102663407D01*
X124553040Y-102615788D01*
X124457802Y-102520550D01*
X124410183Y-102330074D01*
X124410183Y-101996741D01*
X124457802Y-101806265D01*
X124553040Y-101711027D01*
X124648278Y-101663407D01*
X98558517Y-102568169D02*
X98510897Y-102615788D01*
X98368040Y-102663407D01*
X98272802Y-102663407D01*
X98129945Y-102615788D01*
X98034707Y-102520550D01*
X97987088Y-102425312D01*
X97939469Y-102234836D01*
X97939469Y-102091979D01*
X97987088Y-101901503D01*
X98034707Y-101806265D01*
X98129945Y-101711027D01*
X98272802Y-101663407D01*
X98368040Y-101663407D01*
X98510897Y-101711027D01*
X98558517Y-101758646D01*
X99463278Y-102663407D02*
X98987088Y-102663407D01*
X98987088Y-101663407D01*
X99796612Y-102663407D02*
X99796612Y-101663407D01*
X100368040Y-102663407D02*
X99939469Y-102091979D01*
X100368040Y-101663407D02*
X99796612Y-102234836D01*
X97844231Y-98626027D02*
X98844231Y-98626027D01*
X98653755Y-100123407D02*
X98320421Y-99647217D01*
X98082326Y-100123407D02*
X98082326Y-99123407D01*
X98463278Y-99123407D01*
X98558517Y-99171027D01*
X98606136Y-99218646D01*
X98653755Y-99313884D01*
X98653755Y-99456741D01*
X98606136Y-99551979D01*
X98558517Y-99599598D01*
X98463278Y-99647217D01*
X98082326Y-99647217D01*
X98844231Y-98626027D02*
X99796612Y-98626027D01*
X99034707Y-100075788D02*
X99177564Y-100123407D01*
X99415659Y-100123407D01*
X99510897Y-100075788D01*
X99558517Y-100028169D01*
X99606136Y-99932931D01*
X99606136Y-99837693D01*
X99558517Y-99742455D01*
X99510897Y-99694836D01*
X99415659Y-99647217D01*
X99225183Y-99599598D01*
X99129945Y-99551979D01*
X99082326Y-99504360D01*
X99034707Y-99409122D01*
X99034707Y-99313884D01*
X99082326Y-99218646D01*
X99129945Y-99171027D01*
X99225183Y-99123407D01*
X99463278Y-99123407D01*
X99606136Y-99171027D01*
X99796612Y-98626027D02*
X100558517Y-98626027D01*
X99891850Y-99123407D02*
X100463278Y-99123407D01*
X100177564Y-100123407D02*
X100177564Y-99123407D01*
X124505421Y-96631027D02*
X124410183Y-96583407D01*
X124267326Y-96583407D01*
X124124469Y-96631027D01*
X124029231Y-96726265D01*
X123981612Y-96821503D01*
X123933993Y-97011979D01*
X123933993Y-97154836D01*
X123981612Y-97345312D01*
X124029231Y-97440550D01*
X124124469Y-97535788D01*
X124267326Y-97583407D01*
X124362564Y-97583407D01*
X124505421Y-97535788D01*
X124553040Y-97488169D01*
X124553040Y-97154836D01*
X124362564Y-97154836D01*
X124981612Y-97583407D02*
X124981612Y-96583407D01*
X125553040Y-97583407D01*
X125553040Y-96583407D01*
X126029231Y-97583407D02*
X126029231Y-96583407D01*
X126267326Y-96583407D01*
X126410183Y-96631027D01*
X126505421Y-96726265D01*
X126553040Y-96821503D01*
X126600659Y-97011979D01*
X126600659Y-97154836D01*
X126553040Y-97345312D01*
X126505421Y-97440550D01*
X126410183Y-97535788D01*
X126267326Y-97583407D01*
X126029231Y-97583407D01*
X97939469Y-96583407D02*
X98558517Y-96583407D01*
X98225183Y-96964360D01*
X98368040Y-96964360D01*
X98463278Y-97011979D01*
X98510897Y-97059598D01*
X98558517Y-97154836D01*
X98558517Y-97392931D01*
X98510897Y-97488169D01*
X98463278Y-97535788D01*
X98368040Y-97583407D01*
X98082326Y-97583407D01*
X97987088Y-97535788D01*
X97939469Y-97488169D01*
X98844231Y-96583407D02*
X99177564Y-97583407D01*
X99510897Y-96583407D01*
X99748993Y-96583407D02*
X100368040Y-96583407D01*
X100034707Y-96964360D01*
X100177564Y-96964360D01*
X100272802Y-97011979D01*
X100320421Y-97059598D01*
X100368040Y-97154836D01*
X100368040Y-97392931D01*
X100320421Y-97488169D01*
X100272802Y-97535788D01*
X100177564Y-97583407D01*
X99891850Y-97583407D01*
X99796612Y-97535788D01*
X99748993Y-97488169D01*
X119189523Y-135961380D02*
X118618095Y-135961380D01*
X118903809Y-135961380D02*
X118903809Y-134961380D01*
X118808571Y-135104238D01*
X118713333Y-135199476D01*
X118618095Y-135247095D01*
X120046666Y-135294714D02*
X120046666Y-135961380D01*
X119808571Y-134913761D02*
X119570476Y-135628047D01*
X120189523Y-135628047D01*
X116649523Y-135961380D02*
X116078095Y-135961380D01*
X116363809Y-135961380D02*
X116363809Y-134961380D01*
X116268571Y-135104238D01*
X116173333Y-135199476D01*
X116078095Y-135247095D01*
X117030476Y-135056619D02*
X117078095Y-135009000D01*
X117173333Y-134961380D01*
X117411428Y-134961380D01*
X117506666Y-135009000D01*
X117554285Y-135056619D01*
X117601904Y-135151857D01*
X117601904Y-135247095D01*
X117554285Y-135389952D01*
X116982857Y-135961380D01*
X117601904Y-135961380D01*
X114109523Y-135961380D02*
X113538095Y-135961380D01*
X113823809Y-135961380D02*
X113823809Y-134961380D01*
X113728571Y-135104238D01*
X113633333Y-135199476D01*
X113538095Y-135247095D01*
X114728571Y-134961380D02*
X114823809Y-134961380D01*
X114919047Y-135009000D01*
X114966666Y-135056619D01*
X115014285Y-135151857D01*
X115061904Y-135342333D01*
X115061904Y-135580428D01*
X115014285Y-135770904D01*
X114966666Y-135866142D01*
X114919047Y-135913761D01*
X114823809Y-135961380D01*
X114728571Y-135961380D01*
X114633333Y-135913761D01*
X114585714Y-135866142D01*
X114538095Y-135770904D01*
X114490476Y-135580428D01*
X114490476Y-135342333D01*
X114538095Y-135151857D01*
X114585714Y-135056619D01*
X114633333Y-135009000D01*
X114728571Y-134961380D01*
X111664761Y-135389952D02*
X111569523Y-135342333D01*
X111521904Y-135294714D01*
X111474285Y-135199476D01*
X111474285Y-135151857D01*
X111521904Y-135056619D01*
X111569523Y-135009000D01*
X111664761Y-134961380D01*
X111855238Y-134961380D01*
X111950476Y-135009000D01*
X111998095Y-135056619D01*
X112045714Y-135151857D01*
X112045714Y-135199476D01*
X111998095Y-135294714D01*
X111950476Y-135342333D01*
X111855238Y-135389952D01*
X111664761Y-135389952D01*
X111569523Y-135437571D01*
X111521904Y-135485190D01*
X111474285Y-135580428D01*
X111474285Y-135770904D01*
X111521904Y-135866142D01*
X111569523Y-135913761D01*
X111664761Y-135961380D01*
X111855238Y-135961380D01*
X111950476Y-135913761D01*
X111998095Y-135866142D01*
X112045714Y-135770904D01*
X112045714Y-135580428D01*
X111998095Y-135485190D01*
X111950476Y-135437571D01*
X111855238Y-135389952D01*
X109410476Y-134961380D02*
X109220000Y-134961380D01*
X109124761Y-135009000D01*
X109077142Y-135056619D01*
X108981904Y-135199476D01*
X108934285Y-135389952D01*
X108934285Y-135770904D01*
X108981904Y-135866142D01*
X109029523Y-135913761D01*
X109124761Y-135961380D01*
X109315238Y-135961380D01*
X109410476Y-135913761D01*
X109458095Y-135866142D01*
X109505714Y-135770904D01*
X109505714Y-135532809D01*
X109458095Y-135437571D01*
X109410476Y-135389952D01*
X109315238Y-135342333D01*
X109124761Y-135342333D01*
X109029523Y-135389952D01*
X108981904Y-135437571D01*
X108934285Y-135532809D01*
X106870476Y-135294714D02*
X106870476Y-135961380D01*
X106632380Y-134913761D02*
X106394285Y-135628047D01*
X107013333Y-135628047D01*
X119189523Y-142311380D02*
X118618095Y-142311380D01*
X118903809Y-142311380D02*
X118903809Y-141311380D01*
X118808571Y-141454238D01*
X118713333Y-141549476D01*
X118618095Y-141597095D01*
X120094285Y-141311380D02*
X119618095Y-141311380D01*
X119570476Y-141787571D01*
X119618095Y-141739952D01*
X119713333Y-141692333D01*
X119951428Y-141692333D01*
X120046666Y-141739952D01*
X120094285Y-141787571D01*
X120141904Y-141882809D01*
X120141904Y-142120904D01*
X120094285Y-142216142D01*
X120046666Y-142263761D01*
X119951428Y-142311380D01*
X119713333Y-142311380D01*
X119618095Y-142263761D01*
X119570476Y-142216142D01*
X116649523Y-142311380D02*
X116078095Y-142311380D01*
X116363809Y-142311380D02*
X116363809Y-141311380D01*
X116268571Y-141454238D01*
X116173333Y-141549476D01*
X116078095Y-141597095D01*
X116982857Y-141311380D02*
X117601904Y-141311380D01*
X117268571Y-141692333D01*
X117411428Y-141692333D01*
X117506666Y-141739952D01*
X117554285Y-141787571D01*
X117601904Y-141882809D01*
X117601904Y-142120904D01*
X117554285Y-142216142D01*
X117506666Y-142263761D01*
X117411428Y-142311380D01*
X117125714Y-142311380D01*
X117030476Y-142263761D01*
X116982857Y-142216142D01*
X114109523Y-142311380D02*
X113538095Y-142311380D01*
X113823809Y-142311380D02*
X113823809Y-141311380D01*
X113728571Y-141454238D01*
X113633333Y-141549476D01*
X113538095Y-141597095D01*
X115061904Y-142311380D02*
X114490476Y-142311380D01*
X114776190Y-142311380D02*
X114776190Y-141311380D01*
X114680952Y-141454238D01*
X114585714Y-141549476D01*
X114490476Y-141597095D01*
X111569523Y-142311380D02*
X111760000Y-142311380D01*
X111855238Y-142263761D01*
X111902857Y-142216142D01*
X111998095Y-142073285D01*
X112045714Y-141882809D01*
X112045714Y-141501857D01*
X111998095Y-141406619D01*
X111950476Y-141359000D01*
X111855238Y-141311380D01*
X111664761Y-141311380D01*
X111569523Y-141359000D01*
X111521904Y-141406619D01*
X111474285Y-141501857D01*
X111474285Y-141739952D01*
X111521904Y-141835190D01*
X111569523Y-141882809D01*
X111664761Y-141930428D01*
X111855238Y-141930428D01*
X111950476Y-141882809D01*
X111998095Y-141835190D01*
X112045714Y-141739952D01*
X108886666Y-141311380D02*
X109553333Y-141311380D01*
X109124761Y-142311380D01*
X106918095Y-141311380D02*
X106441904Y-141311380D01*
X106394285Y-141787571D01*
X106441904Y-141739952D01*
X106537142Y-141692333D01*
X106775238Y-141692333D01*
X106870476Y-141739952D01*
X106918095Y-141787571D01*
X106965714Y-141882809D01*
X106965714Y-142120904D01*
X106918095Y-142216142D01*
X106870476Y-142263761D01*
X106775238Y-142311380D01*
X106537142Y-142311380D01*
X106441904Y-142263761D01*
X106394285Y-142216142D01*
X103806666Y-141311380D02*
X104425714Y-141311380D01*
X104092380Y-141692333D01*
X104235238Y-141692333D01*
X104330476Y-141739952D01*
X104378095Y-141787571D01*
X104425714Y-141882809D01*
X104425714Y-142120904D01*
X104378095Y-142216142D01*
X104330476Y-142263761D01*
X104235238Y-142311380D01*
X103949523Y-142311380D01*
X103854285Y-142263761D01*
X103806666Y-142216142D01*
X101885714Y-142311380D02*
X101314285Y-142311380D01*
X101600000Y-142311380D02*
X101600000Y-141311380D01*
X101504761Y-141454238D01*
X101409523Y-141549476D01*
X101314285Y-141597095D01*
X103854285Y-135056619D02*
X103901904Y-135009000D01*
X103997142Y-134961380D01*
X104235238Y-134961380D01*
X104330476Y-135009000D01*
X104378095Y-135056619D01*
X104425714Y-135151857D01*
X104425714Y-135247095D01*
X104378095Y-135389952D01*
X103806666Y-135961380D01*
X104425714Y-135961380D01*
X101552380Y-134961380D02*
X101647619Y-134961380D01*
X101742857Y-135009000D01*
X101790476Y-135056619D01*
X101838095Y-135151857D01*
X101885714Y-135342333D01*
X101885714Y-135580428D01*
X101838095Y-135770904D01*
X101790476Y-135866142D01*
X101742857Y-135913761D01*
X101647619Y-135961380D01*
X101552380Y-135961380D01*
X101457142Y-135913761D01*
X101409523Y-135866142D01*
X101361904Y-135770904D01*
X101314285Y-135580428D01*
X101314285Y-135342333D01*
X101361904Y-135151857D01*
X101409523Y-135056619D01*
X101457142Y-135009000D01*
X101552380Y-134961380D01*
D13*
G04 #@! TO.C,LOGO1*
G36*
X95641017Y-63735930D02*
X95641017Y-65736627D01*
X95606092Y-65736394D01*
X95578851Y-65731534D01*
X95535934Y-65718749D01*
X95484887Y-65700398D01*
X95463217Y-65691754D01*
X95282203Y-65604824D01*
X95102352Y-65493800D01*
X94925507Y-65359976D01*
X94753513Y-65204648D01*
X94714751Y-65165933D01*
X94528626Y-64958566D01*
X94361021Y-64734460D01*
X94212587Y-64494929D01*
X94083978Y-64241289D01*
X93975848Y-63974854D01*
X93888850Y-63696941D01*
X93823636Y-63408863D01*
X93813464Y-63351320D01*
X93805573Y-63298757D01*
X93797317Y-63233752D01*
X93789067Y-63160534D01*
X93781198Y-63083334D01*
X93774082Y-63006380D01*
X93768091Y-62933903D01*
X93763600Y-62870133D01*
X93760980Y-62819299D01*
X93760605Y-62785632D01*
X93762515Y-62773489D01*
X93774250Y-62766814D01*
X93806216Y-62748963D01*
X93856412Y-62721043D01*
X93922837Y-62684161D01*
X94003489Y-62639425D01*
X94096368Y-62587941D01*
X94199472Y-62530817D01*
X94310800Y-62469160D01*
X94428350Y-62404077D01*
X94550123Y-62336676D01*
X94674115Y-62268064D01*
X94798328Y-62199347D01*
X94920758Y-62131634D01*
X95039405Y-62066031D01*
X95152268Y-62003646D01*
X95257345Y-61945586D01*
X95352635Y-61892958D01*
X95436138Y-61846869D01*
X95505852Y-61808427D01*
X95559776Y-61778738D01*
X95595908Y-61758911D01*
X95612247Y-61750052D01*
X95612442Y-61749951D01*
X95641016Y-61735233D01*
X95641017Y-63735930D01*
X95641017Y-63735930D01*
G37*
X95641017Y-63735930D02*
X95641017Y-65736627D01*
X95606092Y-65736394D01*
X95578851Y-65731534D01*
X95535934Y-65718749D01*
X95484887Y-65700398D01*
X95463217Y-65691754D01*
X95282203Y-65604824D01*
X95102352Y-65493800D01*
X94925507Y-65359976D01*
X94753513Y-65204648D01*
X94714751Y-65165933D01*
X94528626Y-64958566D01*
X94361021Y-64734460D01*
X94212587Y-64494929D01*
X94083978Y-64241289D01*
X93975848Y-63974854D01*
X93888850Y-63696941D01*
X93823636Y-63408863D01*
X93813464Y-63351320D01*
X93805573Y-63298757D01*
X93797317Y-63233752D01*
X93789067Y-63160534D01*
X93781198Y-63083334D01*
X93774082Y-63006380D01*
X93768091Y-62933903D01*
X93763600Y-62870133D01*
X93760980Y-62819299D01*
X93760605Y-62785632D01*
X93762515Y-62773489D01*
X93774250Y-62766814D01*
X93806216Y-62748963D01*
X93856412Y-62721043D01*
X93922837Y-62684161D01*
X94003489Y-62639425D01*
X94096368Y-62587941D01*
X94199472Y-62530817D01*
X94310800Y-62469160D01*
X94428350Y-62404077D01*
X94550123Y-62336676D01*
X94674115Y-62268064D01*
X94798328Y-62199347D01*
X94920758Y-62131634D01*
X95039405Y-62066031D01*
X95152268Y-62003646D01*
X95257345Y-61945586D01*
X95352635Y-61892958D01*
X95436138Y-61846869D01*
X95505852Y-61808427D01*
X95559776Y-61778738D01*
X95595908Y-61758911D01*
X95612247Y-61750052D01*
X95612442Y-61749951D01*
X95641016Y-61735233D01*
X95641017Y-63735930D01*
G36*
X96555253Y-63185264D02*
X96615495Y-63212932D01*
X96674195Y-63259044D01*
X96728600Y-63322318D01*
X96775960Y-63401474D01*
X96777705Y-63405027D01*
X96800056Y-63455336D01*
X96816701Y-63505052D01*
X96828210Y-63558715D01*
X96835150Y-63620867D01*
X96838093Y-63696049D01*
X96837607Y-63788802D01*
X96835542Y-63866317D01*
X96828467Y-64085157D01*
X96311817Y-63850677D01*
X96317733Y-63603027D01*
X96320801Y-63503115D01*
X96325157Y-63424832D01*
X96331550Y-63364415D01*
X96340727Y-63318097D01*
X96353439Y-63282114D01*
X96370434Y-63252701D01*
X96392461Y-63226094D01*
X96392790Y-63225743D01*
X96441149Y-63190388D01*
X96496221Y-63177323D01*
X96555253Y-63185264D01*
X96555253Y-63185264D01*
G37*
X96555253Y-63185264D02*
X96615495Y-63212932D01*
X96674195Y-63259044D01*
X96728600Y-63322318D01*
X96775960Y-63401474D01*
X96777705Y-63405027D01*
X96800056Y-63455336D01*
X96816701Y-63505052D01*
X96828210Y-63558715D01*
X96835150Y-63620867D01*
X96838093Y-63696049D01*
X96837607Y-63788802D01*
X96835542Y-63866317D01*
X96828467Y-64085157D01*
X96311817Y-63850677D01*
X96317733Y-63603027D01*
X96320801Y-63503115D01*
X96325157Y-63424832D01*
X96331550Y-63364415D01*
X96340727Y-63318097D01*
X96353439Y-63282114D01*
X96370434Y-63252701D01*
X96392461Y-63226094D01*
X96392790Y-63225743D01*
X96441149Y-63190388D01*
X96496221Y-63177323D01*
X96555253Y-63185264D01*
G36*
X95666787Y-61234100D02*
X95699518Y-61251334D01*
X95750731Y-61278799D01*
X95818555Y-61315467D01*
X95901114Y-61360310D01*
X95996537Y-61412297D01*
X96102950Y-61470401D01*
X96218480Y-61533592D01*
X96341254Y-61600842D01*
X96469398Y-61671121D01*
X96601040Y-61743402D01*
X96734306Y-61816654D01*
X96867323Y-61889849D01*
X96998219Y-61961959D01*
X97125119Y-62031954D01*
X97246151Y-62098805D01*
X97359441Y-62161484D01*
X97463116Y-62218962D01*
X97555304Y-62270210D01*
X97634131Y-62314199D01*
X97697724Y-62349900D01*
X97730167Y-62368268D01*
X97770838Y-62392987D01*
X97800465Y-62414036D01*
X97814098Y-62427791D01*
X97814345Y-62429914D01*
X97804371Y-62443771D01*
X97781250Y-62472068D01*
X97748297Y-62511021D01*
X97708831Y-62556847D01*
X97666168Y-62605764D01*
X97623626Y-62653988D01*
X97584521Y-62697735D01*
X97552170Y-62733222D01*
X97529892Y-62756667D01*
X97521123Y-62764347D01*
X97509235Y-62758248D01*
X97476789Y-62740701D01*
X97425418Y-62712611D01*
X97356761Y-62674880D01*
X97272451Y-62628412D01*
X97174126Y-62574109D01*
X97063422Y-62512875D01*
X96941973Y-62445613D01*
X96811417Y-62373226D01*
X96673388Y-62296618D01*
X96580817Y-62245197D01*
X95647367Y-61726527D01*
X95643923Y-61477327D01*
X95643150Y-61382031D01*
X95643845Y-61310789D01*
X95646064Y-61262294D01*
X95649861Y-61235240D01*
X95654411Y-61228127D01*
X95666787Y-61234100D01*
X95666787Y-61234100D01*
G37*
X95666787Y-61234100D02*
X95699518Y-61251334D01*
X95750731Y-61278799D01*
X95818555Y-61315467D01*
X95901114Y-61360310D01*
X95996537Y-61412297D01*
X96102950Y-61470401D01*
X96218480Y-61533592D01*
X96341254Y-61600842D01*
X96469398Y-61671121D01*
X96601040Y-61743402D01*
X96734306Y-61816654D01*
X96867323Y-61889849D01*
X96998219Y-61961959D01*
X97125119Y-62031954D01*
X97246151Y-62098805D01*
X97359441Y-62161484D01*
X97463116Y-62218962D01*
X97555304Y-62270210D01*
X97634131Y-62314199D01*
X97697724Y-62349900D01*
X97730167Y-62368268D01*
X97770838Y-62392987D01*
X97800465Y-62414036D01*
X97814098Y-62427791D01*
X97814345Y-62429914D01*
X97804371Y-62443771D01*
X97781250Y-62472068D01*
X97748297Y-62511021D01*
X97708831Y-62556847D01*
X97666168Y-62605764D01*
X97623626Y-62653988D01*
X97584521Y-62697735D01*
X97552170Y-62733222D01*
X97529892Y-62756667D01*
X97521123Y-62764347D01*
X97509235Y-62758248D01*
X97476789Y-62740701D01*
X97425418Y-62712611D01*
X97356761Y-62674880D01*
X97272451Y-62628412D01*
X97174126Y-62574109D01*
X97063422Y-62512875D01*
X96941973Y-62445613D01*
X96811417Y-62373226D01*
X96673388Y-62296618D01*
X96580817Y-62245197D01*
X95647367Y-61726527D01*
X95643923Y-61477327D01*
X95643150Y-61382031D01*
X95643845Y-61310789D01*
X95646064Y-61262294D01*
X95649861Y-61235240D01*
X95654411Y-61228127D01*
X95666787Y-61234100D01*
G36*
X95637960Y-60572194D02*
X95638419Y-60696881D01*
X95638485Y-60813802D01*
X95638184Y-60920511D01*
X95637539Y-61014560D01*
X95636574Y-61093503D01*
X95635315Y-61154892D01*
X95633783Y-61196280D01*
X95632005Y-61215221D01*
X95631610Y-61216111D01*
X95619172Y-61223487D01*
X95586336Y-61242064D01*
X95534965Y-61270814D01*
X95466925Y-61308710D01*
X95384080Y-61354723D01*
X95288293Y-61407826D01*
X95181429Y-61466991D01*
X95065352Y-61531190D01*
X94941926Y-61599395D01*
X94813016Y-61670579D01*
X94680485Y-61743713D01*
X94546199Y-61817770D01*
X94412020Y-61891722D01*
X94279814Y-61964541D01*
X94151445Y-62035200D01*
X94028776Y-62102669D01*
X93913672Y-62165923D01*
X93807998Y-62223932D01*
X93713617Y-62275669D01*
X93632393Y-62320107D01*
X93566192Y-62356216D01*
X93516876Y-62382970D01*
X93486311Y-62399341D01*
X93476573Y-62404286D01*
X93472011Y-62404125D01*
X93468194Y-62398495D01*
X93465058Y-62385377D01*
X93462536Y-62362754D01*
X93460564Y-62328609D01*
X93459076Y-62280924D01*
X93458008Y-62217683D01*
X93457293Y-62136868D01*
X93456866Y-62036461D01*
X93456663Y-61914446D01*
X93456617Y-61787708D01*
X93456617Y-61163472D01*
X93485192Y-61135085D01*
X93506472Y-61118845D01*
X93544222Y-61094641D01*
X93593671Y-61065105D01*
X93650048Y-61032869D01*
X93708582Y-61000566D01*
X93764503Y-60970828D01*
X93813039Y-60946287D01*
X93849421Y-60929576D01*
X93868877Y-60923327D01*
X93868976Y-60923326D01*
X93876257Y-60926429D01*
X93881498Y-60938015D01*
X93885018Y-60961502D01*
X93887133Y-61000306D01*
X93888160Y-61057846D01*
X93888417Y-61132877D01*
X93888867Y-61202615D01*
X93890115Y-61262523D01*
X93892002Y-61308416D01*
X93894372Y-61336108D01*
X93896288Y-61342427D01*
X93909365Y-61336591D01*
X93941107Y-61320341D01*
X93987958Y-61295559D01*
X94046358Y-61264129D01*
X94112751Y-61227935D01*
X94118190Y-61224952D01*
X94332220Y-61107477D01*
X94332568Y-60897577D01*
X94333230Y-60813846D01*
X94335084Y-60751984D01*
X94338410Y-60708479D01*
X94343490Y-60679816D01*
X94350603Y-60662482D01*
X94351440Y-60661232D01*
X94369254Y-60645366D01*
X94404078Y-60621667D01*
X94451346Y-60592627D01*
X94506494Y-60560737D01*
X94564958Y-60528488D01*
X94622173Y-60498371D01*
X94673574Y-60472878D01*
X94714596Y-60454499D01*
X94740677Y-60445726D01*
X94746483Y-60445632D01*
X94753534Y-60452769D01*
X94758581Y-60470189D01*
X94761919Y-60501290D01*
X94763841Y-60549470D01*
X94764643Y-60618128D01*
X94764717Y-60656228D01*
X94765277Y-60724858D01*
X94766827Y-60783550D01*
X94769167Y-60828073D01*
X94772100Y-60854194D01*
X94774242Y-60859300D01*
X94787819Y-60853202D01*
X94819900Y-60836549D01*
X94866875Y-60811282D01*
X94925136Y-60779344D01*
X94991072Y-60742676D01*
X94993317Y-60741419D01*
X95202867Y-60624064D01*
X95209217Y-60405808D01*
X95212029Y-60322925D01*
X95215206Y-60261859D01*
X95219151Y-60219026D01*
X95224265Y-60190843D01*
X95230950Y-60173726D01*
X95235989Y-60167170D01*
X95253579Y-60154399D01*
X95289312Y-60131981D01*
X95339019Y-60102408D01*
X95398532Y-60068174D01*
X95445539Y-60041803D01*
X95634667Y-59936818D01*
X95637960Y-60572194D01*
X95637960Y-60572194D01*
G37*
X95637960Y-60572194D02*
X95638419Y-60696881D01*
X95638485Y-60813802D01*
X95638184Y-60920511D01*
X95637539Y-61014560D01*
X95636574Y-61093503D01*
X95635315Y-61154892D01*
X95633783Y-61196280D01*
X95632005Y-61215221D01*
X95631610Y-61216111D01*
X95619172Y-61223487D01*
X95586336Y-61242064D01*
X95534965Y-61270814D01*
X95466925Y-61308710D01*
X95384080Y-61354723D01*
X95288293Y-61407826D01*
X95181429Y-61466991D01*
X95065352Y-61531190D01*
X94941926Y-61599395D01*
X94813016Y-61670579D01*
X94680485Y-61743713D01*
X94546199Y-61817770D01*
X94412020Y-61891722D01*
X94279814Y-61964541D01*
X94151445Y-62035200D01*
X94028776Y-62102669D01*
X93913672Y-62165923D01*
X93807998Y-62223932D01*
X93713617Y-62275669D01*
X93632393Y-62320107D01*
X93566192Y-62356216D01*
X93516876Y-62382970D01*
X93486311Y-62399341D01*
X93476573Y-62404286D01*
X93472011Y-62404125D01*
X93468194Y-62398495D01*
X93465058Y-62385377D01*
X93462536Y-62362754D01*
X93460564Y-62328609D01*
X93459076Y-62280924D01*
X93458008Y-62217683D01*
X93457293Y-62136868D01*
X93456866Y-62036461D01*
X93456663Y-61914446D01*
X93456617Y-61787708D01*
X93456617Y-61163472D01*
X93485192Y-61135085D01*
X93506472Y-61118845D01*
X93544222Y-61094641D01*
X93593671Y-61065105D01*
X93650048Y-61032869D01*
X93708582Y-61000566D01*
X93764503Y-60970828D01*
X93813039Y-60946287D01*
X93849421Y-60929576D01*
X93868877Y-60923327D01*
X93868976Y-60923326D01*
X93876257Y-60926429D01*
X93881498Y-60938015D01*
X93885018Y-60961502D01*
X93887133Y-61000306D01*
X93888160Y-61057846D01*
X93888417Y-61132877D01*
X93888867Y-61202615D01*
X93890115Y-61262523D01*
X93892002Y-61308416D01*
X93894372Y-61336108D01*
X93896288Y-61342427D01*
X93909365Y-61336591D01*
X93941107Y-61320341D01*
X93987958Y-61295559D01*
X94046358Y-61264129D01*
X94112751Y-61227935D01*
X94118190Y-61224952D01*
X94332220Y-61107477D01*
X94332568Y-60897577D01*
X94333230Y-60813846D01*
X94335084Y-60751984D01*
X94338410Y-60708479D01*
X94343490Y-60679816D01*
X94350603Y-60662482D01*
X94351440Y-60661232D01*
X94369254Y-60645366D01*
X94404078Y-60621667D01*
X94451346Y-60592627D01*
X94506494Y-60560737D01*
X94564958Y-60528488D01*
X94622173Y-60498371D01*
X94673574Y-60472878D01*
X94714596Y-60454499D01*
X94740677Y-60445726D01*
X94746483Y-60445632D01*
X94753534Y-60452769D01*
X94758581Y-60470189D01*
X94761919Y-60501290D01*
X94763841Y-60549470D01*
X94764643Y-60618128D01*
X94764717Y-60656228D01*
X94765277Y-60724858D01*
X94766827Y-60783550D01*
X94769167Y-60828073D01*
X94772100Y-60854194D01*
X94774242Y-60859300D01*
X94787819Y-60853202D01*
X94819900Y-60836549D01*
X94866875Y-60811282D01*
X94925136Y-60779344D01*
X94991072Y-60742676D01*
X94993317Y-60741419D01*
X95202867Y-60624064D01*
X95209217Y-60405808D01*
X95212029Y-60322925D01*
X95215206Y-60261859D01*
X95219151Y-60219026D01*
X95224265Y-60190843D01*
X95230950Y-60173726D01*
X95235989Y-60167170D01*
X95253579Y-60154399D01*
X95289312Y-60131981D01*
X95339019Y-60102408D01*
X95398532Y-60068174D01*
X95445539Y-60041803D01*
X95634667Y-59936818D01*
X95637960Y-60572194D01*
G36*
X96955180Y-60662487D02*
X96985034Y-60678890D01*
X97030427Y-60703977D01*
X97088034Y-60735910D01*
X97154531Y-60772851D01*
X97170780Y-60781888D01*
X97395946Y-60907150D01*
X97394224Y-61121112D01*
X97393472Y-61191921D01*
X97392476Y-61253227D01*
X97391332Y-61300802D01*
X97390137Y-61330422D01*
X97389253Y-61338324D01*
X97377667Y-61333524D01*
X97347308Y-61318232D01*
X97301622Y-61294259D01*
X97244059Y-61263418D01*
X97178065Y-61227519D01*
X97170735Y-61223502D01*
X96955467Y-61105431D01*
X96949117Y-60881009D01*
X96947147Y-60808708D01*
X96945587Y-60746092D01*
X96944525Y-60697204D01*
X96944050Y-60666084D01*
X96944190Y-60656607D01*
X96955180Y-60662487D01*
X96955180Y-60662487D01*
G37*
X96955180Y-60662487D02*
X96985034Y-60678890D01*
X97030427Y-60703977D01*
X97088034Y-60735910D01*
X97154531Y-60772851D01*
X97170780Y-60781888D01*
X97395946Y-60907150D01*
X97394224Y-61121112D01*
X97393472Y-61191921D01*
X97392476Y-61253227D01*
X97391332Y-61300802D01*
X97390137Y-61330422D01*
X97389253Y-61338324D01*
X97377667Y-61333524D01*
X97347308Y-61318232D01*
X97301622Y-61294259D01*
X97244059Y-61263418D01*
X97178065Y-61227519D01*
X97170735Y-61223502D01*
X96955467Y-61105431D01*
X96949117Y-60881009D01*
X96947147Y-60808708D01*
X96945587Y-60746092D01*
X96944525Y-60697204D01*
X96944050Y-60666084D01*
X96944190Y-60656607D01*
X96955180Y-60662487D01*
G36*
X96080299Y-60179928D02*
X96111761Y-60196422D01*
X96158663Y-60221692D01*
X96217643Y-60253922D01*
X96285339Y-60291296D01*
X96307869Y-60303809D01*
X96395227Y-60353227D01*
X96460357Y-60391979D01*
X96503892Y-60420475D01*
X96526462Y-60439123D01*
X96529596Y-60447583D01*
X96525389Y-60464561D01*
X96521397Y-60502227D01*
X96517954Y-60555868D01*
X96515396Y-60620772D01*
X96514476Y-60660212D01*
X96510967Y-60858851D01*
X96085517Y-60625129D01*
X96085517Y-60432154D01*
X96084719Y-60362104D01*
X96082525Y-60298860D01*
X96079229Y-60247823D01*
X96075130Y-60214390D01*
X96073131Y-60206603D01*
X96066320Y-60183059D01*
X96067637Y-60174027D01*
X96080299Y-60179928D01*
X96080299Y-60179928D01*
G37*
X96080299Y-60179928D02*
X96111761Y-60196422D01*
X96158663Y-60221692D01*
X96217643Y-60253922D01*
X96285339Y-60291296D01*
X96307869Y-60303809D01*
X96395227Y-60353227D01*
X96460357Y-60391979D01*
X96503892Y-60420475D01*
X96526462Y-60439123D01*
X96529596Y-60447583D01*
X96525389Y-60464561D01*
X96521397Y-60502227D01*
X96517954Y-60555868D01*
X96515396Y-60620772D01*
X96514476Y-60660212D01*
X96510967Y-60858851D01*
X96085517Y-60625129D01*
X96085517Y-60432154D01*
X96084719Y-60362104D01*
X96082525Y-60298860D01*
X96079229Y-60247823D01*
X96075130Y-60214390D01*
X96073131Y-60206603D01*
X96066320Y-60183059D01*
X96067637Y-60174027D01*
X96080299Y-60179928D01*
D14*
G04 #@! TO.C,R2*
X98663796Y-138041027D02*
X98338238Y-138041027D01*
X98663796Y-137021027D02*
X98338238Y-137021027D01*
G04 #@! TO.C,R1*
X92591017Y-112193806D02*
X92591017Y-111868248D01*
X93611017Y-112193806D02*
X93611017Y-111868248D01*
G04 #@! TO.C,TP20*
X96591017Y-102211027D02*
G75*
G03X96591017Y-102211027I-950000J0D01*
G01*
G04 #@! TO.C,TP21*
X129611017Y-102211027D02*
G75*
G03X129611017Y-102211027I-950000J0D01*
G01*
G04 #@! TO.C,TP19*
X96591017Y-99671027D02*
G75*
G03X96591017Y-99671027I-950000J0D01*
G01*
G04 #@! TO.C,TP33*
X96591017Y-97131027D02*
G75*
G03X96591017Y-97131027I-950000J0D01*
G01*
G04 #@! TO.C,TP38*
X112710000Y-70358000D02*
G75*
G03X112710000Y-70358000I-950000J0D01*
G01*
G04 #@! TO.C,TP50*
X105090000Y-64008000D02*
G75*
G03X105090000Y-64008000I-950000J0D01*
G01*
G04 #@! TO.C,TP49*
X107630000Y-64008000D02*
G75*
G03X107630000Y-64008000I-950000J0D01*
G01*
G04 #@! TO.C,TP48*
X110170000Y-64008000D02*
G75*
G03X110170000Y-64008000I-950000J0D01*
G01*
G04 #@! TO.C,TP47*
X112710000Y-64008000D02*
G75*
G03X112710000Y-64008000I-950000J0D01*
G01*
G04 #@! TO.C,TP46*
X115250000Y-64008000D02*
G75*
G03X115250000Y-64008000I-950000J0D01*
G01*
G04 #@! TO.C,TP45*
X117790000Y-64008000D02*
G75*
G03X117790000Y-64008000I-950000J0D01*
G01*
G04 #@! TO.C,TP44*
X120330000Y-64008000D02*
G75*
G03X120330000Y-64008000I-950000J0D01*
G01*
G04 #@! TO.C,TP43*
X122870000Y-64008000D02*
G75*
G03X122870000Y-64008000I-950000J0D01*
G01*
G04 #@! TO.C,TP42*
X102550000Y-70358000D02*
G75*
G03X102550000Y-70358000I-950000J0D01*
G01*
G04 #@! TO.C,TP41*
X105090000Y-70358000D02*
G75*
G03X105090000Y-70358000I-950000J0D01*
G01*
G04 #@! TO.C,TP40*
X107630000Y-70358000D02*
G75*
G03X107630000Y-70358000I-950000J0D01*
G01*
G04 #@! TO.C,TP39*
X110170000Y-70358000D02*
G75*
G03X110170000Y-70358000I-950000J0D01*
G01*
G04 #@! TO.C,TP37*
X115250000Y-70358000D02*
G75*
G03X115250000Y-70358000I-950000J0D01*
G01*
G04 #@! TO.C,TP36*
X117790000Y-70358000D02*
G75*
G03X117790000Y-70358000I-950000J0D01*
G01*
G04 #@! TO.C,TP35*
X120330000Y-70358000D02*
G75*
G03X120330000Y-70358000I-950000J0D01*
G01*
G04 #@! TO.C,TP34*
X122870000Y-70358000D02*
G75*
G03X122870000Y-70358000I-950000J0D01*
G01*
G04 #@! TO.C,TP51*
X102550000Y-64008000D02*
G75*
G03X102550000Y-64008000I-950000J0D01*
G01*
G04 #@! TO.C,TP18*
X129611017Y-97131027D02*
G75*
G03X129611017Y-97131027I-950000J0D01*
G01*
G04 #@! TO.C,TP17*
X102550000Y-137541000D02*
G75*
G03X102550000Y-137541000I-950000J0D01*
G01*
G04 #@! TO.C,TP16*
X105090000Y-137541000D02*
G75*
G03X105090000Y-137541000I-950000J0D01*
G01*
G04 #@! TO.C,TP15*
X107630000Y-137541000D02*
G75*
G03X107630000Y-137541000I-950000J0D01*
G01*
G04 #@! TO.C,TP14*
X110170000Y-137541000D02*
G75*
G03X110170000Y-137541000I-950000J0D01*
G01*
G04 #@! TO.C,TP13*
X112710000Y-137541000D02*
G75*
G03X112710000Y-137541000I-950000J0D01*
G01*
G04 #@! TO.C,TP12*
X115250000Y-137541000D02*
G75*
G03X115250000Y-137541000I-950000J0D01*
G01*
G04 #@! TO.C,TP11*
X117790000Y-137541000D02*
G75*
G03X117790000Y-137541000I-950000J0D01*
G01*
G04 #@! TO.C,TP10*
X120330000Y-137541000D02*
G75*
G03X120330000Y-137541000I-950000J0D01*
G01*
G04 #@! TO.C,TP9*
X102550000Y-143891000D02*
G75*
G03X102550000Y-143891000I-950000J0D01*
G01*
G04 #@! TO.C,TP8*
X105090000Y-143891000D02*
G75*
G03X105090000Y-143891000I-950000J0D01*
G01*
G04 #@! TO.C,TP7*
X107630000Y-143891000D02*
G75*
G03X107630000Y-143891000I-950000J0D01*
G01*
G04 #@! TO.C,TP6*
X110170000Y-143891000D02*
G75*
G03X110170000Y-143891000I-950000J0D01*
G01*
G04 #@! TO.C,TP5*
X112710000Y-143891000D02*
G75*
G03X112710000Y-143891000I-950000J0D01*
G01*
G04 #@! TO.C,TP4*
X115250000Y-143891000D02*
G75*
G03X115250000Y-143891000I-950000J0D01*
G01*
G04 #@! TO.C,TP3*
X117790000Y-143891000D02*
G75*
G03X117790000Y-143891000I-950000J0D01*
G01*
G04 #@! TO.C,TP2*
X120330000Y-143891000D02*
G75*
G03X120330000Y-143891000I-950000J0D01*
G01*
G04 #@! TO.C,TP1*
X125410000Y-137541000D02*
G75*
G03X125410000Y-137541000I-950000J0D01*
G01*
G04 #@! TO.C,R2*
D11*
X95634350Y-137983407D02*
X95301017Y-137507217D01*
X95062921Y-137983407D02*
X95062921Y-136983407D01*
X95443874Y-136983407D01*
X95539112Y-137031027D01*
X95586731Y-137078646D01*
X95634350Y-137173884D01*
X95634350Y-137316741D01*
X95586731Y-137411979D01*
X95539112Y-137459598D01*
X95443874Y-137507217D01*
X95062921Y-137507217D01*
X96015302Y-137078646D02*
X96062921Y-137031027D01*
X96158159Y-136983407D01*
X96396255Y-136983407D01*
X96491493Y-137031027D01*
X96539112Y-137078646D01*
X96586731Y-137173884D01*
X96586731Y-137269122D01*
X96539112Y-137411979D01*
X95967683Y-137983407D01*
X96586731Y-137983407D01*
G04 #@! TO.C,R1*
X94953397Y-112197693D02*
X94477207Y-112531027D01*
X94953397Y-112769122D02*
X93953397Y-112769122D01*
X93953397Y-112388169D01*
X94001017Y-112292931D01*
X94048636Y-112245312D01*
X94143874Y-112197693D01*
X94286731Y-112197693D01*
X94381969Y-112245312D01*
X94429588Y-112292931D01*
X94477207Y-112388169D01*
X94477207Y-112769122D01*
X94953397Y-111245312D02*
X94953397Y-111816741D01*
X94953397Y-111531027D02*
X93953397Y-111531027D01*
X94096255Y-111626265D01*
X94191493Y-111721503D01*
X94239112Y-111816741D01*
G04 #@! TD*
M02*
