G04 #@! TF.GenerationSoftware,KiCad,Pcbnew,5.0.2-bee76a0~70~ubuntu18.04.1*
G04 #@! TF.CreationDate,2019-07-23T10:59:18+02:00*
G04 #@! TF.ProjectId,smartcard,736d6172-7463-4617-9264-2e6b69636164,rev?*
G04 #@! TF.SameCoordinates,Original*
G04 #@! TF.FileFunction,Legend,Bot*
G04 #@! TF.FilePolarity,Positive*
%FSLAX46Y46*%
G04 Gerber Fmt 4.6, Leading zero omitted, Abs format (unit mm)*
G04 Created by KiCad (PCBNEW 5.0.2-bee76a0~70~ubuntu18.04.1) date mar. 23 juil. 2019 10:59:18 CEST*
%MOMM*%
%LPD*%
G01*
G04 APERTURE LIST*
%ADD10C,0.300000*%
%ADD11C,0.150000*%
%ADD12C,0.120000*%
G04 APERTURE END LIST*
D10*
X129443874Y-138341598D02*
X130158159Y-138341598D01*
X130229588Y-139055884D01*
X130158159Y-138984455D01*
X130015302Y-138913027D01*
X129658159Y-138913027D01*
X129515302Y-138984455D01*
X129443874Y-139055884D01*
X129372445Y-139198741D01*
X129372445Y-139555884D01*
X129443874Y-139698741D01*
X129515302Y-139770169D01*
X129658159Y-139841598D01*
X130015302Y-139841598D01*
X130158159Y-139770169D01*
X130229588Y-139698741D01*
X127048874Y-139841598D02*
X127048874Y-138341598D01*
X126548874Y-139413027D01*
X126048874Y-138341598D01*
X126048874Y-139841598D01*
X124691731Y-139841598D02*
X124691731Y-139055884D01*
X124763159Y-138913027D01*
X124906017Y-138841598D01*
X125191731Y-138841598D01*
X125334588Y-138913027D01*
X124691731Y-139770169D02*
X124834588Y-139841598D01*
X125191731Y-139841598D01*
X125334588Y-139770169D01*
X125406017Y-139627312D01*
X125406017Y-139484455D01*
X125334588Y-139341598D01*
X125191731Y-139270169D01*
X124834588Y-139270169D01*
X124691731Y-139198741D01*
X123977445Y-139841598D02*
X123977445Y-138341598D01*
X123834588Y-139270169D02*
X123406017Y-139841598D01*
X123406017Y-138841598D02*
X123977445Y-139413027D01*
X122191731Y-139770169D02*
X122334588Y-139841598D01*
X122620302Y-139841598D01*
X122763159Y-139770169D01*
X122834588Y-139627312D01*
X122834588Y-139055884D01*
X122763159Y-138913027D01*
X122620302Y-138841598D01*
X122334588Y-138841598D01*
X122191731Y-138913027D01*
X122120302Y-139055884D01*
X122120302Y-139198741D01*
X122834588Y-139341598D01*
X119477445Y-139698741D02*
X119548874Y-139770169D01*
X119763159Y-139841598D01*
X119906017Y-139841598D01*
X120120302Y-139770169D01*
X120263159Y-139627312D01*
X120334588Y-139484455D01*
X120406017Y-139198741D01*
X120406017Y-138984455D01*
X120334588Y-138698741D01*
X120263159Y-138555884D01*
X120120302Y-138413027D01*
X119906017Y-138341598D01*
X119763159Y-138341598D01*
X119548874Y-138413027D01*
X119477445Y-138484455D01*
X117977445Y-139698741D02*
X118048874Y-139770169D01*
X118263159Y-139841598D01*
X118406017Y-139841598D01*
X118620302Y-139770169D01*
X118763159Y-139627312D01*
X118834588Y-139484455D01*
X118906017Y-139198741D01*
X118906017Y-138984455D01*
X118834588Y-138698741D01*
X118763159Y-138555884D01*
X118620302Y-138413027D01*
X118406017Y-138341598D01*
X118263159Y-138341598D01*
X118048874Y-138413027D01*
X117977445Y-138484455D01*
X115548874Y-138841598D02*
X115548874Y-140341598D01*
X115548874Y-139770169D02*
X115691731Y-139841598D01*
X115977445Y-139841598D01*
X116120302Y-139770169D01*
X116191731Y-139698741D01*
X116263159Y-139555884D01*
X116263159Y-139127312D01*
X116191731Y-138984455D01*
X116120302Y-138913027D01*
X115977445Y-138841598D01*
X115691731Y-138841598D01*
X115548874Y-138913027D01*
X114191731Y-138841598D02*
X114191731Y-139841598D01*
X114834588Y-138841598D02*
X114834588Y-139627312D01*
X114763159Y-139770169D01*
X114620302Y-139841598D01*
X114406017Y-139841598D01*
X114263159Y-139770169D01*
X114191731Y-139698741D01*
X113263159Y-139841598D02*
X113406017Y-139770169D01*
X113477445Y-139698741D01*
X113548874Y-139555884D01*
X113548874Y-139127312D01*
X113477445Y-138984455D01*
X113406017Y-138913027D01*
X113263159Y-138841598D01*
X113048874Y-138841598D01*
X112906017Y-138913027D01*
X112834588Y-138984455D01*
X112763159Y-139127312D01*
X112763159Y-139555884D01*
X112834588Y-139698741D01*
X112906017Y-139770169D01*
X113048874Y-139841598D01*
X113263159Y-139841598D01*
X112334588Y-138841598D02*
X111763159Y-138841598D01*
X112120302Y-138341598D02*
X112120302Y-139627312D01*
X112048874Y-139770169D01*
X111906017Y-139841598D01*
X111763159Y-139841598D01*
X110620302Y-139841598D02*
X110620302Y-139055884D01*
X110691731Y-138913027D01*
X110834588Y-138841598D01*
X111120302Y-138841598D01*
X111263159Y-138913027D01*
X110620302Y-139770169D02*
X110763159Y-139841598D01*
X111120302Y-139841598D01*
X111263159Y-139770169D01*
X111334588Y-139627312D01*
X111334588Y-139484455D01*
X111263159Y-139341598D01*
X111120302Y-139270169D01*
X110763159Y-139270169D01*
X110620302Y-139198741D01*
X110120302Y-138841598D02*
X109548874Y-138841598D01*
X109906017Y-138341598D02*
X109906017Y-139627312D01*
X109834588Y-139770169D01*
X109691731Y-139841598D01*
X109548874Y-139841598D01*
X109048874Y-139841598D02*
X109048874Y-138841598D01*
X109048874Y-138341598D02*
X109120302Y-138413027D01*
X109048874Y-138484455D01*
X108977445Y-138413027D01*
X109048874Y-138341598D01*
X109048874Y-138484455D01*
X108120302Y-139841598D02*
X108263159Y-139770169D01*
X108334588Y-139698741D01*
X108406017Y-139555884D01*
X108406017Y-139127312D01*
X108334588Y-138984455D01*
X108263159Y-138913027D01*
X108120302Y-138841598D01*
X107906017Y-138841598D01*
X107763159Y-138913027D01*
X107691731Y-138984455D01*
X107620302Y-139127312D01*
X107620302Y-139555884D01*
X107691731Y-139698741D01*
X107763159Y-139770169D01*
X107906017Y-139841598D01*
X108120302Y-139841598D01*
X106977445Y-138841598D02*
X106977445Y-139841598D01*
X106977445Y-138984455D02*
X106906017Y-138913027D01*
X106763159Y-138841598D01*
X106548874Y-138841598D01*
X106406017Y-138913027D01*
X106334588Y-139055884D01*
X106334588Y-139841598D01*
X105620302Y-139698741D02*
X105548874Y-139770169D01*
X105620302Y-139841598D01*
X105691731Y-139770169D01*
X105620302Y-139698741D01*
X105620302Y-139841598D01*
X104906017Y-139698741D02*
X104834588Y-139770169D01*
X104906017Y-139841598D01*
X104977445Y-139770169D01*
X104906017Y-139698741D01*
X104906017Y-139841598D01*
X104191731Y-139698741D02*
X104120302Y-139770169D01*
X104191731Y-139841598D01*
X104263159Y-139770169D01*
X104191731Y-139698741D01*
X104191731Y-139841598D01*
X131243238Y-139163027D02*
G75*
G03X131243238Y-139163027I-1442221J0D01*
G01*
D11*
X104449421Y-137207407D02*
X104449421Y-136207407D01*
X103782755Y-136207407D02*
X103592278Y-136207407D01*
X103497040Y-136255027D01*
X103401802Y-136350265D01*
X103354183Y-136540741D01*
X103354183Y-136874074D01*
X103401802Y-137064550D01*
X103497040Y-137159788D01*
X103592278Y-137207407D01*
X103782755Y-137207407D01*
X103877993Y-137159788D01*
X103973231Y-137064550D01*
X104020850Y-136874074D01*
X104020850Y-136540741D01*
X103973231Y-136350265D01*
X103877993Y-136255027D01*
X103782755Y-136207407D01*
X102163707Y-136540741D02*
X102163707Y-137540741D01*
X102163707Y-136588360D02*
X102068469Y-136540741D01*
X101877993Y-136540741D01*
X101782755Y-136588360D01*
X101735136Y-136635979D01*
X101687517Y-136731217D01*
X101687517Y-137016931D01*
X101735136Y-137112169D01*
X101782755Y-137159788D01*
X101877993Y-137207407D01*
X102068469Y-137207407D01*
X102163707Y-137159788D01*
X100830374Y-136540741D02*
X100830374Y-137207407D01*
X101258945Y-136540741D02*
X101258945Y-137064550D01*
X101211326Y-137159788D01*
X101116088Y-137207407D01*
X100973231Y-137207407D01*
X100877993Y-137159788D01*
X100830374Y-137112169D01*
X100211326Y-137207407D02*
X100306564Y-137159788D01*
X100354183Y-137064550D01*
X100354183Y-136207407D01*
X99687517Y-137207407D02*
X99782755Y-137159788D01*
X99830374Y-137064550D01*
X99830374Y-136207407D01*
X99306564Y-136826455D02*
X98544659Y-136826455D01*
X97639897Y-136540741D02*
X97639897Y-137207407D01*
X98068469Y-136540741D02*
X98068469Y-137064550D01*
X98020850Y-137159788D01*
X97925612Y-137207407D01*
X97782755Y-137207407D01*
X97687517Y-137159788D01*
X97639897Y-137112169D01*
X97163707Y-136540741D02*
X97163707Y-137540741D01*
X97163707Y-136588360D02*
X97068469Y-136540741D01*
X96877993Y-136540741D01*
X96782755Y-136588360D01*
X96735136Y-136635979D01*
X96687517Y-136731217D01*
X96687517Y-137016931D01*
X96735136Y-137112169D01*
X96782755Y-137159788D01*
X96877993Y-137207407D01*
X97068469Y-137207407D01*
X97163707Y-137159788D01*
D12*
G04 #@! TO.C,J2*
X99391017Y-66651027D02*
X99391017Y-67981027D01*
X99391017Y-67981027D02*
X100721017Y-67981027D01*
X99391017Y-65381027D02*
X101991017Y-65381027D01*
X101991017Y-65381027D02*
X101991017Y-67981027D01*
X101991017Y-67981027D02*
X124911017Y-67981027D01*
X124911017Y-62781027D02*
X124911017Y-67981027D01*
X99391017Y-62781027D02*
X124911017Y-62781027D01*
X99391017Y-62781027D02*
X99391017Y-65381027D01*
G04 #@! TO.C,J1*
X99391017Y-141521027D02*
X99391017Y-144121027D01*
X99391017Y-141521027D02*
X124911017Y-141521027D01*
X124911017Y-141521027D02*
X124911017Y-146721027D01*
X101991017Y-146721027D02*
X124911017Y-146721027D01*
X101991017Y-144121027D02*
X101991017Y-146721027D01*
X99391017Y-144121027D02*
X101991017Y-144121027D01*
X99391017Y-146721027D02*
X100721017Y-146721027D01*
X99391017Y-145391027D02*
X99391017Y-146721027D01*
G04 #@! TO.C,R2*
X107898738Y-137265027D02*
X108224296Y-137265027D01*
X107898738Y-136245027D02*
X108224296Y-136245027D01*
G04 #@! TO.C,U1*
D11*
X113412921Y-70929407D02*
X113412921Y-71738931D01*
X113365302Y-71834169D01*
X113317683Y-71881788D01*
X113222445Y-71929407D01*
X113031969Y-71929407D01*
X112936731Y-71881788D01*
X112889112Y-71834169D01*
X112841493Y-71738931D01*
X112841493Y-70929407D01*
X111841493Y-71929407D02*
X112412921Y-71929407D01*
X112127207Y-71929407D02*
X112127207Y-70929407D01*
X112222445Y-71072265D01*
X112317683Y-71167503D01*
X112412921Y-71215122D01*
G04 #@! TO.C,J2*
X97403397Y-65047693D02*
X98117683Y-65047693D01*
X98260540Y-65000074D01*
X98355778Y-64904836D01*
X98403397Y-64761979D01*
X98403397Y-64666741D01*
X97498636Y-65476265D02*
X97451017Y-65523884D01*
X97403397Y-65619122D01*
X97403397Y-65857217D01*
X97451017Y-65952455D01*
X97498636Y-66000074D01*
X97593874Y-66047693D01*
X97689112Y-66047693D01*
X97831969Y-66000074D01*
X98403397Y-65428646D01*
X98403397Y-66047693D01*
G04 #@! TO.C,J1*
X97403397Y-143787693D02*
X98117683Y-143787693D01*
X98260540Y-143740074D01*
X98355778Y-143644836D01*
X98403397Y-143501979D01*
X98403397Y-143406741D01*
X98403397Y-144787693D02*
X98403397Y-144216265D01*
X98403397Y-144501979D02*
X97403397Y-144501979D01*
X97546255Y-144406741D01*
X97641493Y-144311503D01*
X97689112Y-144216265D01*
G04 #@! TO.C,R2*
X110928183Y-137207407D02*
X111261517Y-136731217D01*
X111499612Y-137207407D02*
X111499612Y-136207407D01*
X111118659Y-136207407D01*
X111023421Y-136255027D01*
X110975802Y-136302646D01*
X110928183Y-136397884D01*
X110928183Y-136540741D01*
X110975802Y-136635979D01*
X111023421Y-136683598D01*
X111118659Y-136731217D01*
X111499612Y-136731217D01*
X110547231Y-136302646D02*
X110499612Y-136255027D01*
X110404374Y-136207407D01*
X110166278Y-136207407D01*
X110071040Y-136255027D01*
X110023421Y-136302646D01*
X109975802Y-136397884D01*
X109975802Y-136493122D01*
X110023421Y-136635979D01*
X110594850Y-137207407D01*
X109975802Y-137207407D01*
G04 #@! TD*
M02*
