G04 #@! TF.GenerationSoftware,KiCad,Pcbnew,5.0.2-bee76a0~70~ubuntu18.04.1*
G04 #@! TF.CreationDate,2019-07-23T10:59:18+02:00*
G04 #@! TF.ProjectId,smartcard,736d6172-7463-4617-9264-2e6b69636164,rev?*
G04 #@! TF.SameCoordinates,Original*
G04 #@! TF.FileFunction,Copper,L1,Top*
G04 #@! TF.FilePolarity,Positive*
%FSLAX46Y46*%
G04 Gerber Fmt 4.6, Leading zero omitted, Abs format (unit mm)*
G04 Created by KiCad (PCBNEW 5.0.2-bee76a0~70~ubuntu18.04.1) date mar. 23 juil. 2019 10:59:18 CEST*
%MOMM*%
%LPD*%
G01*
G04 APERTURE LIST*
G04 #@! TA.AperFunction,ComponentPad*
%ADD10C,3.200000*%
G04 #@! TD*
G04 #@! TA.AperFunction,ComponentPad*
%ADD11C,2.000000*%
G04 #@! TD*
G04 #@! TA.AperFunction,ComponentPad*
%ADD12O,1.700000X1.700000*%
G04 #@! TD*
G04 #@! TA.AperFunction,ComponentPad*
%ADD13R,1.700000X1.700000*%
G04 #@! TD*
G04 #@! TA.AperFunction,Conductor*
%ADD14C,0.100000*%
G04 #@! TD*
G04 #@! TA.AperFunction,SMDPad,CuDef*
%ADD15C,0.875000*%
G04 #@! TD*
G04 #@! TA.AperFunction,BGAPad,CuDef*
%ADD16C,1.500000*%
G04 #@! TD*
G04 #@! TA.AperFunction,ViaPad*
%ADD17C,0.800000*%
G04 #@! TD*
G04 #@! TA.AperFunction,Conductor*
%ADD18C,0.400000*%
G04 #@! TD*
G04 APERTURE END LIST*
D10*
G04 #@! TO.P,U1,~*
G04 #@! TO.N,N/C*
X122151017Y-133011027D03*
X102151017Y-133011027D03*
X102151017Y-75011027D03*
X122151017Y-75011027D03*
D11*
G04 #@! TO.P,U1,5*
G04 #@! TO.N,GNDA*
X131201017Y-97131027D03*
G04 #@! TO.P,U1,6*
G04 #@! TO.N,Net-(U1-Pad6)*
X131201017Y-99671027D03*
G04 #@! TO.P,U1,7*
G04 #@! TO.N,/D0_IO*
X131201017Y-102211027D03*
G04 #@! TO.P,U1,8*
G04 #@! TO.N,Net-(U1-Pad8)*
X131201017Y-104751027D03*
G04 #@! TO.P,U1,1*
G04 #@! TO.N,VDDA*
X93101017Y-97131027D03*
G04 #@! TO.P,U1,2*
G04 #@! TO.N,/D1_~RST~*
X93101017Y-99671027D03*
G04 #@! TO.P,U1,3*
G04 #@! TO.N,/D2_CLK*
X93101017Y-102211027D03*
G04 #@! TO.P,U1,4*
G04 #@! TO.N,Net-(U1-Pad4)*
X93101017Y-104751027D03*
G04 #@! TO.P,U1,9*
G04 #@! TO.N,/D3_SENSE*
X93101017Y-108561027D03*
G04 #@! TO.P,U1,10*
G04 #@! TO.N,GND*
X95641017Y-108561027D03*
G04 #@! TD*
D12*
G04 #@! TO.P,J2,20*
G04 #@! TO.N,Net-(J2-Pad20)*
X123581017Y-64111027D03*
G04 #@! TO.P,J2,19*
G04 #@! TO.N,Net-(J2-Pad19)*
X123581017Y-66651027D03*
G04 #@! TO.P,J2,18*
G04 #@! TO.N,Net-(J2-Pad18)*
X121041017Y-64111027D03*
G04 #@! TO.P,J2,17*
G04 #@! TO.N,Net-(J2-Pad17)*
X121041017Y-66651027D03*
G04 #@! TO.P,J2,16*
G04 #@! TO.N,Net-(J2-Pad16)*
X118501017Y-64111027D03*
G04 #@! TO.P,J2,15*
G04 #@! TO.N,Net-(J2-Pad15)*
X118501017Y-66651027D03*
G04 #@! TO.P,J2,14*
G04 #@! TO.N,Net-(J2-Pad14)*
X115961017Y-64111027D03*
G04 #@! TO.P,J2,13*
G04 #@! TO.N,Net-(J2-Pad13)*
X115961017Y-66651027D03*
G04 #@! TO.P,J2,12*
G04 #@! TO.N,Net-(J2-Pad12)*
X113421017Y-64111027D03*
G04 #@! TO.P,J2,11*
G04 #@! TO.N,Net-(J2-Pad11)*
X113421017Y-66651027D03*
G04 #@! TO.P,J2,10*
G04 #@! TO.N,Net-(J2-Pad10)*
X110881017Y-64111027D03*
G04 #@! TO.P,J2,9*
G04 #@! TO.N,Net-(J2-Pad9)*
X110881017Y-66651027D03*
G04 #@! TO.P,J2,8*
G04 #@! TO.N,Net-(J2-Pad8)*
X108341017Y-64111027D03*
G04 #@! TO.P,J2,7*
G04 #@! TO.N,Net-(J2-Pad7)*
X108341017Y-66651027D03*
G04 #@! TO.P,J2,6*
G04 #@! TO.N,Net-(J2-Pad6)*
X105801017Y-64111027D03*
G04 #@! TO.P,J2,5*
G04 #@! TO.N,Net-(J2-Pad5)*
X105801017Y-66651027D03*
G04 #@! TO.P,J2,4*
G04 #@! TO.N,Net-(J2-Pad4)*
X103261017Y-64111027D03*
G04 #@! TO.P,J2,3*
G04 #@! TO.N,Net-(J2-Pad3)*
X103261017Y-66651027D03*
G04 #@! TO.P,J2,2*
G04 #@! TO.N,Net-(J2-Pad2)*
X100721017Y-64111027D03*
D13*
G04 #@! TO.P,J2,1*
G04 #@! TO.N,Net-(J2-Pad1)*
X100721017Y-66651027D03*
G04 #@! TD*
G04 #@! TO.P,J1,1*
G04 #@! TO.N,/D1_~RST~*
X100721017Y-145391027D03*
D12*
G04 #@! TO.P,J1,2*
G04 #@! TO.N,/D0_IO*
X100721017Y-142851027D03*
G04 #@! TO.P,J1,3*
G04 #@! TO.N,/D3_SENSE*
X103261017Y-145391027D03*
G04 #@! TO.P,J1,4*
G04 #@! TO.N,/D2_CLK*
X103261017Y-142851027D03*
G04 #@! TO.P,J1,5*
G04 #@! TO.N,Net-(J1-Pad5)*
X105801017Y-145391027D03*
G04 #@! TO.P,J1,6*
G04 #@! TO.N,Net-(J1-Pad6)*
X105801017Y-142851027D03*
G04 #@! TO.P,J1,7*
G04 #@! TO.N,Net-(J1-Pad7)*
X108341017Y-145391027D03*
G04 #@! TO.P,J1,8*
G04 #@! TO.N,Net-(J1-Pad8)*
X108341017Y-142851027D03*
G04 #@! TO.P,J1,9*
G04 #@! TO.N,Net-(J1-Pad9)*
X110881017Y-145391027D03*
G04 #@! TO.P,J1,10*
G04 #@! TO.N,Net-(J1-Pad10)*
X110881017Y-142851027D03*
G04 #@! TO.P,J1,11*
G04 #@! TO.N,Net-(J1-Pad11)*
X113421017Y-145391027D03*
G04 #@! TO.P,J1,12*
G04 #@! TO.N,Net-(J1-Pad12)*
X113421017Y-142851027D03*
G04 #@! TO.P,J1,13*
G04 #@! TO.N,Net-(J1-Pad13)*
X115961017Y-145391027D03*
G04 #@! TO.P,J1,14*
G04 #@! TO.N,Net-(J1-Pad14)*
X115961017Y-142851027D03*
G04 #@! TO.P,J1,15*
G04 #@! TO.N,Net-(J1-Pad15)*
X118501017Y-145391027D03*
G04 #@! TO.P,J1,16*
G04 #@! TO.N,Net-(J1-Pad16)*
X118501017Y-142851027D03*
G04 #@! TO.P,J1,17*
G04 #@! TO.N,GND*
X121041017Y-145391027D03*
G04 #@! TO.P,J1,18*
G04 #@! TO.N,VDD*
X121041017Y-142851027D03*
G04 #@! TO.P,J1,19*
G04 #@! TO.N,GNDA*
X123581017Y-145391027D03*
G04 #@! TO.P,J1,20*
G04 #@! TO.N,VDDA*
X123581017Y-142851027D03*
G04 #@! TD*
D14*
G04 #@! TO.N,VDD*
G04 #@! TO.C,R1*
G36*
X93378708Y-112382080D02*
X93399943Y-112385230D01*
X93420767Y-112390446D01*
X93440979Y-112397678D01*
X93460385Y-112406857D01*
X93478798Y-112417893D01*
X93496041Y-112430681D01*
X93511947Y-112445097D01*
X93526363Y-112461003D01*
X93539151Y-112478246D01*
X93550187Y-112496659D01*
X93559366Y-112516065D01*
X93566598Y-112536277D01*
X93571814Y-112557101D01*
X93574964Y-112578336D01*
X93576017Y-112599777D01*
X93576017Y-113037277D01*
X93574964Y-113058718D01*
X93571814Y-113079953D01*
X93566598Y-113100777D01*
X93559366Y-113120989D01*
X93550187Y-113140395D01*
X93539151Y-113158808D01*
X93526363Y-113176051D01*
X93511947Y-113191957D01*
X93496041Y-113206373D01*
X93478798Y-113219161D01*
X93460385Y-113230197D01*
X93440979Y-113239376D01*
X93420767Y-113246608D01*
X93399943Y-113251824D01*
X93378708Y-113254974D01*
X93357267Y-113256027D01*
X92844767Y-113256027D01*
X92823326Y-113254974D01*
X92802091Y-113251824D01*
X92781267Y-113246608D01*
X92761055Y-113239376D01*
X92741649Y-113230197D01*
X92723236Y-113219161D01*
X92705993Y-113206373D01*
X92690087Y-113191957D01*
X92675671Y-113176051D01*
X92662883Y-113158808D01*
X92651847Y-113140395D01*
X92642668Y-113120989D01*
X92635436Y-113100777D01*
X92630220Y-113079953D01*
X92627070Y-113058718D01*
X92626017Y-113037277D01*
X92626017Y-112599777D01*
X92627070Y-112578336D01*
X92630220Y-112557101D01*
X92635436Y-112536277D01*
X92642668Y-112516065D01*
X92651847Y-112496659D01*
X92662883Y-112478246D01*
X92675671Y-112461003D01*
X92690087Y-112445097D01*
X92705993Y-112430681D01*
X92723236Y-112417893D01*
X92741649Y-112406857D01*
X92761055Y-112397678D01*
X92781267Y-112390446D01*
X92802091Y-112385230D01*
X92823326Y-112382080D01*
X92844767Y-112381027D01*
X93357267Y-112381027D01*
X93378708Y-112382080D01*
X93378708Y-112382080D01*
G37*
D15*
G04 #@! TD*
G04 #@! TO.P,R1,1*
G04 #@! TO.N,VDD*
X93101017Y-112818527D03*
D14*
G04 #@! TO.N,/D3_SENSE*
G04 #@! TO.C,R1*
G36*
X93378708Y-110807080D02*
X93399943Y-110810230D01*
X93420767Y-110815446D01*
X93440979Y-110822678D01*
X93460385Y-110831857D01*
X93478798Y-110842893D01*
X93496041Y-110855681D01*
X93511947Y-110870097D01*
X93526363Y-110886003D01*
X93539151Y-110903246D01*
X93550187Y-110921659D01*
X93559366Y-110941065D01*
X93566598Y-110961277D01*
X93571814Y-110982101D01*
X93574964Y-111003336D01*
X93576017Y-111024777D01*
X93576017Y-111462277D01*
X93574964Y-111483718D01*
X93571814Y-111504953D01*
X93566598Y-111525777D01*
X93559366Y-111545989D01*
X93550187Y-111565395D01*
X93539151Y-111583808D01*
X93526363Y-111601051D01*
X93511947Y-111616957D01*
X93496041Y-111631373D01*
X93478798Y-111644161D01*
X93460385Y-111655197D01*
X93440979Y-111664376D01*
X93420767Y-111671608D01*
X93399943Y-111676824D01*
X93378708Y-111679974D01*
X93357267Y-111681027D01*
X92844767Y-111681027D01*
X92823326Y-111679974D01*
X92802091Y-111676824D01*
X92781267Y-111671608D01*
X92761055Y-111664376D01*
X92741649Y-111655197D01*
X92723236Y-111644161D01*
X92705993Y-111631373D01*
X92690087Y-111616957D01*
X92675671Y-111601051D01*
X92662883Y-111583808D01*
X92651847Y-111565395D01*
X92642668Y-111545989D01*
X92635436Y-111525777D01*
X92630220Y-111504953D01*
X92627070Y-111483718D01*
X92626017Y-111462277D01*
X92626017Y-111024777D01*
X92627070Y-111003336D01*
X92630220Y-110982101D01*
X92635436Y-110961277D01*
X92642668Y-110941065D01*
X92651847Y-110921659D01*
X92662883Y-110903246D01*
X92675671Y-110886003D01*
X92690087Y-110870097D01*
X92705993Y-110855681D01*
X92723236Y-110842893D01*
X92741649Y-110831857D01*
X92761055Y-110822678D01*
X92781267Y-110815446D01*
X92802091Y-110810230D01*
X92823326Y-110807080D01*
X92844767Y-110806027D01*
X93357267Y-110806027D01*
X93378708Y-110807080D01*
X93378708Y-110807080D01*
G37*
D15*
G04 #@! TD*
G04 #@! TO.P,R1,2*
G04 #@! TO.N,/D3_SENSE*
X93101017Y-111243527D03*
D16*
G04 #@! TO.P,TP20,1*
G04 #@! TO.N,/D2_CLK*
X95641017Y-102211027D03*
G04 #@! TD*
G04 #@! TO.P,TP21,1*
G04 #@! TO.N,/D0_IO*
X128661017Y-102211027D03*
G04 #@! TD*
G04 #@! TO.P,TP19,1*
G04 #@! TO.N,/D1_~RST~*
X95641017Y-99671027D03*
G04 #@! TD*
G04 #@! TO.P,TP33,1*
G04 #@! TO.N,VDDA*
X95641017Y-97131027D03*
G04 #@! TD*
G04 #@! TO.P,TP18,1*
G04 #@! TO.N,GNDA*
X128661017Y-97131027D03*
G04 #@! TD*
D17*
G04 #@! TO.N,GND*
X95679027Y-114403027D03*
G04 #@! TO.N,/D0_IO*
X125901017Y-104831027D03*
X105547017Y-136755027D03*
G04 #@! TO.N,/D1_~RST~*
X97673017Y-139549027D03*
G04 #@! TO.N,VDD*
X96441027Y-115927027D03*
G04 #@! TD*
D18*
G04 #@! TO.N,GNDA*
X131201017Y-97131027D02*
X128661017Y-97131027D01*
G04 #@! TO.N,GND*
X95641017Y-114365017D02*
X95679027Y-114403027D01*
X95641017Y-108561027D02*
X95641017Y-114365017D01*
G04 #@! TO.N,/D0_IO*
X128661017Y-102211027D02*
X131201017Y-102211027D01*
X131201017Y-102211027D02*
X128521017Y-102211027D01*
X128521017Y-102211027D02*
X125901017Y-104831027D01*
X101281017Y-142851027D02*
X100721017Y-142851027D01*
X101483017Y-142851027D02*
X100721017Y-142851027D01*
X100721017Y-141581027D02*
X100721017Y-142851027D01*
X105547017Y-136755027D02*
X100721017Y-141581027D01*
G04 #@! TO.N,/D2_CLK*
X95641017Y-102211027D02*
X93101017Y-102211027D01*
G04 #@! TO.N,/D1_~RST~*
X93101017Y-99671027D02*
X95641017Y-99671027D01*
X99471017Y-145391027D02*
X100721017Y-145391027D01*
X97673017Y-143593027D02*
X99471017Y-145391027D01*
X97673017Y-139549027D02*
X97673017Y-143593027D01*
G04 #@! TO.N,/D3_SENSE*
X93101017Y-109043527D02*
X93101017Y-108561027D01*
X93101017Y-108561027D02*
X93101017Y-111243527D01*
G04 #@! TO.N,VDDA*
X95641017Y-97131027D02*
X93101017Y-97131027D01*
G04 #@! TO.N,VDD*
X95875342Y-115927027D02*
X96441027Y-115927027D01*
X93101017Y-113356027D02*
X95672017Y-115927027D01*
X95672017Y-115927027D02*
X95875342Y-115927027D01*
X93101017Y-112818527D02*
X93101017Y-113356027D01*
G04 #@! TD*
M02*
