G04 #@! TF.GenerationSoftware,KiCad,Pcbnew,5.0.2-bee76a0~70~ubuntu18.04.1*
G04 #@! TF.CreationDate,2019-07-23T10:59:18+02:00*
G04 #@! TF.ProjectId,smartcard,736d6172-7463-4617-9264-2e6b69636164,rev?*
G04 #@! TF.SameCoordinates,Original*
G04 #@! TF.FileFunction,Soldermask,Bot*
G04 #@! TF.FilePolarity,Negative*
%FSLAX46Y46*%
G04 Gerber Fmt 4.6, Leading zero omitted, Abs format (unit mm)*
G04 Created by KiCad (PCBNEW 5.0.2-bee76a0~70~ubuntu18.04.1) date mar. 23 juil. 2019 10:59:18 CEST*
%MOMM*%
%LPD*%
G01*
G04 APERTURE LIST*
%ADD10C,0.100000*%
G04 APERTURE END LIST*
D10*
G36*
X101771017Y-146441027D02*
X99671017Y-146441027D01*
X99671017Y-144341027D01*
X101771017Y-144341027D01*
X101771017Y-146441027D01*
X101771017Y-146441027D01*
G37*
G36*
X103389724Y-144348623D02*
X103466853Y-144356220D01*
X103598804Y-144396247D01*
X103664780Y-144416260D01*
X103847189Y-144513760D01*
X104007071Y-144644973D01*
X104138284Y-144804855D01*
X104235784Y-144987264D01*
X104235784Y-144987265D01*
X104295824Y-145185191D01*
X104316097Y-145391027D01*
X104295824Y-145596863D01*
X104255797Y-145728814D01*
X104235784Y-145794790D01*
X104138284Y-145977199D01*
X104007071Y-146137081D01*
X103847189Y-146268294D01*
X103664780Y-146365794D01*
X103598804Y-146385807D01*
X103466853Y-146425834D01*
X103389724Y-146433431D01*
X103312597Y-146441027D01*
X103209437Y-146441027D01*
X103132310Y-146433431D01*
X103055181Y-146425834D01*
X102923230Y-146385807D01*
X102857254Y-146365794D01*
X102674845Y-146268294D01*
X102514963Y-146137081D01*
X102383750Y-145977199D01*
X102286250Y-145794790D01*
X102266237Y-145728814D01*
X102226210Y-145596863D01*
X102205937Y-145391027D01*
X102226210Y-145185191D01*
X102286250Y-144987265D01*
X102286250Y-144987264D01*
X102383750Y-144804855D01*
X102514963Y-144644973D01*
X102674845Y-144513760D01*
X102857254Y-144416260D01*
X102923230Y-144396247D01*
X103055181Y-144356220D01*
X103132310Y-144348623D01*
X103209437Y-144341027D01*
X103312597Y-144341027D01*
X103389724Y-144348623D01*
X103389724Y-144348623D01*
G37*
G36*
X105929724Y-144348623D02*
X106006853Y-144356220D01*
X106138804Y-144396247D01*
X106204780Y-144416260D01*
X106387189Y-144513760D01*
X106547071Y-144644973D01*
X106678284Y-144804855D01*
X106775784Y-144987264D01*
X106775784Y-144987265D01*
X106835824Y-145185191D01*
X106856097Y-145391027D01*
X106835824Y-145596863D01*
X106795797Y-145728814D01*
X106775784Y-145794790D01*
X106678284Y-145977199D01*
X106547071Y-146137081D01*
X106387189Y-146268294D01*
X106204780Y-146365794D01*
X106138804Y-146385807D01*
X106006853Y-146425834D01*
X105929724Y-146433431D01*
X105852597Y-146441027D01*
X105749437Y-146441027D01*
X105672310Y-146433431D01*
X105595181Y-146425834D01*
X105463230Y-146385807D01*
X105397254Y-146365794D01*
X105214845Y-146268294D01*
X105054963Y-146137081D01*
X104923750Y-145977199D01*
X104826250Y-145794790D01*
X104806237Y-145728814D01*
X104766210Y-145596863D01*
X104745937Y-145391027D01*
X104766210Y-145185191D01*
X104826250Y-144987265D01*
X104826250Y-144987264D01*
X104923750Y-144804855D01*
X105054963Y-144644973D01*
X105214845Y-144513760D01*
X105397254Y-144416260D01*
X105463230Y-144396247D01*
X105595181Y-144356220D01*
X105672310Y-144348623D01*
X105749437Y-144341027D01*
X105852597Y-144341027D01*
X105929724Y-144348623D01*
X105929724Y-144348623D01*
G37*
G36*
X108469724Y-144348623D02*
X108546853Y-144356220D01*
X108678804Y-144396247D01*
X108744780Y-144416260D01*
X108927189Y-144513760D01*
X109087071Y-144644973D01*
X109218284Y-144804855D01*
X109315784Y-144987264D01*
X109315784Y-144987265D01*
X109375824Y-145185191D01*
X109396097Y-145391027D01*
X109375824Y-145596863D01*
X109335797Y-145728814D01*
X109315784Y-145794790D01*
X109218284Y-145977199D01*
X109087071Y-146137081D01*
X108927189Y-146268294D01*
X108744780Y-146365794D01*
X108678804Y-146385807D01*
X108546853Y-146425834D01*
X108469724Y-146433431D01*
X108392597Y-146441027D01*
X108289437Y-146441027D01*
X108212310Y-146433431D01*
X108135181Y-146425834D01*
X108003230Y-146385807D01*
X107937254Y-146365794D01*
X107754845Y-146268294D01*
X107594963Y-146137081D01*
X107463750Y-145977199D01*
X107366250Y-145794790D01*
X107346237Y-145728814D01*
X107306210Y-145596863D01*
X107285937Y-145391027D01*
X107306210Y-145185191D01*
X107366250Y-144987265D01*
X107366250Y-144987264D01*
X107463750Y-144804855D01*
X107594963Y-144644973D01*
X107754845Y-144513760D01*
X107937254Y-144416260D01*
X108003230Y-144396247D01*
X108135181Y-144356220D01*
X108212310Y-144348623D01*
X108289437Y-144341027D01*
X108392597Y-144341027D01*
X108469724Y-144348623D01*
X108469724Y-144348623D01*
G37*
G36*
X111009724Y-144348623D02*
X111086853Y-144356220D01*
X111218804Y-144396247D01*
X111284780Y-144416260D01*
X111467189Y-144513760D01*
X111627071Y-144644973D01*
X111758284Y-144804855D01*
X111855784Y-144987264D01*
X111855784Y-144987265D01*
X111915824Y-145185191D01*
X111936097Y-145391027D01*
X111915824Y-145596863D01*
X111875797Y-145728814D01*
X111855784Y-145794790D01*
X111758284Y-145977199D01*
X111627071Y-146137081D01*
X111467189Y-146268294D01*
X111284780Y-146365794D01*
X111218804Y-146385807D01*
X111086853Y-146425834D01*
X111009724Y-146433431D01*
X110932597Y-146441027D01*
X110829437Y-146441027D01*
X110752310Y-146433431D01*
X110675181Y-146425834D01*
X110543230Y-146385807D01*
X110477254Y-146365794D01*
X110294845Y-146268294D01*
X110134963Y-146137081D01*
X110003750Y-145977199D01*
X109906250Y-145794790D01*
X109886237Y-145728814D01*
X109846210Y-145596863D01*
X109825937Y-145391027D01*
X109846210Y-145185191D01*
X109906250Y-144987265D01*
X109906250Y-144987264D01*
X110003750Y-144804855D01*
X110134963Y-144644973D01*
X110294845Y-144513760D01*
X110477254Y-144416260D01*
X110543230Y-144396247D01*
X110675181Y-144356220D01*
X110752310Y-144348623D01*
X110829437Y-144341027D01*
X110932597Y-144341027D01*
X111009724Y-144348623D01*
X111009724Y-144348623D01*
G37*
G36*
X113549724Y-144348623D02*
X113626853Y-144356220D01*
X113758804Y-144396247D01*
X113824780Y-144416260D01*
X114007189Y-144513760D01*
X114167071Y-144644973D01*
X114298284Y-144804855D01*
X114395784Y-144987264D01*
X114395784Y-144987265D01*
X114455824Y-145185191D01*
X114476097Y-145391027D01*
X114455824Y-145596863D01*
X114415797Y-145728814D01*
X114395784Y-145794790D01*
X114298284Y-145977199D01*
X114167071Y-146137081D01*
X114007189Y-146268294D01*
X113824780Y-146365794D01*
X113758804Y-146385807D01*
X113626853Y-146425834D01*
X113549724Y-146433431D01*
X113472597Y-146441027D01*
X113369437Y-146441027D01*
X113292310Y-146433431D01*
X113215181Y-146425834D01*
X113083230Y-146385807D01*
X113017254Y-146365794D01*
X112834845Y-146268294D01*
X112674963Y-146137081D01*
X112543750Y-145977199D01*
X112446250Y-145794790D01*
X112426237Y-145728814D01*
X112386210Y-145596863D01*
X112365937Y-145391027D01*
X112386210Y-145185191D01*
X112446250Y-144987265D01*
X112446250Y-144987264D01*
X112543750Y-144804855D01*
X112674963Y-144644973D01*
X112834845Y-144513760D01*
X113017254Y-144416260D01*
X113083230Y-144396247D01*
X113215181Y-144356220D01*
X113292310Y-144348623D01*
X113369437Y-144341027D01*
X113472597Y-144341027D01*
X113549724Y-144348623D01*
X113549724Y-144348623D01*
G37*
G36*
X116089724Y-144348623D02*
X116166853Y-144356220D01*
X116298804Y-144396247D01*
X116364780Y-144416260D01*
X116547189Y-144513760D01*
X116707071Y-144644973D01*
X116838284Y-144804855D01*
X116935784Y-144987264D01*
X116935784Y-144987265D01*
X116995824Y-145185191D01*
X117016097Y-145391027D01*
X116995824Y-145596863D01*
X116955797Y-145728814D01*
X116935784Y-145794790D01*
X116838284Y-145977199D01*
X116707071Y-146137081D01*
X116547189Y-146268294D01*
X116364780Y-146365794D01*
X116298804Y-146385807D01*
X116166853Y-146425834D01*
X116089724Y-146433431D01*
X116012597Y-146441027D01*
X115909437Y-146441027D01*
X115832310Y-146433431D01*
X115755181Y-146425834D01*
X115623230Y-146385807D01*
X115557254Y-146365794D01*
X115374845Y-146268294D01*
X115214963Y-146137081D01*
X115083750Y-145977199D01*
X114986250Y-145794790D01*
X114966237Y-145728814D01*
X114926210Y-145596863D01*
X114905937Y-145391027D01*
X114926210Y-145185191D01*
X114986250Y-144987265D01*
X114986250Y-144987264D01*
X115083750Y-144804855D01*
X115214963Y-144644973D01*
X115374845Y-144513760D01*
X115557254Y-144416260D01*
X115623230Y-144396247D01*
X115755181Y-144356220D01*
X115832310Y-144348623D01*
X115909437Y-144341027D01*
X116012597Y-144341027D01*
X116089724Y-144348623D01*
X116089724Y-144348623D01*
G37*
G36*
X118629724Y-144348623D02*
X118706853Y-144356220D01*
X118838804Y-144396247D01*
X118904780Y-144416260D01*
X119087189Y-144513760D01*
X119247071Y-144644973D01*
X119378284Y-144804855D01*
X119475784Y-144987264D01*
X119475784Y-144987265D01*
X119535824Y-145185191D01*
X119556097Y-145391027D01*
X119535824Y-145596863D01*
X119495797Y-145728814D01*
X119475784Y-145794790D01*
X119378284Y-145977199D01*
X119247071Y-146137081D01*
X119087189Y-146268294D01*
X118904780Y-146365794D01*
X118838804Y-146385807D01*
X118706853Y-146425834D01*
X118629724Y-146433431D01*
X118552597Y-146441027D01*
X118449437Y-146441027D01*
X118372310Y-146433431D01*
X118295181Y-146425834D01*
X118163230Y-146385807D01*
X118097254Y-146365794D01*
X117914845Y-146268294D01*
X117754963Y-146137081D01*
X117623750Y-145977199D01*
X117526250Y-145794790D01*
X117506237Y-145728814D01*
X117466210Y-145596863D01*
X117445937Y-145391027D01*
X117466210Y-145185191D01*
X117526250Y-144987265D01*
X117526250Y-144987264D01*
X117623750Y-144804855D01*
X117754963Y-144644973D01*
X117914845Y-144513760D01*
X118097254Y-144416260D01*
X118163230Y-144396247D01*
X118295181Y-144356220D01*
X118372310Y-144348623D01*
X118449437Y-144341027D01*
X118552597Y-144341027D01*
X118629724Y-144348623D01*
X118629724Y-144348623D01*
G37*
G36*
X123709724Y-144348623D02*
X123786853Y-144356220D01*
X123918804Y-144396247D01*
X123984780Y-144416260D01*
X124167189Y-144513760D01*
X124327071Y-144644973D01*
X124458284Y-144804855D01*
X124555784Y-144987264D01*
X124555784Y-144987265D01*
X124615824Y-145185191D01*
X124636097Y-145391027D01*
X124615824Y-145596863D01*
X124575797Y-145728814D01*
X124555784Y-145794790D01*
X124458284Y-145977199D01*
X124327071Y-146137081D01*
X124167189Y-146268294D01*
X123984780Y-146365794D01*
X123918804Y-146385807D01*
X123786853Y-146425834D01*
X123709724Y-146433431D01*
X123632597Y-146441027D01*
X123529437Y-146441027D01*
X123452310Y-146433431D01*
X123375181Y-146425834D01*
X123243230Y-146385807D01*
X123177254Y-146365794D01*
X122994845Y-146268294D01*
X122834963Y-146137081D01*
X122703750Y-145977199D01*
X122606250Y-145794790D01*
X122586237Y-145728814D01*
X122546210Y-145596863D01*
X122525937Y-145391027D01*
X122546210Y-145185191D01*
X122606250Y-144987265D01*
X122606250Y-144987264D01*
X122703750Y-144804855D01*
X122834963Y-144644973D01*
X122994845Y-144513760D01*
X123177254Y-144416260D01*
X123243230Y-144396247D01*
X123375181Y-144356220D01*
X123452310Y-144348623D01*
X123529437Y-144341027D01*
X123632597Y-144341027D01*
X123709724Y-144348623D01*
X123709724Y-144348623D01*
G37*
G36*
X121169724Y-144348623D02*
X121246853Y-144356220D01*
X121378804Y-144396247D01*
X121444780Y-144416260D01*
X121627189Y-144513760D01*
X121787071Y-144644973D01*
X121918284Y-144804855D01*
X122015784Y-144987264D01*
X122015784Y-144987265D01*
X122075824Y-145185191D01*
X122096097Y-145391027D01*
X122075824Y-145596863D01*
X122035797Y-145728814D01*
X122015784Y-145794790D01*
X121918284Y-145977199D01*
X121787071Y-146137081D01*
X121627189Y-146268294D01*
X121444780Y-146365794D01*
X121378804Y-146385807D01*
X121246853Y-146425834D01*
X121169724Y-146433431D01*
X121092597Y-146441027D01*
X120989437Y-146441027D01*
X120912310Y-146433431D01*
X120835181Y-146425834D01*
X120703230Y-146385807D01*
X120637254Y-146365794D01*
X120454845Y-146268294D01*
X120294963Y-146137081D01*
X120163750Y-145977199D01*
X120066250Y-145794790D01*
X120046237Y-145728814D01*
X120006210Y-145596863D01*
X119985937Y-145391027D01*
X120006210Y-145185191D01*
X120066250Y-144987265D01*
X120066250Y-144987264D01*
X120163750Y-144804855D01*
X120294963Y-144644973D01*
X120454845Y-144513760D01*
X120637254Y-144416260D01*
X120703230Y-144396247D01*
X120835181Y-144356220D01*
X120912310Y-144348623D01*
X120989437Y-144341027D01*
X121092597Y-144341027D01*
X121169724Y-144348623D01*
X121169724Y-144348623D01*
G37*
G36*
X105929724Y-141808623D02*
X106006853Y-141816220D01*
X106138804Y-141856247D01*
X106204780Y-141876260D01*
X106387189Y-141973760D01*
X106547071Y-142104973D01*
X106678284Y-142264855D01*
X106775784Y-142447264D01*
X106775784Y-142447265D01*
X106835824Y-142645191D01*
X106856097Y-142851027D01*
X106835824Y-143056863D01*
X106795797Y-143188814D01*
X106775784Y-143254790D01*
X106678284Y-143437199D01*
X106547071Y-143597081D01*
X106387189Y-143728294D01*
X106204780Y-143825794D01*
X106138804Y-143845807D01*
X106006853Y-143885834D01*
X105929724Y-143893430D01*
X105852597Y-143901027D01*
X105749437Y-143901027D01*
X105672310Y-143893430D01*
X105595181Y-143885834D01*
X105463230Y-143845807D01*
X105397254Y-143825794D01*
X105214845Y-143728294D01*
X105054963Y-143597081D01*
X104923750Y-143437199D01*
X104826250Y-143254790D01*
X104806237Y-143188814D01*
X104766210Y-143056863D01*
X104745937Y-142851027D01*
X104766210Y-142645191D01*
X104826250Y-142447265D01*
X104826250Y-142447264D01*
X104923750Y-142264855D01*
X105054963Y-142104973D01*
X105214845Y-141973760D01*
X105397254Y-141876260D01*
X105463230Y-141856247D01*
X105595181Y-141816220D01*
X105672310Y-141808623D01*
X105749437Y-141801027D01*
X105852597Y-141801027D01*
X105929724Y-141808623D01*
X105929724Y-141808623D01*
G37*
G36*
X123709724Y-141808623D02*
X123786853Y-141816220D01*
X123918804Y-141856247D01*
X123984780Y-141876260D01*
X124167189Y-141973760D01*
X124327071Y-142104973D01*
X124458284Y-142264855D01*
X124555784Y-142447264D01*
X124555784Y-142447265D01*
X124615824Y-142645191D01*
X124636097Y-142851027D01*
X124615824Y-143056863D01*
X124575797Y-143188814D01*
X124555784Y-143254790D01*
X124458284Y-143437199D01*
X124327071Y-143597081D01*
X124167189Y-143728294D01*
X123984780Y-143825794D01*
X123918804Y-143845807D01*
X123786853Y-143885834D01*
X123709724Y-143893430D01*
X123632597Y-143901027D01*
X123529437Y-143901027D01*
X123452310Y-143893430D01*
X123375181Y-143885834D01*
X123243230Y-143845807D01*
X123177254Y-143825794D01*
X122994845Y-143728294D01*
X122834963Y-143597081D01*
X122703750Y-143437199D01*
X122606250Y-143254790D01*
X122586237Y-143188814D01*
X122546210Y-143056863D01*
X122525937Y-142851027D01*
X122546210Y-142645191D01*
X122606250Y-142447265D01*
X122606250Y-142447264D01*
X122703750Y-142264855D01*
X122834963Y-142104973D01*
X122994845Y-141973760D01*
X123177254Y-141876260D01*
X123243230Y-141856247D01*
X123375181Y-141816220D01*
X123452310Y-141808623D01*
X123529437Y-141801027D01*
X123632597Y-141801027D01*
X123709724Y-141808623D01*
X123709724Y-141808623D01*
G37*
G36*
X121169724Y-141808623D02*
X121246853Y-141816220D01*
X121378804Y-141856247D01*
X121444780Y-141876260D01*
X121627189Y-141973760D01*
X121787071Y-142104973D01*
X121918284Y-142264855D01*
X122015784Y-142447264D01*
X122015784Y-142447265D01*
X122075824Y-142645191D01*
X122096097Y-142851027D01*
X122075824Y-143056863D01*
X122035797Y-143188814D01*
X122015784Y-143254790D01*
X121918284Y-143437199D01*
X121787071Y-143597081D01*
X121627189Y-143728294D01*
X121444780Y-143825794D01*
X121378804Y-143845807D01*
X121246853Y-143885834D01*
X121169724Y-143893430D01*
X121092597Y-143901027D01*
X120989437Y-143901027D01*
X120912310Y-143893430D01*
X120835181Y-143885834D01*
X120703230Y-143845807D01*
X120637254Y-143825794D01*
X120454845Y-143728294D01*
X120294963Y-143597081D01*
X120163750Y-143437199D01*
X120066250Y-143254790D01*
X120046237Y-143188814D01*
X120006210Y-143056863D01*
X119985937Y-142851027D01*
X120006210Y-142645191D01*
X120066250Y-142447265D01*
X120066250Y-142447264D01*
X120163750Y-142264855D01*
X120294963Y-142104973D01*
X120454845Y-141973760D01*
X120637254Y-141876260D01*
X120703230Y-141856247D01*
X120835181Y-141816220D01*
X120912310Y-141808623D01*
X120989437Y-141801027D01*
X121092597Y-141801027D01*
X121169724Y-141808623D01*
X121169724Y-141808623D01*
G37*
G36*
X118629724Y-141808623D02*
X118706853Y-141816220D01*
X118838804Y-141856247D01*
X118904780Y-141876260D01*
X119087189Y-141973760D01*
X119247071Y-142104973D01*
X119378284Y-142264855D01*
X119475784Y-142447264D01*
X119475784Y-142447265D01*
X119535824Y-142645191D01*
X119556097Y-142851027D01*
X119535824Y-143056863D01*
X119495797Y-143188814D01*
X119475784Y-143254790D01*
X119378284Y-143437199D01*
X119247071Y-143597081D01*
X119087189Y-143728294D01*
X118904780Y-143825794D01*
X118838804Y-143845807D01*
X118706853Y-143885834D01*
X118629724Y-143893430D01*
X118552597Y-143901027D01*
X118449437Y-143901027D01*
X118372310Y-143893430D01*
X118295181Y-143885834D01*
X118163230Y-143845807D01*
X118097254Y-143825794D01*
X117914845Y-143728294D01*
X117754963Y-143597081D01*
X117623750Y-143437199D01*
X117526250Y-143254790D01*
X117506237Y-143188814D01*
X117466210Y-143056863D01*
X117445937Y-142851027D01*
X117466210Y-142645191D01*
X117526250Y-142447265D01*
X117526250Y-142447264D01*
X117623750Y-142264855D01*
X117754963Y-142104973D01*
X117914845Y-141973760D01*
X118097254Y-141876260D01*
X118163230Y-141856247D01*
X118295181Y-141816220D01*
X118372310Y-141808623D01*
X118449437Y-141801027D01*
X118552597Y-141801027D01*
X118629724Y-141808623D01*
X118629724Y-141808623D01*
G37*
G36*
X113549724Y-141808623D02*
X113626853Y-141816220D01*
X113758804Y-141856247D01*
X113824780Y-141876260D01*
X114007189Y-141973760D01*
X114167071Y-142104973D01*
X114298284Y-142264855D01*
X114395784Y-142447264D01*
X114395784Y-142447265D01*
X114455824Y-142645191D01*
X114476097Y-142851027D01*
X114455824Y-143056863D01*
X114415797Y-143188814D01*
X114395784Y-143254790D01*
X114298284Y-143437199D01*
X114167071Y-143597081D01*
X114007189Y-143728294D01*
X113824780Y-143825794D01*
X113758804Y-143845807D01*
X113626853Y-143885834D01*
X113549724Y-143893430D01*
X113472597Y-143901027D01*
X113369437Y-143901027D01*
X113292310Y-143893430D01*
X113215181Y-143885834D01*
X113083230Y-143845807D01*
X113017254Y-143825794D01*
X112834845Y-143728294D01*
X112674963Y-143597081D01*
X112543750Y-143437199D01*
X112446250Y-143254790D01*
X112426237Y-143188814D01*
X112386210Y-143056863D01*
X112365937Y-142851027D01*
X112386210Y-142645191D01*
X112446250Y-142447265D01*
X112446250Y-142447264D01*
X112543750Y-142264855D01*
X112674963Y-142104973D01*
X112834845Y-141973760D01*
X113017254Y-141876260D01*
X113083230Y-141856247D01*
X113215181Y-141816220D01*
X113292310Y-141808623D01*
X113369437Y-141801027D01*
X113472597Y-141801027D01*
X113549724Y-141808623D01*
X113549724Y-141808623D01*
G37*
G36*
X111009724Y-141808623D02*
X111086853Y-141816220D01*
X111218804Y-141856247D01*
X111284780Y-141876260D01*
X111467189Y-141973760D01*
X111627071Y-142104973D01*
X111758284Y-142264855D01*
X111855784Y-142447264D01*
X111855784Y-142447265D01*
X111915824Y-142645191D01*
X111936097Y-142851027D01*
X111915824Y-143056863D01*
X111875797Y-143188814D01*
X111855784Y-143254790D01*
X111758284Y-143437199D01*
X111627071Y-143597081D01*
X111467189Y-143728294D01*
X111284780Y-143825794D01*
X111218804Y-143845807D01*
X111086853Y-143885834D01*
X111009724Y-143893430D01*
X110932597Y-143901027D01*
X110829437Y-143901027D01*
X110752310Y-143893430D01*
X110675181Y-143885834D01*
X110543230Y-143845807D01*
X110477254Y-143825794D01*
X110294845Y-143728294D01*
X110134963Y-143597081D01*
X110003750Y-143437199D01*
X109906250Y-143254790D01*
X109886237Y-143188814D01*
X109846210Y-143056863D01*
X109825937Y-142851027D01*
X109846210Y-142645191D01*
X109906250Y-142447265D01*
X109906250Y-142447264D01*
X110003750Y-142264855D01*
X110134963Y-142104973D01*
X110294845Y-141973760D01*
X110477254Y-141876260D01*
X110543230Y-141856247D01*
X110675181Y-141816220D01*
X110752310Y-141808623D01*
X110829437Y-141801027D01*
X110932597Y-141801027D01*
X111009724Y-141808623D01*
X111009724Y-141808623D01*
G37*
G36*
X108469724Y-141808623D02*
X108546853Y-141816220D01*
X108678804Y-141856247D01*
X108744780Y-141876260D01*
X108927189Y-141973760D01*
X109087071Y-142104973D01*
X109218284Y-142264855D01*
X109315784Y-142447264D01*
X109315784Y-142447265D01*
X109375824Y-142645191D01*
X109396097Y-142851027D01*
X109375824Y-143056863D01*
X109335797Y-143188814D01*
X109315784Y-143254790D01*
X109218284Y-143437199D01*
X109087071Y-143597081D01*
X108927189Y-143728294D01*
X108744780Y-143825794D01*
X108678804Y-143845807D01*
X108546853Y-143885834D01*
X108469724Y-143893430D01*
X108392597Y-143901027D01*
X108289437Y-143901027D01*
X108212310Y-143893430D01*
X108135181Y-143885834D01*
X108003230Y-143845807D01*
X107937254Y-143825794D01*
X107754845Y-143728294D01*
X107594963Y-143597081D01*
X107463750Y-143437199D01*
X107366250Y-143254790D01*
X107346237Y-143188814D01*
X107306210Y-143056863D01*
X107285937Y-142851027D01*
X107306210Y-142645191D01*
X107366250Y-142447265D01*
X107366250Y-142447264D01*
X107463750Y-142264855D01*
X107594963Y-142104973D01*
X107754845Y-141973760D01*
X107937254Y-141876260D01*
X108003230Y-141856247D01*
X108135181Y-141816220D01*
X108212310Y-141808623D01*
X108289437Y-141801027D01*
X108392597Y-141801027D01*
X108469724Y-141808623D01*
X108469724Y-141808623D01*
G37*
G36*
X103389724Y-141808623D02*
X103466853Y-141816220D01*
X103598804Y-141856247D01*
X103664780Y-141876260D01*
X103847189Y-141973760D01*
X104007071Y-142104973D01*
X104138284Y-142264855D01*
X104235784Y-142447264D01*
X104235784Y-142447265D01*
X104295824Y-142645191D01*
X104316097Y-142851027D01*
X104295824Y-143056863D01*
X104255797Y-143188814D01*
X104235784Y-143254790D01*
X104138284Y-143437199D01*
X104007071Y-143597081D01*
X103847189Y-143728294D01*
X103664780Y-143825794D01*
X103598804Y-143845807D01*
X103466853Y-143885834D01*
X103389724Y-143893430D01*
X103312597Y-143901027D01*
X103209437Y-143901027D01*
X103132310Y-143893430D01*
X103055181Y-143885834D01*
X102923230Y-143845807D01*
X102857254Y-143825794D01*
X102674845Y-143728294D01*
X102514963Y-143597081D01*
X102383750Y-143437199D01*
X102286250Y-143254790D01*
X102266237Y-143188814D01*
X102226210Y-143056863D01*
X102205937Y-142851027D01*
X102226210Y-142645191D01*
X102286250Y-142447265D01*
X102286250Y-142447264D01*
X102383750Y-142264855D01*
X102514963Y-142104973D01*
X102674845Y-141973760D01*
X102857254Y-141876260D01*
X102923230Y-141856247D01*
X103055181Y-141816220D01*
X103132310Y-141808623D01*
X103209437Y-141801027D01*
X103312597Y-141801027D01*
X103389724Y-141808623D01*
X103389724Y-141808623D01*
G37*
G36*
X100849724Y-141808623D02*
X100926853Y-141816220D01*
X101058804Y-141856247D01*
X101124780Y-141876260D01*
X101307189Y-141973760D01*
X101467071Y-142104973D01*
X101598284Y-142264855D01*
X101695784Y-142447264D01*
X101695784Y-142447265D01*
X101755824Y-142645191D01*
X101776097Y-142851027D01*
X101755824Y-143056863D01*
X101715797Y-143188814D01*
X101695784Y-143254790D01*
X101598284Y-143437199D01*
X101467071Y-143597081D01*
X101307189Y-143728294D01*
X101124780Y-143825794D01*
X101058804Y-143845807D01*
X100926853Y-143885834D01*
X100849724Y-143893430D01*
X100772597Y-143901027D01*
X100669437Y-143901027D01*
X100592310Y-143893430D01*
X100515181Y-143885834D01*
X100383230Y-143845807D01*
X100317254Y-143825794D01*
X100134845Y-143728294D01*
X99974963Y-143597081D01*
X99843750Y-143437199D01*
X99746250Y-143254790D01*
X99726237Y-143188814D01*
X99686210Y-143056863D01*
X99665937Y-142851027D01*
X99686210Y-142645191D01*
X99746250Y-142447265D01*
X99746250Y-142447264D01*
X99843750Y-142264855D01*
X99974963Y-142104973D01*
X100134845Y-141973760D01*
X100317254Y-141876260D01*
X100383230Y-141856247D01*
X100515181Y-141816220D01*
X100592310Y-141808623D01*
X100669437Y-141801027D01*
X100772597Y-141801027D01*
X100849724Y-141808623D01*
X100849724Y-141808623D01*
G37*
G36*
X116089724Y-141808623D02*
X116166853Y-141816220D01*
X116298804Y-141856247D01*
X116364780Y-141876260D01*
X116547189Y-141973760D01*
X116707071Y-142104973D01*
X116838284Y-142264855D01*
X116935784Y-142447264D01*
X116935784Y-142447265D01*
X116995824Y-142645191D01*
X117016097Y-142851027D01*
X116995824Y-143056863D01*
X116955797Y-143188814D01*
X116935784Y-143254790D01*
X116838284Y-143437199D01*
X116707071Y-143597081D01*
X116547189Y-143728294D01*
X116364780Y-143825794D01*
X116298804Y-143845807D01*
X116166853Y-143885834D01*
X116089724Y-143893430D01*
X116012597Y-143901027D01*
X115909437Y-143901027D01*
X115832310Y-143893430D01*
X115755181Y-143885834D01*
X115623230Y-143845807D01*
X115557254Y-143825794D01*
X115374845Y-143728294D01*
X115214963Y-143597081D01*
X115083750Y-143437199D01*
X114986250Y-143254790D01*
X114966237Y-143188814D01*
X114926210Y-143056863D01*
X114905937Y-142851027D01*
X114926210Y-142645191D01*
X114986250Y-142447265D01*
X114986250Y-142447264D01*
X115083750Y-142264855D01*
X115214963Y-142104973D01*
X115374845Y-141973760D01*
X115557254Y-141876260D01*
X115623230Y-141856247D01*
X115755181Y-141816220D01*
X115832310Y-141808623D01*
X115909437Y-141801027D01*
X116012597Y-141801027D01*
X116089724Y-141808623D01*
X116089724Y-141808623D01*
G37*
G36*
X107705139Y-136085544D02*
X107753102Y-136100093D01*
X107797292Y-136123713D01*
X107836035Y-136155509D01*
X107867831Y-136194252D01*
X107891451Y-136238442D01*
X107906000Y-136286405D01*
X107911517Y-136342418D01*
X107911517Y-137167636D01*
X107906000Y-137223649D01*
X107891451Y-137271612D01*
X107867831Y-137315802D01*
X107836035Y-137354545D01*
X107797292Y-137386341D01*
X107753102Y-137409961D01*
X107705139Y-137424510D01*
X107649126Y-137430027D01*
X106898908Y-137430027D01*
X106842895Y-137424510D01*
X106794932Y-137409961D01*
X106750742Y-137386341D01*
X106711999Y-137354545D01*
X106680203Y-137315802D01*
X106656583Y-137271612D01*
X106642034Y-137223649D01*
X106636517Y-137167636D01*
X106636517Y-136342418D01*
X106642034Y-136286405D01*
X106656583Y-136238442D01*
X106680203Y-136194252D01*
X106711999Y-136155509D01*
X106750742Y-136123713D01*
X106794932Y-136100093D01*
X106842895Y-136085544D01*
X106898908Y-136080027D01*
X107649126Y-136080027D01*
X107705139Y-136085544D01*
X107705139Y-136085544D01*
G37*
G36*
X109280139Y-136085544D02*
X109328102Y-136100093D01*
X109372292Y-136123713D01*
X109411035Y-136155509D01*
X109442831Y-136194252D01*
X109466451Y-136238442D01*
X109481000Y-136286405D01*
X109486517Y-136342418D01*
X109486517Y-137167636D01*
X109481000Y-137223649D01*
X109466451Y-137271612D01*
X109442831Y-137315802D01*
X109411035Y-137354545D01*
X109372292Y-137386341D01*
X109328102Y-137409961D01*
X109280139Y-137424510D01*
X109224126Y-137430027D01*
X108473908Y-137430027D01*
X108417895Y-137424510D01*
X108369932Y-137409961D01*
X108325742Y-137386341D01*
X108286999Y-137354545D01*
X108255203Y-137315802D01*
X108231583Y-137271612D01*
X108217034Y-137223649D01*
X108211517Y-137167636D01*
X108211517Y-136342418D01*
X108217034Y-136286405D01*
X108231583Y-136238442D01*
X108255203Y-136194252D01*
X108286999Y-136155509D01*
X108325742Y-136123713D01*
X108369932Y-136100093D01*
X108417895Y-136085544D01*
X108473908Y-136080027D01*
X109224126Y-136080027D01*
X109280139Y-136085544D01*
X109280139Y-136085544D01*
G37*
G36*
X122560139Y-131257142D02*
X122676058Y-131280200D01*
X123003637Y-131415888D01*
X123294528Y-131610255D01*
X123298453Y-131612878D01*
X123549166Y-131863591D01*
X123746157Y-132158409D01*
X123881844Y-132485987D01*
X123951017Y-132833741D01*
X123951017Y-133188313D01*
X123881844Y-133536067D01*
X123746157Y-133863645D01*
X123549166Y-134158463D01*
X123298453Y-134409176D01*
X123298450Y-134409178D01*
X123003637Y-134606166D01*
X122676058Y-134741854D01*
X122560139Y-134764912D01*
X122328303Y-134811027D01*
X121973731Y-134811027D01*
X121741895Y-134764912D01*
X121625976Y-134741854D01*
X121298397Y-134606166D01*
X121003584Y-134409178D01*
X121003581Y-134409176D01*
X120752868Y-134158463D01*
X120555877Y-133863645D01*
X120420190Y-133536067D01*
X120351017Y-133188313D01*
X120351017Y-132833741D01*
X120420190Y-132485987D01*
X120555877Y-132158409D01*
X120752868Y-131863591D01*
X121003581Y-131612878D01*
X121007506Y-131610255D01*
X121298397Y-131415888D01*
X121625976Y-131280200D01*
X121741895Y-131257142D01*
X121973731Y-131211027D01*
X122328303Y-131211027D01*
X122560139Y-131257142D01*
X122560139Y-131257142D01*
G37*
G36*
X102560139Y-131257142D02*
X102676058Y-131280200D01*
X103003637Y-131415888D01*
X103294528Y-131610255D01*
X103298453Y-131612878D01*
X103549166Y-131863591D01*
X103746157Y-132158409D01*
X103881844Y-132485987D01*
X103951017Y-132833741D01*
X103951017Y-133188313D01*
X103881844Y-133536067D01*
X103746157Y-133863645D01*
X103549166Y-134158463D01*
X103298453Y-134409176D01*
X103298450Y-134409178D01*
X103003637Y-134606166D01*
X102676058Y-134741854D01*
X102560139Y-134764912D01*
X102328303Y-134811027D01*
X101973731Y-134811027D01*
X101741895Y-134764912D01*
X101625976Y-134741854D01*
X101298397Y-134606166D01*
X101003584Y-134409178D01*
X101003581Y-134409176D01*
X100752868Y-134158463D01*
X100555877Y-133863645D01*
X100420190Y-133536067D01*
X100351017Y-133188313D01*
X100351017Y-132833741D01*
X100420190Y-132485987D01*
X100555877Y-132158409D01*
X100752868Y-131863591D01*
X101003581Y-131612878D01*
X101007506Y-131610255D01*
X101298397Y-131415888D01*
X101625976Y-131280200D01*
X101741895Y-131257142D01*
X101973731Y-131211027D01*
X102328303Y-131211027D01*
X102560139Y-131257142D01*
X102560139Y-131257142D01*
G37*
G36*
X93451043Y-107407142D02*
X93669429Y-107497600D01*
X93865975Y-107628928D01*
X94033116Y-107796069D01*
X94164444Y-107992615D01*
X94255532Y-108212522D01*
X94267083Y-108234133D01*
X94282628Y-108253075D01*
X94301571Y-108268621D01*
X94323181Y-108280172D01*
X94346630Y-108287285D01*
X94371017Y-108289687D01*
X94395403Y-108287285D01*
X94418852Y-108280172D01*
X94440463Y-108268621D01*
X94459405Y-108253076D01*
X94474951Y-108234133D01*
X94486502Y-108212522D01*
X94577590Y-107992615D01*
X94708918Y-107796069D01*
X94876059Y-107628928D01*
X95072605Y-107497600D01*
X95290991Y-107407142D01*
X95522826Y-107361027D01*
X95759208Y-107361027D01*
X95991043Y-107407142D01*
X96209429Y-107497600D01*
X96405975Y-107628928D01*
X96573116Y-107796069D01*
X96704444Y-107992615D01*
X96794902Y-108211001D01*
X96841017Y-108442836D01*
X96841017Y-108679218D01*
X96794902Y-108911053D01*
X96704444Y-109129439D01*
X96573116Y-109325985D01*
X96405975Y-109493126D01*
X96209429Y-109624454D01*
X95991043Y-109714912D01*
X95759208Y-109761027D01*
X95522826Y-109761027D01*
X95290991Y-109714912D01*
X95072605Y-109624454D01*
X94876059Y-109493126D01*
X94708918Y-109325985D01*
X94577590Y-109129439D01*
X94486502Y-108909532D01*
X94474951Y-108887921D01*
X94459406Y-108868979D01*
X94440463Y-108853433D01*
X94418853Y-108841882D01*
X94395404Y-108834769D01*
X94371017Y-108832367D01*
X94346631Y-108834769D01*
X94323182Y-108841882D01*
X94301571Y-108853433D01*
X94282629Y-108868978D01*
X94267083Y-108887921D01*
X94255532Y-108909532D01*
X94164444Y-109129439D01*
X94033116Y-109325985D01*
X93865975Y-109493126D01*
X93669429Y-109624454D01*
X93451043Y-109714912D01*
X93219208Y-109761027D01*
X92982826Y-109761027D01*
X92750991Y-109714912D01*
X92532605Y-109624454D01*
X92336059Y-109493126D01*
X92168918Y-109325985D01*
X92037590Y-109129439D01*
X91947132Y-108911053D01*
X91901017Y-108679218D01*
X91901017Y-108442836D01*
X91947132Y-108211001D01*
X92037590Y-107992615D01*
X92168918Y-107796069D01*
X92336059Y-107628928D01*
X92532605Y-107497600D01*
X92750991Y-107407142D01*
X92982826Y-107361027D01*
X93219208Y-107361027D01*
X93451043Y-107407142D01*
X93451043Y-107407142D01*
G37*
G36*
X93451043Y-95977142D02*
X93669429Y-96067600D01*
X93865975Y-96198928D01*
X94033116Y-96366069D01*
X94164444Y-96562615D01*
X94254902Y-96781001D01*
X94301017Y-97012836D01*
X94301017Y-97249218D01*
X94254902Y-97481053D01*
X94164444Y-97699439D01*
X94033116Y-97895985D01*
X93865975Y-98063126D01*
X93669429Y-98194454D01*
X93449522Y-98285542D01*
X93427911Y-98297093D01*
X93408969Y-98312638D01*
X93393423Y-98331581D01*
X93381872Y-98353191D01*
X93374759Y-98376640D01*
X93372357Y-98401027D01*
X93374759Y-98425413D01*
X93381872Y-98448862D01*
X93393423Y-98470473D01*
X93408968Y-98489415D01*
X93427911Y-98504961D01*
X93449522Y-98516512D01*
X93669429Y-98607600D01*
X93865975Y-98738928D01*
X94033116Y-98906069D01*
X94164444Y-99102615D01*
X94254902Y-99321001D01*
X94301017Y-99552836D01*
X94301017Y-99789218D01*
X94254902Y-100021053D01*
X94164444Y-100239439D01*
X94033116Y-100435985D01*
X93865975Y-100603126D01*
X93669429Y-100734454D01*
X93449522Y-100825542D01*
X93427911Y-100837093D01*
X93408969Y-100852638D01*
X93393423Y-100871581D01*
X93381872Y-100893191D01*
X93374759Y-100916640D01*
X93372357Y-100941027D01*
X93374759Y-100965413D01*
X93381872Y-100988862D01*
X93393423Y-101010473D01*
X93408968Y-101029415D01*
X93427911Y-101044961D01*
X93449522Y-101056512D01*
X93669429Y-101147600D01*
X93865975Y-101278928D01*
X94033116Y-101446069D01*
X94164444Y-101642615D01*
X94254902Y-101861001D01*
X94301017Y-102092836D01*
X94301017Y-102329218D01*
X94254902Y-102561053D01*
X94164444Y-102779439D01*
X94033116Y-102975985D01*
X93865975Y-103143126D01*
X93669429Y-103274454D01*
X93449522Y-103365542D01*
X93427911Y-103377093D01*
X93408969Y-103392638D01*
X93393423Y-103411581D01*
X93381872Y-103433191D01*
X93374759Y-103456640D01*
X93372357Y-103481027D01*
X93374759Y-103505413D01*
X93381872Y-103528862D01*
X93393423Y-103550473D01*
X93408968Y-103569415D01*
X93427911Y-103584961D01*
X93449522Y-103596512D01*
X93669429Y-103687600D01*
X93865975Y-103818928D01*
X94033116Y-103986069D01*
X94164444Y-104182615D01*
X94254902Y-104401001D01*
X94301017Y-104632836D01*
X94301017Y-104869218D01*
X94254902Y-105101053D01*
X94164444Y-105319439D01*
X94033116Y-105515985D01*
X93865975Y-105683126D01*
X93669429Y-105814454D01*
X93451043Y-105904912D01*
X93219208Y-105951027D01*
X92982826Y-105951027D01*
X92750991Y-105904912D01*
X92532605Y-105814454D01*
X92336059Y-105683126D01*
X92168918Y-105515985D01*
X92037590Y-105319439D01*
X91947132Y-105101053D01*
X91901017Y-104869218D01*
X91901017Y-104632836D01*
X91947132Y-104401001D01*
X92037590Y-104182615D01*
X92168918Y-103986069D01*
X92336059Y-103818928D01*
X92532605Y-103687600D01*
X92752512Y-103596512D01*
X92774123Y-103584961D01*
X92793065Y-103569416D01*
X92808611Y-103550473D01*
X92820162Y-103528863D01*
X92827275Y-103505414D01*
X92829677Y-103481027D01*
X92827275Y-103456641D01*
X92820162Y-103433192D01*
X92808611Y-103411581D01*
X92793066Y-103392639D01*
X92774123Y-103377093D01*
X92752512Y-103365542D01*
X92532605Y-103274454D01*
X92336059Y-103143126D01*
X92168918Y-102975985D01*
X92037590Y-102779439D01*
X91947132Y-102561053D01*
X91901017Y-102329218D01*
X91901017Y-102092836D01*
X91947132Y-101861001D01*
X92037590Y-101642615D01*
X92168918Y-101446069D01*
X92336059Y-101278928D01*
X92532605Y-101147600D01*
X92752512Y-101056512D01*
X92774123Y-101044961D01*
X92793065Y-101029416D01*
X92808611Y-101010473D01*
X92820162Y-100988863D01*
X92827275Y-100965414D01*
X92829677Y-100941027D01*
X92827275Y-100916641D01*
X92820162Y-100893192D01*
X92808611Y-100871581D01*
X92793066Y-100852639D01*
X92774123Y-100837093D01*
X92752512Y-100825542D01*
X92532605Y-100734454D01*
X92336059Y-100603126D01*
X92168918Y-100435985D01*
X92037590Y-100239439D01*
X91947132Y-100021053D01*
X91901017Y-99789218D01*
X91901017Y-99552836D01*
X91947132Y-99321001D01*
X92037590Y-99102615D01*
X92168918Y-98906069D01*
X92336059Y-98738928D01*
X92532605Y-98607600D01*
X92752512Y-98516512D01*
X92774123Y-98504961D01*
X92793065Y-98489416D01*
X92808611Y-98470473D01*
X92820162Y-98448863D01*
X92827275Y-98425414D01*
X92829677Y-98401027D01*
X92827275Y-98376641D01*
X92820162Y-98353192D01*
X92808611Y-98331581D01*
X92793066Y-98312639D01*
X92774123Y-98297093D01*
X92752512Y-98285542D01*
X92532605Y-98194454D01*
X92336059Y-98063126D01*
X92168918Y-97895985D01*
X92037590Y-97699439D01*
X91947132Y-97481053D01*
X91901017Y-97249218D01*
X91901017Y-97012836D01*
X91947132Y-96781001D01*
X92037590Y-96562615D01*
X92168918Y-96366069D01*
X92336059Y-96198928D01*
X92532605Y-96067600D01*
X92750991Y-95977142D01*
X92982826Y-95931027D01*
X93219208Y-95931027D01*
X93451043Y-95977142D01*
X93451043Y-95977142D01*
G37*
G36*
X131551043Y-95977142D02*
X131769429Y-96067600D01*
X131965975Y-96198928D01*
X132133116Y-96366069D01*
X132264444Y-96562615D01*
X132354902Y-96781001D01*
X132401017Y-97012836D01*
X132401017Y-97249218D01*
X132354902Y-97481053D01*
X132264444Y-97699439D01*
X132133116Y-97895985D01*
X131965975Y-98063126D01*
X131769429Y-98194454D01*
X131549522Y-98285542D01*
X131527911Y-98297093D01*
X131508969Y-98312638D01*
X131493423Y-98331581D01*
X131481872Y-98353191D01*
X131474759Y-98376640D01*
X131472357Y-98401027D01*
X131474759Y-98425413D01*
X131481872Y-98448862D01*
X131493423Y-98470473D01*
X131508968Y-98489415D01*
X131527911Y-98504961D01*
X131549522Y-98516512D01*
X131769429Y-98607600D01*
X131965975Y-98738928D01*
X132133116Y-98906069D01*
X132264444Y-99102615D01*
X132354902Y-99321001D01*
X132401017Y-99552836D01*
X132401017Y-99789218D01*
X132354902Y-100021053D01*
X132264444Y-100239439D01*
X132133116Y-100435985D01*
X131965975Y-100603126D01*
X131769429Y-100734454D01*
X131549522Y-100825542D01*
X131527911Y-100837093D01*
X131508969Y-100852638D01*
X131493423Y-100871581D01*
X131481872Y-100893191D01*
X131474759Y-100916640D01*
X131472357Y-100941027D01*
X131474759Y-100965413D01*
X131481872Y-100988862D01*
X131493423Y-101010473D01*
X131508968Y-101029415D01*
X131527911Y-101044961D01*
X131549522Y-101056512D01*
X131769429Y-101147600D01*
X131965975Y-101278928D01*
X132133116Y-101446069D01*
X132264444Y-101642615D01*
X132354902Y-101861001D01*
X132401017Y-102092836D01*
X132401017Y-102329218D01*
X132354902Y-102561053D01*
X132264444Y-102779439D01*
X132133116Y-102975985D01*
X131965975Y-103143126D01*
X131769429Y-103274454D01*
X131549522Y-103365542D01*
X131527911Y-103377093D01*
X131508969Y-103392638D01*
X131493423Y-103411581D01*
X131481872Y-103433191D01*
X131474759Y-103456640D01*
X131472357Y-103481027D01*
X131474759Y-103505413D01*
X131481872Y-103528862D01*
X131493423Y-103550473D01*
X131508968Y-103569415D01*
X131527911Y-103584961D01*
X131549522Y-103596512D01*
X131769429Y-103687600D01*
X131965975Y-103818928D01*
X132133116Y-103986069D01*
X132264444Y-104182615D01*
X132354902Y-104401001D01*
X132401017Y-104632836D01*
X132401017Y-104869218D01*
X132354902Y-105101053D01*
X132264444Y-105319439D01*
X132133116Y-105515985D01*
X131965975Y-105683126D01*
X131769429Y-105814454D01*
X131551043Y-105904912D01*
X131319208Y-105951027D01*
X131082826Y-105951027D01*
X130850991Y-105904912D01*
X130632605Y-105814454D01*
X130436059Y-105683126D01*
X130268918Y-105515985D01*
X130137590Y-105319439D01*
X130047132Y-105101053D01*
X130001017Y-104869218D01*
X130001017Y-104632836D01*
X130047132Y-104401001D01*
X130137590Y-104182615D01*
X130268918Y-103986069D01*
X130436059Y-103818928D01*
X130632605Y-103687600D01*
X130852512Y-103596512D01*
X130874123Y-103584961D01*
X130893065Y-103569416D01*
X130908611Y-103550473D01*
X130920162Y-103528863D01*
X130927275Y-103505414D01*
X130929677Y-103481027D01*
X130927275Y-103456641D01*
X130920162Y-103433192D01*
X130908611Y-103411581D01*
X130893066Y-103392639D01*
X130874123Y-103377093D01*
X130852512Y-103365542D01*
X130632605Y-103274454D01*
X130436059Y-103143126D01*
X130268918Y-102975985D01*
X130137590Y-102779439D01*
X130047132Y-102561053D01*
X130001017Y-102329218D01*
X130001017Y-102092836D01*
X130047132Y-101861001D01*
X130137590Y-101642615D01*
X130268918Y-101446069D01*
X130436059Y-101278928D01*
X130632605Y-101147600D01*
X130852512Y-101056512D01*
X130874123Y-101044961D01*
X130893065Y-101029416D01*
X130908611Y-101010473D01*
X130920162Y-100988863D01*
X130927275Y-100965414D01*
X130929677Y-100941027D01*
X130927275Y-100916641D01*
X130920162Y-100893192D01*
X130908611Y-100871581D01*
X130893066Y-100852639D01*
X130874123Y-100837093D01*
X130852512Y-100825542D01*
X130632605Y-100734454D01*
X130436059Y-100603126D01*
X130268918Y-100435985D01*
X130137590Y-100239439D01*
X130047132Y-100021053D01*
X130001017Y-99789218D01*
X130001017Y-99552836D01*
X130047132Y-99321001D01*
X130137590Y-99102615D01*
X130268918Y-98906069D01*
X130436059Y-98738928D01*
X130632605Y-98607600D01*
X130852512Y-98516512D01*
X130874123Y-98504961D01*
X130893065Y-98489416D01*
X130908611Y-98470473D01*
X130920162Y-98448863D01*
X130927275Y-98425414D01*
X130929677Y-98401027D01*
X130927275Y-98376641D01*
X130920162Y-98353192D01*
X130908611Y-98331581D01*
X130893066Y-98312639D01*
X130874123Y-98297093D01*
X130852512Y-98285542D01*
X130632605Y-98194454D01*
X130436059Y-98063126D01*
X130268918Y-97895985D01*
X130137590Y-97699439D01*
X130047132Y-97481053D01*
X130001017Y-97249218D01*
X130001017Y-97012836D01*
X130047132Y-96781001D01*
X130137590Y-96562615D01*
X130268918Y-96366069D01*
X130436059Y-96198928D01*
X130632605Y-96067600D01*
X130850991Y-95977142D01*
X131082826Y-95931027D01*
X131319208Y-95931027D01*
X131551043Y-95977142D01*
X131551043Y-95977142D01*
G37*
G36*
X122560139Y-73257142D02*
X122676058Y-73280200D01*
X123003637Y-73415888D01*
X123294528Y-73610255D01*
X123298453Y-73612878D01*
X123549166Y-73863591D01*
X123746157Y-74158409D01*
X123881844Y-74485987D01*
X123951017Y-74833741D01*
X123951017Y-75188313D01*
X123881844Y-75536067D01*
X123746157Y-75863645D01*
X123549166Y-76158463D01*
X123298453Y-76409176D01*
X123298450Y-76409178D01*
X123003637Y-76606166D01*
X122676058Y-76741854D01*
X122560139Y-76764912D01*
X122328303Y-76811027D01*
X121973731Y-76811027D01*
X121741895Y-76764912D01*
X121625976Y-76741854D01*
X121298397Y-76606166D01*
X121003584Y-76409178D01*
X121003581Y-76409176D01*
X120752868Y-76158463D01*
X120555877Y-75863645D01*
X120420190Y-75536067D01*
X120351017Y-75188313D01*
X120351017Y-74833741D01*
X120420190Y-74485987D01*
X120555877Y-74158409D01*
X120752868Y-73863591D01*
X121003581Y-73612878D01*
X121007506Y-73610255D01*
X121298397Y-73415888D01*
X121625976Y-73280200D01*
X121741895Y-73257142D01*
X121973731Y-73211027D01*
X122328303Y-73211027D01*
X122560139Y-73257142D01*
X122560139Y-73257142D01*
G37*
G36*
X102560139Y-73257142D02*
X102676058Y-73280200D01*
X103003637Y-73415888D01*
X103294528Y-73610255D01*
X103298453Y-73612878D01*
X103549166Y-73863591D01*
X103746157Y-74158409D01*
X103881844Y-74485987D01*
X103951017Y-74833741D01*
X103951017Y-75188313D01*
X103881844Y-75536067D01*
X103746157Y-75863645D01*
X103549166Y-76158463D01*
X103298453Y-76409176D01*
X103298450Y-76409178D01*
X103003637Y-76606166D01*
X102676058Y-76741854D01*
X102560139Y-76764912D01*
X102328303Y-76811027D01*
X101973731Y-76811027D01*
X101741895Y-76764912D01*
X101625976Y-76741854D01*
X101298397Y-76606166D01*
X101003584Y-76409178D01*
X101003581Y-76409176D01*
X100752868Y-76158463D01*
X100555877Y-75863645D01*
X100420190Y-75536067D01*
X100351017Y-75188313D01*
X100351017Y-74833741D01*
X100420190Y-74485987D01*
X100555877Y-74158409D01*
X100752868Y-73863591D01*
X101003581Y-73612878D01*
X101007506Y-73610255D01*
X101298397Y-73415888D01*
X101625976Y-73280200D01*
X101741895Y-73257142D01*
X101973731Y-73211027D01*
X102328303Y-73211027D01*
X102560139Y-73257142D01*
X102560139Y-73257142D01*
G37*
G36*
X121169724Y-65608624D02*
X121246853Y-65616220D01*
X121378804Y-65656247D01*
X121444780Y-65676260D01*
X121627189Y-65773760D01*
X121787071Y-65904973D01*
X121918284Y-66064855D01*
X122015784Y-66247264D01*
X122015784Y-66247265D01*
X122075824Y-66445191D01*
X122096097Y-66651027D01*
X122075824Y-66856863D01*
X122035797Y-66988814D01*
X122015784Y-67054790D01*
X121918284Y-67237199D01*
X121787071Y-67397081D01*
X121627189Y-67528294D01*
X121444780Y-67625794D01*
X121378804Y-67645807D01*
X121246853Y-67685834D01*
X121169724Y-67693431D01*
X121092597Y-67701027D01*
X120989437Y-67701027D01*
X120912310Y-67693431D01*
X120835181Y-67685834D01*
X120703230Y-67645807D01*
X120637254Y-67625794D01*
X120454845Y-67528294D01*
X120294963Y-67397081D01*
X120163750Y-67237199D01*
X120066250Y-67054790D01*
X120046237Y-66988814D01*
X120006210Y-66856863D01*
X119985937Y-66651027D01*
X120006210Y-66445191D01*
X120066250Y-66247265D01*
X120066250Y-66247264D01*
X120163750Y-66064855D01*
X120294963Y-65904973D01*
X120454845Y-65773760D01*
X120637254Y-65676260D01*
X120703230Y-65656247D01*
X120835181Y-65616220D01*
X120912310Y-65608624D01*
X120989437Y-65601027D01*
X121092597Y-65601027D01*
X121169724Y-65608624D01*
X121169724Y-65608624D01*
G37*
G36*
X123709724Y-65608624D02*
X123786853Y-65616220D01*
X123918804Y-65656247D01*
X123984780Y-65676260D01*
X124167189Y-65773760D01*
X124327071Y-65904973D01*
X124458284Y-66064855D01*
X124555784Y-66247264D01*
X124555784Y-66247265D01*
X124615824Y-66445191D01*
X124636097Y-66651027D01*
X124615824Y-66856863D01*
X124575797Y-66988814D01*
X124555784Y-67054790D01*
X124458284Y-67237199D01*
X124327071Y-67397081D01*
X124167189Y-67528294D01*
X123984780Y-67625794D01*
X123918804Y-67645807D01*
X123786853Y-67685834D01*
X123709724Y-67693431D01*
X123632597Y-67701027D01*
X123529437Y-67701027D01*
X123452310Y-67693431D01*
X123375181Y-67685834D01*
X123243230Y-67645807D01*
X123177254Y-67625794D01*
X122994845Y-67528294D01*
X122834963Y-67397081D01*
X122703750Y-67237199D01*
X122606250Y-67054790D01*
X122586237Y-66988814D01*
X122546210Y-66856863D01*
X122525937Y-66651027D01*
X122546210Y-66445191D01*
X122606250Y-66247265D01*
X122606250Y-66247264D01*
X122703750Y-66064855D01*
X122834963Y-65904973D01*
X122994845Y-65773760D01*
X123177254Y-65676260D01*
X123243230Y-65656247D01*
X123375181Y-65616220D01*
X123452310Y-65608624D01*
X123529437Y-65601027D01*
X123632597Y-65601027D01*
X123709724Y-65608624D01*
X123709724Y-65608624D01*
G37*
G36*
X118629724Y-65608624D02*
X118706853Y-65616220D01*
X118838804Y-65656247D01*
X118904780Y-65676260D01*
X119087189Y-65773760D01*
X119247071Y-65904973D01*
X119378284Y-66064855D01*
X119475784Y-66247264D01*
X119475784Y-66247265D01*
X119535824Y-66445191D01*
X119556097Y-66651027D01*
X119535824Y-66856863D01*
X119495797Y-66988814D01*
X119475784Y-67054790D01*
X119378284Y-67237199D01*
X119247071Y-67397081D01*
X119087189Y-67528294D01*
X118904780Y-67625794D01*
X118838804Y-67645807D01*
X118706853Y-67685834D01*
X118629724Y-67693431D01*
X118552597Y-67701027D01*
X118449437Y-67701027D01*
X118372310Y-67693431D01*
X118295181Y-67685834D01*
X118163230Y-67645807D01*
X118097254Y-67625794D01*
X117914845Y-67528294D01*
X117754963Y-67397081D01*
X117623750Y-67237199D01*
X117526250Y-67054790D01*
X117506237Y-66988814D01*
X117466210Y-66856863D01*
X117445937Y-66651027D01*
X117466210Y-66445191D01*
X117526250Y-66247265D01*
X117526250Y-66247264D01*
X117623750Y-66064855D01*
X117754963Y-65904973D01*
X117914845Y-65773760D01*
X118097254Y-65676260D01*
X118163230Y-65656247D01*
X118295181Y-65616220D01*
X118372310Y-65608624D01*
X118449437Y-65601027D01*
X118552597Y-65601027D01*
X118629724Y-65608624D01*
X118629724Y-65608624D01*
G37*
G36*
X116089724Y-65608624D02*
X116166853Y-65616220D01*
X116298804Y-65656247D01*
X116364780Y-65676260D01*
X116547189Y-65773760D01*
X116707071Y-65904973D01*
X116838284Y-66064855D01*
X116935784Y-66247264D01*
X116935784Y-66247265D01*
X116995824Y-66445191D01*
X117016097Y-66651027D01*
X116995824Y-66856863D01*
X116955797Y-66988814D01*
X116935784Y-67054790D01*
X116838284Y-67237199D01*
X116707071Y-67397081D01*
X116547189Y-67528294D01*
X116364780Y-67625794D01*
X116298804Y-67645807D01*
X116166853Y-67685834D01*
X116089724Y-67693431D01*
X116012597Y-67701027D01*
X115909437Y-67701027D01*
X115832310Y-67693431D01*
X115755181Y-67685834D01*
X115623230Y-67645807D01*
X115557254Y-67625794D01*
X115374845Y-67528294D01*
X115214963Y-67397081D01*
X115083750Y-67237199D01*
X114986250Y-67054790D01*
X114966237Y-66988814D01*
X114926210Y-66856863D01*
X114905937Y-66651027D01*
X114926210Y-66445191D01*
X114986250Y-66247265D01*
X114986250Y-66247264D01*
X115083750Y-66064855D01*
X115214963Y-65904973D01*
X115374845Y-65773760D01*
X115557254Y-65676260D01*
X115623230Y-65656247D01*
X115755181Y-65616220D01*
X115832310Y-65608624D01*
X115909437Y-65601027D01*
X116012597Y-65601027D01*
X116089724Y-65608624D01*
X116089724Y-65608624D01*
G37*
G36*
X113549724Y-65608624D02*
X113626853Y-65616220D01*
X113758804Y-65656247D01*
X113824780Y-65676260D01*
X114007189Y-65773760D01*
X114167071Y-65904973D01*
X114298284Y-66064855D01*
X114395784Y-66247264D01*
X114395784Y-66247265D01*
X114455824Y-66445191D01*
X114476097Y-66651027D01*
X114455824Y-66856863D01*
X114415797Y-66988814D01*
X114395784Y-67054790D01*
X114298284Y-67237199D01*
X114167071Y-67397081D01*
X114007189Y-67528294D01*
X113824780Y-67625794D01*
X113758804Y-67645807D01*
X113626853Y-67685834D01*
X113549724Y-67693431D01*
X113472597Y-67701027D01*
X113369437Y-67701027D01*
X113292310Y-67693431D01*
X113215181Y-67685834D01*
X113083230Y-67645807D01*
X113017254Y-67625794D01*
X112834845Y-67528294D01*
X112674963Y-67397081D01*
X112543750Y-67237199D01*
X112446250Y-67054790D01*
X112426237Y-66988814D01*
X112386210Y-66856863D01*
X112365937Y-66651027D01*
X112386210Y-66445191D01*
X112446250Y-66247265D01*
X112446250Y-66247264D01*
X112543750Y-66064855D01*
X112674963Y-65904973D01*
X112834845Y-65773760D01*
X113017254Y-65676260D01*
X113083230Y-65656247D01*
X113215181Y-65616220D01*
X113292310Y-65608624D01*
X113369437Y-65601027D01*
X113472597Y-65601027D01*
X113549724Y-65608624D01*
X113549724Y-65608624D01*
G37*
G36*
X111009724Y-65608624D02*
X111086853Y-65616220D01*
X111218804Y-65656247D01*
X111284780Y-65676260D01*
X111467189Y-65773760D01*
X111627071Y-65904973D01*
X111758284Y-66064855D01*
X111855784Y-66247264D01*
X111855784Y-66247265D01*
X111915824Y-66445191D01*
X111936097Y-66651027D01*
X111915824Y-66856863D01*
X111875797Y-66988814D01*
X111855784Y-67054790D01*
X111758284Y-67237199D01*
X111627071Y-67397081D01*
X111467189Y-67528294D01*
X111284780Y-67625794D01*
X111218804Y-67645807D01*
X111086853Y-67685834D01*
X111009724Y-67693431D01*
X110932597Y-67701027D01*
X110829437Y-67701027D01*
X110752310Y-67693431D01*
X110675181Y-67685834D01*
X110543230Y-67645807D01*
X110477254Y-67625794D01*
X110294845Y-67528294D01*
X110134963Y-67397081D01*
X110003750Y-67237199D01*
X109906250Y-67054790D01*
X109886237Y-66988814D01*
X109846210Y-66856863D01*
X109825937Y-66651027D01*
X109846210Y-66445191D01*
X109906250Y-66247265D01*
X109906250Y-66247264D01*
X110003750Y-66064855D01*
X110134963Y-65904973D01*
X110294845Y-65773760D01*
X110477254Y-65676260D01*
X110543230Y-65656247D01*
X110675181Y-65616220D01*
X110752310Y-65608624D01*
X110829437Y-65601027D01*
X110932597Y-65601027D01*
X111009724Y-65608624D01*
X111009724Y-65608624D01*
G37*
G36*
X108469724Y-65608624D02*
X108546853Y-65616220D01*
X108678804Y-65656247D01*
X108744780Y-65676260D01*
X108927189Y-65773760D01*
X109087071Y-65904973D01*
X109218284Y-66064855D01*
X109315784Y-66247264D01*
X109315784Y-66247265D01*
X109375824Y-66445191D01*
X109396097Y-66651027D01*
X109375824Y-66856863D01*
X109335797Y-66988814D01*
X109315784Y-67054790D01*
X109218284Y-67237199D01*
X109087071Y-67397081D01*
X108927189Y-67528294D01*
X108744780Y-67625794D01*
X108678804Y-67645807D01*
X108546853Y-67685834D01*
X108469724Y-67693431D01*
X108392597Y-67701027D01*
X108289437Y-67701027D01*
X108212310Y-67693431D01*
X108135181Y-67685834D01*
X108003230Y-67645807D01*
X107937254Y-67625794D01*
X107754845Y-67528294D01*
X107594963Y-67397081D01*
X107463750Y-67237199D01*
X107366250Y-67054790D01*
X107346237Y-66988814D01*
X107306210Y-66856863D01*
X107285937Y-66651027D01*
X107306210Y-66445191D01*
X107366250Y-66247265D01*
X107366250Y-66247264D01*
X107463750Y-66064855D01*
X107594963Y-65904973D01*
X107754845Y-65773760D01*
X107937254Y-65676260D01*
X108003230Y-65656247D01*
X108135181Y-65616220D01*
X108212310Y-65608624D01*
X108289437Y-65601027D01*
X108392597Y-65601027D01*
X108469724Y-65608624D01*
X108469724Y-65608624D01*
G37*
G36*
X105929724Y-65608624D02*
X106006853Y-65616220D01*
X106138804Y-65656247D01*
X106204780Y-65676260D01*
X106387189Y-65773760D01*
X106547071Y-65904973D01*
X106678284Y-66064855D01*
X106775784Y-66247264D01*
X106775784Y-66247265D01*
X106835824Y-66445191D01*
X106856097Y-66651027D01*
X106835824Y-66856863D01*
X106795797Y-66988814D01*
X106775784Y-67054790D01*
X106678284Y-67237199D01*
X106547071Y-67397081D01*
X106387189Y-67528294D01*
X106204780Y-67625794D01*
X106138804Y-67645807D01*
X106006853Y-67685834D01*
X105929724Y-67693431D01*
X105852597Y-67701027D01*
X105749437Y-67701027D01*
X105672310Y-67693431D01*
X105595181Y-67685834D01*
X105463230Y-67645807D01*
X105397254Y-67625794D01*
X105214845Y-67528294D01*
X105054963Y-67397081D01*
X104923750Y-67237199D01*
X104826250Y-67054790D01*
X104806237Y-66988814D01*
X104766210Y-66856863D01*
X104745937Y-66651027D01*
X104766210Y-66445191D01*
X104826250Y-66247265D01*
X104826250Y-66247264D01*
X104923750Y-66064855D01*
X105054963Y-65904973D01*
X105214845Y-65773760D01*
X105397254Y-65676260D01*
X105463230Y-65656247D01*
X105595181Y-65616220D01*
X105672310Y-65608624D01*
X105749437Y-65601027D01*
X105852597Y-65601027D01*
X105929724Y-65608624D01*
X105929724Y-65608624D01*
G37*
G36*
X101771017Y-67701027D02*
X99671017Y-67701027D01*
X99671017Y-65601027D01*
X101771017Y-65601027D01*
X101771017Y-67701027D01*
X101771017Y-67701027D01*
G37*
G36*
X103389724Y-65608624D02*
X103466853Y-65616220D01*
X103598804Y-65656247D01*
X103664780Y-65676260D01*
X103847189Y-65773760D01*
X104007071Y-65904973D01*
X104138284Y-66064855D01*
X104235784Y-66247264D01*
X104235784Y-66247265D01*
X104295824Y-66445191D01*
X104316097Y-66651027D01*
X104295824Y-66856863D01*
X104255797Y-66988814D01*
X104235784Y-67054790D01*
X104138284Y-67237199D01*
X104007071Y-67397081D01*
X103847189Y-67528294D01*
X103664780Y-67625794D01*
X103598804Y-67645807D01*
X103466853Y-67685834D01*
X103389724Y-67693431D01*
X103312597Y-67701027D01*
X103209437Y-67701027D01*
X103132310Y-67693431D01*
X103055181Y-67685834D01*
X102923230Y-67645807D01*
X102857254Y-67625794D01*
X102674845Y-67528294D01*
X102514963Y-67397081D01*
X102383750Y-67237199D01*
X102286250Y-67054790D01*
X102266237Y-66988814D01*
X102226210Y-66856863D01*
X102205937Y-66651027D01*
X102226210Y-66445191D01*
X102286250Y-66247265D01*
X102286250Y-66247264D01*
X102383750Y-66064855D01*
X102514963Y-65904973D01*
X102674845Y-65773760D01*
X102857254Y-65676260D01*
X102923230Y-65656247D01*
X103055181Y-65616220D01*
X103132310Y-65608624D01*
X103209437Y-65601027D01*
X103312597Y-65601027D01*
X103389724Y-65608624D01*
X103389724Y-65608624D01*
G37*
G36*
X118629724Y-63068624D02*
X118706853Y-63076220D01*
X118838804Y-63116247D01*
X118904780Y-63136260D01*
X119087189Y-63233760D01*
X119247071Y-63364973D01*
X119378284Y-63524855D01*
X119475784Y-63707264D01*
X119475784Y-63707265D01*
X119535824Y-63905191D01*
X119556097Y-64111027D01*
X119535824Y-64316863D01*
X119495797Y-64448814D01*
X119475784Y-64514790D01*
X119378284Y-64697199D01*
X119247071Y-64857081D01*
X119087189Y-64988294D01*
X118904780Y-65085794D01*
X118838804Y-65105807D01*
X118706853Y-65145834D01*
X118629724Y-65153431D01*
X118552597Y-65161027D01*
X118449437Y-65161027D01*
X118372310Y-65153431D01*
X118295181Y-65145834D01*
X118163230Y-65105807D01*
X118097254Y-65085794D01*
X117914845Y-64988294D01*
X117754963Y-64857081D01*
X117623750Y-64697199D01*
X117526250Y-64514790D01*
X117506237Y-64448814D01*
X117466210Y-64316863D01*
X117445937Y-64111027D01*
X117466210Y-63905191D01*
X117526250Y-63707265D01*
X117526250Y-63707264D01*
X117623750Y-63524855D01*
X117754963Y-63364973D01*
X117914845Y-63233760D01*
X118097254Y-63136260D01*
X118163230Y-63116247D01*
X118295181Y-63076220D01*
X118372310Y-63068624D01*
X118449437Y-63061027D01*
X118552597Y-63061027D01*
X118629724Y-63068624D01*
X118629724Y-63068624D01*
G37*
G36*
X116089724Y-63068624D02*
X116166853Y-63076220D01*
X116298804Y-63116247D01*
X116364780Y-63136260D01*
X116547189Y-63233760D01*
X116707071Y-63364973D01*
X116838284Y-63524855D01*
X116935784Y-63707264D01*
X116935784Y-63707265D01*
X116995824Y-63905191D01*
X117016097Y-64111027D01*
X116995824Y-64316863D01*
X116955797Y-64448814D01*
X116935784Y-64514790D01*
X116838284Y-64697199D01*
X116707071Y-64857081D01*
X116547189Y-64988294D01*
X116364780Y-65085794D01*
X116298804Y-65105807D01*
X116166853Y-65145834D01*
X116089724Y-65153431D01*
X116012597Y-65161027D01*
X115909437Y-65161027D01*
X115832310Y-65153431D01*
X115755181Y-65145834D01*
X115623230Y-65105807D01*
X115557254Y-65085794D01*
X115374845Y-64988294D01*
X115214963Y-64857081D01*
X115083750Y-64697199D01*
X114986250Y-64514790D01*
X114966237Y-64448814D01*
X114926210Y-64316863D01*
X114905937Y-64111027D01*
X114926210Y-63905191D01*
X114986250Y-63707265D01*
X114986250Y-63707264D01*
X115083750Y-63524855D01*
X115214963Y-63364973D01*
X115374845Y-63233760D01*
X115557254Y-63136260D01*
X115623230Y-63116247D01*
X115755181Y-63076220D01*
X115832310Y-63068624D01*
X115909437Y-63061027D01*
X116012597Y-63061027D01*
X116089724Y-63068624D01*
X116089724Y-63068624D01*
G37*
G36*
X113549724Y-63068624D02*
X113626853Y-63076220D01*
X113758804Y-63116247D01*
X113824780Y-63136260D01*
X114007189Y-63233760D01*
X114167071Y-63364973D01*
X114298284Y-63524855D01*
X114395784Y-63707264D01*
X114395784Y-63707265D01*
X114455824Y-63905191D01*
X114476097Y-64111027D01*
X114455824Y-64316863D01*
X114415797Y-64448814D01*
X114395784Y-64514790D01*
X114298284Y-64697199D01*
X114167071Y-64857081D01*
X114007189Y-64988294D01*
X113824780Y-65085794D01*
X113758804Y-65105807D01*
X113626853Y-65145834D01*
X113549724Y-65153431D01*
X113472597Y-65161027D01*
X113369437Y-65161027D01*
X113292310Y-65153431D01*
X113215181Y-65145834D01*
X113083230Y-65105807D01*
X113017254Y-65085794D01*
X112834845Y-64988294D01*
X112674963Y-64857081D01*
X112543750Y-64697199D01*
X112446250Y-64514790D01*
X112426237Y-64448814D01*
X112386210Y-64316863D01*
X112365937Y-64111027D01*
X112386210Y-63905191D01*
X112446250Y-63707265D01*
X112446250Y-63707264D01*
X112543750Y-63524855D01*
X112674963Y-63364973D01*
X112834845Y-63233760D01*
X113017254Y-63136260D01*
X113083230Y-63116247D01*
X113215181Y-63076220D01*
X113292310Y-63068624D01*
X113369437Y-63061027D01*
X113472597Y-63061027D01*
X113549724Y-63068624D01*
X113549724Y-63068624D01*
G37*
G36*
X111009724Y-63068624D02*
X111086853Y-63076220D01*
X111218804Y-63116247D01*
X111284780Y-63136260D01*
X111467189Y-63233760D01*
X111627071Y-63364973D01*
X111758284Y-63524855D01*
X111855784Y-63707264D01*
X111855784Y-63707265D01*
X111915824Y-63905191D01*
X111936097Y-64111027D01*
X111915824Y-64316863D01*
X111875797Y-64448814D01*
X111855784Y-64514790D01*
X111758284Y-64697199D01*
X111627071Y-64857081D01*
X111467189Y-64988294D01*
X111284780Y-65085794D01*
X111218804Y-65105807D01*
X111086853Y-65145834D01*
X111009724Y-65153431D01*
X110932597Y-65161027D01*
X110829437Y-65161027D01*
X110752310Y-65153431D01*
X110675181Y-65145834D01*
X110543230Y-65105807D01*
X110477254Y-65085794D01*
X110294845Y-64988294D01*
X110134963Y-64857081D01*
X110003750Y-64697199D01*
X109906250Y-64514790D01*
X109886237Y-64448814D01*
X109846210Y-64316863D01*
X109825937Y-64111027D01*
X109846210Y-63905191D01*
X109906250Y-63707265D01*
X109906250Y-63707264D01*
X110003750Y-63524855D01*
X110134963Y-63364973D01*
X110294845Y-63233760D01*
X110477254Y-63136260D01*
X110543230Y-63116247D01*
X110675181Y-63076220D01*
X110752310Y-63068624D01*
X110829437Y-63061027D01*
X110932597Y-63061027D01*
X111009724Y-63068624D01*
X111009724Y-63068624D01*
G37*
G36*
X108469724Y-63068624D02*
X108546853Y-63076220D01*
X108678804Y-63116247D01*
X108744780Y-63136260D01*
X108927189Y-63233760D01*
X109087071Y-63364973D01*
X109218284Y-63524855D01*
X109315784Y-63707264D01*
X109315784Y-63707265D01*
X109375824Y-63905191D01*
X109396097Y-64111027D01*
X109375824Y-64316863D01*
X109335797Y-64448814D01*
X109315784Y-64514790D01*
X109218284Y-64697199D01*
X109087071Y-64857081D01*
X108927189Y-64988294D01*
X108744780Y-65085794D01*
X108678804Y-65105807D01*
X108546853Y-65145834D01*
X108469724Y-65153431D01*
X108392597Y-65161027D01*
X108289437Y-65161027D01*
X108212310Y-65153431D01*
X108135181Y-65145834D01*
X108003230Y-65105807D01*
X107937254Y-65085794D01*
X107754845Y-64988294D01*
X107594963Y-64857081D01*
X107463750Y-64697199D01*
X107366250Y-64514790D01*
X107346237Y-64448814D01*
X107306210Y-64316863D01*
X107285937Y-64111027D01*
X107306210Y-63905191D01*
X107366250Y-63707265D01*
X107366250Y-63707264D01*
X107463750Y-63524855D01*
X107594963Y-63364973D01*
X107754845Y-63233760D01*
X107937254Y-63136260D01*
X108003230Y-63116247D01*
X108135181Y-63076220D01*
X108212310Y-63068624D01*
X108289437Y-63061027D01*
X108392597Y-63061027D01*
X108469724Y-63068624D01*
X108469724Y-63068624D01*
G37*
G36*
X105929724Y-63068624D02*
X106006853Y-63076220D01*
X106138804Y-63116247D01*
X106204780Y-63136260D01*
X106387189Y-63233760D01*
X106547071Y-63364973D01*
X106678284Y-63524855D01*
X106775784Y-63707264D01*
X106775784Y-63707265D01*
X106835824Y-63905191D01*
X106856097Y-64111027D01*
X106835824Y-64316863D01*
X106795797Y-64448814D01*
X106775784Y-64514790D01*
X106678284Y-64697199D01*
X106547071Y-64857081D01*
X106387189Y-64988294D01*
X106204780Y-65085794D01*
X106138804Y-65105807D01*
X106006853Y-65145834D01*
X105929724Y-65153431D01*
X105852597Y-65161027D01*
X105749437Y-65161027D01*
X105672310Y-65153431D01*
X105595181Y-65145834D01*
X105463230Y-65105807D01*
X105397254Y-65085794D01*
X105214845Y-64988294D01*
X105054963Y-64857081D01*
X104923750Y-64697199D01*
X104826250Y-64514790D01*
X104806237Y-64448814D01*
X104766210Y-64316863D01*
X104745937Y-64111027D01*
X104766210Y-63905191D01*
X104826250Y-63707265D01*
X104826250Y-63707264D01*
X104923750Y-63524855D01*
X105054963Y-63364973D01*
X105214845Y-63233760D01*
X105397254Y-63136260D01*
X105463230Y-63116247D01*
X105595181Y-63076220D01*
X105672310Y-63068624D01*
X105749437Y-63061027D01*
X105852597Y-63061027D01*
X105929724Y-63068624D01*
X105929724Y-63068624D01*
G37*
G36*
X103389724Y-63068624D02*
X103466853Y-63076220D01*
X103598804Y-63116247D01*
X103664780Y-63136260D01*
X103847189Y-63233760D01*
X104007071Y-63364973D01*
X104138284Y-63524855D01*
X104235784Y-63707264D01*
X104235784Y-63707265D01*
X104295824Y-63905191D01*
X104316097Y-64111027D01*
X104295824Y-64316863D01*
X104255797Y-64448814D01*
X104235784Y-64514790D01*
X104138284Y-64697199D01*
X104007071Y-64857081D01*
X103847189Y-64988294D01*
X103664780Y-65085794D01*
X103598804Y-65105807D01*
X103466853Y-65145834D01*
X103389724Y-65153431D01*
X103312597Y-65161027D01*
X103209437Y-65161027D01*
X103132310Y-65153431D01*
X103055181Y-65145834D01*
X102923230Y-65105807D01*
X102857254Y-65085794D01*
X102674845Y-64988294D01*
X102514963Y-64857081D01*
X102383750Y-64697199D01*
X102286250Y-64514790D01*
X102266237Y-64448814D01*
X102226210Y-64316863D01*
X102205937Y-64111027D01*
X102226210Y-63905191D01*
X102286250Y-63707265D01*
X102286250Y-63707264D01*
X102383750Y-63524855D01*
X102514963Y-63364973D01*
X102674845Y-63233760D01*
X102857254Y-63136260D01*
X102923230Y-63116247D01*
X103055181Y-63076220D01*
X103132310Y-63068624D01*
X103209437Y-63061027D01*
X103312597Y-63061027D01*
X103389724Y-63068624D01*
X103389724Y-63068624D01*
G37*
G36*
X100849724Y-63068624D02*
X100926853Y-63076220D01*
X101058804Y-63116247D01*
X101124780Y-63136260D01*
X101307189Y-63233760D01*
X101467071Y-63364973D01*
X101598284Y-63524855D01*
X101695784Y-63707264D01*
X101695784Y-63707265D01*
X101755824Y-63905191D01*
X101776097Y-64111027D01*
X101755824Y-64316863D01*
X101715797Y-64448814D01*
X101695784Y-64514790D01*
X101598284Y-64697199D01*
X101467071Y-64857081D01*
X101307189Y-64988294D01*
X101124780Y-65085794D01*
X101058804Y-65105807D01*
X100926853Y-65145834D01*
X100849724Y-65153431D01*
X100772597Y-65161027D01*
X100669437Y-65161027D01*
X100592310Y-65153431D01*
X100515181Y-65145834D01*
X100383230Y-65105807D01*
X100317254Y-65085794D01*
X100134845Y-64988294D01*
X99974963Y-64857081D01*
X99843750Y-64697199D01*
X99746250Y-64514790D01*
X99726237Y-64448814D01*
X99686210Y-64316863D01*
X99665937Y-64111027D01*
X99686210Y-63905191D01*
X99746250Y-63707265D01*
X99746250Y-63707264D01*
X99843750Y-63524855D01*
X99974963Y-63364973D01*
X100134845Y-63233760D01*
X100317254Y-63136260D01*
X100383230Y-63116247D01*
X100515181Y-63076220D01*
X100592310Y-63068624D01*
X100669437Y-63061027D01*
X100772597Y-63061027D01*
X100849724Y-63068624D01*
X100849724Y-63068624D01*
G37*
G36*
X123709724Y-63068624D02*
X123786853Y-63076220D01*
X123918804Y-63116247D01*
X123984780Y-63136260D01*
X124167189Y-63233760D01*
X124327071Y-63364973D01*
X124458284Y-63524855D01*
X124555784Y-63707264D01*
X124555784Y-63707265D01*
X124615824Y-63905191D01*
X124636097Y-64111027D01*
X124615824Y-64316863D01*
X124575797Y-64448814D01*
X124555784Y-64514790D01*
X124458284Y-64697199D01*
X124327071Y-64857081D01*
X124167189Y-64988294D01*
X123984780Y-65085794D01*
X123918804Y-65105807D01*
X123786853Y-65145834D01*
X123709724Y-65153431D01*
X123632597Y-65161027D01*
X123529437Y-65161027D01*
X123452310Y-65153431D01*
X123375181Y-65145834D01*
X123243230Y-65105807D01*
X123177254Y-65085794D01*
X122994845Y-64988294D01*
X122834963Y-64857081D01*
X122703750Y-64697199D01*
X122606250Y-64514790D01*
X122586237Y-64448814D01*
X122546210Y-64316863D01*
X122525937Y-64111027D01*
X122546210Y-63905191D01*
X122606250Y-63707265D01*
X122606250Y-63707264D01*
X122703750Y-63524855D01*
X122834963Y-63364973D01*
X122994845Y-63233760D01*
X123177254Y-63136260D01*
X123243230Y-63116247D01*
X123375181Y-63076220D01*
X123452310Y-63068624D01*
X123529437Y-63061027D01*
X123632597Y-63061027D01*
X123709724Y-63068624D01*
X123709724Y-63068624D01*
G37*
G36*
X121169724Y-63068624D02*
X121246853Y-63076220D01*
X121378804Y-63116247D01*
X121444780Y-63136260D01*
X121627189Y-63233760D01*
X121787071Y-63364973D01*
X121918284Y-63524855D01*
X122015784Y-63707264D01*
X122015784Y-63707265D01*
X122075824Y-63905191D01*
X122096097Y-64111027D01*
X122075824Y-64316863D01*
X122035797Y-64448814D01*
X122015784Y-64514790D01*
X121918284Y-64697199D01*
X121787071Y-64857081D01*
X121627189Y-64988294D01*
X121444780Y-65085794D01*
X121378804Y-65105807D01*
X121246853Y-65145834D01*
X121169724Y-65153431D01*
X121092597Y-65161027D01*
X120989437Y-65161027D01*
X120912310Y-65153431D01*
X120835181Y-65145834D01*
X120703230Y-65105807D01*
X120637254Y-65085794D01*
X120454845Y-64988294D01*
X120294963Y-64857081D01*
X120163750Y-64697199D01*
X120066250Y-64514790D01*
X120046237Y-64448814D01*
X120006210Y-64316863D01*
X119985937Y-64111027D01*
X120006210Y-63905191D01*
X120066250Y-63707265D01*
X120066250Y-63707264D01*
X120163750Y-63524855D01*
X120294963Y-63364973D01*
X120454845Y-63233760D01*
X120637254Y-63136260D01*
X120703230Y-63116247D01*
X120835181Y-63076220D01*
X120912310Y-63068624D01*
X120989437Y-63061027D01*
X121092597Y-63061027D01*
X121169724Y-63068624D01*
X121169724Y-63068624D01*
G37*
M02*
