G04 #@! TF.GenerationSoftware,KiCad,Pcbnew,5.0.2-bee76a0~70~ubuntu18.04.1*
G04 #@! TF.CreationDate,2019-05-09T10:07:15+02:00*
G04 #@! TF.ProjectId,smartcard,736d6172-7463-4617-9264-2e6b69636164,rev?*
G04 #@! TF.SameCoordinates,Original*
G04 #@! TF.FileFunction,Paste,Top*
G04 #@! TF.FilePolarity,Positive*
%FSLAX46Y46*%
G04 Gerber Fmt 4.6, Leading zero omitted, Abs format (unit mm)*
G04 Created by KiCad (PCBNEW 5.0.2-bee76a0~70~ubuntu18.04.1) date jeu. 09 mai 2019 10:07:15 CEST*
%MOMM*%
%LPD*%
G01*
G04 APERTURE LIST*
%ADD10C,0.100000*%
%ADD11C,0.875000*%
G04 APERTURE END LIST*
D10*
G04 #@! TO.C,R2*
G36*
X99528708Y-137057080D02*
X99549943Y-137060230D01*
X99570767Y-137065446D01*
X99590979Y-137072678D01*
X99610385Y-137081857D01*
X99628798Y-137092893D01*
X99646041Y-137105681D01*
X99661947Y-137120097D01*
X99676363Y-137136003D01*
X99689151Y-137153246D01*
X99700187Y-137171659D01*
X99709366Y-137191065D01*
X99716598Y-137211277D01*
X99721814Y-137232101D01*
X99724964Y-137253336D01*
X99726017Y-137274777D01*
X99726017Y-137787277D01*
X99724964Y-137808718D01*
X99721814Y-137829953D01*
X99716598Y-137850777D01*
X99709366Y-137870989D01*
X99700187Y-137890395D01*
X99689151Y-137908808D01*
X99676363Y-137926051D01*
X99661947Y-137941957D01*
X99646041Y-137956373D01*
X99628798Y-137969161D01*
X99610385Y-137980197D01*
X99590979Y-137989376D01*
X99570767Y-137996608D01*
X99549943Y-138001824D01*
X99528708Y-138004974D01*
X99507267Y-138006027D01*
X99069767Y-138006027D01*
X99048326Y-138004974D01*
X99027091Y-138001824D01*
X99006267Y-137996608D01*
X98986055Y-137989376D01*
X98966649Y-137980197D01*
X98948236Y-137969161D01*
X98930993Y-137956373D01*
X98915087Y-137941957D01*
X98900671Y-137926051D01*
X98887883Y-137908808D01*
X98876847Y-137890395D01*
X98867668Y-137870989D01*
X98860436Y-137850777D01*
X98855220Y-137829953D01*
X98852070Y-137808718D01*
X98851017Y-137787277D01*
X98851017Y-137274777D01*
X98852070Y-137253336D01*
X98855220Y-137232101D01*
X98860436Y-137211277D01*
X98867668Y-137191065D01*
X98876847Y-137171659D01*
X98887883Y-137153246D01*
X98900671Y-137136003D01*
X98915087Y-137120097D01*
X98930993Y-137105681D01*
X98948236Y-137092893D01*
X98966649Y-137081857D01*
X98986055Y-137072678D01*
X99006267Y-137065446D01*
X99027091Y-137060230D01*
X99048326Y-137057080D01*
X99069767Y-137056027D01*
X99507267Y-137056027D01*
X99528708Y-137057080D01*
X99528708Y-137057080D01*
G37*
D11*
X99288517Y-137531027D03*
D10*
G36*
X97953708Y-137057080D02*
X97974943Y-137060230D01*
X97995767Y-137065446D01*
X98015979Y-137072678D01*
X98035385Y-137081857D01*
X98053798Y-137092893D01*
X98071041Y-137105681D01*
X98086947Y-137120097D01*
X98101363Y-137136003D01*
X98114151Y-137153246D01*
X98125187Y-137171659D01*
X98134366Y-137191065D01*
X98141598Y-137211277D01*
X98146814Y-137232101D01*
X98149964Y-137253336D01*
X98151017Y-137274777D01*
X98151017Y-137787277D01*
X98149964Y-137808718D01*
X98146814Y-137829953D01*
X98141598Y-137850777D01*
X98134366Y-137870989D01*
X98125187Y-137890395D01*
X98114151Y-137908808D01*
X98101363Y-137926051D01*
X98086947Y-137941957D01*
X98071041Y-137956373D01*
X98053798Y-137969161D01*
X98035385Y-137980197D01*
X98015979Y-137989376D01*
X97995767Y-137996608D01*
X97974943Y-138001824D01*
X97953708Y-138004974D01*
X97932267Y-138006027D01*
X97494767Y-138006027D01*
X97473326Y-138004974D01*
X97452091Y-138001824D01*
X97431267Y-137996608D01*
X97411055Y-137989376D01*
X97391649Y-137980197D01*
X97373236Y-137969161D01*
X97355993Y-137956373D01*
X97340087Y-137941957D01*
X97325671Y-137926051D01*
X97312883Y-137908808D01*
X97301847Y-137890395D01*
X97292668Y-137870989D01*
X97285436Y-137850777D01*
X97280220Y-137829953D01*
X97277070Y-137808718D01*
X97276017Y-137787277D01*
X97276017Y-137274777D01*
X97277070Y-137253336D01*
X97280220Y-137232101D01*
X97285436Y-137211277D01*
X97292668Y-137191065D01*
X97301847Y-137171659D01*
X97312883Y-137153246D01*
X97325671Y-137136003D01*
X97340087Y-137120097D01*
X97355993Y-137105681D01*
X97373236Y-137092893D01*
X97391649Y-137081857D01*
X97411055Y-137072678D01*
X97431267Y-137065446D01*
X97452091Y-137060230D01*
X97473326Y-137057080D01*
X97494767Y-137056027D01*
X97932267Y-137056027D01*
X97953708Y-137057080D01*
X97953708Y-137057080D01*
G37*
D11*
X97713517Y-137531027D03*
G04 #@! TD*
D10*
G04 #@! TO.C,R1*
G36*
X93378708Y-112382080D02*
X93399943Y-112385230D01*
X93420767Y-112390446D01*
X93440979Y-112397678D01*
X93460385Y-112406857D01*
X93478798Y-112417893D01*
X93496041Y-112430681D01*
X93511947Y-112445097D01*
X93526363Y-112461003D01*
X93539151Y-112478246D01*
X93550187Y-112496659D01*
X93559366Y-112516065D01*
X93566598Y-112536277D01*
X93571814Y-112557101D01*
X93574964Y-112578336D01*
X93576017Y-112599777D01*
X93576017Y-113037277D01*
X93574964Y-113058718D01*
X93571814Y-113079953D01*
X93566598Y-113100777D01*
X93559366Y-113120989D01*
X93550187Y-113140395D01*
X93539151Y-113158808D01*
X93526363Y-113176051D01*
X93511947Y-113191957D01*
X93496041Y-113206373D01*
X93478798Y-113219161D01*
X93460385Y-113230197D01*
X93440979Y-113239376D01*
X93420767Y-113246608D01*
X93399943Y-113251824D01*
X93378708Y-113254974D01*
X93357267Y-113256027D01*
X92844767Y-113256027D01*
X92823326Y-113254974D01*
X92802091Y-113251824D01*
X92781267Y-113246608D01*
X92761055Y-113239376D01*
X92741649Y-113230197D01*
X92723236Y-113219161D01*
X92705993Y-113206373D01*
X92690087Y-113191957D01*
X92675671Y-113176051D01*
X92662883Y-113158808D01*
X92651847Y-113140395D01*
X92642668Y-113120989D01*
X92635436Y-113100777D01*
X92630220Y-113079953D01*
X92627070Y-113058718D01*
X92626017Y-113037277D01*
X92626017Y-112599777D01*
X92627070Y-112578336D01*
X92630220Y-112557101D01*
X92635436Y-112536277D01*
X92642668Y-112516065D01*
X92651847Y-112496659D01*
X92662883Y-112478246D01*
X92675671Y-112461003D01*
X92690087Y-112445097D01*
X92705993Y-112430681D01*
X92723236Y-112417893D01*
X92741649Y-112406857D01*
X92761055Y-112397678D01*
X92781267Y-112390446D01*
X92802091Y-112385230D01*
X92823326Y-112382080D01*
X92844767Y-112381027D01*
X93357267Y-112381027D01*
X93378708Y-112382080D01*
X93378708Y-112382080D01*
G37*
D11*
X93101017Y-112818527D03*
D10*
G36*
X93378708Y-110807080D02*
X93399943Y-110810230D01*
X93420767Y-110815446D01*
X93440979Y-110822678D01*
X93460385Y-110831857D01*
X93478798Y-110842893D01*
X93496041Y-110855681D01*
X93511947Y-110870097D01*
X93526363Y-110886003D01*
X93539151Y-110903246D01*
X93550187Y-110921659D01*
X93559366Y-110941065D01*
X93566598Y-110961277D01*
X93571814Y-110982101D01*
X93574964Y-111003336D01*
X93576017Y-111024777D01*
X93576017Y-111462277D01*
X93574964Y-111483718D01*
X93571814Y-111504953D01*
X93566598Y-111525777D01*
X93559366Y-111545989D01*
X93550187Y-111565395D01*
X93539151Y-111583808D01*
X93526363Y-111601051D01*
X93511947Y-111616957D01*
X93496041Y-111631373D01*
X93478798Y-111644161D01*
X93460385Y-111655197D01*
X93440979Y-111664376D01*
X93420767Y-111671608D01*
X93399943Y-111676824D01*
X93378708Y-111679974D01*
X93357267Y-111681027D01*
X92844767Y-111681027D01*
X92823326Y-111679974D01*
X92802091Y-111676824D01*
X92781267Y-111671608D01*
X92761055Y-111664376D01*
X92741649Y-111655197D01*
X92723236Y-111644161D01*
X92705993Y-111631373D01*
X92690087Y-111616957D01*
X92675671Y-111601051D01*
X92662883Y-111583808D01*
X92651847Y-111565395D01*
X92642668Y-111545989D01*
X92635436Y-111525777D01*
X92630220Y-111504953D01*
X92627070Y-111483718D01*
X92626017Y-111462277D01*
X92626017Y-111024777D01*
X92627070Y-111003336D01*
X92630220Y-110982101D01*
X92635436Y-110961277D01*
X92642668Y-110941065D01*
X92651847Y-110921659D01*
X92662883Y-110903246D01*
X92675671Y-110886003D01*
X92690087Y-110870097D01*
X92705993Y-110855681D01*
X92723236Y-110842893D01*
X92741649Y-110831857D01*
X92761055Y-110822678D01*
X92781267Y-110815446D01*
X92802091Y-110810230D01*
X92823326Y-110807080D01*
X92844767Y-110806027D01*
X93357267Y-110806027D01*
X93378708Y-110807080D01*
X93378708Y-110807080D01*
G37*
D11*
X93101017Y-111243527D03*
G04 #@! TD*
M02*
