G04 #@! TF.GenerationSoftware,KiCad,Pcbnew,5.0.2-bee76a0~70~ubuntu18.04.1*
G04 #@! TF.CreationDate,2019-07-23T10:59:18+02:00*
G04 #@! TF.ProjectId,smartcard,736d6172-7463-4617-9264-2e6b69636164,rev?*
G04 #@! TF.SameCoordinates,Original*
G04 #@! TF.FileFunction,Legend,Top*
G04 #@! TF.FilePolarity,Positive*
%FSLAX46Y46*%
G04 Gerber Fmt 4.6, Leading zero omitted, Abs format (unit mm)*
G04 Created by KiCad (PCBNEW 5.0.2-bee76a0~70~ubuntu18.04.1) date mar. 23 juil. 2019 10:59:18 CEST*
%MOMM*%
%LPD*%
G01*
G04 APERTURE LIST*
%ADD10C,0.300000*%
%ADD11C,0.150000*%
%ADD12C,0.250000*%
%ADD13C,0.010000*%
%ADD14C,0.120000*%
G04 APERTURE END LIST*
D10*
X127304588Y-122878884D02*
X125804588Y-122878884D01*
X126304588Y-122164598D02*
X127304588Y-122164598D01*
X126447445Y-122164598D02*
X126376017Y-122093169D01*
X126304588Y-121950312D01*
X126304588Y-121736027D01*
X126376017Y-121593169D01*
X126518874Y-121521741D01*
X127304588Y-121521741D01*
X127233159Y-120878884D02*
X127304588Y-120736027D01*
X127304588Y-120450312D01*
X127233159Y-120307455D01*
X127090302Y-120236027D01*
X127018874Y-120236027D01*
X126876017Y-120307455D01*
X126804588Y-120450312D01*
X126804588Y-120664598D01*
X126733159Y-120807455D01*
X126590302Y-120878884D01*
X126518874Y-120878884D01*
X126376017Y-120807455D01*
X126304588Y-120664598D01*
X126304588Y-120450312D01*
X126376017Y-120307455D01*
X127233159Y-119021741D02*
X127304588Y-119164598D01*
X127304588Y-119450312D01*
X127233159Y-119593169D01*
X127090302Y-119664598D01*
X126518874Y-119664598D01*
X126376017Y-119593169D01*
X126304588Y-119450312D01*
X126304588Y-119164598D01*
X126376017Y-119021741D01*
X126518874Y-118950312D01*
X126661731Y-118950312D01*
X126804588Y-119664598D01*
X127304588Y-118307455D02*
X126304588Y-118307455D01*
X126590302Y-118307455D02*
X126447445Y-118236027D01*
X126376017Y-118164598D01*
X126304588Y-118021741D01*
X126304588Y-117878884D01*
X126304588Y-117593169D02*
X126304588Y-117021741D01*
X125804588Y-117378884D02*
X127090302Y-117378884D01*
X127233159Y-117307455D01*
X127304588Y-117164598D01*
X127304588Y-117021741D01*
X126304588Y-115521741D02*
X127304588Y-115164598D01*
X126304588Y-114807455D02*
X127304588Y-115164598D01*
X127661731Y-115307455D01*
X127733159Y-115378884D01*
X127804588Y-115521741D01*
X127304588Y-114021741D02*
X127233159Y-114164598D01*
X127161731Y-114236027D01*
X127018874Y-114307455D01*
X126590302Y-114307455D01*
X126447445Y-114236027D01*
X126376017Y-114164598D01*
X126304588Y-114021741D01*
X126304588Y-113807455D01*
X126376017Y-113664598D01*
X126447445Y-113593169D01*
X126590302Y-113521741D01*
X127018874Y-113521741D01*
X127161731Y-113593169D01*
X127233159Y-113664598D01*
X127304588Y-113807455D01*
X127304588Y-114021741D01*
X126304588Y-112236027D02*
X127304588Y-112236027D01*
X126304588Y-112878884D02*
X127090302Y-112878884D01*
X127233159Y-112807455D01*
X127304588Y-112664598D01*
X127304588Y-112450312D01*
X127233159Y-112307455D01*
X127161731Y-112236027D01*
X127304588Y-111521741D02*
X126304588Y-111521741D01*
X126590302Y-111521741D02*
X126447445Y-111450312D01*
X126376017Y-111378884D01*
X126304588Y-111236027D01*
X126304588Y-111093169D01*
X129783159Y-122950312D02*
X129854588Y-122736027D01*
X129854588Y-122378884D01*
X129783159Y-122236027D01*
X129711731Y-122164598D01*
X129568874Y-122093169D01*
X129426017Y-122093169D01*
X129283159Y-122164598D01*
X129211731Y-122236027D01*
X129140302Y-122378884D01*
X129068874Y-122664598D01*
X128997445Y-122807455D01*
X128926017Y-122878884D01*
X128783159Y-122950312D01*
X128640302Y-122950312D01*
X128497445Y-122878884D01*
X128426017Y-122807455D01*
X128354588Y-122664598D01*
X128354588Y-122307455D01*
X128426017Y-122093169D01*
X129854588Y-121450312D02*
X128854588Y-121450312D01*
X128997445Y-121450312D02*
X128926017Y-121378884D01*
X128854588Y-121236027D01*
X128854588Y-121021741D01*
X128926017Y-120878884D01*
X129068874Y-120807455D01*
X129854588Y-120807455D01*
X129068874Y-120807455D02*
X128926017Y-120736027D01*
X128854588Y-120593169D01*
X128854588Y-120378884D01*
X128926017Y-120236027D01*
X129068874Y-120164598D01*
X129854588Y-120164598D01*
X129854588Y-118807455D02*
X129068874Y-118807455D01*
X128926017Y-118878884D01*
X128854588Y-119021741D01*
X128854588Y-119307455D01*
X128926017Y-119450312D01*
X129783159Y-118807455D02*
X129854588Y-118950312D01*
X129854588Y-119307455D01*
X129783159Y-119450312D01*
X129640302Y-119521741D01*
X129497445Y-119521741D01*
X129354588Y-119450312D01*
X129283159Y-119307455D01*
X129283159Y-118950312D01*
X129211731Y-118807455D01*
X129854588Y-118093169D02*
X128854588Y-118093169D01*
X129140302Y-118093169D02*
X128997445Y-118021741D01*
X128926017Y-117950312D01*
X128854588Y-117807455D01*
X128854588Y-117664598D01*
X128854588Y-117378884D02*
X128854588Y-116807455D01*
X128354588Y-117164598D02*
X129640302Y-117164598D01*
X129783159Y-117093169D01*
X129854588Y-116950312D01*
X129854588Y-116807455D01*
X129783159Y-115664598D02*
X129854588Y-115807455D01*
X129854588Y-116093169D01*
X129783159Y-116236027D01*
X129711731Y-116307455D01*
X129568874Y-116378884D01*
X129140302Y-116378884D01*
X128997445Y-116307455D01*
X128926017Y-116236027D01*
X128854588Y-116093169D01*
X128854588Y-115807455D01*
X128926017Y-115664598D01*
X129854588Y-114378884D02*
X129068874Y-114378884D01*
X128926017Y-114450312D01*
X128854588Y-114593169D01*
X128854588Y-114878884D01*
X128926017Y-115021741D01*
X129783159Y-114378884D02*
X129854588Y-114521741D01*
X129854588Y-114878884D01*
X129783159Y-115021741D01*
X129640302Y-115093169D01*
X129497445Y-115093169D01*
X129354588Y-115021741D01*
X129283159Y-114878884D01*
X129283159Y-114521741D01*
X129211731Y-114378884D01*
X129854588Y-113664598D02*
X128854588Y-113664598D01*
X129140302Y-113664598D02*
X128997445Y-113593169D01*
X128926017Y-113521741D01*
X128854588Y-113378884D01*
X128854588Y-113236027D01*
X129854588Y-112093169D02*
X128354588Y-112093169D01*
X129783159Y-112093169D02*
X129854588Y-112236027D01*
X129854588Y-112521741D01*
X129783159Y-112664598D01*
X129711731Y-112736027D01*
X129568874Y-112807455D01*
X129140302Y-112807455D01*
X128997445Y-112736027D01*
X128926017Y-112664598D01*
X128854588Y-112521741D01*
X128854588Y-112236027D01*
X128926017Y-112093169D01*
D11*
X101060302Y-141304955D02*
X100310302Y-141304955D01*
X100310302Y-141126384D01*
X100346017Y-141019241D01*
X100417445Y-140947812D01*
X100488874Y-140912098D01*
X100631731Y-140876384D01*
X100738874Y-140876384D01*
X100881731Y-140912098D01*
X100953159Y-140947812D01*
X101024588Y-141019241D01*
X101060302Y-141126384D01*
X101060302Y-141304955D01*
X100310302Y-140412098D02*
X100310302Y-140340669D01*
X100346017Y-140269241D01*
X100381731Y-140233527D01*
X100453159Y-140197812D01*
X100596017Y-140162098D01*
X100774588Y-140162098D01*
X100917445Y-140197812D01*
X100988874Y-140233527D01*
X101024588Y-140269241D01*
X101060302Y-140340669D01*
X101060302Y-140412098D01*
X101024588Y-140483527D01*
X100988874Y-140519241D01*
X100917445Y-140554955D01*
X100774588Y-140590669D01*
X100596017Y-140590669D01*
X100453159Y-140554955D01*
X100381731Y-140519241D01*
X100346017Y-140483527D01*
X100310302Y-140412098D01*
X103600302Y-141304955D02*
X102850302Y-141304955D01*
X102850302Y-141126384D01*
X102886017Y-141019241D01*
X102957445Y-140947812D01*
X103028874Y-140912098D01*
X103171731Y-140876384D01*
X103278874Y-140876384D01*
X103421731Y-140912098D01*
X103493159Y-140947812D01*
X103564588Y-141019241D01*
X103600302Y-141126384D01*
X103600302Y-141304955D01*
X102921731Y-140590669D02*
X102886017Y-140554955D01*
X102850302Y-140483527D01*
X102850302Y-140304955D01*
X102886017Y-140233527D01*
X102921731Y-140197812D01*
X102993159Y-140162098D01*
X103064588Y-140162098D01*
X103171731Y-140197812D01*
X103600302Y-140626384D01*
X103600302Y-140162098D01*
X106140302Y-141304955D02*
X105390302Y-141304955D01*
X105390302Y-141126384D01*
X105426017Y-141019241D01*
X105497445Y-140947812D01*
X105568874Y-140912098D01*
X105711731Y-140876384D01*
X105818874Y-140876384D01*
X105961731Y-140912098D01*
X106033159Y-140947812D01*
X106104588Y-141019241D01*
X106140302Y-141126384D01*
X106140302Y-141304955D01*
X105640302Y-140233527D02*
X106140302Y-140233527D01*
X105354588Y-140412098D02*
X105890302Y-140590669D01*
X105890302Y-140126384D01*
X108680302Y-141304955D02*
X107930302Y-141304955D01*
X107930302Y-141126384D01*
X107966017Y-141019241D01*
X108037445Y-140947812D01*
X108108874Y-140912098D01*
X108251731Y-140876384D01*
X108358874Y-140876384D01*
X108501731Y-140912098D01*
X108573159Y-140947812D01*
X108644588Y-141019241D01*
X108680302Y-141126384D01*
X108680302Y-141304955D01*
X107930302Y-140233527D02*
X107930302Y-140376384D01*
X107966017Y-140447812D01*
X108001731Y-140483527D01*
X108108874Y-140554955D01*
X108251731Y-140590669D01*
X108537445Y-140590669D01*
X108608874Y-140554955D01*
X108644588Y-140519241D01*
X108680302Y-140447812D01*
X108680302Y-140304955D01*
X108644588Y-140233527D01*
X108608874Y-140197812D01*
X108537445Y-140162098D01*
X108358874Y-140162098D01*
X108287445Y-140197812D01*
X108251731Y-140233527D01*
X108216017Y-140304955D01*
X108216017Y-140447812D01*
X108251731Y-140519241D01*
X108287445Y-140554955D01*
X108358874Y-140590669D01*
X111220302Y-141304955D02*
X110470302Y-141304955D01*
X110470302Y-141126384D01*
X110506017Y-141019241D01*
X110577445Y-140947812D01*
X110648874Y-140912098D01*
X110791731Y-140876384D01*
X110898874Y-140876384D01*
X111041731Y-140912098D01*
X111113159Y-140947812D01*
X111184588Y-141019241D01*
X111220302Y-141126384D01*
X111220302Y-141304955D01*
X110791731Y-140447812D02*
X110756017Y-140519241D01*
X110720302Y-140554955D01*
X110648874Y-140590669D01*
X110613159Y-140590669D01*
X110541731Y-140554955D01*
X110506017Y-140519241D01*
X110470302Y-140447812D01*
X110470302Y-140304955D01*
X110506017Y-140233527D01*
X110541731Y-140197812D01*
X110613159Y-140162098D01*
X110648874Y-140162098D01*
X110720302Y-140197812D01*
X110756017Y-140233527D01*
X110791731Y-140304955D01*
X110791731Y-140447812D01*
X110827445Y-140519241D01*
X110863159Y-140554955D01*
X110934588Y-140590669D01*
X111077445Y-140590669D01*
X111148874Y-140554955D01*
X111184588Y-140519241D01*
X111220302Y-140447812D01*
X111220302Y-140304955D01*
X111184588Y-140233527D01*
X111148874Y-140197812D01*
X111077445Y-140162098D01*
X110934588Y-140162098D01*
X110863159Y-140197812D01*
X110827445Y-140233527D01*
X110791731Y-140304955D01*
X113760302Y-141304955D02*
X113010302Y-141304955D01*
X113010302Y-141126384D01*
X113046017Y-141019241D01*
X113117445Y-140947812D01*
X113188874Y-140912098D01*
X113331731Y-140876384D01*
X113438874Y-140876384D01*
X113581731Y-140912098D01*
X113653159Y-140947812D01*
X113724588Y-141019241D01*
X113760302Y-141126384D01*
X113760302Y-141304955D01*
X113760302Y-140162098D02*
X113760302Y-140590669D01*
X113760302Y-140376384D02*
X113010302Y-140376384D01*
X113117445Y-140447812D01*
X113188874Y-140519241D01*
X113224588Y-140590669D01*
X113010302Y-139697812D02*
X113010302Y-139626384D01*
X113046017Y-139554955D01*
X113081731Y-139519241D01*
X113153159Y-139483527D01*
X113296017Y-139447812D01*
X113474588Y-139447812D01*
X113617445Y-139483527D01*
X113688874Y-139519241D01*
X113724588Y-139554955D01*
X113760302Y-139626384D01*
X113760302Y-139697812D01*
X113724588Y-139769241D01*
X113688874Y-139804955D01*
X113617445Y-139840669D01*
X113474588Y-139876384D01*
X113296017Y-139876384D01*
X113153159Y-139840669D01*
X113081731Y-139804955D01*
X113046017Y-139769241D01*
X113010302Y-139697812D01*
X116300302Y-141304955D02*
X115550302Y-141304955D01*
X115550302Y-141126384D01*
X115586017Y-141019241D01*
X115657445Y-140947812D01*
X115728874Y-140912098D01*
X115871731Y-140876384D01*
X115978874Y-140876384D01*
X116121731Y-140912098D01*
X116193159Y-140947812D01*
X116264588Y-141019241D01*
X116300302Y-141126384D01*
X116300302Y-141304955D01*
X116300302Y-140162098D02*
X116300302Y-140590669D01*
X116300302Y-140376384D02*
X115550302Y-140376384D01*
X115657445Y-140447812D01*
X115728874Y-140519241D01*
X115764588Y-140590669D01*
X115621731Y-139876384D02*
X115586017Y-139840669D01*
X115550302Y-139769241D01*
X115550302Y-139590669D01*
X115586017Y-139519241D01*
X115621731Y-139483527D01*
X115693159Y-139447812D01*
X115764588Y-139447812D01*
X115871731Y-139483527D01*
X116300302Y-139912098D01*
X116300302Y-139447812D01*
X118840302Y-141304955D02*
X118090302Y-141304955D01*
X118090302Y-141126384D01*
X118126017Y-141019241D01*
X118197445Y-140947812D01*
X118268874Y-140912098D01*
X118411731Y-140876384D01*
X118518874Y-140876384D01*
X118661731Y-140912098D01*
X118733159Y-140947812D01*
X118804588Y-141019241D01*
X118840302Y-141126384D01*
X118840302Y-141304955D01*
X118840302Y-140162098D02*
X118840302Y-140590669D01*
X118840302Y-140376384D02*
X118090302Y-140376384D01*
X118197445Y-140447812D01*
X118268874Y-140519241D01*
X118304588Y-140590669D01*
X118340302Y-139519241D02*
X118840302Y-139519241D01*
X118054588Y-139697812D02*
X118590302Y-139876384D01*
X118590302Y-139412098D01*
X120630302Y-141412098D02*
X121380302Y-141162098D01*
X120630302Y-140912098D01*
X121380302Y-140662098D02*
X120630302Y-140662098D01*
X120630302Y-140483527D01*
X120666017Y-140376384D01*
X120737445Y-140304955D01*
X120808874Y-140269241D01*
X120951731Y-140233527D01*
X121058874Y-140233527D01*
X121201731Y-140269241D01*
X121273159Y-140304955D01*
X121344588Y-140376384D01*
X121380302Y-140483527D01*
X121380302Y-140662098D01*
X121380302Y-139912098D02*
X120630302Y-139912098D01*
X120630302Y-139733527D01*
X120666017Y-139626384D01*
X120737445Y-139554955D01*
X120808874Y-139519241D01*
X120951731Y-139483527D01*
X121058874Y-139483527D01*
X121201731Y-139519241D01*
X121273159Y-139554955D01*
X121344588Y-139626384D01*
X121380302Y-139733527D01*
X121380302Y-139912098D01*
X123170302Y-141412098D02*
X123920302Y-141162098D01*
X123170302Y-140912098D01*
X123920302Y-140662098D02*
X123170302Y-140662098D01*
X123170302Y-140483527D01*
X123206017Y-140376384D01*
X123277445Y-140304955D01*
X123348874Y-140269241D01*
X123491731Y-140233527D01*
X123598874Y-140233527D01*
X123741731Y-140269241D01*
X123813159Y-140304955D01*
X123884588Y-140376384D01*
X123920302Y-140483527D01*
X123920302Y-140662098D01*
X123920302Y-139912098D02*
X123170302Y-139912098D01*
X123170302Y-139733527D01*
X123206017Y-139626384D01*
X123277445Y-139554955D01*
X123348874Y-139519241D01*
X123491731Y-139483527D01*
X123598874Y-139483527D01*
X123741731Y-139519241D01*
X123813159Y-139554955D01*
X123884588Y-139626384D01*
X123920302Y-139733527D01*
X123920302Y-139912098D01*
X123706017Y-139197812D02*
X123706017Y-138840669D01*
X123920302Y-139269241D02*
X123170302Y-139019241D01*
X123920302Y-138769241D01*
X123206017Y-149115669D02*
X123170302Y-149187098D01*
X123170302Y-149294241D01*
X123206017Y-149401384D01*
X123277445Y-149472812D01*
X123348874Y-149508527D01*
X123491731Y-149544241D01*
X123598874Y-149544241D01*
X123741731Y-149508527D01*
X123813159Y-149472812D01*
X123884588Y-149401384D01*
X123920302Y-149294241D01*
X123920302Y-149222812D01*
X123884588Y-149115669D01*
X123848874Y-149079955D01*
X123598874Y-149079955D01*
X123598874Y-149222812D01*
X123920302Y-148758527D02*
X123170302Y-148758527D01*
X123920302Y-148329955D01*
X123170302Y-148329955D01*
X123920302Y-147972812D02*
X123170302Y-147972812D01*
X123170302Y-147794241D01*
X123206017Y-147687098D01*
X123277445Y-147615669D01*
X123348874Y-147579955D01*
X123491731Y-147544241D01*
X123598874Y-147544241D01*
X123741731Y-147579955D01*
X123813159Y-147615669D01*
X123884588Y-147687098D01*
X123920302Y-147794241D01*
X123920302Y-147972812D01*
X123706017Y-147258527D02*
X123706017Y-146901384D01*
X123920302Y-147329955D02*
X123170302Y-147079955D01*
X123920302Y-146829955D01*
X120666017Y-148472812D02*
X120630302Y-148544241D01*
X120630302Y-148651384D01*
X120666017Y-148758527D01*
X120737445Y-148829955D01*
X120808874Y-148865669D01*
X120951731Y-148901384D01*
X121058874Y-148901384D01*
X121201731Y-148865669D01*
X121273159Y-148829955D01*
X121344588Y-148758527D01*
X121380302Y-148651384D01*
X121380302Y-148579955D01*
X121344588Y-148472812D01*
X121308874Y-148437098D01*
X121058874Y-148437098D01*
X121058874Y-148579955D01*
X121380302Y-148115669D02*
X120630302Y-148115669D01*
X121380302Y-147687098D01*
X120630302Y-147687098D01*
X121380302Y-147329955D02*
X120630302Y-147329955D01*
X120630302Y-147151384D01*
X120666017Y-147044241D01*
X120737445Y-146972812D01*
X120808874Y-146937098D01*
X120951731Y-146901384D01*
X121058874Y-146901384D01*
X121201731Y-146937098D01*
X121273159Y-146972812D01*
X121344588Y-147044241D01*
X121380302Y-147151384D01*
X121380302Y-147329955D01*
X118840302Y-148758527D02*
X118090302Y-148758527D01*
X118090302Y-148579955D01*
X118126017Y-148472812D01*
X118197445Y-148401384D01*
X118268874Y-148365669D01*
X118411731Y-148329955D01*
X118518874Y-148329955D01*
X118661731Y-148365669D01*
X118733159Y-148401384D01*
X118804588Y-148472812D01*
X118840302Y-148579955D01*
X118840302Y-148758527D01*
X118840302Y-147615669D02*
X118840302Y-148044241D01*
X118840302Y-147829955D02*
X118090302Y-147829955D01*
X118197445Y-147901384D01*
X118268874Y-147972812D01*
X118304588Y-148044241D01*
X118090302Y-146937098D02*
X118090302Y-147294241D01*
X118447445Y-147329955D01*
X118411731Y-147294241D01*
X118376017Y-147222812D01*
X118376017Y-147044241D01*
X118411731Y-146972812D01*
X118447445Y-146937098D01*
X118518874Y-146901384D01*
X118697445Y-146901384D01*
X118768874Y-146937098D01*
X118804588Y-146972812D01*
X118840302Y-147044241D01*
X118840302Y-147222812D01*
X118804588Y-147294241D01*
X118768874Y-147329955D01*
X116300302Y-148758527D02*
X115550302Y-148758527D01*
X115550302Y-148579955D01*
X115586017Y-148472812D01*
X115657445Y-148401384D01*
X115728874Y-148365669D01*
X115871731Y-148329955D01*
X115978874Y-148329955D01*
X116121731Y-148365669D01*
X116193159Y-148401384D01*
X116264588Y-148472812D01*
X116300302Y-148579955D01*
X116300302Y-148758527D01*
X116300302Y-147615669D02*
X116300302Y-148044241D01*
X116300302Y-147829955D02*
X115550302Y-147829955D01*
X115657445Y-147901384D01*
X115728874Y-147972812D01*
X115764588Y-148044241D01*
X115550302Y-147365669D02*
X115550302Y-146901384D01*
X115836017Y-147151384D01*
X115836017Y-147044241D01*
X115871731Y-146972812D01*
X115907445Y-146937098D01*
X115978874Y-146901384D01*
X116157445Y-146901384D01*
X116228874Y-146937098D01*
X116264588Y-146972812D01*
X116300302Y-147044241D01*
X116300302Y-147258527D01*
X116264588Y-147329955D01*
X116228874Y-147365669D01*
X113760302Y-148758527D02*
X113010302Y-148758527D01*
X113010302Y-148579955D01*
X113046017Y-148472812D01*
X113117445Y-148401384D01*
X113188874Y-148365669D01*
X113331731Y-148329955D01*
X113438874Y-148329955D01*
X113581731Y-148365669D01*
X113653159Y-148401384D01*
X113724588Y-148472812D01*
X113760302Y-148579955D01*
X113760302Y-148758527D01*
X113760302Y-147615669D02*
X113760302Y-148044241D01*
X113760302Y-147829955D02*
X113010302Y-147829955D01*
X113117445Y-147901384D01*
X113188874Y-147972812D01*
X113224588Y-148044241D01*
X113760302Y-146901384D02*
X113760302Y-147329955D01*
X113760302Y-147115669D02*
X113010302Y-147115669D01*
X113117445Y-147187098D01*
X113188874Y-147258527D01*
X113224588Y-147329955D01*
X111220302Y-148044241D02*
X110470302Y-148044241D01*
X110470302Y-147865669D01*
X110506017Y-147758527D01*
X110577445Y-147687098D01*
X110648874Y-147651384D01*
X110791731Y-147615669D01*
X110898874Y-147615669D01*
X111041731Y-147651384D01*
X111113159Y-147687098D01*
X111184588Y-147758527D01*
X111220302Y-147865669D01*
X111220302Y-148044241D01*
X111220302Y-147258527D02*
X111220302Y-147115669D01*
X111184588Y-147044241D01*
X111148874Y-147008527D01*
X111041731Y-146937098D01*
X110898874Y-146901384D01*
X110613159Y-146901384D01*
X110541731Y-146937098D01*
X110506017Y-146972812D01*
X110470302Y-147044241D01*
X110470302Y-147187098D01*
X110506017Y-147258527D01*
X110541731Y-147294241D01*
X110613159Y-147329955D01*
X110791731Y-147329955D01*
X110863159Y-147294241D01*
X110898874Y-147258527D01*
X110934588Y-147187098D01*
X110934588Y-147044241D01*
X110898874Y-146972812D01*
X110863159Y-146937098D01*
X110791731Y-146901384D01*
X108680302Y-148044241D02*
X107930302Y-148044241D01*
X107930302Y-147865669D01*
X107966017Y-147758527D01*
X108037445Y-147687098D01*
X108108874Y-147651384D01*
X108251731Y-147615669D01*
X108358874Y-147615669D01*
X108501731Y-147651384D01*
X108573159Y-147687098D01*
X108644588Y-147758527D01*
X108680302Y-147865669D01*
X108680302Y-148044241D01*
X107930302Y-147365669D02*
X107930302Y-146865669D01*
X108680302Y-147187098D01*
X106140302Y-148044241D02*
X105390302Y-148044241D01*
X105390302Y-147865669D01*
X105426017Y-147758527D01*
X105497445Y-147687098D01*
X105568874Y-147651384D01*
X105711731Y-147615669D01*
X105818874Y-147615669D01*
X105961731Y-147651384D01*
X106033159Y-147687098D01*
X106104588Y-147758527D01*
X106140302Y-147865669D01*
X106140302Y-148044241D01*
X105390302Y-146937098D02*
X105390302Y-147294241D01*
X105747445Y-147329955D01*
X105711731Y-147294241D01*
X105676017Y-147222812D01*
X105676017Y-147044241D01*
X105711731Y-146972812D01*
X105747445Y-146937098D01*
X105818874Y-146901384D01*
X105997445Y-146901384D01*
X106068874Y-146937098D01*
X106104588Y-146972812D01*
X106140302Y-147044241D01*
X106140302Y-147222812D01*
X106104588Y-147294241D01*
X106068874Y-147329955D01*
X103600302Y-148044241D02*
X102850302Y-148044241D01*
X102850302Y-147865669D01*
X102886017Y-147758527D01*
X102957445Y-147687098D01*
X103028874Y-147651384D01*
X103171731Y-147615669D01*
X103278874Y-147615669D01*
X103421731Y-147651384D01*
X103493159Y-147687098D01*
X103564588Y-147758527D01*
X103600302Y-147865669D01*
X103600302Y-148044241D01*
X102850302Y-147365669D02*
X102850302Y-146901384D01*
X103136017Y-147151384D01*
X103136017Y-147044241D01*
X103171731Y-146972812D01*
X103207445Y-146937098D01*
X103278874Y-146901384D01*
X103457445Y-146901384D01*
X103528874Y-146937098D01*
X103564588Y-146972812D01*
X103600302Y-147044241D01*
X103600302Y-147258527D01*
X103564588Y-147329955D01*
X103528874Y-147365669D01*
X101060302Y-148044241D02*
X100310302Y-148044241D01*
X100310302Y-147865669D01*
X100346017Y-147758527D01*
X100417445Y-147687098D01*
X100488874Y-147651384D01*
X100631731Y-147615669D01*
X100738874Y-147615669D01*
X100881731Y-147651384D01*
X100953159Y-147687098D01*
X101024588Y-147758527D01*
X101060302Y-147865669D01*
X101060302Y-148044241D01*
X101060302Y-146901384D02*
X101060302Y-147329955D01*
X101060302Y-147115669D02*
X100310302Y-147115669D01*
X100417445Y-147187098D01*
X100488874Y-147258527D01*
X100524588Y-147329955D01*
D10*
X101356017Y-91416027D02*
X122946017Y-91416027D01*
X101356017Y-110466027D02*
X101356017Y-91416027D01*
X122946017Y-110466027D02*
X101356017Y-110466027D01*
X122946017Y-91416027D02*
X122946017Y-110466027D01*
X96386731Y-80809598D02*
X96386731Y-81809598D01*
X96029588Y-80238169D02*
X95672445Y-81309598D01*
X96601017Y-81309598D01*
X97543238Y-81131027D02*
G75*
G03X97543238Y-81131027I-1442221J0D01*
G01*
X98581731Y-80309598D02*
X98581731Y-80595312D01*
X99153159Y-80309598D02*
X99153159Y-80595312D01*
X99796017Y-81023884D02*
X100296017Y-81023884D01*
X100510302Y-81809598D02*
X99796017Y-81809598D01*
X99796017Y-80309598D01*
X100510302Y-80309598D01*
X101010302Y-80809598D02*
X101367445Y-81809598D01*
X101724588Y-80809598D01*
X102938874Y-81809598D02*
X102938874Y-81023884D01*
X102867445Y-80881027D01*
X102724588Y-80809598D01*
X102438874Y-80809598D01*
X102296017Y-80881027D01*
X102938874Y-81738169D02*
X102796017Y-81809598D01*
X102438874Y-81809598D01*
X102296017Y-81738169D01*
X102224588Y-81595312D01*
X102224588Y-81452455D01*
X102296017Y-81309598D01*
X102438874Y-81238169D01*
X102796017Y-81238169D01*
X102938874Y-81166741D01*
X103867445Y-81809598D02*
X103724588Y-81738169D01*
X103653159Y-81595312D01*
X103653159Y-80309598D01*
X105081731Y-80809598D02*
X105081731Y-81809598D01*
X104438874Y-80809598D02*
X104438874Y-81595312D01*
X104510302Y-81738169D01*
X104653159Y-81809598D01*
X104867445Y-81809598D01*
X105010302Y-81738169D01*
X105081731Y-81666741D01*
X106438874Y-81809598D02*
X106438874Y-81023884D01*
X106367445Y-80881027D01*
X106224588Y-80809598D01*
X105938874Y-80809598D01*
X105796017Y-80881027D01*
X106438874Y-81738169D02*
X106296017Y-81809598D01*
X105938874Y-81809598D01*
X105796017Y-81738169D01*
X105724588Y-81595312D01*
X105724588Y-81452455D01*
X105796017Y-81309598D01*
X105938874Y-81238169D01*
X106296017Y-81238169D01*
X106438874Y-81166741D01*
X106938874Y-80809598D02*
X107510302Y-80809598D01*
X107153159Y-80309598D02*
X107153159Y-81595312D01*
X107224588Y-81738169D01*
X107367445Y-81809598D01*
X107510302Y-81809598D01*
X108581731Y-81738169D02*
X108438874Y-81809598D01*
X108153159Y-81809598D01*
X108010302Y-81738169D01*
X107938874Y-81595312D01*
X107938874Y-81023884D01*
X108010302Y-80881027D01*
X108153159Y-80809598D01*
X108438874Y-80809598D01*
X108581731Y-80881027D01*
X108653159Y-81023884D01*
X108653159Y-81166741D01*
X107938874Y-81309598D01*
X109224588Y-80309598D02*
X109224588Y-80595312D01*
X109796017Y-80309598D02*
X109796017Y-80595312D01*
D11*
G36*
X111501017Y-91131027D02*
X110601017Y-90031027D01*
X112001017Y-89831027D01*
X111501017Y-91131027D01*
G37*
X111501017Y-91131027D02*
X110601017Y-90031027D01*
X112001017Y-89831027D01*
X111501017Y-91131027D01*
D10*
X111427068Y-90703015D02*
G75*
G02X115601017Y-83331027I6173949J1371988D01*
G01*
X116601017Y-82309598D02*
X117529588Y-82309598D01*
X117029588Y-82881027D01*
X117243874Y-82881027D01*
X117386731Y-82952455D01*
X117458159Y-83023884D01*
X117529588Y-83166741D01*
X117529588Y-83523884D01*
X117458159Y-83666741D01*
X117386731Y-83738169D01*
X117243874Y-83809598D01*
X116815302Y-83809598D01*
X116672445Y-83738169D01*
X116601017Y-83666741D01*
X118543238Y-83131027D02*
G75*
G03X118543238Y-83131027I-1442221J0D01*
G01*
X119653159Y-81259598D02*
X119653159Y-79759598D01*
X120224588Y-79759598D01*
X120367445Y-79831027D01*
X120438874Y-79902455D01*
X120510302Y-80045312D01*
X120510302Y-80259598D01*
X120438874Y-80402455D01*
X120367445Y-80473884D01*
X120224588Y-80545312D01*
X119653159Y-80545312D01*
X121367445Y-81259598D02*
X121224588Y-81188169D01*
X121153159Y-81045312D01*
X121153159Y-79759598D01*
X122581731Y-81259598D02*
X122581731Y-80473884D01*
X122510302Y-80331027D01*
X122367445Y-80259598D01*
X122081731Y-80259598D01*
X121938874Y-80331027D01*
X122581731Y-81188169D02*
X122438874Y-81259598D01*
X122081731Y-81259598D01*
X121938874Y-81188169D01*
X121867445Y-81045312D01*
X121867445Y-80902455D01*
X121938874Y-80759598D01*
X122081731Y-80688169D01*
X122438874Y-80688169D01*
X122581731Y-80616741D01*
X123938874Y-81188169D02*
X123796017Y-81259598D01*
X123510302Y-81259598D01*
X123367445Y-81188169D01*
X123296017Y-81116741D01*
X123224588Y-80973884D01*
X123224588Y-80545312D01*
X123296017Y-80402455D01*
X123367445Y-80331027D01*
X123510302Y-80259598D01*
X123796017Y-80259598D01*
X123938874Y-80331027D01*
X125153159Y-81188169D02*
X125010302Y-81259598D01*
X124724588Y-81259598D01*
X124581731Y-81188169D01*
X124510302Y-81045312D01*
X124510302Y-80473884D01*
X124581731Y-80331027D01*
X124724588Y-80259598D01*
X125010302Y-80259598D01*
X125153159Y-80331027D01*
X125224588Y-80473884D01*
X125224588Y-80616741D01*
X124510302Y-80759598D01*
X126867445Y-80259598D02*
X127224588Y-81259598D01*
X127581731Y-80259598D02*
X127224588Y-81259598D01*
X127081731Y-81616741D01*
X127010302Y-81688169D01*
X126867445Y-81759598D01*
X128367445Y-81259598D02*
X128224588Y-81188169D01*
X128153159Y-81116741D01*
X128081731Y-80973884D01*
X128081731Y-80545312D01*
X128153159Y-80402455D01*
X128224588Y-80331027D01*
X128367445Y-80259598D01*
X128581731Y-80259598D01*
X128724588Y-80331027D01*
X128796017Y-80402455D01*
X128867445Y-80545312D01*
X128867445Y-80973884D01*
X128796017Y-81116741D01*
X128724588Y-81188169D01*
X128581731Y-81259598D01*
X128367445Y-81259598D01*
X130153159Y-80259598D02*
X130153159Y-81259598D01*
X129510302Y-80259598D02*
X129510302Y-81045312D01*
X129581731Y-81188169D01*
X129724588Y-81259598D01*
X129938874Y-81259598D01*
X130081731Y-81188169D01*
X130153159Y-81116741D01*
X130867445Y-81259598D02*
X130867445Y-80259598D01*
X130867445Y-80545312D02*
X130938874Y-80402455D01*
X131010302Y-80331027D01*
X131153159Y-80259598D01*
X131296017Y-80259598D01*
X119653159Y-82809598D02*
X119653159Y-84309598D01*
X119653159Y-82881027D02*
X119796017Y-82809598D01*
X120081731Y-82809598D01*
X120224588Y-82881027D01*
X120296017Y-82952455D01*
X120367445Y-83095312D01*
X120367445Y-83523884D01*
X120296017Y-83666741D01*
X120224588Y-83738169D01*
X120081731Y-83809598D01*
X119796017Y-83809598D01*
X119653159Y-83738169D01*
X121010302Y-83809598D02*
X121010302Y-82809598D01*
X121010302Y-83095312D02*
X121081731Y-82952455D01*
X121153159Y-82881027D01*
X121296017Y-82809598D01*
X121438874Y-82809598D01*
X122153159Y-83809598D02*
X122010302Y-83738169D01*
X121938874Y-83666741D01*
X121867445Y-83523884D01*
X121867445Y-83095312D01*
X121938874Y-82952455D01*
X122010302Y-82881027D01*
X122153159Y-82809598D01*
X122367445Y-82809598D01*
X122510302Y-82881027D01*
X122581731Y-82952455D01*
X122653159Y-83095312D01*
X122653159Y-83523884D01*
X122581731Y-83666741D01*
X122510302Y-83738169D01*
X122367445Y-83809598D01*
X122153159Y-83809598D01*
X123296017Y-83809598D02*
X123296017Y-82309598D01*
X123296017Y-82881027D02*
X123438874Y-82809598D01*
X123724588Y-82809598D01*
X123867445Y-82881027D01*
X123938874Y-82952455D01*
X124010302Y-83095312D01*
X124010302Y-83523884D01*
X123938874Y-83666741D01*
X123867445Y-83738169D01*
X123724588Y-83809598D01*
X123438874Y-83809598D01*
X123296017Y-83738169D01*
X125224588Y-83738169D02*
X125081731Y-83809598D01*
X124796017Y-83809598D01*
X124653159Y-83738169D01*
X124581731Y-83595312D01*
X124581731Y-83023884D01*
X124653159Y-82881027D01*
X124796017Y-82809598D01*
X125081731Y-82809598D01*
X125224588Y-82881027D01*
X125296017Y-83023884D01*
X125296017Y-83166741D01*
X124581731Y-83309598D01*
X125867445Y-83738169D02*
X126010302Y-83809598D01*
X126296017Y-83809598D01*
X126438874Y-83738169D01*
X126510302Y-83595312D01*
X126510302Y-83523884D01*
X126438874Y-83381027D01*
X126296017Y-83309598D01*
X126081731Y-83309598D01*
X125938874Y-83238169D01*
X125867445Y-83095312D01*
X125867445Y-83023884D01*
X125938874Y-82881027D01*
X126081731Y-82809598D01*
X126296017Y-82809598D01*
X126438874Y-82881027D01*
X128938874Y-83809598D02*
X128938874Y-83023884D01*
X128867445Y-82881027D01*
X128724588Y-82809598D01*
X128438874Y-82809598D01*
X128296017Y-82881027D01*
X128938874Y-83738169D02*
X128796017Y-83809598D01*
X128438874Y-83809598D01*
X128296017Y-83738169D01*
X128224588Y-83595312D01*
X128224588Y-83452455D01*
X128296017Y-83309598D01*
X128438874Y-83238169D01*
X128796017Y-83238169D01*
X128938874Y-83166741D01*
X129653159Y-82809598D02*
X129653159Y-83809598D01*
X129653159Y-82952455D02*
X129724588Y-82881027D01*
X129867445Y-82809598D01*
X130081731Y-82809598D01*
X130224588Y-82881027D01*
X130296017Y-83023884D01*
X130296017Y-83809598D01*
X131653159Y-83809598D02*
X131653159Y-82309598D01*
X131653159Y-83738169D02*
X131510302Y-83809598D01*
X131224588Y-83809598D01*
X131081731Y-83738169D01*
X131010302Y-83666741D01*
X130938874Y-83523884D01*
X130938874Y-83095312D01*
X131010302Y-82952455D01*
X131081731Y-82881027D01*
X131224588Y-82809598D01*
X131510302Y-82809598D01*
X131653159Y-82881027D01*
X119867445Y-86359598D02*
X119724588Y-86288169D01*
X119653159Y-86216741D01*
X119581731Y-86073884D01*
X119581731Y-85645312D01*
X119653159Y-85502455D01*
X119724588Y-85431027D01*
X119867445Y-85359598D01*
X120081731Y-85359598D01*
X120224588Y-85431027D01*
X120296017Y-85502455D01*
X120367445Y-85645312D01*
X120367445Y-86073884D01*
X120296017Y-86216741D01*
X120224588Y-86288169D01*
X120081731Y-86359598D01*
X119867445Y-86359598D01*
X120796017Y-85359598D02*
X121367445Y-85359598D01*
X121010302Y-84859598D02*
X121010302Y-86145312D01*
X121081731Y-86288169D01*
X121224588Y-86359598D01*
X121367445Y-86359598D01*
X121867445Y-86359598D02*
X121867445Y-84859598D01*
X122510302Y-86359598D02*
X122510302Y-85573884D01*
X122438874Y-85431027D01*
X122296017Y-85359598D01*
X122081731Y-85359598D01*
X121938874Y-85431027D01*
X121867445Y-85502455D01*
X123796017Y-86288169D02*
X123653159Y-86359598D01*
X123367445Y-86359598D01*
X123224588Y-86288169D01*
X123153159Y-86145312D01*
X123153159Y-85573884D01*
X123224588Y-85431027D01*
X123367445Y-85359598D01*
X123653159Y-85359598D01*
X123796017Y-85431027D01*
X123867445Y-85573884D01*
X123867445Y-85716741D01*
X123153159Y-85859598D01*
X124510302Y-86359598D02*
X124510302Y-85359598D01*
X124510302Y-85645312D02*
X124581731Y-85502455D01*
X124653159Y-85431027D01*
X124796017Y-85359598D01*
X124938874Y-85359598D01*
X125367445Y-86288169D02*
X125510302Y-86359598D01*
X125796017Y-86359598D01*
X125938874Y-86288169D01*
X126010302Y-86145312D01*
X126010302Y-86073884D01*
X125938874Y-85931027D01*
X125796017Y-85859598D01*
X125581731Y-85859598D01*
X125438874Y-85788169D01*
X125367445Y-85645312D01*
X125367445Y-85573884D01*
X125438874Y-85431027D01*
X125581731Y-85359598D01*
X125796017Y-85359598D01*
X125938874Y-85431027D01*
X126653159Y-86216741D02*
X126724588Y-86288169D01*
X126653159Y-86359598D01*
X126581731Y-86288169D01*
X126653159Y-86216741D01*
X126653159Y-86359598D01*
X127367445Y-86216741D02*
X127438874Y-86288169D01*
X127367445Y-86359598D01*
X127296017Y-86288169D01*
X127367445Y-86216741D01*
X127367445Y-86359598D01*
X128081731Y-86216741D02*
X128153159Y-86288169D01*
X128081731Y-86359598D01*
X128010302Y-86288169D01*
X128081731Y-86216741D01*
X128081731Y-86359598D01*
X127422445Y-125859598D02*
X127351017Y-125788169D01*
X127279588Y-125645312D01*
X127279588Y-125288169D01*
X127351017Y-125145312D01*
X127422445Y-125073884D01*
X127565302Y-125002455D01*
X127708159Y-125002455D01*
X127922445Y-125073884D01*
X128779588Y-125931027D01*
X128779588Y-125002455D01*
X129543238Y-125431027D02*
G75*
G03X129543238Y-125431027I-1442221J0D01*
G01*
X102529588Y-127809598D02*
X101672445Y-127809598D01*
X102101017Y-127809598D02*
X102101017Y-126309598D01*
X101958159Y-126523884D01*
X101815302Y-126666741D01*
X101672445Y-126738169D01*
X103543238Y-127131027D02*
G75*
G03X103543238Y-127131027I-1442221J0D01*
G01*
X104653159Y-125259598D02*
X104653159Y-123759598D01*
X105224588Y-123759598D01*
X105367445Y-123831027D01*
X105438874Y-123902455D01*
X105510302Y-124045312D01*
X105510302Y-124259598D01*
X105438874Y-124402455D01*
X105367445Y-124473884D01*
X105224588Y-124545312D01*
X104653159Y-124545312D01*
X106367445Y-125259598D02*
X106224588Y-125188169D01*
X106153159Y-125045312D01*
X106153159Y-123759598D01*
X107581731Y-124259598D02*
X107581731Y-125259598D01*
X106938874Y-124259598D02*
X106938874Y-125045312D01*
X107010302Y-125188169D01*
X107153159Y-125259598D01*
X107367445Y-125259598D01*
X107510302Y-125188169D01*
X107581731Y-125116741D01*
X108938874Y-124259598D02*
X108938874Y-125473884D01*
X108867445Y-125616741D01*
X108796017Y-125688169D01*
X108653159Y-125759598D01*
X108438874Y-125759598D01*
X108296017Y-125688169D01*
X108938874Y-125188169D02*
X108796017Y-125259598D01*
X108510302Y-125259598D01*
X108367445Y-125188169D01*
X108296017Y-125116741D01*
X108224588Y-124973884D01*
X108224588Y-124545312D01*
X108296017Y-124402455D01*
X108367445Y-124331027D01*
X108510302Y-124259598D01*
X108796017Y-124259598D01*
X108938874Y-124331027D01*
X110581731Y-124259598D02*
X111153159Y-124259598D01*
X110796017Y-123759598D02*
X110796017Y-125045312D01*
X110867445Y-125188169D01*
X111010302Y-125259598D01*
X111153159Y-125259598D01*
X111653159Y-125259598D02*
X111653159Y-123759598D01*
X112296017Y-125259598D02*
X112296017Y-124473884D01*
X112224588Y-124331027D01*
X112081731Y-124259598D01*
X111867445Y-124259598D01*
X111724588Y-124331027D01*
X111653159Y-124402455D01*
X113581731Y-125188169D02*
X113438874Y-125259598D01*
X113153159Y-125259598D01*
X113010302Y-125188169D01*
X112938874Y-125045312D01*
X112938874Y-124473884D01*
X113010302Y-124331027D01*
X113153159Y-124259598D01*
X113438874Y-124259598D01*
X113581731Y-124331027D01*
X113653159Y-124473884D01*
X113653159Y-124616741D01*
X112938874Y-124759598D01*
X104581731Y-127738169D02*
X104724588Y-127809598D01*
X105010302Y-127809598D01*
X105153159Y-127738169D01*
X105224588Y-127595312D01*
X105224588Y-127523884D01*
X105153159Y-127381027D01*
X105010302Y-127309598D01*
X104796017Y-127309598D01*
X104653159Y-127238169D01*
X104581731Y-127095312D01*
X104581731Y-127023884D01*
X104653159Y-126881027D01*
X104796017Y-126809598D01*
X105010302Y-126809598D01*
X105153159Y-126881027D01*
X106081731Y-127809598D02*
X105938874Y-127738169D01*
X105867445Y-127666741D01*
X105796017Y-127523884D01*
X105796017Y-127095312D01*
X105867445Y-126952455D01*
X105938874Y-126881027D01*
X106081731Y-126809598D01*
X106296017Y-126809598D01*
X106438874Y-126881027D01*
X106510302Y-126952455D01*
X106581731Y-127095312D01*
X106581731Y-127523884D01*
X106510302Y-127666741D01*
X106438874Y-127738169D01*
X106296017Y-127809598D01*
X106081731Y-127809598D01*
X107867445Y-127738169D02*
X107724588Y-127809598D01*
X107438874Y-127809598D01*
X107296017Y-127738169D01*
X107224588Y-127666741D01*
X107153159Y-127523884D01*
X107153159Y-127095312D01*
X107224588Y-126952455D01*
X107296017Y-126881027D01*
X107438874Y-126809598D01*
X107724588Y-126809598D01*
X107867445Y-126881027D01*
X108510302Y-127809598D02*
X108510302Y-126309598D01*
X108653159Y-127238169D02*
X109081731Y-127809598D01*
X109081731Y-126809598D02*
X108510302Y-127381027D01*
X110296017Y-127738169D02*
X110153159Y-127809598D01*
X109867445Y-127809598D01*
X109724588Y-127738169D01*
X109653159Y-127595312D01*
X109653159Y-127023884D01*
X109724588Y-126881027D01*
X109867445Y-126809598D01*
X110153159Y-126809598D01*
X110296017Y-126881027D01*
X110367445Y-127023884D01*
X110367445Y-127166741D01*
X109653159Y-127309598D01*
X110796017Y-126809598D02*
X111367445Y-126809598D01*
X111010302Y-126309598D02*
X111010302Y-127595312D01*
X111081731Y-127738169D01*
X111224588Y-127809598D01*
X111367445Y-127809598D01*
X113010302Y-127809598D02*
X113010302Y-126809598D01*
X113010302Y-126309598D02*
X112938874Y-126381027D01*
X113010302Y-126452455D01*
X113081731Y-126381027D01*
X113010302Y-126309598D01*
X113010302Y-126452455D01*
X113724588Y-126809598D02*
X113724588Y-127809598D01*
X113724588Y-126952455D02*
X113796017Y-126881027D01*
X113938874Y-126809598D01*
X114153159Y-126809598D01*
X114296017Y-126881027D01*
X114367445Y-127023884D01*
X114367445Y-127809598D01*
X114867445Y-126809598D02*
X115438874Y-126809598D01*
X115081731Y-126309598D02*
X115081731Y-127595312D01*
X115153159Y-127738169D01*
X115296017Y-127809598D01*
X115438874Y-127809598D01*
X116153159Y-127809598D02*
X116010302Y-127738169D01*
X115938874Y-127666741D01*
X115867445Y-127523884D01*
X115867445Y-127095312D01*
X115938874Y-126952455D01*
X116010302Y-126881027D01*
X116153159Y-126809598D01*
X116367445Y-126809598D01*
X116510302Y-126881027D01*
X116581731Y-126952455D01*
X116653159Y-127095312D01*
X116653159Y-127523884D01*
X116581731Y-127666741D01*
X116510302Y-127738169D01*
X116367445Y-127809598D01*
X116153159Y-127809598D01*
X104581731Y-130288169D02*
X104796017Y-130359598D01*
X105153159Y-130359598D01*
X105296017Y-130288169D01*
X105367445Y-130216741D01*
X105438874Y-130073884D01*
X105438874Y-129931027D01*
X105367445Y-129788169D01*
X105296017Y-129716741D01*
X105153159Y-129645312D01*
X104867445Y-129573884D01*
X104724588Y-129502455D01*
X104653159Y-129431027D01*
X104581731Y-129288169D01*
X104581731Y-129145312D01*
X104653159Y-129002455D01*
X104724588Y-128931027D01*
X104867445Y-128859598D01*
X105224588Y-128859598D01*
X105438874Y-128931027D01*
X106724588Y-130288169D02*
X106581731Y-130359598D01*
X106296017Y-130359598D01*
X106153159Y-130288169D01*
X106081731Y-130216741D01*
X106010302Y-130073884D01*
X106010302Y-129645312D01*
X106081731Y-129502455D01*
X106153159Y-129431027D01*
X106296017Y-129359598D01*
X106581731Y-129359598D01*
X106724588Y-129431027D01*
X108010302Y-130359598D02*
X108010302Y-129573884D01*
X107938874Y-129431027D01*
X107796017Y-129359598D01*
X107510302Y-129359598D01*
X107367445Y-129431027D01*
X108010302Y-130288169D02*
X107867445Y-130359598D01*
X107510302Y-130359598D01*
X107367445Y-130288169D01*
X107296017Y-130145312D01*
X107296017Y-130002455D01*
X107367445Y-129859598D01*
X107510302Y-129788169D01*
X107867445Y-129788169D01*
X108010302Y-129716741D01*
X108510302Y-129359598D02*
X109081731Y-129359598D01*
X108724588Y-130359598D02*
X108724588Y-129073884D01*
X108796017Y-128931027D01*
X108938874Y-128859598D01*
X109081731Y-128859598D01*
X109367445Y-129359598D02*
X109938874Y-129359598D01*
X109581731Y-130359598D02*
X109581731Y-129073884D01*
X109653159Y-128931027D01*
X109796017Y-128859598D01*
X109938874Y-128859598D01*
X110653159Y-130359598D02*
X110510302Y-130288169D01*
X110438874Y-130216741D01*
X110367445Y-130073884D01*
X110367445Y-129645312D01*
X110438874Y-129502455D01*
X110510302Y-129431027D01*
X110653159Y-129359598D01*
X110867445Y-129359598D01*
X111010302Y-129431027D01*
X111081731Y-129502455D01*
X111153159Y-129645312D01*
X111153159Y-130073884D01*
X111081731Y-130216741D01*
X111010302Y-130288169D01*
X110867445Y-130359598D01*
X110653159Y-130359598D01*
X112010302Y-130359598D02*
X111867445Y-130288169D01*
X111796017Y-130145312D01*
X111796017Y-128859598D01*
X113224588Y-130359598D02*
X113224588Y-128859598D01*
X113224588Y-130288169D02*
X113081731Y-130359598D01*
X112796017Y-130359598D01*
X112653159Y-130288169D01*
X112581731Y-130216741D01*
X112510302Y-130073884D01*
X112510302Y-129645312D01*
X112581731Y-129502455D01*
X112653159Y-129431027D01*
X112796017Y-129359598D01*
X113081731Y-129359598D01*
X113224588Y-129431027D01*
D11*
G36*
X124901017Y-117631027D02*
X123101017Y-117631027D01*
X123101017Y-118331027D01*
X121601017Y-117031027D01*
X123101017Y-115731027D01*
X123101017Y-116431027D01*
X124901017Y-116431027D01*
X124901017Y-117631027D01*
G37*
X124901017Y-117631027D02*
X123101017Y-117631027D01*
X123101017Y-118331027D01*
X121601017Y-117031027D01*
X123101017Y-115731027D01*
X123101017Y-116431027D01*
X124901017Y-116431027D01*
X124901017Y-117631027D01*
D12*
X123981612Y-102663407D02*
X123981612Y-101663407D01*
X124648278Y-101663407D02*
X124838755Y-101663407D01*
X124933993Y-101711027D01*
X125029231Y-101806265D01*
X125076850Y-101996741D01*
X125076850Y-102330074D01*
X125029231Y-102520550D01*
X124933993Y-102615788D01*
X124838755Y-102663407D01*
X124648278Y-102663407D01*
X124553040Y-102615788D01*
X124457802Y-102520550D01*
X124410183Y-102330074D01*
X124410183Y-101996741D01*
X124457802Y-101806265D01*
X124553040Y-101711027D01*
X124648278Y-101663407D01*
X98558517Y-102568169D02*
X98510897Y-102615788D01*
X98368040Y-102663407D01*
X98272802Y-102663407D01*
X98129945Y-102615788D01*
X98034707Y-102520550D01*
X97987088Y-102425312D01*
X97939469Y-102234836D01*
X97939469Y-102091979D01*
X97987088Y-101901503D01*
X98034707Y-101806265D01*
X98129945Y-101711027D01*
X98272802Y-101663407D01*
X98368040Y-101663407D01*
X98510897Y-101711027D01*
X98558517Y-101758646D01*
X99463278Y-102663407D02*
X98987088Y-102663407D01*
X98987088Y-101663407D01*
X99796612Y-102663407D02*
X99796612Y-101663407D01*
X100368040Y-102663407D02*
X99939469Y-102091979D01*
X100368040Y-101663407D02*
X99796612Y-102234836D01*
X97844231Y-98626027D02*
X98844231Y-98626027D01*
X98653755Y-100123407D02*
X98320421Y-99647217D01*
X98082326Y-100123407D02*
X98082326Y-99123407D01*
X98463278Y-99123407D01*
X98558517Y-99171027D01*
X98606136Y-99218646D01*
X98653755Y-99313884D01*
X98653755Y-99456741D01*
X98606136Y-99551979D01*
X98558517Y-99599598D01*
X98463278Y-99647217D01*
X98082326Y-99647217D01*
X98844231Y-98626027D02*
X99796612Y-98626027D01*
X99034707Y-100075788D02*
X99177564Y-100123407D01*
X99415659Y-100123407D01*
X99510897Y-100075788D01*
X99558517Y-100028169D01*
X99606136Y-99932931D01*
X99606136Y-99837693D01*
X99558517Y-99742455D01*
X99510897Y-99694836D01*
X99415659Y-99647217D01*
X99225183Y-99599598D01*
X99129945Y-99551979D01*
X99082326Y-99504360D01*
X99034707Y-99409122D01*
X99034707Y-99313884D01*
X99082326Y-99218646D01*
X99129945Y-99171027D01*
X99225183Y-99123407D01*
X99463278Y-99123407D01*
X99606136Y-99171027D01*
X99796612Y-98626027D02*
X100558517Y-98626027D01*
X99891850Y-99123407D02*
X100463278Y-99123407D01*
X100177564Y-100123407D02*
X100177564Y-99123407D01*
X124505421Y-96631027D02*
X124410183Y-96583407D01*
X124267326Y-96583407D01*
X124124469Y-96631027D01*
X124029231Y-96726265D01*
X123981612Y-96821503D01*
X123933993Y-97011979D01*
X123933993Y-97154836D01*
X123981612Y-97345312D01*
X124029231Y-97440550D01*
X124124469Y-97535788D01*
X124267326Y-97583407D01*
X124362564Y-97583407D01*
X124505421Y-97535788D01*
X124553040Y-97488169D01*
X124553040Y-97154836D01*
X124362564Y-97154836D01*
X124981612Y-97583407D02*
X124981612Y-96583407D01*
X125553040Y-97583407D01*
X125553040Y-96583407D01*
X126029231Y-97583407D02*
X126029231Y-96583407D01*
X126267326Y-96583407D01*
X126410183Y-96631027D01*
X126505421Y-96726265D01*
X126553040Y-96821503D01*
X126600659Y-97011979D01*
X126600659Y-97154836D01*
X126553040Y-97345312D01*
X126505421Y-97440550D01*
X126410183Y-97535788D01*
X126267326Y-97583407D01*
X126029231Y-97583407D01*
X97939469Y-96583407D02*
X98558517Y-96583407D01*
X98225183Y-96964360D01*
X98368040Y-96964360D01*
X98463278Y-97011979D01*
X98510897Y-97059598D01*
X98558517Y-97154836D01*
X98558517Y-97392931D01*
X98510897Y-97488169D01*
X98463278Y-97535788D01*
X98368040Y-97583407D01*
X98082326Y-97583407D01*
X97987088Y-97535788D01*
X97939469Y-97488169D01*
X98844231Y-96583407D02*
X99177564Y-97583407D01*
X99510897Y-96583407D01*
X99748993Y-96583407D02*
X100368040Y-96583407D01*
X100034707Y-96964360D01*
X100177564Y-96964360D01*
X100272802Y-97011979D01*
X100320421Y-97059598D01*
X100368040Y-97154836D01*
X100368040Y-97392931D01*
X100320421Y-97488169D01*
X100272802Y-97535788D01*
X100177564Y-97583407D01*
X99891850Y-97583407D01*
X99796612Y-97535788D01*
X99748993Y-97488169D01*
D13*
G04 #@! TO.C,LOGO1*
G36*
X95641017Y-66021930D02*
X95641017Y-68022627D01*
X95606092Y-68022394D01*
X95578851Y-68017534D01*
X95535934Y-68004749D01*
X95484887Y-67986398D01*
X95463217Y-67977754D01*
X95282203Y-67890824D01*
X95102352Y-67779800D01*
X94925507Y-67645976D01*
X94753513Y-67490648D01*
X94714751Y-67451933D01*
X94528626Y-67244566D01*
X94361021Y-67020460D01*
X94212587Y-66780929D01*
X94083978Y-66527289D01*
X93975848Y-66260854D01*
X93888850Y-65982941D01*
X93823636Y-65694863D01*
X93813464Y-65637320D01*
X93805573Y-65584757D01*
X93797317Y-65519752D01*
X93789067Y-65446534D01*
X93781198Y-65369334D01*
X93774082Y-65292380D01*
X93768091Y-65219903D01*
X93763600Y-65156133D01*
X93760980Y-65105299D01*
X93760605Y-65071632D01*
X93762515Y-65059489D01*
X93774250Y-65052814D01*
X93806216Y-65034963D01*
X93856412Y-65007043D01*
X93922837Y-64970161D01*
X94003489Y-64925425D01*
X94096368Y-64873941D01*
X94199472Y-64816817D01*
X94310800Y-64755160D01*
X94428350Y-64690077D01*
X94550123Y-64622676D01*
X94674115Y-64554064D01*
X94798328Y-64485347D01*
X94920758Y-64417634D01*
X95039405Y-64352031D01*
X95152268Y-64289646D01*
X95257345Y-64231586D01*
X95352635Y-64178958D01*
X95436138Y-64132869D01*
X95505852Y-64094427D01*
X95559776Y-64064738D01*
X95595908Y-64044911D01*
X95612247Y-64036052D01*
X95612442Y-64035951D01*
X95641016Y-64021233D01*
X95641017Y-66021930D01*
X95641017Y-66021930D01*
G37*
X95641017Y-66021930D02*
X95641017Y-68022627D01*
X95606092Y-68022394D01*
X95578851Y-68017534D01*
X95535934Y-68004749D01*
X95484887Y-67986398D01*
X95463217Y-67977754D01*
X95282203Y-67890824D01*
X95102352Y-67779800D01*
X94925507Y-67645976D01*
X94753513Y-67490648D01*
X94714751Y-67451933D01*
X94528626Y-67244566D01*
X94361021Y-67020460D01*
X94212587Y-66780929D01*
X94083978Y-66527289D01*
X93975848Y-66260854D01*
X93888850Y-65982941D01*
X93823636Y-65694863D01*
X93813464Y-65637320D01*
X93805573Y-65584757D01*
X93797317Y-65519752D01*
X93789067Y-65446534D01*
X93781198Y-65369334D01*
X93774082Y-65292380D01*
X93768091Y-65219903D01*
X93763600Y-65156133D01*
X93760980Y-65105299D01*
X93760605Y-65071632D01*
X93762515Y-65059489D01*
X93774250Y-65052814D01*
X93806216Y-65034963D01*
X93856412Y-65007043D01*
X93922837Y-64970161D01*
X94003489Y-64925425D01*
X94096368Y-64873941D01*
X94199472Y-64816817D01*
X94310800Y-64755160D01*
X94428350Y-64690077D01*
X94550123Y-64622676D01*
X94674115Y-64554064D01*
X94798328Y-64485347D01*
X94920758Y-64417634D01*
X95039405Y-64352031D01*
X95152268Y-64289646D01*
X95257345Y-64231586D01*
X95352635Y-64178958D01*
X95436138Y-64132869D01*
X95505852Y-64094427D01*
X95559776Y-64064738D01*
X95595908Y-64044911D01*
X95612247Y-64036052D01*
X95612442Y-64035951D01*
X95641016Y-64021233D01*
X95641017Y-66021930D01*
G36*
X96555253Y-65471264D02*
X96615495Y-65498932D01*
X96674195Y-65545044D01*
X96728600Y-65608318D01*
X96775960Y-65687474D01*
X96777705Y-65691027D01*
X96800056Y-65741336D01*
X96816701Y-65791052D01*
X96828210Y-65844715D01*
X96835150Y-65906867D01*
X96838093Y-65982049D01*
X96837607Y-66074802D01*
X96835542Y-66152317D01*
X96828467Y-66371157D01*
X96311817Y-66136677D01*
X96317733Y-65889027D01*
X96320801Y-65789115D01*
X96325157Y-65710832D01*
X96331550Y-65650415D01*
X96340727Y-65604097D01*
X96353439Y-65568114D01*
X96370434Y-65538701D01*
X96392461Y-65512094D01*
X96392790Y-65511743D01*
X96441149Y-65476388D01*
X96496221Y-65463323D01*
X96555253Y-65471264D01*
X96555253Y-65471264D01*
G37*
X96555253Y-65471264D02*
X96615495Y-65498932D01*
X96674195Y-65545044D01*
X96728600Y-65608318D01*
X96775960Y-65687474D01*
X96777705Y-65691027D01*
X96800056Y-65741336D01*
X96816701Y-65791052D01*
X96828210Y-65844715D01*
X96835150Y-65906867D01*
X96838093Y-65982049D01*
X96837607Y-66074802D01*
X96835542Y-66152317D01*
X96828467Y-66371157D01*
X96311817Y-66136677D01*
X96317733Y-65889027D01*
X96320801Y-65789115D01*
X96325157Y-65710832D01*
X96331550Y-65650415D01*
X96340727Y-65604097D01*
X96353439Y-65568114D01*
X96370434Y-65538701D01*
X96392461Y-65512094D01*
X96392790Y-65511743D01*
X96441149Y-65476388D01*
X96496221Y-65463323D01*
X96555253Y-65471264D01*
G36*
X95666787Y-63520100D02*
X95699518Y-63537334D01*
X95750731Y-63564799D01*
X95818555Y-63601467D01*
X95901114Y-63646310D01*
X95996537Y-63698297D01*
X96102950Y-63756401D01*
X96218480Y-63819592D01*
X96341254Y-63886842D01*
X96469398Y-63957121D01*
X96601040Y-64029402D01*
X96734306Y-64102654D01*
X96867323Y-64175849D01*
X96998219Y-64247959D01*
X97125119Y-64317954D01*
X97246151Y-64384805D01*
X97359441Y-64447484D01*
X97463116Y-64504962D01*
X97555304Y-64556210D01*
X97634131Y-64600199D01*
X97697724Y-64635900D01*
X97730167Y-64654268D01*
X97770838Y-64678987D01*
X97800465Y-64700036D01*
X97814098Y-64713791D01*
X97814345Y-64715914D01*
X97804371Y-64729771D01*
X97781250Y-64758068D01*
X97748297Y-64797021D01*
X97708831Y-64842847D01*
X97666168Y-64891764D01*
X97623626Y-64939988D01*
X97584521Y-64983735D01*
X97552170Y-65019222D01*
X97529892Y-65042667D01*
X97521123Y-65050347D01*
X97509235Y-65044248D01*
X97476789Y-65026701D01*
X97425418Y-64998611D01*
X97356761Y-64960880D01*
X97272451Y-64914412D01*
X97174126Y-64860109D01*
X97063422Y-64798875D01*
X96941973Y-64731613D01*
X96811417Y-64659226D01*
X96673388Y-64582618D01*
X96580817Y-64531197D01*
X95647367Y-64012527D01*
X95643923Y-63763327D01*
X95643150Y-63668031D01*
X95643845Y-63596789D01*
X95646064Y-63548294D01*
X95649861Y-63521240D01*
X95654411Y-63514127D01*
X95666787Y-63520100D01*
X95666787Y-63520100D01*
G37*
X95666787Y-63520100D02*
X95699518Y-63537334D01*
X95750731Y-63564799D01*
X95818555Y-63601467D01*
X95901114Y-63646310D01*
X95996537Y-63698297D01*
X96102950Y-63756401D01*
X96218480Y-63819592D01*
X96341254Y-63886842D01*
X96469398Y-63957121D01*
X96601040Y-64029402D01*
X96734306Y-64102654D01*
X96867323Y-64175849D01*
X96998219Y-64247959D01*
X97125119Y-64317954D01*
X97246151Y-64384805D01*
X97359441Y-64447484D01*
X97463116Y-64504962D01*
X97555304Y-64556210D01*
X97634131Y-64600199D01*
X97697724Y-64635900D01*
X97730167Y-64654268D01*
X97770838Y-64678987D01*
X97800465Y-64700036D01*
X97814098Y-64713791D01*
X97814345Y-64715914D01*
X97804371Y-64729771D01*
X97781250Y-64758068D01*
X97748297Y-64797021D01*
X97708831Y-64842847D01*
X97666168Y-64891764D01*
X97623626Y-64939988D01*
X97584521Y-64983735D01*
X97552170Y-65019222D01*
X97529892Y-65042667D01*
X97521123Y-65050347D01*
X97509235Y-65044248D01*
X97476789Y-65026701D01*
X97425418Y-64998611D01*
X97356761Y-64960880D01*
X97272451Y-64914412D01*
X97174126Y-64860109D01*
X97063422Y-64798875D01*
X96941973Y-64731613D01*
X96811417Y-64659226D01*
X96673388Y-64582618D01*
X96580817Y-64531197D01*
X95647367Y-64012527D01*
X95643923Y-63763327D01*
X95643150Y-63668031D01*
X95643845Y-63596789D01*
X95646064Y-63548294D01*
X95649861Y-63521240D01*
X95654411Y-63514127D01*
X95666787Y-63520100D01*
G36*
X95637960Y-62858194D02*
X95638419Y-62982881D01*
X95638485Y-63099802D01*
X95638184Y-63206511D01*
X95637539Y-63300560D01*
X95636574Y-63379503D01*
X95635315Y-63440892D01*
X95633783Y-63482280D01*
X95632005Y-63501221D01*
X95631610Y-63502111D01*
X95619172Y-63509487D01*
X95586336Y-63528064D01*
X95534965Y-63556814D01*
X95466925Y-63594710D01*
X95384080Y-63640723D01*
X95288293Y-63693826D01*
X95181429Y-63752991D01*
X95065352Y-63817190D01*
X94941926Y-63885395D01*
X94813016Y-63956579D01*
X94680485Y-64029713D01*
X94546199Y-64103770D01*
X94412020Y-64177722D01*
X94279814Y-64250541D01*
X94151445Y-64321200D01*
X94028776Y-64388669D01*
X93913672Y-64451923D01*
X93807998Y-64509932D01*
X93713617Y-64561669D01*
X93632393Y-64606107D01*
X93566192Y-64642216D01*
X93516876Y-64668970D01*
X93486311Y-64685341D01*
X93476573Y-64690286D01*
X93472011Y-64690125D01*
X93468194Y-64684495D01*
X93465058Y-64671377D01*
X93462536Y-64648754D01*
X93460564Y-64614609D01*
X93459076Y-64566924D01*
X93458008Y-64503683D01*
X93457293Y-64422868D01*
X93456866Y-64322461D01*
X93456663Y-64200446D01*
X93456617Y-64073708D01*
X93456617Y-63449472D01*
X93485192Y-63421085D01*
X93506472Y-63404845D01*
X93544222Y-63380641D01*
X93593671Y-63351105D01*
X93650048Y-63318869D01*
X93708582Y-63286566D01*
X93764503Y-63256828D01*
X93813039Y-63232287D01*
X93849421Y-63215576D01*
X93868877Y-63209327D01*
X93868976Y-63209326D01*
X93876257Y-63212429D01*
X93881498Y-63224015D01*
X93885018Y-63247502D01*
X93887133Y-63286306D01*
X93888160Y-63343846D01*
X93888417Y-63418877D01*
X93888867Y-63488615D01*
X93890115Y-63548523D01*
X93892002Y-63594416D01*
X93894372Y-63622108D01*
X93896288Y-63628427D01*
X93909365Y-63622591D01*
X93941107Y-63606341D01*
X93987958Y-63581559D01*
X94046358Y-63550129D01*
X94112751Y-63513935D01*
X94118190Y-63510952D01*
X94332220Y-63393477D01*
X94332568Y-63183577D01*
X94333230Y-63099846D01*
X94335084Y-63037984D01*
X94338410Y-62994479D01*
X94343490Y-62965816D01*
X94350603Y-62948482D01*
X94351440Y-62947232D01*
X94369254Y-62931366D01*
X94404078Y-62907667D01*
X94451346Y-62878627D01*
X94506494Y-62846737D01*
X94564958Y-62814488D01*
X94622173Y-62784371D01*
X94673574Y-62758878D01*
X94714596Y-62740499D01*
X94740677Y-62731726D01*
X94746483Y-62731632D01*
X94753534Y-62738769D01*
X94758581Y-62756189D01*
X94761919Y-62787290D01*
X94763841Y-62835470D01*
X94764643Y-62904128D01*
X94764717Y-62942228D01*
X94765277Y-63010858D01*
X94766827Y-63069550D01*
X94769167Y-63114073D01*
X94772100Y-63140194D01*
X94774242Y-63145300D01*
X94787819Y-63139202D01*
X94819900Y-63122549D01*
X94866875Y-63097282D01*
X94925136Y-63065344D01*
X94991072Y-63028676D01*
X94993317Y-63027419D01*
X95202867Y-62910064D01*
X95209217Y-62691808D01*
X95212029Y-62608925D01*
X95215206Y-62547859D01*
X95219151Y-62505026D01*
X95224265Y-62476843D01*
X95230950Y-62459726D01*
X95235989Y-62453170D01*
X95253579Y-62440399D01*
X95289312Y-62417981D01*
X95339019Y-62388408D01*
X95398532Y-62354174D01*
X95445539Y-62327803D01*
X95634667Y-62222818D01*
X95637960Y-62858194D01*
X95637960Y-62858194D01*
G37*
X95637960Y-62858194D02*
X95638419Y-62982881D01*
X95638485Y-63099802D01*
X95638184Y-63206511D01*
X95637539Y-63300560D01*
X95636574Y-63379503D01*
X95635315Y-63440892D01*
X95633783Y-63482280D01*
X95632005Y-63501221D01*
X95631610Y-63502111D01*
X95619172Y-63509487D01*
X95586336Y-63528064D01*
X95534965Y-63556814D01*
X95466925Y-63594710D01*
X95384080Y-63640723D01*
X95288293Y-63693826D01*
X95181429Y-63752991D01*
X95065352Y-63817190D01*
X94941926Y-63885395D01*
X94813016Y-63956579D01*
X94680485Y-64029713D01*
X94546199Y-64103770D01*
X94412020Y-64177722D01*
X94279814Y-64250541D01*
X94151445Y-64321200D01*
X94028776Y-64388669D01*
X93913672Y-64451923D01*
X93807998Y-64509932D01*
X93713617Y-64561669D01*
X93632393Y-64606107D01*
X93566192Y-64642216D01*
X93516876Y-64668970D01*
X93486311Y-64685341D01*
X93476573Y-64690286D01*
X93472011Y-64690125D01*
X93468194Y-64684495D01*
X93465058Y-64671377D01*
X93462536Y-64648754D01*
X93460564Y-64614609D01*
X93459076Y-64566924D01*
X93458008Y-64503683D01*
X93457293Y-64422868D01*
X93456866Y-64322461D01*
X93456663Y-64200446D01*
X93456617Y-64073708D01*
X93456617Y-63449472D01*
X93485192Y-63421085D01*
X93506472Y-63404845D01*
X93544222Y-63380641D01*
X93593671Y-63351105D01*
X93650048Y-63318869D01*
X93708582Y-63286566D01*
X93764503Y-63256828D01*
X93813039Y-63232287D01*
X93849421Y-63215576D01*
X93868877Y-63209327D01*
X93868976Y-63209326D01*
X93876257Y-63212429D01*
X93881498Y-63224015D01*
X93885018Y-63247502D01*
X93887133Y-63286306D01*
X93888160Y-63343846D01*
X93888417Y-63418877D01*
X93888867Y-63488615D01*
X93890115Y-63548523D01*
X93892002Y-63594416D01*
X93894372Y-63622108D01*
X93896288Y-63628427D01*
X93909365Y-63622591D01*
X93941107Y-63606341D01*
X93987958Y-63581559D01*
X94046358Y-63550129D01*
X94112751Y-63513935D01*
X94118190Y-63510952D01*
X94332220Y-63393477D01*
X94332568Y-63183577D01*
X94333230Y-63099846D01*
X94335084Y-63037984D01*
X94338410Y-62994479D01*
X94343490Y-62965816D01*
X94350603Y-62948482D01*
X94351440Y-62947232D01*
X94369254Y-62931366D01*
X94404078Y-62907667D01*
X94451346Y-62878627D01*
X94506494Y-62846737D01*
X94564958Y-62814488D01*
X94622173Y-62784371D01*
X94673574Y-62758878D01*
X94714596Y-62740499D01*
X94740677Y-62731726D01*
X94746483Y-62731632D01*
X94753534Y-62738769D01*
X94758581Y-62756189D01*
X94761919Y-62787290D01*
X94763841Y-62835470D01*
X94764643Y-62904128D01*
X94764717Y-62942228D01*
X94765277Y-63010858D01*
X94766827Y-63069550D01*
X94769167Y-63114073D01*
X94772100Y-63140194D01*
X94774242Y-63145300D01*
X94787819Y-63139202D01*
X94819900Y-63122549D01*
X94866875Y-63097282D01*
X94925136Y-63065344D01*
X94991072Y-63028676D01*
X94993317Y-63027419D01*
X95202867Y-62910064D01*
X95209217Y-62691808D01*
X95212029Y-62608925D01*
X95215206Y-62547859D01*
X95219151Y-62505026D01*
X95224265Y-62476843D01*
X95230950Y-62459726D01*
X95235989Y-62453170D01*
X95253579Y-62440399D01*
X95289312Y-62417981D01*
X95339019Y-62388408D01*
X95398532Y-62354174D01*
X95445539Y-62327803D01*
X95634667Y-62222818D01*
X95637960Y-62858194D01*
G36*
X96955180Y-62948487D02*
X96985034Y-62964890D01*
X97030427Y-62989977D01*
X97088034Y-63021910D01*
X97154531Y-63058851D01*
X97170780Y-63067888D01*
X97395946Y-63193150D01*
X97394224Y-63407112D01*
X97393472Y-63477921D01*
X97392476Y-63539227D01*
X97391332Y-63586802D01*
X97390137Y-63616422D01*
X97389253Y-63624324D01*
X97377667Y-63619524D01*
X97347308Y-63604232D01*
X97301622Y-63580259D01*
X97244059Y-63549418D01*
X97178065Y-63513519D01*
X97170735Y-63509502D01*
X96955467Y-63391431D01*
X96949117Y-63167009D01*
X96947147Y-63094708D01*
X96945587Y-63032092D01*
X96944525Y-62983204D01*
X96944050Y-62952084D01*
X96944190Y-62942607D01*
X96955180Y-62948487D01*
X96955180Y-62948487D01*
G37*
X96955180Y-62948487D02*
X96985034Y-62964890D01*
X97030427Y-62989977D01*
X97088034Y-63021910D01*
X97154531Y-63058851D01*
X97170780Y-63067888D01*
X97395946Y-63193150D01*
X97394224Y-63407112D01*
X97393472Y-63477921D01*
X97392476Y-63539227D01*
X97391332Y-63586802D01*
X97390137Y-63616422D01*
X97389253Y-63624324D01*
X97377667Y-63619524D01*
X97347308Y-63604232D01*
X97301622Y-63580259D01*
X97244059Y-63549418D01*
X97178065Y-63513519D01*
X97170735Y-63509502D01*
X96955467Y-63391431D01*
X96949117Y-63167009D01*
X96947147Y-63094708D01*
X96945587Y-63032092D01*
X96944525Y-62983204D01*
X96944050Y-62952084D01*
X96944190Y-62942607D01*
X96955180Y-62948487D01*
G36*
X96080299Y-62465928D02*
X96111761Y-62482422D01*
X96158663Y-62507692D01*
X96217643Y-62539922D01*
X96285339Y-62577296D01*
X96307869Y-62589809D01*
X96395227Y-62639227D01*
X96460357Y-62677979D01*
X96503892Y-62706475D01*
X96526462Y-62725123D01*
X96529596Y-62733583D01*
X96525389Y-62750561D01*
X96521397Y-62788227D01*
X96517954Y-62841868D01*
X96515396Y-62906772D01*
X96514476Y-62946212D01*
X96510967Y-63144851D01*
X96085517Y-62911129D01*
X96085517Y-62718154D01*
X96084719Y-62648104D01*
X96082525Y-62584860D01*
X96079229Y-62533823D01*
X96075130Y-62500390D01*
X96073131Y-62492603D01*
X96066320Y-62469059D01*
X96067637Y-62460027D01*
X96080299Y-62465928D01*
X96080299Y-62465928D01*
G37*
X96080299Y-62465928D02*
X96111761Y-62482422D01*
X96158663Y-62507692D01*
X96217643Y-62539922D01*
X96285339Y-62577296D01*
X96307869Y-62589809D01*
X96395227Y-62639227D01*
X96460357Y-62677979D01*
X96503892Y-62706475D01*
X96526462Y-62725123D01*
X96529596Y-62733583D01*
X96525389Y-62750561D01*
X96521397Y-62788227D01*
X96517954Y-62841868D01*
X96515396Y-62906772D01*
X96514476Y-62946212D01*
X96510967Y-63144851D01*
X96085517Y-62911129D01*
X96085517Y-62718154D01*
X96084719Y-62648104D01*
X96082525Y-62584860D01*
X96079229Y-62533823D01*
X96075130Y-62500390D01*
X96073131Y-62492603D01*
X96066320Y-62469059D01*
X96067637Y-62460027D01*
X96080299Y-62465928D01*
D14*
G04 #@! TO.C,R1*
X92591017Y-112193806D02*
X92591017Y-111868248D01*
X93611017Y-112193806D02*
X93611017Y-111868248D01*
G04 #@! TO.C,TP20*
X96591017Y-102211027D02*
G75*
G03X96591017Y-102211027I-950000J0D01*
G01*
G04 #@! TO.C,TP21*
X129611017Y-102211027D02*
G75*
G03X129611017Y-102211027I-950000J0D01*
G01*
G04 #@! TO.C,TP19*
X96591017Y-99671027D02*
G75*
G03X96591017Y-99671027I-950000J0D01*
G01*
G04 #@! TO.C,TP33*
X96591017Y-97131027D02*
G75*
G03X96591017Y-97131027I-950000J0D01*
G01*
G04 #@! TO.C,TP18*
X129611017Y-97131027D02*
G75*
G03X129611017Y-97131027I-950000J0D01*
G01*
G04 #@! TO.C,R1*
D11*
X94953397Y-112197693D02*
X94477207Y-112531027D01*
X94953397Y-112769122D02*
X93953397Y-112769122D01*
X93953397Y-112388169D01*
X94001017Y-112292931D01*
X94048636Y-112245312D01*
X94143874Y-112197693D01*
X94286731Y-112197693D01*
X94381969Y-112245312D01*
X94429588Y-112292931D01*
X94477207Y-112388169D01*
X94477207Y-112769122D01*
X94953397Y-111245312D02*
X94953397Y-111816741D01*
X94953397Y-111531027D02*
X93953397Y-111531027D01*
X94096255Y-111626265D01*
X94191493Y-111721503D01*
X94239112Y-111816741D01*
G04 #@! TD*
M02*
