G04 #@! TF.GenerationSoftware,KiCad,Pcbnew,5.0.2-bee76a0~70~ubuntu18.04.1*
G04 #@! TF.CreationDate,2019-05-09T10:07:15+02:00*
G04 #@! TF.ProjectId,smartcard,736d6172-7463-4617-9264-2e6b69636164,rev?*
G04 #@! TF.SameCoordinates,Original*
G04 #@! TF.FileFunction,Soldermask,Bot*
G04 #@! TF.FilePolarity,Negative*
%FSLAX46Y46*%
G04 Gerber Fmt 4.6, Leading zero omitted, Abs format (unit mm)*
G04 Created by KiCad (PCBNEW 5.0.2-bee76a0~70~ubuntu18.04.1) date jeu. 09 mai 2019 10:07:15 CEST*
%MOMM*%
%LPD*%
G01*
G04 APERTURE LIST*
%ADD10C,0.100000*%
G04 APERTURE END LIST*
D10*
G36*
X119756017Y-147176027D02*
X103746017Y-147176027D01*
X103746017Y-144506027D01*
X119756017Y-144506027D01*
X119756017Y-147176027D01*
X119756017Y-147176027D01*
G37*
G36*
X121286017Y-143391027D02*
X118346017Y-143391027D01*
X118346017Y-142561027D01*
X121286017Y-142561027D01*
X121286017Y-143391027D01*
X121286017Y-143391027D01*
G37*
G36*
X105156017Y-143391027D02*
X102216017Y-143391027D01*
X102216017Y-142561027D01*
X105156017Y-142561027D01*
X105156017Y-143391027D01*
X105156017Y-143391027D01*
G37*
G36*
X117476017Y-143391027D02*
X112376017Y-143391027D01*
X112376017Y-142561027D01*
X117476017Y-142561027D01*
X117476017Y-143391027D01*
X117476017Y-143391027D01*
G37*
G36*
X111126017Y-143391027D02*
X106026017Y-143391027D01*
X106026017Y-142561027D01*
X111126017Y-142561027D01*
X111126017Y-143391027D01*
X111126017Y-143391027D01*
G37*
G36*
X119756017Y-141446027D02*
X103746017Y-141446027D01*
X103746017Y-138776027D01*
X119756017Y-138776027D01*
X119756017Y-141446027D01*
X119756017Y-141446027D01*
G37*
G36*
X122023116Y-139623312D02*
X122152328Y-139676833D01*
X122268618Y-139754536D01*
X122367508Y-139853426D01*
X122445211Y-139969716D01*
X122498732Y-140098928D01*
X122526017Y-140236099D01*
X122526017Y-140375955D01*
X122498732Y-140513126D01*
X122445211Y-140642338D01*
X122367508Y-140758628D01*
X122268618Y-140857518D01*
X122152328Y-140935221D01*
X122023116Y-140988742D01*
X121885946Y-141016027D01*
X121746088Y-141016027D01*
X121608918Y-140988742D01*
X121479706Y-140935221D01*
X121363416Y-140857518D01*
X121264526Y-140758628D01*
X121186823Y-140642338D01*
X121133302Y-140513126D01*
X121106017Y-140375955D01*
X121106017Y-140236099D01*
X121133302Y-140098928D01*
X121186823Y-139969716D01*
X121264526Y-139853426D01*
X121363416Y-139754536D01*
X121479706Y-139676833D01*
X121608918Y-139623312D01*
X121746088Y-139596027D01*
X121885946Y-139596027D01*
X122023116Y-139623312D01*
X122023116Y-139623312D01*
G37*
G36*
X101893116Y-139623312D02*
X102022328Y-139676833D01*
X102138618Y-139754536D01*
X102237508Y-139853426D01*
X102315211Y-139969716D01*
X102368732Y-140098928D01*
X102396017Y-140236099D01*
X102396017Y-140375955D01*
X102368732Y-140513126D01*
X102315211Y-140642338D01*
X102237508Y-140758628D01*
X102138618Y-140857518D01*
X102022328Y-140935221D01*
X101893116Y-140988742D01*
X101755946Y-141016027D01*
X101616088Y-141016027D01*
X101478918Y-140988742D01*
X101349706Y-140935221D01*
X101233416Y-140857518D01*
X101134526Y-140758628D01*
X101056823Y-140642338D01*
X101003302Y-140513126D01*
X100976017Y-140375955D01*
X100976017Y-140236099D01*
X101003302Y-140098928D01*
X101056823Y-139969716D01*
X101134526Y-139853426D01*
X101233416Y-139754536D01*
X101349706Y-139676833D01*
X101478918Y-139623312D01*
X101616088Y-139596027D01*
X101755946Y-139596027D01*
X101893116Y-139623312D01*
X101893116Y-139623312D01*
G37*
G36*
X102560139Y-131257142D02*
X102676058Y-131280200D01*
X103003637Y-131415888D01*
X103294528Y-131610255D01*
X103298453Y-131612878D01*
X103549166Y-131863591D01*
X103746157Y-132158409D01*
X103881844Y-132485987D01*
X103951017Y-132833741D01*
X103951017Y-133188313D01*
X103881844Y-133536067D01*
X103746157Y-133863645D01*
X103549166Y-134158463D01*
X103298453Y-134409176D01*
X103298450Y-134409178D01*
X103003637Y-134606166D01*
X102676058Y-134741854D01*
X102560139Y-134764912D01*
X102328303Y-134811027D01*
X101973731Y-134811027D01*
X101741895Y-134764912D01*
X101625976Y-134741854D01*
X101298397Y-134606166D01*
X101003584Y-134409178D01*
X101003581Y-134409176D01*
X100752868Y-134158463D01*
X100555877Y-133863645D01*
X100420190Y-133536067D01*
X100351017Y-133188313D01*
X100351017Y-132833741D01*
X100420190Y-132485987D01*
X100555877Y-132158409D01*
X100752868Y-131863591D01*
X101003581Y-131612878D01*
X101007506Y-131610255D01*
X101298397Y-131415888D01*
X101625976Y-131280200D01*
X101741895Y-131257142D01*
X101973731Y-131211027D01*
X102328303Y-131211027D01*
X102560139Y-131257142D01*
X102560139Y-131257142D01*
G37*
G36*
X122560139Y-131257142D02*
X122676058Y-131280200D01*
X123003637Y-131415888D01*
X123294528Y-131610255D01*
X123298453Y-131612878D01*
X123549166Y-131863591D01*
X123746157Y-132158409D01*
X123881844Y-132485987D01*
X123951017Y-132833741D01*
X123951017Y-133188313D01*
X123881844Y-133536067D01*
X123746157Y-133863645D01*
X123549166Y-134158463D01*
X123298453Y-134409176D01*
X123298450Y-134409178D01*
X123003637Y-134606166D01*
X122676058Y-134741854D01*
X122560139Y-134764912D01*
X122328303Y-134811027D01*
X121973731Y-134811027D01*
X121741895Y-134764912D01*
X121625976Y-134741854D01*
X121298397Y-134606166D01*
X121003584Y-134409178D01*
X121003581Y-134409176D01*
X120752868Y-134158463D01*
X120555877Y-133863645D01*
X120420190Y-133536067D01*
X120351017Y-133188313D01*
X120351017Y-132833741D01*
X120420190Y-132485987D01*
X120555877Y-132158409D01*
X120752868Y-131863591D01*
X121003581Y-131612878D01*
X121007506Y-131610255D01*
X121298397Y-131415888D01*
X121625976Y-131280200D01*
X121741895Y-131257142D01*
X121973731Y-131211027D01*
X122328303Y-131211027D01*
X122560139Y-131257142D01*
X122560139Y-131257142D01*
G37*
G36*
X93451043Y-107407142D02*
X93669429Y-107497600D01*
X93865975Y-107628928D01*
X94033116Y-107796069D01*
X94164444Y-107992615D01*
X94255532Y-108212522D01*
X94267083Y-108234133D01*
X94282628Y-108253075D01*
X94301571Y-108268621D01*
X94323181Y-108280172D01*
X94346630Y-108287285D01*
X94371017Y-108289687D01*
X94395403Y-108287285D01*
X94418852Y-108280172D01*
X94440463Y-108268621D01*
X94459405Y-108253076D01*
X94474951Y-108234133D01*
X94486502Y-108212522D01*
X94577590Y-107992615D01*
X94708918Y-107796069D01*
X94876059Y-107628928D01*
X95072605Y-107497600D01*
X95290991Y-107407142D01*
X95522826Y-107361027D01*
X95759208Y-107361027D01*
X95991043Y-107407142D01*
X96209429Y-107497600D01*
X96405975Y-107628928D01*
X96573116Y-107796069D01*
X96704444Y-107992615D01*
X96794902Y-108211001D01*
X96841017Y-108442836D01*
X96841017Y-108679218D01*
X96794902Y-108911053D01*
X96704444Y-109129439D01*
X96573116Y-109325985D01*
X96405975Y-109493126D01*
X96209429Y-109624454D01*
X95991043Y-109714912D01*
X95759208Y-109761027D01*
X95522826Y-109761027D01*
X95290991Y-109714912D01*
X95072605Y-109624454D01*
X94876059Y-109493126D01*
X94708918Y-109325985D01*
X94577590Y-109129439D01*
X94486502Y-108909532D01*
X94474951Y-108887921D01*
X94459406Y-108868979D01*
X94440463Y-108853433D01*
X94418853Y-108841882D01*
X94395404Y-108834769D01*
X94371017Y-108832367D01*
X94346631Y-108834769D01*
X94323182Y-108841882D01*
X94301571Y-108853433D01*
X94282629Y-108868978D01*
X94267083Y-108887921D01*
X94255532Y-108909532D01*
X94164444Y-109129439D01*
X94033116Y-109325985D01*
X93865975Y-109493126D01*
X93669429Y-109624454D01*
X93451043Y-109714912D01*
X93219208Y-109761027D01*
X92982826Y-109761027D01*
X92750991Y-109714912D01*
X92532605Y-109624454D01*
X92336059Y-109493126D01*
X92168918Y-109325985D01*
X92037590Y-109129439D01*
X91947132Y-108911053D01*
X91901017Y-108679218D01*
X91901017Y-108442836D01*
X91947132Y-108211001D01*
X92037590Y-107992615D01*
X92168918Y-107796069D01*
X92336059Y-107628928D01*
X92532605Y-107497600D01*
X92750991Y-107407142D01*
X92982826Y-107361027D01*
X93219208Y-107361027D01*
X93451043Y-107407142D01*
X93451043Y-107407142D01*
G37*
G36*
X93451043Y-95977142D02*
X93669429Y-96067600D01*
X93865975Y-96198928D01*
X94033116Y-96366069D01*
X94164444Y-96562615D01*
X94254902Y-96781001D01*
X94301017Y-97012836D01*
X94301017Y-97249218D01*
X94254902Y-97481053D01*
X94164444Y-97699439D01*
X94033116Y-97895985D01*
X93865975Y-98063126D01*
X93669429Y-98194454D01*
X93449522Y-98285542D01*
X93427911Y-98297093D01*
X93408969Y-98312638D01*
X93393423Y-98331581D01*
X93381872Y-98353191D01*
X93374759Y-98376640D01*
X93372357Y-98401027D01*
X93374759Y-98425413D01*
X93381872Y-98448862D01*
X93393423Y-98470473D01*
X93408968Y-98489415D01*
X93427911Y-98504961D01*
X93449522Y-98516512D01*
X93669429Y-98607600D01*
X93865975Y-98738928D01*
X94033116Y-98906069D01*
X94164444Y-99102615D01*
X94254902Y-99321001D01*
X94301017Y-99552836D01*
X94301017Y-99789218D01*
X94254902Y-100021053D01*
X94164444Y-100239439D01*
X94033116Y-100435985D01*
X93865975Y-100603126D01*
X93669429Y-100734454D01*
X93449522Y-100825542D01*
X93427911Y-100837093D01*
X93408969Y-100852638D01*
X93393423Y-100871581D01*
X93381872Y-100893191D01*
X93374759Y-100916640D01*
X93372357Y-100941027D01*
X93374759Y-100965413D01*
X93381872Y-100988862D01*
X93393423Y-101010473D01*
X93408968Y-101029415D01*
X93427911Y-101044961D01*
X93449522Y-101056512D01*
X93669429Y-101147600D01*
X93865975Y-101278928D01*
X94033116Y-101446069D01*
X94164444Y-101642615D01*
X94254902Y-101861001D01*
X94301017Y-102092836D01*
X94301017Y-102329218D01*
X94254902Y-102561053D01*
X94164444Y-102779439D01*
X94033116Y-102975985D01*
X93865975Y-103143126D01*
X93669429Y-103274454D01*
X93449522Y-103365542D01*
X93427911Y-103377093D01*
X93408969Y-103392638D01*
X93393423Y-103411581D01*
X93381872Y-103433191D01*
X93374759Y-103456640D01*
X93372357Y-103481027D01*
X93374759Y-103505413D01*
X93381872Y-103528862D01*
X93393423Y-103550473D01*
X93408968Y-103569415D01*
X93427911Y-103584961D01*
X93449522Y-103596512D01*
X93669429Y-103687600D01*
X93865975Y-103818928D01*
X94033116Y-103986069D01*
X94164444Y-104182615D01*
X94254902Y-104401001D01*
X94301017Y-104632836D01*
X94301017Y-104869218D01*
X94254902Y-105101053D01*
X94164444Y-105319439D01*
X94033116Y-105515985D01*
X93865975Y-105683126D01*
X93669429Y-105814454D01*
X93451043Y-105904912D01*
X93219208Y-105951027D01*
X92982826Y-105951027D01*
X92750991Y-105904912D01*
X92532605Y-105814454D01*
X92336059Y-105683126D01*
X92168918Y-105515985D01*
X92037590Y-105319439D01*
X91947132Y-105101053D01*
X91901017Y-104869218D01*
X91901017Y-104632836D01*
X91947132Y-104401001D01*
X92037590Y-104182615D01*
X92168918Y-103986069D01*
X92336059Y-103818928D01*
X92532605Y-103687600D01*
X92752512Y-103596512D01*
X92774123Y-103584961D01*
X92793065Y-103569416D01*
X92808611Y-103550473D01*
X92820162Y-103528863D01*
X92827275Y-103505414D01*
X92829677Y-103481027D01*
X92827275Y-103456641D01*
X92820162Y-103433192D01*
X92808611Y-103411581D01*
X92793066Y-103392639D01*
X92774123Y-103377093D01*
X92752512Y-103365542D01*
X92532605Y-103274454D01*
X92336059Y-103143126D01*
X92168918Y-102975985D01*
X92037590Y-102779439D01*
X91947132Y-102561053D01*
X91901017Y-102329218D01*
X91901017Y-102092836D01*
X91947132Y-101861001D01*
X92037590Y-101642615D01*
X92168918Y-101446069D01*
X92336059Y-101278928D01*
X92532605Y-101147600D01*
X92752512Y-101056512D01*
X92774123Y-101044961D01*
X92793065Y-101029416D01*
X92808611Y-101010473D01*
X92820162Y-100988863D01*
X92827275Y-100965414D01*
X92829677Y-100941027D01*
X92827275Y-100916641D01*
X92820162Y-100893192D01*
X92808611Y-100871581D01*
X92793066Y-100852639D01*
X92774123Y-100837093D01*
X92752512Y-100825542D01*
X92532605Y-100734454D01*
X92336059Y-100603126D01*
X92168918Y-100435985D01*
X92037590Y-100239439D01*
X91947132Y-100021053D01*
X91901017Y-99789218D01*
X91901017Y-99552836D01*
X91947132Y-99321001D01*
X92037590Y-99102615D01*
X92168918Y-98906069D01*
X92336059Y-98738928D01*
X92532605Y-98607600D01*
X92752512Y-98516512D01*
X92774123Y-98504961D01*
X92793065Y-98489416D01*
X92808611Y-98470473D01*
X92820162Y-98448863D01*
X92827275Y-98425414D01*
X92829677Y-98401027D01*
X92827275Y-98376641D01*
X92820162Y-98353192D01*
X92808611Y-98331581D01*
X92793066Y-98312639D01*
X92774123Y-98297093D01*
X92752512Y-98285542D01*
X92532605Y-98194454D01*
X92336059Y-98063126D01*
X92168918Y-97895985D01*
X92037590Y-97699439D01*
X91947132Y-97481053D01*
X91901017Y-97249218D01*
X91901017Y-97012836D01*
X91947132Y-96781001D01*
X92037590Y-96562615D01*
X92168918Y-96366069D01*
X92336059Y-96198928D01*
X92532605Y-96067600D01*
X92750991Y-95977142D01*
X92982826Y-95931027D01*
X93219208Y-95931027D01*
X93451043Y-95977142D01*
X93451043Y-95977142D01*
G37*
G36*
X131551043Y-95977142D02*
X131769429Y-96067600D01*
X131965975Y-96198928D01*
X132133116Y-96366069D01*
X132264444Y-96562615D01*
X132354902Y-96781001D01*
X132401017Y-97012836D01*
X132401017Y-97249218D01*
X132354902Y-97481053D01*
X132264444Y-97699439D01*
X132133116Y-97895985D01*
X131965975Y-98063126D01*
X131769429Y-98194454D01*
X131549522Y-98285542D01*
X131527911Y-98297093D01*
X131508969Y-98312638D01*
X131493423Y-98331581D01*
X131481872Y-98353191D01*
X131474759Y-98376640D01*
X131472357Y-98401027D01*
X131474759Y-98425413D01*
X131481872Y-98448862D01*
X131493423Y-98470473D01*
X131508968Y-98489415D01*
X131527911Y-98504961D01*
X131549522Y-98516512D01*
X131769429Y-98607600D01*
X131965975Y-98738928D01*
X132133116Y-98906069D01*
X132264444Y-99102615D01*
X132354902Y-99321001D01*
X132401017Y-99552836D01*
X132401017Y-99789218D01*
X132354902Y-100021053D01*
X132264444Y-100239439D01*
X132133116Y-100435985D01*
X131965975Y-100603126D01*
X131769429Y-100734454D01*
X131549522Y-100825542D01*
X131527911Y-100837093D01*
X131508969Y-100852638D01*
X131493423Y-100871581D01*
X131481872Y-100893191D01*
X131474759Y-100916640D01*
X131472357Y-100941027D01*
X131474759Y-100965413D01*
X131481872Y-100988862D01*
X131493423Y-101010473D01*
X131508968Y-101029415D01*
X131527911Y-101044961D01*
X131549522Y-101056512D01*
X131769429Y-101147600D01*
X131965975Y-101278928D01*
X132133116Y-101446069D01*
X132264444Y-101642615D01*
X132354902Y-101861001D01*
X132401017Y-102092836D01*
X132401017Y-102329218D01*
X132354902Y-102561053D01*
X132264444Y-102779439D01*
X132133116Y-102975985D01*
X131965975Y-103143126D01*
X131769429Y-103274454D01*
X131549522Y-103365542D01*
X131527911Y-103377093D01*
X131508969Y-103392638D01*
X131493423Y-103411581D01*
X131481872Y-103433191D01*
X131474759Y-103456640D01*
X131472357Y-103481027D01*
X131474759Y-103505413D01*
X131481872Y-103528862D01*
X131493423Y-103550473D01*
X131508968Y-103569415D01*
X131527911Y-103584961D01*
X131549522Y-103596512D01*
X131769429Y-103687600D01*
X131965975Y-103818928D01*
X132133116Y-103986069D01*
X132264444Y-104182615D01*
X132354902Y-104401001D01*
X132401017Y-104632836D01*
X132401017Y-104869218D01*
X132354902Y-105101053D01*
X132264444Y-105319439D01*
X132133116Y-105515985D01*
X131965975Y-105683126D01*
X131769429Y-105814454D01*
X131551043Y-105904912D01*
X131319208Y-105951027D01*
X131082826Y-105951027D01*
X130850991Y-105904912D01*
X130632605Y-105814454D01*
X130436059Y-105683126D01*
X130268918Y-105515985D01*
X130137590Y-105319439D01*
X130047132Y-105101053D01*
X130001017Y-104869218D01*
X130001017Y-104632836D01*
X130047132Y-104401001D01*
X130137590Y-104182615D01*
X130268918Y-103986069D01*
X130436059Y-103818928D01*
X130632605Y-103687600D01*
X130852512Y-103596512D01*
X130874123Y-103584961D01*
X130893065Y-103569416D01*
X130908611Y-103550473D01*
X130920162Y-103528863D01*
X130927275Y-103505414D01*
X130929677Y-103481027D01*
X130927275Y-103456641D01*
X130920162Y-103433192D01*
X130908611Y-103411581D01*
X130893066Y-103392639D01*
X130874123Y-103377093D01*
X130852512Y-103365542D01*
X130632605Y-103274454D01*
X130436059Y-103143126D01*
X130268918Y-102975985D01*
X130137590Y-102779439D01*
X130047132Y-102561053D01*
X130001017Y-102329218D01*
X130001017Y-102092836D01*
X130047132Y-101861001D01*
X130137590Y-101642615D01*
X130268918Y-101446069D01*
X130436059Y-101278928D01*
X130632605Y-101147600D01*
X130852512Y-101056512D01*
X130874123Y-101044961D01*
X130893065Y-101029416D01*
X130908611Y-101010473D01*
X130920162Y-100988863D01*
X130927275Y-100965414D01*
X130929677Y-100941027D01*
X130927275Y-100916641D01*
X130920162Y-100893192D01*
X130908611Y-100871581D01*
X130893066Y-100852639D01*
X130874123Y-100837093D01*
X130852512Y-100825542D01*
X130632605Y-100734454D01*
X130436059Y-100603126D01*
X130268918Y-100435985D01*
X130137590Y-100239439D01*
X130047132Y-100021053D01*
X130001017Y-99789218D01*
X130001017Y-99552836D01*
X130047132Y-99321001D01*
X130137590Y-99102615D01*
X130268918Y-98906069D01*
X130436059Y-98738928D01*
X130632605Y-98607600D01*
X130852512Y-98516512D01*
X130874123Y-98504961D01*
X130893065Y-98489416D01*
X130908611Y-98470473D01*
X130920162Y-98448863D01*
X130927275Y-98425414D01*
X130929677Y-98401027D01*
X130927275Y-98376641D01*
X130920162Y-98353192D01*
X130908611Y-98331581D01*
X130893066Y-98312639D01*
X130874123Y-98297093D01*
X130852512Y-98285542D01*
X130632605Y-98194454D01*
X130436059Y-98063126D01*
X130268918Y-97895985D01*
X130137590Y-97699439D01*
X130047132Y-97481053D01*
X130001017Y-97249218D01*
X130001017Y-97012836D01*
X130047132Y-96781001D01*
X130137590Y-96562615D01*
X130268918Y-96366069D01*
X130436059Y-96198928D01*
X130632605Y-96067600D01*
X130850991Y-95977142D01*
X131082826Y-95931027D01*
X131319208Y-95931027D01*
X131551043Y-95977142D01*
X131551043Y-95977142D01*
G37*
G36*
X102560139Y-73257142D02*
X102676058Y-73280200D01*
X103003637Y-73415888D01*
X103294528Y-73610255D01*
X103298453Y-73612878D01*
X103549166Y-73863591D01*
X103746157Y-74158409D01*
X103881844Y-74485987D01*
X103951017Y-74833741D01*
X103951017Y-75188313D01*
X103881844Y-75536067D01*
X103746157Y-75863645D01*
X103549166Y-76158463D01*
X103298453Y-76409176D01*
X103298450Y-76409178D01*
X103003637Y-76606166D01*
X102676058Y-76741854D01*
X102560139Y-76764912D01*
X102328303Y-76811027D01*
X101973731Y-76811027D01*
X101741895Y-76764912D01*
X101625976Y-76741854D01*
X101298397Y-76606166D01*
X101003584Y-76409178D01*
X101003581Y-76409176D01*
X100752868Y-76158463D01*
X100555877Y-75863645D01*
X100420190Y-75536067D01*
X100351017Y-75188313D01*
X100351017Y-74833741D01*
X100420190Y-74485987D01*
X100555877Y-74158409D01*
X100752868Y-73863591D01*
X101003581Y-73612878D01*
X101007506Y-73610255D01*
X101298397Y-73415888D01*
X101625976Y-73280200D01*
X101741895Y-73257142D01*
X101973731Y-73211027D01*
X102328303Y-73211027D01*
X102560139Y-73257142D01*
X102560139Y-73257142D01*
G37*
G36*
X122560139Y-73257142D02*
X122676058Y-73280200D01*
X123003637Y-73415888D01*
X123294528Y-73610255D01*
X123298453Y-73612878D01*
X123549166Y-73863591D01*
X123746157Y-74158409D01*
X123881844Y-74485987D01*
X123951017Y-74833741D01*
X123951017Y-75188313D01*
X123881844Y-75536067D01*
X123746157Y-75863645D01*
X123549166Y-76158463D01*
X123298453Y-76409176D01*
X123298450Y-76409178D01*
X123003637Y-76606166D01*
X122676058Y-76741854D01*
X122560139Y-76764912D01*
X122328303Y-76811027D01*
X121973731Y-76811027D01*
X121741895Y-76764912D01*
X121625976Y-76741854D01*
X121298397Y-76606166D01*
X121003584Y-76409178D01*
X121003581Y-76409176D01*
X120752868Y-76158463D01*
X120555877Y-75863645D01*
X120420190Y-75536067D01*
X120351017Y-75188313D01*
X120351017Y-74833741D01*
X120420190Y-74485987D01*
X120555877Y-74158409D01*
X120752868Y-73863591D01*
X121003581Y-73612878D01*
X121007506Y-73610255D01*
X121298397Y-73415888D01*
X121625976Y-73280200D01*
X121741895Y-73257142D01*
X121973731Y-73211027D01*
X122328303Y-73211027D01*
X122560139Y-73257142D01*
X122560139Y-73257142D01*
G37*
G36*
X119756017Y-69076027D02*
X103746017Y-69076027D01*
X103746017Y-66406027D01*
X119756017Y-66406027D01*
X119756017Y-69076027D01*
X119756017Y-69076027D01*
G37*
G36*
X105156017Y-65291027D02*
X102216017Y-65291027D01*
X102216017Y-64461027D01*
X105156017Y-64461027D01*
X105156017Y-65291027D01*
X105156017Y-65291027D01*
G37*
G36*
X111126017Y-65291027D02*
X106026017Y-65291027D01*
X106026017Y-64461027D01*
X111126017Y-64461027D01*
X111126017Y-65291027D01*
X111126017Y-65291027D01*
G37*
G36*
X117476017Y-65291027D02*
X112376017Y-65291027D01*
X112376017Y-64461027D01*
X117476017Y-64461027D01*
X117476017Y-65291027D01*
X117476017Y-65291027D01*
G37*
G36*
X121286017Y-65291027D02*
X118346017Y-65291027D01*
X118346017Y-64461027D01*
X121286017Y-64461027D01*
X121286017Y-65291027D01*
X121286017Y-65291027D01*
G37*
G36*
X119756017Y-63346027D02*
X103746017Y-63346027D01*
X103746017Y-60676027D01*
X119756017Y-60676027D01*
X119756017Y-63346027D01*
X119756017Y-63346027D01*
G37*
G36*
X122023116Y-61523312D02*
X122152328Y-61576833D01*
X122268618Y-61654536D01*
X122367508Y-61753426D01*
X122445211Y-61869716D01*
X122498732Y-61998928D01*
X122526017Y-62136099D01*
X122526017Y-62275955D01*
X122498732Y-62413126D01*
X122445211Y-62542338D01*
X122367508Y-62658628D01*
X122268618Y-62757518D01*
X122152328Y-62835221D01*
X122023116Y-62888742D01*
X121885946Y-62916027D01*
X121746088Y-62916027D01*
X121608918Y-62888742D01*
X121479706Y-62835221D01*
X121363416Y-62757518D01*
X121264526Y-62658628D01*
X121186823Y-62542338D01*
X121133302Y-62413126D01*
X121106017Y-62275955D01*
X121106017Y-62136099D01*
X121133302Y-61998928D01*
X121186823Y-61869716D01*
X121264526Y-61753426D01*
X121363416Y-61654536D01*
X121479706Y-61576833D01*
X121608918Y-61523312D01*
X121746088Y-61496027D01*
X121885946Y-61496027D01*
X122023116Y-61523312D01*
X122023116Y-61523312D01*
G37*
G36*
X101893116Y-61523312D02*
X102022328Y-61576833D01*
X102138618Y-61654536D01*
X102237508Y-61753426D01*
X102315211Y-61869716D01*
X102368732Y-61998928D01*
X102396017Y-62136099D01*
X102396017Y-62275955D01*
X102368732Y-62413126D01*
X102315211Y-62542338D01*
X102237508Y-62658628D01*
X102138618Y-62757518D01*
X102022328Y-62835221D01*
X101893116Y-62888742D01*
X101755946Y-62916027D01*
X101616088Y-62916027D01*
X101478918Y-62888742D01*
X101349706Y-62835221D01*
X101233416Y-62757518D01*
X101134526Y-62658628D01*
X101056823Y-62542338D01*
X101003302Y-62413126D01*
X100976017Y-62275955D01*
X100976017Y-62136099D01*
X101003302Y-61998928D01*
X101056823Y-61869716D01*
X101134526Y-61753426D01*
X101233416Y-61654536D01*
X101349706Y-61576833D01*
X101478918Y-61523312D01*
X101616088Y-61496027D01*
X101755946Y-61496027D01*
X101893116Y-61523312D01*
X101893116Y-61523312D01*
G37*
M02*
