M48
;DRILL file {KiCad 5.0.2-bee76a0~70~ubuntu18.04.1} date mar. 23 juil. 2019 10:59:19 CEST
;FORMAT={-:-/ absolute / inch / decimal}
FMAT,2
INCH,TZ
T1C0.0157
T2C0.0394
T3C0.1260
%
G90
G05
T1
X3.7669Y-4.5041
X3.7969Y-4.5641
X3.8454Y-5.4941
X4.1554Y-5.3841
X4.9567Y-4.1272
T2
X3.6654Y-3.8241
X3.6654Y-3.9241
X3.6654Y-4.0241
X3.6654Y-4.1241
X3.6654Y-4.2741
X3.7654Y-4.2741
X5.1654Y-3.8241
X5.1654Y-3.9241
X5.1654Y-4.0241
X5.1654Y-4.1241
X3.9654Y-5.6241
X3.9654Y-5.7241
X4.0654Y-5.6241
X4.0654Y-5.7241
X4.1654Y-5.6241
X4.1654Y-5.7241
X4.2654Y-5.6241
X4.2654Y-5.7241
X4.3654Y-5.6241
X4.3654Y-5.7241
X4.4654Y-5.6241
X4.4654Y-5.7241
X4.5654Y-5.6241
X4.5654Y-5.7241
X4.6654Y-5.6241
X4.6654Y-5.7241
X4.7654Y-5.6241
X4.7654Y-5.7241
X4.8654Y-5.6241
X4.8654Y-5.7241
X3.9654Y-2.5241
X3.9654Y-2.6241
X4.0654Y-2.5241
X4.0654Y-2.6241
X4.1654Y-2.5241
X4.1654Y-2.6241
X4.2654Y-2.5241
X4.2654Y-2.6241
X4.3654Y-2.5241
X4.3654Y-2.6241
X4.4654Y-2.5241
X4.4654Y-2.6241
X4.5654Y-2.5241
X4.5654Y-2.6241
X4.6654Y-2.5241
X4.6654Y-2.6241
X4.7654Y-2.5241
X4.7654Y-2.6241
X4.8654Y-2.5241
X4.8654Y-2.6241
T3
X4.0217Y-2.9532
X4.0217Y-5.2367
X4.8091Y-2.9532
X4.8091Y-5.2367
T0
M30
