G04 #@! TF.GenerationSoftware,KiCad,Pcbnew,5.0.2-bee76a0~70~ubuntu18.04.1*
G04 #@! TF.CreationDate,2019-07-23T10:59:18+02:00*
G04 #@! TF.ProjectId,smartcard,736d6172-7463-4617-9264-2e6b69636164,rev?*
G04 #@! TF.SameCoordinates,Original*
G04 #@! TF.FileFunction,Copper,L2,Bot*
G04 #@! TF.FilePolarity,Positive*
%FSLAX46Y46*%
G04 Gerber Fmt 4.6, Leading zero omitted, Abs format (unit mm)*
G04 Created by KiCad (PCBNEW 5.0.2-bee76a0~70~ubuntu18.04.1) date mar. 23 juil. 2019 10:59:18 CEST*
%MOMM*%
%LPD*%
G01*
G04 APERTURE LIST*
G04 #@! TA.AperFunction,ComponentPad*
%ADD10C,3.200000*%
G04 #@! TD*
G04 #@! TA.AperFunction,ComponentPad*
%ADD11C,2.000000*%
G04 #@! TD*
G04 #@! TA.AperFunction,ComponentPad*
%ADD12O,1.700000X1.700000*%
G04 #@! TD*
G04 #@! TA.AperFunction,ComponentPad*
%ADD13R,1.700000X1.700000*%
G04 #@! TD*
G04 #@! TA.AperFunction,Conductor*
%ADD14C,0.100000*%
G04 #@! TD*
G04 #@! TA.AperFunction,SMDPad,CuDef*
%ADD15C,0.875000*%
G04 #@! TD*
G04 #@! TA.AperFunction,ViaPad*
%ADD16C,0.800000*%
G04 #@! TD*
G04 #@! TA.AperFunction,Conductor*
%ADD17C,0.400000*%
G04 #@! TD*
G04 APERTURE END LIST*
D10*
G04 #@! TO.P,U1,~*
G04 #@! TO.N,N/C*
X122151017Y-133011027D03*
X102151017Y-133011027D03*
X102151017Y-75011027D03*
X122151017Y-75011027D03*
D11*
G04 #@! TO.P,U1,5*
G04 #@! TO.N,GNDA*
X131201017Y-97131027D03*
G04 #@! TO.P,U1,6*
G04 #@! TO.N,Net-(U1-Pad6)*
X131201017Y-99671027D03*
G04 #@! TO.P,U1,7*
G04 #@! TO.N,/D0_IO*
X131201017Y-102211027D03*
G04 #@! TO.P,U1,8*
G04 #@! TO.N,Net-(U1-Pad8)*
X131201017Y-104751027D03*
G04 #@! TO.P,U1,1*
G04 #@! TO.N,VDDA*
X93101017Y-97131027D03*
G04 #@! TO.P,U1,2*
G04 #@! TO.N,/D1_~RST~*
X93101017Y-99671027D03*
G04 #@! TO.P,U1,3*
G04 #@! TO.N,/D2_CLK*
X93101017Y-102211027D03*
G04 #@! TO.P,U1,4*
G04 #@! TO.N,Net-(U1-Pad4)*
X93101017Y-104751027D03*
G04 #@! TO.P,U1,9*
G04 #@! TO.N,/D3_SENSE*
X93101017Y-108561027D03*
G04 #@! TO.P,U1,10*
G04 #@! TO.N,GND*
X95641017Y-108561027D03*
G04 #@! TD*
D12*
G04 #@! TO.P,J2,20*
G04 #@! TO.N,Net-(J2-Pad20)*
X123581017Y-64111027D03*
G04 #@! TO.P,J2,19*
G04 #@! TO.N,Net-(J2-Pad19)*
X123581017Y-66651027D03*
G04 #@! TO.P,J2,18*
G04 #@! TO.N,Net-(J2-Pad18)*
X121041017Y-64111027D03*
G04 #@! TO.P,J2,17*
G04 #@! TO.N,Net-(J2-Pad17)*
X121041017Y-66651027D03*
G04 #@! TO.P,J2,16*
G04 #@! TO.N,Net-(J2-Pad16)*
X118501017Y-64111027D03*
G04 #@! TO.P,J2,15*
G04 #@! TO.N,Net-(J2-Pad15)*
X118501017Y-66651027D03*
G04 #@! TO.P,J2,14*
G04 #@! TO.N,Net-(J2-Pad14)*
X115961017Y-64111027D03*
G04 #@! TO.P,J2,13*
G04 #@! TO.N,Net-(J2-Pad13)*
X115961017Y-66651027D03*
G04 #@! TO.P,J2,12*
G04 #@! TO.N,Net-(J2-Pad12)*
X113421017Y-64111027D03*
G04 #@! TO.P,J2,11*
G04 #@! TO.N,Net-(J2-Pad11)*
X113421017Y-66651027D03*
G04 #@! TO.P,J2,10*
G04 #@! TO.N,Net-(J2-Pad10)*
X110881017Y-64111027D03*
G04 #@! TO.P,J2,9*
G04 #@! TO.N,Net-(J2-Pad9)*
X110881017Y-66651027D03*
G04 #@! TO.P,J2,8*
G04 #@! TO.N,Net-(J2-Pad8)*
X108341017Y-64111027D03*
G04 #@! TO.P,J2,7*
G04 #@! TO.N,Net-(J2-Pad7)*
X108341017Y-66651027D03*
G04 #@! TO.P,J2,6*
G04 #@! TO.N,Net-(J2-Pad6)*
X105801017Y-64111027D03*
G04 #@! TO.P,J2,5*
G04 #@! TO.N,Net-(J2-Pad5)*
X105801017Y-66651027D03*
G04 #@! TO.P,J2,4*
G04 #@! TO.N,Net-(J2-Pad4)*
X103261017Y-64111027D03*
G04 #@! TO.P,J2,3*
G04 #@! TO.N,Net-(J2-Pad3)*
X103261017Y-66651027D03*
G04 #@! TO.P,J2,2*
G04 #@! TO.N,Net-(J2-Pad2)*
X100721017Y-64111027D03*
D13*
G04 #@! TO.P,J2,1*
G04 #@! TO.N,Net-(J2-Pad1)*
X100721017Y-66651027D03*
G04 #@! TD*
G04 #@! TO.P,J1,1*
G04 #@! TO.N,/D1_~RST~*
X100721017Y-145391027D03*
D12*
G04 #@! TO.P,J1,2*
G04 #@! TO.N,/D0_IO*
X100721017Y-142851027D03*
G04 #@! TO.P,J1,3*
G04 #@! TO.N,/D3_SENSE*
X103261017Y-145391027D03*
G04 #@! TO.P,J1,4*
G04 #@! TO.N,/D2_CLK*
X103261017Y-142851027D03*
G04 #@! TO.P,J1,5*
G04 #@! TO.N,Net-(J1-Pad5)*
X105801017Y-145391027D03*
G04 #@! TO.P,J1,6*
G04 #@! TO.N,Net-(J1-Pad6)*
X105801017Y-142851027D03*
G04 #@! TO.P,J1,7*
G04 #@! TO.N,Net-(J1-Pad7)*
X108341017Y-145391027D03*
G04 #@! TO.P,J1,8*
G04 #@! TO.N,Net-(J1-Pad8)*
X108341017Y-142851027D03*
G04 #@! TO.P,J1,9*
G04 #@! TO.N,Net-(J1-Pad9)*
X110881017Y-145391027D03*
G04 #@! TO.P,J1,10*
G04 #@! TO.N,Net-(J1-Pad10)*
X110881017Y-142851027D03*
G04 #@! TO.P,J1,11*
G04 #@! TO.N,Net-(J1-Pad11)*
X113421017Y-145391027D03*
G04 #@! TO.P,J1,12*
G04 #@! TO.N,Net-(J1-Pad12)*
X113421017Y-142851027D03*
G04 #@! TO.P,J1,13*
G04 #@! TO.N,Net-(J1-Pad13)*
X115961017Y-145391027D03*
G04 #@! TO.P,J1,14*
G04 #@! TO.N,Net-(J1-Pad14)*
X115961017Y-142851027D03*
G04 #@! TO.P,J1,15*
G04 #@! TO.N,Net-(J1-Pad15)*
X118501017Y-145391027D03*
G04 #@! TO.P,J1,16*
G04 #@! TO.N,Net-(J1-Pad16)*
X118501017Y-142851027D03*
G04 #@! TO.P,J1,17*
G04 #@! TO.N,GND*
X121041017Y-145391027D03*
G04 #@! TO.P,J1,18*
G04 #@! TO.N,VDD*
X121041017Y-142851027D03*
G04 #@! TO.P,J1,19*
G04 #@! TO.N,GNDA*
X123581017Y-145391027D03*
G04 #@! TO.P,J1,20*
G04 #@! TO.N,VDDA*
X123581017Y-142851027D03*
G04 #@! TD*
D14*
G04 #@! TO.N,/D0_IO*
G04 #@! TO.C,R2*
G36*
X107514208Y-136281080D02*
X107535443Y-136284230D01*
X107556267Y-136289446D01*
X107576479Y-136296678D01*
X107595885Y-136305857D01*
X107614298Y-136316893D01*
X107631541Y-136329681D01*
X107647447Y-136344097D01*
X107661863Y-136360003D01*
X107674651Y-136377246D01*
X107685687Y-136395659D01*
X107694866Y-136415065D01*
X107702098Y-136435277D01*
X107707314Y-136456101D01*
X107710464Y-136477336D01*
X107711517Y-136498777D01*
X107711517Y-137011277D01*
X107710464Y-137032718D01*
X107707314Y-137053953D01*
X107702098Y-137074777D01*
X107694866Y-137094989D01*
X107685687Y-137114395D01*
X107674651Y-137132808D01*
X107661863Y-137150051D01*
X107647447Y-137165957D01*
X107631541Y-137180373D01*
X107614298Y-137193161D01*
X107595885Y-137204197D01*
X107576479Y-137213376D01*
X107556267Y-137220608D01*
X107535443Y-137225824D01*
X107514208Y-137228974D01*
X107492767Y-137230027D01*
X107055267Y-137230027D01*
X107033826Y-137228974D01*
X107012591Y-137225824D01*
X106991767Y-137220608D01*
X106971555Y-137213376D01*
X106952149Y-137204197D01*
X106933736Y-137193161D01*
X106916493Y-137180373D01*
X106900587Y-137165957D01*
X106886171Y-137150051D01*
X106873383Y-137132808D01*
X106862347Y-137114395D01*
X106853168Y-137094989D01*
X106845936Y-137074777D01*
X106840720Y-137053953D01*
X106837570Y-137032718D01*
X106836517Y-137011277D01*
X106836517Y-136498777D01*
X106837570Y-136477336D01*
X106840720Y-136456101D01*
X106845936Y-136435277D01*
X106853168Y-136415065D01*
X106862347Y-136395659D01*
X106873383Y-136377246D01*
X106886171Y-136360003D01*
X106900587Y-136344097D01*
X106916493Y-136329681D01*
X106933736Y-136316893D01*
X106952149Y-136305857D01*
X106971555Y-136296678D01*
X106991767Y-136289446D01*
X107012591Y-136284230D01*
X107033826Y-136281080D01*
X107055267Y-136280027D01*
X107492767Y-136280027D01*
X107514208Y-136281080D01*
X107514208Y-136281080D01*
G37*
D15*
G04 #@! TD*
G04 #@! TO.P,R2,1*
G04 #@! TO.N,/D0_IO*
X107274017Y-136755027D03*
D14*
G04 #@! TO.N,VDDA*
G04 #@! TO.C,R2*
G36*
X109089208Y-136281080D02*
X109110443Y-136284230D01*
X109131267Y-136289446D01*
X109151479Y-136296678D01*
X109170885Y-136305857D01*
X109189298Y-136316893D01*
X109206541Y-136329681D01*
X109222447Y-136344097D01*
X109236863Y-136360003D01*
X109249651Y-136377246D01*
X109260687Y-136395659D01*
X109269866Y-136415065D01*
X109277098Y-136435277D01*
X109282314Y-136456101D01*
X109285464Y-136477336D01*
X109286517Y-136498777D01*
X109286517Y-137011277D01*
X109285464Y-137032718D01*
X109282314Y-137053953D01*
X109277098Y-137074777D01*
X109269866Y-137094989D01*
X109260687Y-137114395D01*
X109249651Y-137132808D01*
X109236863Y-137150051D01*
X109222447Y-137165957D01*
X109206541Y-137180373D01*
X109189298Y-137193161D01*
X109170885Y-137204197D01*
X109151479Y-137213376D01*
X109131267Y-137220608D01*
X109110443Y-137225824D01*
X109089208Y-137228974D01*
X109067767Y-137230027D01*
X108630267Y-137230027D01*
X108608826Y-137228974D01*
X108587591Y-137225824D01*
X108566767Y-137220608D01*
X108546555Y-137213376D01*
X108527149Y-137204197D01*
X108508736Y-137193161D01*
X108491493Y-137180373D01*
X108475587Y-137165957D01*
X108461171Y-137150051D01*
X108448383Y-137132808D01*
X108437347Y-137114395D01*
X108428168Y-137094989D01*
X108420936Y-137074777D01*
X108415720Y-137053953D01*
X108412570Y-137032718D01*
X108411517Y-137011277D01*
X108411517Y-136498777D01*
X108412570Y-136477336D01*
X108415720Y-136456101D01*
X108420936Y-136435277D01*
X108428168Y-136415065D01*
X108437347Y-136395659D01*
X108448383Y-136377246D01*
X108461171Y-136360003D01*
X108475587Y-136344097D01*
X108491493Y-136329681D01*
X108508736Y-136316893D01*
X108527149Y-136305857D01*
X108546555Y-136296678D01*
X108566767Y-136289446D01*
X108587591Y-136284230D01*
X108608826Y-136281080D01*
X108630267Y-136280027D01*
X109067767Y-136280027D01*
X109089208Y-136281080D01*
X109089208Y-136281080D01*
G37*
D15*
G04 #@! TD*
G04 #@! TO.P,R2,2*
G04 #@! TO.N,VDDA*
X108849017Y-136755027D03*
D16*
G04 #@! TO.N,GND*
X95679027Y-114403027D03*
G04 #@! TO.N,/D0_IO*
X125901017Y-104831027D03*
X105547017Y-136755027D03*
G04 #@! TO.N,/D1_~RST~*
X97673017Y-139549027D03*
G04 #@! TO.N,VDD*
X96441027Y-115927027D03*
G04 #@! TD*
D17*
G04 #@! TO.N,GNDA*
X126801017Y-142171027D02*
X123581017Y-145391027D01*
X131201017Y-97131027D02*
X126801017Y-101531027D01*
X126801017Y-101531027D02*
X126801017Y-142171027D01*
G04 #@! TO.N,GND*
X95641017Y-115006722D02*
X95679027Y-114968712D01*
X95679027Y-114968712D02*
X95679027Y-114403027D01*
X121041017Y-145391027D02*
X119771017Y-144121027D01*
X119771017Y-141835027D02*
X117485017Y-139549027D01*
X119771017Y-144121027D02*
X119771017Y-141835027D01*
X117485017Y-139549027D02*
X100213017Y-139549027D01*
X100213017Y-139549027D02*
X95641017Y-134977027D01*
X95641017Y-134977027D02*
X95641017Y-115006722D01*
G04 #@! TO.N,/D0_IO*
X124851017Y-110085027D02*
X106055017Y-128881027D01*
X125901017Y-104831027D02*
X124851017Y-105881027D01*
X124851017Y-105881027D02*
X124851017Y-110085027D01*
X106055017Y-128881027D02*
X106055017Y-136247027D01*
X106055017Y-136247027D02*
X105547017Y-136755027D01*
X107274017Y-136755027D02*
X105547017Y-136755027D01*
G04 #@! TO.N,/D2_CLK*
X102411018Y-142001028D02*
X103261017Y-142851027D01*
X101067028Y-140657038D02*
X102411018Y-142001028D01*
X97201017Y-106311027D02*
X97201017Y-109708485D01*
X97201017Y-109708485D02*
X94117017Y-112792485D01*
X93101017Y-102211027D02*
X97201017Y-106311027D01*
X94117017Y-112792485D02*
X94117017Y-137263027D01*
X94117017Y-137263027D02*
X97511028Y-140657038D01*
X97511028Y-140657038D02*
X101067028Y-140657038D01*
G04 #@! TO.N,/D1_~RST~*
X94879017Y-113653027D02*
X97901017Y-110631027D01*
X97901017Y-104471027D02*
X93101017Y-99671027D01*
X97901017Y-110631027D02*
X97901017Y-104471027D01*
X97673017Y-139549027D02*
X94879017Y-136755027D01*
X94879017Y-136755027D02*
X94879017Y-113653027D01*
G04 #@! TO.N,/D3_SENSE*
X102411018Y-146241026D02*
X103261017Y-145391027D01*
X101737017Y-146915027D02*
X102411018Y-146241026D01*
X93101017Y-108561027D02*
X93101017Y-140819027D01*
X99197017Y-146915027D02*
X101737017Y-146915027D01*
X93101017Y-140819027D02*
X99197017Y-146915027D01*
G04 #@! TO.N,VDDA*
X118755017Y-138025027D02*
X121041017Y-140311027D01*
X99705017Y-134469027D02*
X103261017Y-138025027D01*
X93101017Y-97131027D02*
X99705017Y-103735027D01*
X121041017Y-140311027D02*
X123581017Y-142851027D01*
X99705017Y-103735027D02*
X99705017Y-134469027D01*
X108849017Y-137330027D02*
X108849017Y-138025027D01*
X103261017Y-138025027D02*
X108849017Y-138025027D01*
X108849017Y-136755027D02*
X108849017Y-137330027D01*
X108849017Y-138025027D02*
X118755017Y-138025027D01*
G04 #@! TO.N,VDD*
X121041017Y-142851027D02*
X121041017Y-141648946D01*
X121041017Y-141648946D02*
X118179098Y-138787027D01*
X101737017Y-138787027D02*
X96441027Y-133491037D01*
X96441027Y-116492712D02*
X96441027Y-115927027D01*
X96441027Y-133491037D02*
X96441027Y-116492712D01*
X118179098Y-138787027D02*
X101737017Y-138787027D01*
G04 #@! TD*
M02*
