G04 #@! TF.GenerationSoftware,KiCad,Pcbnew,5.0.2-bee76a0~70~ubuntu18.04.1*
G04 #@! TF.CreationDate,2019-05-09T10:06:34+02:00*
G04 #@! TF.ProjectId,stm32f205,73746d33-3266-4323-9035-2e6b69636164,rev?*
G04 #@! TF.SameCoordinates,Original*
G04 #@! TF.FileFunction,Legend,Top*
G04 #@! TF.FilePolarity,Positive*
%FSLAX46Y46*%
G04 Gerber Fmt 4.6, Leading zero omitted, Abs format (unit mm)*
G04 Created by KiCad (PCBNEW 5.0.2-bee76a0~70~ubuntu18.04.1) date jeu. 09 mai 2019 10:06:34 CEST*
%MOMM*%
%LPD*%
G01*
G04 APERTURE LIST*
%ADD10C,0.250000*%
%ADD11C,0.010000*%
%ADD12C,0.120000*%
%ADD13C,0.150000*%
G04 APERTURE END LIST*
D10*
X106555778Y-94463407D02*
X106746255Y-94463407D01*
X106841493Y-94511027D01*
X106936731Y-94606265D01*
X106984350Y-94796741D01*
X106984350Y-95130074D01*
X106936731Y-95320550D01*
X106841493Y-95415788D01*
X106746255Y-95463407D01*
X106555778Y-95463407D01*
X106460540Y-95415788D01*
X106365302Y-95320550D01*
X106317683Y-95130074D01*
X106317683Y-94796741D01*
X106365302Y-94606265D01*
X106460540Y-94511027D01*
X106555778Y-94463407D01*
X107412921Y-94796741D02*
X107412921Y-95796741D01*
X107412921Y-94844360D02*
X107508159Y-94796741D01*
X107698636Y-94796741D01*
X107793874Y-94844360D01*
X107841493Y-94891979D01*
X107889112Y-94987217D01*
X107889112Y-95272931D01*
X107841493Y-95368169D01*
X107793874Y-95415788D01*
X107698636Y-95463407D01*
X107508159Y-95463407D01*
X107412921Y-95415788D01*
X108174826Y-94796741D02*
X108555778Y-94796741D01*
X108317683Y-94463407D02*
X108317683Y-95320550D01*
X108365302Y-95415788D01*
X108460540Y-95463407D01*
X108555778Y-95463407D01*
X108889112Y-95463407D02*
X108889112Y-94796741D01*
X108889112Y-94463407D02*
X108841493Y-94511027D01*
X108889112Y-94558646D01*
X108936731Y-94511027D01*
X108889112Y-94463407D01*
X108889112Y-94558646D01*
X109508159Y-95463407D02*
X109412921Y-95415788D01*
X109365302Y-95368169D01*
X109317683Y-95272931D01*
X109317683Y-94987217D01*
X109365302Y-94891979D01*
X109412921Y-94844360D01*
X109508159Y-94796741D01*
X109651017Y-94796741D01*
X109746255Y-94844360D01*
X109793874Y-94891979D01*
X109841493Y-94987217D01*
X109841493Y-95272931D01*
X109793874Y-95368169D01*
X109746255Y-95415788D01*
X109651017Y-95463407D01*
X109508159Y-95463407D01*
X110270064Y-94796741D02*
X110270064Y-95463407D01*
X110270064Y-94891979D02*
X110317683Y-94844360D01*
X110412921Y-94796741D01*
X110555778Y-94796741D01*
X110651017Y-94844360D01*
X110698636Y-94939598D01*
X110698636Y-95463407D01*
X111603397Y-95463407D02*
X111603397Y-94939598D01*
X111555778Y-94844360D01*
X111460540Y-94796741D01*
X111270064Y-94796741D01*
X111174826Y-94844360D01*
X111603397Y-95415788D02*
X111508159Y-95463407D01*
X111270064Y-95463407D01*
X111174826Y-95415788D01*
X111127207Y-95320550D01*
X111127207Y-95225312D01*
X111174826Y-95130074D01*
X111270064Y-95082455D01*
X111508159Y-95082455D01*
X111603397Y-95034836D01*
X112222445Y-95463407D02*
X112127207Y-95415788D01*
X112079588Y-95320550D01*
X112079588Y-94463407D01*
X113793874Y-95415788D02*
X113698636Y-95463407D01*
X113508159Y-95463407D01*
X113412921Y-95415788D01*
X113365302Y-95368169D01*
X113317683Y-95272931D01*
X113317683Y-94987217D01*
X113365302Y-94891979D01*
X113412921Y-94844360D01*
X113508159Y-94796741D01*
X113698636Y-94796741D01*
X113793874Y-94844360D01*
X114222445Y-95463407D02*
X114222445Y-94796741D01*
X114222445Y-94987217D02*
X114270064Y-94891979D01*
X114317683Y-94844360D01*
X114412921Y-94796741D01*
X114508159Y-94796741D01*
X114746255Y-94796741D02*
X114984350Y-95463407D01*
X115222445Y-94796741D02*
X114984350Y-95463407D01*
X114889112Y-95701503D01*
X114841493Y-95749122D01*
X114746255Y-95796741D01*
X115555778Y-95415788D02*
X115651017Y-95463407D01*
X115841493Y-95463407D01*
X115936731Y-95415788D01*
X115984350Y-95320550D01*
X115984350Y-95272931D01*
X115936731Y-95177693D01*
X115841493Y-95130074D01*
X115698636Y-95130074D01*
X115603397Y-95082455D01*
X115555778Y-94987217D01*
X115555778Y-94939598D01*
X115603397Y-94844360D01*
X115698636Y-94796741D01*
X115841493Y-94796741D01*
X115936731Y-94844360D01*
X116270064Y-94796741D02*
X116651017Y-94796741D01*
X116412921Y-94463407D02*
X116412921Y-95320550D01*
X116460540Y-95415788D01*
X116555778Y-95463407D01*
X116651017Y-95463407D01*
X117412921Y-95463407D02*
X117412921Y-94939598D01*
X117365302Y-94844360D01*
X117270064Y-94796741D01*
X117079588Y-94796741D01*
X116984350Y-94844360D01*
X117412921Y-95415788D02*
X117317683Y-95463407D01*
X117079588Y-95463407D01*
X116984350Y-95415788D01*
X116936731Y-95320550D01*
X116936731Y-95225312D01*
X116984350Y-95130074D01*
X117079588Y-95082455D01*
X117317683Y-95082455D01*
X117412921Y-95034836D01*
X118031969Y-95463407D02*
X117936731Y-95415788D01*
X117889112Y-95320550D01*
X117889112Y-94463407D01*
X100503993Y-75415788D02*
X100646850Y-75463407D01*
X100884945Y-75463407D01*
X100980183Y-75415788D01*
X101027802Y-75368169D01*
X101075421Y-75272931D01*
X101075421Y-75177693D01*
X101027802Y-75082455D01*
X100980183Y-75034836D01*
X100884945Y-74987217D01*
X100694469Y-74939598D01*
X100599231Y-74891979D01*
X100551612Y-74844360D01*
X100503993Y-74749122D01*
X100503993Y-74653884D01*
X100551612Y-74558646D01*
X100599231Y-74511027D01*
X100694469Y-74463407D01*
X100932564Y-74463407D01*
X101075421Y-74511027D01*
X101361136Y-74463407D02*
X101932564Y-74463407D01*
X101646850Y-75463407D02*
X101646850Y-74463407D01*
X102265897Y-75463407D02*
X102265897Y-74463407D01*
X102599231Y-75177693D01*
X102932564Y-74463407D01*
X102932564Y-75463407D01*
X103313517Y-74463407D02*
X103932564Y-74463407D01*
X103599231Y-74844360D01*
X103742088Y-74844360D01*
X103837326Y-74891979D01*
X103884945Y-74939598D01*
X103932564Y-75034836D01*
X103932564Y-75272931D01*
X103884945Y-75368169D01*
X103837326Y-75415788D01*
X103742088Y-75463407D01*
X103456374Y-75463407D01*
X103361136Y-75415788D01*
X103313517Y-75368169D01*
X104313517Y-74558646D02*
X104361136Y-74511027D01*
X104456374Y-74463407D01*
X104694469Y-74463407D01*
X104789707Y-74511027D01*
X104837326Y-74558646D01*
X104884945Y-74653884D01*
X104884945Y-74749122D01*
X104837326Y-74891979D01*
X104265897Y-75463407D01*
X104884945Y-75463407D01*
X105646850Y-74939598D02*
X105313517Y-74939598D01*
X105313517Y-75463407D02*
X105313517Y-74463407D01*
X105789707Y-74463407D01*
X106123040Y-74558646D02*
X106170659Y-74511027D01*
X106265897Y-74463407D01*
X106503993Y-74463407D01*
X106599231Y-74511027D01*
X106646850Y-74558646D01*
X106694469Y-74653884D01*
X106694469Y-74749122D01*
X106646850Y-74891979D01*
X106075421Y-75463407D01*
X106694469Y-75463407D01*
X107742088Y-74463407D02*
X108313517Y-74463407D01*
X108027802Y-75463407D02*
X108027802Y-74463407D01*
X109027802Y-75415788D02*
X108932564Y-75463407D01*
X108742088Y-75463407D01*
X108646850Y-75415788D01*
X108599231Y-75320550D01*
X108599231Y-74939598D01*
X108646850Y-74844360D01*
X108742088Y-74796741D01*
X108932564Y-74796741D01*
X109027802Y-74844360D01*
X109075421Y-74939598D01*
X109075421Y-75034836D01*
X108599231Y-75130074D01*
X109456374Y-75415788D02*
X109551612Y-75463407D01*
X109742088Y-75463407D01*
X109837326Y-75415788D01*
X109884945Y-75320550D01*
X109884945Y-75272931D01*
X109837326Y-75177693D01*
X109742088Y-75130074D01*
X109599231Y-75130074D01*
X109503993Y-75082455D01*
X109456374Y-74987217D01*
X109456374Y-74939598D01*
X109503993Y-74844360D01*
X109599231Y-74796741D01*
X109742088Y-74796741D01*
X109837326Y-74844360D01*
X110170659Y-74796741D02*
X110551612Y-74796741D01*
X110313517Y-74463407D02*
X110313517Y-75320550D01*
X110361136Y-75415788D01*
X110456374Y-75463407D01*
X110551612Y-75463407D01*
X111980183Y-74939598D02*
X112123040Y-74987217D01*
X112170659Y-75034836D01*
X112218278Y-75130074D01*
X112218278Y-75272931D01*
X112170659Y-75368169D01*
X112123040Y-75415788D01*
X112027802Y-75463407D01*
X111646850Y-75463407D01*
X111646850Y-74463407D01*
X111980183Y-74463407D01*
X112075421Y-74511027D01*
X112123040Y-74558646D01*
X112170659Y-74653884D01*
X112170659Y-74749122D01*
X112123040Y-74844360D01*
X112075421Y-74891979D01*
X111980183Y-74939598D01*
X111646850Y-74939598D01*
X112789707Y-75463407D02*
X112694469Y-75415788D01*
X112646850Y-75368169D01*
X112599231Y-75272931D01*
X112599231Y-74987217D01*
X112646850Y-74891979D01*
X112694469Y-74844360D01*
X112789707Y-74796741D01*
X112932564Y-74796741D01*
X113027802Y-74844360D01*
X113075421Y-74891979D01*
X113123040Y-74987217D01*
X113123040Y-75272931D01*
X113075421Y-75368169D01*
X113027802Y-75415788D01*
X112932564Y-75463407D01*
X112789707Y-75463407D01*
X113980183Y-75463407D02*
X113980183Y-74939598D01*
X113932564Y-74844360D01*
X113837326Y-74796741D01*
X113646850Y-74796741D01*
X113551612Y-74844360D01*
X113980183Y-75415788D02*
X113884945Y-75463407D01*
X113646850Y-75463407D01*
X113551612Y-75415788D01*
X113503993Y-75320550D01*
X113503993Y-75225312D01*
X113551612Y-75130074D01*
X113646850Y-75082455D01*
X113884945Y-75082455D01*
X113980183Y-75034836D01*
X114456374Y-75463407D02*
X114456374Y-74796741D01*
X114456374Y-74987217D02*
X114503993Y-74891979D01*
X114551612Y-74844360D01*
X114646850Y-74796741D01*
X114742088Y-74796741D01*
X115503993Y-75463407D02*
X115503993Y-74463407D01*
X115503993Y-75415788D02*
X115408755Y-75463407D01*
X115218278Y-75463407D01*
X115123040Y-75415788D01*
X115075421Y-75368169D01*
X115027802Y-75272931D01*
X115027802Y-74987217D01*
X115075421Y-74891979D01*
X115123040Y-74844360D01*
X115218278Y-74796741D01*
X115408755Y-74796741D01*
X115503993Y-74844360D01*
X100884945Y-76689598D02*
X100551612Y-76689598D01*
X100551612Y-77213407D02*
X100551612Y-76213407D01*
X101027802Y-76213407D01*
X101884945Y-77213407D02*
X101408755Y-77213407D01*
X101408755Y-76213407D01*
X102218278Y-77213407D02*
X102218278Y-76213407D01*
X102694469Y-77213407D02*
X102694469Y-76213407D01*
X103075421Y-76213407D01*
X103170659Y-76261027D01*
X103218278Y-76308646D01*
X103265897Y-76403884D01*
X103265897Y-76546741D01*
X103218278Y-76641979D01*
X103170659Y-76689598D01*
X103075421Y-76737217D01*
X102694469Y-76737217D01*
X103694469Y-77213407D02*
X103694469Y-76213407D01*
X104075421Y-76213407D01*
X104170659Y-76261027D01*
X104218278Y-76308646D01*
X104265897Y-76403884D01*
X104265897Y-76546741D01*
X104218278Y-76641979D01*
X104170659Y-76689598D01*
X104075421Y-76737217D01*
X103694469Y-76737217D01*
X104694469Y-76689598D02*
X105027802Y-76689598D01*
X105170659Y-77213407D02*
X104694469Y-77213407D01*
X104694469Y-76213407D01*
X105170659Y-76213407D01*
X105599231Y-77213407D02*
X105599231Y-76213407D01*
X105837326Y-76213407D01*
X105980183Y-76261027D01*
X106075421Y-76356265D01*
X106123040Y-76451503D01*
X106170659Y-76641979D01*
X106170659Y-76784836D01*
X106123040Y-76975312D01*
X106075421Y-77070550D01*
X105980183Y-77165788D01*
X105837326Y-77213407D01*
X105599231Y-77213407D01*
X106599231Y-76832455D02*
X107361136Y-76832455D01*
X108503993Y-77308646D02*
X108408755Y-77261027D01*
X108313517Y-77165788D01*
X108170659Y-77022931D01*
X108075421Y-76975312D01*
X107980183Y-76975312D01*
X108027802Y-77213407D02*
X107932564Y-77165788D01*
X107837326Y-77070550D01*
X107789707Y-76880074D01*
X107789707Y-76546741D01*
X107837326Y-76356265D01*
X107932564Y-76261027D01*
X108027802Y-76213407D01*
X108218278Y-76213407D01*
X108313517Y-76261027D01*
X108408755Y-76356265D01*
X108456374Y-76546741D01*
X108456374Y-76880074D01*
X108408755Y-77070550D01*
X108313517Y-77165788D01*
X108218278Y-77213407D01*
X108027802Y-77213407D01*
X109218278Y-76689598D02*
X108884945Y-76689598D01*
X108884945Y-77213407D02*
X108884945Y-76213407D01*
X109361136Y-76213407D01*
X109742088Y-77213407D02*
X109742088Y-76213407D01*
X110123040Y-76213407D01*
X110218278Y-76261027D01*
X110265897Y-76308646D01*
X110313517Y-76403884D01*
X110313517Y-76546741D01*
X110265897Y-76641979D01*
X110218278Y-76689598D01*
X110123040Y-76737217D01*
X109742088Y-76737217D01*
X111170659Y-76213407D02*
X110980183Y-76213407D01*
X110884945Y-76261027D01*
X110837326Y-76308646D01*
X110742088Y-76451503D01*
X110694469Y-76641979D01*
X110694469Y-77022931D01*
X110742088Y-77118169D01*
X110789707Y-77165788D01*
X110884945Y-77213407D01*
X111075421Y-77213407D01*
X111170659Y-77165788D01*
X111218278Y-77118169D01*
X111265897Y-77022931D01*
X111265897Y-76784836D01*
X111218278Y-76689598D01*
X111170659Y-76641979D01*
X111075421Y-76594360D01*
X110884945Y-76594360D01*
X110789707Y-76641979D01*
X110742088Y-76689598D01*
X110694469Y-76784836D01*
X112123040Y-76546741D02*
X112123040Y-77213407D01*
X111884945Y-76165788D02*
X111646850Y-76880074D01*
X112265897Y-76880074D01*
X100551612Y-80713407D02*
X100551612Y-79713407D01*
X100789707Y-79713407D01*
X100932564Y-79761027D01*
X101027802Y-79856265D01*
X101075421Y-79951503D01*
X101123040Y-80141979D01*
X101123040Y-80284836D01*
X101075421Y-80475312D01*
X101027802Y-80570550D01*
X100932564Y-80665788D01*
X100789707Y-80713407D01*
X100551612Y-80713407D01*
X101742088Y-79713407D02*
X101837326Y-79713407D01*
X101932564Y-79761027D01*
X101980183Y-79808646D01*
X102027802Y-79903884D01*
X102075421Y-80094360D01*
X102075421Y-80332455D01*
X102027802Y-80522931D01*
X101980183Y-80618169D01*
X101932564Y-80665788D01*
X101837326Y-80713407D01*
X101742088Y-80713407D01*
X101646850Y-80665788D01*
X101599231Y-80618169D01*
X101551612Y-80522931D01*
X101503993Y-80332455D01*
X101503993Y-80094360D01*
X101551612Y-79903884D01*
X101599231Y-79808646D01*
X101646850Y-79761027D01*
X101742088Y-79713407D01*
X102503993Y-80618169D02*
X102551612Y-80665788D01*
X102503993Y-80713407D01*
X102456374Y-80665788D01*
X102503993Y-80618169D01*
X102503993Y-80713407D01*
X102503993Y-80094360D02*
X102551612Y-80141979D01*
X102503993Y-80189598D01*
X102456374Y-80141979D01*
X102503993Y-80094360D01*
X102503993Y-80189598D01*
X103742088Y-80713407D02*
X103742088Y-79713407D01*
X104075421Y-80427693D01*
X104408755Y-79713407D01*
X104408755Y-80713407D01*
X105456374Y-80618169D02*
X105408755Y-80665788D01*
X105265897Y-80713407D01*
X105170659Y-80713407D01*
X105027802Y-80665788D01*
X104932564Y-80570550D01*
X104884945Y-80475312D01*
X104837326Y-80284836D01*
X104837326Y-80141979D01*
X104884945Y-79951503D01*
X104932564Y-79856265D01*
X105027802Y-79761027D01*
X105170659Y-79713407D01*
X105265897Y-79713407D01*
X105408755Y-79761027D01*
X105456374Y-79808646D01*
X105884945Y-79713407D02*
X105884945Y-80522931D01*
X105932564Y-80618169D01*
X105980183Y-80665788D01*
X106075421Y-80713407D01*
X106265897Y-80713407D01*
X106361136Y-80665788D01*
X106408755Y-80618169D01*
X106456374Y-80522931D01*
X106456374Y-79713407D01*
X108265897Y-80713407D02*
X107932564Y-80237217D01*
X107694469Y-80713407D02*
X107694469Y-79713407D01*
X108075421Y-79713407D01*
X108170659Y-79761027D01*
X108218278Y-79808646D01*
X108265897Y-79903884D01*
X108265897Y-80046741D01*
X108218278Y-80141979D01*
X108170659Y-80189598D01*
X108075421Y-80237217D01*
X107694469Y-80237217D01*
X108599231Y-79713407D02*
X109265897Y-80713407D01*
X109265897Y-79713407D02*
X108599231Y-80713407D01*
X100551612Y-82463407D02*
X100551612Y-81463407D01*
X100789707Y-81463407D01*
X100932564Y-81511027D01*
X101027802Y-81606265D01*
X101075421Y-81701503D01*
X101123040Y-81891979D01*
X101123040Y-82034836D01*
X101075421Y-82225312D01*
X101027802Y-82320550D01*
X100932564Y-82415788D01*
X100789707Y-82463407D01*
X100551612Y-82463407D01*
X102075421Y-82463407D02*
X101503993Y-82463407D01*
X101789707Y-82463407D02*
X101789707Y-81463407D01*
X101694469Y-81606265D01*
X101599231Y-81701503D01*
X101503993Y-81749122D01*
X102503993Y-82368169D02*
X102551612Y-82415788D01*
X102503993Y-82463407D01*
X102456374Y-82415788D01*
X102503993Y-82368169D01*
X102503993Y-82463407D01*
X102503993Y-81844360D02*
X102551612Y-81891979D01*
X102503993Y-81939598D01*
X102456374Y-81891979D01*
X102503993Y-81844360D01*
X102503993Y-81939598D01*
X103742088Y-82463407D02*
X103742088Y-81463407D01*
X104075421Y-82177693D01*
X104408755Y-81463407D01*
X104408755Y-82463407D01*
X105456374Y-82368169D02*
X105408755Y-82415788D01*
X105265897Y-82463407D01*
X105170659Y-82463407D01*
X105027802Y-82415788D01*
X104932564Y-82320550D01*
X104884945Y-82225312D01*
X104837326Y-82034836D01*
X104837326Y-81891979D01*
X104884945Y-81701503D01*
X104932564Y-81606265D01*
X105027802Y-81511027D01*
X105170659Y-81463407D01*
X105265897Y-81463407D01*
X105408755Y-81511027D01*
X105456374Y-81558646D01*
X105884945Y-81463407D02*
X105884945Y-82272931D01*
X105932564Y-82368169D01*
X105980183Y-82415788D01*
X106075421Y-82463407D01*
X106265897Y-82463407D01*
X106361136Y-82415788D01*
X106408755Y-82368169D01*
X106456374Y-82272931D01*
X106456374Y-81463407D01*
X107551612Y-81463407D02*
X108123040Y-81463407D01*
X107837326Y-82463407D02*
X107837326Y-81463407D01*
X108361136Y-81463407D02*
X109027802Y-82463407D01*
X109027802Y-81463407D02*
X108361136Y-82463407D01*
X100551612Y-84213407D02*
X100551612Y-83213407D01*
X100789707Y-83213407D01*
X100932564Y-83261027D01*
X101027802Y-83356265D01*
X101075421Y-83451503D01*
X101123040Y-83641979D01*
X101123040Y-83784836D01*
X101075421Y-83975312D01*
X101027802Y-84070550D01*
X100932564Y-84165788D01*
X100789707Y-84213407D01*
X100551612Y-84213407D01*
X101503993Y-83308646D02*
X101551612Y-83261027D01*
X101646850Y-83213407D01*
X101884945Y-83213407D01*
X101980183Y-83261027D01*
X102027802Y-83308646D01*
X102075421Y-83403884D01*
X102075421Y-83499122D01*
X102027802Y-83641979D01*
X101456374Y-84213407D01*
X102075421Y-84213407D01*
X102503993Y-84118169D02*
X102551612Y-84165788D01*
X102503993Y-84213407D01*
X102456374Y-84165788D01*
X102503993Y-84118169D01*
X102503993Y-84213407D01*
X102503993Y-83594360D02*
X102551612Y-83641979D01*
X102503993Y-83689598D01*
X102456374Y-83641979D01*
X102503993Y-83594360D01*
X102503993Y-83689598D01*
X103742088Y-84213407D02*
X103742088Y-83213407D01*
X104313517Y-84213407D01*
X104313517Y-83213407D01*
X105361136Y-84213407D02*
X105027802Y-83737217D01*
X104789707Y-84213407D02*
X104789707Y-83213407D01*
X105170659Y-83213407D01*
X105265897Y-83261027D01*
X105313517Y-83308646D01*
X105361136Y-83403884D01*
X105361136Y-83546741D01*
X105313517Y-83641979D01*
X105265897Y-83689598D01*
X105170659Y-83737217D01*
X104789707Y-83737217D01*
X105742088Y-84165788D02*
X105884945Y-84213407D01*
X106123040Y-84213407D01*
X106218278Y-84165788D01*
X106265897Y-84118169D01*
X106313517Y-84022931D01*
X106313517Y-83927693D01*
X106265897Y-83832455D01*
X106218278Y-83784836D01*
X106123040Y-83737217D01*
X105932564Y-83689598D01*
X105837326Y-83641979D01*
X105789707Y-83594360D01*
X105742088Y-83499122D01*
X105742088Y-83403884D01*
X105789707Y-83308646D01*
X105837326Y-83261027D01*
X105932564Y-83213407D01*
X106170659Y-83213407D01*
X106313517Y-83261027D01*
X106599231Y-83213407D02*
X107170659Y-83213407D01*
X106884945Y-84213407D02*
X106884945Y-83213407D01*
X100551612Y-85963407D02*
X100551612Y-84963407D01*
X100789707Y-84963407D01*
X100932564Y-85011027D01*
X101027802Y-85106265D01*
X101075421Y-85201503D01*
X101123040Y-85391979D01*
X101123040Y-85534836D01*
X101075421Y-85725312D01*
X101027802Y-85820550D01*
X100932564Y-85915788D01*
X100789707Y-85963407D01*
X100551612Y-85963407D01*
X101456374Y-84963407D02*
X102075421Y-84963407D01*
X101742088Y-85344360D01*
X101884945Y-85344360D01*
X101980183Y-85391979D01*
X102027802Y-85439598D01*
X102075421Y-85534836D01*
X102075421Y-85772931D01*
X102027802Y-85868169D01*
X101980183Y-85915788D01*
X101884945Y-85963407D01*
X101599231Y-85963407D01*
X101503993Y-85915788D01*
X101456374Y-85868169D01*
X102503993Y-85868169D02*
X102551612Y-85915788D01*
X102503993Y-85963407D01*
X102456374Y-85915788D01*
X102503993Y-85868169D01*
X102503993Y-85963407D01*
X102503993Y-85344360D02*
X102551612Y-85391979D01*
X102503993Y-85439598D01*
X102456374Y-85391979D01*
X102503993Y-85344360D01*
X102503993Y-85439598D01*
X103742088Y-85963407D02*
X103742088Y-84963407D01*
X104123040Y-84963407D01*
X104218278Y-85011027D01*
X104265897Y-85058646D01*
X104313517Y-85153884D01*
X104313517Y-85296741D01*
X104265897Y-85391979D01*
X104218278Y-85439598D01*
X104123040Y-85487217D01*
X103742088Y-85487217D01*
X105313517Y-85868169D02*
X105265897Y-85915788D01*
X105123040Y-85963407D01*
X105027802Y-85963407D01*
X104884945Y-85915788D01*
X104789707Y-85820550D01*
X104742088Y-85725312D01*
X104694469Y-85534836D01*
X104694469Y-85391979D01*
X104742088Y-85201503D01*
X104789707Y-85106265D01*
X104884945Y-85011027D01*
X105027802Y-84963407D01*
X105123040Y-84963407D01*
X105265897Y-85011027D01*
X105313517Y-85058646D01*
X105932564Y-84963407D02*
X106027802Y-84963407D01*
X106123040Y-85011027D01*
X106170659Y-85058646D01*
X106218278Y-85153884D01*
X106265897Y-85344360D01*
X106265897Y-85582455D01*
X106218278Y-85772931D01*
X106170659Y-85868169D01*
X106123040Y-85915788D01*
X106027802Y-85963407D01*
X105932564Y-85963407D01*
X105837326Y-85915788D01*
X105789707Y-85868169D01*
X105742088Y-85772931D01*
X105694469Y-85582455D01*
X105694469Y-85344360D01*
X105742088Y-85153884D01*
X105789707Y-85058646D01*
X105837326Y-85011027D01*
X105932564Y-84963407D01*
X100551612Y-87713407D02*
X100551612Y-86713407D01*
X100789707Y-86713407D01*
X100932564Y-86761027D01*
X101027802Y-86856265D01*
X101075421Y-86951503D01*
X101123040Y-87141979D01*
X101123040Y-87284836D01*
X101075421Y-87475312D01*
X101027802Y-87570550D01*
X100932564Y-87665788D01*
X100789707Y-87713407D01*
X100551612Y-87713407D01*
X101980183Y-86713407D02*
X101789707Y-86713407D01*
X101694469Y-86761027D01*
X101646850Y-86808646D01*
X101551612Y-86951503D01*
X101503993Y-87141979D01*
X101503993Y-87522931D01*
X101551612Y-87618169D01*
X101599231Y-87665788D01*
X101694469Y-87713407D01*
X101884945Y-87713407D01*
X101980183Y-87665788D01*
X102027802Y-87618169D01*
X102075421Y-87522931D01*
X102075421Y-87284836D01*
X102027802Y-87189598D01*
X101980183Y-87141979D01*
X101884945Y-87094360D01*
X101694469Y-87094360D01*
X101599231Y-87141979D01*
X101551612Y-87189598D01*
X101503993Y-87284836D01*
X102503993Y-87618169D02*
X102551612Y-87665788D01*
X102503993Y-87713407D01*
X102456374Y-87665788D01*
X102503993Y-87618169D01*
X102503993Y-87713407D01*
X102503993Y-87094360D02*
X102551612Y-87141979D01*
X102503993Y-87189598D01*
X102456374Y-87141979D01*
X102503993Y-87094360D01*
X102503993Y-87189598D01*
X104075421Y-87189598D02*
X104218278Y-87237217D01*
X104265897Y-87284836D01*
X104313517Y-87380074D01*
X104313517Y-87522931D01*
X104265897Y-87618169D01*
X104218278Y-87665788D01*
X104123040Y-87713407D01*
X103742088Y-87713407D01*
X103742088Y-86713407D01*
X104075421Y-86713407D01*
X104170659Y-86761027D01*
X104218278Y-86808646D01*
X104265897Y-86903884D01*
X104265897Y-86999122D01*
X104218278Y-87094360D01*
X104170659Y-87141979D01*
X104075421Y-87189598D01*
X103742088Y-87189598D01*
X104932564Y-86713407D02*
X105123040Y-86713407D01*
X105218278Y-86761027D01*
X105313517Y-86856265D01*
X105361136Y-87046741D01*
X105361136Y-87380074D01*
X105313517Y-87570550D01*
X105218278Y-87665788D01*
X105123040Y-87713407D01*
X104932564Y-87713407D01*
X104837326Y-87665788D01*
X104742088Y-87570550D01*
X104694469Y-87380074D01*
X104694469Y-87046741D01*
X104742088Y-86856265D01*
X104837326Y-86761027D01*
X104932564Y-86713407D01*
X105980183Y-86713407D02*
X106170659Y-86713407D01*
X106265897Y-86761027D01*
X106361136Y-86856265D01*
X106408755Y-87046741D01*
X106408755Y-87380074D01*
X106361136Y-87570550D01*
X106265897Y-87665788D01*
X106170659Y-87713407D01*
X105980183Y-87713407D01*
X105884945Y-87665788D01*
X105789707Y-87570550D01*
X105742088Y-87380074D01*
X105742088Y-87046741D01*
X105789707Y-86856265D01*
X105884945Y-86761027D01*
X105980183Y-86713407D01*
X106694469Y-86713407D02*
X107265897Y-86713407D01*
X106980183Y-87713407D02*
X106980183Y-86713407D01*
X107789707Y-86713407D02*
X107884945Y-86713407D01*
X107980183Y-86761027D01*
X108027802Y-86808646D01*
X108075421Y-86903884D01*
X108123040Y-87094360D01*
X108123040Y-87332455D01*
X108075421Y-87522931D01*
X108027802Y-87618169D01*
X107980183Y-87665788D01*
X107884945Y-87713407D01*
X107789707Y-87713407D01*
X107694469Y-87665788D01*
X107646850Y-87618169D01*
X107599231Y-87522931D01*
X107551612Y-87332455D01*
X107551612Y-87094360D01*
X107599231Y-86903884D01*
X107646850Y-86808646D01*
X107694469Y-86761027D01*
X107789707Y-86713407D01*
X100551612Y-89463407D02*
X100551612Y-88463407D01*
X100789707Y-88463407D01*
X100932564Y-88511027D01*
X101027802Y-88606265D01*
X101075421Y-88701503D01*
X101123040Y-88891979D01*
X101123040Y-89034836D01*
X101075421Y-89225312D01*
X101027802Y-89320550D01*
X100932564Y-89415788D01*
X100789707Y-89463407D01*
X100551612Y-89463407D01*
X101456374Y-88463407D02*
X102123040Y-88463407D01*
X101694469Y-89463407D01*
X102503993Y-89368169D02*
X102551612Y-89415788D01*
X102503993Y-89463407D01*
X102456374Y-89415788D01*
X102503993Y-89368169D01*
X102503993Y-89463407D01*
X102503993Y-88844360D02*
X102551612Y-88891979D01*
X102503993Y-88939598D01*
X102456374Y-88891979D01*
X102503993Y-88844360D01*
X102503993Y-88939598D01*
X104075421Y-88939598D02*
X104218278Y-88987217D01*
X104265897Y-89034836D01*
X104313517Y-89130074D01*
X104313517Y-89272931D01*
X104265897Y-89368169D01*
X104218278Y-89415788D01*
X104123040Y-89463407D01*
X103742088Y-89463407D01*
X103742088Y-88463407D01*
X104075421Y-88463407D01*
X104170659Y-88511027D01*
X104218278Y-88558646D01*
X104265897Y-88653884D01*
X104265897Y-88749122D01*
X104218278Y-88844360D01*
X104170659Y-88891979D01*
X104075421Y-88939598D01*
X103742088Y-88939598D01*
X104932564Y-88463407D02*
X105123040Y-88463407D01*
X105218278Y-88511027D01*
X105313517Y-88606265D01*
X105361136Y-88796741D01*
X105361136Y-89130074D01*
X105313517Y-89320550D01*
X105218278Y-89415788D01*
X105123040Y-89463407D01*
X104932564Y-89463407D01*
X104837326Y-89415788D01*
X104742088Y-89320550D01*
X104694469Y-89130074D01*
X104694469Y-88796741D01*
X104742088Y-88606265D01*
X104837326Y-88511027D01*
X104932564Y-88463407D01*
X105980183Y-88463407D02*
X106170659Y-88463407D01*
X106265897Y-88511027D01*
X106361136Y-88606265D01*
X106408755Y-88796741D01*
X106408755Y-89130074D01*
X106361136Y-89320550D01*
X106265897Y-89415788D01*
X106170659Y-89463407D01*
X105980183Y-89463407D01*
X105884945Y-89415788D01*
X105789707Y-89320550D01*
X105742088Y-89130074D01*
X105742088Y-88796741D01*
X105789707Y-88606265D01*
X105884945Y-88511027D01*
X105980183Y-88463407D01*
X106694469Y-88463407D02*
X107265897Y-88463407D01*
X106980183Y-89463407D02*
X106980183Y-88463407D01*
X108123040Y-89463407D02*
X107551612Y-89463407D01*
X107837326Y-89463407D02*
X107837326Y-88463407D01*
X107742088Y-88606265D01*
X107646850Y-88701503D01*
X107551612Y-88749122D01*
X123280540Y-100119027D02*
X123185302Y-100071407D01*
X123042445Y-100071407D01*
X122899588Y-100119027D01*
X122804350Y-100214265D01*
X122756731Y-100309503D01*
X122709112Y-100499979D01*
X122709112Y-100642836D01*
X122756731Y-100833312D01*
X122804350Y-100928550D01*
X122899588Y-101023788D01*
X123042445Y-101071407D01*
X123137683Y-101071407D01*
X123280540Y-101023788D01*
X123328159Y-100976169D01*
X123328159Y-100642836D01*
X123137683Y-100642836D01*
X123756731Y-101071407D02*
X123756731Y-100071407D01*
X124328159Y-101071407D01*
X124328159Y-100071407D01*
X124804350Y-101071407D02*
X124804350Y-100071407D01*
X125042445Y-100071407D01*
X125185302Y-100119027D01*
X125280540Y-100214265D01*
X125328159Y-100309503D01*
X125375778Y-100499979D01*
X125375778Y-100642836D01*
X125328159Y-100833312D01*
X125280540Y-100928550D01*
X125185302Y-101023788D01*
X125042445Y-101071407D01*
X124804350Y-101071407D01*
X125756731Y-100785693D02*
X126232921Y-100785693D01*
X125661493Y-101071407D02*
X125994826Y-100071407D01*
X126328159Y-101071407D01*
X98467921Y-100071407D02*
X99086969Y-100071407D01*
X98753636Y-100452360D01*
X98896493Y-100452360D01*
X98991731Y-100499979D01*
X99039350Y-100547598D01*
X99086969Y-100642836D01*
X99086969Y-100880931D01*
X99039350Y-100976169D01*
X98991731Y-101023788D01*
X98896493Y-101071407D01*
X98610778Y-101071407D01*
X98515540Y-101023788D01*
X98467921Y-100976169D01*
X99372683Y-100071407D02*
X99706017Y-101071407D01*
X100039350Y-100071407D01*
X100277445Y-100071407D02*
X100896493Y-100071407D01*
X100563159Y-100452360D01*
X100706017Y-100452360D01*
X100801255Y-100499979D01*
X100848874Y-100547598D01*
X100896493Y-100642836D01*
X100896493Y-100880931D01*
X100848874Y-100976169D01*
X100801255Y-101023788D01*
X100706017Y-101071407D01*
X100420302Y-101071407D01*
X100325064Y-101023788D01*
X100277445Y-100976169D01*
X123864761Y-135774169D02*
X123817142Y-135821788D01*
X123674285Y-135869407D01*
X123579047Y-135869407D01*
X123436190Y-135821788D01*
X123340952Y-135726550D01*
X123293333Y-135631312D01*
X123245714Y-135440836D01*
X123245714Y-135297979D01*
X123293333Y-135107503D01*
X123340952Y-135012265D01*
X123436190Y-134917027D01*
X123579047Y-134869407D01*
X123674285Y-134869407D01*
X123817142Y-134917027D01*
X123864761Y-134964646D01*
X124769523Y-135869407D02*
X124293333Y-135869407D01*
X124293333Y-134869407D01*
X125102857Y-135869407D02*
X125102857Y-134869407D01*
X125674285Y-135869407D02*
X125245714Y-135297979D01*
X125674285Y-134869407D02*
X125102857Y-135440836D01*
X119189523Y-135961380D02*
X118618095Y-135961380D01*
X118903809Y-135961380D02*
X118903809Y-134961380D01*
X118808571Y-135104238D01*
X118713333Y-135199476D01*
X118618095Y-135247095D01*
X120046666Y-135294714D02*
X120046666Y-135961380D01*
X119808571Y-134913761D02*
X119570476Y-135628047D01*
X120189523Y-135628047D01*
X116649523Y-135961380D02*
X116078095Y-135961380D01*
X116363809Y-135961380D02*
X116363809Y-134961380D01*
X116268571Y-135104238D01*
X116173333Y-135199476D01*
X116078095Y-135247095D01*
X117030476Y-135056619D02*
X117078095Y-135009000D01*
X117173333Y-134961380D01*
X117411428Y-134961380D01*
X117506666Y-135009000D01*
X117554285Y-135056619D01*
X117601904Y-135151857D01*
X117601904Y-135247095D01*
X117554285Y-135389952D01*
X116982857Y-135961380D01*
X117601904Y-135961380D01*
X114109523Y-135961380D02*
X113538095Y-135961380D01*
X113823809Y-135961380D02*
X113823809Y-134961380D01*
X113728571Y-135104238D01*
X113633333Y-135199476D01*
X113538095Y-135247095D01*
X114728571Y-134961380D02*
X114823809Y-134961380D01*
X114919047Y-135009000D01*
X114966666Y-135056619D01*
X115014285Y-135151857D01*
X115061904Y-135342333D01*
X115061904Y-135580428D01*
X115014285Y-135770904D01*
X114966666Y-135866142D01*
X114919047Y-135913761D01*
X114823809Y-135961380D01*
X114728571Y-135961380D01*
X114633333Y-135913761D01*
X114585714Y-135866142D01*
X114538095Y-135770904D01*
X114490476Y-135580428D01*
X114490476Y-135342333D01*
X114538095Y-135151857D01*
X114585714Y-135056619D01*
X114633333Y-135009000D01*
X114728571Y-134961380D01*
X111664761Y-135389952D02*
X111569523Y-135342333D01*
X111521904Y-135294714D01*
X111474285Y-135199476D01*
X111474285Y-135151857D01*
X111521904Y-135056619D01*
X111569523Y-135009000D01*
X111664761Y-134961380D01*
X111855238Y-134961380D01*
X111950476Y-135009000D01*
X111998095Y-135056619D01*
X112045714Y-135151857D01*
X112045714Y-135199476D01*
X111998095Y-135294714D01*
X111950476Y-135342333D01*
X111855238Y-135389952D01*
X111664761Y-135389952D01*
X111569523Y-135437571D01*
X111521904Y-135485190D01*
X111474285Y-135580428D01*
X111474285Y-135770904D01*
X111521904Y-135866142D01*
X111569523Y-135913761D01*
X111664761Y-135961380D01*
X111855238Y-135961380D01*
X111950476Y-135913761D01*
X111998095Y-135866142D01*
X112045714Y-135770904D01*
X112045714Y-135580428D01*
X111998095Y-135485190D01*
X111950476Y-135437571D01*
X111855238Y-135389952D01*
X109410476Y-134961380D02*
X109220000Y-134961380D01*
X109124761Y-135009000D01*
X109077142Y-135056619D01*
X108981904Y-135199476D01*
X108934285Y-135389952D01*
X108934285Y-135770904D01*
X108981904Y-135866142D01*
X109029523Y-135913761D01*
X109124761Y-135961380D01*
X109315238Y-135961380D01*
X109410476Y-135913761D01*
X109458095Y-135866142D01*
X109505714Y-135770904D01*
X109505714Y-135532809D01*
X109458095Y-135437571D01*
X109410476Y-135389952D01*
X109315238Y-135342333D01*
X109124761Y-135342333D01*
X109029523Y-135389952D01*
X108981904Y-135437571D01*
X108934285Y-135532809D01*
X106870476Y-135294714D02*
X106870476Y-135961380D01*
X106632380Y-134913761D02*
X106394285Y-135628047D01*
X107013333Y-135628047D01*
X119189523Y-142311380D02*
X118618095Y-142311380D01*
X118903809Y-142311380D02*
X118903809Y-141311380D01*
X118808571Y-141454238D01*
X118713333Y-141549476D01*
X118618095Y-141597095D01*
X120094285Y-141311380D02*
X119618095Y-141311380D01*
X119570476Y-141787571D01*
X119618095Y-141739952D01*
X119713333Y-141692333D01*
X119951428Y-141692333D01*
X120046666Y-141739952D01*
X120094285Y-141787571D01*
X120141904Y-141882809D01*
X120141904Y-142120904D01*
X120094285Y-142216142D01*
X120046666Y-142263761D01*
X119951428Y-142311380D01*
X119713333Y-142311380D01*
X119618095Y-142263761D01*
X119570476Y-142216142D01*
X116649523Y-142311380D02*
X116078095Y-142311380D01*
X116363809Y-142311380D02*
X116363809Y-141311380D01*
X116268571Y-141454238D01*
X116173333Y-141549476D01*
X116078095Y-141597095D01*
X116982857Y-141311380D02*
X117601904Y-141311380D01*
X117268571Y-141692333D01*
X117411428Y-141692333D01*
X117506666Y-141739952D01*
X117554285Y-141787571D01*
X117601904Y-141882809D01*
X117601904Y-142120904D01*
X117554285Y-142216142D01*
X117506666Y-142263761D01*
X117411428Y-142311380D01*
X117125714Y-142311380D01*
X117030476Y-142263761D01*
X116982857Y-142216142D01*
X114109523Y-142311380D02*
X113538095Y-142311380D01*
X113823809Y-142311380D02*
X113823809Y-141311380D01*
X113728571Y-141454238D01*
X113633333Y-141549476D01*
X113538095Y-141597095D01*
X115061904Y-142311380D02*
X114490476Y-142311380D01*
X114776190Y-142311380D02*
X114776190Y-141311380D01*
X114680952Y-141454238D01*
X114585714Y-141549476D01*
X114490476Y-141597095D01*
X111569523Y-142311380D02*
X111760000Y-142311380D01*
X111855238Y-142263761D01*
X111902857Y-142216142D01*
X111998095Y-142073285D01*
X112045714Y-141882809D01*
X112045714Y-141501857D01*
X111998095Y-141406619D01*
X111950476Y-141359000D01*
X111855238Y-141311380D01*
X111664761Y-141311380D01*
X111569523Y-141359000D01*
X111521904Y-141406619D01*
X111474285Y-141501857D01*
X111474285Y-141739952D01*
X111521904Y-141835190D01*
X111569523Y-141882809D01*
X111664761Y-141930428D01*
X111855238Y-141930428D01*
X111950476Y-141882809D01*
X111998095Y-141835190D01*
X112045714Y-141739952D01*
X108886666Y-141311380D02*
X109553333Y-141311380D01*
X109124761Y-142311380D01*
X106918095Y-141311380D02*
X106441904Y-141311380D01*
X106394285Y-141787571D01*
X106441904Y-141739952D01*
X106537142Y-141692333D01*
X106775238Y-141692333D01*
X106870476Y-141739952D01*
X106918095Y-141787571D01*
X106965714Y-141882809D01*
X106965714Y-142120904D01*
X106918095Y-142216142D01*
X106870476Y-142263761D01*
X106775238Y-142311380D01*
X106537142Y-142311380D01*
X106441904Y-142263761D01*
X106394285Y-142216142D01*
X103806666Y-141311380D02*
X104425714Y-141311380D01*
X104092380Y-141692333D01*
X104235238Y-141692333D01*
X104330476Y-141739952D01*
X104378095Y-141787571D01*
X104425714Y-141882809D01*
X104425714Y-142120904D01*
X104378095Y-142216142D01*
X104330476Y-142263761D01*
X104235238Y-142311380D01*
X103949523Y-142311380D01*
X103854285Y-142263761D01*
X103806666Y-142216142D01*
X101885714Y-142311380D02*
X101314285Y-142311380D01*
X101600000Y-142311380D02*
X101600000Y-141311380D01*
X101504761Y-141454238D01*
X101409523Y-141549476D01*
X101314285Y-141597095D01*
X103854285Y-135056619D02*
X103901904Y-135009000D01*
X103997142Y-134961380D01*
X104235238Y-134961380D01*
X104330476Y-135009000D01*
X104378095Y-135056619D01*
X104425714Y-135151857D01*
X104425714Y-135247095D01*
X104378095Y-135389952D01*
X103806666Y-135961380D01*
X104425714Y-135961380D01*
X101552380Y-134961380D02*
X101647619Y-134961380D01*
X101742857Y-135009000D01*
X101790476Y-135056619D01*
X101838095Y-135151857D01*
X101885714Y-135342333D01*
X101885714Y-135580428D01*
X101838095Y-135770904D01*
X101790476Y-135866142D01*
X101742857Y-135913761D01*
X101647619Y-135961380D01*
X101552380Y-135961380D01*
X101457142Y-135913761D01*
X101409523Y-135866142D01*
X101361904Y-135770904D01*
X101314285Y-135580428D01*
X101314285Y-135342333D01*
X101361904Y-135151857D01*
X101409523Y-135056619D01*
X101457142Y-135009000D01*
X101552380Y-134961380D01*
D11*
G04 #@! TO.C,LOGO1*
G36*
X123651017Y-147941427D02*
X123627734Y-147941272D01*
X123609573Y-147938032D01*
X123580962Y-147929508D01*
X123546931Y-147917275D01*
X123532484Y-147911512D01*
X123411808Y-147853559D01*
X123291907Y-147779542D01*
X123174011Y-147690326D01*
X123059348Y-147586774D01*
X123033507Y-147560964D01*
X122909423Y-147422720D01*
X122797686Y-147273316D01*
X122698730Y-147113629D01*
X122612991Y-146944535D01*
X122540905Y-146766912D01*
X122482906Y-146581636D01*
X122439430Y-146389585D01*
X122432648Y-146351222D01*
X122427388Y-146316181D01*
X122421884Y-146272844D01*
X122416384Y-146224032D01*
X122411138Y-146172565D01*
X122406394Y-146121263D01*
X122402400Y-146072945D01*
X122399406Y-146030431D01*
X122397659Y-145996542D01*
X122397409Y-145974097D01*
X122398683Y-145966002D01*
X122406506Y-145961552D01*
X122427817Y-145949651D01*
X122461281Y-145931038D01*
X122505564Y-145906450D01*
X122559332Y-145876626D01*
X122621251Y-145842303D01*
X122689987Y-145804220D01*
X122764206Y-145763116D01*
X122842573Y-145719727D01*
X122923754Y-145674793D01*
X123006416Y-145629052D01*
X123089224Y-145583241D01*
X123170844Y-145538099D01*
X123249942Y-145494363D01*
X123325184Y-145452773D01*
X123395236Y-145414066D01*
X123458763Y-145378981D01*
X123514431Y-145348255D01*
X123560907Y-145322627D01*
X123596856Y-145302835D01*
X123620944Y-145289617D01*
X123631837Y-145283710D01*
X123631967Y-145283643D01*
X123651017Y-145273831D01*
X123651017Y-147941427D01*
X123651017Y-147941427D01*
G37*
X123651017Y-147941427D02*
X123627734Y-147941272D01*
X123609573Y-147938032D01*
X123580962Y-147929508D01*
X123546931Y-147917275D01*
X123532484Y-147911512D01*
X123411808Y-147853559D01*
X123291907Y-147779542D01*
X123174011Y-147690326D01*
X123059348Y-147586774D01*
X123033507Y-147560964D01*
X122909423Y-147422720D01*
X122797686Y-147273316D01*
X122698730Y-147113629D01*
X122612991Y-146944535D01*
X122540905Y-146766912D01*
X122482906Y-146581636D01*
X122439430Y-146389585D01*
X122432648Y-146351222D01*
X122427388Y-146316181D01*
X122421884Y-146272844D01*
X122416384Y-146224032D01*
X122411138Y-146172565D01*
X122406394Y-146121263D01*
X122402400Y-146072945D01*
X122399406Y-146030431D01*
X122397659Y-145996542D01*
X122397409Y-145974097D01*
X122398683Y-145966002D01*
X122406506Y-145961552D01*
X122427817Y-145949651D01*
X122461281Y-145931038D01*
X122505564Y-145906450D01*
X122559332Y-145876626D01*
X122621251Y-145842303D01*
X122689987Y-145804220D01*
X122764206Y-145763116D01*
X122842573Y-145719727D01*
X122923754Y-145674793D01*
X123006416Y-145629052D01*
X123089224Y-145583241D01*
X123170844Y-145538099D01*
X123249942Y-145494363D01*
X123325184Y-145452773D01*
X123395236Y-145414066D01*
X123458763Y-145378981D01*
X123514431Y-145348255D01*
X123560907Y-145322627D01*
X123596856Y-145302835D01*
X123620944Y-145289617D01*
X123631837Y-145283710D01*
X123631967Y-145283643D01*
X123651017Y-145273831D01*
X123651017Y-147941427D01*
G36*
X124260508Y-146240519D02*
X124300669Y-146258964D01*
X124339802Y-146289705D01*
X124376073Y-146331888D01*
X124407646Y-146384658D01*
X124408809Y-146387027D01*
X124423710Y-146420567D01*
X124434807Y-146453710D01*
X124442479Y-146489486D01*
X124447106Y-146530920D01*
X124449068Y-146581042D01*
X124448744Y-146642877D01*
X124447367Y-146694554D01*
X124442650Y-146840447D01*
X124270434Y-146762287D01*
X124098217Y-146684127D01*
X124102161Y-146519027D01*
X124104207Y-146452419D01*
X124107111Y-146400231D01*
X124111372Y-146359952D01*
X124117491Y-146329074D01*
X124125965Y-146305085D01*
X124137295Y-146285477D01*
X124151980Y-146267739D01*
X124152199Y-146267505D01*
X124184439Y-146243935D01*
X124221153Y-146235224D01*
X124260508Y-146240519D01*
X124260508Y-146240519D01*
G37*
X124260508Y-146240519D02*
X124300669Y-146258964D01*
X124339802Y-146289705D01*
X124376073Y-146331888D01*
X124407646Y-146384658D01*
X124408809Y-146387027D01*
X124423710Y-146420567D01*
X124434807Y-146453710D01*
X124442479Y-146489486D01*
X124447106Y-146530920D01*
X124449068Y-146581042D01*
X124448744Y-146642877D01*
X124447367Y-146694554D01*
X124442650Y-146840447D01*
X124270434Y-146762287D01*
X124098217Y-146684127D01*
X124102161Y-146519027D01*
X124104207Y-146452419D01*
X124107111Y-146400231D01*
X124111372Y-146359952D01*
X124117491Y-146329074D01*
X124125965Y-146305085D01*
X124137295Y-146285477D01*
X124151980Y-146267739D01*
X124152199Y-146267505D01*
X124184439Y-146243935D01*
X124221153Y-146235224D01*
X124260508Y-146240519D01*
G36*
X123668197Y-144939742D02*
X123690018Y-144951232D01*
X123724160Y-144969542D01*
X123769376Y-144993987D01*
X123824415Y-145023882D01*
X123888031Y-145058541D01*
X123958973Y-145097277D01*
X124035993Y-145139404D01*
X124117842Y-145184237D01*
X124203271Y-145231090D01*
X124291033Y-145279277D01*
X124379877Y-145328112D01*
X124468555Y-145376909D01*
X124555818Y-145424982D01*
X124640418Y-145471645D01*
X124721106Y-145516213D01*
X124796633Y-145557999D01*
X124865750Y-145596317D01*
X124927209Y-145630483D01*
X124979760Y-145659809D01*
X125022155Y-145683609D01*
X125043784Y-145695854D01*
X125070898Y-145712334D01*
X125090649Y-145726367D01*
X125099738Y-145735536D01*
X125099903Y-145736952D01*
X125093253Y-145746190D01*
X125077839Y-145765054D01*
X125055870Y-145791023D01*
X125029560Y-145821574D01*
X125001118Y-145854185D01*
X124972756Y-145886334D01*
X124946686Y-145915499D01*
X124925119Y-145939157D01*
X124910267Y-145954787D01*
X124904421Y-145959907D01*
X124896496Y-145955841D01*
X124874865Y-145944143D01*
X124840618Y-145925417D01*
X124794846Y-145900263D01*
X124738640Y-145869284D01*
X124673090Y-145833082D01*
X124599287Y-145792259D01*
X124518321Y-145747418D01*
X124431284Y-145699160D01*
X124339265Y-145648088D01*
X124277550Y-145613807D01*
X123655250Y-145268027D01*
X123652955Y-145101894D01*
X123652439Y-145038363D01*
X123652903Y-144990868D01*
X123654382Y-144958539D01*
X123656913Y-144940503D01*
X123659947Y-144935760D01*
X123668197Y-144939742D01*
X123668197Y-144939742D01*
G37*
X123668197Y-144939742D02*
X123690018Y-144951232D01*
X123724160Y-144969542D01*
X123769376Y-144993987D01*
X123824415Y-145023882D01*
X123888031Y-145058541D01*
X123958973Y-145097277D01*
X124035993Y-145139404D01*
X124117842Y-145184237D01*
X124203271Y-145231090D01*
X124291033Y-145279277D01*
X124379877Y-145328112D01*
X124468555Y-145376909D01*
X124555818Y-145424982D01*
X124640418Y-145471645D01*
X124721106Y-145516213D01*
X124796633Y-145557999D01*
X124865750Y-145596317D01*
X124927209Y-145630483D01*
X124979760Y-145659809D01*
X125022155Y-145683609D01*
X125043784Y-145695854D01*
X125070898Y-145712334D01*
X125090649Y-145726367D01*
X125099738Y-145735536D01*
X125099903Y-145736952D01*
X125093253Y-145746190D01*
X125077839Y-145765054D01*
X125055870Y-145791023D01*
X125029560Y-145821574D01*
X125001118Y-145854185D01*
X124972756Y-145886334D01*
X124946686Y-145915499D01*
X124925119Y-145939157D01*
X124910267Y-145954787D01*
X124904421Y-145959907D01*
X124896496Y-145955841D01*
X124874865Y-145944143D01*
X124840618Y-145925417D01*
X124794846Y-145900263D01*
X124738640Y-145869284D01*
X124673090Y-145833082D01*
X124599287Y-145792259D01*
X124518321Y-145747418D01*
X124431284Y-145699160D01*
X124339265Y-145648088D01*
X124277550Y-145613807D01*
X123655250Y-145268027D01*
X123652955Y-145101894D01*
X123652439Y-145038363D01*
X123652903Y-144990868D01*
X123654382Y-144958539D01*
X123656913Y-144940503D01*
X123659947Y-144935760D01*
X123668197Y-144939742D01*
G36*
X123648979Y-144498472D02*
X123649285Y-144581596D01*
X123649329Y-144659544D01*
X123649128Y-144730683D01*
X123648698Y-144793383D01*
X123648055Y-144846011D01*
X123647216Y-144886937D01*
X123646195Y-144914529D01*
X123645009Y-144927156D01*
X123644746Y-144927750D01*
X123636454Y-144932667D01*
X123614563Y-144945052D01*
X123580316Y-144964219D01*
X123534956Y-144989482D01*
X123479726Y-145020158D01*
X123415868Y-145055560D01*
X123344625Y-145095003D01*
X123267240Y-145137802D01*
X123184956Y-145183273D01*
X123099016Y-145230728D01*
X123010663Y-145279485D01*
X122921138Y-145328856D01*
X122831686Y-145378157D01*
X122743549Y-145426703D01*
X122657969Y-145473809D01*
X122576190Y-145518789D01*
X122499454Y-145560958D01*
X122429004Y-145599631D01*
X122366084Y-145634122D01*
X122311935Y-145663747D01*
X122267800Y-145687820D01*
X122234923Y-145705656D01*
X122214546Y-145716570D01*
X122208055Y-145719866D01*
X122205013Y-145719759D01*
X122202469Y-145716006D01*
X122200378Y-145707260D01*
X122198696Y-145692178D01*
X122197382Y-145669415D01*
X122196390Y-145637625D01*
X122195678Y-145595465D01*
X122195201Y-145541588D01*
X122194917Y-145474650D01*
X122194781Y-145393307D01*
X122194750Y-145308814D01*
X122194750Y-144892657D01*
X122213800Y-144873733D01*
X122227987Y-144862906D01*
X122253154Y-144846770D01*
X122286120Y-144827079D01*
X122323705Y-144805589D01*
X122362727Y-144784053D01*
X122400008Y-144764228D01*
X122432365Y-144747867D01*
X122456620Y-144736727D01*
X122469590Y-144732561D01*
X122469657Y-144732560D01*
X122474510Y-144734629D01*
X122478005Y-144742352D01*
X122480351Y-144758010D01*
X122481761Y-144783880D01*
X122482446Y-144822240D01*
X122482617Y-144872260D01*
X122482917Y-144918752D01*
X122483749Y-144958691D01*
X122485007Y-144989287D01*
X122486587Y-145007748D01*
X122487865Y-145011960D01*
X122496582Y-145008070D01*
X122517744Y-144997236D01*
X122548978Y-144980715D01*
X122587911Y-144959762D01*
X122632173Y-144935633D01*
X122635799Y-144933643D01*
X122778486Y-144855327D01*
X122778718Y-144715394D01*
X122779159Y-144659573D01*
X122780395Y-144618332D01*
X122782612Y-144589328D01*
X122785999Y-144570220D01*
X122790741Y-144558664D01*
X122791299Y-144557831D01*
X122803175Y-144547253D01*
X122826391Y-144531454D01*
X122857903Y-144512094D01*
X122894669Y-144490834D01*
X122933644Y-144469335D01*
X122971788Y-144449257D01*
X123006055Y-144432261D01*
X123033403Y-144420009D01*
X123050790Y-144414160D01*
X123054661Y-144414097D01*
X123059362Y-144418855D01*
X123062726Y-144430468D01*
X123064952Y-144451202D01*
X123066233Y-144483322D01*
X123066768Y-144529094D01*
X123066817Y-144554494D01*
X123067191Y-144600248D01*
X123068224Y-144639376D01*
X123069784Y-144669058D01*
X123071739Y-144686472D01*
X123073167Y-144689876D01*
X123082219Y-144685811D01*
X123103606Y-144674708D01*
X123134923Y-144657864D01*
X123173763Y-144636572D01*
X123217721Y-144612126D01*
X123219217Y-144611289D01*
X123358917Y-144533052D01*
X123363150Y-144387548D01*
X123365025Y-144332293D01*
X123367143Y-144291582D01*
X123369773Y-144263027D01*
X123373182Y-144244238D01*
X123377639Y-144232827D01*
X123380999Y-144228456D01*
X123392725Y-144219942D01*
X123416547Y-144204996D01*
X123449685Y-144185281D01*
X123489361Y-144162458D01*
X123520699Y-144144878D01*
X123646784Y-144074888D01*
X123648979Y-144498472D01*
X123648979Y-144498472D01*
G37*
X123648979Y-144498472D02*
X123649285Y-144581596D01*
X123649329Y-144659544D01*
X123649128Y-144730683D01*
X123648698Y-144793383D01*
X123648055Y-144846011D01*
X123647216Y-144886937D01*
X123646195Y-144914529D01*
X123645009Y-144927156D01*
X123644746Y-144927750D01*
X123636454Y-144932667D01*
X123614563Y-144945052D01*
X123580316Y-144964219D01*
X123534956Y-144989482D01*
X123479726Y-145020158D01*
X123415868Y-145055560D01*
X123344625Y-145095003D01*
X123267240Y-145137802D01*
X123184956Y-145183273D01*
X123099016Y-145230728D01*
X123010663Y-145279485D01*
X122921138Y-145328856D01*
X122831686Y-145378157D01*
X122743549Y-145426703D01*
X122657969Y-145473809D01*
X122576190Y-145518789D01*
X122499454Y-145560958D01*
X122429004Y-145599631D01*
X122366084Y-145634122D01*
X122311935Y-145663747D01*
X122267800Y-145687820D01*
X122234923Y-145705656D01*
X122214546Y-145716570D01*
X122208055Y-145719866D01*
X122205013Y-145719759D01*
X122202469Y-145716006D01*
X122200378Y-145707260D01*
X122198696Y-145692178D01*
X122197382Y-145669415D01*
X122196390Y-145637625D01*
X122195678Y-145595465D01*
X122195201Y-145541588D01*
X122194917Y-145474650D01*
X122194781Y-145393307D01*
X122194750Y-145308814D01*
X122194750Y-144892657D01*
X122213800Y-144873733D01*
X122227987Y-144862906D01*
X122253154Y-144846770D01*
X122286120Y-144827079D01*
X122323705Y-144805589D01*
X122362727Y-144784053D01*
X122400008Y-144764228D01*
X122432365Y-144747867D01*
X122456620Y-144736727D01*
X122469590Y-144732561D01*
X122469657Y-144732560D01*
X122474510Y-144734629D01*
X122478005Y-144742352D01*
X122480351Y-144758010D01*
X122481761Y-144783880D01*
X122482446Y-144822240D01*
X122482617Y-144872260D01*
X122482917Y-144918752D01*
X122483749Y-144958691D01*
X122485007Y-144989287D01*
X122486587Y-145007748D01*
X122487865Y-145011960D01*
X122496582Y-145008070D01*
X122517744Y-144997236D01*
X122548978Y-144980715D01*
X122587911Y-144959762D01*
X122632173Y-144935633D01*
X122635799Y-144933643D01*
X122778486Y-144855327D01*
X122778718Y-144715394D01*
X122779159Y-144659573D01*
X122780395Y-144618332D01*
X122782612Y-144589328D01*
X122785999Y-144570220D01*
X122790741Y-144558664D01*
X122791299Y-144557831D01*
X122803175Y-144547253D01*
X122826391Y-144531454D01*
X122857903Y-144512094D01*
X122894669Y-144490834D01*
X122933644Y-144469335D01*
X122971788Y-144449257D01*
X123006055Y-144432261D01*
X123033403Y-144420009D01*
X123050790Y-144414160D01*
X123054661Y-144414097D01*
X123059362Y-144418855D01*
X123062726Y-144430468D01*
X123064952Y-144451202D01*
X123066233Y-144483322D01*
X123066768Y-144529094D01*
X123066817Y-144554494D01*
X123067191Y-144600248D01*
X123068224Y-144639376D01*
X123069784Y-144669058D01*
X123071739Y-144686472D01*
X123073167Y-144689876D01*
X123082219Y-144685811D01*
X123103606Y-144674708D01*
X123134923Y-144657864D01*
X123173763Y-144636572D01*
X123217721Y-144612126D01*
X123219217Y-144611289D01*
X123358917Y-144533052D01*
X123363150Y-144387548D01*
X123365025Y-144332293D01*
X123367143Y-144291582D01*
X123369773Y-144263027D01*
X123373182Y-144244238D01*
X123377639Y-144232827D01*
X123380999Y-144228456D01*
X123392725Y-144219942D01*
X123416547Y-144204996D01*
X123449685Y-144185281D01*
X123489361Y-144162458D01*
X123520699Y-144144878D01*
X123646784Y-144074888D01*
X123648979Y-144498472D01*
G36*
X124527126Y-144558667D02*
X124547028Y-144569603D01*
X124577290Y-144586327D01*
X124615695Y-144607616D01*
X124660027Y-144632243D01*
X124670859Y-144638268D01*
X124820970Y-144721776D01*
X124819822Y-144864417D01*
X124819321Y-144911623D01*
X124818657Y-144952494D01*
X124817894Y-144984211D01*
X124817097Y-145003957D01*
X124816508Y-145009225D01*
X124808784Y-145006025D01*
X124788544Y-144995830D01*
X124758087Y-144979849D01*
X124719712Y-144959288D01*
X124675716Y-144935355D01*
X124670829Y-144932677D01*
X124527317Y-144853963D01*
X124523084Y-144704348D01*
X124521770Y-144656148D01*
X124520730Y-144614404D01*
X124520022Y-144581812D01*
X124519706Y-144561065D01*
X124519799Y-144554747D01*
X124527126Y-144558667D01*
X124527126Y-144558667D01*
G37*
X124527126Y-144558667D02*
X124547028Y-144569603D01*
X124577290Y-144586327D01*
X124615695Y-144607616D01*
X124660027Y-144632243D01*
X124670859Y-144638268D01*
X124820970Y-144721776D01*
X124819822Y-144864417D01*
X124819321Y-144911623D01*
X124818657Y-144952494D01*
X124817894Y-144984211D01*
X124817097Y-145003957D01*
X124816508Y-145009225D01*
X124808784Y-145006025D01*
X124788544Y-144995830D01*
X124758087Y-144979849D01*
X124719712Y-144959288D01*
X124675716Y-144935355D01*
X124670829Y-144932677D01*
X124527317Y-144853963D01*
X124523084Y-144704348D01*
X124521770Y-144656148D01*
X124520730Y-144614404D01*
X124520022Y-144581812D01*
X124519706Y-144561065D01*
X124519799Y-144554747D01*
X124527126Y-144558667D01*
G36*
X123943872Y-144236961D02*
X123964846Y-144247957D01*
X123996114Y-144264804D01*
X124035434Y-144286290D01*
X124080565Y-144311207D01*
X124095585Y-144319549D01*
X124153824Y-144352494D01*
X124197244Y-144378328D01*
X124226267Y-144397326D01*
X124241314Y-144409758D01*
X124243403Y-144415398D01*
X124240599Y-144426717D01*
X124237937Y-144451827D01*
X124235642Y-144487588D01*
X124233936Y-144530857D01*
X124233323Y-144557151D01*
X124230983Y-144689576D01*
X124089167Y-144611669D01*
X123947350Y-144533762D01*
X123947350Y-144405112D01*
X123946819Y-144358412D01*
X123945356Y-144316249D01*
X123943159Y-144282224D01*
X123940426Y-144259936D01*
X123939093Y-144254745D01*
X123934553Y-144239049D01*
X123935431Y-144233027D01*
X123943872Y-144236961D01*
X123943872Y-144236961D01*
G37*
X123943872Y-144236961D02*
X123964846Y-144247957D01*
X123996114Y-144264804D01*
X124035434Y-144286290D01*
X124080565Y-144311207D01*
X124095585Y-144319549D01*
X124153824Y-144352494D01*
X124197244Y-144378328D01*
X124226267Y-144397326D01*
X124241314Y-144409758D01*
X124243403Y-144415398D01*
X124240599Y-144426717D01*
X124237937Y-144451827D01*
X124235642Y-144487588D01*
X124233936Y-144530857D01*
X124233323Y-144557151D01*
X124230983Y-144689576D01*
X124089167Y-144611669D01*
X123947350Y-144533762D01*
X123947350Y-144405112D01*
X123946819Y-144358412D01*
X123945356Y-144316249D01*
X123943159Y-144282224D01*
X123940426Y-144259936D01*
X123939093Y-144254745D01*
X123934553Y-144239049D01*
X123935431Y-144233027D01*
X123943872Y-144236961D01*
D12*
G04 #@! TO.C,Y1*
X109001018Y-96311028D02*
X115251018Y-96311028D01*
X109001018Y-101361028D02*
X115251018Y-101361028D01*
X109001018Y-101361028D02*
G75*
G02X109001018Y-96311028I0J2525000D01*
G01*
X115251018Y-101361028D02*
G75*
G03X115251018Y-96311028I0J2525000D01*
G01*
D13*
G04 #@! TO.C,U1*
X125651017Y-131511027D02*
X98651017Y-131511027D01*
X98651017Y-131511027D02*
X98651017Y-104511027D01*
X98651017Y-104511027D02*
X125651017Y-104511027D01*
X125651017Y-104511027D02*
X125651017Y-131511027D01*
X98651017Y-105511027D02*
X99651017Y-104511027D01*
D12*
G04 #@! TO.C,TP38*
X112710000Y-70358000D02*
G75*
G03X112710000Y-70358000I-950000J0D01*
G01*
G04 #@! TO.C,TP50*
X105090000Y-64008000D02*
G75*
G03X105090000Y-64008000I-950000J0D01*
G01*
G04 #@! TO.C,TP49*
X107630000Y-64008000D02*
G75*
G03X107630000Y-64008000I-950000J0D01*
G01*
G04 #@! TO.C,TP48*
X110170000Y-64008000D02*
G75*
G03X110170000Y-64008000I-950000J0D01*
G01*
G04 #@! TO.C,TP47*
X112710000Y-64008000D02*
G75*
G03X112710000Y-64008000I-950000J0D01*
G01*
G04 #@! TO.C,TP46*
X115250000Y-64008000D02*
G75*
G03X115250000Y-64008000I-950000J0D01*
G01*
G04 #@! TO.C,TP45*
X117790000Y-64008000D02*
G75*
G03X117790000Y-64008000I-950000J0D01*
G01*
G04 #@! TO.C,TP44*
X120330000Y-64008000D02*
G75*
G03X120330000Y-64008000I-950000J0D01*
G01*
G04 #@! TO.C,TP43*
X122870000Y-64008000D02*
G75*
G03X122870000Y-64008000I-950000J0D01*
G01*
G04 #@! TO.C,TP42*
X102550000Y-70358000D02*
G75*
G03X102550000Y-70358000I-950000J0D01*
G01*
G04 #@! TO.C,TP41*
X105090000Y-70358000D02*
G75*
G03X105090000Y-70358000I-950000J0D01*
G01*
G04 #@! TO.C,TP40*
X107630000Y-70358000D02*
G75*
G03X107630000Y-70358000I-950000J0D01*
G01*
G04 #@! TO.C,TP39*
X110170000Y-70358000D02*
G75*
G03X110170000Y-70358000I-950000J0D01*
G01*
G04 #@! TO.C,TP37*
X115250000Y-70358000D02*
G75*
G03X115250000Y-70358000I-950000J0D01*
G01*
G04 #@! TO.C,TP36*
X117790000Y-70358000D02*
G75*
G03X117790000Y-70358000I-950000J0D01*
G01*
G04 #@! TO.C,TP35*
X120330000Y-70358000D02*
G75*
G03X120330000Y-70358000I-950000J0D01*
G01*
G04 #@! TO.C,TP34*
X122870000Y-70358000D02*
G75*
G03X122870000Y-70358000I-950000J0D01*
G01*
G04 #@! TO.C,TP51*
X102550000Y-64008000D02*
G75*
G03X102550000Y-64008000I-950000J0D01*
G01*
G04 #@! TO.C,TP26*
X100656017Y-102651027D02*
G75*
G03X100656017Y-102651027I-950000J0D01*
G01*
G04 #@! TO.C,TP18*
X125410000Y-102651027D02*
G75*
G03X125410000Y-102651027I-950000J0D01*
G01*
G04 #@! TO.C,TP17*
X102550000Y-137541000D02*
G75*
G03X102550000Y-137541000I-950000J0D01*
G01*
G04 #@! TO.C,TP16*
X105090000Y-137541000D02*
G75*
G03X105090000Y-137541000I-950000J0D01*
G01*
G04 #@! TO.C,TP15*
X107630000Y-137541000D02*
G75*
G03X107630000Y-137541000I-950000J0D01*
G01*
G04 #@! TO.C,TP14*
X110170000Y-137541000D02*
G75*
G03X110170000Y-137541000I-950000J0D01*
G01*
G04 #@! TO.C,TP13*
X112710000Y-137541000D02*
G75*
G03X112710000Y-137541000I-950000J0D01*
G01*
G04 #@! TO.C,TP12*
X115250000Y-137541000D02*
G75*
G03X115250000Y-137541000I-950000J0D01*
G01*
G04 #@! TO.C,TP11*
X117790000Y-137541000D02*
G75*
G03X117790000Y-137541000I-950000J0D01*
G01*
G04 #@! TO.C,TP10*
X120330000Y-137541000D02*
G75*
G03X120330000Y-137541000I-950000J0D01*
G01*
G04 #@! TO.C,TP9*
X102550000Y-143891000D02*
G75*
G03X102550000Y-143891000I-950000J0D01*
G01*
G04 #@! TO.C,TP8*
X105090000Y-143891000D02*
G75*
G03X105090000Y-143891000I-950000J0D01*
G01*
G04 #@! TO.C,TP7*
X107630000Y-143891000D02*
G75*
G03X107630000Y-143891000I-950000J0D01*
G01*
G04 #@! TO.C,TP6*
X110170000Y-143891000D02*
G75*
G03X110170000Y-143891000I-950000J0D01*
G01*
G04 #@! TO.C,TP5*
X112710000Y-143891000D02*
G75*
G03X112710000Y-143891000I-950000J0D01*
G01*
G04 #@! TO.C,TP4*
X115250000Y-143891000D02*
G75*
G03X115250000Y-143891000I-950000J0D01*
G01*
G04 #@! TO.C,TP3*
X117790000Y-143891000D02*
G75*
G03X117790000Y-143891000I-950000J0D01*
G01*
G04 #@! TO.C,TP2*
X120330000Y-143891000D02*
G75*
G03X120330000Y-143891000I-950000J0D01*
G01*
G04 #@! TO.C,TP1*
X125410000Y-137541000D02*
G75*
G03X125410000Y-137541000I-950000J0D01*
G01*
G04 #@! TO.C,Y1*
D13*
X104674826Y-98737217D02*
X104674826Y-99213407D01*
X104341493Y-98213407D02*
X104674826Y-98737217D01*
X105008159Y-98213407D01*
X105865302Y-99213407D02*
X105293874Y-99213407D01*
X105579588Y-99213407D02*
X105579588Y-98213407D01*
X105484350Y-98356265D01*
X105389112Y-98451503D01*
X105293874Y-98499122D01*
G04 #@! TO.C,U1*
X111389112Y-102713407D02*
X111389112Y-103522931D01*
X111436731Y-103618169D01*
X111484350Y-103665788D01*
X111579588Y-103713407D01*
X111770064Y-103713407D01*
X111865302Y-103665788D01*
X111912921Y-103618169D01*
X111960540Y-103522931D01*
X111960540Y-102713407D01*
X112960540Y-103713407D02*
X112389112Y-103713407D01*
X112674826Y-103713407D02*
X112674826Y-102713407D01*
X112579588Y-102856265D01*
X112484350Y-102951503D01*
X112389112Y-102999122D01*
G04 #@! TD*
M02*
