G04 #@! TF.GenerationSoftware,KiCad,Pcbnew,5.0.2-bee76a0~70~ubuntu18.04.1*
G04 #@! TF.CreationDate,2019-05-09T10:06:34+02:00*
G04 #@! TF.ProjectId,stm32f205,73746d33-3266-4323-9035-2e6b69636164,rev?*
G04 #@! TF.SameCoordinates,Original*
G04 #@! TF.FileFunction,Copper,L1,Top*
G04 #@! TF.FilePolarity,Positive*
%FSLAX46Y46*%
G04 Gerber Fmt 4.6, Leading zero omitted, Abs format (unit mm)*
G04 Created by KiCad (PCBNEW 5.0.2-bee76a0~70~ubuntu18.04.1) date jeu. 09 mai 2019 10:06:34 CEST*
%MOMM*%
%LPD*%
G01*
G04 APERTURE LIST*
G04 #@! TA.AperFunction,ComponentPad*
%ADD10C,1.500000*%
G04 #@! TD*
G04 #@! TA.AperFunction,ComponentPad*
%ADD11C,1.200000*%
G04 #@! TD*
G04 #@! TA.AperFunction,ComponentPad*
%ADD12C,3.250000*%
G04 #@! TD*
G04 #@! TA.AperFunction,ComponentPad*
%ADD13C,1.600000*%
G04 #@! TD*
G04 #@! TA.AperFunction,BGAPad,CuDef*
%ADD14C,1.500000*%
G04 #@! TD*
G04 #@! TA.AperFunction,ViaPad*
%ADD15C,0.800000*%
G04 #@! TD*
G04 #@! TA.AperFunction,Conductor*
%ADD16C,0.400000*%
G04 #@! TD*
G04 #@! TA.AperFunction,Conductor*
%ADD17C,0.250000*%
G04 #@! TD*
G04 APERTURE END LIST*
D10*
G04 #@! TO.P,Y1,1*
G04 #@! TO.N,Net-(C2-Pad2)*
X109676018Y-98836028D03*
G04 #@! TO.P,Y1,2*
G04 #@! TO.N,Net-(C3-Pad2)*
X114576018Y-98836028D03*
G04 #@! TD*
D11*
G04 #@! TO.P,U1,16*
G04 #@! TO.N,Net-(U1-Pad16)*
X115901017Y-108361027D03*
G04 #@! TO.P,U1,15*
G04 #@! TO.N,Net-(U1-Pad15)*
X115401017Y-106361027D03*
G04 #@! TO.P,U1,14*
G04 #@! TO.N,Net-(U1-Pad14)*
X114901017Y-110361027D03*
G04 #@! TO.P,U1,11*
G04 #@! TO.N,Net-(U1-Pad11)*
X113401017Y-110361027D03*
G04 #@! TO.P,U1,12*
G04 #@! TO.N,GNDA*
X113901017Y-106361027D03*
G04 #@! TO.P,U1,13*
G04 #@! TO.N,+3V3*
X114401017Y-108361027D03*
G04 #@! TO.P,U1,8*
G04 #@! TO.N,/D3_MCU_PC0*
X111901017Y-110361027D03*
G04 #@! TO.P,U1,10*
G04 #@! TO.N,Net-(U1-Pad10)*
X112901017Y-108361027D03*
G04 #@! TO.P,U1,9*
G04 #@! TO.N,Net-(U1-Pad9)*
X112401017Y-106361027D03*
G04 #@! TO.P,U1,7*
G04 #@! TO.N,/D2_NRST*
X111401017Y-108361027D03*
G04 #@! TO.P,U1,6*
G04 #@! TO.N,Net-(C3-Pad2)*
X110901017Y-106361027D03*
G04 #@! TO.P,U1,5*
G04 #@! TO.N,Net-(C2-Pad2)*
X110401017Y-110361027D03*
G04 #@! TO.P,U1,2*
G04 #@! TO.N,Net-(U1-Pad2)*
X108901017Y-110361027D03*
G04 #@! TO.P,U1,3*
G04 #@! TO.N,Net-(U1-Pad3)*
X109401017Y-106361027D03*
G04 #@! TO.P,U1,4*
G04 #@! TO.N,Net-(U1-Pad4)*
X109901017Y-108361027D03*
G04 #@! TO.P,U1,1*
G04 #@! TO.N,Net-(U1-Pad1)*
X108401017Y-108361027D03*
G04 #@! TO.P,U1,44*
G04 #@! TO.N,Net-(U1-Pad44)*
X110401017Y-129661027D03*
G04 #@! TO.P,U1,38*
G04 #@! TO.N,Net-(U1-Pad38)*
X113401017Y-129661027D03*
G04 #@! TO.P,U1,36*
G04 #@! TO.N,Net-(U1-Pad36)*
X114401017Y-127661027D03*
G04 #@! TO.P,U1,35*
G04 #@! TO.N,Net-(U1-Pad35)*
X114901017Y-129661027D03*
G04 #@! TO.P,U1,43*
G04 #@! TO.N,/D0_MCU_RX*
X110901017Y-125661027D03*
G04 #@! TO.P,U1,42*
G04 #@! TO.N,/D1_MCU_TX*
X111401017Y-127661027D03*
G04 #@! TO.P,U1,34*
G04 #@! TO.N,Net-(U1-Pad34)*
X115401017Y-125661027D03*
G04 #@! TO.P,U1,47*
G04 #@! TO.N,Net-(U1-Pad47)*
X108901017Y-129661027D03*
G04 #@! TO.P,U1,37*
G04 #@! TO.N,Net-(U1-Pad37)*
X113901017Y-125661027D03*
G04 #@! TO.P,U1,39*
G04 #@! TO.N,Net-(U1-Pad39)*
X112901017Y-127661027D03*
G04 #@! TO.P,U1,40*
G04 #@! TO.N,Net-(U1-Pad40)*
X112401017Y-125661027D03*
G04 #@! TO.P,U1,46*
G04 #@! TO.N,Net-(U1-Pad46)*
X109401017Y-125661027D03*
G04 #@! TO.P,U1,48*
G04 #@! TO.N,+3V3*
X108401017Y-127661027D03*
G04 #@! TO.P,U1,33*
G04 #@! TO.N,Net-(U1-Pad33)*
X115901017Y-127661027D03*
G04 #@! TO.P,U1,41*
G04 #@! TO.N,Net-(U1-Pad41)*
X111901017Y-129661027D03*
G04 #@! TO.P,U1,45*
G04 #@! TO.N,Net-(U1-Pad45)*
X109901017Y-127661027D03*
G04 #@! TO.P,U1,17*
G04 #@! TO.N,Net-(U1-Pad17)*
X119801017Y-114261027D03*
G04 #@! TO.P,U1,20*
G04 #@! TO.N,Net-(U1-Pad20)*
X119801017Y-115761027D03*
G04 #@! TO.P,U1,23*
G04 #@! TO.N,Net-(U1-Pad23)*
X119801017Y-117261027D03*
G04 #@! TO.P,U1,26*
G04 #@! TO.N,Net-(U1-Pad26)*
X119801017Y-118761027D03*
G04 #@! TO.P,U1,29*
G04 #@! TO.N,Net-(U1-Pad29)*
X119801017Y-120261027D03*
G04 #@! TO.P,U1,32*
G04 #@! TO.N,+3V3*
X119801017Y-121761027D03*
G04 #@! TO.P,U1,28*
G04 #@! TO.N,/D7_BOOT1*
X121801017Y-119761027D03*
G04 #@! TO.P,U1,19*
G04 #@! TO.N,+3V3*
X121801017Y-115261027D03*
G04 #@! TO.P,U1,25*
G04 #@! TO.N,Net-(U1-Pad25)*
X121801017Y-118261027D03*
G04 #@! TO.P,U1,22*
G04 #@! TO.N,Net-(U1-Pad22)*
X121801017Y-116761027D03*
G04 #@! TO.P,U1,31*
G04 #@! TO.N,Net-(U1-Pad31)*
X121801017Y-121261027D03*
G04 #@! TO.P,U1,18*
G04 #@! TO.N,GNDA*
X123801017Y-114761027D03*
G04 #@! TO.P,U1,24*
G04 #@! TO.N,Net-(U1-Pad24)*
X123801017Y-117761027D03*
G04 #@! TO.P,U1,21*
G04 #@! TO.N,Net-(U1-Pad21)*
X123801017Y-116261027D03*
G04 #@! TO.P,U1,30*
G04 #@! TO.N,Net-(U1-Pad30)*
X123801017Y-120761027D03*
G04 #@! TO.P,U1,27*
G04 #@! TO.N,Net-(U1-Pad27)*
X123801017Y-119261027D03*
G04 #@! TO.P,U1,55*
G04 #@! TO.N,Net-(U1-Pad55)*
X100501017Y-118761027D03*
G04 #@! TO.P,U1,60*
G04 #@! TO.N,/D6_BOOT0*
X104501017Y-116261027D03*
G04 #@! TO.P,U1,51*
G04 #@! TO.N,Net-(U1-Pad51)*
X104501017Y-120761027D03*
G04 #@! TO.P,U1,54*
G04 #@! TO.N,Net-(U1-Pad54)*
X104501017Y-119261027D03*
G04 #@! TO.P,U1,49*
G04 #@! TO.N,Net-(U1-Pad49)*
X100501017Y-121761027D03*
G04 #@! TO.P,U1,64*
G04 #@! TO.N,+3V3*
X100501017Y-114261027D03*
G04 #@! TO.P,U1,58*
G04 #@! TO.N,Net-(U1-Pad58)*
X100501017Y-117261027D03*
G04 #@! TO.P,U1,61*
G04 #@! TO.N,Net-(U1-Pad61)*
X100501017Y-115761027D03*
G04 #@! TO.P,U1,63*
G04 #@! TO.N,GNDA*
X104501017Y-114761027D03*
G04 #@! TO.P,U1,57*
G04 #@! TO.N,Net-(U1-Pad57)*
X104501017Y-117761027D03*
G04 #@! TO.P,U1,62*
G04 #@! TO.N,Net-(U1-Pad62)*
X102501017Y-115261027D03*
G04 #@! TO.P,U1,56*
G04 #@! TO.N,Net-(U1-Pad56)*
X102501017Y-118261027D03*
G04 #@! TO.P,U1,59*
G04 #@! TO.N,Net-(U1-Pad59)*
X102501017Y-116761027D03*
G04 #@! TO.P,U1,50*
G04 #@! TO.N,Net-(U1-Pad50)*
X102501017Y-121261027D03*
G04 #@! TO.P,U1,52*
G04 #@! TO.N,Net-(U1-Pad52)*
X100501017Y-120261027D03*
G04 #@! TO.P,U1,53*
G04 #@! TO.N,Net-(U1-Pad53)*
X102501017Y-119761027D03*
D12*
G04 #@! TO.P,U1,~*
G04 #@! TO.N,N/C*
X112151017Y-118011027D03*
D13*
X105451017Y-124711027D03*
X118851017Y-111311027D03*
G04 #@! TD*
D14*
G04 #@! TO.P,TP38,1*
G04 #@! TO.N,Net-(P2-Pad19)*
X111760000Y-70358000D03*
G04 #@! TD*
G04 #@! TO.P,TP50,1*
G04 #@! TO.N,Net-(P2-Pad32)*
X104140000Y-64008000D03*
G04 #@! TD*
G04 #@! TO.P,TP49,1*
G04 #@! TO.N,Net-(P2-Pad28)*
X106680000Y-64008000D03*
G04 #@! TD*
G04 #@! TO.P,TP48,1*
G04 #@! TO.N,Net-(P2-Pad24)*
X109220000Y-64008000D03*
G04 #@! TD*
G04 #@! TO.P,TP47,1*
G04 #@! TO.N,Net-(P2-Pad20)*
X111760000Y-64008000D03*
G04 #@! TD*
G04 #@! TO.P,TP46,1*
G04 #@! TO.N,Net-(P2-Pad16)*
X114300000Y-64008000D03*
G04 #@! TD*
G04 #@! TO.P,TP45,1*
G04 #@! TO.N,Net-(P2-Pad12)*
X116840000Y-64008000D03*
G04 #@! TD*
G04 #@! TO.P,TP44,1*
G04 #@! TO.N,Net-(P2-Pad8)*
X119380000Y-64008000D03*
G04 #@! TD*
G04 #@! TO.P,TP43,1*
G04 #@! TO.N,Net-(P2-Pad4)*
X121920000Y-64008000D03*
G04 #@! TD*
G04 #@! TO.P,TP42,1*
G04 #@! TO.N,Net-(P2-Pad35)*
X101600000Y-70358000D03*
G04 #@! TD*
G04 #@! TO.P,TP41,1*
G04 #@! TO.N,Net-(P2-Pad31)*
X104140000Y-70358000D03*
G04 #@! TD*
G04 #@! TO.P,TP40,1*
G04 #@! TO.N,Net-(P2-Pad27)*
X106680000Y-70358000D03*
G04 #@! TD*
G04 #@! TO.P,TP39,1*
G04 #@! TO.N,Net-(P2-Pad23)*
X109220000Y-70358000D03*
G04 #@! TD*
G04 #@! TO.P,TP37,1*
G04 #@! TO.N,Net-(P2-Pad15)*
X114300000Y-70358000D03*
G04 #@! TD*
G04 #@! TO.P,TP36,1*
G04 #@! TO.N,Net-(P2-Pad11)*
X116840000Y-70358000D03*
G04 #@! TD*
G04 #@! TO.P,TP35,1*
G04 #@! TO.N,Net-(P2-Pad7)*
X119380000Y-70358000D03*
G04 #@! TD*
G04 #@! TO.P,TP34,1*
G04 #@! TO.N,Net-(P2-Pad3)*
X121920000Y-70358000D03*
G04 #@! TD*
G04 #@! TO.P,TP51,1*
G04 #@! TO.N,Net-(P2-Pad36)*
X101600000Y-64008000D03*
G04 #@! TD*
G04 #@! TO.P,TP26,1*
G04 #@! TO.N,+3V3*
X99706017Y-102651027D03*
G04 #@! TD*
G04 #@! TO.P,TP18,1*
G04 #@! TO.N,GNDA*
X124460000Y-102651027D03*
G04 #@! TD*
G04 #@! TO.P,TP17,1*
G04 #@! TO.N,/D0_MCU_RX*
X101600000Y-137541000D03*
G04 #@! TD*
G04 #@! TO.P,TP16,1*
G04 #@! TO.N,/D2_NRST*
X104140000Y-137541000D03*
G04 #@! TD*
G04 #@! TO.P,TP15,1*
G04 #@! TO.N,Net-(P1-Pad28)*
X106680000Y-137541000D03*
G04 #@! TD*
G04 #@! TO.P,TP14,1*
G04 #@! TO.N,/D6_BOOT0*
X109220000Y-137541000D03*
G04 #@! TD*
G04 #@! TO.P,TP13,1*
G04 #@! TO.N,Net-(P1-Pad20)*
X111760000Y-137541000D03*
G04 #@! TD*
G04 #@! TO.P,TP12,1*
G04 #@! TO.N,Net-(P1-Pad16)*
X114300000Y-137541000D03*
G04 #@! TD*
G04 #@! TO.P,TP11,1*
G04 #@! TO.N,Net-(P1-Pad12)*
X116840000Y-137541000D03*
G04 #@! TD*
G04 #@! TO.P,TP10,1*
G04 #@! TO.N,Net-(P1-Pad8)*
X119380000Y-137541000D03*
G04 #@! TD*
G04 #@! TO.P,TP9,1*
G04 #@! TO.N,/D1_MCU_TX*
X101600000Y-143891000D03*
G04 #@! TD*
G04 #@! TO.P,TP8,1*
G04 #@! TO.N,/D3_MCU_PC0*
X104140000Y-143891000D03*
G04 #@! TD*
G04 #@! TO.P,TP7,1*
G04 #@! TO.N,Net-(P1-Pad27)*
X106680000Y-143891000D03*
G04 #@! TD*
G04 #@! TO.P,TP6,1*
G04 #@! TO.N,/D7_BOOT1*
X109220000Y-143891000D03*
G04 #@! TD*
G04 #@! TO.P,TP5,1*
G04 #@! TO.N,Net-(P1-Pad19)*
X111760000Y-143891000D03*
G04 #@! TD*
G04 #@! TO.P,TP4,1*
G04 #@! TO.N,Net-(P1-Pad15)*
X114300000Y-143891000D03*
G04 #@! TD*
G04 #@! TO.P,TP3,1*
G04 #@! TO.N,Net-(P1-Pad11)*
X116840000Y-143891000D03*
G04 #@! TD*
G04 #@! TO.P,TP2,1*
G04 #@! TO.N,Net-(P1-Pad7)*
X119380000Y-143891000D03*
G04 #@! TD*
G04 #@! TO.P,TP1,1*
G04 #@! TO.N,Net-(P1-Pad4)*
X124460000Y-137541000D03*
G04 #@! TD*
D15*
G04 #@! TO.N,GNDA*
X124551017Y-132211027D03*
X124451017Y-104911027D03*
G04 #@! TO.N,Net-(P1-Pad7)*
X116951017Y-147611027D03*
G04 #@! TO.N,Net-(P1-Pad19)*
X112151017Y-147611027D03*
G04 #@! TO.N,Net-(P1-Pad11)*
X115351017Y-147611027D03*
G04 #@! TO.N,Net-(P1-Pad15)*
X113751017Y-147611027D03*
G04 #@! TO.N,Net-(P1-Pad27)*
X108951017Y-147611027D03*
G04 #@! TO.N,Net-(P1-Pad28)*
X108951017Y-142011027D03*
G04 #@! TO.N,Net-(P1-Pad8)*
X116951017Y-142011027D03*
G04 #@! TO.N,Net-(P1-Pad4)*
X118551017Y-142011027D03*
G04 #@! TO.N,Net-(P1-Pad16)*
X113751017Y-142011027D03*
G04 #@! TO.N,Net-(P1-Pad12)*
X115351017Y-142011027D03*
G04 #@! TO.N,Net-(P1-Pad20)*
X112151017Y-142011027D03*
G04 #@! TO.N,+3V3*
X104151017Y-127761027D03*
X108401035Y-116011027D03*
G04 #@! TO.N,Net-(P2-Pad36)*
X105751017Y-60211027D03*
G04 #@! TO.N,Net-(P2-Pad32)*
X107351017Y-60211027D03*
G04 #@! TO.N,Net-(P2-Pad35)*
X105751017Y-66011027D03*
G04 #@! TO.N,Net-(P2-Pad31)*
X107351017Y-66011027D03*
G04 #@! TO.N,Net-(P2-Pad20)*
X112151017Y-60211027D03*
G04 #@! TO.N,Net-(P2-Pad24)*
X110551017Y-60211027D03*
G04 #@! TO.N,Net-(P2-Pad12)*
X115351017Y-60211027D03*
G04 #@! TO.N,Net-(P2-Pad16)*
X113751017Y-60211027D03*
G04 #@! TO.N,Net-(P2-Pad4)*
X118551017Y-60211027D03*
G04 #@! TO.N,Net-(P2-Pad8)*
X116951017Y-60211027D03*
G04 #@! TO.N,Net-(P2-Pad28)*
X108951017Y-60211027D03*
G04 #@! TO.N,Net-(P2-Pad27)*
X108951017Y-66011027D03*
G04 #@! TO.N,Net-(P2-Pad23)*
X110551017Y-66011027D03*
G04 #@! TO.N,Net-(P2-Pad15)*
X113751017Y-66011027D03*
G04 #@! TO.N,Net-(P2-Pad11)*
X115351017Y-66011027D03*
G04 #@! TO.N,Net-(P2-Pad19)*
X112151017Y-66011027D03*
G04 #@! TO.N,Net-(P2-Pad7)*
X116951017Y-66011027D03*
G04 #@! TO.N,Net-(P2-Pad3)*
X118551017Y-66011027D03*
G04 #@! TO.N,/D0_MCU_RX*
X105751017Y-142011027D03*
G04 #@! TO.N,/D2_NRST*
X107351017Y-142011027D03*
X106901017Y-127761027D03*
G04 #@! TO.N,/D1_MCU_TX*
X105751017Y-147611027D03*
X103151017Y-129011027D03*
X101651017Y-129011027D03*
G04 #@! TO.N,/D3_MCU_PC0*
X107351017Y-147611027D03*
X99851017Y-132111027D03*
G04 #@! TO.N,/D6_BOOT0*
X110551017Y-142011027D03*
G04 #@! TO.N,/D7_BOOT1*
X110551017Y-147611027D03*
G04 #@! TD*
D16*
G04 #@! TO.N,GNDA*
X124460000Y-132120010D02*
X124551017Y-132211027D01*
X125209999Y-131552045D02*
X124951016Y-131811028D01*
X125209999Y-116170009D02*
X125209999Y-131552045D01*
X124951016Y-131811028D02*
X124551017Y-132211027D01*
X123801017Y-114761027D02*
X125209999Y-116170009D01*
D17*
X113301018Y-106961026D02*
X113901017Y-106361027D01*
D16*
X112901017Y-107361027D02*
X113901017Y-106361027D01*
X107851017Y-107361027D02*
X112901017Y-107361027D01*
X104501017Y-114761027D02*
X104501017Y-110711027D01*
X104501017Y-110711027D02*
X107851017Y-107361027D01*
X117249545Y-107361027D02*
X123801017Y-113912499D01*
X123801017Y-113912499D02*
X123801017Y-114761027D01*
X113901017Y-106361027D02*
X114901017Y-107361027D01*
X114901017Y-107361027D02*
X117249545Y-107361027D01*
X124460000Y-102651027D02*
X124460000Y-104902044D01*
X124460000Y-104902044D02*
X124451017Y-104911027D01*
G04 #@! TO.N,Net-(P1-Pad7)*
X116951017Y-146319983D02*
X119380000Y-143891000D01*
X116951017Y-147611027D02*
X116951017Y-146319983D01*
G04 #@! TO.N,Net-(P1-Pad19)*
X112151017Y-144282017D02*
X111760000Y-143891000D01*
X112151017Y-147611027D02*
X112151017Y-144282017D01*
G04 #@! TO.N,Net-(P1-Pad11)*
X115351017Y-145379983D02*
X116840000Y-143891000D01*
X115351017Y-147611027D02*
X115351017Y-145379983D01*
G04 #@! TO.N,Net-(P1-Pad15)*
X113751017Y-144439983D02*
X114300000Y-143891000D01*
X113751017Y-147611027D02*
X113751017Y-144439983D01*
G04 #@! TO.N,Net-(P1-Pad27)*
X108951017Y-146162017D02*
X106680000Y-143891000D01*
X108951017Y-147611027D02*
X108951017Y-146162017D01*
G04 #@! TO.N,Net-(P1-Pad28)*
X108951017Y-139812017D02*
X106680000Y-137541000D01*
X108951017Y-142011027D02*
X108951017Y-139812017D01*
G04 #@! TO.N,Net-(P1-Pad8)*
X116951017Y-139969983D02*
X119380000Y-137541000D01*
X116951017Y-142011027D02*
X116951017Y-139969983D01*
G04 #@! TO.N,Net-(P1-Pad4)*
X123021044Y-137541000D02*
X124460000Y-137541000D01*
X118551017Y-142011027D02*
X123021044Y-137541000D01*
G04 #@! TO.N,Net-(P1-Pad16)*
X113751017Y-138089983D02*
X114300000Y-137541000D01*
X113751017Y-142011027D02*
X113751017Y-138089983D01*
G04 #@! TO.N,Net-(P1-Pad12)*
X115351017Y-139029983D02*
X116840000Y-137541000D01*
X115351017Y-142011027D02*
X115351017Y-139029983D01*
G04 #@! TO.N,Net-(P1-Pad20)*
X112151017Y-137932017D02*
X111760000Y-137541000D01*
X112151017Y-142011027D02*
X112151017Y-137932017D01*
G04 #@! TO.N,+3V3*
X108401017Y-116011045D02*
X108401035Y-116011027D01*
X108401017Y-127661027D02*
X108401017Y-116011045D01*
X100351017Y-114111027D02*
X100501017Y-114261027D01*
X99706017Y-102651027D02*
X100351017Y-103296027D01*
X100351017Y-103296027D02*
X100351017Y-114111027D01*
X104551016Y-128161026D02*
X104151017Y-127761027D01*
X105101017Y-128711027D02*
X104551016Y-128161026D01*
X108401017Y-127661027D02*
X107351017Y-128711027D01*
X107351017Y-128711027D02*
X105101017Y-128711027D01*
G04 #@! TO.N,Net-(P2-Pad36)*
X101954044Y-64008000D02*
X101600000Y-64008000D01*
X105751017Y-60211027D02*
X101954044Y-64008000D01*
G04 #@! TO.N,Net-(P2-Pad32)*
X107351017Y-60796983D02*
X104140000Y-64008000D01*
X107351017Y-60211027D02*
X107351017Y-60796983D01*
G04 #@! TO.N,Net-(P2-Pad35)*
X101600000Y-70162044D02*
X101600000Y-70358000D01*
X105751017Y-66011027D02*
X101600000Y-70162044D01*
G04 #@! TO.N,Net-(P2-Pad31)*
X107351017Y-67146983D02*
X104140000Y-70358000D01*
X107351017Y-66011027D02*
X107351017Y-67146983D01*
G04 #@! TO.N,Net-(P2-Pad20)*
X112151017Y-63616983D02*
X111760000Y-64008000D01*
X112151017Y-60211027D02*
X112151017Y-63616983D01*
G04 #@! TO.N,Net-(P2-Pad24)*
X110551017Y-62676983D02*
X109220000Y-64008000D01*
X110551017Y-60211027D02*
X110551017Y-62676983D01*
G04 #@! TO.N,Net-(P2-Pad12)*
X115351017Y-62519017D02*
X116840000Y-64008000D01*
X115351017Y-60211027D02*
X115351017Y-62519017D01*
G04 #@! TO.N,Net-(P2-Pad16)*
X113751017Y-63459017D02*
X114300000Y-64008000D01*
X113751017Y-60211027D02*
X113751017Y-63459017D01*
G04 #@! TO.N,Net-(P2-Pad4)*
X118551017Y-60639017D02*
X118551017Y-60211027D01*
X121920000Y-64008000D02*
X118551017Y-60639017D01*
G04 #@! TO.N,Net-(P2-Pad8)*
X116951017Y-61579017D02*
X119380000Y-64008000D01*
X116951017Y-60211027D02*
X116951017Y-61579017D01*
G04 #@! TO.N,Net-(P2-Pad28)*
X108951017Y-61736983D02*
X106680000Y-64008000D01*
X108951017Y-60211027D02*
X108951017Y-61736983D01*
G04 #@! TO.N,Net-(P2-Pad27)*
X108951017Y-68086983D02*
X106680000Y-70358000D01*
X108951017Y-66011027D02*
X108951017Y-68086983D01*
G04 #@! TO.N,Net-(P2-Pad23)*
X110551017Y-69026983D02*
X109220000Y-70358000D01*
X110551017Y-66011027D02*
X110551017Y-69026983D01*
G04 #@! TO.N,Net-(P2-Pad15)*
X113751017Y-69809017D02*
X114300000Y-70358000D01*
X113751017Y-66011027D02*
X113751017Y-69809017D01*
G04 #@! TO.N,Net-(P2-Pad11)*
X115351017Y-68869017D02*
X116840000Y-70358000D01*
X115351017Y-66011027D02*
X115351017Y-68869017D01*
G04 #@! TO.N,Net-(P2-Pad19)*
X112151017Y-69966983D02*
X111760000Y-70358000D01*
X112151017Y-66011027D02*
X112151017Y-69966983D01*
G04 #@! TO.N,Net-(P2-Pad7)*
X116951017Y-67929017D02*
X119380000Y-70358000D01*
X116951017Y-66011027D02*
X116951017Y-67929017D01*
G04 #@! TO.N,Net-(P2-Pad3)*
X118551017Y-66989017D02*
X121920000Y-70358000D01*
X118551017Y-66011027D02*
X118551017Y-66989017D01*
G04 #@! TO.N,/D0_MCU_RX*
X101600000Y-137860010D02*
X101600000Y-137541000D01*
X105751017Y-142011027D02*
X101600000Y-137860010D01*
G04 #@! TO.N,/D2_NRST*
X107351017Y-140752017D02*
X104140000Y-137541000D01*
X107351017Y-142011027D02*
X107351017Y-140752017D01*
D17*
X106901017Y-127195342D02*
X106901017Y-127761027D01*
X106901017Y-110811027D02*
X106901017Y-127195342D01*
X108351017Y-109361027D02*
X106901017Y-110811027D01*
X111401017Y-108361027D02*
X110401017Y-109361027D01*
X110401017Y-109361027D02*
X108351017Y-109361027D01*
D16*
G04 #@! TO.N,/D1_MCU_TX*
X102030990Y-143891000D02*
X101600000Y-143891000D01*
X105751017Y-147611027D02*
X102030990Y-143891000D01*
D17*
X99101017Y-131561027D02*
X101651017Y-129011027D01*
X101600000Y-143891000D02*
X99101017Y-141392017D01*
X99101017Y-141392017D02*
X99101017Y-131561027D01*
X103716702Y-129011027D02*
X103151017Y-129011027D01*
X103966702Y-129261027D02*
X103716702Y-129011027D01*
X107701017Y-129261027D02*
X103966702Y-129261027D01*
X108301017Y-128661027D02*
X107701017Y-129261027D01*
X111401017Y-127661027D02*
X110401017Y-128661027D01*
X110401017Y-128661027D02*
X108301017Y-128661027D01*
D16*
G04 #@! TO.N,/D3_MCU_PC0*
X107351017Y-147102017D02*
X107351017Y-147611027D01*
X104140000Y-143891000D02*
X107351017Y-147102017D01*
D17*
X104140000Y-143891000D02*
X103730990Y-143891000D01*
X103730990Y-143891000D02*
X99851017Y-140011027D01*
X99851017Y-140011027D02*
X99851017Y-132111027D01*
D16*
G04 #@! TO.N,/D6_BOOT0*
X110551017Y-138872017D02*
X109220000Y-137541000D01*
X110551017Y-142011027D02*
X110551017Y-138872017D01*
D17*
X108470001Y-136791001D02*
X109220000Y-137541000D01*
X102401017Y-130722017D02*
X108470001Y-136791001D01*
X102401017Y-125761027D02*
X102401017Y-130722017D01*
X105651017Y-122511027D02*
X102401017Y-125761027D01*
X104501017Y-116261027D02*
X105651017Y-117411027D01*
X105651017Y-117411027D02*
X105651017Y-122511027D01*
D16*
G04 #@! TO.N,/D7_BOOT1*
X110551017Y-145222017D02*
X109220000Y-143891000D01*
X110551017Y-147611027D02*
X110551017Y-145222017D01*
G04 #@! TD*
M02*
