M48
;DRILL file {KiCad 5.0.2-bee76a0~70~ubuntu18.04.1} date mar. 23 juil. 2019 10:59:55 CEST
;FORMAT={-:-/ absolute / inch / decimal}
FMAT,2
INCH,TZ
T1C0.0157
T2C0.0276
T3C0.0315
T4C0.0394
T5C0.0630
T6C0.1280
%
G90
G05
T1
X2.18Y-3.9
T2
X1.9913Y-4.3524
X1.9913Y-4.4114
X1.9913Y-4.4705
X1.9913Y-4.5295
X1.9913Y-4.5886
X1.9913Y-4.6476
X2.0701Y-4.3917
X2.0701Y-4.4508
X2.0701Y-4.5098
X2.0701Y-4.5689
X2.0701Y-4.628
X2.1488Y-4.372
X2.1488Y-4.4311
X2.1488Y-4.4902
X2.1488Y-4.5492
X2.1488Y-4.6083
X2.3024Y-4.1201
X2.3024Y-4.8799
X2.322Y-4.1988
X2.322Y-4.9587
X2.3417Y-4.0413
X2.3417Y-4.8012
X2.3614Y-4.1201
X2.3614Y-4.8799
X2.3811Y-4.1988
X2.3811Y-4.9587
X2.4008Y-4.0413
X2.4008Y-4.8012
X2.4205Y-4.1201
X2.4205Y-4.8799
X2.4402Y-4.1988
X2.4402Y-4.9587
X2.4598Y-4.0413
X2.4598Y-4.8012
X2.4795Y-4.1201
X2.4795Y-4.8799
X2.4992Y-4.1988
X2.4992Y-4.9587
X2.5189Y-4.0413
X2.5189Y-4.8012
X2.5386Y-4.1201
X2.5386Y-4.8799
X2.5583Y-4.1988
X2.5583Y-4.9587
X2.578Y-4.0413
X2.578Y-4.8012
X2.5976Y-4.1201
X2.5976Y-4.8799
X2.7512Y-4.3524
X2.7512Y-4.4114
X2.7512Y-4.4705
X2.7512Y-4.5295
X2.7512Y-4.5886
X2.7512Y-4.6476
X2.8299Y-4.3917
X2.8299Y-4.4508
X2.8299Y-4.5098
X2.8299Y-4.5689
X2.8299Y-4.628
X2.9087Y-4.372
X2.9087Y-4.4311
X2.9087Y-4.4902
X2.9087Y-4.5492
X2.9087Y-4.6083
T3
X2.0821Y-3.75
X2.275Y-3.75
T4
X2.Y-6.
X2.Y-6.1
X2.1Y-6.
X2.1Y-6.1
X2.2Y-6.
X2.2Y-6.1
X2.3Y-6.
X2.3Y-6.1
X2.4Y-6.
X2.4Y-6.1
X2.5Y-6.
X2.5Y-6.1
X2.6Y-6.
X2.6Y-6.1
X2.7Y-6.
X2.7Y-6.1
X2.8Y-6.
X2.8Y-6.1
X2.9Y-6.
X2.9Y-6.1
X2.Y-2.9
X2.Y-3.
X2.1Y-2.9
X2.1Y-3.
X2.2Y-2.9
X2.2Y-3.
X2.3Y-2.9
X2.3Y-3.
X2.4Y-2.9
X2.4Y-3.
X2.5Y-2.9
X2.5Y-3.
X2.6Y-2.9
X2.6Y-3.
X2.7Y-2.9
X2.7Y-3.
X2.8Y-2.9
X2.8Y-3.
X2.9Y-2.9
X2.9Y-3.
T5
X2.1862Y-4.7638
X2.7138Y-4.2362
T6
X2.45Y-4.5
T0
M30
