G04 #@! TF.GenerationSoftware,KiCad,Pcbnew,5.0.2-bee76a0~70~ubuntu18.04.1*
G04 #@! TF.CreationDate,2019-07-23T10:59:54+02:00*
G04 #@! TF.ProjectId,stm32f205,73746d33-3266-4323-9035-2e6b69636164,rev?*
G04 #@! TF.SameCoordinates,Original*
G04 #@! TF.FileFunction,Legend,Top*
G04 #@! TF.FilePolarity,Positive*
%FSLAX46Y46*%
G04 Gerber Fmt 4.6, Leading zero omitted, Abs format (unit mm)*
G04 Created by KiCad (PCBNEW 5.0.2-bee76a0~70~ubuntu18.04.1) date mar. 23 juil. 2019 10:59:54 CEST*
%MOMM*%
%LPD*%
G01*
G04 APERTURE LIST*
%ADD10C,0.300000*%
%ADD11C,0.150000*%
%ADD12C,0.120000*%
%ADD13C,0.010000*%
G04 APERTURE END LIST*
D10*
X47672571Y-101008571D02*
X46815428Y-101008571D01*
X47244000Y-101008571D02*
X47244000Y-99508571D01*
X47101142Y-99722857D01*
X46958285Y-99865714D01*
X46815428Y-99937142D01*
D11*
X73249285Y-150961071D02*
X73999285Y-150711071D01*
X73249285Y-150461071D01*
X73999285Y-150211071D02*
X73249285Y-150211071D01*
X73249285Y-150032500D01*
X73285000Y-149925357D01*
X73356428Y-149853928D01*
X73427857Y-149818214D01*
X73570714Y-149782500D01*
X73677857Y-149782500D01*
X73820714Y-149818214D01*
X73892142Y-149853928D01*
X73963571Y-149925357D01*
X73999285Y-150032500D01*
X73999285Y-150211071D01*
X73999285Y-149461071D02*
X73249285Y-149461071D01*
X73249285Y-149282500D01*
X73285000Y-149175357D01*
X73356428Y-149103928D01*
X73427857Y-149068214D01*
X73570714Y-149032500D01*
X73677857Y-149032500D01*
X73820714Y-149068214D01*
X73892142Y-149103928D01*
X73963571Y-149175357D01*
X73999285Y-149282500D01*
X73999285Y-149461071D01*
X73785000Y-148746785D02*
X73785000Y-148389642D01*
X73999285Y-148818214D02*
X73249285Y-148568214D01*
X73999285Y-148318214D01*
X70709285Y-150961071D02*
X71459285Y-150711071D01*
X70709285Y-150461071D01*
X71459285Y-150211071D02*
X70709285Y-150211071D01*
X70709285Y-150032500D01*
X70745000Y-149925357D01*
X70816428Y-149853928D01*
X70887857Y-149818214D01*
X71030714Y-149782500D01*
X71137857Y-149782500D01*
X71280714Y-149818214D01*
X71352142Y-149853928D01*
X71423571Y-149925357D01*
X71459285Y-150032500D01*
X71459285Y-150211071D01*
X71459285Y-149461071D02*
X70709285Y-149461071D01*
X70709285Y-149282500D01*
X70745000Y-149175357D01*
X70816428Y-149103928D01*
X70887857Y-149068214D01*
X71030714Y-149032500D01*
X71137857Y-149032500D01*
X71280714Y-149068214D01*
X71352142Y-149103928D01*
X71423571Y-149175357D01*
X71459285Y-149282500D01*
X71459285Y-149461071D01*
X68919285Y-150853928D02*
X68169285Y-150853928D01*
X68169285Y-150675357D01*
X68205000Y-150568214D01*
X68276428Y-150496785D01*
X68347857Y-150461071D01*
X68490714Y-150425357D01*
X68597857Y-150425357D01*
X68740714Y-150461071D01*
X68812142Y-150496785D01*
X68883571Y-150568214D01*
X68919285Y-150675357D01*
X68919285Y-150853928D01*
X68919285Y-149711071D02*
X68919285Y-150139642D01*
X68919285Y-149925357D02*
X68169285Y-149925357D01*
X68276428Y-149996785D01*
X68347857Y-150068214D01*
X68383571Y-150139642D01*
X68419285Y-149068214D02*
X68919285Y-149068214D01*
X68133571Y-149246785D02*
X68669285Y-149425357D01*
X68669285Y-148961071D01*
X66379285Y-150853928D02*
X65629285Y-150853928D01*
X65629285Y-150675357D01*
X65665000Y-150568214D01*
X65736428Y-150496785D01*
X65807857Y-150461071D01*
X65950714Y-150425357D01*
X66057857Y-150425357D01*
X66200714Y-150461071D01*
X66272142Y-150496785D01*
X66343571Y-150568214D01*
X66379285Y-150675357D01*
X66379285Y-150853928D01*
X66379285Y-149711071D02*
X66379285Y-150139642D01*
X66379285Y-149925357D02*
X65629285Y-149925357D01*
X65736428Y-149996785D01*
X65807857Y-150068214D01*
X65843571Y-150139642D01*
X65700714Y-149425357D02*
X65665000Y-149389642D01*
X65629285Y-149318214D01*
X65629285Y-149139642D01*
X65665000Y-149068214D01*
X65700714Y-149032500D01*
X65772142Y-148996785D01*
X65843571Y-148996785D01*
X65950714Y-149032500D01*
X66379285Y-149461071D01*
X66379285Y-148996785D01*
X63839285Y-150853928D02*
X63089285Y-150853928D01*
X63089285Y-150675357D01*
X63125000Y-150568214D01*
X63196428Y-150496785D01*
X63267857Y-150461071D01*
X63410714Y-150425357D01*
X63517857Y-150425357D01*
X63660714Y-150461071D01*
X63732142Y-150496785D01*
X63803571Y-150568214D01*
X63839285Y-150675357D01*
X63839285Y-150853928D01*
X63839285Y-149711071D02*
X63839285Y-150139642D01*
X63839285Y-149925357D02*
X63089285Y-149925357D01*
X63196428Y-149996785D01*
X63267857Y-150068214D01*
X63303571Y-150139642D01*
X63089285Y-149246785D02*
X63089285Y-149175357D01*
X63125000Y-149103928D01*
X63160714Y-149068214D01*
X63232142Y-149032500D01*
X63375000Y-148996785D01*
X63553571Y-148996785D01*
X63696428Y-149032500D01*
X63767857Y-149068214D01*
X63803571Y-149103928D01*
X63839285Y-149175357D01*
X63839285Y-149246785D01*
X63803571Y-149318214D01*
X63767857Y-149353928D01*
X63696428Y-149389642D01*
X63553571Y-149425357D01*
X63375000Y-149425357D01*
X63232142Y-149389642D01*
X63160714Y-149353928D01*
X63125000Y-149318214D01*
X63089285Y-149246785D01*
X61299285Y-150853928D02*
X60549285Y-150853928D01*
X60549285Y-150675357D01*
X60585000Y-150568214D01*
X60656428Y-150496785D01*
X60727857Y-150461071D01*
X60870714Y-150425357D01*
X60977857Y-150425357D01*
X61120714Y-150461071D01*
X61192142Y-150496785D01*
X61263571Y-150568214D01*
X61299285Y-150675357D01*
X61299285Y-150853928D01*
X60870714Y-149996785D02*
X60835000Y-150068214D01*
X60799285Y-150103928D01*
X60727857Y-150139642D01*
X60692142Y-150139642D01*
X60620714Y-150103928D01*
X60585000Y-150068214D01*
X60549285Y-149996785D01*
X60549285Y-149853928D01*
X60585000Y-149782500D01*
X60620714Y-149746785D01*
X60692142Y-149711071D01*
X60727857Y-149711071D01*
X60799285Y-149746785D01*
X60835000Y-149782500D01*
X60870714Y-149853928D01*
X60870714Y-149996785D01*
X60906428Y-150068214D01*
X60942142Y-150103928D01*
X61013571Y-150139642D01*
X61156428Y-150139642D01*
X61227857Y-150103928D01*
X61263571Y-150068214D01*
X61299285Y-149996785D01*
X61299285Y-149853928D01*
X61263571Y-149782500D01*
X61227857Y-149746785D01*
X61156428Y-149711071D01*
X61013571Y-149711071D01*
X60942142Y-149746785D01*
X60906428Y-149782500D01*
X60870714Y-149853928D01*
X58759285Y-150853928D02*
X58009285Y-150853928D01*
X58009285Y-150675357D01*
X58045000Y-150568214D01*
X58116428Y-150496785D01*
X58187857Y-150461071D01*
X58330714Y-150425357D01*
X58437857Y-150425357D01*
X58580714Y-150461071D01*
X58652142Y-150496785D01*
X58723571Y-150568214D01*
X58759285Y-150675357D01*
X58759285Y-150853928D01*
X58009285Y-149782500D02*
X58009285Y-149925357D01*
X58045000Y-149996785D01*
X58080714Y-150032500D01*
X58187857Y-150103928D01*
X58330714Y-150139642D01*
X58616428Y-150139642D01*
X58687857Y-150103928D01*
X58723571Y-150068214D01*
X58759285Y-149996785D01*
X58759285Y-149853928D01*
X58723571Y-149782500D01*
X58687857Y-149746785D01*
X58616428Y-149711071D01*
X58437857Y-149711071D01*
X58366428Y-149746785D01*
X58330714Y-149782500D01*
X58295000Y-149853928D01*
X58295000Y-149996785D01*
X58330714Y-150068214D01*
X58366428Y-150103928D01*
X58437857Y-150139642D01*
X56219285Y-150853928D02*
X55469285Y-150853928D01*
X55469285Y-150675357D01*
X55505000Y-150568214D01*
X55576428Y-150496785D01*
X55647857Y-150461071D01*
X55790714Y-150425357D01*
X55897857Y-150425357D01*
X56040714Y-150461071D01*
X56112142Y-150496785D01*
X56183571Y-150568214D01*
X56219285Y-150675357D01*
X56219285Y-150853928D01*
X55719285Y-149782500D02*
X56219285Y-149782500D01*
X55433571Y-149961071D02*
X55969285Y-150139642D01*
X55969285Y-149675357D01*
X53679285Y-150853928D02*
X52929285Y-150853928D01*
X52929285Y-150675357D01*
X52965000Y-150568214D01*
X53036428Y-150496785D01*
X53107857Y-150461071D01*
X53250714Y-150425357D01*
X53357857Y-150425357D01*
X53500714Y-150461071D01*
X53572142Y-150496785D01*
X53643571Y-150568214D01*
X53679285Y-150675357D01*
X53679285Y-150853928D01*
X53000714Y-150139642D02*
X52965000Y-150103928D01*
X52929285Y-150032500D01*
X52929285Y-149853928D01*
X52965000Y-149782500D01*
X53000714Y-149746785D01*
X53072142Y-149711071D01*
X53143571Y-149711071D01*
X53250714Y-149746785D01*
X53679285Y-150175357D01*
X53679285Y-149711071D01*
X51139285Y-150853928D02*
X50389285Y-150853928D01*
X50389285Y-150675357D01*
X50425000Y-150568214D01*
X50496428Y-150496785D01*
X50567857Y-150461071D01*
X50710714Y-150425357D01*
X50817857Y-150425357D01*
X50960714Y-150461071D01*
X51032142Y-150496785D01*
X51103571Y-150568214D01*
X51139285Y-150675357D01*
X51139285Y-150853928D01*
X50389285Y-149961071D02*
X50389285Y-149889642D01*
X50425000Y-149818214D01*
X50460714Y-149782500D01*
X50532142Y-149746785D01*
X50675000Y-149711071D01*
X50853571Y-149711071D01*
X50996428Y-149746785D01*
X51067857Y-149782500D01*
X51103571Y-149818214D01*
X51139285Y-149889642D01*
X51139285Y-149961071D01*
X51103571Y-150032500D01*
X51067857Y-150068214D01*
X50996428Y-150103928D01*
X50853571Y-150139642D01*
X50675000Y-150139642D01*
X50532142Y-150103928D01*
X50460714Y-150068214D01*
X50425000Y-150032500D01*
X50389285Y-149961071D01*
X51139285Y-157593214D02*
X50389285Y-157593214D01*
X50389285Y-157414642D01*
X50425000Y-157307500D01*
X50496428Y-157236071D01*
X50567857Y-157200357D01*
X50710714Y-157164642D01*
X50817857Y-157164642D01*
X50960714Y-157200357D01*
X51032142Y-157236071D01*
X51103571Y-157307500D01*
X51139285Y-157414642D01*
X51139285Y-157593214D01*
X51139285Y-156450357D02*
X51139285Y-156878928D01*
X51139285Y-156664642D02*
X50389285Y-156664642D01*
X50496428Y-156736071D01*
X50567857Y-156807500D01*
X50603571Y-156878928D01*
X53679285Y-157593214D02*
X52929285Y-157593214D01*
X52929285Y-157414642D01*
X52965000Y-157307500D01*
X53036428Y-157236071D01*
X53107857Y-157200357D01*
X53250714Y-157164642D01*
X53357857Y-157164642D01*
X53500714Y-157200357D01*
X53572142Y-157236071D01*
X53643571Y-157307500D01*
X53679285Y-157414642D01*
X53679285Y-157593214D01*
X52929285Y-156914642D02*
X52929285Y-156450357D01*
X53215000Y-156700357D01*
X53215000Y-156593214D01*
X53250714Y-156521785D01*
X53286428Y-156486071D01*
X53357857Y-156450357D01*
X53536428Y-156450357D01*
X53607857Y-156486071D01*
X53643571Y-156521785D01*
X53679285Y-156593214D01*
X53679285Y-156807500D01*
X53643571Y-156878928D01*
X53607857Y-156914642D01*
X56219285Y-157593214D02*
X55469285Y-157593214D01*
X55469285Y-157414642D01*
X55505000Y-157307500D01*
X55576428Y-157236071D01*
X55647857Y-157200357D01*
X55790714Y-157164642D01*
X55897857Y-157164642D01*
X56040714Y-157200357D01*
X56112142Y-157236071D01*
X56183571Y-157307500D01*
X56219285Y-157414642D01*
X56219285Y-157593214D01*
X55469285Y-156486071D02*
X55469285Y-156843214D01*
X55826428Y-156878928D01*
X55790714Y-156843214D01*
X55755000Y-156771785D01*
X55755000Y-156593214D01*
X55790714Y-156521785D01*
X55826428Y-156486071D01*
X55897857Y-156450357D01*
X56076428Y-156450357D01*
X56147857Y-156486071D01*
X56183571Y-156521785D01*
X56219285Y-156593214D01*
X56219285Y-156771785D01*
X56183571Y-156843214D01*
X56147857Y-156878928D01*
X58759285Y-157593214D02*
X58009285Y-157593214D01*
X58009285Y-157414642D01*
X58045000Y-157307500D01*
X58116428Y-157236071D01*
X58187857Y-157200357D01*
X58330714Y-157164642D01*
X58437857Y-157164642D01*
X58580714Y-157200357D01*
X58652142Y-157236071D01*
X58723571Y-157307500D01*
X58759285Y-157414642D01*
X58759285Y-157593214D01*
X58009285Y-156914642D02*
X58009285Y-156414642D01*
X58759285Y-156736071D01*
X61299285Y-157593214D02*
X60549285Y-157593214D01*
X60549285Y-157414642D01*
X60585000Y-157307500D01*
X60656428Y-157236071D01*
X60727857Y-157200357D01*
X60870714Y-157164642D01*
X60977857Y-157164642D01*
X61120714Y-157200357D01*
X61192142Y-157236071D01*
X61263571Y-157307500D01*
X61299285Y-157414642D01*
X61299285Y-157593214D01*
X61299285Y-156807500D02*
X61299285Y-156664642D01*
X61263571Y-156593214D01*
X61227857Y-156557500D01*
X61120714Y-156486071D01*
X60977857Y-156450357D01*
X60692142Y-156450357D01*
X60620714Y-156486071D01*
X60585000Y-156521785D01*
X60549285Y-156593214D01*
X60549285Y-156736071D01*
X60585000Y-156807500D01*
X60620714Y-156843214D01*
X60692142Y-156878928D01*
X60870714Y-156878928D01*
X60942142Y-156843214D01*
X60977857Y-156807500D01*
X61013571Y-156736071D01*
X61013571Y-156593214D01*
X60977857Y-156521785D01*
X60942142Y-156486071D01*
X60870714Y-156450357D01*
X63839285Y-158307500D02*
X63089285Y-158307500D01*
X63089285Y-158128928D01*
X63125000Y-158021785D01*
X63196428Y-157950357D01*
X63267857Y-157914642D01*
X63410714Y-157878928D01*
X63517857Y-157878928D01*
X63660714Y-157914642D01*
X63732142Y-157950357D01*
X63803571Y-158021785D01*
X63839285Y-158128928D01*
X63839285Y-158307500D01*
X63839285Y-157164642D02*
X63839285Y-157593214D01*
X63839285Y-157378928D02*
X63089285Y-157378928D01*
X63196428Y-157450357D01*
X63267857Y-157521785D01*
X63303571Y-157593214D01*
X63839285Y-156450357D02*
X63839285Y-156878928D01*
X63839285Y-156664642D02*
X63089285Y-156664642D01*
X63196428Y-156736071D01*
X63267857Y-156807500D01*
X63303571Y-156878928D01*
X66379285Y-158307500D02*
X65629285Y-158307500D01*
X65629285Y-158128928D01*
X65665000Y-158021785D01*
X65736428Y-157950357D01*
X65807857Y-157914642D01*
X65950714Y-157878928D01*
X66057857Y-157878928D01*
X66200714Y-157914642D01*
X66272142Y-157950357D01*
X66343571Y-158021785D01*
X66379285Y-158128928D01*
X66379285Y-158307500D01*
X66379285Y-157164642D02*
X66379285Y-157593214D01*
X66379285Y-157378928D02*
X65629285Y-157378928D01*
X65736428Y-157450357D01*
X65807857Y-157521785D01*
X65843571Y-157593214D01*
X65629285Y-156914642D02*
X65629285Y-156450357D01*
X65915000Y-156700357D01*
X65915000Y-156593214D01*
X65950714Y-156521785D01*
X65986428Y-156486071D01*
X66057857Y-156450357D01*
X66236428Y-156450357D01*
X66307857Y-156486071D01*
X66343571Y-156521785D01*
X66379285Y-156593214D01*
X66379285Y-156807500D01*
X66343571Y-156878928D01*
X66307857Y-156914642D01*
X68919285Y-158307500D02*
X68169285Y-158307500D01*
X68169285Y-158128928D01*
X68205000Y-158021785D01*
X68276428Y-157950357D01*
X68347857Y-157914642D01*
X68490714Y-157878928D01*
X68597857Y-157878928D01*
X68740714Y-157914642D01*
X68812142Y-157950357D01*
X68883571Y-158021785D01*
X68919285Y-158128928D01*
X68919285Y-158307500D01*
X68919285Y-157164642D02*
X68919285Y-157593214D01*
X68919285Y-157378928D02*
X68169285Y-157378928D01*
X68276428Y-157450357D01*
X68347857Y-157521785D01*
X68383571Y-157593214D01*
X68169285Y-156486071D02*
X68169285Y-156843214D01*
X68526428Y-156878928D01*
X68490714Y-156843214D01*
X68455000Y-156771785D01*
X68455000Y-156593214D01*
X68490714Y-156521785D01*
X68526428Y-156486071D01*
X68597857Y-156450357D01*
X68776428Y-156450357D01*
X68847857Y-156486071D01*
X68883571Y-156521785D01*
X68919285Y-156593214D01*
X68919285Y-156771785D01*
X68883571Y-156843214D01*
X68847857Y-156878928D01*
X70745000Y-158021785D02*
X70709285Y-158093214D01*
X70709285Y-158200357D01*
X70745000Y-158307500D01*
X70816428Y-158378928D01*
X70887857Y-158414642D01*
X71030714Y-158450357D01*
X71137857Y-158450357D01*
X71280714Y-158414642D01*
X71352142Y-158378928D01*
X71423571Y-158307500D01*
X71459285Y-158200357D01*
X71459285Y-158128928D01*
X71423571Y-158021785D01*
X71387857Y-157986071D01*
X71137857Y-157986071D01*
X71137857Y-158128928D01*
X71459285Y-157664642D02*
X70709285Y-157664642D01*
X71459285Y-157236071D01*
X70709285Y-157236071D01*
X71459285Y-156878928D02*
X70709285Y-156878928D01*
X70709285Y-156700357D01*
X70745000Y-156593214D01*
X70816428Y-156521785D01*
X70887857Y-156486071D01*
X71030714Y-156450357D01*
X71137857Y-156450357D01*
X71280714Y-156486071D01*
X71352142Y-156521785D01*
X71423571Y-156593214D01*
X71459285Y-156700357D01*
X71459285Y-156878928D01*
X73285000Y-158664642D02*
X73249285Y-158736071D01*
X73249285Y-158843214D01*
X73285000Y-158950357D01*
X73356428Y-159021785D01*
X73427857Y-159057500D01*
X73570714Y-159093214D01*
X73677857Y-159093214D01*
X73820714Y-159057500D01*
X73892142Y-159021785D01*
X73963571Y-158950357D01*
X73999285Y-158843214D01*
X73999285Y-158771785D01*
X73963571Y-158664642D01*
X73927857Y-158628928D01*
X73677857Y-158628928D01*
X73677857Y-158771785D01*
X73999285Y-158307500D02*
X73249285Y-158307500D01*
X73999285Y-157878928D01*
X73249285Y-157878928D01*
X73999285Y-157521785D02*
X73249285Y-157521785D01*
X73249285Y-157343214D01*
X73285000Y-157236071D01*
X73356428Y-157164642D01*
X73427857Y-157128928D01*
X73570714Y-157093214D01*
X73677857Y-157093214D01*
X73820714Y-157128928D01*
X73892142Y-157164642D01*
X73963571Y-157236071D01*
X73999285Y-157343214D01*
X73999285Y-157521785D01*
X73785000Y-156807500D02*
X73785000Y-156450357D01*
X73999285Y-156878928D02*
X73249285Y-156628928D01*
X73999285Y-156378928D01*
D10*
X47801428Y-80617142D02*
X48015714Y-80688571D01*
X48372857Y-80688571D01*
X48515714Y-80617142D01*
X48587142Y-80545714D01*
X48658571Y-80402857D01*
X48658571Y-80260000D01*
X48587142Y-80117142D01*
X48515714Y-80045714D01*
X48372857Y-79974285D01*
X48087142Y-79902857D01*
X47944285Y-79831428D01*
X47872857Y-79760000D01*
X47801428Y-79617142D01*
X47801428Y-79474285D01*
X47872857Y-79331428D01*
X47944285Y-79260000D01*
X48087142Y-79188571D01*
X48444285Y-79188571D01*
X48658571Y-79260000D01*
X49087142Y-79188571D02*
X49944285Y-79188571D01*
X49515714Y-80688571D02*
X49515714Y-79188571D01*
X50444285Y-80688571D02*
X50444285Y-79188571D01*
X50944285Y-80260000D01*
X51444285Y-79188571D01*
X51444285Y-80688571D01*
X52015714Y-79188571D02*
X52944285Y-79188571D01*
X52444285Y-79760000D01*
X52658571Y-79760000D01*
X52801428Y-79831428D01*
X52872857Y-79902857D01*
X52944285Y-80045714D01*
X52944285Y-80402857D01*
X52872857Y-80545714D01*
X52801428Y-80617142D01*
X52658571Y-80688571D01*
X52230000Y-80688571D01*
X52087142Y-80617142D01*
X52015714Y-80545714D01*
X53515714Y-79331428D02*
X53587142Y-79260000D01*
X53730000Y-79188571D01*
X54087142Y-79188571D01*
X54230000Y-79260000D01*
X54301428Y-79331428D01*
X54372857Y-79474285D01*
X54372857Y-79617142D01*
X54301428Y-79831428D01*
X53444285Y-80688571D01*
X54372857Y-80688571D01*
X55515714Y-79902857D02*
X55015714Y-79902857D01*
X55015714Y-80688571D02*
X55015714Y-79188571D01*
X55730000Y-79188571D01*
X56230000Y-79331428D02*
X56301428Y-79260000D01*
X56444285Y-79188571D01*
X56801428Y-79188571D01*
X56944285Y-79260000D01*
X57015714Y-79331428D01*
X57087142Y-79474285D01*
X57087142Y-79617142D01*
X57015714Y-79831428D01*
X56158571Y-80688571D01*
X57087142Y-80688571D01*
X58015714Y-79188571D02*
X58158571Y-79188571D01*
X58301428Y-79260000D01*
X58372857Y-79331428D01*
X58444285Y-79474285D01*
X58515714Y-79760000D01*
X58515714Y-80117142D01*
X58444285Y-80402857D01*
X58372857Y-80545714D01*
X58301428Y-80617142D01*
X58158571Y-80688571D01*
X58015714Y-80688571D01*
X57872857Y-80617142D01*
X57801428Y-80545714D01*
X57730000Y-80402857D01*
X57658571Y-80117142D01*
X57658571Y-79760000D01*
X57730000Y-79474285D01*
X57801428Y-79331428D01*
X57872857Y-79260000D01*
X58015714Y-79188571D01*
X59872857Y-79188571D02*
X59158571Y-79188571D01*
X59087142Y-79902857D01*
X59158571Y-79831428D01*
X59301428Y-79760000D01*
X59658571Y-79760000D01*
X59801428Y-79831428D01*
X59872857Y-79902857D01*
X59944285Y-80045714D01*
X59944285Y-80402857D01*
X59872857Y-80545714D01*
X59801428Y-80617142D01*
X59658571Y-80688571D01*
X59301428Y-80688571D01*
X59158571Y-80617142D01*
X59087142Y-80545714D01*
X62730000Y-80831428D02*
X62587142Y-80760000D01*
X62444285Y-80617142D01*
X62230000Y-80402857D01*
X62087142Y-80331428D01*
X61944285Y-80331428D01*
X62015714Y-80688571D02*
X61872857Y-80617142D01*
X61730000Y-80474285D01*
X61658571Y-80188571D01*
X61658571Y-79688571D01*
X61730000Y-79402857D01*
X61872857Y-79260000D01*
X62015714Y-79188571D01*
X62301428Y-79188571D01*
X62444285Y-79260000D01*
X62587142Y-79402857D01*
X62658571Y-79688571D01*
X62658571Y-80188571D01*
X62587142Y-80474285D01*
X62444285Y-80617142D01*
X62301428Y-80688571D01*
X62015714Y-80688571D01*
X63801428Y-79902857D02*
X63301428Y-79902857D01*
X63301428Y-80688571D02*
X63301428Y-79188571D01*
X64015714Y-79188571D01*
X64587142Y-80688571D02*
X64587142Y-79188571D01*
X65158571Y-79188571D01*
X65301428Y-79260000D01*
X65372857Y-79331428D01*
X65444285Y-79474285D01*
X65444285Y-79688571D01*
X65372857Y-79831428D01*
X65301428Y-79902857D01*
X65158571Y-79974285D01*
X64587142Y-79974285D01*
X66730000Y-79188571D02*
X66444285Y-79188571D01*
X66301428Y-79260000D01*
X66230000Y-79331428D01*
X66087142Y-79545714D01*
X66015714Y-79831428D01*
X66015714Y-80402857D01*
X66087142Y-80545714D01*
X66158571Y-80617142D01*
X66301428Y-80688571D01*
X66587142Y-80688571D01*
X66730000Y-80617142D01*
X66801428Y-80545714D01*
X66872857Y-80402857D01*
X66872857Y-80045714D01*
X66801428Y-79902857D01*
X66730000Y-79831428D01*
X66587142Y-79760000D01*
X66301428Y-79760000D01*
X66158571Y-79831428D01*
X66087142Y-79902857D01*
X66015714Y-80045714D01*
X68158571Y-79688571D02*
X68158571Y-80688571D01*
X67801428Y-79117142D02*
X67444285Y-80188571D01*
X68372857Y-80188571D01*
X70015714Y-80617142D02*
X70158571Y-80688571D01*
X70444285Y-80688571D01*
X70587142Y-80617142D01*
X70658571Y-80474285D01*
X70658571Y-80402857D01*
X70587142Y-80260000D01*
X70444285Y-80188571D01*
X70230000Y-80188571D01*
X70087142Y-80117142D01*
X70015714Y-79974285D01*
X70015714Y-79902857D01*
X70087142Y-79760000D01*
X70230000Y-79688571D01*
X70444285Y-79688571D01*
X70587142Y-79760000D01*
X71515714Y-80688571D02*
X71372857Y-80617142D01*
X71301428Y-80545714D01*
X71230000Y-80402857D01*
X71230000Y-79974285D01*
X71301428Y-79831428D01*
X71372857Y-79760000D01*
X71515714Y-79688571D01*
X71730000Y-79688571D01*
X71872857Y-79760000D01*
X71944285Y-79831428D01*
X72015714Y-79974285D01*
X72015714Y-80402857D01*
X71944285Y-80545714D01*
X71872857Y-80617142D01*
X71730000Y-80688571D01*
X71515714Y-80688571D01*
X73301428Y-80617142D02*
X73158571Y-80688571D01*
X72872857Y-80688571D01*
X72730000Y-80617142D01*
X72658571Y-80545714D01*
X72587142Y-80402857D01*
X72587142Y-79974285D01*
X72658571Y-79831428D01*
X72730000Y-79760000D01*
X72872857Y-79688571D01*
X73158571Y-79688571D01*
X73301428Y-79760000D01*
X73944285Y-80688571D02*
X73944285Y-79188571D01*
X74087142Y-80117142D02*
X74515714Y-80688571D01*
X74515714Y-79688571D02*
X73944285Y-80260000D01*
X75730000Y-80617142D02*
X75587142Y-80688571D01*
X75301428Y-80688571D01*
X75158571Y-80617142D01*
X75087142Y-80474285D01*
X75087142Y-79902857D01*
X75158571Y-79760000D01*
X75301428Y-79688571D01*
X75587142Y-79688571D01*
X75730000Y-79760000D01*
X75801428Y-79902857D01*
X75801428Y-80045714D01*
X75087142Y-80188571D01*
X76230000Y-79688571D02*
X76801428Y-79688571D01*
X76444285Y-79188571D02*
X76444285Y-80474285D01*
X76515714Y-80617142D01*
X76658571Y-80688571D01*
X76801428Y-80688571D01*
X48812142Y-134003571D02*
X48812142Y-132503571D01*
X49169285Y-132503571D01*
X49383571Y-132575000D01*
X49526428Y-132717857D01*
X49597857Y-132860714D01*
X49669285Y-133146428D01*
X49669285Y-133360714D01*
X49597857Y-133646428D01*
X49526428Y-133789285D01*
X49383571Y-133932142D01*
X49169285Y-134003571D01*
X48812142Y-134003571D01*
X50597857Y-132503571D02*
X50740714Y-132503571D01*
X50883571Y-132575000D01*
X50955000Y-132646428D01*
X51026428Y-132789285D01*
X51097857Y-133075000D01*
X51097857Y-133432142D01*
X51026428Y-133717857D01*
X50955000Y-133860714D01*
X50883571Y-133932142D01*
X50740714Y-134003571D01*
X50597857Y-134003571D01*
X50455000Y-133932142D01*
X50383571Y-133860714D01*
X50312142Y-133717857D01*
X50240714Y-133432142D01*
X50240714Y-133075000D01*
X50312142Y-132789285D01*
X50383571Y-132646428D01*
X50455000Y-132575000D01*
X50597857Y-132503571D01*
X51740714Y-133860714D02*
X51812142Y-133932142D01*
X51740714Y-134003571D01*
X51669285Y-133932142D01*
X51740714Y-133860714D01*
X51740714Y-134003571D01*
X51740714Y-133075000D02*
X51812142Y-133146428D01*
X51740714Y-133217857D01*
X51669285Y-133146428D01*
X51740714Y-133075000D01*
X51740714Y-133217857D01*
X53597857Y-134003571D02*
X53597857Y-132503571D01*
X54097857Y-133575000D01*
X54597857Y-132503571D01*
X54597857Y-134003571D01*
X56169285Y-133860714D02*
X56097857Y-133932142D01*
X55883571Y-134003571D01*
X55740714Y-134003571D01*
X55526428Y-133932142D01*
X55383571Y-133789285D01*
X55312142Y-133646428D01*
X55240714Y-133360714D01*
X55240714Y-133146428D01*
X55312142Y-132860714D01*
X55383571Y-132717857D01*
X55526428Y-132575000D01*
X55740714Y-132503571D01*
X55883571Y-132503571D01*
X56097857Y-132575000D01*
X56169285Y-132646428D01*
X56812142Y-132503571D02*
X56812142Y-133717857D01*
X56883571Y-133860714D01*
X56955000Y-133932142D01*
X57097857Y-134003571D01*
X57383571Y-134003571D01*
X57526428Y-133932142D01*
X57597857Y-133860714D01*
X57669285Y-133717857D01*
X57669285Y-132503571D01*
X60383571Y-134003571D02*
X59883571Y-133289285D01*
X59526428Y-134003571D02*
X59526428Y-132503571D01*
X60097857Y-132503571D01*
X60240714Y-132575000D01*
X60312142Y-132646428D01*
X60383571Y-132789285D01*
X60383571Y-133003571D01*
X60312142Y-133146428D01*
X60240714Y-133217857D01*
X60097857Y-133289285D01*
X59526428Y-133289285D01*
X60883571Y-132503571D02*
X61883571Y-134003571D01*
X61883571Y-132503571D02*
X60883571Y-134003571D01*
X48812142Y-136553571D02*
X48812142Y-135053571D01*
X49169285Y-135053571D01*
X49383571Y-135125000D01*
X49526428Y-135267857D01*
X49597857Y-135410714D01*
X49669285Y-135696428D01*
X49669285Y-135910714D01*
X49597857Y-136196428D01*
X49526428Y-136339285D01*
X49383571Y-136482142D01*
X49169285Y-136553571D01*
X48812142Y-136553571D01*
X51097857Y-136553571D02*
X50240714Y-136553571D01*
X50669285Y-136553571D02*
X50669285Y-135053571D01*
X50526428Y-135267857D01*
X50383571Y-135410714D01*
X50240714Y-135482142D01*
X51740714Y-136410714D02*
X51812142Y-136482142D01*
X51740714Y-136553571D01*
X51669285Y-136482142D01*
X51740714Y-136410714D01*
X51740714Y-136553571D01*
X51740714Y-135625000D02*
X51812142Y-135696428D01*
X51740714Y-135767857D01*
X51669285Y-135696428D01*
X51740714Y-135625000D01*
X51740714Y-135767857D01*
X53597857Y-136553571D02*
X53597857Y-135053571D01*
X54097857Y-136125000D01*
X54597857Y-135053571D01*
X54597857Y-136553571D01*
X56169285Y-136410714D02*
X56097857Y-136482142D01*
X55883571Y-136553571D01*
X55740714Y-136553571D01*
X55526428Y-136482142D01*
X55383571Y-136339285D01*
X55312142Y-136196428D01*
X55240714Y-135910714D01*
X55240714Y-135696428D01*
X55312142Y-135410714D01*
X55383571Y-135267857D01*
X55526428Y-135125000D01*
X55740714Y-135053571D01*
X55883571Y-135053571D01*
X56097857Y-135125000D01*
X56169285Y-135196428D01*
X56812142Y-135053571D02*
X56812142Y-136267857D01*
X56883571Y-136410714D01*
X56955000Y-136482142D01*
X57097857Y-136553571D01*
X57383571Y-136553571D01*
X57526428Y-136482142D01*
X57597857Y-136410714D01*
X57669285Y-136267857D01*
X57669285Y-135053571D01*
X59312142Y-135053571D02*
X60169285Y-135053571D01*
X59740714Y-136553571D02*
X59740714Y-135053571D01*
X60526428Y-135053571D02*
X61526428Y-136553571D01*
X61526428Y-135053571D02*
X60526428Y-136553571D01*
X48812142Y-139103571D02*
X48812142Y-137603571D01*
X49169285Y-137603571D01*
X49383571Y-137675000D01*
X49526428Y-137817857D01*
X49597857Y-137960714D01*
X49669285Y-138246428D01*
X49669285Y-138460714D01*
X49597857Y-138746428D01*
X49526428Y-138889285D01*
X49383571Y-139032142D01*
X49169285Y-139103571D01*
X48812142Y-139103571D01*
X50240714Y-137746428D02*
X50312142Y-137675000D01*
X50455000Y-137603571D01*
X50812142Y-137603571D01*
X50955000Y-137675000D01*
X51026428Y-137746428D01*
X51097857Y-137889285D01*
X51097857Y-138032142D01*
X51026428Y-138246428D01*
X50169285Y-139103571D01*
X51097857Y-139103571D01*
X51740714Y-138960714D02*
X51812142Y-139032142D01*
X51740714Y-139103571D01*
X51669285Y-139032142D01*
X51740714Y-138960714D01*
X51740714Y-139103571D01*
X51740714Y-138175000D02*
X51812142Y-138246428D01*
X51740714Y-138317857D01*
X51669285Y-138246428D01*
X51740714Y-138175000D01*
X51740714Y-138317857D01*
X53597857Y-139103571D02*
X53597857Y-137603571D01*
X54455000Y-139103571D01*
X54455000Y-137603571D01*
X56026428Y-139103571D02*
X55526428Y-138389285D01*
X55169285Y-139103571D02*
X55169285Y-137603571D01*
X55740714Y-137603571D01*
X55883571Y-137675000D01*
X55955000Y-137746428D01*
X56026428Y-137889285D01*
X56026428Y-138103571D01*
X55955000Y-138246428D01*
X55883571Y-138317857D01*
X55740714Y-138389285D01*
X55169285Y-138389285D01*
X56597857Y-139032142D02*
X56812142Y-139103571D01*
X57169285Y-139103571D01*
X57312142Y-139032142D01*
X57383571Y-138960714D01*
X57455000Y-138817857D01*
X57455000Y-138675000D01*
X57383571Y-138532142D01*
X57312142Y-138460714D01*
X57169285Y-138389285D01*
X56883571Y-138317857D01*
X56740714Y-138246428D01*
X56669285Y-138175000D01*
X56597857Y-138032142D01*
X56597857Y-137889285D01*
X56669285Y-137746428D01*
X56740714Y-137675000D01*
X56883571Y-137603571D01*
X57240714Y-137603571D01*
X57455000Y-137675000D01*
X57883571Y-137603571D02*
X58740714Y-137603571D01*
X58312142Y-139103571D02*
X58312142Y-137603571D01*
X48812142Y-141653571D02*
X48812142Y-140153571D01*
X49169285Y-140153571D01*
X49383571Y-140225000D01*
X49526428Y-140367857D01*
X49597857Y-140510714D01*
X49669285Y-140796428D01*
X49669285Y-141010714D01*
X49597857Y-141296428D01*
X49526428Y-141439285D01*
X49383571Y-141582142D01*
X49169285Y-141653571D01*
X48812142Y-141653571D01*
X50169285Y-140153571D02*
X51097857Y-140153571D01*
X50597857Y-140725000D01*
X50812142Y-140725000D01*
X50955000Y-140796428D01*
X51026428Y-140867857D01*
X51097857Y-141010714D01*
X51097857Y-141367857D01*
X51026428Y-141510714D01*
X50955000Y-141582142D01*
X50812142Y-141653571D01*
X50383571Y-141653571D01*
X50240714Y-141582142D01*
X50169285Y-141510714D01*
X51740714Y-141510714D02*
X51812142Y-141582142D01*
X51740714Y-141653571D01*
X51669285Y-141582142D01*
X51740714Y-141510714D01*
X51740714Y-141653571D01*
X51740714Y-140725000D02*
X51812142Y-140796428D01*
X51740714Y-140867857D01*
X51669285Y-140796428D01*
X51740714Y-140725000D01*
X51740714Y-140867857D01*
X53597857Y-141653571D02*
X53597857Y-140153571D01*
X54169285Y-140153571D01*
X54312142Y-140225000D01*
X54383571Y-140296428D01*
X54455000Y-140439285D01*
X54455000Y-140653571D01*
X54383571Y-140796428D01*
X54312142Y-140867857D01*
X54169285Y-140939285D01*
X53597857Y-140939285D01*
X55955000Y-141510714D02*
X55883571Y-141582142D01*
X55669285Y-141653571D01*
X55526428Y-141653571D01*
X55312142Y-141582142D01*
X55169285Y-141439285D01*
X55097857Y-141296428D01*
X55026428Y-141010714D01*
X55026428Y-140796428D01*
X55097857Y-140510714D01*
X55169285Y-140367857D01*
X55312142Y-140225000D01*
X55526428Y-140153571D01*
X55669285Y-140153571D01*
X55883571Y-140225000D01*
X55955000Y-140296428D01*
X56883571Y-140153571D02*
X57026428Y-140153571D01*
X57169285Y-140225000D01*
X57240714Y-140296428D01*
X57312142Y-140439285D01*
X57383571Y-140725000D01*
X57383571Y-141082142D01*
X57312142Y-141367857D01*
X57240714Y-141510714D01*
X57169285Y-141582142D01*
X57026428Y-141653571D01*
X56883571Y-141653571D01*
X56740714Y-141582142D01*
X56669285Y-141510714D01*
X56597857Y-141367857D01*
X56526428Y-141082142D01*
X56526428Y-140725000D01*
X56597857Y-140439285D01*
X56669285Y-140296428D01*
X56740714Y-140225000D01*
X56883571Y-140153571D01*
X48812142Y-144203571D02*
X48812142Y-142703571D01*
X49169285Y-142703571D01*
X49383571Y-142775000D01*
X49526428Y-142917857D01*
X49597857Y-143060714D01*
X49669285Y-143346428D01*
X49669285Y-143560714D01*
X49597857Y-143846428D01*
X49526428Y-143989285D01*
X49383571Y-144132142D01*
X49169285Y-144203571D01*
X48812142Y-144203571D01*
X50955000Y-142703571D02*
X50669285Y-142703571D01*
X50526428Y-142775000D01*
X50455000Y-142846428D01*
X50312142Y-143060714D01*
X50240714Y-143346428D01*
X50240714Y-143917857D01*
X50312142Y-144060714D01*
X50383571Y-144132142D01*
X50526428Y-144203571D01*
X50812142Y-144203571D01*
X50955000Y-144132142D01*
X51026428Y-144060714D01*
X51097857Y-143917857D01*
X51097857Y-143560714D01*
X51026428Y-143417857D01*
X50955000Y-143346428D01*
X50812142Y-143275000D01*
X50526428Y-143275000D01*
X50383571Y-143346428D01*
X50312142Y-143417857D01*
X50240714Y-143560714D01*
X51740714Y-144060714D02*
X51812142Y-144132142D01*
X51740714Y-144203571D01*
X51669285Y-144132142D01*
X51740714Y-144060714D01*
X51740714Y-144203571D01*
X51740714Y-143275000D02*
X51812142Y-143346428D01*
X51740714Y-143417857D01*
X51669285Y-143346428D01*
X51740714Y-143275000D01*
X51740714Y-143417857D01*
X54097857Y-143417857D02*
X54312142Y-143489285D01*
X54383571Y-143560714D01*
X54455000Y-143703571D01*
X54455000Y-143917857D01*
X54383571Y-144060714D01*
X54312142Y-144132142D01*
X54169285Y-144203571D01*
X53597857Y-144203571D01*
X53597857Y-142703571D01*
X54097857Y-142703571D01*
X54240714Y-142775000D01*
X54312142Y-142846428D01*
X54383571Y-142989285D01*
X54383571Y-143132142D01*
X54312142Y-143275000D01*
X54240714Y-143346428D01*
X54097857Y-143417857D01*
X53597857Y-143417857D01*
X55383571Y-142703571D02*
X55669285Y-142703571D01*
X55812142Y-142775000D01*
X55955000Y-142917857D01*
X56026428Y-143203571D01*
X56026428Y-143703571D01*
X55955000Y-143989285D01*
X55812142Y-144132142D01*
X55669285Y-144203571D01*
X55383571Y-144203571D01*
X55240714Y-144132142D01*
X55097857Y-143989285D01*
X55026428Y-143703571D01*
X55026428Y-143203571D01*
X55097857Y-142917857D01*
X55240714Y-142775000D01*
X55383571Y-142703571D01*
X56955000Y-142703571D02*
X57240714Y-142703571D01*
X57383571Y-142775000D01*
X57526428Y-142917857D01*
X57597857Y-143203571D01*
X57597857Y-143703571D01*
X57526428Y-143989285D01*
X57383571Y-144132142D01*
X57240714Y-144203571D01*
X56955000Y-144203571D01*
X56812142Y-144132142D01*
X56669285Y-143989285D01*
X56597857Y-143703571D01*
X56597857Y-143203571D01*
X56669285Y-142917857D01*
X56812142Y-142775000D01*
X56955000Y-142703571D01*
X58026428Y-142703571D02*
X58883571Y-142703571D01*
X58455000Y-144203571D02*
X58455000Y-142703571D01*
X59669285Y-142703571D02*
X59812142Y-142703571D01*
X59955000Y-142775000D01*
X60026428Y-142846428D01*
X60097857Y-142989285D01*
X60169285Y-143275000D01*
X60169285Y-143632142D01*
X60097857Y-143917857D01*
X60026428Y-144060714D01*
X59955000Y-144132142D01*
X59812142Y-144203571D01*
X59669285Y-144203571D01*
X59526428Y-144132142D01*
X59455000Y-144060714D01*
X59383571Y-143917857D01*
X59312142Y-143632142D01*
X59312142Y-143275000D01*
X59383571Y-142989285D01*
X59455000Y-142846428D01*
X59526428Y-142775000D01*
X59669285Y-142703571D01*
X48812142Y-146753571D02*
X48812142Y-145253571D01*
X49169285Y-145253571D01*
X49383571Y-145325000D01*
X49526428Y-145467857D01*
X49597857Y-145610714D01*
X49669285Y-145896428D01*
X49669285Y-146110714D01*
X49597857Y-146396428D01*
X49526428Y-146539285D01*
X49383571Y-146682142D01*
X49169285Y-146753571D01*
X48812142Y-146753571D01*
X50169285Y-145253571D02*
X51169285Y-145253571D01*
X50526428Y-146753571D01*
X51740714Y-146610714D02*
X51812142Y-146682142D01*
X51740714Y-146753571D01*
X51669285Y-146682142D01*
X51740714Y-146610714D01*
X51740714Y-146753571D01*
X51740714Y-145825000D02*
X51812142Y-145896428D01*
X51740714Y-145967857D01*
X51669285Y-145896428D01*
X51740714Y-145825000D01*
X51740714Y-145967857D01*
X54097857Y-145967857D02*
X54312142Y-146039285D01*
X54383571Y-146110714D01*
X54455000Y-146253571D01*
X54455000Y-146467857D01*
X54383571Y-146610714D01*
X54312142Y-146682142D01*
X54169285Y-146753571D01*
X53597857Y-146753571D01*
X53597857Y-145253571D01*
X54097857Y-145253571D01*
X54240714Y-145325000D01*
X54312142Y-145396428D01*
X54383571Y-145539285D01*
X54383571Y-145682142D01*
X54312142Y-145825000D01*
X54240714Y-145896428D01*
X54097857Y-145967857D01*
X53597857Y-145967857D01*
X55383571Y-145253571D02*
X55669285Y-145253571D01*
X55812142Y-145325000D01*
X55955000Y-145467857D01*
X56026428Y-145753571D01*
X56026428Y-146253571D01*
X55955000Y-146539285D01*
X55812142Y-146682142D01*
X55669285Y-146753571D01*
X55383571Y-146753571D01*
X55240714Y-146682142D01*
X55097857Y-146539285D01*
X55026428Y-146253571D01*
X55026428Y-145753571D01*
X55097857Y-145467857D01*
X55240714Y-145325000D01*
X55383571Y-145253571D01*
X56955000Y-145253571D02*
X57240714Y-145253571D01*
X57383571Y-145325000D01*
X57526428Y-145467857D01*
X57597857Y-145753571D01*
X57597857Y-146253571D01*
X57526428Y-146539285D01*
X57383571Y-146682142D01*
X57240714Y-146753571D01*
X56955000Y-146753571D01*
X56812142Y-146682142D01*
X56669285Y-146539285D01*
X56597857Y-146253571D01*
X56597857Y-145753571D01*
X56669285Y-145467857D01*
X56812142Y-145325000D01*
X56955000Y-145253571D01*
X58026428Y-145253571D02*
X58883571Y-145253571D01*
X58455000Y-146753571D02*
X58455000Y-145253571D01*
X60169285Y-146753571D02*
X59312142Y-146753571D01*
X59740714Y-146753571D02*
X59740714Y-145253571D01*
X59597857Y-145467857D01*
X59455000Y-145610714D01*
X59312142Y-145682142D01*
D12*
G04 #@! TO.C,Y1*
X58460000Y-97775000D02*
X52210000Y-97775000D01*
X58460000Y-92725000D02*
X52210000Y-92725000D01*
X58460000Y-92725000D02*
G75*
G02X58460000Y-97775000I0J-2525000D01*
G01*
X52210000Y-92725000D02*
G75*
G03X52210000Y-97775000I0J-2525000D01*
G01*
D11*
G04 #@! TO.C,U1*
X75730000Y-127800000D02*
X48730000Y-127800000D01*
X48730000Y-127800000D02*
X48730000Y-100800000D01*
X48730000Y-100800000D02*
X75730000Y-100800000D01*
X75730000Y-100800000D02*
X75730000Y-127800000D01*
X48730000Y-101800000D02*
X49730000Y-100800000D01*
D13*
G04 #@! TO.C,LOGO1*
G36*
X62230000Y-85750400D02*
X62206717Y-85750245D01*
X62188556Y-85747005D01*
X62159945Y-85738481D01*
X62125914Y-85726248D01*
X62111467Y-85720485D01*
X61990791Y-85662532D01*
X61870890Y-85588515D01*
X61752994Y-85499299D01*
X61638331Y-85395747D01*
X61612490Y-85369937D01*
X61488406Y-85231693D01*
X61376669Y-85082289D01*
X61277713Y-84922602D01*
X61191974Y-84753508D01*
X61119888Y-84575885D01*
X61061889Y-84390609D01*
X61018413Y-84198558D01*
X61011631Y-84160195D01*
X61006371Y-84125154D01*
X61000867Y-84081817D01*
X60995367Y-84033005D01*
X60990121Y-83981538D01*
X60985377Y-83930236D01*
X60981383Y-83881918D01*
X60978389Y-83839404D01*
X60976642Y-83805515D01*
X60976392Y-83783070D01*
X60977666Y-83774975D01*
X60985489Y-83770525D01*
X61006800Y-83758624D01*
X61040264Y-83740011D01*
X61084547Y-83715423D01*
X61138315Y-83685599D01*
X61200234Y-83651276D01*
X61268970Y-83613193D01*
X61343189Y-83572089D01*
X61421556Y-83528700D01*
X61502737Y-83483766D01*
X61585399Y-83438025D01*
X61668207Y-83392214D01*
X61749827Y-83347072D01*
X61828925Y-83303336D01*
X61904167Y-83261746D01*
X61974219Y-83223039D01*
X62037746Y-83187954D01*
X62093414Y-83157228D01*
X62139890Y-83131600D01*
X62175839Y-83111808D01*
X62199927Y-83098590D01*
X62210820Y-83092683D01*
X62210950Y-83092616D01*
X62230000Y-83082804D01*
X62230000Y-85750400D01*
X62230000Y-85750400D01*
G37*
X62230000Y-85750400D02*
X62206717Y-85750245D01*
X62188556Y-85747005D01*
X62159945Y-85738481D01*
X62125914Y-85726248D01*
X62111467Y-85720485D01*
X61990791Y-85662532D01*
X61870890Y-85588515D01*
X61752994Y-85499299D01*
X61638331Y-85395747D01*
X61612490Y-85369937D01*
X61488406Y-85231693D01*
X61376669Y-85082289D01*
X61277713Y-84922602D01*
X61191974Y-84753508D01*
X61119888Y-84575885D01*
X61061889Y-84390609D01*
X61018413Y-84198558D01*
X61011631Y-84160195D01*
X61006371Y-84125154D01*
X61000867Y-84081817D01*
X60995367Y-84033005D01*
X60990121Y-83981538D01*
X60985377Y-83930236D01*
X60981383Y-83881918D01*
X60978389Y-83839404D01*
X60976642Y-83805515D01*
X60976392Y-83783070D01*
X60977666Y-83774975D01*
X60985489Y-83770525D01*
X61006800Y-83758624D01*
X61040264Y-83740011D01*
X61084547Y-83715423D01*
X61138315Y-83685599D01*
X61200234Y-83651276D01*
X61268970Y-83613193D01*
X61343189Y-83572089D01*
X61421556Y-83528700D01*
X61502737Y-83483766D01*
X61585399Y-83438025D01*
X61668207Y-83392214D01*
X61749827Y-83347072D01*
X61828925Y-83303336D01*
X61904167Y-83261746D01*
X61974219Y-83223039D01*
X62037746Y-83187954D01*
X62093414Y-83157228D01*
X62139890Y-83131600D01*
X62175839Y-83111808D01*
X62199927Y-83098590D01*
X62210820Y-83092683D01*
X62210950Y-83092616D01*
X62230000Y-83082804D01*
X62230000Y-85750400D01*
G36*
X62839491Y-84049492D02*
X62879652Y-84067937D01*
X62918785Y-84098678D01*
X62955056Y-84140861D01*
X62986629Y-84193631D01*
X62987792Y-84196000D01*
X63002693Y-84229540D01*
X63013790Y-84262683D01*
X63021462Y-84298459D01*
X63026089Y-84339893D01*
X63028051Y-84390015D01*
X63027727Y-84451850D01*
X63026350Y-84503527D01*
X63021633Y-84649420D01*
X62849417Y-84571260D01*
X62677200Y-84493100D01*
X62681144Y-84328000D01*
X62683190Y-84261392D01*
X62686094Y-84209204D01*
X62690355Y-84168925D01*
X62696474Y-84138047D01*
X62704948Y-84114058D01*
X62716278Y-84094450D01*
X62730963Y-84076712D01*
X62731182Y-84076478D01*
X62763422Y-84052908D01*
X62800136Y-84044197D01*
X62839491Y-84049492D01*
X62839491Y-84049492D01*
G37*
X62839491Y-84049492D02*
X62879652Y-84067937D01*
X62918785Y-84098678D01*
X62955056Y-84140861D01*
X62986629Y-84193631D01*
X62987792Y-84196000D01*
X63002693Y-84229540D01*
X63013790Y-84262683D01*
X63021462Y-84298459D01*
X63026089Y-84339893D01*
X63028051Y-84390015D01*
X63027727Y-84451850D01*
X63026350Y-84503527D01*
X63021633Y-84649420D01*
X62849417Y-84571260D01*
X62677200Y-84493100D01*
X62681144Y-84328000D01*
X62683190Y-84261392D01*
X62686094Y-84209204D01*
X62690355Y-84168925D01*
X62696474Y-84138047D01*
X62704948Y-84114058D01*
X62716278Y-84094450D01*
X62730963Y-84076712D01*
X62731182Y-84076478D01*
X62763422Y-84052908D01*
X62800136Y-84044197D01*
X62839491Y-84049492D01*
G36*
X62247180Y-82748715D02*
X62269001Y-82760205D01*
X62303143Y-82778515D01*
X62348359Y-82802960D01*
X62403398Y-82832855D01*
X62467014Y-82867514D01*
X62537956Y-82906250D01*
X62614976Y-82948377D01*
X62696825Y-82993210D01*
X62782254Y-83040063D01*
X62870016Y-83088250D01*
X62958860Y-83137085D01*
X63047538Y-83185882D01*
X63134801Y-83233955D01*
X63219401Y-83280618D01*
X63300089Y-83325186D01*
X63375616Y-83366972D01*
X63444733Y-83405290D01*
X63506192Y-83439456D01*
X63558743Y-83468782D01*
X63601138Y-83492582D01*
X63622767Y-83504827D01*
X63649881Y-83521307D01*
X63669632Y-83535340D01*
X63678721Y-83544509D01*
X63678886Y-83545925D01*
X63672236Y-83555163D01*
X63656822Y-83574027D01*
X63634853Y-83599996D01*
X63608543Y-83630547D01*
X63580101Y-83663158D01*
X63551739Y-83695307D01*
X63525669Y-83724472D01*
X63504102Y-83748130D01*
X63489250Y-83763760D01*
X63483404Y-83768880D01*
X63475479Y-83764814D01*
X63453848Y-83753116D01*
X63419601Y-83734390D01*
X63373829Y-83709236D01*
X63317623Y-83678257D01*
X63252073Y-83642055D01*
X63178270Y-83601232D01*
X63097304Y-83556391D01*
X63010267Y-83508133D01*
X62918248Y-83457061D01*
X62856533Y-83422780D01*
X62234233Y-83077000D01*
X62231938Y-82910867D01*
X62231422Y-82847336D01*
X62231886Y-82799841D01*
X62233365Y-82767512D01*
X62235896Y-82749476D01*
X62238930Y-82744733D01*
X62247180Y-82748715D01*
X62247180Y-82748715D01*
G37*
X62247180Y-82748715D02*
X62269001Y-82760205D01*
X62303143Y-82778515D01*
X62348359Y-82802960D01*
X62403398Y-82832855D01*
X62467014Y-82867514D01*
X62537956Y-82906250D01*
X62614976Y-82948377D01*
X62696825Y-82993210D01*
X62782254Y-83040063D01*
X62870016Y-83088250D01*
X62958860Y-83137085D01*
X63047538Y-83185882D01*
X63134801Y-83233955D01*
X63219401Y-83280618D01*
X63300089Y-83325186D01*
X63375616Y-83366972D01*
X63444733Y-83405290D01*
X63506192Y-83439456D01*
X63558743Y-83468782D01*
X63601138Y-83492582D01*
X63622767Y-83504827D01*
X63649881Y-83521307D01*
X63669632Y-83535340D01*
X63678721Y-83544509D01*
X63678886Y-83545925D01*
X63672236Y-83555163D01*
X63656822Y-83574027D01*
X63634853Y-83599996D01*
X63608543Y-83630547D01*
X63580101Y-83663158D01*
X63551739Y-83695307D01*
X63525669Y-83724472D01*
X63504102Y-83748130D01*
X63489250Y-83763760D01*
X63483404Y-83768880D01*
X63475479Y-83764814D01*
X63453848Y-83753116D01*
X63419601Y-83734390D01*
X63373829Y-83709236D01*
X63317623Y-83678257D01*
X63252073Y-83642055D01*
X63178270Y-83601232D01*
X63097304Y-83556391D01*
X63010267Y-83508133D01*
X62918248Y-83457061D01*
X62856533Y-83422780D01*
X62234233Y-83077000D01*
X62231938Y-82910867D01*
X62231422Y-82847336D01*
X62231886Y-82799841D01*
X62233365Y-82767512D01*
X62235896Y-82749476D01*
X62238930Y-82744733D01*
X62247180Y-82748715D01*
G36*
X62227962Y-82307445D02*
X62228268Y-82390569D01*
X62228312Y-82468517D01*
X62228111Y-82539656D01*
X62227681Y-82602356D01*
X62227038Y-82654984D01*
X62226199Y-82695910D01*
X62225178Y-82723502D01*
X62223992Y-82736129D01*
X62223729Y-82736723D01*
X62215437Y-82741640D01*
X62193546Y-82754025D01*
X62159299Y-82773192D01*
X62113939Y-82798455D01*
X62058709Y-82829131D01*
X61994851Y-82864533D01*
X61923608Y-82903976D01*
X61846223Y-82946775D01*
X61763939Y-82992246D01*
X61677999Y-83039701D01*
X61589646Y-83088458D01*
X61500121Y-83137829D01*
X61410669Y-83187130D01*
X61322532Y-83235676D01*
X61236952Y-83282782D01*
X61155173Y-83327762D01*
X61078437Y-83369931D01*
X61007987Y-83408604D01*
X60945067Y-83443095D01*
X60890918Y-83472720D01*
X60846783Y-83496793D01*
X60813906Y-83514629D01*
X60793529Y-83525543D01*
X60787038Y-83528839D01*
X60783996Y-83528732D01*
X60781452Y-83524979D01*
X60779361Y-83516233D01*
X60777679Y-83501151D01*
X60776365Y-83478388D01*
X60775373Y-83446598D01*
X60774661Y-83404438D01*
X60774184Y-83350561D01*
X60773900Y-83283623D01*
X60773764Y-83202280D01*
X60773733Y-83117787D01*
X60773733Y-82701630D01*
X60792783Y-82682706D01*
X60806970Y-82671879D01*
X60832137Y-82655743D01*
X60865103Y-82636052D01*
X60902688Y-82614562D01*
X60941710Y-82593026D01*
X60978991Y-82573201D01*
X61011348Y-82556840D01*
X61035603Y-82545700D01*
X61048573Y-82541534D01*
X61048640Y-82541533D01*
X61053493Y-82543602D01*
X61056988Y-82551325D01*
X61059334Y-82566983D01*
X61060744Y-82592853D01*
X61061429Y-82631213D01*
X61061600Y-82681233D01*
X61061900Y-82727725D01*
X61062732Y-82767664D01*
X61063990Y-82798260D01*
X61065570Y-82816721D01*
X61066848Y-82820933D01*
X61075565Y-82817043D01*
X61096727Y-82806209D01*
X61127961Y-82789688D01*
X61166894Y-82768735D01*
X61211156Y-82744606D01*
X61214782Y-82742616D01*
X61357469Y-82664300D01*
X61357701Y-82524367D01*
X61358142Y-82468546D01*
X61359378Y-82427305D01*
X61361595Y-82398301D01*
X61364982Y-82379193D01*
X61369724Y-82367637D01*
X61370282Y-82366804D01*
X61382158Y-82356226D01*
X61405374Y-82340427D01*
X61436886Y-82321067D01*
X61473652Y-82299807D01*
X61512627Y-82278308D01*
X61550771Y-82258230D01*
X61585038Y-82241234D01*
X61612386Y-82228982D01*
X61629773Y-82223133D01*
X61633644Y-82223070D01*
X61638345Y-82227828D01*
X61641709Y-82239441D01*
X61643935Y-82260175D01*
X61645216Y-82292295D01*
X61645751Y-82338067D01*
X61645800Y-82363467D01*
X61646174Y-82409221D01*
X61647207Y-82448349D01*
X61648767Y-82478031D01*
X61650722Y-82495445D01*
X61652150Y-82498849D01*
X61661202Y-82494784D01*
X61682589Y-82483681D01*
X61713906Y-82466837D01*
X61752746Y-82445545D01*
X61796704Y-82421099D01*
X61798200Y-82420262D01*
X61937900Y-82342025D01*
X61942133Y-82196521D01*
X61944008Y-82141266D01*
X61946126Y-82100555D01*
X61948756Y-82072000D01*
X61952165Y-82053211D01*
X61956622Y-82041800D01*
X61959982Y-82037429D01*
X61971708Y-82028915D01*
X61995530Y-82013969D01*
X62028668Y-81994254D01*
X62068344Y-81971431D01*
X62099682Y-81953851D01*
X62225767Y-81883861D01*
X62227962Y-82307445D01*
X62227962Y-82307445D01*
G37*
X62227962Y-82307445D02*
X62228268Y-82390569D01*
X62228312Y-82468517D01*
X62228111Y-82539656D01*
X62227681Y-82602356D01*
X62227038Y-82654984D01*
X62226199Y-82695910D01*
X62225178Y-82723502D01*
X62223992Y-82736129D01*
X62223729Y-82736723D01*
X62215437Y-82741640D01*
X62193546Y-82754025D01*
X62159299Y-82773192D01*
X62113939Y-82798455D01*
X62058709Y-82829131D01*
X61994851Y-82864533D01*
X61923608Y-82903976D01*
X61846223Y-82946775D01*
X61763939Y-82992246D01*
X61677999Y-83039701D01*
X61589646Y-83088458D01*
X61500121Y-83137829D01*
X61410669Y-83187130D01*
X61322532Y-83235676D01*
X61236952Y-83282782D01*
X61155173Y-83327762D01*
X61078437Y-83369931D01*
X61007987Y-83408604D01*
X60945067Y-83443095D01*
X60890918Y-83472720D01*
X60846783Y-83496793D01*
X60813906Y-83514629D01*
X60793529Y-83525543D01*
X60787038Y-83528839D01*
X60783996Y-83528732D01*
X60781452Y-83524979D01*
X60779361Y-83516233D01*
X60777679Y-83501151D01*
X60776365Y-83478388D01*
X60775373Y-83446598D01*
X60774661Y-83404438D01*
X60774184Y-83350561D01*
X60773900Y-83283623D01*
X60773764Y-83202280D01*
X60773733Y-83117787D01*
X60773733Y-82701630D01*
X60792783Y-82682706D01*
X60806970Y-82671879D01*
X60832137Y-82655743D01*
X60865103Y-82636052D01*
X60902688Y-82614562D01*
X60941710Y-82593026D01*
X60978991Y-82573201D01*
X61011348Y-82556840D01*
X61035603Y-82545700D01*
X61048573Y-82541534D01*
X61048640Y-82541533D01*
X61053493Y-82543602D01*
X61056988Y-82551325D01*
X61059334Y-82566983D01*
X61060744Y-82592853D01*
X61061429Y-82631213D01*
X61061600Y-82681233D01*
X61061900Y-82727725D01*
X61062732Y-82767664D01*
X61063990Y-82798260D01*
X61065570Y-82816721D01*
X61066848Y-82820933D01*
X61075565Y-82817043D01*
X61096727Y-82806209D01*
X61127961Y-82789688D01*
X61166894Y-82768735D01*
X61211156Y-82744606D01*
X61214782Y-82742616D01*
X61357469Y-82664300D01*
X61357701Y-82524367D01*
X61358142Y-82468546D01*
X61359378Y-82427305D01*
X61361595Y-82398301D01*
X61364982Y-82379193D01*
X61369724Y-82367637D01*
X61370282Y-82366804D01*
X61382158Y-82356226D01*
X61405374Y-82340427D01*
X61436886Y-82321067D01*
X61473652Y-82299807D01*
X61512627Y-82278308D01*
X61550771Y-82258230D01*
X61585038Y-82241234D01*
X61612386Y-82228982D01*
X61629773Y-82223133D01*
X61633644Y-82223070D01*
X61638345Y-82227828D01*
X61641709Y-82239441D01*
X61643935Y-82260175D01*
X61645216Y-82292295D01*
X61645751Y-82338067D01*
X61645800Y-82363467D01*
X61646174Y-82409221D01*
X61647207Y-82448349D01*
X61648767Y-82478031D01*
X61650722Y-82495445D01*
X61652150Y-82498849D01*
X61661202Y-82494784D01*
X61682589Y-82483681D01*
X61713906Y-82466837D01*
X61752746Y-82445545D01*
X61796704Y-82421099D01*
X61798200Y-82420262D01*
X61937900Y-82342025D01*
X61942133Y-82196521D01*
X61944008Y-82141266D01*
X61946126Y-82100555D01*
X61948756Y-82072000D01*
X61952165Y-82053211D01*
X61956622Y-82041800D01*
X61959982Y-82037429D01*
X61971708Y-82028915D01*
X61995530Y-82013969D01*
X62028668Y-81994254D01*
X62068344Y-81971431D01*
X62099682Y-81953851D01*
X62225767Y-81883861D01*
X62227962Y-82307445D01*
G36*
X63106109Y-82367640D02*
X63126011Y-82378576D01*
X63156273Y-82395300D01*
X63194678Y-82416589D01*
X63239010Y-82441216D01*
X63249842Y-82447241D01*
X63399953Y-82530749D01*
X63398805Y-82673390D01*
X63398304Y-82720596D01*
X63397640Y-82761467D01*
X63396877Y-82793184D01*
X63396080Y-82812930D01*
X63395491Y-82818198D01*
X63387767Y-82814998D01*
X63367527Y-82804803D01*
X63337070Y-82788822D01*
X63298695Y-82768261D01*
X63254699Y-82744328D01*
X63249812Y-82741650D01*
X63106300Y-82662936D01*
X63102067Y-82513321D01*
X63100753Y-82465121D01*
X63099713Y-82423377D01*
X63099005Y-82390785D01*
X63098689Y-82370038D01*
X63098782Y-82363720D01*
X63106109Y-82367640D01*
X63106109Y-82367640D01*
G37*
X63106109Y-82367640D02*
X63126011Y-82378576D01*
X63156273Y-82395300D01*
X63194678Y-82416589D01*
X63239010Y-82441216D01*
X63249842Y-82447241D01*
X63399953Y-82530749D01*
X63398805Y-82673390D01*
X63398304Y-82720596D01*
X63397640Y-82761467D01*
X63396877Y-82793184D01*
X63396080Y-82812930D01*
X63395491Y-82818198D01*
X63387767Y-82814998D01*
X63367527Y-82804803D01*
X63337070Y-82788822D01*
X63298695Y-82768261D01*
X63254699Y-82744328D01*
X63249812Y-82741650D01*
X63106300Y-82662936D01*
X63102067Y-82513321D01*
X63100753Y-82465121D01*
X63099713Y-82423377D01*
X63099005Y-82390785D01*
X63098689Y-82370038D01*
X63098782Y-82363720D01*
X63106109Y-82367640D01*
G36*
X62522855Y-82045934D02*
X62543829Y-82056930D01*
X62575097Y-82073777D01*
X62614417Y-82095263D01*
X62659548Y-82120180D01*
X62674568Y-82128522D01*
X62732807Y-82161467D01*
X62776227Y-82187301D01*
X62805250Y-82206299D01*
X62820297Y-82218731D01*
X62822386Y-82224371D01*
X62819582Y-82235690D01*
X62816920Y-82260800D01*
X62814625Y-82296561D01*
X62812919Y-82339830D01*
X62812306Y-82366124D01*
X62809966Y-82498549D01*
X62668150Y-82420642D01*
X62526333Y-82342735D01*
X62526333Y-82214085D01*
X62525802Y-82167385D01*
X62524339Y-82125222D01*
X62522142Y-82091197D01*
X62519409Y-82068909D01*
X62518076Y-82063718D01*
X62513536Y-82048022D01*
X62514414Y-82042000D01*
X62522855Y-82045934D01*
X62522855Y-82045934D01*
G37*
X62522855Y-82045934D02*
X62543829Y-82056930D01*
X62575097Y-82073777D01*
X62614417Y-82095263D01*
X62659548Y-82120180D01*
X62674568Y-82128522D01*
X62732807Y-82161467D01*
X62776227Y-82187301D01*
X62805250Y-82206299D01*
X62820297Y-82218731D01*
X62822386Y-82224371D01*
X62819582Y-82235690D01*
X62816920Y-82260800D01*
X62814625Y-82296561D01*
X62812919Y-82339830D01*
X62812306Y-82366124D01*
X62809966Y-82498549D01*
X62668150Y-82420642D01*
X62526333Y-82342735D01*
X62526333Y-82214085D01*
X62525802Y-82167385D01*
X62524339Y-82125222D01*
X62522142Y-82091197D01*
X62519409Y-82068909D01*
X62518076Y-82063718D01*
X62513536Y-82048022D01*
X62514414Y-82042000D01*
X62522855Y-82045934D01*
G04 #@! TO.C,Y1*
D11*
X54858809Y-91416190D02*
X54858809Y-91892380D01*
X54525476Y-90892380D02*
X54858809Y-91416190D01*
X55192142Y-90892380D01*
X56049285Y-91892380D02*
X55477857Y-91892380D01*
X55763571Y-91892380D02*
X55763571Y-90892380D01*
X55668333Y-91035238D01*
X55573095Y-91130476D01*
X55477857Y-91178095D01*
G04 #@! TO.C,U1*
X61468095Y-99002380D02*
X61468095Y-99811904D01*
X61515714Y-99907142D01*
X61563333Y-99954761D01*
X61658571Y-100002380D01*
X61849047Y-100002380D01*
X61944285Y-99954761D01*
X61991904Y-99907142D01*
X62039523Y-99811904D01*
X62039523Y-99002380D01*
X63039523Y-100002380D02*
X62468095Y-100002380D01*
X62753809Y-100002380D02*
X62753809Y-99002380D01*
X62658571Y-99145238D01*
X62563333Y-99240476D01*
X62468095Y-99288095D01*
G04 #@! TD*
M02*
