G04 #@! TF.GenerationSoftware,KiCad,Pcbnew,5.0.2-bee76a0~70~ubuntu18.04.1*
G04 #@! TF.CreationDate,2019-07-23T10:59:54+02:00*
G04 #@! TF.ProjectId,stm32f205,73746d33-3266-4323-9035-2e6b69636164,rev?*
G04 #@! TF.SameCoordinates,Original*
G04 #@! TF.FileFunction,Soldermask,Top*
G04 #@! TF.FilePolarity,Negative*
%FSLAX46Y46*%
G04 Gerber Fmt 4.6, Leading zero omitted, Abs format (unit mm)*
G04 Created by KiCad (PCBNEW 5.0.2-bee76a0~70~ubuntu18.04.1) date mar. 23 juil. 2019 10:59:54 CEST*
%MOMM*%
%LPD*%
G01*
G04 APERTURE LIST*
%ADD10C,0.100000*%
G04 APERTURE END LIST*
D10*
G36*
X63666630Y-154102299D02*
X63826855Y-154150903D01*
X63974520Y-154229831D01*
X64103949Y-154336051D01*
X64210169Y-154465480D01*
X64289097Y-154613145D01*
X64337701Y-154773370D01*
X64354112Y-154940000D01*
X64337701Y-155106630D01*
X64289097Y-155266855D01*
X64210169Y-155414520D01*
X64103949Y-155543949D01*
X63974520Y-155650169D01*
X63826855Y-155729097D01*
X63666630Y-155777701D01*
X63541752Y-155790000D01*
X63458248Y-155790000D01*
X63333370Y-155777701D01*
X63173145Y-155729097D01*
X63025480Y-155650169D01*
X62896051Y-155543949D01*
X62789831Y-155414520D01*
X62710903Y-155266855D01*
X62662299Y-155106630D01*
X62645888Y-154940000D01*
X62662299Y-154773370D01*
X62710903Y-154613145D01*
X62789831Y-154465480D01*
X62896051Y-154336051D01*
X63025480Y-154229831D01*
X63173145Y-154150903D01*
X63333370Y-154102299D01*
X63458248Y-154090000D01*
X63541752Y-154090000D01*
X63666630Y-154102299D01*
X63666630Y-154102299D01*
G37*
G36*
X71286630Y-154102299D02*
X71446855Y-154150903D01*
X71594520Y-154229831D01*
X71723949Y-154336051D01*
X71830169Y-154465480D01*
X71909097Y-154613145D01*
X71957701Y-154773370D01*
X71974112Y-154940000D01*
X71957701Y-155106630D01*
X71909097Y-155266855D01*
X71830169Y-155414520D01*
X71723949Y-155543949D01*
X71594520Y-155650169D01*
X71446855Y-155729097D01*
X71286630Y-155777701D01*
X71161752Y-155790000D01*
X71078248Y-155790000D01*
X70953370Y-155777701D01*
X70793145Y-155729097D01*
X70645480Y-155650169D01*
X70516051Y-155543949D01*
X70409831Y-155414520D01*
X70330903Y-155266855D01*
X70282299Y-155106630D01*
X70265888Y-154940000D01*
X70282299Y-154773370D01*
X70330903Y-154613145D01*
X70409831Y-154465480D01*
X70516051Y-154336051D01*
X70645480Y-154229831D01*
X70793145Y-154150903D01*
X70953370Y-154102299D01*
X71078248Y-154090000D01*
X71161752Y-154090000D01*
X71286630Y-154102299D01*
X71286630Y-154102299D01*
G37*
G36*
X73826630Y-154102299D02*
X73986855Y-154150903D01*
X74134520Y-154229831D01*
X74263949Y-154336051D01*
X74370169Y-154465480D01*
X74449097Y-154613145D01*
X74497701Y-154773370D01*
X74514112Y-154940000D01*
X74497701Y-155106630D01*
X74449097Y-155266855D01*
X74370169Y-155414520D01*
X74263949Y-155543949D01*
X74134520Y-155650169D01*
X73986855Y-155729097D01*
X73826630Y-155777701D01*
X73701752Y-155790000D01*
X73618248Y-155790000D01*
X73493370Y-155777701D01*
X73333145Y-155729097D01*
X73185480Y-155650169D01*
X73056051Y-155543949D01*
X72949831Y-155414520D01*
X72870903Y-155266855D01*
X72822299Y-155106630D01*
X72805888Y-154940000D01*
X72822299Y-154773370D01*
X72870903Y-154613145D01*
X72949831Y-154465480D01*
X73056051Y-154336051D01*
X73185480Y-154229831D01*
X73333145Y-154150903D01*
X73493370Y-154102299D01*
X73618248Y-154090000D01*
X73701752Y-154090000D01*
X73826630Y-154102299D01*
X73826630Y-154102299D01*
G37*
G36*
X68746630Y-154102299D02*
X68906855Y-154150903D01*
X69054520Y-154229831D01*
X69183949Y-154336051D01*
X69290169Y-154465480D01*
X69369097Y-154613145D01*
X69417701Y-154773370D01*
X69434112Y-154940000D01*
X69417701Y-155106630D01*
X69369097Y-155266855D01*
X69290169Y-155414520D01*
X69183949Y-155543949D01*
X69054520Y-155650169D01*
X68906855Y-155729097D01*
X68746630Y-155777701D01*
X68621752Y-155790000D01*
X68538248Y-155790000D01*
X68413370Y-155777701D01*
X68253145Y-155729097D01*
X68105480Y-155650169D01*
X67976051Y-155543949D01*
X67869831Y-155414520D01*
X67790903Y-155266855D01*
X67742299Y-155106630D01*
X67725888Y-154940000D01*
X67742299Y-154773370D01*
X67790903Y-154613145D01*
X67869831Y-154465480D01*
X67976051Y-154336051D01*
X68105480Y-154229831D01*
X68253145Y-154150903D01*
X68413370Y-154102299D01*
X68538248Y-154090000D01*
X68621752Y-154090000D01*
X68746630Y-154102299D01*
X68746630Y-154102299D01*
G37*
G36*
X66206630Y-154102299D02*
X66366855Y-154150903D01*
X66514520Y-154229831D01*
X66643949Y-154336051D01*
X66750169Y-154465480D01*
X66829097Y-154613145D01*
X66877701Y-154773370D01*
X66894112Y-154940000D01*
X66877701Y-155106630D01*
X66829097Y-155266855D01*
X66750169Y-155414520D01*
X66643949Y-155543949D01*
X66514520Y-155650169D01*
X66366855Y-155729097D01*
X66206630Y-155777701D01*
X66081752Y-155790000D01*
X65998248Y-155790000D01*
X65873370Y-155777701D01*
X65713145Y-155729097D01*
X65565480Y-155650169D01*
X65436051Y-155543949D01*
X65329831Y-155414520D01*
X65250903Y-155266855D01*
X65202299Y-155106630D01*
X65185888Y-154940000D01*
X65202299Y-154773370D01*
X65250903Y-154613145D01*
X65329831Y-154465480D01*
X65436051Y-154336051D01*
X65565480Y-154229831D01*
X65713145Y-154150903D01*
X65873370Y-154102299D01*
X65998248Y-154090000D01*
X66081752Y-154090000D01*
X66206630Y-154102299D01*
X66206630Y-154102299D01*
G37*
G36*
X51650000Y-155790000D02*
X49950000Y-155790000D01*
X49950000Y-154090000D01*
X51650000Y-154090000D01*
X51650000Y-155790000D01*
X51650000Y-155790000D01*
G37*
G36*
X56046630Y-154102299D02*
X56206855Y-154150903D01*
X56354520Y-154229831D01*
X56483949Y-154336051D01*
X56590169Y-154465480D01*
X56669097Y-154613145D01*
X56717701Y-154773370D01*
X56734112Y-154940000D01*
X56717701Y-155106630D01*
X56669097Y-155266855D01*
X56590169Y-155414520D01*
X56483949Y-155543949D01*
X56354520Y-155650169D01*
X56206855Y-155729097D01*
X56046630Y-155777701D01*
X55921752Y-155790000D01*
X55838248Y-155790000D01*
X55713370Y-155777701D01*
X55553145Y-155729097D01*
X55405480Y-155650169D01*
X55276051Y-155543949D01*
X55169831Y-155414520D01*
X55090903Y-155266855D01*
X55042299Y-155106630D01*
X55025888Y-154940000D01*
X55042299Y-154773370D01*
X55090903Y-154613145D01*
X55169831Y-154465480D01*
X55276051Y-154336051D01*
X55405480Y-154229831D01*
X55553145Y-154150903D01*
X55713370Y-154102299D01*
X55838248Y-154090000D01*
X55921752Y-154090000D01*
X56046630Y-154102299D01*
X56046630Y-154102299D01*
G37*
G36*
X58586630Y-154102299D02*
X58746855Y-154150903D01*
X58894520Y-154229831D01*
X59023949Y-154336051D01*
X59130169Y-154465480D01*
X59209097Y-154613145D01*
X59257701Y-154773370D01*
X59274112Y-154940000D01*
X59257701Y-155106630D01*
X59209097Y-155266855D01*
X59130169Y-155414520D01*
X59023949Y-155543949D01*
X58894520Y-155650169D01*
X58746855Y-155729097D01*
X58586630Y-155777701D01*
X58461752Y-155790000D01*
X58378248Y-155790000D01*
X58253370Y-155777701D01*
X58093145Y-155729097D01*
X57945480Y-155650169D01*
X57816051Y-155543949D01*
X57709831Y-155414520D01*
X57630903Y-155266855D01*
X57582299Y-155106630D01*
X57565888Y-154940000D01*
X57582299Y-154773370D01*
X57630903Y-154613145D01*
X57709831Y-154465480D01*
X57816051Y-154336051D01*
X57945480Y-154229831D01*
X58093145Y-154150903D01*
X58253370Y-154102299D01*
X58378248Y-154090000D01*
X58461752Y-154090000D01*
X58586630Y-154102299D01*
X58586630Y-154102299D01*
G37*
G36*
X61126630Y-154102299D02*
X61286855Y-154150903D01*
X61434520Y-154229831D01*
X61563949Y-154336051D01*
X61670169Y-154465480D01*
X61749097Y-154613145D01*
X61797701Y-154773370D01*
X61814112Y-154940000D01*
X61797701Y-155106630D01*
X61749097Y-155266855D01*
X61670169Y-155414520D01*
X61563949Y-155543949D01*
X61434520Y-155650169D01*
X61286855Y-155729097D01*
X61126630Y-155777701D01*
X61001752Y-155790000D01*
X60918248Y-155790000D01*
X60793370Y-155777701D01*
X60633145Y-155729097D01*
X60485480Y-155650169D01*
X60356051Y-155543949D01*
X60249831Y-155414520D01*
X60170903Y-155266855D01*
X60122299Y-155106630D01*
X60105888Y-154940000D01*
X60122299Y-154773370D01*
X60170903Y-154613145D01*
X60249831Y-154465480D01*
X60356051Y-154336051D01*
X60485480Y-154229831D01*
X60633145Y-154150903D01*
X60793370Y-154102299D01*
X60918248Y-154090000D01*
X61001752Y-154090000D01*
X61126630Y-154102299D01*
X61126630Y-154102299D01*
G37*
G36*
X53506630Y-154102299D02*
X53666855Y-154150903D01*
X53814520Y-154229831D01*
X53943949Y-154336051D01*
X54050169Y-154465480D01*
X54129097Y-154613145D01*
X54177701Y-154773370D01*
X54194112Y-154940000D01*
X54177701Y-155106630D01*
X54129097Y-155266855D01*
X54050169Y-155414520D01*
X53943949Y-155543949D01*
X53814520Y-155650169D01*
X53666855Y-155729097D01*
X53506630Y-155777701D01*
X53381752Y-155790000D01*
X53298248Y-155790000D01*
X53173370Y-155777701D01*
X53013145Y-155729097D01*
X52865480Y-155650169D01*
X52736051Y-155543949D01*
X52629831Y-155414520D01*
X52550903Y-155266855D01*
X52502299Y-155106630D01*
X52485888Y-154940000D01*
X52502299Y-154773370D01*
X52550903Y-154613145D01*
X52629831Y-154465480D01*
X52736051Y-154336051D01*
X52865480Y-154229831D01*
X53013145Y-154150903D01*
X53173370Y-154102299D01*
X53298248Y-154090000D01*
X53381752Y-154090000D01*
X53506630Y-154102299D01*
X53506630Y-154102299D01*
G37*
G36*
X58586630Y-151562299D02*
X58746855Y-151610903D01*
X58894520Y-151689831D01*
X59023949Y-151796051D01*
X59130169Y-151925480D01*
X59209097Y-152073145D01*
X59257701Y-152233370D01*
X59274112Y-152400000D01*
X59257701Y-152566630D01*
X59209097Y-152726855D01*
X59130169Y-152874520D01*
X59023949Y-153003949D01*
X58894520Y-153110169D01*
X58746855Y-153189097D01*
X58586630Y-153237701D01*
X58461752Y-153250000D01*
X58378248Y-153250000D01*
X58253370Y-153237701D01*
X58093145Y-153189097D01*
X57945480Y-153110169D01*
X57816051Y-153003949D01*
X57709831Y-152874520D01*
X57630903Y-152726855D01*
X57582299Y-152566630D01*
X57565888Y-152400000D01*
X57582299Y-152233370D01*
X57630903Y-152073145D01*
X57709831Y-151925480D01*
X57816051Y-151796051D01*
X57945480Y-151689831D01*
X58093145Y-151610903D01*
X58253370Y-151562299D01*
X58378248Y-151550000D01*
X58461752Y-151550000D01*
X58586630Y-151562299D01*
X58586630Y-151562299D01*
G37*
G36*
X63666630Y-151562299D02*
X63826855Y-151610903D01*
X63974520Y-151689831D01*
X64103949Y-151796051D01*
X64210169Y-151925480D01*
X64289097Y-152073145D01*
X64337701Y-152233370D01*
X64354112Y-152400000D01*
X64337701Y-152566630D01*
X64289097Y-152726855D01*
X64210169Y-152874520D01*
X64103949Y-153003949D01*
X63974520Y-153110169D01*
X63826855Y-153189097D01*
X63666630Y-153237701D01*
X63541752Y-153250000D01*
X63458248Y-153250000D01*
X63333370Y-153237701D01*
X63173145Y-153189097D01*
X63025480Y-153110169D01*
X62896051Y-153003949D01*
X62789831Y-152874520D01*
X62710903Y-152726855D01*
X62662299Y-152566630D01*
X62645888Y-152400000D01*
X62662299Y-152233370D01*
X62710903Y-152073145D01*
X62789831Y-151925480D01*
X62896051Y-151796051D01*
X63025480Y-151689831D01*
X63173145Y-151610903D01*
X63333370Y-151562299D01*
X63458248Y-151550000D01*
X63541752Y-151550000D01*
X63666630Y-151562299D01*
X63666630Y-151562299D01*
G37*
G36*
X61126630Y-151562299D02*
X61286855Y-151610903D01*
X61434520Y-151689831D01*
X61563949Y-151796051D01*
X61670169Y-151925480D01*
X61749097Y-152073145D01*
X61797701Y-152233370D01*
X61814112Y-152400000D01*
X61797701Y-152566630D01*
X61749097Y-152726855D01*
X61670169Y-152874520D01*
X61563949Y-153003949D01*
X61434520Y-153110169D01*
X61286855Y-153189097D01*
X61126630Y-153237701D01*
X61001752Y-153250000D01*
X60918248Y-153250000D01*
X60793370Y-153237701D01*
X60633145Y-153189097D01*
X60485480Y-153110169D01*
X60356051Y-153003949D01*
X60249831Y-152874520D01*
X60170903Y-152726855D01*
X60122299Y-152566630D01*
X60105888Y-152400000D01*
X60122299Y-152233370D01*
X60170903Y-152073145D01*
X60249831Y-151925480D01*
X60356051Y-151796051D01*
X60485480Y-151689831D01*
X60633145Y-151610903D01*
X60793370Y-151562299D01*
X60918248Y-151550000D01*
X61001752Y-151550000D01*
X61126630Y-151562299D01*
X61126630Y-151562299D01*
G37*
G36*
X56046630Y-151562299D02*
X56206855Y-151610903D01*
X56354520Y-151689831D01*
X56483949Y-151796051D01*
X56590169Y-151925480D01*
X56669097Y-152073145D01*
X56717701Y-152233370D01*
X56734112Y-152400000D01*
X56717701Y-152566630D01*
X56669097Y-152726855D01*
X56590169Y-152874520D01*
X56483949Y-153003949D01*
X56354520Y-153110169D01*
X56206855Y-153189097D01*
X56046630Y-153237701D01*
X55921752Y-153250000D01*
X55838248Y-153250000D01*
X55713370Y-153237701D01*
X55553145Y-153189097D01*
X55405480Y-153110169D01*
X55276051Y-153003949D01*
X55169831Y-152874520D01*
X55090903Y-152726855D01*
X55042299Y-152566630D01*
X55025888Y-152400000D01*
X55042299Y-152233370D01*
X55090903Y-152073145D01*
X55169831Y-151925480D01*
X55276051Y-151796051D01*
X55405480Y-151689831D01*
X55553145Y-151610903D01*
X55713370Y-151562299D01*
X55838248Y-151550000D01*
X55921752Y-151550000D01*
X56046630Y-151562299D01*
X56046630Y-151562299D01*
G37*
G36*
X53506630Y-151562299D02*
X53666855Y-151610903D01*
X53814520Y-151689831D01*
X53943949Y-151796051D01*
X54050169Y-151925480D01*
X54129097Y-152073145D01*
X54177701Y-152233370D01*
X54194112Y-152400000D01*
X54177701Y-152566630D01*
X54129097Y-152726855D01*
X54050169Y-152874520D01*
X53943949Y-153003949D01*
X53814520Y-153110169D01*
X53666855Y-153189097D01*
X53506630Y-153237701D01*
X53381752Y-153250000D01*
X53298248Y-153250000D01*
X53173370Y-153237701D01*
X53013145Y-153189097D01*
X52865480Y-153110169D01*
X52736051Y-153003949D01*
X52629831Y-152874520D01*
X52550903Y-152726855D01*
X52502299Y-152566630D01*
X52485888Y-152400000D01*
X52502299Y-152233370D01*
X52550903Y-152073145D01*
X52629831Y-151925480D01*
X52736051Y-151796051D01*
X52865480Y-151689831D01*
X53013145Y-151610903D01*
X53173370Y-151562299D01*
X53298248Y-151550000D01*
X53381752Y-151550000D01*
X53506630Y-151562299D01*
X53506630Y-151562299D01*
G37*
G36*
X66206630Y-151562299D02*
X66366855Y-151610903D01*
X66514520Y-151689831D01*
X66643949Y-151796051D01*
X66750169Y-151925480D01*
X66829097Y-152073145D01*
X66877701Y-152233370D01*
X66894112Y-152400000D01*
X66877701Y-152566630D01*
X66829097Y-152726855D01*
X66750169Y-152874520D01*
X66643949Y-153003949D01*
X66514520Y-153110169D01*
X66366855Y-153189097D01*
X66206630Y-153237701D01*
X66081752Y-153250000D01*
X65998248Y-153250000D01*
X65873370Y-153237701D01*
X65713145Y-153189097D01*
X65565480Y-153110169D01*
X65436051Y-153003949D01*
X65329831Y-152874520D01*
X65250903Y-152726855D01*
X65202299Y-152566630D01*
X65185888Y-152400000D01*
X65202299Y-152233370D01*
X65250903Y-152073145D01*
X65329831Y-151925480D01*
X65436051Y-151796051D01*
X65565480Y-151689831D01*
X65713145Y-151610903D01*
X65873370Y-151562299D01*
X65998248Y-151550000D01*
X66081752Y-151550000D01*
X66206630Y-151562299D01*
X66206630Y-151562299D01*
G37*
G36*
X68746630Y-151562299D02*
X68906855Y-151610903D01*
X69054520Y-151689831D01*
X69183949Y-151796051D01*
X69290169Y-151925480D01*
X69369097Y-152073145D01*
X69417701Y-152233370D01*
X69434112Y-152400000D01*
X69417701Y-152566630D01*
X69369097Y-152726855D01*
X69290169Y-152874520D01*
X69183949Y-153003949D01*
X69054520Y-153110169D01*
X68906855Y-153189097D01*
X68746630Y-153237701D01*
X68621752Y-153250000D01*
X68538248Y-153250000D01*
X68413370Y-153237701D01*
X68253145Y-153189097D01*
X68105480Y-153110169D01*
X67976051Y-153003949D01*
X67869831Y-152874520D01*
X67790903Y-152726855D01*
X67742299Y-152566630D01*
X67725888Y-152400000D01*
X67742299Y-152233370D01*
X67790903Y-152073145D01*
X67869831Y-151925480D01*
X67976051Y-151796051D01*
X68105480Y-151689831D01*
X68253145Y-151610903D01*
X68413370Y-151562299D01*
X68538248Y-151550000D01*
X68621752Y-151550000D01*
X68746630Y-151562299D01*
X68746630Y-151562299D01*
G37*
G36*
X73826630Y-151562299D02*
X73986855Y-151610903D01*
X74134520Y-151689831D01*
X74263949Y-151796051D01*
X74370169Y-151925480D01*
X74449097Y-152073145D01*
X74497701Y-152233370D01*
X74514112Y-152400000D01*
X74497701Y-152566630D01*
X74449097Y-152726855D01*
X74370169Y-152874520D01*
X74263949Y-153003949D01*
X74134520Y-153110169D01*
X73986855Y-153189097D01*
X73826630Y-153237701D01*
X73701752Y-153250000D01*
X73618248Y-153250000D01*
X73493370Y-153237701D01*
X73333145Y-153189097D01*
X73185480Y-153110169D01*
X73056051Y-153003949D01*
X72949831Y-152874520D01*
X72870903Y-152726855D01*
X72822299Y-152566630D01*
X72805888Y-152400000D01*
X72822299Y-152233370D01*
X72870903Y-152073145D01*
X72949831Y-151925480D01*
X73056051Y-151796051D01*
X73185480Y-151689831D01*
X73333145Y-151610903D01*
X73493370Y-151562299D01*
X73618248Y-151550000D01*
X73701752Y-151550000D01*
X73826630Y-151562299D01*
X73826630Y-151562299D01*
G37*
G36*
X71286630Y-151562299D02*
X71446855Y-151610903D01*
X71594520Y-151689831D01*
X71723949Y-151796051D01*
X71830169Y-151925480D01*
X71909097Y-152073145D01*
X71957701Y-152233370D01*
X71974112Y-152400000D01*
X71957701Y-152566630D01*
X71909097Y-152726855D01*
X71830169Y-152874520D01*
X71723949Y-153003949D01*
X71594520Y-153110169D01*
X71446855Y-153189097D01*
X71286630Y-153237701D01*
X71161752Y-153250000D01*
X71078248Y-153250000D01*
X70953370Y-153237701D01*
X70793145Y-153189097D01*
X70645480Y-153110169D01*
X70516051Y-153003949D01*
X70409831Y-152874520D01*
X70330903Y-152726855D01*
X70282299Y-152566630D01*
X70265888Y-152400000D01*
X70282299Y-152233370D01*
X70330903Y-152073145D01*
X70409831Y-151925480D01*
X70516051Y-151796051D01*
X70645480Y-151689831D01*
X70793145Y-151610903D01*
X70953370Y-151562299D01*
X71078248Y-151550000D01*
X71161752Y-151550000D01*
X71286630Y-151562299D01*
X71286630Y-151562299D01*
G37*
G36*
X50966630Y-151562299D02*
X51126855Y-151610903D01*
X51274520Y-151689831D01*
X51403949Y-151796051D01*
X51510169Y-151925480D01*
X51589097Y-152073145D01*
X51637701Y-152233370D01*
X51654112Y-152400000D01*
X51637701Y-152566630D01*
X51589097Y-152726855D01*
X51510169Y-152874520D01*
X51403949Y-153003949D01*
X51274520Y-153110169D01*
X51126855Y-153189097D01*
X50966630Y-153237701D01*
X50841752Y-153250000D01*
X50758248Y-153250000D01*
X50633370Y-153237701D01*
X50473145Y-153189097D01*
X50325480Y-153110169D01*
X50196051Y-153003949D01*
X50089831Y-152874520D01*
X50010903Y-152726855D01*
X49962299Y-152566630D01*
X49945888Y-152400000D01*
X49962299Y-152233370D01*
X50010903Y-152073145D01*
X50089831Y-151925480D01*
X50196051Y-151796051D01*
X50325480Y-151689831D01*
X50473145Y-151610903D01*
X50633370Y-151562299D01*
X50758248Y-151550000D01*
X50841752Y-151550000D01*
X50966630Y-151562299D01*
X50966630Y-151562299D01*
G37*
G36*
X65155012Y-125373057D02*
X65264207Y-125418287D01*
X65362481Y-125483952D01*
X65446048Y-125567519D01*
X65511713Y-125665793D01*
X65556943Y-125774988D01*
X65580000Y-125890904D01*
X65580000Y-126009096D01*
X65556943Y-126125012D01*
X65511713Y-126234207D01*
X65446048Y-126332481D01*
X65362481Y-126416048D01*
X65264207Y-126481713D01*
X65155012Y-126526943D01*
X65039096Y-126550000D01*
X64920904Y-126550000D01*
X64804988Y-126526943D01*
X64695793Y-126481713D01*
X64597519Y-126416048D01*
X64513952Y-126332481D01*
X64448287Y-126234207D01*
X64403057Y-126125012D01*
X64380000Y-126009096D01*
X64380000Y-125890904D01*
X64403057Y-125774988D01*
X64448287Y-125665793D01*
X64513952Y-125567519D01*
X64597519Y-125483952D01*
X64695793Y-125418287D01*
X64804988Y-125373057D01*
X64920904Y-125350000D01*
X65039096Y-125350000D01*
X65155012Y-125373057D01*
X65155012Y-125373057D01*
G37*
G36*
X63655012Y-125373057D02*
X63764207Y-125418287D01*
X63862481Y-125483952D01*
X63946048Y-125567519D01*
X64011713Y-125665793D01*
X64056943Y-125774988D01*
X64080000Y-125890904D01*
X64080000Y-126009096D01*
X64056943Y-126125012D01*
X64011713Y-126234207D01*
X63946048Y-126332481D01*
X63862481Y-126416048D01*
X63764207Y-126481713D01*
X63655012Y-126526943D01*
X63539096Y-126550000D01*
X63420904Y-126550000D01*
X63304988Y-126526943D01*
X63195793Y-126481713D01*
X63097519Y-126416048D01*
X63013952Y-126332481D01*
X62948287Y-126234207D01*
X62903057Y-126125012D01*
X62880000Y-126009096D01*
X62880000Y-125890904D01*
X62903057Y-125774988D01*
X62948287Y-125665793D01*
X63013952Y-125567519D01*
X63097519Y-125483952D01*
X63195793Y-125418287D01*
X63304988Y-125373057D01*
X63420904Y-125350000D01*
X63539096Y-125350000D01*
X63655012Y-125373057D01*
X63655012Y-125373057D01*
G37*
G36*
X60655012Y-125373057D02*
X60764207Y-125418287D01*
X60862481Y-125483952D01*
X60946048Y-125567519D01*
X61011713Y-125665793D01*
X61056943Y-125774988D01*
X61080000Y-125890904D01*
X61080000Y-126009096D01*
X61056943Y-126125012D01*
X61011713Y-126234207D01*
X60946048Y-126332481D01*
X60862481Y-126416048D01*
X60764207Y-126481713D01*
X60655012Y-126526943D01*
X60539096Y-126550000D01*
X60420904Y-126550000D01*
X60304988Y-126526943D01*
X60195793Y-126481713D01*
X60097519Y-126416048D01*
X60013952Y-126332481D01*
X59948287Y-126234207D01*
X59903057Y-126125012D01*
X59880000Y-126009096D01*
X59880000Y-125890904D01*
X59903057Y-125774988D01*
X59948287Y-125665793D01*
X60013952Y-125567519D01*
X60097519Y-125483952D01*
X60195793Y-125418287D01*
X60304988Y-125373057D01*
X60420904Y-125350000D01*
X60539096Y-125350000D01*
X60655012Y-125373057D01*
X60655012Y-125373057D01*
G37*
G36*
X59155012Y-125373057D02*
X59264207Y-125418287D01*
X59362481Y-125483952D01*
X59446048Y-125567519D01*
X59511713Y-125665793D01*
X59556943Y-125774988D01*
X59580000Y-125890904D01*
X59580000Y-126009096D01*
X59556943Y-126125012D01*
X59511713Y-126234207D01*
X59446048Y-126332481D01*
X59362481Y-126416048D01*
X59264207Y-126481713D01*
X59155012Y-126526943D01*
X59039096Y-126550000D01*
X58920904Y-126550000D01*
X58804988Y-126526943D01*
X58695793Y-126481713D01*
X58597519Y-126416048D01*
X58513952Y-126332481D01*
X58448287Y-126234207D01*
X58403057Y-126125012D01*
X58380000Y-126009096D01*
X58380000Y-125890904D01*
X58403057Y-125774988D01*
X58448287Y-125665793D01*
X58513952Y-125567519D01*
X58597519Y-125483952D01*
X58695793Y-125418287D01*
X58804988Y-125373057D01*
X58920904Y-125350000D01*
X59039096Y-125350000D01*
X59155012Y-125373057D01*
X59155012Y-125373057D01*
G37*
G36*
X62155012Y-125373057D02*
X62264207Y-125418287D01*
X62362481Y-125483952D01*
X62446048Y-125567519D01*
X62511713Y-125665793D01*
X62556943Y-125774988D01*
X62580000Y-125890904D01*
X62580000Y-126009096D01*
X62556943Y-126125012D01*
X62511713Y-126234207D01*
X62446048Y-126332481D01*
X62362481Y-126416048D01*
X62264207Y-126481713D01*
X62155012Y-126526943D01*
X62039096Y-126550000D01*
X61920904Y-126550000D01*
X61804988Y-126526943D01*
X61695793Y-126481713D01*
X61597519Y-126416048D01*
X61513952Y-126332481D01*
X61448287Y-126234207D01*
X61403057Y-126125012D01*
X61380000Y-126009096D01*
X61380000Y-125890904D01*
X61403057Y-125774988D01*
X61448287Y-125665793D01*
X61513952Y-125567519D01*
X61597519Y-125483952D01*
X61695793Y-125418287D01*
X61804988Y-125373057D01*
X61920904Y-125350000D01*
X62039096Y-125350000D01*
X62155012Y-125373057D01*
X62155012Y-125373057D01*
G37*
G36*
X64655012Y-123373057D02*
X64764207Y-123418287D01*
X64862481Y-123483952D01*
X64946048Y-123567519D01*
X65011713Y-123665793D01*
X65056943Y-123774988D01*
X65080000Y-123890904D01*
X65080000Y-124009096D01*
X65056943Y-124125012D01*
X65011713Y-124234207D01*
X64946048Y-124332481D01*
X64862481Y-124416048D01*
X64764207Y-124481713D01*
X64655012Y-124526943D01*
X64539096Y-124550000D01*
X64420904Y-124550000D01*
X64304988Y-124526943D01*
X64195793Y-124481713D01*
X64097519Y-124416048D01*
X64013952Y-124332481D01*
X63948287Y-124234207D01*
X63903057Y-124125012D01*
X63880000Y-124009096D01*
X63880000Y-123890904D01*
X63903057Y-123774988D01*
X63948287Y-123665793D01*
X64013952Y-123567519D01*
X64097519Y-123483952D01*
X64195793Y-123418287D01*
X64304988Y-123373057D01*
X64420904Y-123350000D01*
X64539096Y-123350000D01*
X64655012Y-123373057D01*
X64655012Y-123373057D01*
G37*
G36*
X61655012Y-123373057D02*
X61764207Y-123418287D01*
X61862481Y-123483952D01*
X61946048Y-123567519D01*
X62011713Y-123665793D01*
X62056943Y-123774988D01*
X62080000Y-123890904D01*
X62080000Y-124009096D01*
X62056943Y-124125012D01*
X62011713Y-124234207D01*
X61946048Y-124332481D01*
X61862481Y-124416048D01*
X61764207Y-124481713D01*
X61655012Y-124526943D01*
X61539096Y-124550000D01*
X61420904Y-124550000D01*
X61304988Y-124526943D01*
X61195793Y-124481713D01*
X61097519Y-124416048D01*
X61013952Y-124332481D01*
X60948287Y-124234207D01*
X60903057Y-124125012D01*
X60880000Y-124009096D01*
X60880000Y-123890904D01*
X60903057Y-123774988D01*
X60948287Y-123665793D01*
X61013952Y-123567519D01*
X61097519Y-123483952D01*
X61195793Y-123418287D01*
X61304988Y-123373057D01*
X61420904Y-123350000D01*
X61539096Y-123350000D01*
X61655012Y-123373057D01*
X61655012Y-123373057D01*
G37*
G36*
X63155012Y-123373057D02*
X63264207Y-123418287D01*
X63362481Y-123483952D01*
X63446048Y-123567519D01*
X63511713Y-123665793D01*
X63556943Y-123774988D01*
X63580000Y-123890904D01*
X63580000Y-124009096D01*
X63556943Y-124125012D01*
X63511713Y-124234207D01*
X63446048Y-124332481D01*
X63362481Y-124416048D01*
X63264207Y-124481713D01*
X63155012Y-124526943D01*
X63039096Y-124550000D01*
X62920904Y-124550000D01*
X62804988Y-124526943D01*
X62695793Y-124481713D01*
X62597519Y-124416048D01*
X62513952Y-124332481D01*
X62448287Y-124234207D01*
X62403057Y-124125012D01*
X62380000Y-124009096D01*
X62380000Y-123890904D01*
X62403057Y-123774988D01*
X62448287Y-123665793D01*
X62513952Y-123567519D01*
X62597519Y-123483952D01*
X62695793Y-123418287D01*
X62804988Y-123373057D01*
X62920904Y-123350000D01*
X63039096Y-123350000D01*
X63155012Y-123373057D01*
X63155012Y-123373057D01*
G37*
G36*
X66155012Y-123373057D02*
X66264207Y-123418287D01*
X66362481Y-123483952D01*
X66446048Y-123567519D01*
X66511713Y-123665793D01*
X66556943Y-123774988D01*
X66580000Y-123890904D01*
X66580000Y-124009096D01*
X66556943Y-124125012D01*
X66511713Y-124234207D01*
X66446048Y-124332481D01*
X66362481Y-124416048D01*
X66264207Y-124481713D01*
X66155012Y-124526943D01*
X66039096Y-124550000D01*
X65920904Y-124550000D01*
X65804988Y-124526943D01*
X65695793Y-124481713D01*
X65597519Y-124416048D01*
X65513952Y-124332481D01*
X65448287Y-124234207D01*
X65403057Y-124125012D01*
X65380000Y-124009096D01*
X65380000Y-123890904D01*
X65403057Y-123774988D01*
X65448287Y-123665793D01*
X65513952Y-123567519D01*
X65597519Y-123483952D01*
X65695793Y-123418287D01*
X65804988Y-123373057D01*
X65920904Y-123350000D01*
X66039096Y-123350000D01*
X66155012Y-123373057D01*
X66155012Y-123373057D01*
G37*
G36*
X60155012Y-123373057D02*
X60264207Y-123418287D01*
X60362481Y-123483952D01*
X60446048Y-123567519D01*
X60511713Y-123665793D01*
X60556943Y-123774988D01*
X60580000Y-123890904D01*
X60580000Y-124009096D01*
X60556943Y-124125012D01*
X60511713Y-124234207D01*
X60446048Y-124332481D01*
X60362481Y-124416048D01*
X60264207Y-124481713D01*
X60155012Y-124526943D01*
X60039096Y-124550000D01*
X59920904Y-124550000D01*
X59804988Y-124526943D01*
X59695793Y-124481713D01*
X59597519Y-124416048D01*
X59513952Y-124332481D01*
X59448287Y-124234207D01*
X59403057Y-124125012D01*
X59380000Y-124009096D01*
X59380000Y-123890904D01*
X59403057Y-123774988D01*
X59448287Y-123665793D01*
X59513952Y-123567519D01*
X59597519Y-123483952D01*
X59695793Y-123418287D01*
X59804988Y-123373057D01*
X59920904Y-123350000D01*
X60039096Y-123350000D01*
X60155012Y-123373057D01*
X60155012Y-123373057D01*
G37*
G36*
X58655012Y-123373057D02*
X58764207Y-123418287D01*
X58862481Y-123483952D01*
X58946048Y-123567519D01*
X59011713Y-123665793D01*
X59056943Y-123774988D01*
X59080000Y-123890904D01*
X59080000Y-124009096D01*
X59056943Y-124125012D01*
X59011713Y-124234207D01*
X58946048Y-124332481D01*
X58862481Y-124416048D01*
X58764207Y-124481713D01*
X58655012Y-124526943D01*
X58539096Y-124550000D01*
X58420904Y-124550000D01*
X58304988Y-124526943D01*
X58195793Y-124481713D01*
X58097519Y-124416048D01*
X58013952Y-124332481D01*
X57948287Y-124234207D01*
X57903057Y-124125012D01*
X57880000Y-124009096D01*
X57880000Y-123890904D01*
X57903057Y-123774988D01*
X57948287Y-123665793D01*
X58013952Y-123567519D01*
X58097519Y-123483952D01*
X58195793Y-123418287D01*
X58304988Y-123373057D01*
X58420904Y-123350000D01*
X58539096Y-123350000D01*
X58655012Y-123373057D01*
X58655012Y-123373057D01*
G37*
G36*
X61155012Y-121373057D02*
X61264207Y-121418287D01*
X61362481Y-121483952D01*
X61446048Y-121567519D01*
X61511713Y-121665793D01*
X61556943Y-121774988D01*
X61580000Y-121890904D01*
X61580000Y-122009096D01*
X61556943Y-122125012D01*
X61511713Y-122234207D01*
X61446048Y-122332481D01*
X61362481Y-122416048D01*
X61264207Y-122481713D01*
X61155012Y-122526943D01*
X61039096Y-122550000D01*
X60920904Y-122550000D01*
X60804988Y-122526943D01*
X60695793Y-122481713D01*
X60597519Y-122416048D01*
X60513952Y-122332481D01*
X60448287Y-122234207D01*
X60403057Y-122125012D01*
X60380000Y-122009096D01*
X60380000Y-121890904D01*
X60403057Y-121774988D01*
X60448287Y-121665793D01*
X60513952Y-121567519D01*
X60597519Y-121483952D01*
X60695793Y-121418287D01*
X60804988Y-121373057D01*
X60920904Y-121350000D01*
X61039096Y-121350000D01*
X61155012Y-121373057D01*
X61155012Y-121373057D01*
G37*
G36*
X65655012Y-121373057D02*
X65764207Y-121418287D01*
X65862481Y-121483952D01*
X65946048Y-121567519D01*
X66011713Y-121665793D01*
X66056943Y-121774988D01*
X66080000Y-121890904D01*
X66080000Y-122009096D01*
X66056943Y-122125012D01*
X66011713Y-122234207D01*
X65946048Y-122332481D01*
X65862481Y-122416048D01*
X65764207Y-122481713D01*
X65655012Y-122526943D01*
X65539096Y-122550000D01*
X65420904Y-122550000D01*
X65304988Y-122526943D01*
X65195793Y-122481713D01*
X65097519Y-122416048D01*
X65013952Y-122332481D01*
X64948287Y-122234207D01*
X64903057Y-122125012D01*
X64880000Y-122009096D01*
X64880000Y-121890904D01*
X64903057Y-121774988D01*
X64948287Y-121665793D01*
X65013952Y-121567519D01*
X65097519Y-121483952D01*
X65195793Y-121418287D01*
X65304988Y-121373057D01*
X65420904Y-121350000D01*
X65539096Y-121350000D01*
X65655012Y-121373057D01*
X65655012Y-121373057D01*
G37*
G36*
X64155012Y-121373057D02*
X64264207Y-121418287D01*
X64362481Y-121483952D01*
X64446048Y-121567519D01*
X64511713Y-121665793D01*
X64556943Y-121774988D01*
X64580000Y-121890904D01*
X64580000Y-122009096D01*
X64556943Y-122125012D01*
X64511713Y-122234207D01*
X64446048Y-122332481D01*
X64362481Y-122416048D01*
X64264207Y-122481713D01*
X64155012Y-122526943D01*
X64039096Y-122550000D01*
X63920904Y-122550000D01*
X63804988Y-122526943D01*
X63695793Y-122481713D01*
X63597519Y-122416048D01*
X63513952Y-122332481D01*
X63448287Y-122234207D01*
X63403057Y-122125012D01*
X63380000Y-122009096D01*
X63380000Y-121890904D01*
X63403057Y-121774988D01*
X63448287Y-121665793D01*
X63513952Y-121567519D01*
X63597519Y-121483952D01*
X63695793Y-121418287D01*
X63804988Y-121373057D01*
X63920904Y-121350000D01*
X64039096Y-121350000D01*
X64155012Y-121373057D01*
X64155012Y-121373057D01*
G37*
G36*
X62655012Y-121373057D02*
X62764207Y-121418287D01*
X62862481Y-121483952D01*
X62946048Y-121567519D01*
X63011713Y-121665793D01*
X63056943Y-121774988D01*
X63080000Y-121890904D01*
X63080000Y-122009096D01*
X63056943Y-122125012D01*
X63011713Y-122234207D01*
X62946048Y-122332481D01*
X62862481Y-122416048D01*
X62764207Y-122481713D01*
X62655012Y-122526943D01*
X62539096Y-122550000D01*
X62420904Y-122550000D01*
X62304988Y-122526943D01*
X62195793Y-122481713D01*
X62097519Y-122416048D01*
X62013952Y-122332481D01*
X61948287Y-122234207D01*
X61903057Y-122125012D01*
X61880000Y-122009096D01*
X61880000Y-121890904D01*
X61903057Y-121774988D01*
X61948287Y-121665793D01*
X62013952Y-121567519D01*
X62097519Y-121483952D01*
X62195793Y-121418287D01*
X62304988Y-121373057D01*
X62420904Y-121350000D01*
X62539096Y-121350000D01*
X62655012Y-121373057D01*
X62655012Y-121373057D01*
G37*
G36*
X59655012Y-121373057D02*
X59764207Y-121418287D01*
X59862481Y-121483952D01*
X59946048Y-121567519D01*
X60011713Y-121665793D01*
X60056943Y-121774988D01*
X60080000Y-121890904D01*
X60080000Y-122009096D01*
X60056943Y-122125012D01*
X60011713Y-122234207D01*
X59946048Y-122332481D01*
X59862481Y-122416048D01*
X59764207Y-122481713D01*
X59655012Y-122526943D01*
X59539096Y-122550000D01*
X59420904Y-122550000D01*
X59304988Y-122526943D01*
X59195793Y-122481713D01*
X59097519Y-122416048D01*
X59013952Y-122332481D01*
X58948287Y-122234207D01*
X58903057Y-122125012D01*
X58880000Y-122009096D01*
X58880000Y-121890904D01*
X58903057Y-121774988D01*
X58948287Y-121665793D01*
X59013952Y-121567519D01*
X59097519Y-121483952D01*
X59195793Y-121418287D01*
X59304988Y-121373057D01*
X59420904Y-121350000D01*
X59539096Y-121350000D01*
X59655012Y-121373057D01*
X59655012Y-121373057D01*
G37*
G36*
X55763352Y-120230743D02*
X55908941Y-120291048D01*
X56039973Y-120378601D01*
X56151399Y-120490027D01*
X56238952Y-120621059D01*
X56299257Y-120766648D01*
X56330000Y-120921205D01*
X56330000Y-121078795D01*
X56299257Y-121233352D01*
X56238952Y-121378941D01*
X56151399Y-121509973D01*
X56039973Y-121621399D01*
X55908941Y-121708952D01*
X55763352Y-121769257D01*
X55608795Y-121800000D01*
X55451205Y-121800000D01*
X55296648Y-121769257D01*
X55151059Y-121708952D01*
X55020027Y-121621399D01*
X54908601Y-121509973D01*
X54821048Y-121378941D01*
X54760743Y-121233352D01*
X54730000Y-121078795D01*
X54730000Y-120921205D01*
X54760743Y-120766648D01*
X54821048Y-120621059D01*
X54908601Y-120490027D01*
X55020027Y-120378601D01*
X55151059Y-120291048D01*
X55296648Y-120230743D01*
X55451205Y-120200000D01*
X55608795Y-120200000D01*
X55763352Y-120230743D01*
X55763352Y-120230743D01*
G37*
G36*
X50755012Y-117473057D02*
X50864207Y-117518287D01*
X50962481Y-117583952D01*
X51046048Y-117667519D01*
X51111713Y-117765793D01*
X51156943Y-117874988D01*
X51180000Y-117990904D01*
X51180000Y-118109096D01*
X51156943Y-118225012D01*
X51111713Y-118334207D01*
X51046048Y-118432481D01*
X50962481Y-118516048D01*
X50864207Y-118581713D01*
X50755012Y-118626943D01*
X50639096Y-118650000D01*
X50520904Y-118650000D01*
X50404988Y-118626943D01*
X50295793Y-118581713D01*
X50197519Y-118516048D01*
X50113952Y-118432481D01*
X50048287Y-118334207D01*
X50003057Y-118225012D01*
X49980000Y-118109096D01*
X49980000Y-117990904D01*
X50003057Y-117874988D01*
X50048287Y-117765793D01*
X50113952Y-117667519D01*
X50197519Y-117583952D01*
X50295793Y-117518287D01*
X50404988Y-117473057D01*
X50520904Y-117450000D01*
X50639096Y-117450000D01*
X50755012Y-117473057D01*
X50755012Y-117473057D01*
G37*
G36*
X70055012Y-117473057D02*
X70164207Y-117518287D01*
X70262481Y-117583952D01*
X70346048Y-117667519D01*
X70411713Y-117765793D01*
X70456943Y-117874988D01*
X70480000Y-117990904D01*
X70480000Y-118109096D01*
X70456943Y-118225012D01*
X70411713Y-118334207D01*
X70346048Y-118432481D01*
X70262481Y-118516048D01*
X70164207Y-118581713D01*
X70055012Y-118626943D01*
X69939096Y-118650000D01*
X69820904Y-118650000D01*
X69704988Y-118626943D01*
X69595793Y-118581713D01*
X69497519Y-118516048D01*
X69413952Y-118432481D01*
X69348287Y-118334207D01*
X69303057Y-118225012D01*
X69280000Y-118109096D01*
X69280000Y-117990904D01*
X69303057Y-117874988D01*
X69348287Y-117765793D01*
X69413952Y-117667519D01*
X69497519Y-117583952D01*
X69595793Y-117518287D01*
X69704988Y-117473057D01*
X69820904Y-117450000D01*
X69939096Y-117450000D01*
X70055012Y-117473057D01*
X70055012Y-117473057D01*
G37*
G36*
X52755012Y-116973057D02*
X52864207Y-117018287D01*
X52962481Y-117083952D01*
X53046048Y-117167519D01*
X53111713Y-117265793D01*
X53156943Y-117374988D01*
X53180000Y-117490904D01*
X53180000Y-117609096D01*
X53156943Y-117725012D01*
X53111713Y-117834207D01*
X53046048Y-117932481D01*
X52962481Y-118016048D01*
X52864207Y-118081713D01*
X52755012Y-118126943D01*
X52639096Y-118150000D01*
X52520904Y-118150000D01*
X52404988Y-118126943D01*
X52295793Y-118081713D01*
X52197519Y-118016048D01*
X52113952Y-117932481D01*
X52048287Y-117834207D01*
X52003057Y-117725012D01*
X51980000Y-117609096D01*
X51980000Y-117490904D01*
X52003057Y-117374988D01*
X52048287Y-117265793D01*
X52113952Y-117167519D01*
X52197519Y-117083952D01*
X52295793Y-117018287D01*
X52404988Y-116973057D01*
X52520904Y-116950000D01*
X52639096Y-116950000D01*
X52755012Y-116973057D01*
X52755012Y-116973057D01*
G37*
G36*
X72055012Y-116973057D02*
X72164207Y-117018287D01*
X72262481Y-117083952D01*
X72346048Y-117167519D01*
X72411713Y-117265793D01*
X72456943Y-117374988D01*
X72480000Y-117490904D01*
X72480000Y-117609096D01*
X72456943Y-117725012D01*
X72411713Y-117834207D01*
X72346048Y-117932481D01*
X72262481Y-118016048D01*
X72164207Y-118081713D01*
X72055012Y-118126943D01*
X71939096Y-118150000D01*
X71820904Y-118150000D01*
X71704988Y-118126943D01*
X71595793Y-118081713D01*
X71497519Y-118016048D01*
X71413952Y-117932481D01*
X71348287Y-117834207D01*
X71303057Y-117725012D01*
X71280000Y-117609096D01*
X71280000Y-117490904D01*
X71303057Y-117374988D01*
X71348287Y-117265793D01*
X71413952Y-117167519D01*
X71497519Y-117083952D01*
X71595793Y-117018287D01*
X71704988Y-116973057D01*
X71820904Y-116950000D01*
X71939096Y-116950000D01*
X72055012Y-116973057D01*
X72055012Y-116973057D01*
G37*
G36*
X74055012Y-116473057D02*
X74164207Y-116518287D01*
X74262481Y-116583952D01*
X74346048Y-116667519D01*
X74411713Y-116765793D01*
X74456943Y-116874988D01*
X74480000Y-116990904D01*
X74480000Y-117109096D01*
X74456943Y-117225012D01*
X74411713Y-117334207D01*
X74346048Y-117432481D01*
X74262481Y-117516048D01*
X74164207Y-117581713D01*
X74055012Y-117626943D01*
X73939096Y-117650000D01*
X73820904Y-117650000D01*
X73704988Y-117626943D01*
X73595793Y-117581713D01*
X73497519Y-117516048D01*
X73413952Y-117432481D01*
X73348287Y-117334207D01*
X73303057Y-117225012D01*
X73280000Y-117109096D01*
X73280000Y-116990904D01*
X73303057Y-116874988D01*
X73348287Y-116765793D01*
X73413952Y-116667519D01*
X73497519Y-116583952D01*
X73595793Y-116518287D01*
X73704988Y-116473057D01*
X73820904Y-116450000D01*
X73939096Y-116450000D01*
X74055012Y-116473057D01*
X74055012Y-116473057D01*
G37*
G36*
X54755012Y-116473057D02*
X54864207Y-116518287D01*
X54962481Y-116583952D01*
X55046048Y-116667519D01*
X55111713Y-116765793D01*
X55156943Y-116874988D01*
X55180000Y-116990904D01*
X55180000Y-117109096D01*
X55156943Y-117225012D01*
X55111713Y-117334207D01*
X55046048Y-117432481D01*
X54962481Y-117516048D01*
X54864207Y-117581713D01*
X54755012Y-117626943D01*
X54639096Y-117650000D01*
X54520904Y-117650000D01*
X54404988Y-117626943D01*
X54295793Y-117581713D01*
X54197519Y-117516048D01*
X54113952Y-117432481D01*
X54048287Y-117334207D01*
X54003057Y-117225012D01*
X53980000Y-117109096D01*
X53980000Y-116990904D01*
X54003057Y-116874988D01*
X54048287Y-116765793D01*
X54113952Y-116667519D01*
X54197519Y-116583952D01*
X54295793Y-116518287D01*
X54404988Y-116473057D01*
X54520904Y-116450000D01*
X54639096Y-116450000D01*
X54755012Y-116473057D01*
X54755012Y-116473057D01*
G37*
G36*
X50755012Y-115973057D02*
X50864207Y-116018287D01*
X50962481Y-116083952D01*
X51046048Y-116167519D01*
X51111713Y-116265793D01*
X51156943Y-116374988D01*
X51180000Y-116490904D01*
X51180000Y-116609096D01*
X51156943Y-116725012D01*
X51111713Y-116834207D01*
X51046048Y-116932481D01*
X50962481Y-117016048D01*
X50864207Y-117081713D01*
X50755012Y-117126943D01*
X50639096Y-117150000D01*
X50520904Y-117150000D01*
X50404988Y-117126943D01*
X50295793Y-117081713D01*
X50197519Y-117016048D01*
X50113952Y-116932481D01*
X50048287Y-116834207D01*
X50003057Y-116725012D01*
X49980000Y-116609096D01*
X49980000Y-116490904D01*
X50003057Y-116374988D01*
X50048287Y-116265793D01*
X50113952Y-116167519D01*
X50197519Y-116083952D01*
X50295793Y-116018287D01*
X50404988Y-115973057D01*
X50520904Y-115950000D01*
X50639096Y-115950000D01*
X50755012Y-115973057D01*
X50755012Y-115973057D01*
G37*
G36*
X70055012Y-115973057D02*
X70164207Y-116018287D01*
X70262481Y-116083952D01*
X70346048Y-116167519D01*
X70411713Y-116265793D01*
X70456943Y-116374988D01*
X70480000Y-116490904D01*
X70480000Y-116609096D01*
X70456943Y-116725012D01*
X70411713Y-116834207D01*
X70346048Y-116932481D01*
X70262481Y-117016048D01*
X70164207Y-117081713D01*
X70055012Y-117126943D01*
X69939096Y-117150000D01*
X69820904Y-117150000D01*
X69704988Y-117126943D01*
X69595793Y-117081713D01*
X69497519Y-117016048D01*
X69413952Y-116932481D01*
X69348287Y-116834207D01*
X69303057Y-116725012D01*
X69280000Y-116609096D01*
X69280000Y-116490904D01*
X69303057Y-116374988D01*
X69348287Y-116265793D01*
X69413952Y-116167519D01*
X69497519Y-116083952D01*
X69595793Y-116018287D01*
X69704988Y-115973057D01*
X69820904Y-115950000D01*
X69939096Y-115950000D01*
X70055012Y-115973057D01*
X70055012Y-115973057D01*
G37*
G36*
X72055012Y-115473057D02*
X72164207Y-115518287D01*
X72262481Y-115583952D01*
X72346048Y-115667519D01*
X72411713Y-115765793D01*
X72456943Y-115874988D01*
X72480000Y-115990904D01*
X72480000Y-116109096D01*
X72456943Y-116225012D01*
X72411713Y-116334207D01*
X72346048Y-116432481D01*
X72262481Y-116516048D01*
X72164207Y-116581713D01*
X72055012Y-116626943D01*
X71939096Y-116650000D01*
X71820904Y-116650000D01*
X71704988Y-116626943D01*
X71595793Y-116581713D01*
X71497519Y-116516048D01*
X71413952Y-116432481D01*
X71348287Y-116334207D01*
X71303057Y-116225012D01*
X71280000Y-116109096D01*
X71280000Y-115990904D01*
X71303057Y-115874988D01*
X71348287Y-115765793D01*
X71413952Y-115667519D01*
X71497519Y-115583952D01*
X71595793Y-115518287D01*
X71704988Y-115473057D01*
X71820904Y-115450000D01*
X71939096Y-115450000D01*
X72055012Y-115473057D01*
X72055012Y-115473057D01*
G37*
G36*
X52755012Y-115473057D02*
X52864207Y-115518287D01*
X52962481Y-115583952D01*
X53046048Y-115667519D01*
X53111713Y-115765793D01*
X53156943Y-115874988D01*
X53180000Y-115990904D01*
X53180000Y-116109096D01*
X53156943Y-116225012D01*
X53111713Y-116334207D01*
X53046048Y-116432481D01*
X52962481Y-116516048D01*
X52864207Y-116581713D01*
X52755012Y-116626943D01*
X52639096Y-116650000D01*
X52520904Y-116650000D01*
X52404988Y-116626943D01*
X52295793Y-116581713D01*
X52197519Y-116516048D01*
X52113952Y-116432481D01*
X52048287Y-116334207D01*
X52003057Y-116225012D01*
X51980000Y-116109096D01*
X51980000Y-115990904D01*
X52003057Y-115874988D01*
X52048287Y-115765793D01*
X52113952Y-115667519D01*
X52197519Y-115583952D01*
X52295793Y-115518287D01*
X52404988Y-115473057D01*
X52520904Y-115450000D01*
X52639096Y-115450000D01*
X52755012Y-115473057D01*
X52755012Y-115473057D01*
G37*
G36*
X54755012Y-114973057D02*
X54864207Y-115018287D01*
X54962481Y-115083952D01*
X55046048Y-115167519D01*
X55111713Y-115265793D01*
X55156943Y-115374988D01*
X55180000Y-115490904D01*
X55180000Y-115609096D01*
X55156943Y-115725012D01*
X55111713Y-115834207D01*
X55046048Y-115932481D01*
X54962481Y-116016048D01*
X54864207Y-116081713D01*
X54755012Y-116126943D01*
X54639096Y-116150000D01*
X54520904Y-116150000D01*
X54404988Y-116126943D01*
X54295793Y-116081713D01*
X54197519Y-116016048D01*
X54113952Y-115932481D01*
X54048287Y-115834207D01*
X54003057Y-115725012D01*
X53980000Y-115609096D01*
X53980000Y-115490904D01*
X54003057Y-115374988D01*
X54048287Y-115265793D01*
X54113952Y-115167519D01*
X54197519Y-115083952D01*
X54295793Y-115018287D01*
X54404988Y-114973057D01*
X54520904Y-114950000D01*
X54639096Y-114950000D01*
X54755012Y-114973057D01*
X54755012Y-114973057D01*
G37*
G36*
X74055012Y-114973057D02*
X74164207Y-115018287D01*
X74262481Y-115083952D01*
X74346048Y-115167519D01*
X74411713Y-115265793D01*
X74456943Y-115374988D01*
X74480000Y-115490904D01*
X74480000Y-115609096D01*
X74456943Y-115725012D01*
X74411713Y-115834207D01*
X74346048Y-115932481D01*
X74262481Y-116016048D01*
X74164207Y-116081713D01*
X74055012Y-116126943D01*
X73939096Y-116150000D01*
X73820904Y-116150000D01*
X73704988Y-116126943D01*
X73595793Y-116081713D01*
X73497519Y-116016048D01*
X73413952Y-115932481D01*
X73348287Y-115834207D01*
X73303057Y-115725012D01*
X73280000Y-115609096D01*
X73280000Y-115490904D01*
X73303057Y-115374988D01*
X73348287Y-115265793D01*
X73413952Y-115167519D01*
X73497519Y-115083952D01*
X73595793Y-115018287D01*
X73704988Y-114973057D01*
X73820904Y-114950000D01*
X73939096Y-114950000D01*
X74055012Y-114973057D01*
X74055012Y-114973057D01*
G37*
G36*
X62703992Y-112737447D02*
X62703994Y-112737448D01*
X62703995Y-112737448D01*
X62999726Y-112859943D01*
X63169014Y-112973058D01*
X63265880Y-113037782D01*
X63492218Y-113264120D01*
X63492220Y-113264123D01*
X63670057Y-113530274D01*
X63792552Y-113826005D01*
X63792553Y-113826008D01*
X63855000Y-114139950D01*
X63855000Y-114460050D01*
X63794184Y-114765793D01*
X63792552Y-114773995D01*
X63670057Y-115069726D01*
X63539049Y-115265793D01*
X63492218Y-115335880D01*
X63265880Y-115562218D01*
X63265877Y-115562220D01*
X62999726Y-115740057D01*
X62703995Y-115862552D01*
X62703994Y-115862552D01*
X62703992Y-115862553D01*
X62390050Y-115925000D01*
X62069950Y-115925000D01*
X61756008Y-115862553D01*
X61756006Y-115862552D01*
X61756005Y-115862552D01*
X61460274Y-115740057D01*
X61194123Y-115562220D01*
X61194120Y-115562218D01*
X60967782Y-115335880D01*
X60920951Y-115265793D01*
X60789943Y-115069726D01*
X60667448Y-114773995D01*
X60665817Y-114765793D01*
X60605000Y-114460050D01*
X60605000Y-114139950D01*
X60667447Y-113826008D01*
X60667448Y-113826005D01*
X60789943Y-113530274D01*
X60967780Y-113264123D01*
X60967782Y-113264120D01*
X61194120Y-113037782D01*
X61290986Y-112973058D01*
X61460274Y-112859943D01*
X61756005Y-112737448D01*
X61756006Y-112737448D01*
X61756008Y-112737447D01*
X62069950Y-112675000D01*
X62390050Y-112675000D01*
X62703992Y-112737447D01*
X62703992Y-112737447D01*
G37*
G36*
X70055012Y-114473057D02*
X70164207Y-114518287D01*
X70262481Y-114583952D01*
X70346048Y-114667519D01*
X70411713Y-114765793D01*
X70456943Y-114874988D01*
X70480000Y-114990904D01*
X70480000Y-115109096D01*
X70456943Y-115225012D01*
X70411713Y-115334207D01*
X70346048Y-115432481D01*
X70262481Y-115516048D01*
X70164207Y-115581713D01*
X70055012Y-115626943D01*
X69939096Y-115650000D01*
X69820904Y-115650000D01*
X69704988Y-115626943D01*
X69595793Y-115581713D01*
X69497519Y-115516048D01*
X69413952Y-115432481D01*
X69348287Y-115334207D01*
X69303057Y-115225012D01*
X69280000Y-115109096D01*
X69280000Y-114990904D01*
X69303057Y-114874988D01*
X69348287Y-114765793D01*
X69413952Y-114667519D01*
X69497519Y-114583952D01*
X69595793Y-114518287D01*
X69704988Y-114473057D01*
X69820904Y-114450000D01*
X69939096Y-114450000D01*
X70055012Y-114473057D01*
X70055012Y-114473057D01*
G37*
G36*
X50755012Y-114473057D02*
X50864207Y-114518287D01*
X50962481Y-114583952D01*
X51046048Y-114667519D01*
X51111713Y-114765793D01*
X51156943Y-114874988D01*
X51180000Y-114990904D01*
X51180000Y-115109096D01*
X51156943Y-115225012D01*
X51111713Y-115334207D01*
X51046048Y-115432481D01*
X50962481Y-115516048D01*
X50864207Y-115581713D01*
X50755012Y-115626943D01*
X50639096Y-115650000D01*
X50520904Y-115650000D01*
X50404988Y-115626943D01*
X50295793Y-115581713D01*
X50197519Y-115516048D01*
X50113952Y-115432481D01*
X50048287Y-115334207D01*
X50003057Y-115225012D01*
X49980000Y-115109096D01*
X49980000Y-114990904D01*
X50003057Y-114874988D01*
X50048287Y-114765793D01*
X50113952Y-114667519D01*
X50197519Y-114583952D01*
X50295793Y-114518287D01*
X50404988Y-114473057D01*
X50520904Y-114450000D01*
X50639096Y-114450000D01*
X50755012Y-114473057D01*
X50755012Y-114473057D01*
G37*
G36*
X52755012Y-113973057D02*
X52864207Y-114018287D01*
X52962481Y-114083952D01*
X53046048Y-114167519D01*
X53111713Y-114265793D01*
X53156943Y-114374988D01*
X53180000Y-114490904D01*
X53180000Y-114609096D01*
X53156943Y-114725012D01*
X53111713Y-114834207D01*
X53046048Y-114932481D01*
X52962481Y-115016048D01*
X52864207Y-115081713D01*
X52755012Y-115126943D01*
X52639096Y-115150000D01*
X52520904Y-115150000D01*
X52404988Y-115126943D01*
X52295793Y-115081713D01*
X52197519Y-115016048D01*
X52113952Y-114932481D01*
X52048287Y-114834207D01*
X52003057Y-114725012D01*
X51980000Y-114609096D01*
X51980000Y-114490904D01*
X52003057Y-114374988D01*
X52048287Y-114265793D01*
X52113952Y-114167519D01*
X52197519Y-114083952D01*
X52295793Y-114018287D01*
X52404988Y-113973057D01*
X52520904Y-113950000D01*
X52639096Y-113950000D01*
X52755012Y-113973057D01*
X52755012Y-113973057D01*
G37*
G36*
X72055012Y-113973057D02*
X72164207Y-114018287D01*
X72262481Y-114083952D01*
X72346048Y-114167519D01*
X72411713Y-114265793D01*
X72456943Y-114374988D01*
X72480000Y-114490904D01*
X72480000Y-114609096D01*
X72456943Y-114725012D01*
X72411713Y-114834207D01*
X72346048Y-114932481D01*
X72262481Y-115016048D01*
X72164207Y-115081713D01*
X72055012Y-115126943D01*
X71939096Y-115150000D01*
X71820904Y-115150000D01*
X71704988Y-115126943D01*
X71595793Y-115081713D01*
X71497519Y-115016048D01*
X71413952Y-114932481D01*
X71348287Y-114834207D01*
X71303057Y-114725012D01*
X71280000Y-114609096D01*
X71280000Y-114490904D01*
X71303057Y-114374988D01*
X71348287Y-114265793D01*
X71413952Y-114167519D01*
X71497519Y-114083952D01*
X71595793Y-114018287D01*
X71704988Y-113973057D01*
X71820904Y-113950000D01*
X71939096Y-113950000D01*
X72055012Y-113973057D01*
X72055012Y-113973057D01*
G37*
G36*
X74055012Y-113473057D02*
X74164207Y-113518287D01*
X74262481Y-113583952D01*
X74346048Y-113667519D01*
X74411713Y-113765793D01*
X74456943Y-113874988D01*
X74480000Y-113990904D01*
X74480000Y-114109096D01*
X74456943Y-114225012D01*
X74411713Y-114334207D01*
X74346048Y-114432481D01*
X74262481Y-114516048D01*
X74164207Y-114581713D01*
X74055012Y-114626943D01*
X73939096Y-114650000D01*
X73820904Y-114650000D01*
X73704988Y-114626943D01*
X73595793Y-114581713D01*
X73497519Y-114516048D01*
X73413952Y-114432481D01*
X73348287Y-114334207D01*
X73303057Y-114225012D01*
X73280000Y-114109096D01*
X73280000Y-113990904D01*
X73303057Y-113874988D01*
X73348287Y-113765793D01*
X73413952Y-113667519D01*
X73497519Y-113583952D01*
X73595793Y-113518287D01*
X73704988Y-113473057D01*
X73820904Y-113450000D01*
X73939096Y-113450000D01*
X74055012Y-113473057D01*
X74055012Y-113473057D01*
G37*
G36*
X54755012Y-113473057D02*
X54864207Y-113518287D01*
X54962481Y-113583952D01*
X55046048Y-113667519D01*
X55111713Y-113765793D01*
X55156943Y-113874988D01*
X55180000Y-113990904D01*
X55180000Y-114109096D01*
X55156943Y-114225012D01*
X55111713Y-114334207D01*
X55046048Y-114432481D01*
X54962481Y-114516048D01*
X54864207Y-114581713D01*
X54755012Y-114626943D01*
X54639096Y-114650000D01*
X54520904Y-114650000D01*
X54404988Y-114626943D01*
X54295793Y-114581713D01*
X54197519Y-114516048D01*
X54113952Y-114432481D01*
X54048287Y-114334207D01*
X54003057Y-114225012D01*
X53980000Y-114109096D01*
X53980000Y-113990904D01*
X54003057Y-113874988D01*
X54048287Y-113765793D01*
X54113952Y-113667519D01*
X54197519Y-113583952D01*
X54295793Y-113518287D01*
X54404988Y-113473057D01*
X54520904Y-113450000D01*
X54639096Y-113450000D01*
X54755012Y-113473057D01*
X54755012Y-113473057D01*
G37*
G36*
X50755012Y-112973057D02*
X50864207Y-113018287D01*
X50962481Y-113083952D01*
X51046048Y-113167519D01*
X51111713Y-113265793D01*
X51156943Y-113374988D01*
X51180000Y-113490904D01*
X51180000Y-113609096D01*
X51156943Y-113725012D01*
X51111713Y-113834207D01*
X51046048Y-113932481D01*
X50962481Y-114016048D01*
X50864207Y-114081713D01*
X50755012Y-114126943D01*
X50639096Y-114150000D01*
X50520904Y-114150000D01*
X50404988Y-114126943D01*
X50295793Y-114081713D01*
X50197519Y-114016048D01*
X50113952Y-113932481D01*
X50048287Y-113834207D01*
X50003057Y-113725012D01*
X49980000Y-113609096D01*
X49980000Y-113490904D01*
X50003057Y-113374988D01*
X50048287Y-113265793D01*
X50113952Y-113167519D01*
X50197519Y-113083952D01*
X50295793Y-113018287D01*
X50404988Y-112973057D01*
X50520904Y-112950000D01*
X50639096Y-112950000D01*
X50755012Y-112973057D01*
X50755012Y-112973057D01*
G37*
G36*
X70055012Y-112973057D02*
X70164207Y-113018287D01*
X70262481Y-113083952D01*
X70346048Y-113167519D01*
X70411713Y-113265793D01*
X70456943Y-113374988D01*
X70480000Y-113490904D01*
X70480000Y-113609096D01*
X70456943Y-113725012D01*
X70411713Y-113834207D01*
X70346048Y-113932481D01*
X70262481Y-114016048D01*
X70164207Y-114081713D01*
X70055012Y-114126943D01*
X69939096Y-114150000D01*
X69820904Y-114150000D01*
X69704988Y-114126943D01*
X69595793Y-114081713D01*
X69497519Y-114016048D01*
X69413952Y-113932481D01*
X69348287Y-113834207D01*
X69303057Y-113725012D01*
X69280000Y-113609096D01*
X69280000Y-113490904D01*
X69303057Y-113374988D01*
X69348287Y-113265793D01*
X69413952Y-113167519D01*
X69497519Y-113083952D01*
X69595793Y-113018287D01*
X69704988Y-112973057D01*
X69820904Y-112950000D01*
X69939096Y-112950000D01*
X70055012Y-112973057D01*
X70055012Y-112973057D01*
G37*
G36*
X52755012Y-112473057D02*
X52864207Y-112518287D01*
X52962481Y-112583952D01*
X53046048Y-112667519D01*
X53111713Y-112765793D01*
X53156943Y-112874988D01*
X53180000Y-112990904D01*
X53180000Y-113109096D01*
X53156943Y-113225012D01*
X53111713Y-113334207D01*
X53046048Y-113432481D01*
X52962481Y-113516048D01*
X52864207Y-113581713D01*
X52755012Y-113626943D01*
X52639096Y-113650000D01*
X52520904Y-113650000D01*
X52404988Y-113626943D01*
X52295793Y-113581713D01*
X52197519Y-113516048D01*
X52113952Y-113432481D01*
X52048287Y-113334207D01*
X52003057Y-113225012D01*
X51980000Y-113109096D01*
X51980000Y-112990904D01*
X52003057Y-112874988D01*
X52048287Y-112765793D01*
X52113952Y-112667519D01*
X52197519Y-112583952D01*
X52295793Y-112518287D01*
X52404988Y-112473057D01*
X52520904Y-112450000D01*
X52639096Y-112450000D01*
X52755012Y-112473057D01*
X52755012Y-112473057D01*
G37*
G36*
X72055012Y-112473057D02*
X72164207Y-112518287D01*
X72262481Y-112583952D01*
X72346048Y-112667519D01*
X72411713Y-112765793D01*
X72456943Y-112874988D01*
X72480000Y-112990904D01*
X72480000Y-113109096D01*
X72456943Y-113225012D01*
X72411713Y-113334207D01*
X72346048Y-113432481D01*
X72262481Y-113516048D01*
X72164207Y-113581713D01*
X72055012Y-113626943D01*
X71939096Y-113650000D01*
X71820904Y-113650000D01*
X71704988Y-113626943D01*
X71595793Y-113581713D01*
X71497519Y-113516048D01*
X71413952Y-113432481D01*
X71348287Y-113334207D01*
X71303057Y-113225012D01*
X71280000Y-113109096D01*
X71280000Y-112990904D01*
X71303057Y-112874988D01*
X71348287Y-112765793D01*
X71413952Y-112667519D01*
X71497519Y-112583952D01*
X71595793Y-112518287D01*
X71704988Y-112473057D01*
X71820904Y-112450000D01*
X71939096Y-112450000D01*
X72055012Y-112473057D01*
X72055012Y-112473057D01*
G37*
G36*
X74055012Y-111973057D02*
X74164207Y-112018287D01*
X74262481Y-112083952D01*
X74346048Y-112167519D01*
X74411713Y-112265793D01*
X74456943Y-112374988D01*
X74480000Y-112490904D01*
X74480000Y-112609096D01*
X74456943Y-112725012D01*
X74411713Y-112834207D01*
X74346048Y-112932481D01*
X74262481Y-113016048D01*
X74164207Y-113081713D01*
X74055012Y-113126943D01*
X73939096Y-113150000D01*
X73820904Y-113150000D01*
X73704988Y-113126943D01*
X73595793Y-113081713D01*
X73497519Y-113016048D01*
X73413952Y-112932481D01*
X73348287Y-112834207D01*
X73303057Y-112725012D01*
X73280000Y-112609096D01*
X73280000Y-112490904D01*
X73303057Y-112374988D01*
X73348287Y-112265793D01*
X73413952Y-112167519D01*
X73497519Y-112083952D01*
X73595793Y-112018287D01*
X73704988Y-111973057D01*
X73820904Y-111950000D01*
X73939096Y-111950000D01*
X74055012Y-111973057D01*
X74055012Y-111973057D01*
G37*
G36*
X54755012Y-111973057D02*
X54864207Y-112018287D01*
X54962481Y-112083952D01*
X55046048Y-112167519D01*
X55111713Y-112265793D01*
X55156943Y-112374988D01*
X55180000Y-112490904D01*
X55180000Y-112609096D01*
X55156943Y-112725012D01*
X55111713Y-112834207D01*
X55046048Y-112932481D01*
X54962481Y-113016048D01*
X54864207Y-113081713D01*
X54755012Y-113126943D01*
X54639096Y-113150000D01*
X54520904Y-113150000D01*
X54404988Y-113126943D01*
X54295793Y-113081713D01*
X54197519Y-113016048D01*
X54113952Y-112932481D01*
X54048287Y-112834207D01*
X54003057Y-112725012D01*
X53980000Y-112609096D01*
X53980000Y-112490904D01*
X54003057Y-112374988D01*
X54048287Y-112265793D01*
X54113952Y-112167519D01*
X54197519Y-112083952D01*
X54295793Y-112018287D01*
X54404988Y-111973057D01*
X54520904Y-111950000D01*
X54639096Y-111950000D01*
X54755012Y-111973057D01*
X54755012Y-111973057D01*
G37*
G36*
X50755012Y-111473057D02*
X50864207Y-111518287D01*
X50962481Y-111583952D01*
X51046048Y-111667519D01*
X51111713Y-111765793D01*
X51156943Y-111874988D01*
X51180000Y-111990904D01*
X51180000Y-112109096D01*
X51156943Y-112225012D01*
X51111713Y-112334207D01*
X51046048Y-112432481D01*
X50962481Y-112516048D01*
X50864207Y-112581713D01*
X50755012Y-112626943D01*
X50639096Y-112650000D01*
X50520904Y-112650000D01*
X50404988Y-112626943D01*
X50295793Y-112581713D01*
X50197519Y-112516048D01*
X50113952Y-112432481D01*
X50048287Y-112334207D01*
X50003057Y-112225012D01*
X49980000Y-112109096D01*
X49980000Y-111990904D01*
X50003057Y-111874988D01*
X50048287Y-111765793D01*
X50113952Y-111667519D01*
X50197519Y-111583952D01*
X50295793Y-111518287D01*
X50404988Y-111473057D01*
X50520904Y-111450000D01*
X50639096Y-111450000D01*
X50755012Y-111473057D01*
X50755012Y-111473057D01*
G37*
G36*
X70055012Y-111473057D02*
X70164207Y-111518287D01*
X70262481Y-111583952D01*
X70346048Y-111667519D01*
X70411713Y-111765793D01*
X70456943Y-111874988D01*
X70480000Y-111990904D01*
X70480000Y-112109096D01*
X70456943Y-112225012D01*
X70411713Y-112334207D01*
X70346048Y-112432481D01*
X70262481Y-112516048D01*
X70164207Y-112581713D01*
X70055012Y-112626943D01*
X69939096Y-112650000D01*
X69820904Y-112650000D01*
X69704988Y-112626943D01*
X69595793Y-112581713D01*
X69497519Y-112516048D01*
X69413952Y-112432481D01*
X69348287Y-112334207D01*
X69303057Y-112225012D01*
X69280000Y-112109096D01*
X69280000Y-111990904D01*
X69303057Y-111874988D01*
X69348287Y-111765793D01*
X69413952Y-111667519D01*
X69497519Y-111583952D01*
X69595793Y-111518287D01*
X69704988Y-111473057D01*
X69820904Y-111450000D01*
X69939096Y-111450000D01*
X70055012Y-111473057D01*
X70055012Y-111473057D01*
G37*
G36*
X72055012Y-110973057D02*
X72164207Y-111018287D01*
X72262481Y-111083952D01*
X72346048Y-111167519D01*
X72411713Y-111265793D01*
X72456943Y-111374988D01*
X72480000Y-111490904D01*
X72480000Y-111609096D01*
X72456943Y-111725012D01*
X72411713Y-111834207D01*
X72346048Y-111932481D01*
X72262481Y-112016048D01*
X72164207Y-112081713D01*
X72055012Y-112126943D01*
X71939096Y-112150000D01*
X71820904Y-112150000D01*
X71704988Y-112126943D01*
X71595793Y-112081713D01*
X71497519Y-112016048D01*
X71413952Y-111932481D01*
X71348287Y-111834207D01*
X71303057Y-111725012D01*
X71280000Y-111609096D01*
X71280000Y-111490904D01*
X71303057Y-111374988D01*
X71348287Y-111265793D01*
X71413952Y-111167519D01*
X71497519Y-111083952D01*
X71595793Y-111018287D01*
X71704988Y-110973057D01*
X71820904Y-110950000D01*
X71939096Y-110950000D01*
X72055012Y-110973057D01*
X72055012Y-110973057D01*
G37*
G36*
X52755012Y-110973057D02*
X52864207Y-111018287D01*
X52962481Y-111083952D01*
X53046048Y-111167519D01*
X53111713Y-111265793D01*
X53156943Y-111374988D01*
X53180000Y-111490904D01*
X53180000Y-111609096D01*
X53156943Y-111725012D01*
X53111713Y-111834207D01*
X53046048Y-111932481D01*
X52962481Y-112016048D01*
X52864207Y-112081713D01*
X52755012Y-112126943D01*
X52639096Y-112150000D01*
X52520904Y-112150000D01*
X52404988Y-112126943D01*
X52295793Y-112081713D01*
X52197519Y-112016048D01*
X52113952Y-111932481D01*
X52048287Y-111834207D01*
X52003057Y-111725012D01*
X51980000Y-111609096D01*
X51980000Y-111490904D01*
X52003057Y-111374988D01*
X52048287Y-111265793D01*
X52113952Y-111167519D01*
X52197519Y-111083952D01*
X52295793Y-111018287D01*
X52404988Y-110973057D01*
X52520904Y-110950000D01*
X52639096Y-110950000D01*
X52755012Y-110973057D01*
X52755012Y-110973057D01*
G37*
G36*
X74055012Y-110473057D02*
X74164207Y-110518287D01*
X74262481Y-110583952D01*
X74346048Y-110667519D01*
X74411713Y-110765793D01*
X74456943Y-110874988D01*
X74480000Y-110990904D01*
X74480000Y-111109096D01*
X74456943Y-111225012D01*
X74411713Y-111334207D01*
X74346048Y-111432481D01*
X74262481Y-111516048D01*
X74164207Y-111581713D01*
X74055012Y-111626943D01*
X73939096Y-111650000D01*
X73820904Y-111650000D01*
X73704988Y-111626943D01*
X73595793Y-111581713D01*
X73497519Y-111516048D01*
X73413952Y-111432481D01*
X73348287Y-111334207D01*
X73303057Y-111225012D01*
X73280000Y-111109096D01*
X73280000Y-110990904D01*
X73303057Y-110874988D01*
X73348287Y-110765793D01*
X73413952Y-110667519D01*
X73497519Y-110583952D01*
X73595793Y-110518287D01*
X73704988Y-110473057D01*
X73820904Y-110450000D01*
X73939096Y-110450000D01*
X74055012Y-110473057D01*
X74055012Y-110473057D01*
G37*
G36*
X54755012Y-110473057D02*
X54864207Y-110518287D01*
X54962481Y-110583952D01*
X55046048Y-110667519D01*
X55111713Y-110765793D01*
X55156943Y-110874988D01*
X55180000Y-110990904D01*
X55180000Y-111109096D01*
X55156943Y-111225012D01*
X55111713Y-111334207D01*
X55046048Y-111432481D01*
X54962481Y-111516048D01*
X54864207Y-111581713D01*
X54755012Y-111626943D01*
X54639096Y-111650000D01*
X54520904Y-111650000D01*
X54404988Y-111626943D01*
X54295793Y-111581713D01*
X54197519Y-111516048D01*
X54113952Y-111432481D01*
X54048287Y-111334207D01*
X54003057Y-111225012D01*
X53980000Y-111109096D01*
X53980000Y-110990904D01*
X54003057Y-110874988D01*
X54048287Y-110765793D01*
X54113952Y-110667519D01*
X54197519Y-110583952D01*
X54295793Y-110518287D01*
X54404988Y-110473057D01*
X54520904Y-110450000D01*
X54639096Y-110450000D01*
X54755012Y-110473057D01*
X54755012Y-110473057D01*
G37*
G36*
X70055012Y-109973057D02*
X70164207Y-110018287D01*
X70262481Y-110083952D01*
X70346048Y-110167519D01*
X70411713Y-110265793D01*
X70456943Y-110374988D01*
X70480000Y-110490904D01*
X70480000Y-110609096D01*
X70456943Y-110725012D01*
X70411713Y-110834207D01*
X70346048Y-110932481D01*
X70262481Y-111016048D01*
X70164207Y-111081713D01*
X70055012Y-111126943D01*
X69939096Y-111150000D01*
X69820904Y-111150000D01*
X69704988Y-111126943D01*
X69595793Y-111081713D01*
X69497519Y-111016048D01*
X69413952Y-110932481D01*
X69348287Y-110834207D01*
X69303057Y-110725012D01*
X69280000Y-110609096D01*
X69280000Y-110490904D01*
X69303057Y-110374988D01*
X69348287Y-110265793D01*
X69413952Y-110167519D01*
X69497519Y-110083952D01*
X69595793Y-110018287D01*
X69704988Y-109973057D01*
X69820904Y-109950000D01*
X69939096Y-109950000D01*
X70055012Y-109973057D01*
X70055012Y-109973057D01*
G37*
G36*
X50755012Y-109973057D02*
X50864207Y-110018287D01*
X50962481Y-110083952D01*
X51046048Y-110167519D01*
X51111713Y-110265793D01*
X51156943Y-110374988D01*
X51180000Y-110490904D01*
X51180000Y-110609096D01*
X51156943Y-110725012D01*
X51111713Y-110834207D01*
X51046048Y-110932481D01*
X50962481Y-111016048D01*
X50864207Y-111081713D01*
X50755012Y-111126943D01*
X50639096Y-111150000D01*
X50520904Y-111150000D01*
X50404988Y-111126943D01*
X50295793Y-111081713D01*
X50197519Y-111016048D01*
X50113952Y-110932481D01*
X50048287Y-110834207D01*
X50003057Y-110725012D01*
X49980000Y-110609096D01*
X49980000Y-110490904D01*
X50003057Y-110374988D01*
X50048287Y-110265793D01*
X50113952Y-110167519D01*
X50197519Y-110083952D01*
X50295793Y-110018287D01*
X50404988Y-109973057D01*
X50520904Y-109950000D01*
X50639096Y-109950000D01*
X50755012Y-109973057D01*
X50755012Y-109973057D01*
G37*
G36*
X69163352Y-106830743D02*
X69308941Y-106891048D01*
X69439973Y-106978601D01*
X69551399Y-107090027D01*
X69638952Y-107221059D01*
X69699257Y-107366648D01*
X69730000Y-107521205D01*
X69730000Y-107678795D01*
X69699257Y-107833352D01*
X69638952Y-107978941D01*
X69551399Y-108109973D01*
X69439973Y-108221399D01*
X69308941Y-108308952D01*
X69163352Y-108369257D01*
X69008795Y-108400000D01*
X68851205Y-108400000D01*
X68696648Y-108369257D01*
X68551059Y-108308952D01*
X68420027Y-108221399D01*
X68308601Y-108109973D01*
X68221048Y-107978941D01*
X68160743Y-107833352D01*
X68130000Y-107678795D01*
X68130000Y-107521205D01*
X68160743Y-107366648D01*
X68221048Y-107221059D01*
X68308601Y-107090027D01*
X68420027Y-106978601D01*
X68551059Y-106891048D01*
X68696648Y-106830743D01*
X68851205Y-106800000D01*
X69008795Y-106800000D01*
X69163352Y-106830743D01*
X69163352Y-106830743D01*
G37*
G36*
X59155012Y-106073057D02*
X59264207Y-106118287D01*
X59362481Y-106183952D01*
X59446048Y-106267519D01*
X59511713Y-106365793D01*
X59556943Y-106474988D01*
X59580000Y-106590904D01*
X59580000Y-106709096D01*
X59556943Y-106825012D01*
X59511713Y-106934207D01*
X59446048Y-107032481D01*
X59362481Y-107116048D01*
X59264207Y-107181713D01*
X59155012Y-107226943D01*
X59039096Y-107250000D01*
X58920904Y-107250000D01*
X58804988Y-107226943D01*
X58695793Y-107181713D01*
X58597519Y-107116048D01*
X58513952Y-107032481D01*
X58448287Y-106934207D01*
X58403057Y-106825012D01*
X58380000Y-106709096D01*
X58380000Y-106590904D01*
X58403057Y-106474988D01*
X58448287Y-106365793D01*
X58513952Y-106267519D01*
X58597519Y-106183952D01*
X58695793Y-106118287D01*
X58804988Y-106073057D01*
X58920904Y-106050000D01*
X59039096Y-106050000D01*
X59155012Y-106073057D01*
X59155012Y-106073057D01*
G37*
G36*
X60655012Y-106073057D02*
X60764207Y-106118287D01*
X60862481Y-106183952D01*
X60946048Y-106267519D01*
X61011713Y-106365793D01*
X61056943Y-106474988D01*
X61080000Y-106590904D01*
X61080000Y-106709096D01*
X61056943Y-106825012D01*
X61011713Y-106934207D01*
X60946048Y-107032481D01*
X60862481Y-107116048D01*
X60764207Y-107181713D01*
X60655012Y-107226943D01*
X60539096Y-107250000D01*
X60420904Y-107250000D01*
X60304988Y-107226943D01*
X60195793Y-107181713D01*
X60097519Y-107116048D01*
X60013952Y-107032481D01*
X59948287Y-106934207D01*
X59903057Y-106825012D01*
X59880000Y-106709096D01*
X59880000Y-106590904D01*
X59903057Y-106474988D01*
X59948287Y-106365793D01*
X60013952Y-106267519D01*
X60097519Y-106183952D01*
X60195793Y-106118287D01*
X60304988Y-106073057D01*
X60420904Y-106050000D01*
X60539096Y-106050000D01*
X60655012Y-106073057D01*
X60655012Y-106073057D01*
G37*
G36*
X62155012Y-106073057D02*
X62264207Y-106118287D01*
X62362481Y-106183952D01*
X62446048Y-106267519D01*
X62511713Y-106365793D01*
X62556943Y-106474988D01*
X62580000Y-106590904D01*
X62580000Y-106709096D01*
X62556943Y-106825012D01*
X62511713Y-106934207D01*
X62446048Y-107032481D01*
X62362481Y-107116048D01*
X62264207Y-107181713D01*
X62155012Y-107226943D01*
X62039096Y-107250000D01*
X61920904Y-107250000D01*
X61804988Y-107226943D01*
X61695793Y-107181713D01*
X61597519Y-107116048D01*
X61513952Y-107032481D01*
X61448287Y-106934207D01*
X61403057Y-106825012D01*
X61380000Y-106709096D01*
X61380000Y-106590904D01*
X61403057Y-106474988D01*
X61448287Y-106365793D01*
X61513952Y-106267519D01*
X61597519Y-106183952D01*
X61695793Y-106118287D01*
X61804988Y-106073057D01*
X61920904Y-106050000D01*
X62039096Y-106050000D01*
X62155012Y-106073057D01*
X62155012Y-106073057D01*
G37*
G36*
X63655012Y-106073057D02*
X63764207Y-106118287D01*
X63862481Y-106183952D01*
X63946048Y-106267519D01*
X64011713Y-106365793D01*
X64056943Y-106474988D01*
X64080000Y-106590904D01*
X64080000Y-106709096D01*
X64056943Y-106825012D01*
X64011713Y-106934207D01*
X63946048Y-107032481D01*
X63862481Y-107116048D01*
X63764207Y-107181713D01*
X63655012Y-107226943D01*
X63539096Y-107250000D01*
X63420904Y-107250000D01*
X63304988Y-107226943D01*
X63195793Y-107181713D01*
X63097519Y-107116048D01*
X63013952Y-107032481D01*
X62948287Y-106934207D01*
X62903057Y-106825012D01*
X62880000Y-106709096D01*
X62880000Y-106590904D01*
X62903057Y-106474988D01*
X62948287Y-106365793D01*
X63013952Y-106267519D01*
X63097519Y-106183952D01*
X63195793Y-106118287D01*
X63304988Y-106073057D01*
X63420904Y-106050000D01*
X63539096Y-106050000D01*
X63655012Y-106073057D01*
X63655012Y-106073057D01*
G37*
G36*
X65155012Y-106073057D02*
X65264207Y-106118287D01*
X65362481Y-106183952D01*
X65446048Y-106267519D01*
X65511713Y-106365793D01*
X65556943Y-106474988D01*
X65580000Y-106590904D01*
X65580000Y-106709096D01*
X65556943Y-106825012D01*
X65511713Y-106934207D01*
X65446048Y-107032481D01*
X65362481Y-107116048D01*
X65264207Y-107181713D01*
X65155012Y-107226943D01*
X65039096Y-107250000D01*
X64920904Y-107250000D01*
X64804988Y-107226943D01*
X64695793Y-107181713D01*
X64597519Y-107116048D01*
X64513952Y-107032481D01*
X64448287Y-106934207D01*
X64403057Y-106825012D01*
X64380000Y-106709096D01*
X64380000Y-106590904D01*
X64403057Y-106474988D01*
X64448287Y-106365793D01*
X64513952Y-106267519D01*
X64597519Y-106183952D01*
X64695793Y-106118287D01*
X64804988Y-106073057D01*
X64920904Y-106050000D01*
X65039096Y-106050000D01*
X65155012Y-106073057D01*
X65155012Y-106073057D01*
G37*
G36*
X63155012Y-104073057D02*
X63264207Y-104118287D01*
X63362481Y-104183952D01*
X63446048Y-104267519D01*
X63511713Y-104365793D01*
X63556943Y-104474988D01*
X63580000Y-104590904D01*
X63580000Y-104709096D01*
X63556943Y-104825012D01*
X63511713Y-104934207D01*
X63446048Y-105032481D01*
X63362481Y-105116048D01*
X63264207Y-105181713D01*
X63155012Y-105226943D01*
X63039096Y-105250000D01*
X62920904Y-105250000D01*
X62804988Y-105226943D01*
X62695793Y-105181713D01*
X62597519Y-105116048D01*
X62513952Y-105032481D01*
X62448287Y-104934207D01*
X62403057Y-104825012D01*
X62380000Y-104709096D01*
X62380000Y-104590904D01*
X62403057Y-104474988D01*
X62448287Y-104365793D01*
X62513952Y-104267519D01*
X62597519Y-104183952D01*
X62695793Y-104118287D01*
X62804988Y-104073057D01*
X62920904Y-104050000D01*
X63039096Y-104050000D01*
X63155012Y-104073057D01*
X63155012Y-104073057D01*
G37*
G36*
X61655012Y-104073057D02*
X61764207Y-104118287D01*
X61862481Y-104183952D01*
X61946048Y-104267519D01*
X62011713Y-104365793D01*
X62056943Y-104474988D01*
X62080000Y-104590904D01*
X62080000Y-104709096D01*
X62056943Y-104825012D01*
X62011713Y-104934207D01*
X61946048Y-105032481D01*
X61862481Y-105116048D01*
X61764207Y-105181713D01*
X61655012Y-105226943D01*
X61539096Y-105250000D01*
X61420904Y-105250000D01*
X61304988Y-105226943D01*
X61195793Y-105181713D01*
X61097519Y-105116048D01*
X61013952Y-105032481D01*
X60948287Y-104934207D01*
X60903057Y-104825012D01*
X60880000Y-104709096D01*
X60880000Y-104590904D01*
X60903057Y-104474988D01*
X60948287Y-104365793D01*
X61013952Y-104267519D01*
X61097519Y-104183952D01*
X61195793Y-104118287D01*
X61304988Y-104073057D01*
X61420904Y-104050000D01*
X61539096Y-104050000D01*
X61655012Y-104073057D01*
X61655012Y-104073057D01*
G37*
G36*
X64655012Y-104073057D02*
X64764207Y-104118287D01*
X64862481Y-104183952D01*
X64946048Y-104267519D01*
X65011713Y-104365793D01*
X65056943Y-104474988D01*
X65080000Y-104590904D01*
X65080000Y-104709096D01*
X65056943Y-104825012D01*
X65011713Y-104934207D01*
X64946048Y-105032481D01*
X64862481Y-105116048D01*
X64764207Y-105181713D01*
X64655012Y-105226943D01*
X64539096Y-105250000D01*
X64420904Y-105250000D01*
X64304988Y-105226943D01*
X64195793Y-105181713D01*
X64097519Y-105116048D01*
X64013952Y-105032481D01*
X63948287Y-104934207D01*
X63903057Y-104825012D01*
X63880000Y-104709096D01*
X63880000Y-104590904D01*
X63903057Y-104474988D01*
X63948287Y-104365793D01*
X64013952Y-104267519D01*
X64097519Y-104183952D01*
X64195793Y-104118287D01*
X64304988Y-104073057D01*
X64420904Y-104050000D01*
X64539096Y-104050000D01*
X64655012Y-104073057D01*
X64655012Y-104073057D01*
G37*
G36*
X60155012Y-104073057D02*
X60264207Y-104118287D01*
X60362481Y-104183952D01*
X60446048Y-104267519D01*
X60511713Y-104365793D01*
X60556943Y-104474988D01*
X60580000Y-104590904D01*
X60580000Y-104709096D01*
X60556943Y-104825012D01*
X60511713Y-104934207D01*
X60446048Y-105032481D01*
X60362481Y-105116048D01*
X60264207Y-105181713D01*
X60155012Y-105226943D01*
X60039096Y-105250000D01*
X59920904Y-105250000D01*
X59804988Y-105226943D01*
X59695793Y-105181713D01*
X59597519Y-105116048D01*
X59513952Y-105032481D01*
X59448287Y-104934207D01*
X59403057Y-104825012D01*
X59380000Y-104709096D01*
X59380000Y-104590904D01*
X59403057Y-104474988D01*
X59448287Y-104365793D01*
X59513952Y-104267519D01*
X59597519Y-104183952D01*
X59695793Y-104118287D01*
X59804988Y-104073057D01*
X59920904Y-104050000D01*
X60039096Y-104050000D01*
X60155012Y-104073057D01*
X60155012Y-104073057D01*
G37*
G36*
X66155012Y-104073057D02*
X66264207Y-104118287D01*
X66362481Y-104183952D01*
X66446048Y-104267519D01*
X66511713Y-104365793D01*
X66556943Y-104474988D01*
X66580000Y-104590904D01*
X66580000Y-104709096D01*
X66556943Y-104825012D01*
X66511713Y-104934207D01*
X66446048Y-105032481D01*
X66362481Y-105116048D01*
X66264207Y-105181713D01*
X66155012Y-105226943D01*
X66039096Y-105250000D01*
X65920904Y-105250000D01*
X65804988Y-105226943D01*
X65695793Y-105181713D01*
X65597519Y-105116048D01*
X65513952Y-105032481D01*
X65448287Y-104934207D01*
X65403057Y-104825012D01*
X65380000Y-104709096D01*
X65380000Y-104590904D01*
X65403057Y-104474988D01*
X65448287Y-104365793D01*
X65513952Y-104267519D01*
X65597519Y-104183952D01*
X65695793Y-104118287D01*
X65804988Y-104073057D01*
X65920904Y-104050000D01*
X66039096Y-104050000D01*
X66155012Y-104073057D01*
X66155012Y-104073057D01*
G37*
G36*
X58655012Y-104073057D02*
X58764207Y-104118287D01*
X58862481Y-104183952D01*
X58946048Y-104267519D01*
X59011713Y-104365793D01*
X59056943Y-104474988D01*
X59080000Y-104590904D01*
X59080000Y-104709096D01*
X59056943Y-104825012D01*
X59011713Y-104934207D01*
X58946048Y-105032481D01*
X58862481Y-105116048D01*
X58764207Y-105181713D01*
X58655012Y-105226943D01*
X58539096Y-105250000D01*
X58420904Y-105250000D01*
X58304988Y-105226943D01*
X58195793Y-105181713D01*
X58097519Y-105116048D01*
X58013952Y-105032481D01*
X57948287Y-104934207D01*
X57903057Y-104825012D01*
X57880000Y-104709096D01*
X57880000Y-104590904D01*
X57903057Y-104474988D01*
X57948287Y-104365793D01*
X58013952Y-104267519D01*
X58097519Y-104183952D01*
X58195793Y-104118287D01*
X58304988Y-104073057D01*
X58420904Y-104050000D01*
X58539096Y-104050000D01*
X58655012Y-104073057D01*
X58655012Y-104073057D01*
G37*
G36*
X61155012Y-102073057D02*
X61264207Y-102118287D01*
X61362481Y-102183952D01*
X61446048Y-102267519D01*
X61511713Y-102365793D01*
X61556943Y-102474988D01*
X61580000Y-102590904D01*
X61580000Y-102709096D01*
X61556943Y-102825012D01*
X61511713Y-102934207D01*
X61446048Y-103032481D01*
X61362481Y-103116048D01*
X61264207Y-103181713D01*
X61155012Y-103226943D01*
X61039096Y-103250000D01*
X60920904Y-103250000D01*
X60804988Y-103226943D01*
X60695793Y-103181713D01*
X60597519Y-103116048D01*
X60513952Y-103032481D01*
X60448287Y-102934207D01*
X60403057Y-102825012D01*
X60380000Y-102709096D01*
X60380000Y-102590904D01*
X60403057Y-102474988D01*
X60448287Y-102365793D01*
X60513952Y-102267519D01*
X60597519Y-102183952D01*
X60695793Y-102118287D01*
X60804988Y-102073057D01*
X60920904Y-102050000D01*
X61039096Y-102050000D01*
X61155012Y-102073057D01*
X61155012Y-102073057D01*
G37*
G36*
X59655012Y-102073057D02*
X59764207Y-102118287D01*
X59862481Y-102183952D01*
X59946048Y-102267519D01*
X60011713Y-102365793D01*
X60056943Y-102474988D01*
X60080000Y-102590904D01*
X60080000Y-102709096D01*
X60056943Y-102825012D01*
X60011713Y-102934207D01*
X59946048Y-103032481D01*
X59862481Y-103116048D01*
X59764207Y-103181713D01*
X59655012Y-103226943D01*
X59539096Y-103250000D01*
X59420904Y-103250000D01*
X59304988Y-103226943D01*
X59195793Y-103181713D01*
X59097519Y-103116048D01*
X59013952Y-103032481D01*
X58948287Y-102934207D01*
X58903057Y-102825012D01*
X58880000Y-102709096D01*
X58880000Y-102590904D01*
X58903057Y-102474988D01*
X58948287Y-102365793D01*
X59013952Y-102267519D01*
X59097519Y-102183952D01*
X59195793Y-102118287D01*
X59304988Y-102073057D01*
X59420904Y-102050000D01*
X59539096Y-102050000D01*
X59655012Y-102073057D01*
X59655012Y-102073057D01*
G37*
G36*
X62655012Y-102073057D02*
X62764207Y-102118287D01*
X62862481Y-102183952D01*
X62946048Y-102267519D01*
X63011713Y-102365793D01*
X63056943Y-102474988D01*
X63080000Y-102590904D01*
X63080000Y-102709096D01*
X63056943Y-102825012D01*
X63011713Y-102934207D01*
X62946048Y-103032481D01*
X62862481Y-103116048D01*
X62764207Y-103181713D01*
X62655012Y-103226943D01*
X62539096Y-103250000D01*
X62420904Y-103250000D01*
X62304988Y-103226943D01*
X62195793Y-103181713D01*
X62097519Y-103116048D01*
X62013952Y-103032481D01*
X61948287Y-102934207D01*
X61903057Y-102825012D01*
X61880000Y-102709096D01*
X61880000Y-102590904D01*
X61903057Y-102474988D01*
X61948287Y-102365793D01*
X62013952Y-102267519D01*
X62097519Y-102183952D01*
X62195793Y-102118287D01*
X62304988Y-102073057D01*
X62420904Y-102050000D01*
X62539096Y-102050000D01*
X62655012Y-102073057D01*
X62655012Y-102073057D01*
G37*
G36*
X65655012Y-102073057D02*
X65764207Y-102118287D01*
X65862481Y-102183952D01*
X65946048Y-102267519D01*
X66011713Y-102365793D01*
X66056943Y-102474988D01*
X66080000Y-102590904D01*
X66080000Y-102709096D01*
X66056943Y-102825012D01*
X66011713Y-102934207D01*
X65946048Y-103032481D01*
X65862481Y-103116048D01*
X65764207Y-103181713D01*
X65655012Y-103226943D01*
X65539096Y-103250000D01*
X65420904Y-103250000D01*
X65304988Y-103226943D01*
X65195793Y-103181713D01*
X65097519Y-103116048D01*
X65013952Y-103032481D01*
X64948287Y-102934207D01*
X64903057Y-102825012D01*
X64880000Y-102709096D01*
X64880000Y-102590904D01*
X64903057Y-102474988D01*
X64948287Y-102365793D01*
X65013952Y-102267519D01*
X65097519Y-102183952D01*
X65195793Y-102118287D01*
X65304988Y-102073057D01*
X65420904Y-102050000D01*
X65539096Y-102050000D01*
X65655012Y-102073057D01*
X65655012Y-102073057D01*
G37*
G36*
X64155012Y-102073057D02*
X64264207Y-102118287D01*
X64362481Y-102183952D01*
X64446048Y-102267519D01*
X64511713Y-102365793D01*
X64556943Y-102474988D01*
X64580000Y-102590904D01*
X64580000Y-102709096D01*
X64556943Y-102825012D01*
X64511713Y-102934207D01*
X64446048Y-103032481D01*
X64362481Y-103116048D01*
X64264207Y-103181713D01*
X64155012Y-103226943D01*
X64039096Y-103250000D01*
X63920904Y-103250000D01*
X63804988Y-103226943D01*
X63695793Y-103181713D01*
X63597519Y-103116048D01*
X63513952Y-103032481D01*
X63448287Y-102934207D01*
X63403057Y-102825012D01*
X63380000Y-102709096D01*
X63380000Y-102590904D01*
X63403057Y-102474988D01*
X63448287Y-102365793D01*
X63513952Y-102267519D01*
X63597519Y-102183952D01*
X63695793Y-102118287D01*
X63804988Y-102073057D01*
X63920904Y-102050000D01*
X64039096Y-102050000D01*
X64155012Y-102073057D01*
X64155012Y-102073057D01*
G37*
G36*
X57931318Y-94514411D02*
X58003767Y-94528822D01*
X58060303Y-94552240D01*
X58140257Y-94585358D01*
X58263100Y-94667439D01*
X58367561Y-94771900D01*
X58449642Y-94894743D01*
X58506178Y-95031234D01*
X58535000Y-95176130D01*
X58535000Y-95323870D01*
X58506178Y-95468766D01*
X58449642Y-95605257D01*
X58367561Y-95728100D01*
X58263100Y-95832561D01*
X58140257Y-95914642D01*
X58060303Y-95947760D01*
X58003767Y-95971178D01*
X57931318Y-95985589D01*
X57858870Y-96000000D01*
X57711130Y-96000000D01*
X57638682Y-95985589D01*
X57566233Y-95971178D01*
X57509697Y-95947760D01*
X57429743Y-95914642D01*
X57306900Y-95832561D01*
X57202439Y-95728100D01*
X57120358Y-95605257D01*
X57063822Y-95468766D01*
X57035000Y-95323870D01*
X57035000Y-95176130D01*
X57063822Y-95031234D01*
X57120358Y-94894743D01*
X57202439Y-94771900D01*
X57306900Y-94667439D01*
X57429743Y-94585358D01*
X57509697Y-94552240D01*
X57566233Y-94528822D01*
X57638682Y-94514411D01*
X57711130Y-94500000D01*
X57858870Y-94500000D01*
X57931318Y-94514411D01*
X57931318Y-94514411D01*
G37*
G36*
X53031318Y-94514411D02*
X53103767Y-94528822D01*
X53160303Y-94552240D01*
X53240257Y-94585358D01*
X53363100Y-94667439D01*
X53467561Y-94771900D01*
X53549642Y-94894743D01*
X53606178Y-95031234D01*
X53635000Y-95176130D01*
X53635000Y-95323870D01*
X53606178Y-95468766D01*
X53549642Y-95605257D01*
X53467561Y-95728100D01*
X53363100Y-95832561D01*
X53240257Y-95914642D01*
X53160303Y-95947760D01*
X53103767Y-95971178D01*
X53031318Y-95985589D01*
X52958870Y-96000000D01*
X52811130Y-96000000D01*
X52738682Y-95985589D01*
X52666233Y-95971178D01*
X52609697Y-95947760D01*
X52529743Y-95914642D01*
X52406900Y-95832561D01*
X52302439Y-95728100D01*
X52220358Y-95605257D01*
X52163822Y-95468766D01*
X52135000Y-95323870D01*
X52135000Y-95176130D01*
X52163822Y-95031234D01*
X52220358Y-94894743D01*
X52302439Y-94771900D01*
X52406900Y-94667439D01*
X52529743Y-94585358D01*
X52609697Y-94552240D01*
X52666233Y-94528822D01*
X52738682Y-94514411D01*
X52811130Y-94500000D01*
X52958870Y-94500000D01*
X53031318Y-94514411D01*
X53031318Y-94514411D01*
G37*
G36*
X53506630Y-75362299D02*
X53666855Y-75410903D01*
X53814520Y-75489831D01*
X53943949Y-75596051D01*
X54050169Y-75725480D01*
X54129097Y-75873145D01*
X54177701Y-76033370D01*
X54194112Y-76200000D01*
X54177701Y-76366630D01*
X54129097Y-76526855D01*
X54050169Y-76674520D01*
X53943949Y-76803949D01*
X53814520Y-76910169D01*
X53666855Y-76989097D01*
X53506630Y-77037701D01*
X53381752Y-77050000D01*
X53298248Y-77050000D01*
X53173370Y-77037701D01*
X53013145Y-76989097D01*
X52865480Y-76910169D01*
X52736051Y-76803949D01*
X52629831Y-76674520D01*
X52550903Y-76526855D01*
X52502299Y-76366630D01*
X52485888Y-76200000D01*
X52502299Y-76033370D01*
X52550903Y-75873145D01*
X52629831Y-75725480D01*
X52736051Y-75596051D01*
X52865480Y-75489831D01*
X53013145Y-75410903D01*
X53173370Y-75362299D01*
X53298248Y-75350000D01*
X53381752Y-75350000D01*
X53506630Y-75362299D01*
X53506630Y-75362299D01*
G37*
G36*
X51650000Y-77050000D02*
X49950000Y-77050000D01*
X49950000Y-75350000D01*
X51650000Y-75350000D01*
X51650000Y-77050000D01*
X51650000Y-77050000D01*
G37*
G36*
X56046630Y-75362299D02*
X56206855Y-75410903D01*
X56354520Y-75489831D01*
X56483949Y-75596051D01*
X56590169Y-75725480D01*
X56669097Y-75873145D01*
X56717701Y-76033370D01*
X56734112Y-76200000D01*
X56717701Y-76366630D01*
X56669097Y-76526855D01*
X56590169Y-76674520D01*
X56483949Y-76803949D01*
X56354520Y-76910169D01*
X56206855Y-76989097D01*
X56046630Y-77037701D01*
X55921752Y-77050000D01*
X55838248Y-77050000D01*
X55713370Y-77037701D01*
X55553145Y-76989097D01*
X55405480Y-76910169D01*
X55276051Y-76803949D01*
X55169831Y-76674520D01*
X55090903Y-76526855D01*
X55042299Y-76366630D01*
X55025888Y-76200000D01*
X55042299Y-76033370D01*
X55090903Y-75873145D01*
X55169831Y-75725480D01*
X55276051Y-75596051D01*
X55405480Y-75489831D01*
X55553145Y-75410903D01*
X55713370Y-75362299D01*
X55838248Y-75350000D01*
X55921752Y-75350000D01*
X56046630Y-75362299D01*
X56046630Y-75362299D01*
G37*
G36*
X58586630Y-75362299D02*
X58746855Y-75410903D01*
X58894520Y-75489831D01*
X59023949Y-75596051D01*
X59130169Y-75725480D01*
X59209097Y-75873145D01*
X59257701Y-76033370D01*
X59274112Y-76200000D01*
X59257701Y-76366630D01*
X59209097Y-76526855D01*
X59130169Y-76674520D01*
X59023949Y-76803949D01*
X58894520Y-76910169D01*
X58746855Y-76989097D01*
X58586630Y-77037701D01*
X58461752Y-77050000D01*
X58378248Y-77050000D01*
X58253370Y-77037701D01*
X58093145Y-76989097D01*
X57945480Y-76910169D01*
X57816051Y-76803949D01*
X57709831Y-76674520D01*
X57630903Y-76526855D01*
X57582299Y-76366630D01*
X57565888Y-76200000D01*
X57582299Y-76033370D01*
X57630903Y-75873145D01*
X57709831Y-75725480D01*
X57816051Y-75596051D01*
X57945480Y-75489831D01*
X58093145Y-75410903D01*
X58253370Y-75362299D01*
X58378248Y-75350000D01*
X58461752Y-75350000D01*
X58586630Y-75362299D01*
X58586630Y-75362299D01*
G37*
G36*
X61126630Y-75362299D02*
X61286855Y-75410903D01*
X61434520Y-75489831D01*
X61563949Y-75596051D01*
X61670169Y-75725480D01*
X61749097Y-75873145D01*
X61797701Y-76033370D01*
X61814112Y-76200000D01*
X61797701Y-76366630D01*
X61749097Y-76526855D01*
X61670169Y-76674520D01*
X61563949Y-76803949D01*
X61434520Y-76910169D01*
X61286855Y-76989097D01*
X61126630Y-77037701D01*
X61001752Y-77050000D01*
X60918248Y-77050000D01*
X60793370Y-77037701D01*
X60633145Y-76989097D01*
X60485480Y-76910169D01*
X60356051Y-76803949D01*
X60249831Y-76674520D01*
X60170903Y-76526855D01*
X60122299Y-76366630D01*
X60105888Y-76200000D01*
X60122299Y-76033370D01*
X60170903Y-75873145D01*
X60249831Y-75725480D01*
X60356051Y-75596051D01*
X60485480Y-75489831D01*
X60633145Y-75410903D01*
X60793370Y-75362299D01*
X60918248Y-75350000D01*
X61001752Y-75350000D01*
X61126630Y-75362299D01*
X61126630Y-75362299D01*
G37*
G36*
X63666630Y-75362299D02*
X63826855Y-75410903D01*
X63974520Y-75489831D01*
X64103949Y-75596051D01*
X64210169Y-75725480D01*
X64289097Y-75873145D01*
X64337701Y-76033370D01*
X64354112Y-76200000D01*
X64337701Y-76366630D01*
X64289097Y-76526855D01*
X64210169Y-76674520D01*
X64103949Y-76803949D01*
X63974520Y-76910169D01*
X63826855Y-76989097D01*
X63666630Y-77037701D01*
X63541752Y-77050000D01*
X63458248Y-77050000D01*
X63333370Y-77037701D01*
X63173145Y-76989097D01*
X63025480Y-76910169D01*
X62896051Y-76803949D01*
X62789831Y-76674520D01*
X62710903Y-76526855D01*
X62662299Y-76366630D01*
X62645888Y-76200000D01*
X62662299Y-76033370D01*
X62710903Y-75873145D01*
X62789831Y-75725480D01*
X62896051Y-75596051D01*
X63025480Y-75489831D01*
X63173145Y-75410903D01*
X63333370Y-75362299D01*
X63458248Y-75350000D01*
X63541752Y-75350000D01*
X63666630Y-75362299D01*
X63666630Y-75362299D01*
G37*
G36*
X66206630Y-75362299D02*
X66366855Y-75410903D01*
X66514520Y-75489831D01*
X66643949Y-75596051D01*
X66750169Y-75725480D01*
X66829097Y-75873145D01*
X66877701Y-76033370D01*
X66894112Y-76200000D01*
X66877701Y-76366630D01*
X66829097Y-76526855D01*
X66750169Y-76674520D01*
X66643949Y-76803949D01*
X66514520Y-76910169D01*
X66366855Y-76989097D01*
X66206630Y-77037701D01*
X66081752Y-77050000D01*
X65998248Y-77050000D01*
X65873370Y-77037701D01*
X65713145Y-76989097D01*
X65565480Y-76910169D01*
X65436051Y-76803949D01*
X65329831Y-76674520D01*
X65250903Y-76526855D01*
X65202299Y-76366630D01*
X65185888Y-76200000D01*
X65202299Y-76033370D01*
X65250903Y-75873145D01*
X65329831Y-75725480D01*
X65436051Y-75596051D01*
X65565480Y-75489831D01*
X65713145Y-75410903D01*
X65873370Y-75362299D01*
X65998248Y-75350000D01*
X66081752Y-75350000D01*
X66206630Y-75362299D01*
X66206630Y-75362299D01*
G37*
G36*
X68746630Y-75362299D02*
X68906855Y-75410903D01*
X69054520Y-75489831D01*
X69183949Y-75596051D01*
X69290169Y-75725480D01*
X69369097Y-75873145D01*
X69417701Y-76033370D01*
X69434112Y-76200000D01*
X69417701Y-76366630D01*
X69369097Y-76526855D01*
X69290169Y-76674520D01*
X69183949Y-76803949D01*
X69054520Y-76910169D01*
X68906855Y-76989097D01*
X68746630Y-77037701D01*
X68621752Y-77050000D01*
X68538248Y-77050000D01*
X68413370Y-77037701D01*
X68253145Y-76989097D01*
X68105480Y-76910169D01*
X67976051Y-76803949D01*
X67869831Y-76674520D01*
X67790903Y-76526855D01*
X67742299Y-76366630D01*
X67725888Y-76200000D01*
X67742299Y-76033370D01*
X67790903Y-75873145D01*
X67869831Y-75725480D01*
X67976051Y-75596051D01*
X68105480Y-75489831D01*
X68253145Y-75410903D01*
X68413370Y-75362299D01*
X68538248Y-75350000D01*
X68621752Y-75350000D01*
X68746630Y-75362299D01*
X68746630Y-75362299D01*
G37*
G36*
X71286630Y-75362299D02*
X71446855Y-75410903D01*
X71594520Y-75489831D01*
X71723949Y-75596051D01*
X71830169Y-75725480D01*
X71909097Y-75873145D01*
X71957701Y-76033370D01*
X71974112Y-76200000D01*
X71957701Y-76366630D01*
X71909097Y-76526855D01*
X71830169Y-76674520D01*
X71723949Y-76803949D01*
X71594520Y-76910169D01*
X71446855Y-76989097D01*
X71286630Y-77037701D01*
X71161752Y-77050000D01*
X71078248Y-77050000D01*
X70953370Y-77037701D01*
X70793145Y-76989097D01*
X70645480Y-76910169D01*
X70516051Y-76803949D01*
X70409831Y-76674520D01*
X70330903Y-76526855D01*
X70282299Y-76366630D01*
X70265888Y-76200000D01*
X70282299Y-76033370D01*
X70330903Y-75873145D01*
X70409831Y-75725480D01*
X70516051Y-75596051D01*
X70645480Y-75489831D01*
X70793145Y-75410903D01*
X70953370Y-75362299D01*
X71078248Y-75350000D01*
X71161752Y-75350000D01*
X71286630Y-75362299D01*
X71286630Y-75362299D01*
G37*
G36*
X73826630Y-75362299D02*
X73986855Y-75410903D01*
X74134520Y-75489831D01*
X74263949Y-75596051D01*
X74370169Y-75725480D01*
X74449097Y-75873145D01*
X74497701Y-76033370D01*
X74514112Y-76200000D01*
X74497701Y-76366630D01*
X74449097Y-76526855D01*
X74370169Y-76674520D01*
X74263949Y-76803949D01*
X74134520Y-76910169D01*
X73986855Y-76989097D01*
X73826630Y-77037701D01*
X73701752Y-77050000D01*
X73618248Y-77050000D01*
X73493370Y-77037701D01*
X73333145Y-76989097D01*
X73185480Y-76910169D01*
X73056051Y-76803949D01*
X72949831Y-76674520D01*
X72870903Y-76526855D01*
X72822299Y-76366630D01*
X72805888Y-76200000D01*
X72822299Y-76033370D01*
X72870903Y-75873145D01*
X72949831Y-75725480D01*
X73056051Y-75596051D01*
X73185480Y-75489831D01*
X73333145Y-75410903D01*
X73493370Y-75362299D01*
X73618248Y-75350000D01*
X73701752Y-75350000D01*
X73826630Y-75362299D01*
X73826630Y-75362299D01*
G37*
G36*
X50966630Y-72822299D02*
X51126855Y-72870903D01*
X51274520Y-72949831D01*
X51403949Y-73056051D01*
X51510169Y-73185480D01*
X51589097Y-73333145D01*
X51637701Y-73493370D01*
X51654112Y-73660000D01*
X51637701Y-73826630D01*
X51589097Y-73986855D01*
X51510169Y-74134520D01*
X51403949Y-74263949D01*
X51274520Y-74370169D01*
X51126855Y-74449097D01*
X50966630Y-74497701D01*
X50841752Y-74510000D01*
X50758248Y-74510000D01*
X50633370Y-74497701D01*
X50473145Y-74449097D01*
X50325480Y-74370169D01*
X50196051Y-74263949D01*
X50089831Y-74134520D01*
X50010903Y-73986855D01*
X49962299Y-73826630D01*
X49945888Y-73660000D01*
X49962299Y-73493370D01*
X50010903Y-73333145D01*
X50089831Y-73185480D01*
X50196051Y-73056051D01*
X50325480Y-72949831D01*
X50473145Y-72870903D01*
X50633370Y-72822299D01*
X50758248Y-72810000D01*
X50841752Y-72810000D01*
X50966630Y-72822299D01*
X50966630Y-72822299D01*
G37*
G36*
X73826630Y-72822299D02*
X73986855Y-72870903D01*
X74134520Y-72949831D01*
X74263949Y-73056051D01*
X74370169Y-73185480D01*
X74449097Y-73333145D01*
X74497701Y-73493370D01*
X74514112Y-73660000D01*
X74497701Y-73826630D01*
X74449097Y-73986855D01*
X74370169Y-74134520D01*
X74263949Y-74263949D01*
X74134520Y-74370169D01*
X73986855Y-74449097D01*
X73826630Y-74497701D01*
X73701752Y-74510000D01*
X73618248Y-74510000D01*
X73493370Y-74497701D01*
X73333145Y-74449097D01*
X73185480Y-74370169D01*
X73056051Y-74263949D01*
X72949831Y-74134520D01*
X72870903Y-73986855D01*
X72822299Y-73826630D01*
X72805888Y-73660000D01*
X72822299Y-73493370D01*
X72870903Y-73333145D01*
X72949831Y-73185480D01*
X73056051Y-73056051D01*
X73185480Y-72949831D01*
X73333145Y-72870903D01*
X73493370Y-72822299D01*
X73618248Y-72810000D01*
X73701752Y-72810000D01*
X73826630Y-72822299D01*
X73826630Y-72822299D01*
G37*
G36*
X53506630Y-72822299D02*
X53666855Y-72870903D01*
X53814520Y-72949831D01*
X53943949Y-73056051D01*
X54050169Y-73185480D01*
X54129097Y-73333145D01*
X54177701Y-73493370D01*
X54194112Y-73660000D01*
X54177701Y-73826630D01*
X54129097Y-73986855D01*
X54050169Y-74134520D01*
X53943949Y-74263949D01*
X53814520Y-74370169D01*
X53666855Y-74449097D01*
X53506630Y-74497701D01*
X53381752Y-74510000D01*
X53298248Y-74510000D01*
X53173370Y-74497701D01*
X53013145Y-74449097D01*
X52865480Y-74370169D01*
X52736051Y-74263949D01*
X52629831Y-74134520D01*
X52550903Y-73986855D01*
X52502299Y-73826630D01*
X52485888Y-73660000D01*
X52502299Y-73493370D01*
X52550903Y-73333145D01*
X52629831Y-73185480D01*
X52736051Y-73056051D01*
X52865480Y-72949831D01*
X53013145Y-72870903D01*
X53173370Y-72822299D01*
X53298248Y-72810000D01*
X53381752Y-72810000D01*
X53506630Y-72822299D01*
X53506630Y-72822299D01*
G37*
G36*
X56046630Y-72822299D02*
X56206855Y-72870903D01*
X56354520Y-72949831D01*
X56483949Y-73056051D01*
X56590169Y-73185480D01*
X56669097Y-73333145D01*
X56717701Y-73493370D01*
X56734112Y-73660000D01*
X56717701Y-73826630D01*
X56669097Y-73986855D01*
X56590169Y-74134520D01*
X56483949Y-74263949D01*
X56354520Y-74370169D01*
X56206855Y-74449097D01*
X56046630Y-74497701D01*
X55921752Y-74510000D01*
X55838248Y-74510000D01*
X55713370Y-74497701D01*
X55553145Y-74449097D01*
X55405480Y-74370169D01*
X55276051Y-74263949D01*
X55169831Y-74134520D01*
X55090903Y-73986855D01*
X55042299Y-73826630D01*
X55025888Y-73660000D01*
X55042299Y-73493370D01*
X55090903Y-73333145D01*
X55169831Y-73185480D01*
X55276051Y-73056051D01*
X55405480Y-72949831D01*
X55553145Y-72870903D01*
X55713370Y-72822299D01*
X55838248Y-72810000D01*
X55921752Y-72810000D01*
X56046630Y-72822299D01*
X56046630Y-72822299D01*
G37*
G36*
X58586630Y-72822299D02*
X58746855Y-72870903D01*
X58894520Y-72949831D01*
X59023949Y-73056051D01*
X59130169Y-73185480D01*
X59209097Y-73333145D01*
X59257701Y-73493370D01*
X59274112Y-73660000D01*
X59257701Y-73826630D01*
X59209097Y-73986855D01*
X59130169Y-74134520D01*
X59023949Y-74263949D01*
X58894520Y-74370169D01*
X58746855Y-74449097D01*
X58586630Y-74497701D01*
X58461752Y-74510000D01*
X58378248Y-74510000D01*
X58253370Y-74497701D01*
X58093145Y-74449097D01*
X57945480Y-74370169D01*
X57816051Y-74263949D01*
X57709831Y-74134520D01*
X57630903Y-73986855D01*
X57582299Y-73826630D01*
X57565888Y-73660000D01*
X57582299Y-73493370D01*
X57630903Y-73333145D01*
X57709831Y-73185480D01*
X57816051Y-73056051D01*
X57945480Y-72949831D01*
X58093145Y-72870903D01*
X58253370Y-72822299D01*
X58378248Y-72810000D01*
X58461752Y-72810000D01*
X58586630Y-72822299D01*
X58586630Y-72822299D01*
G37*
G36*
X61126630Y-72822299D02*
X61286855Y-72870903D01*
X61434520Y-72949831D01*
X61563949Y-73056051D01*
X61670169Y-73185480D01*
X61749097Y-73333145D01*
X61797701Y-73493370D01*
X61814112Y-73660000D01*
X61797701Y-73826630D01*
X61749097Y-73986855D01*
X61670169Y-74134520D01*
X61563949Y-74263949D01*
X61434520Y-74370169D01*
X61286855Y-74449097D01*
X61126630Y-74497701D01*
X61001752Y-74510000D01*
X60918248Y-74510000D01*
X60793370Y-74497701D01*
X60633145Y-74449097D01*
X60485480Y-74370169D01*
X60356051Y-74263949D01*
X60249831Y-74134520D01*
X60170903Y-73986855D01*
X60122299Y-73826630D01*
X60105888Y-73660000D01*
X60122299Y-73493370D01*
X60170903Y-73333145D01*
X60249831Y-73185480D01*
X60356051Y-73056051D01*
X60485480Y-72949831D01*
X60633145Y-72870903D01*
X60793370Y-72822299D01*
X60918248Y-72810000D01*
X61001752Y-72810000D01*
X61126630Y-72822299D01*
X61126630Y-72822299D01*
G37*
G36*
X63666630Y-72822299D02*
X63826855Y-72870903D01*
X63974520Y-72949831D01*
X64103949Y-73056051D01*
X64210169Y-73185480D01*
X64289097Y-73333145D01*
X64337701Y-73493370D01*
X64354112Y-73660000D01*
X64337701Y-73826630D01*
X64289097Y-73986855D01*
X64210169Y-74134520D01*
X64103949Y-74263949D01*
X63974520Y-74370169D01*
X63826855Y-74449097D01*
X63666630Y-74497701D01*
X63541752Y-74510000D01*
X63458248Y-74510000D01*
X63333370Y-74497701D01*
X63173145Y-74449097D01*
X63025480Y-74370169D01*
X62896051Y-74263949D01*
X62789831Y-74134520D01*
X62710903Y-73986855D01*
X62662299Y-73826630D01*
X62645888Y-73660000D01*
X62662299Y-73493370D01*
X62710903Y-73333145D01*
X62789831Y-73185480D01*
X62896051Y-73056051D01*
X63025480Y-72949831D01*
X63173145Y-72870903D01*
X63333370Y-72822299D01*
X63458248Y-72810000D01*
X63541752Y-72810000D01*
X63666630Y-72822299D01*
X63666630Y-72822299D01*
G37*
G36*
X66206630Y-72822299D02*
X66366855Y-72870903D01*
X66514520Y-72949831D01*
X66643949Y-73056051D01*
X66750169Y-73185480D01*
X66829097Y-73333145D01*
X66877701Y-73493370D01*
X66894112Y-73660000D01*
X66877701Y-73826630D01*
X66829097Y-73986855D01*
X66750169Y-74134520D01*
X66643949Y-74263949D01*
X66514520Y-74370169D01*
X66366855Y-74449097D01*
X66206630Y-74497701D01*
X66081752Y-74510000D01*
X65998248Y-74510000D01*
X65873370Y-74497701D01*
X65713145Y-74449097D01*
X65565480Y-74370169D01*
X65436051Y-74263949D01*
X65329831Y-74134520D01*
X65250903Y-73986855D01*
X65202299Y-73826630D01*
X65185888Y-73660000D01*
X65202299Y-73493370D01*
X65250903Y-73333145D01*
X65329831Y-73185480D01*
X65436051Y-73056051D01*
X65565480Y-72949831D01*
X65713145Y-72870903D01*
X65873370Y-72822299D01*
X65998248Y-72810000D01*
X66081752Y-72810000D01*
X66206630Y-72822299D01*
X66206630Y-72822299D01*
G37*
G36*
X68746630Y-72822299D02*
X68906855Y-72870903D01*
X69054520Y-72949831D01*
X69183949Y-73056051D01*
X69290169Y-73185480D01*
X69369097Y-73333145D01*
X69417701Y-73493370D01*
X69434112Y-73660000D01*
X69417701Y-73826630D01*
X69369097Y-73986855D01*
X69290169Y-74134520D01*
X69183949Y-74263949D01*
X69054520Y-74370169D01*
X68906855Y-74449097D01*
X68746630Y-74497701D01*
X68621752Y-74510000D01*
X68538248Y-74510000D01*
X68413370Y-74497701D01*
X68253145Y-74449097D01*
X68105480Y-74370169D01*
X67976051Y-74263949D01*
X67869831Y-74134520D01*
X67790903Y-73986855D01*
X67742299Y-73826630D01*
X67725888Y-73660000D01*
X67742299Y-73493370D01*
X67790903Y-73333145D01*
X67869831Y-73185480D01*
X67976051Y-73056051D01*
X68105480Y-72949831D01*
X68253145Y-72870903D01*
X68413370Y-72822299D01*
X68538248Y-72810000D01*
X68621752Y-72810000D01*
X68746630Y-72822299D01*
X68746630Y-72822299D01*
G37*
G36*
X71286630Y-72822299D02*
X71446855Y-72870903D01*
X71594520Y-72949831D01*
X71723949Y-73056051D01*
X71830169Y-73185480D01*
X71909097Y-73333145D01*
X71957701Y-73493370D01*
X71974112Y-73660000D01*
X71957701Y-73826630D01*
X71909097Y-73986855D01*
X71830169Y-74134520D01*
X71723949Y-74263949D01*
X71594520Y-74370169D01*
X71446855Y-74449097D01*
X71286630Y-74497701D01*
X71161752Y-74510000D01*
X71078248Y-74510000D01*
X70953370Y-74497701D01*
X70793145Y-74449097D01*
X70645480Y-74370169D01*
X70516051Y-74263949D01*
X70409831Y-74134520D01*
X70330903Y-73986855D01*
X70282299Y-73826630D01*
X70265888Y-73660000D01*
X70282299Y-73493370D01*
X70330903Y-73333145D01*
X70409831Y-73185480D01*
X70516051Y-73056051D01*
X70645480Y-72949831D01*
X70793145Y-72870903D01*
X70953370Y-72822299D01*
X71078248Y-72810000D01*
X71161752Y-72810000D01*
X71286630Y-72822299D01*
X71286630Y-72822299D01*
G37*
M02*
