G04 #@! TF.GenerationSoftware,KiCad,Pcbnew,5.0.2-bee76a0~70~ubuntu18.04.1*
G04 #@! TF.CreationDate,2019-05-09T10:06:34+02:00*
G04 #@! TF.ProjectId,stm32f205,73746d33-3266-4323-9035-2e6b69636164,rev?*
G04 #@! TF.SameCoordinates,Original*
G04 #@! TF.FileFunction,Soldermask,Bot*
G04 #@! TF.FilePolarity,Negative*
%FSLAX46Y46*%
G04 Gerber Fmt 4.6, Leading zero omitted, Abs format (unit mm)*
G04 Created by KiCad (PCBNEW 5.0.2-bee76a0~70~ubuntu18.04.1) date jeu. 09 mai 2019 10:06:34 CEST*
%MOMM*%
%LPD*%
G01*
G04 APERTURE LIST*
%ADD10C,0.100000*%
G04 APERTURE END LIST*
D10*
G36*
X119756017Y-147176027D02*
X103746017Y-147176027D01*
X103746017Y-144506027D01*
X119756017Y-144506027D01*
X119756017Y-147176027D01*
X119756017Y-147176027D01*
G37*
G36*
X121286017Y-143391027D02*
X118346017Y-143391027D01*
X118346017Y-142561027D01*
X121286017Y-142561027D01*
X121286017Y-143391027D01*
X121286017Y-143391027D01*
G37*
G36*
X111126017Y-143391027D02*
X106026017Y-143391027D01*
X106026017Y-142561027D01*
X111126017Y-142561027D01*
X111126017Y-143391027D01*
X111126017Y-143391027D01*
G37*
G36*
X105156017Y-143391027D02*
X102216017Y-143391027D01*
X102216017Y-142561027D01*
X105156017Y-142561027D01*
X105156017Y-143391027D01*
X105156017Y-143391027D01*
G37*
G36*
X117476017Y-143391027D02*
X112376017Y-143391027D01*
X112376017Y-142561027D01*
X117476017Y-142561027D01*
X117476017Y-143391027D01*
X117476017Y-143391027D01*
G37*
G36*
X119756017Y-141446027D02*
X103746017Y-141446027D01*
X103746017Y-138776027D01*
X119756017Y-138776027D01*
X119756017Y-141446027D01*
X119756017Y-141446027D01*
G37*
G36*
X101893116Y-139623312D02*
X102022328Y-139676833D01*
X102138618Y-139754536D01*
X102237508Y-139853426D01*
X102315211Y-139969716D01*
X102368732Y-140098928D01*
X102396017Y-140236099D01*
X102396017Y-140375955D01*
X102368732Y-140513126D01*
X102315211Y-140642338D01*
X102237508Y-140758628D01*
X102138618Y-140857518D01*
X102022328Y-140935221D01*
X101893116Y-140988742D01*
X101755946Y-141016027D01*
X101616088Y-141016027D01*
X101478918Y-140988742D01*
X101349706Y-140935221D01*
X101233416Y-140857518D01*
X101134526Y-140758628D01*
X101056823Y-140642338D01*
X101003302Y-140513126D01*
X100976017Y-140375955D01*
X100976017Y-140236099D01*
X101003302Y-140098928D01*
X101056823Y-139969716D01*
X101134526Y-139853426D01*
X101233416Y-139754536D01*
X101349706Y-139676833D01*
X101478918Y-139623312D01*
X101616088Y-139596027D01*
X101755946Y-139596027D01*
X101893116Y-139623312D01*
X101893116Y-139623312D01*
G37*
G36*
X122023116Y-139623312D02*
X122152328Y-139676833D01*
X122268618Y-139754536D01*
X122367508Y-139853426D01*
X122445211Y-139969716D01*
X122498732Y-140098928D01*
X122526017Y-140236099D01*
X122526017Y-140375955D01*
X122498732Y-140513126D01*
X122445211Y-140642338D01*
X122367508Y-140758628D01*
X122268618Y-140857518D01*
X122152328Y-140935221D01*
X122023116Y-140988742D01*
X121885946Y-141016027D01*
X121746088Y-141016027D01*
X121608918Y-140988742D01*
X121479706Y-140935221D01*
X121363416Y-140857518D01*
X121264526Y-140758628D01*
X121186823Y-140642338D01*
X121133302Y-140513126D01*
X121106017Y-140375955D01*
X121106017Y-140236099D01*
X121133302Y-140098928D01*
X121186823Y-139969716D01*
X121264526Y-139853426D01*
X121363416Y-139754536D01*
X121479706Y-139676833D01*
X121608918Y-139623312D01*
X121746088Y-139596027D01*
X121885946Y-139596027D01*
X122023116Y-139623312D01*
X122023116Y-139623312D01*
G37*
G36*
X109134369Y-128891770D02*
X109279958Y-128952075D01*
X109410990Y-129039628D01*
X109522418Y-129151056D01*
X109547084Y-129187971D01*
X109562629Y-129206913D01*
X109581571Y-129222458D01*
X109603182Y-129234009D01*
X109626631Y-129241122D01*
X109651018Y-129243524D01*
X109675404Y-129241122D01*
X109698853Y-129234009D01*
X109720464Y-129222457D01*
X109739406Y-129206912D01*
X109754950Y-129187971D01*
X109779616Y-129151056D01*
X109891044Y-129039628D01*
X110022076Y-128952075D01*
X110167665Y-128891770D01*
X110322222Y-128861027D01*
X110479812Y-128861027D01*
X110634369Y-128891770D01*
X110779958Y-128952075D01*
X110910990Y-129039628D01*
X111022418Y-129151056D01*
X111047084Y-129187971D01*
X111062629Y-129206913D01*
X111081571Y-129222458D01*
X111103182Y-129234009D01*
X111126631Y-129241122D01*
X111151018Y-129243524D01*
X111175404Y-129241122D01*
X111198853Y-129234009D01*
X111220464Y-129222457D01*
X111239406Y-129206912D01*
X111254950Y-129187971D01*
X111279616Y-129151056D01*
X111391044Y-129039628D01*
X111522076Y-128952075D01*
X111667665Y-128891770D01*
X111822222Y-128861027D01*
X111979812Y-128861027D01*
X112134369Y-128891770D01*
X112279958Y-128952075D01*
X112410990Y-129039628D01*
X112522418Y-129151056D01*
X112547084Y-129187971D01*
X112562629Y-129206913D01*
X112581571Y-129222458D01*
X112603182Y-129234009D01*
X112626631Y-129241122D01*
X112651018Y-129243524D01*
X112675404Y-129241122D01*
X112698853Y-129234009D01*
X112720464Y-129222457D01*
X112739406Y-129206912D01*
X112754950Y-129187971D01*
X112779616Y-129151056D01*
X112891044Y-129039628D01*
X113022076Y-128952075D01*
X113167665Y-128891770D01*
X113322222Y-128861027D01*
X113479812Y-128861027D01*
X113634369Y-128891770D01*
X113779958Y-128952075D01*
X113910990Y-129039628D01*
X114022418Y-129151056D01*
X114047084Y-129187971D01*
X114062629Y-129206913D01*
X114081571Y-129222458D01*
X114103182Y-129234009D01*
X114126631Y-129241122D01*
X114151018Y-129243524D01*
X114175404Y-129241122D01*
X114198853Y-129234009D01*
X114220464Y-129222457D01*
X114239406Y-129206912D01*
X114254950Y-129187971D01*
X114279616Y-129151056D01*
X114391044Y-129039628D01*
X114522076Y-128952075D01*
X114667665Y-128891770D01*
X114822222Y-128861027D01*
X114979812Y-128861027D01*
X115134369Y-128891770D01*
X115279958Y-128952075D01*
X115410990Y-129039628D01*
X115522416Y-129151054D01*
X115609969Y-129282086D01*
X115670274Y-129427675D01*
X115701017Y-129582232D01*
X115701017Y-129739822D01*
X115670274Y-129894379D01*
X115609969Y-130039968D01*
X115522416Y-130171000D01*
X115410990Y-130282426D01*
X115279958Y-130369979D01*
X115134369Y-130430284D01*
X114979812Y-130461027D01*
X114822222Y-130461027D01*
X114667665Y-130430284D01*
X114522076Y-130369979D01*
X114391044Y-130282426D01*
X114279616Y-130170998D01*
X114254950Y-130134083D01*
X114239405Y-130115141D01*
X114220463Y-130099596D01*
X114198852Y-130088045D01*
X114175403Y-130080932D01*
X114151016Y-130078530D01*
X114126630Y-130080932D01*
X114103181Y-130088045D01*
X114081570Y-130099597D01*
X114062628Y-130115142D01*
X114047084Y-130134083D01*
X114022418Y-130170998D01*
X113910990Y-130282426D01*
X113779958Y-130369979D01*
X113634369Y-130430284D01*
X113479812Y-130461027D01*
X113322222Y-130461027D01*
X113167665Y-130430284D01*
X113022076Y-130369979D01*
X112891044Y-130282426D01*
X112779616Y-130170998D01*
X112754950Y-130134083D01*
X112739405Y-130115141D01*
X112720463Y-130099596D01*
X112698852Y-130088045D01*
X112675403Y-130080932D01*
X112651016Y-130078530D01*
X112626630Y-130080932D01*
X112603181Y-130088045D01*
X112581570Y-130099597D01*
X112562628Y-130115142D01*
X112547084Y-130134083D01*
X112522418Y-130170998D01*
X112410990Y-130282426D01*
X112279958Y-130369979D01*
X112134369Y-130430284D01*
X111979812Y-130461027D01*
X111822222Y-130461027D01*
X111667665Y-130430284D01*
X111522076Y-130369979D01*
X111391044Y-130282426D01*
X111279616Y-130170998D01*
X111254950Y-130134083D01*
X111239405Y-130115141D01*
X111220463Y-130099596D01*
X111198852Y-130088045D01*
X111175403Y-130080932D01*
X111151016Y-130078530D01*
X111126630Y-130080932D01*
X111103181Y-130088045D01*
X111081570Y-130099597D01*
X111062628Y-130115142D01*
X111047084Y-130134083D01*
X111022418Y-130170998D01*
X110910990Y-130282426D01*
X110779958Y-130369979D01*
X110634369Y-130430284D01*
X110479812Y-130461027D01*
X110322222Y-130461027D01*
X110167665Y-130430284D01*
X110022076Y-130369979D01*
X109891044Y-130282426D01*
X109779616Y-130170998D01*
X109754950Y-130134083D01*
X109739405Y-130115141D01*
X109720463Y-130099596D01*
X109698852Y-130088045D01*
X109675403Y-130080932D01*
X109651016Y-130078530D01*
X109626630Y-130080932D01*
X109603181Y-130088045D01*
X109581570Y-130099597D01*
X109562628Y-130115142D01*
X109547084Y-130134083D01*
X109522418Y-130170998D01*
X109410990Y-130282426D01*
X109279958Y-130369979D01*
X109134369Y-130430284D01*
X108979812Y-130461027D01*
X108822222Y-130461027D01*
X108667665Y-130430284D01*
X108522076Y-130369979D01*
X108391044Y-130282426D01*
X108279618Y-130171000D01*
X108192065Y-130039968D01*
X108131760Y-129894379D01*
X108101017Y-129739822D01*
X108101017Y-129582232D01*
X108131760Y-129427675D01*
X108192065Y-129282086D01*
X108279618Y-129151054D01*
X108391044Y-129039628D01*
X108522076Y-128952075D01*
X108667665Y-128891770D01*
X108822222Y-128861027D01*
X108979812Y-128861027D01*
X109134369Y-128891770D01*
X109134369Y-128891770D01*
G37*
G36*
X108634369Y-126891770D02*
X108779958Y-126952075D01*
X108910990Y-127039628D01*
X109022418Y-127151056D01*
X109047084Y-127187971D01*
X109062629Y-127206913D01*
X109081571Y-127222458D01*
X109103182Y-127234009D01*
X109126631Y-127241122D01*
X109151018Y-127243524D01*
X109175404Y-127241122D01*
X109198853Y-127234009D01*
X109220464Y-127222457D01*
X109239406Y-127206912D01*
X109254950Y-127187971D01*
X109279616Y-127151056D01*
X109391044Y-127039628D01*
X109522076Y-126952075D01*
X109667665Y-126891770D01*
X109822222Y-126861027D01*
X109979812Y-126861027D01*
X110134369Y-126891770D01*
X110279958Y-126952075D01*
X110410990Y-127039628D01*
X110522418Y-127151056D01*
X110547084Y-127187971D01*
X110562629Y-127206913D01*
X110581571Y-127222458D01*
X110603182Y-127234009D01*
X110626631Y-127241122D01*
X110651018Y-127243524D01*
X110675404Y-127241122D01*
X110698853Y-127234009D01*
X110720464Y-127222457D01*
X110739406Y-127206912D01*
X110754950Y-127187971D01*
X110779616Y-127151056D01*
X110891044Y-127039628D01*
X111022076Y-126952075D01*
X111167665Y-126891770D01*
X111322222Y-126861027D01*
X111479812Y-126861027D01*
X111634369Y-126891770D01*
X111779958Y-126952075D01*
X111910990Y-127039628D01*
X112022418Y-127151056D01*
X112047084Y-127187971D01*
X112062629Y-127206913D01*
X112081571Y-127222458D01*
X112103182Y-127234009D01*
X112126631Y-127241122D01*
X112151018Y-127243524D01*
X112175404Y-127241122D01*
X112198853Y-127234009D01*
X112220464Y-127222457D01*
X112239406Y-127206912D01*
X112254950Y-127187971D01*
X112279616Y-127151056D01*
X112391044Y-127039628D01*
X112522076Y-126952075D01*
X112667665Y-126891770D01*
X112822222Y-126861027D01*
X112979812Y-126861027D01*
X113134369Y-126891770D01*
X113279958Y-126952075D01*
X113410990Y-127039628D01*
X113522418Y-127151056D01*
X113547084Y-127187971D01*
X113562629Y-127206913D01*
X113581571Y-127222458D01*
X113603182Y-127234009D01*
X113626631Y-127241122D01*
X113651018Y-127243524D01*
X113675404Y-127241122D01*
X113698853Y-127234009D01*
X113720464Y-127222457D01*
X113739406Y-127206912D01*
X113754950Y-127187971D01*
X113779616Y-127151056D01*
X113891044Y-127039628D01*
X114022076Y-126952075D01*
X114167665Y-126891770D01*
X114322222Y-126861027D01*
X114479812Y-126861027D01*
X114634369Y-126891770D01*
X114779958Y-126952075D01*
X114910990Y-127039628D01*
X115022418Y-127151056D01*
X115047084Y-127187971D01*
X115062629Y-127206913D01*
X115081571Y-127222458D01*
X115103182Y-127234009D01*
X115126631Y-127241122D01*
X115151018Y-127243524D01*
X115175404Y-127241122D01*
X115198853Y-127234009D01*
X115220464Y-127222457D01*
X115239406Y-127206912D01*
X115254950Y-127187971D01*
X115279616Y-127151056D01*
X115391044Y-127039628D01*
X115522076Y-126952075D01*
X115667665Y-126891770D01*
X115822222Y-126861027D01*
X115979812Y-126861027D01*
X116134369Y-126891770D01*
X116279958Y-126952075D01*
X116410990Y-127039628D01*
X116522416Y-127151054D01*
X116609969Y-127282086D01*
X116670274Y-127427675D01*
X116701017Y-127582232D01*
X116701017Y-127739822D01*
X116670274Y-127894379D01*
X116609969Y-128039968D01*
X116522416Y-128171000D01*
X116410990Y-128282426D01*
X116279958Y-128369979D01*
X116134369Y-128430284D01*
X115979812Y-128461027D01*
X115822222Y-128461027D01*
X115667665Y-128430284D01*
X115522076Y-128369979D01*
X115391044Y-128282426D01*
X115279616Y-128170998D01*
X115254950Y-128134083D01*
X115239405Y-128115141D01*
X115220463Y-128099596D01*
X115198852Y-128088045D01*
X115175403Y-128080932D01*
X115151016Y-128078530D01*
X115126630Y-128080932D01*
X115103181Y-128088045D01*
X115081570Y-128099597D01*
X115062628Y-128115142D01*
X115047084Y-128134083D01*
X115022418Y-128170998D01*
X114910990Y-128282426D01*
X114779958Y-128369979D01*
X114634369Y-128430284D01*
X114479812Y-128461027D01*
X114322222Y-128461027D01*
X114167665Y-128430284D01*
X114022076Y-128369979D01*
X113891044Y-128282426D01*
X113779616Y-128170998D01*
X113754950Y-128134083D01*
X113739405Y-128115141D01*
X113720463Y-128099596D01*
X113698852Y-128088045D01*
X113675403Y-128080932D01*
X113651016Y-128078530D01*
X113626630Y-128080932D01*
X113603181Y-128088045D01*
X113581570Y-128099597D01*
X113562628Y-128115142D01*
X113547084Y-128134083D01*
X113522418Y-128170998D01*
X113410990Y-128282426D01*
X113279958Y-128369979D01*
X113134369Y-128430284D01*
X112979812Y-128461027D01*
X112822222Y-128461027D01*
X112667665Y-128430284D01*
X112522076Y-128369979D01*
X112391044Y-128282426D01*
X112279616Y-128170998D01*
X112254950Y-128134083D01*
X112239405Y-128115141D01*
X112220463Y-128099596D01*
X112198852Y-128088045D01*
X112175403Y-128080932D01*
X112151016Y-128078530D01*
X112126630Y-128080932D01*
X112103181Y-128088045D01*
X112081570Y-128099597D01*
X112062628Y-128115142D01*
X112047084Y-128134083D01*
X112022418Y-128170998D01*
X111910990Y-128282426D01*
X111779958Y-128369979D01*
X111634369Y-128430284D01*
X111479812Y-128461027D01*
X111322222Y-128461027D01*
X111167665Y-128430284D01*
X111022076Y-128369979D01*
X110891044Y-128282426D01*
X110779616Y-128170998D01*
X110754950Y-128134083D01*
X110739405Y-128115141D01*
X110720463Y-128099596D01*
X110698852Y-128088045D01*
X110675403Y-128080932D01*
X110651016Y-128078530D01*
X110626630Y-128080932D01*
X110603181Y-128088045D01*
X110581570Y-128099597D01*
X110562628Y-128115142D01*
X110547084Y-128134083D01*
X110522418Y-128170998D01*
X110410990Y-128282426D01*
X110279958Y-128369979D01*
X110134369Y-128430284D01*
X109979812Y-128461027D01*
X109822222Y-128461027D01*
X109667665Y-128430284D01*
X109522076Y-128369979D01*
X109391044Y-128282426D01*
X109279616Y-128170998D01*
X109254950Y-128134083D01*
X109239405Y-128115141D01*
X109220463Y-128099596D01*
X109198852Y-128088045D01*
X109175403Y-128080932D01*
X109151016Y-128078530D01*
X109126630Y-128080932D01*
X109103181Y-128088045D01*
X109081570Y-128099597D01*
X109062628Y-128115142D01*
X109047084Y-128134083D01*
X109022418Y-128170998D01*
X108910990Y-128282426D01*
X108779958Y-128369979D01*
X108634369Y-128430284D01*
X108479812Y-128461027D01*
X108322222Y-128461027D01*
X108167665Y-128430284D01*
X108022076Y-128369979D01*
X107891044Y-128282426D01*
X107779618Y-128171000D01*
X107692065Y-128039968D01*
X107631760Y-127894379D01*
X107601017Y-127739822D01*
X107601017Y-127582232D01*
X107631760Y-127427675D01*
X107692065Y-127282086D01*
X107779618Y-127151054D01*
X107891044Y-127039628D01*
X108022076Y-126952075D01*
X108167665Y-126891770D01*
X108322222Y-126861027D01*
X108479812Y-126861027D01*
X108634369Y-126891770D01*
X108634369Y-126891770D01*
G37*
G36*
X109634369Y-124891770D02*
X109779958Y-124952075D01*
X109910990Y-125039628D01*
X110022418Y-125151056D01*
X110047084Y-125187971D01*
X110062629Y-125206913D01*
X110081571Y-125222458D01*
X110103182Y-125234009D01*
X110126631Y-125241122D01*
X110151018Y-125243524D01*
X110175404Y-125241122D01*
X110198853Y-125234009D01*
X110220464Y-125222457D01*
X110239406Y-125206912D01*
X110254950Y-125187971D01*
X110279616Y-125151056D01*
X110391044Y-125039628D01*
X110522076Y-124952075D01*
X110667665Y-124891770D01*
X110822222Y-124861027D01*
X110979812Y-124861027D01*
X111134369Y-124891770D01*
X111279958Y-124952075D01*
X111410990Y-125039628D01*
X111522418Y-125151056D01*
X111547084Y-125187971D01*
X111562629Y-125206913D01*
X111581571Y-125222458D01*
X111603182Y-125234009D01*
X111626631Y-125241122D01*
X111651018Y-125243524D01*
X111675404Y-125241122D01*
X111698853Y-125234009D01*
X111720464Y-125222457D01*
X111739406Y-125206912D01*
X111754950Y-125187971D01*
X111779616Y-125151056D01*
X111891044Y-125039628D01*
X112022076Y-124952075D01*
X112167665Y-124891770D01*
X112322222Y-124861027D01*
X112479812Y-124861027D01*
X112634369Y-124891770D01*
X112779958Y-124952075D01*
X112910990Y-125039628D01*
X113022418Y-125151056D01*
X113047084Y-125187971D01*
X113062629Y-125206913D01*
X113081571Y-125222458D01*
X113103182Y-125234009D01*
X113126631Y-125241122D01*
X113151018Y-125243524D01*
X113175404Y-125241122D01*
X113198853Y-125234009D01*
X113220464Y-125222457D01*
X113239406Y-125206912D01*
X113254950Y-125187971D01*
X113279616Y-125151056D01*
X113391044Y-125039628D01*
X113522076Y-124952075D01*
X113667665Y-124891770D01*
X113822222Y-124861027D01*
X113979812Y-124861027D01*
X114134369Y-124891770D01*
X114279958Y-124952075D01*
X114410990Y-125039628D01*
X114522418Y-125151056D01*
X114547084Y-125187971D01*
X114562629Y-125206913D01*
X114581571Y-125222458D01*
X114603182Y-125234009D01*
X114626631Y-125241122D01*
X114651018Y-125243524D01*
X114675404Y-125241122D01*
X114698853Y-125234009D01*
X114720464Y-125222457D01*
X114739406Y-125206912D01*
X114754950Y-125187971D01*
X114779616Y-125151056D01*
X114891044Y-125039628D01*
X115022076Y-124952075D01*
X115167665Y-124891770D01*
X115322222Y-124861027D01*
X115479812Y-124861027D01*
X115634369Y-124891770D01*
X115779958Y-124952075D01*
X115910990Y-125039628D01*
X116022416Y-125151054D01*
X116109969Y-125282086D01*
X116170274Y-125427675D01*
X116201017Y-125582232D01*
X116201017Y-125739822D01*
X116170274Y-125894379D01*
X116109969Y-126039968D01*
X116022416Y-126171000D01*
X115910990Y-126282426D01*
X115779958Y-126369979D01*
X115634369Y-126430284D01*
X115479812Y-126461027D01*
X115322222Y-126461027D01*
X115167665Y-126430284D01*
X115022076Y-126369979D01*
X114891044Y-126282426D01*
X114779616Y-126170998D01*
X114754950Y-126134083D01*
X114739405Y-126115141D01*
X114720463Y-126099596D01*
X114698852Y-126088045D01*
X114675403Y-126080932D01*
X114651016Y-126078530D01*
X114626630Y-126080932D01*
X114603181Y-126088045D01*
X114581570Y-126099597D01*
X114562628Y-126115142D01*
X114547084Y-126134083D01*
X114522418Y-126170998D01*
X114410990Y-126282426D01*
X114279958Y-126369979D01*
X114134369Y-126430284D01*
X113979812Y-126461027D01*
X113822222Y-126461027D01*
X113667665Y-126430284D01*
X113522076Y-126369979D01*
X113391044Y-126282426D01*
X113279616Y-126170998D01*
X113254950Y-126134083D01*
X113239405Y-126115141D01*
X113220463Y-126099596D01*
X113198852Y-126088045D01*
X113175403Y-126080932D01*
X113151016Y-126078530D01*
X113126630Y-126080932D01*
X113103181Y-126088045D01*
X113081570Y-126099597D01*
X113062628Y-126115142D01*
X113047084Y-126134083D01*
X113022418Y-126170998D01*
X112910990Y-126282426D01*
X112779958Y-126369979D01*
X112634369Y-126430284D01*
X112479812Y-126461027D01*
X112322222Y-126461027D01*
X112167665Y-126430284D01*
X112022076Y-126369979D01*
X111891044Y-126282426D01*
X111779616Y-126170998D01*
X111754950Y-126134083D01*
X111739405Y-126115141D01*
X111720463Y-126099596D01*
X111698852Y-126088045D01*
X111675403Y-126080932D01*
X111651016Y-126078530D01*
X111626630Y-126080932D01*
X111603181Y-126088045D01*
X111581570Y-126099597D01*
X111562628Y-126115142D01*
X111547084Y-126134083D01*
X111522418Y-126170998D01*
X111410990Y-126282426D01*
X111279958Y-126369979D01*
X111134369Y-126430284D01*
X110979812Y-126461027D01*
X110822222Y-126461027D01*
X110667665Y-126430284D01*
X110522076Y-126369979D01*
X110391044Y-126282426D01*
X110279616Y-126170998D01*
X110254950Y-126134083D01*
X110239405Y-126115141D01*
X110220463Y-126099596D01*
X110198852Y-126088045D01*
X110175403Y-126080932D01*
X110151016Y-126078530D01*
X110126630Y-126080932D01*
X110103181Y-126088045D01*
X110081570Y-126099597D01*
X110062628Y-126115142D01*
X110047084Y-126134083D01*
X110022418Y-126170998D01*
X109910990Y-126282426D01*
X109779958Y-126369979D01*
X109634369Y-126430284D01*
X109479812Y-126461027D01*
X109322222Y-126461027D01*
X109167665Y-126430284D01*
X109022076Y-126369979D01*
X108891044Y-126282426D01*
X108779618Y-126171000D01*
X108692065Y-126039968D01*
X108631760Y-125894379D01*
X108601017Y-125739822D01*
X108601017Y-125582232D01*
X108631760Y-125427675D01*
X108692065Y-125282086D01*
X108779618Y-125151054D01*
X108891044Y-125039628D01*
X109022076Y-124952075D01*
X109167665Y-124891770D01*
X109322222Y-124861027D01*
X109479812Y-124861027D01*
X109634369Y-124891770D01*
X109634369Y-124891770D01*
G37*
G36*
X105626787Y-123726399D02*
X105742706Y-123749456D01*
X105924695Y-123824838D01*
X106088480Y-123934276D01*
X106227768Y-124073564D01*
X106337206Y-124237349D01*
X106412588Y-124419338D01*
X106451017Y-124612536D01*
X106451017Y-124809518D01*
X106412588Y-125002716D01*
X106337206Y-125184705D01*
X106227768Y-125348490D01*
X106088480Y-125487778D01*
X105924695Y-125597216D01*
X105742706Y-125672598D01*
X105626787Y-125695655D01*
X105549510Y-125711027D01*
X105352524Y-125711027D01*
X105275247Y-125695655D01*
X105159328Y-125672598D01*
X104977339Y-125597216D01*
X104813554Y-125487778D01*
X104674266Y-125348490D01*
X104564828Y-125184705D01*
X104489446Y-125002716D01*
X104451017Y-124809518D01*
X104451017Y-124612536D01*
X104489446Y-124419338D01*
X104564828Y-124237349D01*
X104674266Y-124073564D01*
X104813554Y-123934276D01*
X104977339Y-123824838D01*
X105159328Y-123749456D01*
X105275247Y-123726399D01*
X105352524Y-123711027D01*
X105549510Y-123711027D01*
X105626787Y-123726399D01*
X105626787Y-123726399D01*
G37*
G36*
X100734369Y-113491770D02*
X100879958Y-113552075D01*
X101010990Y-113639628D01*
X101122416Y-113751054D01*
X101209969Y-113882086D01*
X101270274Y-114027675D01*
X101301017Y-114182232D01*
X101301017Y-114339822D01*
X101270274Y-114494379D01*
X101209969Y-114639968D01*
X101122416Y-114771000D01*
X101010988Y-114882428D01*
X100974073Y-114907094D01*
X100955131Y-114922639D01*
X100939586Y-114941581D01*
X100928035Y-114963192D01*
X100920922Y-114986641D01*
X100918520Y-115011028D01*
X100920922Y-115035414D01*
X100928035Y-115058863D01*
X100939587Y-115080474D01*
X100955132Y-115099416D01*
X100974073Y-115114960D01*
X101010988Y-115139626D01*
X101122416Y-115251054D01*
X101209969Y-115382086D01*
X101270274Y-115527675D01*
X101301017Y-115682232D01*
X101301017Y-115839822D01*
X101270274Y-115994379D01*
X101209969Y-116139968D01*
X101122416Y-116271000D01*
X101010988Y-116382428D01*
X100974073Y-116407094D01*
X100955131Y-116422639D01*
X100939586Y-116441581D01*
X100928035Y-116463192D01*
X100920922Y-116486641D01*
X100918520Y-116511028D01*
X100920922Y-116535414D01*
X100928035Y-116558863D01*
X100939587Y-116580474D01*
X100955132Y-116599416D01*
X100974073Y-116614960D01*
X101010988Y-116639626D01*
X101122416Y-116751054D01*
X101209969Y-116882086D01*
X101270274Y-117027675D01*
X101301017Y-117182232D01*
X101301017Y-117339822D01*
X101270274Y-117494379D01*
X101209969Y-117639968D01*
X101122416Y-117771000D01*
X101010988Y-117882428D01*
X100974073Y-117907094D01*
X100955131Y-117922639D01*
X100939586Y-117941581D01*
X100928035Y-117963192D01*
X100920922Y-117986641D01*
X100918520Y-118011028D01*
X100920922Y-118035414D01*
X100928035Y-118058863D01*
X100939587Y-118080474D01*
X100955132Y-118099416D01*
X100974073Y-118114960D01*
X101010988Y-118139626D01*
X101122416Y-118251054D01*
X101209969Y-118382086D01*
X101270274Y-118527675D01*
X101301017Y-118682232D01*
X101301017Y-118839822D01*
X101270274Y-118994379D01*
X101209969Y-119139968D01*
X101122416Y-119271000D01*
X101010988Y-119382428D01*
X100974073Y-119407094D01*
X100955131Y-119422639D01*
X100939586Y-119441581D01*
X100928035Y-119463192D01*
X100920922Y-119486641D01*
X100918520Y-119511028D01*
X100920922Y-119535414D01*
X100928035Y-119558863D01*
X100939587Y-119580474D01*
X100955132Y-119599416D01*
X100974073Y-119614960D01*
X101010988Y-119639626D01*
X101122416Y-119751054D01*
X101209969Y-119882086D01*
X101270274Y-120027675D01*
X101301017Y-120182232D01*
X101301017Y-120339822D01*
X101270274Y-120494379D01*
X101209969Y-120639968D01*
X101122416Y-120771000D01*
X101010988Y-120882428D01*
X100974073Y-120907094D01*
X100955131Y-120922639D01*
X100939586Y-120941581D01*
X100928035Y-120963192D01*
X100920922Y-120986641D01*
X100918520Y-121011028D01*
X100920922Y-121035414D01*
X100928035Y-121058863D01*
X100939587Y-121080474D01*
X100955132Y-121099416D01*
X100974073Y-121114960D01*
X101010988Y-121139626D01*
X101122416Y-121251054D01*
X101209969Y-121382086D01*
X101270274Y-121527675D01*
X101301017Y-121682232D01*
X101301017Y-121839822D01*
X101270274Y-121994379D01*
X101209969Y-122139968D01*
X101122416Y-122271000D01*
X101010990Y-122382426D01*
X100879958Y-122469979D01*
X100734369Y-122530284D01*
X100579812Y-122561027D01*
X100422222Y-122561027D01*
X100267665Y-122530284D01*
X100122076Y-122469979D01*
X99991044Y-122382426D01*
X99879618Y-122271000D01*
X99792065Y-122139968D01*
X99731760Y-121994379D01*
X99701017Y-121839822D01*
X99701017Y-121682232D01*
X99731760Y-121527675D01*
X99792065Y-121382086D01*
X99879618Y-121251054D01*
X99991046Y-121139626D01*
X100027961Y-121114960D01*
X100046903Y-121099415D01*
X100062448Y-121080473D01*
X100073999Y-121058862D01*
X100081112Y-121035413D01*
X100083514Y-121011026D01*
X100081112Y-120986640D01*
X100073999Y-120963191D01*
X100062447Y-120941580D01*
X100046902Y-120922638D01*
X100027961Y-120907094D01*
X99991046Y-120882428D01*
X99879618Y-120771000D01*
X99792065Y-120639968D01*
X99731760Y-120494379D01*
X99701017Y-120339822D01*
X99701017Y-120182232D01*
X99731760Y-120027675D01*
X99792065Y-119882086D01*
X99879618Y-119751054D01*
X99991046Y-119639626D01*
X100027961Y-119614960D01*
X100046903Y-119599415D01*
X100062448Y-119580473D01*
X100073999Y-119558862D01*
X100081112Y-119535413D01*
X100083514Y-119511026D01*
X100081112Y-119486640D01*
X100073999Y-119463191D01*
X100062447Y-119441580D01*
X100046902Y-119422638D01*
X100027961Y-119407094D01*
X99991046Y-119382428D01*
X99879618Y-119271000D01*
X99792065Y-119139968D01*
X99731760Y-118994379D01*
X99701017Y-118839822D01*
X99701017Y-118682232D01*
X99731760Y-118527675D01*
X99792065Y-118382086D01*
X99879618Y-118251054D01*
X99991046Y-118139626D01*
X100027961Y-118114960D01*
X100046903Y-118099415D01*
X100062448Y-118080473D01*
X100073999Y-118058862D01*
X100081112Y-118035413D01*
X100083514Y-118011026D01*
X100081112Y-117986640D01*
X100073999Y-117963191D01*
X100062447Y-117941580D01*
X100046902Y-117922638D01*
X100027961Y-117907094D01*
X99991046Y-117882428D01*
X99879618Y-117771000D01*
X99792065Y-117639968D01*
X99731760Y-117494379D01*
X99701017Y-117339822D01*
X99701017Y-117182232D01*
X99731760Y-117027675D01*
X99792065Y-116882086D01*
X99879618Y-116751054D01*
X99991046Y-116639626D01*
X100027961Y-116614960D01*
X100046903Y-116599415D01*
X100062448Y-116580473D01*
X100073999Y-116558862D01*
X100081112Y-116535413D01*
X100083514Y-116511026D01*
X100081112Y-116486640D01*
X100073999Y-116463191D01*
X100062447Y-116441580D01*
X100046902Y-116422638D01*
X100027961Y-116407094D01*
X99991046Y-116382428D01*
X99879618Y-116271000D01*
X99792065Y-116139968D01*
X99731760Y-115994379D01*
X99701017Y-115839822D01*
X99701017Y-115682232D01*
X99731760Y-115527675D01*
X99792065Y-115382086D01*
X99879618Y-115251054D01*
X99991046Y-115139626D01*
X100027961Y-115114960D01*
X100046903Y-115099415D01*
X100062448Y-115080473D01*
X100073999Y-115058862D01*
X100081112Y-115035413D01*
X100083514Y-115011026D01*
X100081112Y-114986640D01*
X100073999Y-114963191D01*
X100062447Y-114941580D01*
X100046902Y-114922638D01*
X100027961Y-114907094D01*
X99991046Y-114882428D01*
X99879618Y-114771000D01*
X99792065Y-114639968D01*
X99731760Y-114494379D01*
X99701017Y-114339822D01*
X99701017Y-114182232D01*
X99731760Y-114027675D01*
X99792065Y-113882086D01*
X99879618Y-113751054D01*
X99991044Y-113639628D01*
X100122076Y-113552075D01*
X100267665Y-113491770D01*
X100422222Y-113461027D01*
X100579812Y-113461027D01*
X100734369Y-113491770D01*
X100734369Y-113491770D01*
G37*
G36*
X120034369Y-113491770D02*
X120179958Y-113552075D01*
X120310990Y-113639628D01*
X120422416Y-113751054D01*
X120509969Y-113882086D01*
X120570274Y-114027675D01*
X120601017Y-114182232D01*
X120601017Y-114339822D01*
X120570274Y-114494379D01*
X120509969Y-114639968D01*
X120422416Y-114771000D01*
X120310988Y-114882428D01*
X120274073Y-114907094D01*
X120255131Y-114922639D01*
X120239586Y-114941581D01*
X120228035Y-114963192D01*
X120220922Y-114986641D01*
X120218520Y-115011028D01*
X120220922Y-115035414D01*
X120228035Y-115058863D01*
X120239587Y-115080474D01*
X120255132Y-115099416D01*
X120274073Y-115114960D01*
X120310988Y-115139626D01*
X120422416Y-115251054D01*
X120509969Y-115382086D01*
X120570274Y-115527675D01*
X120601017Y-115682232D01*
X120601017Y-115839822D01*
X120570274Y-115994379D01*
X120509969Y-116139968D01*
X120422416Y-116271000D01*
X120310988Y-116382428D01*
X120274073Y-116407094D01*
X120255131Y-116422639D01*
X120239586Y-116441581D01*
X120228035Y-116463192D01*
X120220922Y-116486641D01*
X120218520Y-116511028D01*
X120220922Y-116535414D01*
X120228035Y-116558863D01*
X120239587Y-116580474D01*
X120255132Y-116599416D01*
X120274073Y-116614960D01*
X120310988Y-116639626D01*
X120422416Y-116751054D01*
X120509969Y-116882086D01*
X120570274Y-117027675D01*
X120601017Y-117182232D01*
X120601017Y-117339822D01*
X120570274Y-117494379D01*
X120509969Y-117639968D01*
X120422416Y-117771000D01*
X120310988Y-117882428D01*
X120274073Y-117907094D01*
X120255131Y-117922639D01*
X120239586Y-117941581D01*
X120228035Y-117963192D01*
X120220922Y-117986641D01*
X120218520Y-118011028D01*
X120220922Y-118035414D01*
X120228035Y-118058863D01*
X120239587Y-118080474D01*
X120255132Y-118099416D01*
X120274073Y-118114960D01*
X120310988Y-118139626D01*
X120422416Y-118251054D01*
X120509969Y-118382086D01*
X120570274Y-118527675D01*
X120601017Y-118682232D01*
X120601017Y-118839822D01*
X120570274Y-118994379D01*
X120509969Y-119139968D01*
X120422416Y-119271000D01*
X120310988Y-119382428D01*
X120274073Y-119407094D01*
X120255131Y-119422639D01*
X120239586Y-119441581D01*
X120228035Y-119463192D01*
X120220922Y-119486641D01*
X120218520Y-119511028D01*
X120220922Y-119535414D01*
X120228035Y-119558863D01*
X120239587Y-119580474D01*
X120255132Y-119599416D01*
X120274073Y-119614960D01*
X120310988Y-119639626D01*
X120422416Y-119751054D01*
X120509969Y-119882086D01*
X120570274Y-120027675D01*
X120601017Y-120182232D01*
X120601017Y-120339822D01*
X120570274Y-120494379D01*
X120509969Y-120639968D01*
X120422416Y-120771000D01*
X120310988Y-120882428D01*
X120274073Y-120907094D01*
X120255131Y-120922639D01*
X120239586Y-120941581D01*
X120228035Y-120963192D01*
X120220922Y-120986641D01*
X120218520Y-121011028D01*
X120220922Y-121035414D01*
X120228035Y-121058863D01*
X120239587Y-121080474D01*
X120255132Y-121099416D01*
X120274073Y-121114960D01*
X120310988Y-121139626D01*
X120422416Y-121251054D01*
X120509969Y-121382086D01*
X120570274Y-121527675D01*
X120601017Y-121682232D01*
X120601017Y-121839822D01*
X120570274Y-121994379D01*
X120509969Y-122139968D01*
X120422416Y-122271000D01*
X120310990Y-122382426D01*
X120179958Y-122469979D01*
X120034369Y-122530284D01*
X119879812Y-122561027D01*
X119722222Y-122561027D01*
X119567665Y-122530284D01*
X119422076Y-122469979D01*
X119291044Y-122382426D01*
X119179618Y-122271000D01*
X119092065Y-122139968D01*
X119031760Y-121994379D01*
X119001017Y-121839822D01*
X119001017Y-121682232D01*
X119031760Y-121527675D01*
X119092065Y-121382086D01*
X119179618Y-121251054D01*
X119291046Y-121139626D01*
X119327961Y-121114960D01*
X119346903Y-121099415D01*
X119362448Y-121080473D01*
X119373999Y-121058862D01*
X119381112Y-121035413D01*
X119383514Y-121011026D01*
X119381112Y-120986640D01*
X119373999Y-120963191D01*
X119362447Y-120941580D01*
X119346902Y-120922638D01*
X119327961Y-120907094D01*
X119291046Y-120882428D01*
X119179618Y-120771000D01*
X119092065Y-120639968D01*
X119031760Y-120494379D01*
X119001017Y-120339822D01*
X119001017Y-120182232D01*
X119031760Y-120027675D01*
X119092065Y-119882086D01*
X119179618Y-119751054D01*
X119291046Y-119639626D01*
X119327961Y-119614960D01*
X119346903Y-119599415D01*
X119362448Y-119580473D01*
X119373999Y-119558862D01*
X119381112Y-119535413D01*
X119383514Y-119511026D01*
X119381112Y-119486640D01*
X119373999Y-119463191D01*
X119362447Y-119441580D01*
X119346902Y-119422638D01*
X119327961Y-119407094D01*
X119291046Y-119382428D01*
X119179618Y-119271000D01*
X119092065Y-119139968D01*
X119031760Y-118994379D01*
X119001017Y-118839822D01*
X119001017Y-118682232D01*
X119031760Y-118527675D01*
X119092065Y-118382086D01*
X119179618Y-118251054D01*
X119291046Y-118139626D01*
X119327961Y-118114960D01*
X119346903Y-118099415D01*
X119362448Y-118080473D01*
X119373999Y-118058862D01*
X119381112Y-118035413D01*
X119383514Y-118011026D01*
X119381112Y-117986640D01*
X119373999Y-117963191D01*
X119362447Y-117941580D01*
X119346902Y-117922638D01*
X119327961Y-117907094D01*
X119291046Y-117882428D01*
X119179618Y-117771000D01*
X119092065Y-117639968D01*
X119031760Y-117494379D01*
X119001017Y-117339822D01*
X119001017Y-117182232D01*
X119031760Y-117027675D01*
X119092065Y-116882086D01*
X119179618Y-116751054D01*
X119291046Y-116639626D01*
X119327961Y-116614960D01*
X119346903Y-116599415D01*
X119362448Y-116580473D01*
X119373999Y-116558862D01*
X119381112Y-116535413D01*
X119383514Y-116511026D01*
X119381112Y-116486640D01*
X119373999Y-116463191D01*
X119362447Y-116441580D01*
X119346902Y-116422638D01*
X119327961Y-116407094D01*
X119291046Y-116382428D01*
X119179618Y-116271000D01*
X119092065Y-116139968D01*
X119031760Y-115994379D01*
X119001017Y-115839822D01*
X119001017Y-115682232D01*
X119031760Y-115527675D01*
X119092065Y-115382086D01*
X119179618Y-115251054D01*
X119291046Y-115139626D01*
X119327961Y-115114960D01*
X119346903Y-115099415D01*
X119362448Y-115080473D01*
X119373999Y-115058862D01*
X119381112Y-115035413D01*
X119383514Y-115011026D01*
X119381112Y-114986640D01*
X119373999Y-114963191D01*
X119362447Y-114941580D01*
X119346902Y-114922638D01*
X119327961Y-114907094D01*
X119291046Y-114882428D01*
X119179618Y-114771000D01*
X119092065Y-114639968D01*
X119031760Y-114494379D01*
X119001017Y-114339822D01*
X119001017Y-114182232D01*
X119031760Y-114027675D01*
X119092065Y-113882086D01*
X119179618Y-113751054D01*
X119291044Y-113639628D01*
X119422076Y-113552075D01*
X119567665Y-113491770D01*
X119722222Y-113461027D01*
X119879812Y-113461027D01*
X120034369Y-113491770D01*
X120034369Y-113491770D01*
G37*
G36*
X102734369Y-114491770D02*
X102879958Y-114552075D01*
X103010990Y-114639628D01*
X103122416Y-114751054D01*
X103209969Y-114882086D01*
X103270274Y-115027675D01*
X103301017Y-115182232D01*
X103301017Y-115339822D01*
X103270274Y-115494379D01*
X103209969Y-115639968D01*
X103122416Y-115771000D01*
X103010988Y-115882428D01*
X102974073Y-115907094D01*
X102955131Y-115922639D01*
X102939586Y-115941581D01*
X102928035Y-115963192D01*
X102920922Y-115986641D01*
X102918520Y-116011028D01*
X102920922Y-116035414D01*
X102928035Y-116058863D01*
X102939587Y-116080474D01*
X102955132Y-116099416D01*
X102974073Y-116114960D01*
X103010988Y-116139626D01*
X103122416Y-116251054D01*
X103209969Y-116382086D01*
X103270274Y-116527675D01*
X103301017Y-116682232D01*
X103301017Y-116839822D01*
X103270274Y-116994379D01*
X103209969Y-117139968D01*
X103122416Y-117271000D01*
X103010988Y-117382428D01*
X102974073Y-117407094D01*
X102955131Y-117422639D01*
X102939586Y-117441581D01*
X102928035Y-117463192D01*
X102920922Y-117486641D01*
X102918520Y-117511028D01*
X102920922Y-117535414D01*
X102928035Y-117558863D01*
X102939587Y-117580474D01*
X102955132Y-117599416D01*
X102974073Y-117614960D01*
X103010988Y-117639626D01*
X103122416Y-117751054D01*
X103209969Y-117882086D01*
X103270274Y-118027675D01*
X103301017Y-118182232D01*
X103301017Y-118339822D01*
X103270274Y-118494379D01*
X103209969Y-118639968D01*
X103122416Y-118771000D01*
X103010988Y-118882428D01*
X102974073Y-118907094D01*
X102955131Y-118922639D01*
X102939586Y-118941581D01*
X102928035Y-118963192D01*
X102920922Y-118986641D01*
X102918520Y-119011028D01*
X102920922Y-119035414D01*
X102928035Y-119058863D01*
X102939587Y-119080474D01*
X102955132Y-119099416D01*
X102974073Y-119114960D01*
X103010988Y-119139626D01*
X103122416Y-119251054D01*
X103209969Y-119382086D01*
X103270274Y-119527675D01*
X103301017Y-119682232D01*
X103301017Y-119839822D01*
X103270274Y-119994379D01*
X103209969Y-120139968D01*
X103122416Y-120271000D01*
X103010988Y-120382428D01*
X102974073Y-120407094D01*
X102955131Y-120422639D01*
X102939586Y-120441581D01*
X102928035Y-120463192D01*
X102920922Y-120486641D01*
X102918520Y-120511028D01*
X102920922Y-120535414D01*
X102928035Y-120558863D01*
X102939587Y-120580474D01*
X102955132Y-120599416D01*
X102974073Y-120614960D01*
X103010988Y-120639626D01*
X103122416Y-120751054D01*
X103209969Y-120882086D01*
X103270274Y-121027675D01*
X103301017Y-121182232D01*
X103301017Y-121339822D01*
X103270274Y-121494379D01*
X103209969Y-121639968D01*
X103122416Y-121771000D01*
X103010990Y-121882426D01*
X102879958Y-121969979D01*
X102734369Y-122030284D01*
X102579812Y-122061027D01*
X102422222Y-122061027D01*
X102267665Y-122030284D01*
X102122076Y-121969979D01*
X101991044Y-121882426D01*
X101879618Y-121771000D01*
X101792065Y-121639968D01*
X101731760Y-121494379D01*
X101701017Y-121339822D01*
X101701017Y-121182232D01*
X101731760Y-121027675D01*
X101792065Y-120882086D01*
X101879618Y-120751054D01*
X101991046Y-120639626D01*
X102027961Y-120614960D01*
X102046903Y-120599415D01*
X102062448Y-120580473D01*
X102073999Y-120558862D01*
X102081112Y-120535413D01*
X102083514Y-120511026D01*
X102081112Y-120486640D01*
X102073999Y-120463191D01*
X102062447Y-120441580D01*
X102046902Y-120422638D01*
X102027961Y-120407094D01*
X101991046Y-120382428D01*
X101879618Y-120271000D01*
X101792065Y-120139968D01*
X101731760Y-119994379D01*
X101701017Y-119839822D01*
X101701017Y-119682232D01*
X101731760Y-119527675D01*
X101792065Y-119382086D01*
X101879618Y-119251054D01*
X101991046Y-119139626D01*
X102027961Y-119114960D01*
X102046903Y-119099415D01*
X102062448Y-119080473D01*
X102073999Y-119058862D01*
X102081112Y-119035413D01*
X102083514Y-119011026D01*
X102081112Y-118986640D01*
X102073999Y-118963191D01*
X102062447Y-118941580D01*
X102046902Y-118922638D01*
X102027961Y-118907094D01*
X101991046Y-118882428D01*
X101879618Y-118771000D01*
X101792065Y-118639968D01*
X101731760Y-118494379D01*
X101701017Y-118339822D01*
X101701017Y-118182232D01*
X101731760Y-118027675D01*
X101792065Y-117882086D01*
X101879618Y-117751054D01*
X101991046Y-117639626D01*
X102027961Y-117614960D01*
X102046903Y-117599415D01*
X102062448Y-117580473D01*
X102073999Y-117558862D01*
X102081112Y-117535413D01*
X102083514Y-117511026D01*
X102081112Y-117486640D01*
X102073999Y-117463191D01*
X102062447Y-117441580D01*
X102046902Y-117422638D01*
X102027961Y-117407094D01*
X101991046Y-117382428D01*
X101879618Y-117271000D01*
X101792065Y-117139968D01*
X101731760Y-116994379D01*
X101701017Y-116839822D01*
X101701017Y-116682232D01*
X101731760Y-116527675D01*
X101792065Y-116382086D01*
X101879618Y-116251054D01*
X101991046Y-116139626D01*
X102027961Y-116114960D01*
X102046903Y-116099415D01*
X102062448Y-116080473D01*
X102073999Y-116058862D01*
X102081112Y-116035413D01*
X102083514Y-116011026D01*
X102081112Y-115986640D01*
X102073999Y-115963191D01*
X102062447Y-115941580D01*
X102046902Y-115922638D01*
X102027961Y-115907094D01*
X101991046Y-115882428D01*
X101879618Y-115771000D01*
X101792065Y-115639968D01*
X101731760Y-115494379D01*
X101701017Y-115339822D01*
X101701017Y-115182232D01*
X101731760Y-115027675D01*
X101792065Y-114882086D01*
X101879618Y-114751054D01*
X101991044Y-114639628D01*
X102122076Y-114552075D01*
X102267665Y-114491770D01*
X102422222Y-114461027D01*
X102579812Y-114461027D01*
X102734369Y-114491770D01*
X102734369Y-114491770D01*
G37*
G36*
X122034369Y-114491770D02*
X122179958Y-114552075D01*
X122310990Y-114639628D01*
X122422416Y-114751054D01*
X122509969Y-114882086D01*
X122570274Y-115027675D01*
X122601017Y-115182232D01*
X122601017Y-115339822D01*
X122570274Y-115494379D01*
X122509969Y-115639968D01*
X122422416Y-115771000D01*
X122310988Y-115882428D01*
X122274073Y-115907094D01*
X122255131Y-115922639D01*
X122239586Y-115941581D01*
X122228035Y-115963192D01*
X122220922Y-115986641D01*
X122218520Y-116011028D01*
X122220922Y-116035414D01*
X122228035Y-116058863D01*
X122239587Y-116080474D01*
X122255132Y-116099416D01*
X122274073Y-116114960D01*
X122310988Y-116139626D01*
X122422416Y-116251054D01*
X122509969Y-116382086D01*
X122570274Y-116527675D01*
X122601017Y-116682232D01*
X122601017Y-116839822D01*
X122570274Y-116994379D01*
X122509969Y-117139968D01*
X122422416Y-117271000D01*
X122310988Y-117382428D01*
X122274073Y-117407094D01*
X122255131Y-117422639D01*
X122239586Y-117441581D01*
X122228035Y-117463192D01*
X122220922Y-117486641D01*
X122218520Y-117511028D01*
X122220922Y-117535414D01*
X122228035Y-117558863D01*
X122239587Y-117580474D01*
X122255132Y-117599416D01*
X122274073Y-117614960D01*
X122310988Y-117639626D01*
X122422416Y-117751054D01*
X122509969Y-117882086D01*
X122570274Y-118027675D01*
X122601017Y-118182232D01*
X122601017Y-118339822D01*
X122570274Y-118494379D01*
X122509969Y-118639968D01*
X122422416Y-118771000D01*
X122310988Y-118882428D01*
X122274073Y-118907094D01*
X122255131Y-118922639D01*
X122239586Y-118941581D01*
X122228035Y-118963192D01*
X122220922Y-118986641D01*
X122218520Y-119011028D01*
X122220922Y-119035414D01*
X122228035Y-119058863D01*
X122239587Y-119080474D01*
X122255132Y-119099416D01*
X122274073Y-119114960D01*
X122310988Y-119139626D01*
X122422416Y-119251054D01*
X122509969Y-119382086D01*
X122570274Y-119527675D01*
X122601017Y-119682232D01*
X122601017Y-119839822D01*
X122570274Y-119994379D01*
X122509969Y-120139968D01*
X122422416Y-120271000D01*
X122310988Y-120382428D01*
X122274073Y-120407094D01*
X122255131Y-120422639D01*
X122239586Y-120441581D01*
X122228035Y-120463192D01*
X122220922Y-120486641D01*
X122218520Y-120511028D01*
X122220922Y-120535414D01*
X122228035Y-120558863D01*
X122239587Y-120580474D01*
X122255132Y-120599416D01*
X122274073Y-120614960D01*
X122310988Y-120639626D01*
X122422416Y-120751054D01*
X122509969Y-120882086D01*
X122570274Y-121027675D01*
X122601017Y-121182232D01*
X122601017Y-121339822D01*
X122570274Y-121494379D01*
X122509969Y-121639968D01*
X122422416Y-121771000D01*
X122310990Y-121882426D01*
X122179958Y-121969979D01*
X122034369Y-122030284D01*
X121879812Y-122061027D01*
X121722222Y-122061027D01*
X121567665Y-122030284D01*
X121422076Y-121969979D01*
X121291044Y-121882426D01*
X121179618Y-121771000D01*
X121092065Y-121639968D01*
X121031760Y-121494379D01*
X121001017Y-121339822D01*
X121001017Y-121182232D01*
X121031760Y-121027675D01*
X121092065Y-120882086D01*
X121179618Y-120751054D01*
X121291046Y-120639626D01*
X121327961Y-120614960D01*
X121346903Y-120599415D01*
X121362448Y-120580473D01*
X121373999Y-120558862D01*
X121381112Y-120535413D01*
X121383514Y-120511026D01*
X121381112Y-120486640D01*
X121373999Y-120463191D01*
X121362447Y-120441580D01*
X121346902Y-120422638D01*
X121327961Y-120407094D01*
X121291046Y-120382428D01*
X121179618Y-120271000D01*
X121092065Y-120139968D01*
X121031760Y-119994379D01*
X121001017Y-119839822D01*
X121001017Y-119682232D01*
X121031760Y-119527675D01*
X121092065Y-119382086D01*
X121179618Y-119251054D01*
X121291046Y-119139626D01*
X121327961Y-119114960D01*
X121346903Y-119099415D01*
X121362448Y-119080473D01*
X121373999Y-119058862D01*
X121381112Y-119035413D01*
X121383514Y-119011026D01*
X121381112Y-118986640D01*
X121373999Y-118963191D01*
X121362447Y-118941580D01*
X121346902Y-118922638D01*
X121327961Y-118907094D01*
X121291046Y-118882428D01*
X121179618Y-118771000D01*
X121092065Y-118639968D01*
X121031760Y-118494379D01*
X121001017Y-118339822D01*
X121001017Y-118182232D01*
X121031760Y-118027675D01*
X121092065Y-117882086D01*
X121179618Y-117751054D01*
X121291046Y-117639626D01*
X121327961Y-117614960D01*
X121346903Y-117599415D01*
X121362448Y-117580473D01*
X121373999Y-117558862D01*
X121381112Y-117535413D01*
X121383514Y-117511026D01*
X121381112Y-117486640D01*
X121373999Y-117463191D01*
X121362447Y-117441580D01*
X121346902Y-117422638D01*
X121327961Y-117407094D01*
X121291046Y-117382428D01*
X121179618Y-117271000D01*
X121092065Y-117139968D01*
X121031760Y-116994379D01*
X121001017Y-116839822D01*
X121001017Y-116682232D01*
X121031760Y-116527675D01*
X121092065Y-116382086D01*
X121179618Y-116251054D01*
X121291046Y-116139626D01*
X121327961Y-116114960D01*
X121346903Y-116099415D01*
X121362448Y-116080473D01*
X121373999Y-116058862D01*
X121381112Y-116035413D01*
X121383514Y-116011026D01*
X121381112Y-115986640D01*
X121373999Y-115963191D01*
X121362447Y-115941580D01*
X121346902Y-115922638D01*
X121327961Y-115907094D01*
X121291046Y-115882428D01*
X121179618Y-115771000D01*
X121092065Y-115639968D01*
X121031760Y-115494379D01*
X121001017Y-115339822D01*
X121001017Y-115182232D01*
X121031760Y-115027675D01*
X121092065Y-114882086D01*
X121179618Y-114751054D01*
X121291044Y-114639628D01*
X121422076Y-114552075D01*
X121567665Y-114491770D01*
X121722222Y-114461027D01*
X121879812Y-114461027D01*
X122034369Y-114491770D01*
X122034369Y-114491770D01*
G37*
G36*
X104734369Y-113991770D02*
X104879958Y-114052075D01*
X105010990Y-114139628D01*
X105122416Y-114251054D01*
X105209969Y-114382086D01*
X105270274Y-114527675D01*
X105301017Y-114682232D01*
X105301017Y-114839822D01*
X105270274Y-114994379D01*
X105209969Y-115139968D01*
X105122416Y-115271000D01*
X105010988Y-115382428D01*
X104974073Y-115407094D01*
X104955131Y-115422639D01*
X104939586Y-115441581D01*
X104928035Y-115463192D01*
X104920922Y-115486641D01*
X104918520Y-115511028D01*
X104920922Y-115535414D01*
X104928035Y-115558863D01*
X104939587Y-115580474D01*
X104955132Y-115599416D01*
X104974073Y-115614960D01*
X105010988Y-115639626D01*
X105122416Y-115751054D01*
X105209969Y-115882086D01*
X105270274Y-116027675D01*
X105301017Y-116182232D01*
X105301017Y-116339822D01*
X105270274Y-116494379D01*
X105209969Y-116639968D01*
X105122416Y-116771000D01*
X105010988Y-116882428D01*
X104974073Y-116907094D01*
X104955131Y-116922639D01*
X104939586Y-116941581D01*
X104928035Y-116963192D01*
X104920922Y-116986641D01*
X104918520Y-117011028D01*
X104920922Y-117035414D01*
X104928035Y-117058863D01*
X104939587Y-117080474D01*
X104955132Y-117099416D01*
X104974073Y-117114960D01*
X105010988Y-117139626D01*
X105122416Y-117251054D01*
X105209969Y-117382086D01*
X105270274Y-117527675D01*
X105301017Y-117682232D01*
X105301017Y-117839822D01*
X105270274Y-117994379D01*
X105209969Y-118139968D01*
X105122416Y-118271000D01*
X105010988Y-118382428D01*
X104974073Y-118407094D01*
X104955131Y-118422639D01*
X104939586Y-118441581D01*
X104928035Y-118463192D01*
X104920922Y-118486641D01*
X104918520Y-118511028D01*
X104920922Y-118535414D01*
X104928035Y-118558863D01*
X104939587Y-118580474D01*
X104955132Y-118599416D01*
X104974073Y-118614960D01*
X105010988Y-118639626D01*
X105122416Y-118751054D01*
X105209969Y-118882086D01*
X105270274Y-119027675D01*
X105301017Y-119182232D01*
X105301017Y-119339822D01*
X105270274Y-119494379D01*
X105209969Y-119639968D01*
X105122416Y-119771000D01*
X105010988Y-119882428D01*
X104974073Y-119907094D01*
X104955131Y-119922639D01*
X104939586Y-119941581D01*
X104928035Y-119963192D01*
X104920922Y-119986641D01*
X104918520Y-120011028D01*
X104920922Y-120035414D01*
X104928035Y-120058863D01*
X104939587Y-120080474D01*
X104955132Y-120099416D01*
X104974073Y-120114960D01*
X105010988Y-120139626D01*
X105122416Y-120251054D01*
X105209969Y-120382086D01*
X105270274Y-120527675D01*
X105301017Y-120682232D01*
X105301017Y-120839822D01*
X105270274Y-120994379D01*
X105209969Y-121139968D01*
X105122416Y-121271000D01*
X105010990Y-121382426D01*
X104879958Y-121469979D01*
X104734369Y-121530284D01*
X104579812Y-121561027D01*
X104422222Y-121561027D01*
X104267665Y-121530284D01*
X104122076Y-121469979D01*
X103991044Y-121382426D01*
X103879618Y-121271000D01*
X103792065Y-121139968D01*
X103731760Y-120994379D01*
X103701017Y-120839822D01*
X103701017Y-120682232D01*
X103731760Y-120527675D01*
X103792065Y-120382086D01*
X103879618Y-120251054D01*
X103991046Y-120139626D01*
X104027961Y-120114960D01*
X104046903Y-120099415D01*
X104062448Y-120080473D01*
X104073999Y-120058862D01*
X104081112Y-120035413D01*
X104083514Y-120011026D01*
X104081112Y-119986640D01*
X104073999Y-119963191D01*
X104062447Y-119941580D01*
X104046902Y-119922638D01*
X104027961Y-119907094D01*
X103991046Y-119882428D01*
X103879618Y-119771000D01*
X103792065Y-119639968D01*
X103731760Y-119494379D01*
X103701017Y-119339822D01*
X103701017Y-119182232D01*
X103731760Y-119027675D01*
X103792065Y-118882086D01*
X103879618Y-118751054D01*
X103991046Y-118639626D01*
X104027961Y-118614960D01*
X104046903Y-118599415D01*
X104062448Y-118580473D01*
X104073999Y-118558862D01*
X104081112Y-118535413D01*
X104083514Y-118511026D01*
X104081112Y-118486640D01*
X104073999Y-118463191D01*
X104062447Y-118441580D01*
X104046902Y-118422638D01*
X104027961Y-118407094D01*
X103991046Y-118382428D01*
X103879618Y-118271000D01*
X103792065Y-118139968D01*
X103731760Y-117994379D01*
X103701017Y-117839822D01*
X103701017Y-117682232D01*
X103731760Y-117527675D01*
X103792065Y-117382086D01*
X103879618Y-117251054D01*
X103991046Y-117139626D01*
X104027961Y-117114960D01*
X104046903Y-117099415D01*
X104062448Y-117080473D01*
X104073999Y-117058862D01*
X104081112Y-117035413D01*
X104083514Y-117011026D01*
X104081112Y-116986640D01*
X104073999Y-116963191D01*
X104062447Y-116941580D01*
X104046902Y-116922638D01*
X104027961Y-116907094D01*
X103991046Y-116882428D01*
X103879618Y-116771000D01*
X103792065Y-116639968D01*
X103731760Y-116494379D01*
X103701017Y-116339822D01*
X103701017Y-116182232D01*
X103731760Y-116027675D01*
X103792065Y-115882086D01*
X103879618Y-115751054D01*
X103991046Y-115639626D01*
X104027961Y-115614960D01*
X104046903Y-115599415D01*
X104062448Y-115580473D01*
X104073999Y-115558862D01*
X104081112Y-115535413D01*
X104083514Y-115511026D01*
X104081112Y-115486640D01*
X104073999Y-115463191D01*
X104062447Y-115441580D01*
X104046902Y-115422638D01*
X104027961Y-115407094D01*
X103991046Y-115382428D01*
X103879618Y-115271000D01*
X103792065Y-115139968D01*
X103731760Y-114994379D01*
X103701017Y-114839822D01*
X103701017Y-114682232D01*
X103731760Y-114527675D01*
X103792065Y-114382086D01*
X103879618Y-114251054D01*
X103991044Y-114139628D01*
X104122076Y-114052075D01*
X104267665Y-113991770D01*
X104422222Y-113961027D01*
X104579812Y-113961027D01*
X104734369Y-113991770D01*
X104734369Y-113991770D01*
G37*
G36*
X124034369Y-113991770D02*
X124179958Y-114052075D01*
X124310990Y-114139628D01*
X124422416Y-114251054D01*
X124509969Y-114382086D01*
X124570274Y-114527675D01*
X124601017Y-114682232D01*
X124601017Y-114839822D01*
X124570274Y-114994379D01*
X124509969Y-115139968D01*
X124422416Y-115271000D01*
X124310988Y-115382428D01*
X124274073Y-115407094D01*
X124255131Y-115422639D01*
X124239586Y-115441581D01*
X124228035Y-115463192D01*
X124220922Y-115486641D01*
X124218520Y-115511028D01*
X124220922Y-115535414D01*
X124228035Y-115558863D01*
X124239587Y-115580474D01*
X124255132Y-115599416D01*
X124274073Y-115614960D01*
X124310988Y-115639626D01*
X124422416Y-115751054D01*
X124509969Y-115882086D01*
X124570274Y-116027675D01*
X124601017Y-116182232D01*
X124601017Y-116339822D01*
X124570274Y-116494379D01*
X124509969Y-116639968D01*
X124422416Y-116771000D01*
X124310988Y-116882428D01*
X124274073Y-116907094D01*
X124255131Y-116922639D01*
X124239586Y-116941581D01*
X124228035Y-116963192D01*
X124220922Y-116986641D01*
X124218520Y-117011028D01*
X124220922Y-117035414D01*
X124228035Y-117058863D01*
X124239587Y-117080474D01*
X124255132Y-117099416D01*
X124274073Y-117114960D01*
X124310988Y-117139626D01*
X124422416Y-117251054D01*
X124509969Y-117382086D01*
X124570274Y-117527675D01*
X124601017Y-117682232D01*
X124601017Y-117839822D01*
X124570274Y-117994379D01*
X124509969Y-118139968D01*
X124422416Y-118271000D01*
X124310988Y-118382428D01*
X124274073Y-118407094D01*
X124255131Y-118422639D01*
X124239586Y-118441581D01*
X124228035Y-118463192D01*
X124220922Y-118486641D01*
X124218520Y-118511028D01*
X124220922Y-118535414D01*
X124228035Y-118558863D01*
X124239587Y-118580474D01*
X124255132Y-118599416D01*
X124274073Y-118614960D01*
X124310988Y-118639626D01*
X124422416Y-118751054D01*
X124509969Y-118882086D01*
X124570274Y-119027675D01*
X124601017Y-119182232D01*
X124601017Y-119339822D01*
X124570274Y-119494379D01*
X124509969Y-119639968D01*
X124422416Y-119771000D01*
X124310988Y-119882428D01*
X124274073Y-119907094D01*
X124255131Y-119922639D01*
X124239586Y-119941581D01*
X124228035Y-119963192D01*
X124220922Y-119986641D01*
X124218520Y-120011028D01*
X124220922Y-120035414D01*
X124228035Y-120058863D01*
X124239587Y-120080474D01*
X124255132Y-120099416D01*
X124274073Y-120114960D01*
X124310988Y-120139626D01*
X124422416Y-120251054D01*
X124509969Y-120382086D01*
X124570274Y-120527675D01*
X124601017Y-120682232D01*
X124601017Y-120839822D01*
X124570274Y-120994379D01*
X124509969Y-121139968D01*
X124422416Y-121271000D01*
X124310990Y-121382426D01*
X124179958Y-121469979D01*
X124034369Y-121530284D01*
X123879812Y-121561027D01*
X123722222Y-121561027D01*
X123567665Y-121530284D01*
X123422076Y-121469979D01*
X123291044Y-121382426D01*
X123179618Y-121271000D01*
X123092065Y-121139968D01*
X123031760Y-120994379D01*
X123001017Y-120839822D01*
X123001017Y-120682232D01*
X123031760Y-120527675D01*
X123092065Y-120382086D01*
X123179618Y-120251054D01*
X123291046Y-120139626D01*
X123327961Y-120114960D01*
X123346903Y-120099415D01*
X123362448Y-120080473D01*
X123373999Y-120058862D01*
X123381112Y-120035413D01*
X123383514Y-120011026D01*
X123381112Y-119986640D01*
X123373999Y-119963191D01*
X123362447Y-119941580D01*
X123346902Y-119922638D01*
X123327961Y-119907094D01*
X123291046Y-119882428D01*
X123179618Y-119771000D01*
X123092065Y-119639968D01*
X123031760Y-119494379D01*
X123001017Y-119339822D01*
X123001017Y-119182232D01*
X123031760Y-119027675D01*
X123092065Y-118882086D01*
X123179618Y-118751054D01*
X123291046Y-118639626D01*
X123327961Y-118614960D01*
X123346903Y-118599415D01*
X123362448Y-118580473D01*
X123373999Y-118558862D01*
X123381112Y-118535413D01*
X123383514Y-118511026D01*
X123381112Y-118486640D01*
X123373999Y-118463191D01*
X123362447Y-118441580D01*
X123346902Y-118422638D01*
X123327961Y-118407094D01*
X123291046Y-118382428D01*
X123179618Y-118271000D01*
X123092065Y-118139968D01*
X123031760Y-117994379D01*
X123001017Y-117839822D01*
X123001017Y-117682232D01*
X123031760Y-117527675D01*
X123092065Y-117382086D01*
X123179618Y-117251054D01*
X123291046Y-117139626D01*
X123327961Y-117114960D01*
X123346903Y-117099415D01*
X123362448Y-117080473D01*
X123373999Y-117058862D01*
X123381112Y-117035413D01*
X123383514Y-117011026D01*
X123381112Y-116986640D01*
X123373999Y-116963191D01*
X123362447Y-116941580D01*
X123346902Y-116922638D01*
X123327961Y-116907094D01*
X123291046Y-116882428D01*
X123179618Y-116771000D01*
X123092065Y-116639968D01*
X123031760Y-116494379D01*
X123001017Y-116339822D01*
X123001017Y-116182232D01*
X123031760Y-116027675D01*
X123092065Y-115882086D01*
X123179618Y-115751054D01*
X123291046Y-115639626D01*
X123327961Y-115614960D01*
X123346903Y-115599415D01*
X123362448Y-115580473D01*
X123373999Y-115558862D01*
X123381112Y-115535413D01*
X123383514Y-115511026D01*
X123381112Y-115486640D01*
X123373999Y-115463191D01*
X123362447Y-115441580D01*
X123346902Y-115422638D01*
X123327961Y-115407094D01*
X123291046Y-115382428D01*
X123179618Y-115271000D01*
X123092065Y-115139968D01*
X123031760Y-114994379D01*
X123001017Y-114839822D01*
X123001017Y-114682232D01*
X123031760Y-114527675D01*
X123092065Y-114382086D01*
X123179618Y-114251054D01*
X123291044Y-114139628D01*
X123422076Y-114052075D01*
X123567665Y-113991770D01*
X123722222Y-113961027D01*
X123879812Y-113961027D01*
X124034369Y-113991770D01*
X124034369Y-113991770D01*
G37*
G36*
X112507057Y-116221094D02*
X112683350Y-116256161D01*
X113015478Y-116393733D01*
X113252455Y-116552076D01*
X113314389Y-116593459D01*
X113568585Y-116847655D01*
X113568587Y-116847658D01*
X113768311Y-117146566D01*
X113905883Y-117478694D01*
X113976017Y-117831280D01*
X113976017Y-118190774D01*
X113905883Y-118543360D01*
X113768311Y-118875488D01*
X113618688Y-119099415D01*
X113568585Y-119174399D01*
X113314389Y-119428595D01*
X113314386Y-119428597D01*
X113015478Y-119628321D01*
X112683350Y-119765893D01*
X112657675Y-119771000D01*
X112330765Y-119836027D01*
X111971269Y-119836027D01*
X111644359Y-119771000D01*
X111618684Y-119765893D01*
X111286556Y-119628321D01*
X110987648Y-119428597D01*
X110987645Y-119428595D01*
X110733449Y-119174399D01*
X110683346Y-119099415D01*
X110533723Y-118875488D01*
X110396151Y-118543360D01*
X110326017Y-118190774D01*
X110326017Y-117831280D01*
X110396151Y-117478694D01*
X110533723Y-117146566D01*
X110733447Y-116847658D01*
X110733449Y-116847655D01*
X110987645Y-116593459D01*
X111049579Y-116552076D01*
X111286556Y-116393733D01*
X111618684Y-116256161D01*
X111794977Y-116221094D01*
X111971269Y-116186027D01*
X112330765Y-116186027D01*
X112507057Y-116221094D01*
X112507057Y-116221094D01*
G37*
G36*
X119026787Y-110326399D02*
X119142706Y-110349456D01*
X119324695Y-110424838D01*
X119488480Y-110534276D01*
X119627768Y-110673564D01*
X119737206Y-110837349D01*
X119812588Y-111019338D01*
X119851017Y-111212536D01*
X119851017Y-111409518D01*
X119812588Y-111602716D01*
X119737206Y-111784705D01*
X119627768Y-111948490D01*
X119488480Y-112087778D01*
X119324695Y-112197216D01*
X119142706Y-112272598D01*
X119026787Y-112295655D01*
X118949510Y-112311027D01*
X118752524Y-112311027D01*
X118675247Y-112295655D01*
X118559328Y-112272598D01*
X118377339Y-112197216D01*
X118213554Y-112087778D01*
X118074266Y-111948490D01*
X117964828Y-111784705D01*
X117889446Y-111602716D01*
X117851017Y-111409518D01*
X117851017Y-111212536D01*
X117889446Y-111019338D01*
X117964828Y-110837349D01*
X118074266Y-110673564D01*
X118213554Y-110534276D01*
X118377339Y-110424838D01*
X118559328Y-110349456D01*
X118675247Y-110326399D01*
X118752524Y-110311027D01*
X118949510Y-110311027D01*
X119026787Y-110326399D01*
X119026787Y-110326399D01*
G37*
G36*
X109134369Y-109591770D02*
X109279958Y-109652075D01*
X109410990Y-109739628D01*
X109522418Y-109851056D01*
X109547084Y-109887971D01*
X109562629Y-109906913D01*
X109581571Y-109922458D01*
X109603182Y-109934009D01*
X109626631Y-109941122D01*
X109651018Y-109943524D01*
X109675404Y-109941122D01*
X109698853Y-109934009D01*
X109720464Y-109922457D01*
X109739406Y-109906912D01*
X109754950Y-109887971D01*
X109779616Y-109851056D01*
X109891044Y-109739628D01*
X110022076Y-109652075D01*
X110167665Y-109591770D01*
X110322222Y-109561027D01*
X110479812Y-109561027D01*
X110634369Y-109591770D01*
X110779958Y-109652075D01*
X110910990Y-109739628D01*
X111022418Y-109851056D01*
X111047084Y-109887971D01*
X111062629Y-109906913D01*
X111081571Y-109922458D01*
X111103182Y-109934009D01*
X111126631Y-109941122D01*
X111151018Y-109943524D01*
X111175404Y-109941122D01*
X111198853Y-109934009D01*
X111220464Y-109922457D01*
X111239406Y-109906912D01*
X111254950Y-109887971D01*
X111279616Y-109851056D01*
X111391044Y-109739628D01*
X111522076Y-109652075D01*
X111667665Y-109591770D01*
X111822222Y-109561027D01*
X111979812Y-109561027D01*
X112134369Y-109591770D01*
X112279958Y-109652075D01*
X112410990Y-109739628D01*
X112522418Y-109851056D01*
X112547084Y-109887971D01*
X112562629Y-109906913D01*
X112581571Y-109922458D01*
X112603182Y-109934009D01*
X112626631Y-109941122D01*
X112651018Y-109943524D01*
X112675404Y-109941122D01*
X112698853Y-109934009D01*
X112720464Y-109922457D01*
X112739406Y-109906912D01*
X112754950Y-109887971D01*
X112779616Y-109851056D01*
X112891044Y-109739628D01*
X113022076Y-109652075D01*
X113167665Y-109591770D01*
X113322222Y-109561027D01*
X113479812Y-109561027D01*
X113634369Y-109591770D01*
X113779958Y-109652075D01*
X113910990Y-109739628D01*
X114022418Y-109851056D01*
X114047084Y-109887971D01*
X114062629Y-109906913D01*
X114081571Y-109922458D01*
X114103182Y-109934009D01*
X114126631Y-109941122D01*
X114151018Y-109943524D01*
X114175404Y-109941122D01*
X114198853Y-109934009D01*
X114220464Y-109922457D01*
X114239406Y-109906912D01*
X114254950Y-109887971D01*
X114279616Y-109851056D01*
X114391044Y-109739628D01*
X114522076Y-109652075D01*
X114667665Y-109591770D01*
X114822222Y-109561027D01*
X114979812Y-109561027D01*
X115134369Y-109591770D01*
X115279958Y-109652075D01*
X115410990Y-109739628D01*
X115522416Y-109851054D01*
X115609969Y-109982086D01*
X115670274Y-110127675D01*
X115701017Y-110282232D01*
X115701017Y-110439822D01*
X115670274Y-110594379D01*
X115609969Y-110739968D01*
X115522416Y-110871000D01*
X115410990Y-110982426D01*
X115279958Y-111069979D01*
X115134369Y-111130284D01*
X114979812Y-111161027D01*
X114822222Y-111161027D01*
X114667665Y-111130284D01*
X114522076Y-111069979D01*
X114391044Y-110982426D01*
X114279616Y-110870998D01*
X114254950Y-110834083D01*
X114239405Y-110815141D01*
X114220463Y-110799596D01*
X114198852Y-110788045D01*
X114175403Y-110780932D01*
X114151016Y-110778530D01*
X114126630Y-110780932D01*
X114103181Y-110788045D01*
X114081570Y-110799597D01*
X114062628Y-110815142D01*
X114047084Y-110834083D01*
X114022418Y-110870998D01*
X113910990Y-110982426D01*
X113779958Y-111069979D01*
X113634369Y-111130284D01*
X113479812Y-111161027D01*
X113322222Y-111161027D01*
X113167665Y-111130284D01*
X113022076Y-111069979D01*
X112891044Y-110982426D01*
X112779616Y-110870998D01*
X112754950Y-110834083D01*
X112739405Y-110815141D01*
X112720463Y-110799596D01*
X112698852Y-110788045D01*
X112675403Y-110780932D01*
X112651016Y-110778530D01*
X112626630Y-110780932D01*
X112603181Y-110788045D01*
X112581570Y-110799597D01*
X112562628Y-110815142D01*
X112547084Y-110834083D01*
X112522418Y-110870998D01*
X112410990Y-110982426D01*
X112279958Y-111069979D01*
X112134369Y-111130284D01*
X111979812Y-111161027D01*
X111822222Y-111161027D01*
X111667665Y-111130284D01*
X111522076Y-111069979D01*
X111391044Y-110982426D01*
X111279616Y-110870998D01*
X111254950Y-110834083D01*
X111239405Y-110815141D01*
X111220463Y-110799596D01*
X111198852Y-110788045D01*
X111175403Y-110780932D01*
X111151016Y-110778530D01*
X111126630Y-110780932D01*
X111103181Y-110788045D01*
X111081570Y-110799597D01*
X111062628Y-110815142D01*
X111047084Y-110834083D01*
X111022418Y-110870998D01*
X110910990Y-110982426D01*
X110779958Y-111069979D01*
X110634369Y-111130284D01*
X110479812Y-111161027D01*
X110322222Y-111161027D01*
X110167665Y-111130284D01*
X110022076Y-111069979D01*
X109891044Y-110982426D01*
X109779616Y-110870998D01*
X109754950Y-110834083D01*
X109739405Y-110815141D01*
X109720463Y-110799596D01*
X109698852Y-110788045D01*
X109675403Y-110780932D01*
X109651016Y-110778530D01*
X109626630Y-110780932D01*
X109603181Y-110788045D01*
X109581570Y-110799597D01*
X109562628Y-110815142D01*
X109547084Y-110834083D01*
X109522418Y-110870998D01*
X109410990Y-110982426D01*
X109279958Y-111069979D01*
X109134369Y-111130284D01*
X108979812Y-111161027D01*
X108822222Y-111161027D01*
X108667665Y-111130284D01*
X108522076Y-111069979D01*
X108391044Y-110982426D01*
X108279618Y-110871000D01*
X108192065Y-110739968D01*
X108131760Y-110594379D01*
X108101017Y-110439822D01*
X108101017Y-110282232D01*
X108131760Y-110127675D01*
X108192065Y-109982086D01*
X108279618Y-109851054D01*
X108391044Y-109739628D01*
X108522076Y-109652075D01*
X108667665Y-109591770D01*
X108822222Y-109561027D01*
X108979812Y-109561027D01*
X109134369Y-109591770D01*
X109134369Y-109591770D01*
G37*
G36*
X108634369Y-107591770D02*
X108779958Y-107652075D01*
X108910990Y-107739628D01*
X109022418Y-107851056D01*
X109047084Y-107887971D01*
X109062629Y-107906913D01*
X109081571Y-107922458D01*
X109103182Y-107934009D01*
X109126631Y-107941122D01*
X109151018Y-107943524D01*
X109175404Y-107941122D01*
X109198853Y-107934009D01*
X109220464Y-107922457D01*
X109239406Y-107906912D01*
X109254950Y-107887971D01*
X109279616Y-107851056D01*
X109391044Y-107739628D01*
X109522076Y-107652075D01*
X109667665Y-107591770D01*
X109822222Y-107561027D01*
X109979812Y-107561027D01*
X110134369Y-107591770D01*
X110279958Y-107652075D01*
X110410990Y-107739628D01*
X110522418Y-107851056D01*
X110547084Y-107887971D01*
X110562629Y-107906913D01*
X110581571Y-107922458D01*
X110603182Y-107934009D01*
X110626631Y-107941122D01*
X110651018Y-107943524D01*
X110675404Y-107941122D01*
X110698853Y-107934009D01*
X110720464Y-107922457D01*
X110739406Y-107906912D01*
X110754950Y-107887971D01*
X110779616Y-107851056D01*
X110891044Y-107739628D01*
X111022076Y-107652075D01*
X111167665Y-107591770D01*
X111322222Y-107561027D01*
X111479812Y-107561027D01*
X111634369Y-107591770D01*
X111779958Y-107652075D01*
X111910990Y-107739628D01*
X112022418Y-107851056D01*
X112047084Y-107887971D01*
X112062629Y-107906913D01*
X112081571Y-107922458D01*
X112103182Y-107934009D01*
X112126631Y-107941122D01*
X112151018Y-107943524D01*
X112175404Y-107941122D01*
X112198853Y-107934009D01*
X112220464Y-107922457D01*
X112239406Y-107906912D01*
X112254950Y-107887971D01*
X112279616Y-107851056D01*
X112391044Y-107739628D01*
X112522076Y-107652075D01*
X112667665Y-107591770D01*
X112822222Y-107561027D01*
X112979812Y-107561027D01*
X113134369Y-107591770D01*
X113279958Y-107652075D01*
X113410990Y-107739628D01*
X113522418Y-107851056D01*
X113547084Y-107887971D01*
X113562629Y-107906913D01*
X113581571Y-107922458D01*
X113603182Y-107934009D01*
X113626631Y-107941122D01*
X113651018Y-107943524D01*
X113675404Y-107941122D01*
X113698853Y-107934009D01*
X113720464Y-107922457D01*
X113739406Y-107906912D01*
X113754950Y-107887971D01*
X113779616Y-107851056D01*
X113891044Y-107739628D01*
X114022076Y-107652075D01*
X114167665Y-107591770D01*
X114322222Y-107561027D01*
X114479812Y-107561027D01*
X114634369Y-107591770D01*
X114779958Y-107652075D01*
X114910990Y-107739628D01*
X115022418Y-107851056D01*
X115047084Y-107887971D01*
X115062629Y-107906913D01*
X115081571Y-107922458D01*
X115103182Y-107934009D01*
X115126631Y-107941122D01*
X115151018Y-107943524D01*
X115175404Y-107941122D01*
X115198853Y-107934009D01*
X115220464Y-107922457D01*
X115239406Y-107906912D01*
X115254950Y-107887971D01*
X115279616Y-107851056D01*
X115391044Y-107739628D01*
X115522076Y-107652075D01*
X115667665Y-107591770D01*
X115822222Y-107561027D01*
X115979812Y-107561027D01*
X116134369Y-107591770D01*
X116279958Y-107652075D01*
X116410990Y-107739628D01*
X116522416Y-107851054D01*
X116609969Y-107982086D01*
X116670274Y-108127675D01*
X116701017Y-108282232D01*
X116701017Y-108439822D01*
X116670274Y-108594379D01*
X116609969Y-108739968D01*
X116522416Y-108871000D01*
X116410990Y-108982426D01*
X116279958Y-109069979D01*
X116134369Y-109130284D01*
X115979812Y-109161027D01*
X115822222Y-109161027D01*
X115667665Y-109130284D01*
X115522076Y-109069979D01*
X115391044Y-108982426D01*
X115279616Y-108870998D01*
X115254950Y-108834083D01*
X115239405Y-108815141D01*
X115220463Y-108799596D01*
X115198852Y-108788045D01*
X115175403Y-108780932D01*
X115151016Y-108778530D01*
X115126630Y-108780932D01*
X115103181Y-108788045D01*
X115081570Y-108799597D01*
X115062628Y-108815142D01*
X115047084Y-108834083D01*
X115022418Y-108870998D01*
X114910990Y-108982426D01*
X114779958Y-109069979D01*
X114634369Y-109130284D01*
X114479812Y-109161027D01*
X114322222Y-109161027D01*
X114167665Y-109130284D01*
X114022076Y-109069979D01*
X113891044Y-108982426D01*
X113779616Y-108870998D01*
X113754950Y-108834083D01*
X113739405Y-108815141D01*
X113720463Y-108799596D01*
X113698852Y-108788045D01*
X113675403Y-108780932D01*
X113651016Y-108778530D01*
X113626630Y-108780932D01*
X113603181Y-108788045D01*
X113581570Y-108799597D01*
X113562628Y-108815142D01*
X113547084Y-108834083D01*
X113522418Y-108870998D01*
X113410990Y-108982426D01*
X113279958Y-109069979D01*
X113134369Y-109130284D01*
X112979812Y-109161027D01*
X112822222Y-109161027D01*
X112667665Y-109130284D01*
X112522076Y-109069979D01*
X112391044Y-108982426D01*
X112279616Y-108870998D01*
X112254950Y-108834083D01*
X112239405Y-108815141D01*
X112220463Y-108799596D01*
X112198852Y-108788045D01*
X112175403Y-108780932D01*
X112151016Y-108778530D01*
X112126630Y-108780932D01*
X112103181Y-108788045D01*
X112081570Y-108799597D01*
X112062628Y-108815142D01*
X112047084Y-108834083D01*
X112022418Y-108870998D01*
X111910990Y-108982426D01*
X111779958Y-109069979D01*
X111634369Y-109130284D01*
X111479812Y-109161027D01*
X111322222Y-109161027D01*
X111167665Y-109130284D01*
X111022076Y-109069979D01*
X110891044Y-108982426D01*
X110779616Y-108870998D01*
X110754950Y-108834083D01*
X110739405Y-108815141D01*
X110720463Y-108799596D01*
X110698852Y-108788045D01*
X110675403Y-108780932D01*
X110651016Y-108778530D01*
X110626630Y-108780932D01*
X110603181Y-108788045D01*
X110581570Y-108799597D01*
X110562628Y-108815142D01*
X110547084Y-108834083D01*
X110522418Y-108870998D01*
X110410990Y-108982426D01*
X110279958Y-109069979D01*
X110134369Y-109130284D01*
X109979812Y-109161027D01*
X109822222Y-109161027D01*
X109667665Y-109130284D01*
X109522076Y-109069979D01*
X109391044Y-108982426D01*
X109279616Y-108870998D01*
X109254950Y-108834083D01*
X109239405Y-108815141D01*
X109220463Y-108799596D01*
X109198852Y-108788045D01*
X109175403Y-108780932D01*
X109151016Y-108778530D01*
X109126630Y-108780932D01*
X109103181Y-108788045D01*
X109081570Y-108799597D01*
X109062628Y-108815142D01*
X109047084Y-108834083D01*
X109022418Y-108870998D01*
X108910990Y-108982426D01*
X108779958Y-109069979D01*
X108634369Y-109130284D01*
X108479812Y-109161027D01*
X108322222Y-109161027D01*
X108167665Y-109130284D01*
X108022076Y-109069979D01*
X107891044Y-108982426D01*
X107779618Y-108871000D01*
X107692065Y-108739968D01*
X107631760Y-108594379D01*
X107601017Y-108439822D01*
X107601017Y-108282232D01*
X107631760Y-108127675D01*
X107692065Y-107982086D01*
X107779618Y-107851054D01*
X107891044Y-107739628D01*
X108022076Y-107652075D01*
X108167665Y-107591770D01*
X108322222Y-107561027D01*
X108479812Y-107561027D01*
X108634369Y-107591770D01*
X108634369Y-107591770D01*
G37*
G36*
X118824514Y-107767024D02*
X118877170Y-107782997D01*
X118925682Y-107808927D01*
X118968213Y-107843831D01*
X119003117Y-107886362D01*
X119029047Y-107934874D01*
X119045020Y-107987530D01*
X119051017Y-108048417D01*
X119051017Y-108848637D01*
X119045020Y-108909524D01*
X119029047Y-108962180D01*
X119003117Y-109010692D01*
X118968213Y-109053223D01*
X118925682Y-109088127D01*
X118877170Y-109114057D01*
X118824514Y-109130030D01*
X118763627Y-109136027D01*
X117538407Y-109136027D01*
X117477520Y-109130030D01*
X117424864Y-109114057D01*
X117376352Y-109088127D01*
X117333821Y-109053223D01*
X117298917Y-109010692D01*
X117272987Y-108962180D01*
X117257014Y-108909524D01*
X117251017Y-108848637D01*
X117251017Y-108048417D01*
X117257014Y-107987530D01*
X117272987Y-107934874D01*
X117298917Y-107886362D01*
X117333821Y-107843831D01*
X117376352Y-107808927D01*
X117424864Y-107782997D01*
X117477520Y-107767024D01*
X117538407Y-107761027D01*
X118763627Y-107761027D01*
X118824514Y-107767024D01*
X118824514Y-107767024D01*
G37*
G36*
X118824514Y-105892024D02*
X118877170Y-105907997D01*
X118925682Y-105933927D01*
X118968213Y-105968831D01*
X119003117Y-106011362D01*
X119029047Y-106059874D01*
X119045020Y-106112530D01*
X119051017Y-106173417D01*
X119051017Y-106973637D01*
X119045020Y-107034524D01*
X119029047Y-107087180D01*
X119003117Y-107135692D01*
X118968213Y-107178223D01*
X118925682Y-107213127D01*
X118877170Y-107239057D01*
X118824514Y-107255030D01*
X118763627Y-107261027D01*
X117538407Y-107261027D01*
X117477520Y-107255030D01*
X117424864Y-107239057D01*
X117376352Y-107213127D01*
X117333821Y-107178223D01*
X117298917Y-107135692D01*
X117272987Y-107087180D01*
X117257014Y-107034524D01*
X117251017Y-106973637D01*
X117251017Y-106173417D01*
X117257014Y-106112530D01*
X117272987Y-106059874D01*
X117298917Y-106011362D01*
X117333821Y-105968831D01*
X117376352Y-105933927D01*
X117424864Y-105907997D01*
X117477520Y-105892024D01*
X117538407Y-105886027D01*
X118763627Y-105886027D01*
X118824514Y-105892024D01*
X118824514Y-105892024D01*
G37*
G36*
X109634369Y-105591770D02*
X109779958Y-105652075D01*
X109910990Y-105739628D01*
X110022418Y-105851056D01*
X110047084Y-105887971D01*
X110062629Y-105906913D01*
X110081571Y-105922458D01*
X110103182Y-105934009D01*
X110126631Y-105941122D01*
X110151018Y-105943524D01*
X110175404Y-105941122D01*
X110198853Y-105934009D01*
X110220464Y-105922457D01*
X110239406Y-105906912D01*
X110254950Y-105887971D01*
X110279616Y-105851056D01*
X110391044Y-105739628D01*
X110522076Y-105652075D01*
X110667665Y-105591770D01*
X110822222Y-105561027D01*
X110979812Y-105561027D01*
X111134369Y-105591770D01*
X111279958Y-105652075D01*
X111410990Y-105739628D01*
X111522418Y-105851056D01*
X111547084Y-105887971D01*
X111562629Y-105906913D01*
X111581571Y-105922458D01*
X111603182Y-105934009D01*
X111626631Y-105941122D01*
X111651018Y-105943524D01*
X111675404Y-105941122D01*
X111698853Y-105934009D01*
X111720464Y-105922457D01*
X111739406Y-105906912D01*
X111754950Y-105887971D01*
X111779616Y-105851056D01*
X111891044Y-105739628D01*
X112022076Y-105652075D01*
X112167665Y-105591770D01*
X112322222Y-105561027D01*
X112479812Y-105561027D01*
X112634369Y-105591770D01*
X112779958Y-105652075D01*
X112910990Y-105739628D01*
X113022418Y-105851056D01*
X113047084Y-105887971D01*
X113062629Y-105906913D01*
X113081571Y-105922458D01*
X113103182Y-105934009D01*
X113126631Y-105941122D01*
X113151018Y-105943524D01*
X113175404Y-105941122D01*
X113198853Y-105934009D01*
X113220464Y-105922457D01*
X113239406Y-105906912D01*
X113254950Y-105887971D01*
X113279616Y-105851056D01*
X113391044Y-105739628D01*
X113522076Y-105652075D01*
X113667665Y-105591770D01*
X113822222Y-105561027D01*
X113979812Y-105561027D01*
X114134369Y-105591770D01*
X114279958Y-105652075D01*
X114410990Y-105739628D01*
X114522418Y-105851056D01*
X114547084Y-105887971D01*
X114562629Y-105906913D01*
X114581571Y-105922458D01*
X114603182Y-105934009D01*
X114626631Y-105941122D01*
X114651018Y-105943524D01*
X114675404Y-105941122D01*
X114698853Y-105934009D01*
X114720464Y-105922457D01*
X114739406Y-105906912D01*
X114754950Y-105887971D01*
X114779616Y-105851056D01*
X114891044Y-105739628D01*
X115022076Y-105652075D01*
X115167665Y-105591770D01*
X115322222Y-105561027D01*
X115479812Y-105561027D01*
X115634369Y-105591770D01*
X115779958Y-105652075D01*
X115910990Y-105739628D01*
X116022416Y-105851054D01*
X116109969Y-105982086D01*
X116170274Y-106127675D01*
X116201017Y-106282232D01*
X116201017Y-106439822D01*
X116170274Y-106594379D01*
X116109969Y-106739968D01*
X116022416Y-106871000D01*
X115910990Y-106982426D01*
X115779958Y-107069979D01*
X115634369Y-107130284D01*
X115479812Y-107161027D01*
X115322222Y-107161027D01*
X115167665Y-107130284D01*
X115022076Y-107069979D01*
X114891044Y-106982426D01*
X114779616Y-106870998D01*
X114754950Y-106834083D01*
X114739405Y-106815141D01*
X114720463Y-106799596D01*
X114698852Y-106788045D01*
X114675403Y-106780932D01*
X114651016Y-106778530D01*
X114626630Y-106780932D01*
X114603181Y-106788045D01*
X114581570Y-106799597D01*
X114562628Y-106815142D01*
X114547084Y-106834083D01*
X114522418Y-106870998D01*
X114410990Y-106982426D01*
X114279958Y-107069979D01*
X114134369Y-107130284D01*
X113979812Y-107161027D01*
X113822222Y-107161027D01*
X113667665Y-107130284D01*
X113522076Y-107069979D01*
X113391044Y-106982426D01*
X113279616Y-106870998D01*
X113254950Y-106834083D01*
X113239405Y-106815141D01*
X113220463Y-106799596D01*
X113198852Y-106788045D01*
X113175403Y-106780932D01*
X113151016Y-106778530D01*
X113126630Y-106780932D01*
X113103181Y-106788045D01*
X113081570Y-106799597D01*
X113062628Y-106815142D01*
X113047084Y-106834083D01*
X113022418Y-106870998D01*
X112910990Y-106982426D01*
X112779958Y-107069979D01*
X112634369Y-107130284D01*
X112479812Y-107161027D01*
X112322222Y-107161027D01*
X112167665Y-107130284D01*
X112022076Y-107069979D01*
X111891044Y-106982426D01*
X111779616Y-106870998D01*
X111754950Y-106834083D01*
X111739405Y-106815141D01*
X111720463Y-106799596D01*
X111698852Y-106788045D01*
X111675403Y-106780932D01*
X111651016Y-106778530D01*
X111626630Y-106780932D01*
X111603181Y-106788045D01*
X111581570Y-106799597D01*
X111562628Y-106815142D01*
X111547084Y-106834083D01*
X111522418Y-106870998D01*
X111410990Y-106982426D01*
X111279958Y-107069979D01*
X111134369Y-107130284D01*
X110979812Y-107161027D01*
X110822222Y-107161027D01*
X110667665Y-107130284D01*
X110522076Y-107069979D01*
X110391044Y-106982426D01*
X110279616Y-106870998D01*
X110254950Y-106834083D01*
X110239405Y-106815141D01*
X110220463Y-106799596D01*
X110198852Y-106788045D01*
X110175403Y-106780932D01*
X110151016Y-106778530D01*
X110126630Y-106780932D01*
X110103181Y-106788045D01*
X110081570Y-106799597D01*
X110062628Y-106815142D01*
X110047084Y-106834083D01*
X110022418Y-106870998D01*
X109910990Y-106982426D01*
X109779958Y-107069979D01*
X109634369Y-107130284D01*
X109479812Y-107161027D01*
X109322222Y-107161027D01*
X109167665Y-107130284D01*
X109022076Y-107069979D01*
X108891044Y-106982426D01*
X108779618Y-106871000D01*
X108692065Y-106739968D01*
X108631760Y-106594379D01*
X108601017Y-106439822D01*
X108601017Y-106282232D01*
X108631760Y-106127675D01*
X108692065Y-105982086D01*
X108779618Y-105851054D01*
X108891044Y-105739628D01*
X109022076Y-105652075D01*
X109167665Y-105591770D01*
X109322222Y-105561027D01*
X109479812Y-105561027D01*
X109634369Y-105591770D01*
X109634369Y-105591770D01*
G37*
G36*
X114715470Y-97895155D02*
X114853123Y-97922536D01*
X115026012Y-97994149D01*
X115181608Y-98098115D01*
X115313931Y-98230438D01*
X115417897Y-98386034D01*
X115489510Y-98558923D01*
X115526018Y-98742461D01*
X115526018Y-98929595D01*
X115489510Y-99113133D01*
X115417897Y-99286022D01*
X115313931Y-99441618D01*
X115181608Y-99573941D01*
X115026012Y-99677907D01*
X114853123Y-99749520D01*
X114715470Y-99776901D01*
X114669586Y-99786028D01*
X114482450Y-99786028D01*
X114436567Y-99776901D01*
X114298913Y-99749520D01*
X114126024Y-99677907D01*
X113970428Y-99573941D01*
X113838105Y-99441618D01*
X113734139Y-99286022D01*
X113662526Y-99113133D01*
X113626018Y-98929595D01*
X113626018Y-98742461D01*
X113662526Y-98558923D01*
X113734139Y-98386034D01*
X113838105Y-98230438D01*
X113970428Y-98098115D01*
X114126024Y-97994149D01*
X114298913Y-97922536D01*
X114436567Y-97895155D01*
X114482450Y-97886028D01*
X114669586Y-97886028D01*
X114715470Y-97895155D01*
X114715470Y-97895155D01*
G37*
G36*
X109815470Y-97895155D02*
X109953123Y-97922536D01*
X110126012Y-97994149D01*
X110281608Y-98098115D01*
X110413931Y-98230438D01*
X110517897Y-98386034D01*
X110589510Y-98558923D01*
X110626018Y-98742461D01*
X110626018Y-98929595D01*
X110589510Y-99113133D01*
X110517897Y-99286022D01*
X110413931Y-99441618D01*
X110281608Y-99573941D01*
X110126012Y-99677907D01*
X109953123Y-99749520D01*
X109815470Y-99776901D01*
X109769586Y-99786028D01*
X109582450Y-99786028D01*
X109536567Y-99776901D01*
X109398913Y-99749520D01*
X109226024Y-99677907D01*
X109070428Y-99573941D01*
X108938105Y-99441618D01*
X108834139Y-99286022D01*
X108762526Y-99113133D01*
X108726018Y-98929595D01*
X108726018Y-98742461D01*
X108762526Y-98558923D01*
X108834139Y-98386034D01*
X108938105Y-98230438D01*
X109070428Y-98098115D01*
X109226024Y-97994149D01*
X109398913Y-97922536D01*
X109536567Y-97895155D01*
X109582450Y-97886028D01*
X109769586Y-97886028D01*
X109815470Y-97895155D01*
X109815470Y-97895155D01*
G37*
G36*
X115324514Y-96017024D02*
X115377170Y-96032997D01*
X115425682Y-96058927D01*
X115468213Y-96093831D01*
X115503117Y-96136362D01*
X115529047Y-96184874D01*
X115545020Y-96237530D01*
X115551017Y-96298417D01*
X115551017Y-97098637D01*
X115545020Y-97159524D01*
X115529047Y-97212180D01*
X115503117Y-97260692D01*
X115468213Y-97303223D01*
X115425682Y-97338127D01*
X115377170Y-97364057D01*
X115324514Y-97380030D01*
X115263627Y-97386027D01*
X114038407Y-97386027D01*
X113977520Y-97380030D01*
X113924864Y-97364057D01*
X113876352Y-97338127D01*
X113833821Y-97303223D01*
X113798917Y-97260692D01*
X113772987Y-97212180D01*
X113757014Y-97159524D01*
X113751017Y-97098637D01*
X113751017Y-96298417D01*
X113757014Y-96237530D01*
X113772987Y-96184874D01*
X113798917Y-96136362D01*
X113833821Y-96093831D01*
X113876352Y-96058927D01*
X113924864Y-96032997D01*
X113977520Y-96017024D01*
X114038407Y-96011027D01*
X115263627Y-96011027D01*
X115324514Y-96017024D01*
X115324514Y-96017024D01*
G37*
G36*
X110324514Y-96017024D02*
X110377170Y-96032997D01*
X110425682Y-96058927D01*
X110468213Y-96093831D01*
X110503117Y-96136362D01*
X110529047Y-96184874D01*
X110545020Y-96237530D01*
X110551017Y-96298417D01*
X110551017Y-97098637D01*
X110545020Y-97159524D01*
X110529047Y-97212180D01*
X110503117Y-97260692D01*
X110468213Y-97303223D01*
X110425682Y-97338127D01*
X110377170Y-97364057D01*
X110324514Y-97380030D01*
X110263627Y-97386027D01*
X109038407Y-97386027D01*
X108977520Y-97380030D01*
X108924864Y-97364057D01*
X108876352Y-97338127D01*
X108833821Y-97303223D01*
X108798917Y-97260692D01*
X108772987Y-97212180D01*
X108757014Y-97159524D01*
X108751017Y-97098637D01*
X108751017Y-96298417D01*
X108757014Y-96237530D01*
X108772987Y-96184874D01*
X108798917Y-96136362D01*
X108833821Y-96093831D01*
X108876352Y-96058927D01*
X108924864Y-96032997D01*
X108977520Y-96017024D01*
X109038407Y-96011027D01*
X110263627Y-96011027D01*
X110324514Y-96017024D01*
X110324514Y-96017024D01*
G37*
G36*
X110324514Y-94142024D02*
X110377170Y-94157997D01*
X110425682Y-94183927D01*
X110468213Y-94218831D01*
X110503117Y-94261362D01*
X110529047Y-94309874D01*
X110545020Y-94362530D01*
X110551017Y-94423417D01*
X110551017Y-95223637D01*
X110545020Y-95284524D01*
X110529047Y-95337180D01*
X110503117Y-95385692D01*
X110468213Y-95428223D01*
X110425682Y-95463127D01*
X110377170Y-95489057D01*
X110324514Y-95505030D01*
X110263627Y-95511027D01*
X109038407Y-95511027D01*
X108977520Y-95505030D01*
X108924864Y-95489057D01*
X108876352Y-95463127D01*
X108833821Y-95428223D01*
X108798917Y-95385692D01*
X108772987Y-95337180D01*
X108757014Y-95284524D01*
X108751017Y-95223637D01*
X108751017Y-94423417D01*
X108757014Y-94362530D01*
X108772987Y-94309874D01*
X108798917Y-94261362D01*
X108833821Y-94218831D01*
X108876352Y-94183927D01*
X108924864Y-94157997D01*
X108977520Y-94142024D01*
X109038407Y-94136027D01*
X110263627Y-94136027D01*
X110324514Y-94142024D01*
X110324514Y-94142024D01*
G37*
G36*
X115324514Y-94142024D02*
X115377170Y-94157997D01*
X115425682Y-94183927D01*
X115468213Y-94218831D01*
X115503117Y-94261362D01*
X115529047Y-94309874D01*
X115545020Y-94362530D01*
X115551017Y-94423417D01*
X115551017Y-95223637D01*
X115545020Y-95284524D01*
X115529047Y-95337180D01*
X115503117Y-95385692D01*
X115468213Y-95428223D01*
X115425682Y-95463127D01*
X115377170Y-95489057D01*
X115324514Y-95505030D01*
X115263627Y-95511027D01*
X114038407Y-95511027D01*
X113977520Y-95505030D01*
X113924864Y-95489057D01*
X113876352Y-95463127D01*
X113833821Y-95428223D01*
X113798917Y-95385692D01*
X113772987Y-95337180D01*
X113757014Y-95284524D01*
X113751017Y-95223637D01*
X113751017Y-94423417D01*
X113757014Y-94362530D01*
X113772987Y-94309874D01*
X113798917Y-94261362D01*
X113833821Y-94218831D01*
X113876352Y-94183927D01*
X113924864Y-94157997D01*
X113977520Y-94142024D01*
X114038407Y-94136027D01*
X115263627Y-94136027D01*
X115324514Y-94142024D01*
X115324514Y-94142024D01*
G37*
G36*
X119756017Y-69076027D02*
X103746017Y-69076027D01*
X103746017Y-66406027D01*
X119756017Y-66406027D01*
X119756017Y-69076027D01*
X119756017Y-69076027D01*
G37*
G36*
X117476017Y-65291027D02*
X112376017Y-65291027D01*
X112376017Y-64461027D01*
X117476017Y-64461027D01*
X117476017Y-65291027D01*
X117476017Y-65291027D01*
G37*
G36*
X121286017Y-65291027D02*
X118346017Y-65291027D01*
X118346017Y-64461027D01*
X121286017Y-64461027D01*
X121286017Y-65291027D01*
X121286017Y-65291027D01*
G37*
G36*
X111126017Y-65291027D02*
X106026017Y-65291027D01*
X106026017Y-64461027D01*
X111126017Y-64461027D01*
X111126017Y-65291027D01*
X111126017Y-65291027D01*
G37*
G36*
X105156017Y-65291027D02*
X102216017Y-65291027D01*
X102216017Y-64461027D01*
X105156017Y-64461027D01*
X105156017Y-65291027D01*
X105156017Y-65291027D01*
G37*
G36*
X119756017Y-63346027D02*
X103746017Y-63346027D01*
X103746017Y-60676027D01*
X119756017Y-60676027D01*
X119756017Y-63346027D01*
X119756017Y-63346027D01*
G37*
G36*
X122023116Y-61523312D02*
X122152328Y-61576833D01*
X122268618Y-61654536D01*
X122367508Y-61753426D01*
X122445211Y-61869716D01*
X122498732Y-61998928D01*
X122526017Y-62136099D01*
X122526017Y-62275955D01*
X122498732Y-62413126D01*
X122445211Y-62542338D01*
X122367508Y-62658628D01*
X122268618Y-62757518D01*
X122152328Y-62835221D01*
X122023116Y-62888742D01*
X121885946Y-62916027D01*
X121746088Y-62916027D01*
X121608918Y-62888742D01*
X121479706Y-62835221D01*
X121363416Y-62757518D01*
X121264526Y-62658628D01*
X121186823Y-62542338D01*
X121133302Y-62413126D01*
X121106017Y-62275955D01*
X121106017Y-62136099D01*
X121133302Y-61998928D01*
X121186823Y-61869716D01*
X121264526Y-61753426D01*
X121363416Y-61654536D01*
X121479706Y-61576833D01*
X121608918Y-61523312D01*
X121746088Y-61496027D01*
X121885946Y-61496027D01*
X122023116Y-61523312D01*
X122023116Y-61523312D01*
G37*
G36*
X101893116Y-61523312D02*
X102022328Y-61576833D01*
X102138618Y-61654536D01*
X102237508Y-61753426D01*
X102315211Y-61869716D01*
X102368732Y-61998928D01*
X102396017Y-62136099D01*
X102396017Y-62275955D01*
X102368732Y-62413126D01*
X102315211Y-62542338D01*
X102237508Y-62658628D01*
X102138618Y-62757518D01*
X102022328Y-62835221D01*
X101893116Y-62888742D01*
X101755946Y-62916027D01*
X101616088Y-62916027D01*
X101478918Y-62888742D01*
X101349706Y-62835221D01*
X101233416Y-62757518D01*
X101134526Y-62658628D01*
X101056823Y-62542338D01*
X101003302Y-62413126D01*
X100976017Y-62275955D01*
X100976017Y-62136099D01*
X101003302Y-61998928D01*
X101056823Y-61869716D01*
X101134526Y-61753426D01*
X101233416Y-61654536D01*
X101349706Y-61576833D01*
X101478918Y-61523312D01*
X101616088Y-61496027D01*
X101755946Y-61496027D01*
X101893116Y-61523312D01*
X101893116Y-61523312D01*
G37*
M02*
