G04 #@! TF.GenerationSoftware,KiCad,Pcbnew,5.0.2-bee76a0~70~ubuntu18.04.1*
G04 #@! TF.CreationDate,2019-05-09T10:06:34+02:00*
G04 #@! TF.ProjectId,stm32f205,73746d33-3266-4323-9035-2e6b69636164,rev?*
G04 #@! TF.SameCoordinates,Original*
G04 #@! TF.FileFunction,Paste,Bot*
G04 #@! TF.FilePolarity,Positive*
%FSLAX46Y46*%
G04 Gerber Fmt 4.6, Leading zero omitted, Abs format (unit mm)*
G04 Created by KiCad (PCBNEW 5.0.2-bee76a0~70~ubuntu18.04.1) date jeu. 09 mai 2019 10:06:34 CEST*
%MOMM*%
%LPD*%
G01*
G04 APERTURE LIST*
%ADD10C,0.100000*%
%ADD11C,0.975000*%
%ADD12R,4.700000X0.430000*%
%ADD13R,2.540000X0.430000*%
%ADD14R,0.410000X2.270000*%
G04 APERTURE END LIST*
D10*
G04 #@! TO.C,C2*
G36*
X110131159Y-96212201D02*
X110154820Y-96215711D01*
X110178024Y-96221523D01*
X110200546Y-96229581D01*
X110222170Y-96239809D01*
X110242687Y-96252106D01*
X110261900Y-96266356D01*
X110279624Y-96282420D01*
X110295688Y-96300144D01*
X110309938Y-96319357D01*
X110322235Y-96339874D01*
X110332463Y-96361498D01*
X110340521Y-96384020D01*
X110346333Y-96407224D01*
X110349843Y-96430885D01*
X110351017Y-96454777D01*
X110351017Y-96942277D01*
X110349843Y-96966169D01*
X110346333Y-96989830D01*
X110340521Y-97013034D01*
X110332463Y-97035556D01*
X110322235Y-97057180D01*
X110309938Y-97077697D01*
X110295688Y-97096910D01*
X110279624Y-97114634D01*
X110261900Y-97130698D01*
X110242687Y-97144948D01*
X110222170Y-97157245D01*
X110200546Y-97167473D01*
X110178024Y-97175531D01*
X110154820Y-97181343D01*
X110131159Y-97184853D01*
X110107267Y-97186027D01*
X109194767Y-97186027D01*
X109170875Y-97184853D01*
X109147214Y-97181343D01*
X109124010Y-97175531D01*
X109101488Y-97167473D01*
X109079864Y-97157245D01*
X109059347Y-97144948D01*
X109040134Y-97130698D01*
X109022410Y-97114634D01*
X109006346Y-97096910D01*
X108992096Y-97077697D01*
X108979799Y-97057180D01*
X108969571Y-97035556D01*
X108961513Y-97013034D01*
X108955701Y-96989830D01*
X108952191Y-96966169D01*
X108951017Y-96942277D01*
X108951017Y-96454777D01*
X108952191Y-96430885D01*
X108955701Y-96407224D01*
X108961513Y-96384020D01*
X108969571Y-96361498D01*
X108979799Y-96339874D01*
X108992096Y-96319357D01*
X109006346Y-96300144D01*
X109022410Y-96282420D01*
X109040134Y-96266356D01*
X109059347Y-96252106D01*
X109079864Y-96239809D01*
X109101488Y-96229581D01*
X109124010Y-96221523D01*
X109147214Y-96215711D01*
X109170875Y-96212201D01*
X109194767Y-96211027D01*
X110107267Y-96211027D01*
X110131159Y-96212201D01*
X110131159Y-96212201D01*
G37*
D11*
X109651017Y-96698527D03*
D10*
G36*
X110131159Y-94337201D02*
X110154820Y-94340711D01*
X110178024Y-94346523D01*
X110200546Y-94354581D01*
X110222170Y-94364809D01*
X110242687Y-94377106D01*
X110261900Y-94391356D01*
X110279624Y-94407420D01*
X110295688Y-94425144D01*
X110309938Y-94444357D01*
X110322235Y-94464874D01*
X110332463Y-94486498D01*
X110340521Y-94509020D01*
X110346333Y-94532224D01*
X110349843Y-94555885D01*
X110351017Y-94579777D01*
X110351017Y-95067277D01*
X110349843Y-95091169D01*
X110346333Y-95114830D01*
X110340521Y-95138034D01*
X110332463Y-95160556D01*
X110322235Y-95182180D01*
X110309938Y-95202697D01*
X110295688Y-95221910D01*
X110279624Y-95239634D01*
X110261900Y-95255698D01*
X110242687Y-95269948D01*
X110222170Y-95282245D01*
X110200546Y-95292473D01*
X110178024Y-95300531D01*
X110154820Y-95306343D01*
X110131159Y-95309853D01*
X110107267Y-95311027D01*
X109194767Y-95311027D01*
X109170875Y-95309853D01*
X109147214Y-95306343D01*
X109124010Y-95300531D01*
X109101488Y-95292473D01*
X109079864Y-95282245D01*
X109059347Y-95269948D01*
X109040134Y-95255698D01*
X109022410Y-95239634D01*
X109006346Y-95221910D01*
X108992096Y-95202697D01*
X108979799Y-95182180D01*
X108969571Y-95160556D01*
X108961513Y-95138034D01*
X108955701Y-95114830D01*
X108952191Y-95091169D01*
X108951017Y-95067277D01*
X108951017Y-94579777D01*
X108952191Y-94555885D01*
X108955701Y-94532224D01*
X108961513Y-94509020D01*
X108969571Y-94486498D01*
X108979799Y-94464874D01*
X108992096Y-94444357D01*
X109006346Y-94425144D01*
X109022410Y-94407420D01*
X109040134Y-94391356D01*
X109059347Y-94377106D01*
X109079864Y-94364809D01*
X109101488Y-94354581D01*
X109124010Y-94346523D01*
X109147214Y-94340711D01*
X109170875Y-94337201D01*
X109194767Y-94336027D01*
X110107267Y-94336027D01*
X110131159Y-94337201D01*
X110131159Y-94337201D01*
G37*
D11*
X109651017Y-94823527D03*
G04 #@! TD*
D10*
G04 #@! TO.C,C3*
G36*
X115131159Y-94337201D02*
X115154820Y-94340711D01*
X115178024Y-94346523D01*
X115200546Y-94354581D01*
X115222170Y-94364809D01*
X115242687Y-94377106D01*
X115261900Y-94391356D01*
X115279624Y-94407420D01*
X115295688Y-94425144D01*
X115309938Y-94444357D01*
X115322235Y-94464874D01*
X115332463Y-94486498D01*
X115340521Y-94509020D01*
X115346333Y-94532224D01*
X115349843Y-94555885D01*
X115351017Y-94579777D01*
X115351017Y-95067277D01*
X115349843Y-95091169D01*
X115346333Y-95114830D01*
X115340521Y-95138034D01*
X115332463Y-95160556D01*
X115322235Y-95182180D01*
X115309938Y-95202697D01*
X115295688Y-95221910D01*
X115279624Y-95239634D01*
X115261900Y-95255698D01*
X115242687Y-95269948D01*
X115222170Y-95282245D01*
X115200546Y-95292473D01*
X115178024Y-95300531D01*
X115154820Y-95306343D01*
X115131159Y-95309853D01*
X115107267Y-95311027D01*
X114194767Y-95311027D01*
X114170875Y-95309853D01*
X114147214Y-95306343D01*
X114124010Y-95300531D01*
X114101488Y-95292473D01*
X114079864Y-95282245D01*
X114059347Y-95269948D01*
X114040134Y-95255698D01*
X114022410Y-95239634D01*
X114006346Y-95221910D01*
X113992096Y-95202697D01*
X113979799Y-95182180D01*
X113969571Y-95160556D01*
X113961513Y-95138034D01*
X113955701Y-95114830D01*
X113952191Y-95091169D01*
X113951017Y-95067277D01*
X113951017Y-94579777D01*
X113952191Y-94555885D01*
X113955701Y-94532224D01*
X113961513Y-94509020D01*
X113969571Y-94486498D01*
X113979799Y-94464874D01*
X113992096Y-94444357D01*
X114006346Y-94425144D01*
X114022410Y-94407420D01*
X114040134Y-94391356D01*
X114059347Y-94377106D01*
X114079864Y-94364809D01*
X114101488Y-94354581D01*
X114124010Y-94346523D01*
X114147214Y-94340711D01*
X114170875Y-94337201D01*
X114194767Y-94336027D01*
X115107267Y-94336027D01*
X115131159Y-94337201D01*
X115131159Y-94337201D01*
G37*
D11*
X114651017Y-94823527D03*
D10*
G36*
X115131159Y-96212201D02*
X115154820Y-96215711D01*
X115178024Y-96221523D01*
X115200546Y-96229581D01*
X115222170Y-96239809D01*
X115242687Y-96252106D01*
X115261900Y-96266356D01*
X115279624Y-96282420D01*
X115295688Y-96300144D01*
X115309938Y-96319357D01*
X115322235Y-96339874D01*
X115332463Y-96361498D01*
X115340521Y-96384020D01*
X115346333Y-96407224D01*
X115349843Y-96430885D01*
X115351017Y-96454777D01*
X115351017Y-96942277D01*
X115349843Y-96966169D01*
X115346333Y-96989830D01*
X115340521Y-97013034D01*
X115332463Y-97035556D01*
X115322235Y-97057180D01*
X115309938Y-97077697D01*
X115295688Y-97096910D01*
X115279624Y-97114634D01*
X115261900Y-97130698D01*
X115242687Y-97144948D01*
X115222170Y-97157245D01*
X115200546Y-97167473D01*
X115178024Y-97175531D01*
X115154820Y-97181343D01*
X115131159Y-97184853D01*
X115107267Y-97186027D01*
X114194767Y-97186027D01*
X114170875Y-97184853D01*
X114147214Y-97181343D01*
X114124010Y-97175531D01*
X114101488Y-97167473D01*
X114079864Y-97157245D01*
X114059347Y-97144948D01*
X114040134Y-97130698D01*
X114022410Y-97114634D01*
X114006346Y-97096910D01*
X113992096Y-97077697D01*
X113979799Y-97057180D01*
X113969571Y-97035556D01*
X113961513Y-97013034D01*
X113955701Y-96989830D01*
X113952191Y-96966169D01*
X113951017Y-96942277D01*
X113951017Y-96454777D01*
X113952191Y-96430885D01*
X113955701Y-96407224D01*
X113961513Y-96384020D01*
X113969571Y-96361498D01*
X113979799Y-96339874D01*
X113992096Y-96319357D01*
X114006346Y-96300144D01*
X114022410Y-96282420D01*
X114040134Y-96266356D01*
X114059347Y-96252106D01*
X114079864Y-96239809D01*
X114101488Y-96229581D01*
X114124010Y-96221523D01*
X114147214Y-96215711D01*
X114170875Y-96212201D01*
X114194767Y-96211027D01*
X115107267Y-96211027D01*
X115131159Y-96212201D01*
X115131159Y-96212201D01*
G37*
D11*
X114651017Y-96698527D03*
G04 #@! TD*
D10*
G04 #@! TO.C,C1*
G36*
X118631159Y-107962201D02*
X118654820Y-107965711D01*
X118678024Y-107971523D01*
X118700546Y-107979581D01*
X118722170Y-107989809D01*
X118742687Y-108002106D01*
X118761900Y-108016356D01*
X118779624Y-108032420D01*
X118795688Y-108050144D01*
X118809938Y-108069357D01*
X118822235Y-108089874D01*
X118832463Y-108111498D01*
X118840521Y-108134020D01*
X118846333Y-108157224D01*
X118849843Y-108180885D01*
X118851017Y-108204777D01*
X118851017Y-108692277D01*
X118849843Y-108716169D01*
X118846333Y-108739830D01*
X118840521Y-108763034D01*
X118832463Y-108785556D01*
X118822235Y-108807180D01*
X118809938Y-108827697D01*
X118795688Y-108846910D01*
X118779624Y-108864634D01*
X118761900Y-108880698D01*
X118742687Y-108894948D01*
X118722170Y-108907245D01*
X118700546Y-108917473D01*
X118678024Y-108925531D01*
X118654820Y-108931343D01*
X118631159Y-108934853D01*
X118607267Y-108936027D01*
X117694767Y-108936027D01*
X117670875Y-108934853D01*
X117647214Y-108931343D01*
X117624010Y-108925531D01*
X117601488Y-108917473D01*
X117579864Y-108907245D01*
X117559347Y-108894948D01*
X117540134Y-108880698D01*
X117522410Y-108864634D01*
X117506346Y-108846910D01*
X117492096Y-108827697D01*
X117479799Y-108807180D01*
X117469571Y-108785556D01*
X117461513Y-108763034D01*
X117455701Y-108739830D01*
X117452191Y-108716169D01*
X117451017Y-108692277D01*
X117451017Y-108204777D01*
X117452191Y-108180885D01*
X117455701Y-108157224D01*
X117461513Y-108134020D01*
X117469571Y-108111498D01*
X117479799Y-108089874D01*
X117492096Y-108069357D01*
X117506346Y-108050144D01*
X117522410Y-108032420D01*
X117540134Y-108016356D01*
X117559347Y-108002106D01*
X117579864Y-107989809D01*
X117601488Y-107979581D01*
X117624010Y-107971523D01*
X117647214Y-107965711D01*
X117670875Y-107962201D01*
X117694767Y-107961027D01*
X118607267Y-107961027D01*
X118631159Y-107962201D01*
X118631159Y-107962201D01*
G37*
D11*
X118151017Y-108448527D03*
D10*
G36*
X118631159Y-106087201D02*
X118654820Y-106090711D01*
X118678024Y-106096523D01*
X118700546Y-106104581D01*
X118722170Y-106114809D01*
X118742687Y-106127106D01*
X118761900Y-106141356D01*
X118779624Y-106157420D01*
X118795688Y-106175144D01*
X118809938Y-106194357D01*
X118822235Y-106214874D01*
X118832463Y-106236498D01*
X118840521Y-106259020D01*
X118846333Y-106282224D01*
X118849843Y-106305885D01*
X118851017Y-106329777D01*
X118851017Y-106817277D01*
X118849843Y-106841169D01*
X118846333Y-106864830D01*
X118840521Y-106888034D01*
X118832463Y-106910556D01*
X118822235Y-106932180D01*
X118809938Y-106952697D01*
X118795688Y-106971910D01*
X118779624Y-106989634D01*
X118761900Y-107005698D01*
X118742687Y-107019948D01*
X118722170Y-107032245D01*
X118700546Y-107042473D01*
X118678024Y-107050531D01*
X118654820Y-107056343D01*
X118631159Y-107059853D01*
X118607267Y-107061027D01*
X117694767Y-107061027D01*
X117670875Y-107059853D01*
X117647214Y-107056343D01*
X117624010Y-107050531D01*
X117601488Y-107042473D01*
X117579864Y-107032245D01*
X117559347Y-107019948D01*
X117540134Y-107005698D01*
X117522410Y-106989634D01*
X117506346Y-106971910D01*
X117492096Y-106952697D01*
X117479799Y-106932180D01*
X117469571Y-106910556D01*
X117461513Y-106888034D01*
X117455701Y-106864830D01*
X117452191Y-106841169D01*
X117451017Y-106817277D01*
X117451017Y-106329777D01*
X117452191Y-106305885D01*
X117455701Y-106282224D01*
X117461513Y-106259020D01*
X117469571Y-106236498D01*
X117479799Y-106214874D01*
X117492096Y-106194357D01*
X117506346Y-106175144D01*
X117522410Y-106157420D01*
X117540134Y-106141356D01*
X117559347Y-106127106D01*
X117579864Y-106114809D01*
X117601488Y-106104581D01*
X117624010Y-106096523D01*
X117647214Y-106090711D01*
X117670875Y-106087201D01*
X117694767Y-106086027D01*
X118607267Y-106086027D01*
X118631159Y-106087201D01*
X118631159Y-106087201D01*
G37*
D11*
X118151017Y-106573527D03*
G04 #@! TD*
D12*
G04 #@! TO.C,P2*
X108576017Y-64876027D03*
X114926017Y-64876027D03*
D13*
X103686017Y-64876027D03*
D14*
X104951017Y-62011027D03*
X106551017Y-62011027D03*
X105751017Y-62011027D03*
X104151017Y-62011027D03*
X107351017Y-62011027D03*
X105751017Y-67741027D03*
X106551017Y-67741027D03*
X107351017Y-67741027D03*
X104951017Y-67741027D03*
X104151017Y-67741027D03*
D13*
X119816017Y-64876027D03*
D14*
X112951017Y-62011027D03*
X109751017Y-62011027D03*
X114551017Y-62011027D03*
X117751017Y-62011027D03*
X112151017Y-62011027D03*
X119351017Y-62011027D03*
X110551017Y-62011027D03*
X115351017Y-62011027D03*
X113751017Y-62011027D03*
X118551017Y-62011027D03*
X111351017Y-62011027D03*
X116951017Y-62011027D03*
X108951017Y-62011027D03*
X108151017Y-62011027D03*
X116151017Y-62011027D03*
X108951017Y-67741027D03*
X110551017Y-67741027D03*
X108151017Y-67741027D03*
X111351017Y-67741027D03*
X109751017Y-67741027D03*
X113751017Y-67741027D03*
X115351017Y-67741027D03*
X114551017Y-67741027D03*
X112951017Y-67741027D03*
X112151017Y-67741027D03*
X116151017Y-67741027D03*
X117751017Y-67741027D03*
X116951017Y-67741027D03*
X119351017Y-67741027D03*
X118551017Y-67741027D03*
G04 #@! TD*
D12*
G04 #@! TO.C,P1*
X108576017Y-142976027D03*
X114926017Y-142976027D03*
D13*
X103686017Y-142976027D03*
D14*
X104951017Y-140111027D03*
X106551017Y-140111027D03*
X105751017Y-140111027D03*
X104151017Y-140111027D03*
X107351017Y-140111027D03*
X105751017Y-145841027D03*
X106551017Y-145841027D03*
X107351017Y-145841027D03*
X104951017Y-145841027D03*
X104151017Y-145841027D03*
D13*
X119816017Y-142976027D03*
D14*
X112951017Y-140111027D03*
X109751017Y-140111027D03*
X114551017Y-140111027D03*
X117751017Y-140111027D03*
X112151017Y-140111027D03*
X119351017Y-140111027D03*
X110551017Y-140111027D03*
X115351017Y-140111027D03*
X113751017Y-140111027D03*
X118551017Y-140111027D03*
X111351017Y-140111027D03*
X116951017Y-140111027D03*
X108951017Y-140111027D03*
X108151017Y-140111027D03*
X116151017Y-140111027D03*
X108951017Y-145841027D03*
X110551017Y-145841027D03*
X108151017Y-145841027D03*
X111351017Y-145841027D03*
X109751017Y-145841027D03*
X113751017Y-145841027D03*
X115351017Y-145841027D03*
X114551017Y-145841027D03*
X112951017Y-145841027D03*
X112151017Y-145841027D03*
X116151017Y-145841027D03*
X117751017Y-145841027D03*
X116951017Y-145841027D03*
X119351017Y-145841027D03*
X118551017Y-145841027D03*
G04 #@! TD*
M02*
