G04 #@! TF.GenerationSoftware,KiCad,Pcbnew,5.0.2-bee76a0~70~ubuntu18.04.1*
G04 #@! TF.CreationDate,2019-07-23T10:59:54+02:00*
G04 #@! TF.ProjectId,stm32f205,73746d33-3266-4323-9035-2e6b69636164,rev?*
G04 #@! TF.SameCoordinates,Original*
G04 #@! TF.FileFunction,Legend,Bot*
G04 #@! TF.FilePolarity,Positive*
%FSLAX46Y46*%
G04 Gerber Fmt 4.6, Leading zero omitted, Abs format (unit mm)*
G04 Created by KiCad (PCBNEW 5.0.2-bee76a0~70~ubuntu18.04.1) date mar. 23 juil. 2019 10:59:54 CEST*
%MOMM*%
%LPD*%
G01*
G04 APERTURE LIST*
%ADD10C,0.120000*%
%ADD11C,0.150000*%
G04 APERTURE END LIST*
D10*
G04 #@! TO.C,J2*
X49470000Y-76200000D02*
X49470000Y-77530000D01*
X49470000Y-77530000D02*
X50800000Y-77530000D01*
X49470000Y-74930000D02*
X52070000Y-74930000D01*
X52070000Y-74930000D02*
X52070000Y-77530000D01*
X52070000Y-77530000D02*
X74990000Y-77530000D01*
X74990000Y-72330000D02*
X74990000Y-77530000D01*
X49470000Y-72330000D02*
X74990000Y-72330000D01*
X49470000Y-72330000D02*
X49470000Y-74930000D01*
G04 #@! TO.C,J1*
X49470000Y-151070000D02*
X49470000Y-153670000D01*
X49470000Y-151070000D02*
X74990000Y-151070000D01*
X74990000Y-151070000D02*
X74990000Y-156270000D01*
X52070000Y-156270000D02*
X74990000Y-156270000D01*
X52070000Y-153670000D02*
X52070000Y-156270000D01*
X49470000Y-153670000D02*
X52070000Y-153670000D01*
X49470000Y-156270000D02*
X50800000Y-156270000D01*
X49470000Y-154940000D02*
X49470000Y-156270000D01*
G04 #@! TO.C,C3*
X53598578Y-98350000D02*
X53081422Y-98350000D01*
X53598578Y-99770000D02*
X53081422Y-99770000D01*
G04 #@! TO.C,C2*
X56891422Y-98350000D02*
X57408578Y-98350000D01*
X56891422Y-99770000D02*
X57408578Y-99770000D01*
G04 #@! TO.C,C1*
X51176422Y-121360000D02*
X51693578Y-121360000D01*
X51176422Y-119940000D02*
X51693578Y-119940000D01*
G04 #@! TO.C,J2*
D11*
X47482380Y-74596666D02*
X48196666Y-74596666D01*
X48339523Y-74549047D01*
X48434761Y-74453809D01*
X48482380Y-74310952D01*
X48482380Y-74215714D01*
X47577619Y-75025238D02*
X47530000Y-75072857D01*
X47482380Y-75168095D01*
X47482380Y-75406190D01*
X47530000Y-75501428D01*
X47577619Y-75549047D01*
X47672857Y-75596666D01*
X47768095Y-75596666D01*
X47910952Y-75549047D01*
X48482380Y-74977619D01*
X48482380Y-75596666D01*
G04 #@! TO.C,J1*
X47482380Y-153336666D02*
X48196666Y-153336666D01*
X48339523Y-153289047D01*
X48434761Y-153193809D01*
X48482380Y-153050952D01*
X48482380Y-152955714D01*
X48482380Y-154336666D02*
X48482380Y-153765238D01*
X48482380Y-154050952D02*
X47482380Y-154050952D01*
X47625238Y-153955714D01*
X47720476Y-153860476D01*
X47768095Y-153765238D01*
G04 #@! TO.C,C3*
X53506666Y-97766142D02*
X53554285Y-97813761D01*
X53697142Y-97861380D01*
X53792380Y-97861380D01*
X53935238Y-97813761D01*
X54030476Y-97718523D01*
X54078095Y-97623285D01*
X54125714Y-97432809D01*
X54125714Y-97289952D01*
X54078095Y-97099476D01*
X54030476Y-97004238D01*
X53935238Y-96909000D01*
X53792380Y-96861380D01*
X53697142Y-96861380D01*
X53554285Y-96909000D01*
X53506666Y-96956619D01*
X53173333Y-96861380D02*
X52554285Y-96861380D01*
X52887619Y-97242333D01*
X52744761Y-97242333D01*
X52649523Y-97289952D01*
X52601904Y-97337571D01*
X52554285Y-97432809D01*
X52554285Y-97670904D01*
X52601904Y-97766142D01*
X52649523Y-97813761D01*
X52744761Y-97861380D01*
X53030476Y-97861380D01*
X53125714Y-97813761D01*
X53173333Y-97766142D01*
G04 #@! TO.C,C2*
X57316666Y-97766142D02*
X57364285Y-97813761D01*
X57507142Y-97861380D01*
X57602380Y-97861380D01*
X57745238Y-97813761D01*
X57840476Y-97718523D01*
X57888095Y-97623285D01*
X57935714Y-97432809D01*
X57935714Y-97289952D01*
X57888095Y-97099476D01*
X57840476Y-97004238D01*
X57745238Y-96909000D01*
X57602380Y-96861380D01*
X57507142Y-96861380D01*
X57364285Y-96909000D01*
X57316666Y-96956619D01*
X56935714Y-96956619D02*
X56888095Y-96909000D01*
X56792857Y-96861380D01*
X56554761Y-96861380D01*
X56459523Y-96909000D01*
X56411904Y-96956619D01*
X56364285Y-97051857D01*
X56364285Y-97147095D01*
X56411904Y-97289952D01*
X56983333Y-97861380D01*
X56364285Y-97861380D01*
G04 #@! TO.C,C1*
X51601666Y-122657142D02*
X51649285Y-122704761D01*
X51792142Y-122752380D01*
X51887380Y-122752380D01*
X52030238Y-122704761D01*
X52125476Y-122609523D01*
X52173095Y-122514285D01*
X52220714Y-122323809D01*
X52220714Y-122180952D01*
X52173095Y-121990476D01*
X52125476Y-121895238D01*
X52030238Y-121800000D01*
X51887380Y-121752380D01*
X51792142Y-121752380D01*
X51649285Y-121800000D01*
X51601666Y-121847619D01*
X50649285Y-122752380D02*
X51220714Y-122752380D01*
X50935000Y-122752380D02*
X50935000Y-121752380D01*
X51030238Y-121895238D01*
X51125476Y-121990476D01*
X51220714Y-122038095D01*
G04 #@! TD*
M02*
