G04 #@! TF.GenerationSoftware,KiCad,Pcbnew,5.0.2-bee76a0~70~ubuntu18.04.1*
G04 #@! TF.CreationDate,2019-07-29T15:00:22+02:00*
G04 #@! TF.ProjectId,stm32f427,73746d33-3266-4343-9237-2e6b69636164,rev?*
G04 #@! TF.SameCoordinates,Original*
G04 #@! TF.FileFunction,Legend,Top*
G04 #@! TF.FilePolarity,Positive*
%FSLAX46Y46*%
G04 Gerber Fmt 4.6, Leading zero omitted, Abs format (unit mm)*
G04 Created by KiCad (PCBNEW 5.0.2-bee76a0~70~ubuntu18.04.1) date lun. 29 juil. 2019 15:00:22 CEST*
%MOMM*%
%LPD*%
G01*
G04 APERTURE LIST*
%ADD10C,0.300000*%
%ADD11C,0.150000*%
%ADD12C,0.010000*%
%ADD13C,0.120000*%
G04 APERTURE END LIST*
D10*
X47672571Y-97706571D02*
X46815428Y-97706571D01*
X47244000Y-97706571D02*
X47244000Y-96206571D01*
X47101142Y-96420857D01*
X46958285Y-96563714D01*
X46815428Y-96635142D01*
D11*
X73249285Y-150961071D02*
X73999285Y-150711071D01*
X73249285Y-150461071D01*
X73999285Y-150211071D02*
X73249285Y-150211071D01*
X73249285Y-150032500D01*
X73285000Y-149925357D01*
X73356428Y-149853928D01*
X73427857Y-149818214D01*
X73570714Y-149782500D01*
X73677857Y-149782500D01*
X73820714Y-149818214D01*
X73892142Y-149853928D01*
X73963571Y-149925357D01*
X73999285Y-150032500D01*
X73999285Y-150211071D01*
X73999285Y-149461071D02*
X73249285Y-149461071D01*
X73249285Y-149282500D01*
X73285000Y-149175357D01*
X73356428Y-149103928D01*
X73427857Y-149068214D01*
X73570714Y-149032500D01*
X73677857Y-149032500D01*
X73820714Y-149068214D01*
X73892142Y-149103928D01*
X73963571Y-149175357D01*
X73999285Y-149282500D01*
X73999285Y-149461071D01*
X73785000Y-148746785D02*
X73785000Y-148389642D01*
X73999285Y-148818214D02*
X73249285Y-148568214D01*
X73999285Y-148318214D01*
X70709285Y-150961071D02*
X71459285Y-150711071D01*
X70709285Y-150461071D01*
X71459285Y-150211071D02*
X70709285Y-150211071D01*
X70709285Y-150032500D01*
X70745000Y-149925357D01*
X70816428Y-149853928D01*
X70887857Y-149818214D01*
X71030714Y-149782500D01*
X71137857Y-149782500D01*
X71280714Y-149818214D01*
X71352142Y-149853928D01*
X71423571Y-149925357D01*
X71459285Y-150032500D01*
X71459285Y-150211071D01*
X71459285Y-149461071D02*
X70709285Y-149461071D01*
X70709285Y-149282500D01*
X70745000Y-149175357D01*
X70816428Y-149103928D01*
X70887857Y-149068214D01*
X71030714Y-149032500D01*
X71137857Y-149032500D01*
X71280714Y-149068214D01*
X71352142Y-149103928D01*
X71423571Y-149175357D01*
X71459285Y-149282500D01*
X71459285Y-149461071D01*
X68919285Y-150853928D02*
X68169285Y-150853928D01*
X68169285Y-150675357D01*
X68205000Y-150568214D01*
X68276428Y-150496785D01*
X68347857Y-150461071D01*
X68490714Y-150425357D01*
X68597857Y-150425357D01*
X68740714Y-150461071D01*
X68812142Y-150496785D01*
X68883571Y-150568214D01*
X68919285Y-150675357D01*
X68919285Y-150853928D01*
X68919285Y-149711071D02*
X68919285Y-150139642D01*
X68919285Y-149925357D02*
X68169285Y-149925357D01*
X68276428Y-149996785D01*
X68347857Y-150068214D01*
X68383571Y-150139642D01*
X68419285Y-149068214D02*
X68919285Y-149068214D01*
X68133571Y-149246785D02*
X68669285Y-149425357D01*
X68669285Y-148961071D01*
X66379285Y-150853928D02*
X65629285Y-150853928D01*
X65629285Y-150675357D01*
X65665000Y-150568214D01*
X65736428Y-150496785D01*
X65807857Y-150461071D01*
X65950714Y-150425357D01*
X66057857Y-150425357D01*
X66200714Y-150461071D01*
X66272142Y-150496785D01*
X66343571Y-150568214D01*
X66379285Y-150675357D01*
X66379285Y-150853928D01*
X66379285Y-149711071D02*
X66379285Y-150139642D01*
X66379285Y-149925357D02*
X65629285Y-149925357D01*
X65736428Y-149996785D01*
X65807857Y-150068214D01*
X65843571Y-150139642D01*
X65700714Y-149425357D02*
X65665000Y-149389642D01*
X65629285Y-149318214D01*
X65629285Y-149139642D01*
X65665000Y-149068214D01*
X65700714Y-149032500D01*
X65772142Y-148996785D01*
X65843571Y-148996785D01*
X65950714Y-149032500D01*
X66379285Y-149461071D01*
X66379285Y-148996785D01*
X63839285Y-150853928D02*
X63089285Y-150853928D01*
X63089285Y-150675357D01*
X63125000Y-150568214D01*
X63196428Y-150496785D01*
X63267857Y-150461071D01*
X63410714Y-150425357D01*
X63517857Y-150425357D01*
X63660714Y-150461071D01*
X63732142Y-150496785D01*
X63803571Y-150568214D01*
X63839285Y-150675357D01*
X63839285Y-150853928D01*
X63839285Y-149711071D02*
X63839285Y-150139642D01*
X63839285Y-149925357D02*
X63089285Y-149925357D01*
X63196428Y-149996785D01*
X63267857Y-150068214D01*
X63303571Y-150139642D01*
X63089285Y-149246785D02*
X63089285Y-149175357D01*
X63125000Y-149103928D01*
X63160714Y-149068214D01*
X63232142Y-149032500D01*
X63375000Y-148996785D01*
X63553571Y-148996785D01*
X63696428Y-149032500D01*
X63767857Y-149068214D01*
X63803571Y-149103928D01*
X63839285Y-149175357D01*
X63839285Y-149246785D01*
X63803571Y-149318214D01*
X63767857Y-149353928D01*
X63696428Y-149389642D01*
X63553571Y-149425357D01*
X63375000Y-149425357D01*
X63232142Y-149389642D01*
X63160714Y-149353928D01*
X63125000Y-149318214D01*
X63089285Y-149246785D01*
X61299285Y-150853928D02*
X60549285Y-150853928D01*
X60549285Y-150675357D01*
X60585000Y-150568214D01*
X60656428Y-150496785D01*
X60727857Y-150461071D01*
X60870714Y-150425357D01*
X60977857Y-150425357D01*
X61120714Y-150461071D01*
X61192142Y-150496785D01*
X61263571Y-150568214D01*
X61299285Y-150675357D01*
X61299285Y-150853928D01*
X60870714Y-149996785D02*
X60835000Y-150068214D01*
X60799285Y-150103928D01*
X60727857Y-150139642D01*
X60692142Y-150139642D01*
X60620714Y-150103928D01*
X60585000Y-150068214D01*
X60549285Y-149996785D01*
X60549285Y-149853928D01*
X60585000Y-149782500D01*
X60620714Y-149746785D01*
X60692142Y-149711071D01*
X60727857Y-149711071D01*
X60799285Y-149746785D01*
X60835000Y-149782500D01*
X60870714Y-149853928D01*
X60870714Y-149996785D01*
X60906428Y-150068214D01*
X60942142Y-150103928D01*
X61013571Y-150139642D01*
X61156428Y-150139642D01*
X61227857Y-150103928D01*
X61263571Y-150068214D01*
X61299285Y-149996785D01*
X61299285Y-149853928D01*
X61263571Y-149782500D01*
X61227857Y-149746785D01*
X61156428Y-149711071D01*
X61013571Y-149711071D01*
X60942142Y-149746785D01*
X60906428Y-149782500D01*
X60870714Y-149853928D01*
X58759285Y-150853928D02*
X58009285Y-150853928D01*
X58009285Y-150675357D01*
X58045000Y-150568214D01*
X58116428Y-150496785D01*
X58187857Y-150461071D01*
X58330714Y-150425357D01*
X58437857Y-150425357D01*
X58580714Y-150461071D01*
X58652142Y-150496785D01*
X58723571Y-150568214D01*
X58759285Y-150675357D01*
X58759285Y-150853928D01*
X58009285Y-149782500D02*
X58009285Y-149925357D01*
X58045000Y-149996785D01*
X58080714Y-150032500D01*
X58187857Y-150103928D01*
X58330714Y-150139642D01*
X58616428Y-150139642D01*
X58687857Y-150103928D01*
X58723571Y-150068214D01*
X58759285Y-149996785D01*
X58759285Y-149853928D01*
X58723571Y-149782500D01*
X58687857Y-149746785D01*
X58616428Y-149711071D01*
X58437857Y-149711071D01*
X58366428Y-149746785D01*
X58330714Y-149782500D01*
X58295000Y-149853928D01*
X58295000Y-149996785D01*
X58330714Y-150068214D01*
X58366428Y-150103928D01*
X58437857Y-150139642D01*
X56219285Y-150853928D02*
X55469285Y-150853928D01*
X55469285Y-150675357D01*
X55505000Y-150568214D01*
X55576428Y-150496785D01*
X55647857Y-150461071D01*
X55790714Y-150425357D01*
X55897857Y-150425357D01*
X56040714Y-150461071D01*
X56112142Y-150496785D01*
X56183571Y-150568214D01*
X56219285Y-150675357D01*
X56219285Y-150853928D01*
X55719285Y-149782500D02*
X56219285Y-149782500D01*
X55433571Y-149961071D02*
X55969285Y-150139642D01*
X55969285Y-149675357D01*
X53679285Y-150853928D02*
X52929285Y-150853928D01*
X52929285Y-150675357D01*
X52965000Y-150568214D01*
X53036428Y-150496785D01*
X53107857Y-150461071D01*
X53250714Y-150425357D01*
X53357857Y-150425357D01*
X53500714Y-150461071D01*
X53572142Y-150496785D01*
X53643571Y-150568214D01*
X53679285Y-150675357D01*
X53679285Y-150853928D01*
X53000714Y-150139642D02*
X52965000Y-150103928D01*
X52929285Y-150032500D01*
X52929285Y-149853928D01*
X52965000Y-149782500D01*
X53000714Y-149746785D01*
X53072142Y-149711071D01*
X53143571Y-149711071D01*
X53250714Y-149746785D01*
X53679285Y-150175357D01*
X53679285Y-149711071D01*
X51139285Y-150853928D02*
X50389285Y-150853928D01*
X50389285Y-150675357D01*
X50425000Y-150568214D01*
X50496428Y-150496785D01*
X50567857Y-150461071D01*
X50710714Y-150425357D01*
X50817857Y-150425357D01*
X50960714Y-150461071D01*
X51032142Y-150496785D01*
X51103571Y-150568214D01*
X51139285Y-150675357D01*
X51139285Y-150853928D01*
X50389285Y-149961071D02*
X50389285Y-149889642D01*
X50425000Y-149818214D01*
X50460714Y-149782500D01*
X50532142Y-149746785D01*
X50675000Y-149711071D01*
X50853571Y-149711071D01*
X50996428Y-149746785D01*
X51067857Y-149782500D01*
X51103571Y-149818214D01*
X51139285Y-149889642D01*
X51139285Y-149961071D01*
X51103571Y-150032500D01*
X51067857Y-150068214D01*
X50996428Y-150103928D01*
X50853571Y-150139642D01*
X50675000Y-150139642D01*
X50532142Y-150103928D01*
X50460714Y-150068214D01*
X50425000Y-150032500D01*
X50389285Y-149961071D01*
X51139285Y-157593214D02*
X50389285Y-157593214D01*
X50389285Y-157414642D01*
X50425000Y-157307500D01*
X50496428Y-157236071D01*
X50567857Y-157200357D01*
X50710714Y-157164642D01*
X50817857Y-157164642D01*
X50960714Y-157200357D01*
X51032142Y-157236071D01*
X51103571Y-157307500D01*
X51139285Y-157414642D01*
X51139285Y-157593214D01*
X51139285Y-156450357D02*
X51139285Y-156878928D01*
X51139285Y-156664642D02*
X50389285Y-156664642D01*
X50496428Y-156736071D01*
X50567857Y-156807500D01*
X50603571Y-156878928D01*
X53679285Y-157593214D02*
X52929285Y-157593214D01*
X52929285Y-157414642D01*
X52965000Y-157307500D01*
X53036428Y-157236071D01*
X53107857Y-157200357D01*
X53250714Y-157164642D01*
X53357857Y-157164642D01*
X53500714Y-157200357D01*
X53572142Y-157236071D01*
X53643571Y-157307500D01*
X53679285Y-157414642D01*
X53679285Y-157593214D01*
X52929285Y-156914642D02*
X52929285Y-156450357D01*
X53215000Y-156700357D01*
X53215000Y-156593214D01*
X53250714Y-156521785D01*
X53286428Y-156486071D01*
X53357857Y-156450357D01*
X53536428Y-156450357D01*
X53607857Y-156486071D01*
X53643571Y-156521785D01*
X53679285Y-156593214D01*
X53679285Y-156807500D01*
X53643571Y-156878928D01*
X53607857Y-156914642D01*
X56219285Y-157593214D02*
X55469285Y-157593214D01*
X55469285Y-157414642D01*
X55505000Y-157307500D01*
X55576428Y-157236071D01*
X55647857Y-157200357D01*
X55790714Y-157164642D01*
X55897857Y-157164642D01*
X56040714Y-157200357D01*
X56112142Y-157236071D01*
X56183571Y-157307500D01*
X56219285Y-157414642D01*
X56219285Y-157593214D01*
X55469285Y-156486071D02*
X55469285Y-156843214D01*
X55826428Y-156878928D01*
X55790714Y-156843214D01*
X55755000Y-156771785D01*
X55755000Y-156593214D01*
X55790714Y-156521785D01*
X55826428Y-156486071D01*
X55897857Y-156450357D01*
X56076428Y-156450357D01*
X56147857Y-156486071D01*
X56183571Y-156521785D01*
X56219285Y-156593214D01*
X56219285Y-156771785D01*
X56183571Y-156843214D01*
X56147857Y-156878928D01*
X58759285Y-157593214D02*
X58009285Y-157593214D01*
X58009285Y-157414642D01*
X58045000Y-157307500D01*
X58116428Y-157236071D01*
X58187857Y-157200357D01*
X58330714Y-157164642D01*
X58437857Y-157164642D01*
X58580714Y-157200357D01*
X58652142Y-157236071D01*
X58723571Y-157307500D01*
X58759285Y-157414642D01*
X58759285Y-157593214D01*
X58009285Y-156914642D02*
X58009285Y-156414642D01*
X58759285Y-156736071D01*
X61299285Y-157593214D02*
X60549285Y-157593214D01*
X60549285Y-157414642D01*
X60585000Y-157307500D01*
X60656428Y-157236071D01*
X60727857Y-157200357D01*
X60870714Y-157164642D01*
X60977857Y-157164642D01*
X61120714Y-157200357D01*
X61192142Y-157236071D01*
X61263571Y-157307500D01*
X61299285Y-157414642D01*
X61299285Y-157593214D01*
X61299285Y-156807500D02*
X61299285Y-156664642D01*
X61263571Y-156593214D01*
X61227857Y-156557500D01*
X61120714Y-156486071D01*
X60977857Y-156450357D01*
X60692142Y-156450357D01*
X60620714Y-156486071D01*
X60585000Y-156521785D01*
X60549285Y-156593214D01*
X60549285Y-156736071D01*
X60585000Y-156807500D01*
X60620714Y-156843214D01*
X60692142Y-156878928D01*
X60870714Y-156878928D01*
X60942142Y-156843214D01*
X60977857Y-156807500D01*
X61013571Y-156736071D01*
X61013571Y-156593214D01*
X60977857Y-156521785D01*
X60942142Y-156486071D01*
X60870714Y-156450357D01*
X63839285Y-158307500D02*
X63089285Y-158307500D01*
X63089285Y-158128928D01*
X63125000Y-158021785D01*
X63196428Y-157950357D01*
X63267857Y-157914642D01*
X63410714Y-157878928D01*
X63517857Y-157878928D01*
X63660714Y-157914642D01*
X63732142Y-157950357D01*
X63803571Y-158021785D01*
X63839285Y-158128928D01*
X63839285Y-158307500D01*
X63839285Y-157164642D02*
X63839285Y-157593214D01*
X63839285Y-157378928D02*
X63089285Y-157378928D01*
X63196428Y-157450357D01*
X63267857Y-157521785D01*
X63303571Y-157593214D01*
X63839285Y-156450357D02*
X63839285Y-156878928D01*
X63839285Y-156664642D02*
X63089285Y-156664642D01*
X63196428Y-156736071D01*
X63267857Y-156807500D01*
X63303571Y-156878928D01*
X66379285Y-158307500D02*
X65629285Y-158307500D01*
X65629285Y-158128928D01*
X65665000Y-158021785D01*
X65736428Y-157950357D01*
X65807857Y-157914642D01*
X65950714Y-157878928D01*
X66057857Y-157878928D01*
X66200714Y-157914642D01*
X66272142Y-157950357D01*
X66343571Y-158021785D01*
X66379285Y-158128928D01*
X66379285Y-158307500D01*
X66379285Y-157164642D02*
X66379285Y-157593214D01*
X66379285Y-157378928D02*
X65629285Y-157378928D01*
X65736428Y-157450357D01*
X65807857Y-157521785D01*
X65843571Y-157593214D01*
X65629285Y-156914642D02*
X65629285Y-156450357D01*
X65915000Y-156700357D01*
X65915000Y-156593214D01*
X65950714Y-156521785D01*
X65986428Y-156486071D01*
X66057857Y-156450357D01*
X66236428Y-156450357D01*
X66307857Y-156486071D01*
X66343571Y-156521785D01*
X66379285Y-156593214D01*
X66379285Y-156807500D01*
X66343571Y-156878928D01*
X66307857Y-156914642D01*
X68919285Y-158307500D02*
X68169285Y-158307500D01*
X68169285Y-158128928D01*
X68205000Y-158021785D01*
X68276428Y-157950357D01*
X68347857Y-157914642D01*
X68490714Y-157878928D01*
X68597857Y-157878928D01*
X68740714Y-157914642D01*
X68812142Y-157950357D01*
X68883571Y-158021785D01*
X68919285Y-158128928D01*
X68919285Y-158307500D01*
X68919285Y-157164642D02*
X68919285Y-157593214D01*
X68919285Y-157378928D02*
X68169285Y-157378928D01*
X68276428Y-157450357D01*
X68347857Y-157521785D01*
X68383571Y-157593214D01*
X68169285Y-156486071D02*
X68169285Y-156843214D01*
X68526428Y-156878928D01*
X68490714Y-156843214D01*
X68455000Y-156771785D01*
X68455000Y-156593214D01*
X68490714Y-156521785D01*
X68526428Y-156486071D01*
X68597857Y-156450357D01*
X68776428Y-156450357D01*
X68847857Y-156486071D01*
X68883571Y-156521785D01*
X68919285Y-156593214D01*
X68919285Y-156771785D01*
X68883571Y-156843214D01*
X68847857Y-156878928D01*
X70745000Y-158021785D02*
X70709285Y-158093214D01*
X70709285Y-158200357D01*
X70745000Y-158307500D01*
X70816428Y-158378928D01*
X70887857Y-158414642D01*
X71030714Y-158450357D01*
X71137857Y-158450357D01*
X71280714Y-158414642D01*
X71352142Y-158378928D01*
X71423571Y-158307500D01*
X71459285Y-158200357D01*
X71459285Y-158128928D01*
X71423571Y-158021785D01*
X71387857Y-157986071D01*
X71137857Y-157986071D01*
X71137857Y-158128928D01*
X71459285Y-157664642D02*
X70709285Y-157664642D01*
X71459285Y-157236071D01*
X70709285Y-157236071D01*
X71459285Y-156878928D02*
X70709285Y-156878928D01*
X70709285Y-156700357D01*
X70745000Y-156593214D01*
X70816428Y-156521785D01*
X70887857Y-156486071D01*
X71030714Y-156450357D01*
X71137857Y-156450357D01*
X71280714Y-156486071D01*
X71352142Y-156521785D01*
X71423571Y-156593214D01*
X71459285Y-156700357D01*
X71459285Y-156878928D01*
X73285000Y-158664642D02*
X73249285Y-158736071D01*
X73249285Y-158843214D01*
X73285000Y-158950357D01*
X73356428Y-159021785D01*
X73427857Y-159057500D01*
X73570714Y-159093214D01*
X73677857Y-159093214D01*
X73820714Y-159057500D01*
X73892142Y-159021785D01*
X73963571Y-158950357D01*
X73999285Y-158843214D01*
X73999285Y-158771785D01*
X73963571Y-158664642D01*
X73927857Y-158628928D01*
X73677857Y-158628928D01*
X73677857Y-158771785D01*
X73999285Y-158307500D02*
X73249285Y-158307500D01*
X73999285Y-157878928D01*
X73249285Y-157878928D01*
X73999285Y-157521785D02*
X73249285Y-157521785D01*
X73249285Y-157343214D01*
X73285000Y-157236071D01*
X73356428Y-157164642D01*
X73427857Y-157128928D01*
X73570714Y-157093214D01*
X73677857Y-157093214D01*
X73820714Y-157128928D01*
X73892142Y-157164642D01*
X73963571Y-157236071D01*
X73999285Y-157343214D01*
X73999285Y-157521785D01*
X73785000Y-156807500D02*
X73785000Y-156450357D01*
X73999285Y-156878928D02*
X73249285Y-156628928D01*
X73999285Y-156378928D01*
D10*
X47087142Y-80617142D02*
X47301428Y-80688571D01*
X47658571Y-80688571D01*
X47801428Y-80617142D01*
X47872857Y-80545714D01*
X47944285Y-80402857D01*
X47944285Y-80260000D01*
X47872857Y-80117142D01*
X47801428Y-80045714D01*
X47658571Y-79974285D01*
X47372857Y-79902857D01*
X47229999Y-79831428D01*
X47158571Y-79760000D01*
X47087142Y-79617142D01*
X47087142Y-79474285D01*
X47158571Y-79331428D01*
X47229999Y-79260000D01*
X47372857Y-79188571D01*
X47729999Y-79188571D01*
X47944285Y-79260000D01*
X48372857Y-79188571D02*
X49229999Y-79188571D01*
X48801428Y-80688571D02*
X48801428Y-79188571D01*
X49729999Y-80688571D02*
X49729999Y-79188571D01*
X50229999Y-80260000D01*
X50729999Y-79188571D01*
X50729999Y-80688571D01*
X51301428Y-79188571D02*
X52229999Y-79188571D01*
X51729999Y-79760000D01*
X51944285Y-79760000D01*
X52087142Y-79831428D01*
X52158571Y-79902857D01*
X52229999Y-80045714D01*
X52229999Y-80402857D01*
X52158571Y-80545714D01*
X52087142Y-80617142D01*
X51944285Y-80688571D01*
X51515714Y-80688571D01*
X51372857Y-80617142D01*
X51301428Y-80545714D01*
X52801428Y-79331428D02*
X52872857Y-79260000D01*
X53015714Y-79188571D01*
X53372857Y-79188571D01*
X53515714Y-79260000D01*
X53587142Y-79331428D01*
X53658571Y-79474285D01*
X53658571Y-79617142D01*
X53587142Y-79831428D01*
X52729999Y-80688571D01*
X53658571Y-80688571D01*
X54801428Y-79902857D02*
X54301428Y-79902857D01*
X54301428Y-80688571D02*
X54301428Y-79188571D01*
X55015714Y-79188571D01*
X56229999Y-79688571D02*
X56229999Y-80688571D01*
X55872857Y-79117142D02*
X55515714Y-80188571D01*
X56444285Y-80188571D01*
X56944285Y-79331428D02*
X57015714Y-79260000D01*
X57158571Y-79188571D01*
X57515714Y-79188571D01*
X57658571Y-79260000D01*
X57729999Y-79331428D01*
X57801428Y-79474285D01*
X57801428Y-79617142D01*
X57729999Y-79831428D01*
X56872857Y-80688571D01*
X57801428Y-80688571D01*
X58301428Y-79188571D02*
X59301428Y-79188571D01*
X58658571Y-80688571D01*
X62015714Y-80831428D02*
X61872857Y-80760000D01*
X61730000Y-80617142D01*
X61515714Y-80402857D01*
X61372857Y-80331428D01*
X61230000Y-80331428D01*
X61301428Y-80688571D02*
X61158571Y-80617142D01*
X61015714Y-80474285D01*
X60944285Y-80188571D01*
X60944285Y-79688571D01*
X61015714Y-79402857D01*
X61158571Y-79260000D01*
X61301428Y-79188571D01*
X61587142Y-79188571D01*
X61730000Y-79260000D01*
X61872857Y-79402857D01*
X61944285Y-79688571D01*
X61944285Y-80188571D01*
X61872857Y-80474285D01*
X61730000Y-80617142D01*
X61587142Y-80688571D01*
X61301428Y-80688571D01*
X63087142Y-79902857D02*
X62587142Y-79902857D01*
X62587142Y-80688571D02*
X62587142Y-79188571D01*
X63301428Y-79188571D01*
X63872857Y-80688571D02*
X63872857Y-79188571D01*
X64444285Y-79188571D01*
X64587142Y-79260000D01*
X64658571Y-79331428D01*
X64730000Y-79474285D01*
X64730000Y-79688571D01*
X64658571Y-79831428D01*
X64587142Y-79902857D01*
X64444285Y-79974285D01*
X63872857Y-79974285D01*
X66158571Y-80688571D02*
X65301428Y-80688571D01*
X65729999Y-80688571D02*
X65729999Y-79188571D01*
X65587142Y-79402857D01*
X65444285Y-79545714D01*
X65301428Y-79617142D01*
X67087142Y-79188571D02*
X67230000Y-79188571D01*
X67372857Y-79260000D01*
X67444285Y-79331428D01*
X67515714Y-79474285D01*
X67587142Y-79760000D01*
X67587142Y-80117142D01*
X67515714Y-80402857D01*
X67444285Y-80545714D01*
X67372857Y-80617142D01*
X67230000Y-80688571D01*
X67087142Y-80688571D01*
X66944285Y-80617142D01*
X66872857Y-80545714D01*
X66801428Y-80402857D01*
X66730000Y-80117142D01*
X66730000Y-79760000D01*
X66801428Y-79474285D01*
X66872857Y-79331428D01*
X66944285Y-79260000D01*
X67087142Y-79188571D01*
X68515714Y-79188571D02*
X68658571Y-79188571D01*
X68801428Y-79260000D01*
X68872857Y-79331428D01*
X68944285Y-79474285D01*
X69015714Y-79760000D01*
X69015714Y-80117142D01*
X68944285Y-80402857D01*
X68872857Y-80545714D01*
X68801428Y-80617142D01*
X68658571Y-80688571D01*
X68515714Y-80688571D01*
X68372857Y-80617142D01*
X68301428Y-80545714D01*
X68230000Y-80402857D01*
X68158571Y-80117142D01*
X68158571Y-79760000D01*
X68230000Y-79474285D01*
X68301428Y-79331428D01*
X68372857Y-79260000D01*
X68515714Y-79188571D01*
X70730000Y-80617142D02*
X70872857Y-80688571D01*
X71158571Y-80688571D01*
X71301428Y-80617142D01*
X71372857Y-80474285D01*
X71372857Y-80402857D01*
X71301428Y-80260000D01*
X71158571Y-80188571D01*
X70944285Y-80188571D01*
X70801428Y-80117142D01*
X70730000Y-79974285D01*
X70730000Y-79902857D01*
X70801428Y-79760000D01*
X70944285Y-79688571D01*
X71158571Y-79688571D01*
X71301428Y-79760000D01*
X72230000Y-80688571D02*
X72087142Y-80617142D01*
X72015714Y-80545714D01*
X71944285Y-80402857D01*
X71944285Y-79974285D01*
X72015714Y-79831428D01*
X72087142Y-79760000D01*
X72230000Y-79688571D01*
X72444285Y-79688571D01*
X72587142Y-79760000D01*
X72658571Y-79831428D01*
X72730000Y-79974285D01*
X72730000Y-80402857D01*
X72658571Y-80545714D01*
X72587142Y-80617142D01*
X72444285Y-80688571D01*
X72230000Y-80688571D01*
X74015714Y-80617142D02*
X73872857Y-80688571D01*
X73587142Y-80688571D01*
X73444285Y-80617142D01*
X73372857Y-80545714D01*
X73301428Y-80402857D01*
X73301428Y-79974285D01*
X73372857Y-79831428D01*
X73444285Y-79760000D01*
X73587142Y-79688571D01*
X73872857Y-79688571D01*
X74015714Y-79760000D01*
X74658571Y-80688571D02*
X74658571Y-79188571D01*
X74801428Y-80117142D02*
X75230000Y-80688571D01*
X75230000Y-79688571D02*
X74658571Y-80260000D01*
X76444285Y-80617142D02*
X76301428Y-80688571D01*
X76015714Y-80688571D01*
X75872857Y-80617142D01*
X75801428Y-80474285D01*
X75801428Y-79902857D01*
X75872857Y-79760000D01*
X76015714Y-79688571D01*
X76301428Y-79688571D01*
X76444285Y-79760000D01*
X76515714Y-79902857D01*
X76515714Y-80045714D01*
X75801428Y-80188571D01*
X76944285Y-79688571D02*
X77515714Y-79688571D01*
X77158571Y-79188571D02*
X77158571Y-80474285D01*
X77230000Y-80617142D01*
X77372857Y-80688571D01*
X77515714Y-80688571D01*
X48812142Y-134003571D02*
X48812142Y-132503571D01*
X49169285Y-132503571D01*
X49383571Y-132575000D01*
X49526428Y-132717857D01*
X49597857Y-132860714D01*
X49669285Y-133146428D01*
X49669285Y-133360714D01*
X49597857Y-133646428D01*
X49526428Y-133789285D01*
X49383571Y-133932142D01*
X49169285Y-134003571D01*
X48812142Y-134003571D01*
X50597857Y-132503571D02*
X50740714Y-132503571D01*
X50883571Y-132575000D01*
X50955000Y-132646428D01*
X51026428Y-132789285D01*
X51097857Y-133075000D01*
X51097857Y-133432142D01*
X51026428Y-133717857D01*
X50955000Y-133860714D01*
X50883571Y-133932142D01*
X50740714Y-134003571D01*
X50597857Y-134003571D01*
X50455000Y-133932142D01*
X50383571Y-133860714D01*
X50312142Y-133717857D01*
X50240714Y-133432142D01*
X50240714Y-133075000D01*
X50312142Y-132789285D01*
X50383571Y-132646428D01*
X50455000Y-132575000D01*
X50597857Y-132503571D01*
X51740714Y-133860714D02*
X51812142Y-133932142D01*
X51740714Y-134003571D01*
X51669285Y-133932142D01*
X51740714Y-133860714D01*
X51740714Y-134003571D01*
X51740714Y-133075000D02*
X51812142Y-133146428D01*
X51740714Y-133217857D01*
X51669285Y-133146428D01*
X51740714Y-133075000D01*
X51740714Y-133217857D01*
X53597857Y-134003571D02*
X53597857Y-132503571D01*
X54097857Y-133575000D01*
X54597857Y-132503571D01*
X54597857Y-134003571D01*
X56169285Y-133860714D02*
X56097857Y-133932142D01*
X55883571Y-134003571D01*
X55740714Y-134003571D01*
X55526428Y-133932142D01*
X55383571Y-133789285D01*
X55312142Y-133646428D01*
X55240714Y-133360714D01*
X55240714Y-133146428D01*
X55312142Y-132860714D01*
X55383571Y-132717857D01*
X55526428Y-132575000D01*
X55740714Y-132503571D01*
X55883571Y-132503571D01*
X56097857Y-132575000D01*
X56169285Y-132646428D01*
X56812142Y-132503571D02*
X56812142Y-133717857D01*
X56883571Y-133860714D01*
X56955000Y-133932142D01*
X57097857Y-134003571D01*
X57383571Y-134003571D01*
X57526428Y-133932142D01*
X57597857Y-133860714D01*
X57669285Y-133717857D01*
X57669285Y-132503571D01*
X60383571Y-134003571D02*
X59883571Y-133289285D01*
X59526428Y-134003571D02*
X59526428Y-132503571D01*
X60097857Y-132503571D01*
X60240714Y-132575000D01*
X60312142Y-132646428D01*
X60383571Y-132789285D01*
X60383571Y-133003571D01*
X60312142Y-133146428D01*
X60240714Y-133217857D01*
X60097857Y-133289285D01*
X59526428Y-133289285D01*
X60883571Y-132503571D02*
X61883571Y-134003571D01*
X61883571Y-132503571D02*
X60883571Y-134003571D01*
X48812142Y-136553571D02*
X48812142Y-135053571D01*
X49169285Y-135053571D01*
X49383571Y-135125000D01*
X49526428Y-135267857D01*
X49597857Y-135410714D01*
X49669285Y-135696428D01*
X49669285Y-135910714D01*
X49597857Y-136196428D01*
X49526428Y-136339285D01*
X49383571Y-136482142D01*
X49169285Y-136553571D01*
X48812142Y-136553571D01*
X51097857Y-136553571D02*
X50240714Y-136553571D01*
X50669285Y-136553571D02*
X50669285Y-135053571D01*
X50526428Y-135267857D01*
X50383571Y-135410714D01*
X50240714Y-135482142D01*
X51740714Y-136410714D02*
X51812142Y-136482142D01*
X51740714Y-136553571D01*
X51669285Y-136482142D01*
X51740714Y-136410714D01*
X51740714Y-136553571D01*
X51740714Y-135625000D02*
X51812142Y-135696428D01*
X51740714Y-135767857D01*
X51669285Y-135696428D01*
X51740714Y-135625000D01*
X51740714Y-135767857D01*
X53597857Y-136553571D02*
X53597857Y-135053571D01*
X54097857Y-136125000D01*
X54597857Y-135053571D01*
X54597857Y-136553571D01*
X56169285Y-136410714D02*
X56097857Y-136482142D01*
X55883571Y-136553571D01*
X55740714Y-136553571D01*
X55526428Y-136482142D01*
X55383571Y-136339285D01*
X55312142Y-136196428D01*
X55240714Y-135910714D01*
X55240714Y-135696428D01*
X55312142Y-135410714D01*
X55383571Y-135267857D01*
X55526428Y-135125000D01*
X55740714Y-135053571D01*
X55883571Y-135053571D01*
X56097857Y-135125000D01*
X56169285Y-135196428D01*
X56812142Y-135053571D02*
X56812142Y-136267857D01*
X56883571Y-136410714D01*
X56955000Y-136482142D01*
X57097857Y-136553571D01*
X57383571Y-136553571D01*
X57526428Y-136482142D01*
X57597857Y-136410714D01*
X57669285Y-136267857D01*
X57669285Y-135053571D01*
X59312142Y-135053571D02*
X60169285Y-135053571D01*
X59740714Y-136553571D02*
X59740714Y-135053571D01*
X60526428Y-135053571D02*
X61526428Y-136553571D01*
X61526428Y-135053571D02*
X60526428Y-136553571D01*
X48812142Y-139103571D02*
X48812142Y-137603571D01*
X49169285Y-137603571D01*
X49383571Y-137675000D01*
X49526428Y-137817857D01*
X49597857Y-137960714D01*
X49669285Y-138246428D01*
X49669285Y-138460714D01*
X49597857Y-138746428D01*
X49526428Y-138889285D01*
X49383571Y-139032142D01*
X49169285Y-139103571D01*
X48812142Y-139103571D01*
X50240714Y-137746428D02*
X50312142Y-137675000D01*
X50455000Y-137603571D01*
X50812142Y-137603571D01*
X50955000Y-137675000D01*
X51026428Y-137746428D01*
X51097857Y-137889285D01*
X51097857Y-138032142D01*
X51026428Y-138246428D01*
X50169285Y-139103571D01*
X51097857Y-139103571D01*
X51740714Y-138960714D02*
X51812142Y-139032142D01*
X51740714Y-139103571D01*
X51669285Y-139032142D01*
X51740714Y-138960714D01*
X51740714Y-139103571D01*
X51740714Y-138175000D02*
X51812142Y-138246428D01*
X51740714Y-138317857D01*
X51669285Y-138246428D01*
X51740714Y-138175000D01*
X51740714Y-138317857D01*
X53597857Y-139103571D02*
X53597857Y-137603571D01*
X54455000Y-139103571D01*
X54455000Y-137603571D01*
X56026428Y-139103571D02*
X55526428Y-138389285D01*
X55169285Y-139103571D02*
X55169285Y-137603571D01*
X55740714Y-137603571D01*
X55883571Y-137675000D01*
X55955000Y-137746428D01*
X56026428Y-137889285D01*
X56026428Y-138103571D01*
X55955000Y-138246428D01*
X55883571Y-138317857D01*
X55740714Y-138389285D01*
X55169285Y-138389285D01*
X56597857Y-139032142D02*
X56812142Y-139103571D01*
X57169285Y-139103571D01*
X57312142Y-139032142D01*
X57383571Y-138960714D01*
X57455000Y-138817857D01*
X57455000Y-138675000D01*
X57383571Y-138532142D01*
X57312142Y-138460714D01*
X57169285Y-138389285D01*
X56883571Y-138317857D01*
X56740714Y-138246428D01*
X56669285Y-138175000D01*
X56597857Y-138032142D01*
X56597857Y-137889285D01*
X56669285Y-137746428D01*
X56740714Y-137675000D01*
X56883571Y-137603571D01*
X57240714Y-137603571D01*
X57455000Y-137675000D01*
X57883571Y-137603571D02*
X58740714Y-137603571D01*
X58312142Y-139103571D02*
X58312142Y-137603571D01*
X48812142Y-141653571D02*
X48812142Y-140153571D01*
X49169285Y-140153571D01*
X49383571Y-140225000D01*
X49526428Y-140367857D01*
X49597857Y-140510714D01*
X49669285Y-140796428D01*
X49669285Y-141010714D01*
X49597857Y-141296428D01*
X49526428Y-141439285D01*
X49383571Y-141582142D01*
X49169285Y-141653571D01*
X48812142Y-141653571D01*
X50169285Y-140153571D02*
X51097857Y-140153571D01*
X50597857Y-140725000D01*
X50812142Y-140725000D01*
X50955000Y-140796428D01*
X51026428Y-140867857D01*
X51097857Y-141010714D01*
X51097857Y-141367857D01*
X51026428Y-141510714D01*
X50955000Y-141582142D01*
X50812142Y-141653571D01*
X50383571Y-141653571D01*
X50240714Y-141582142D01*
X50169285Y-141510714D01*
X51740714Y-141510714D02*
X51812142Y-141582142D01*
X51740714Y-141653571D01*
X51669285Y-141582142D01*
X51740714Y-141510714D01*
X51740714Y-141653571D01*
X51740714Y-140725000D02*
X51812142Y-140796428D01*
X51740714Y-140867857D01*
X51669285Y-140796428D01*
X51740714Y-140725000D01*
X51740714Y-140867857D01*
X53597857Y-141653571D02*
X53597857Y-140153571D01*
X54169285Y-140153571D01*
X54312142Y-140225000D01*
X54383571Y-140296428D01*
X54455000Y-140439285D01*
X54455000Y-140653571D01*
X54383571Y-140796428D01*
X54312142Y-140867857D01*
X54169285Y-140939285D01*
X53597857Y-140939285D01*
X55955000Y-141510714D02*
X55883571Y-141582142D01*
X55669285Y-141653571D01*
X55526428Y-141653571D01*
X55312142Y-141582142D01*
X55169285Y-141439285D01*
X55097857Y-141296428D01*
X55026428Y-141010714D01*
X55026428Y-140796428D01*
X55097857Y-140510714D01*
X55169285Y-140367857D01*
X55312142Y-140225000D01*
X55526428Y-140153571D01*
X55669285Y-140153571D01*
X55883571Y-140225000D01*
X55955000Y-140296428D01*
X56883571Y-140153571D02*
X57026428Y-140153571D01*
X57169285Y-140225000D01*
X57240714Y-140296428D01*
X57312142Y-140439285D01*
X57383571Y-140725000D01*
X57383571Y-141082142D01*
X57312142Y-141367857D01*
X57240714Y-141510714D01*
X57169285Y-141582142D01*
X57026428Y-141653571D01*
X56883571Y-141653571D01*
X56740714Y-141582142D01*
X56669285Y-141510714D01*
X56597857Y-141367857D01*
X56526428Y-141082142D01*
X56526428Y-140725000D01*
X56597857Y-140439285D01*
X56669285Y-140296428D01*
X56740714Y-140225000D01*
X56883571Y-140153571D01*
X48812142Y-144203571D02*
X48812142Y-142703571D01*
X49169285Y-142703571D01*
X49383571Y-142775000D01*
X49526428Y-142917857D01*
X49597857Y-143060714D01*
X49669285Y-143346428D01*
X49669285Y-143560714D01*
X49597857Y-143846428D01*
X49526428Y-143989285D01*
X49383571Y-144132142D01*
X49169285Y-144203571D01*
X48812142Y-144203571D01*
X50955000Y-142703571D02*
X50669285Y-142703571D01*
X50526428Y-142775000D01*
X50455000Y-142846428D01*
X50312142Y-143060714D01*
X50240714Y-143346428D01*
X50240714Y-143917857D01*
X50312142Y-144060714D01*
X50383571Y-144132142D01*
X50526428Y-144203571D01*
X50812142Y-144203571D01*
X50955000Y-144132142D01*
X51026428Y-144060714D01*
X51097857Y-143917857D01*
X51097857Y-143560714D01*
X51026428Y-143417857D01*
X50955000Y-143346428D01*
X50812142Y-143275000D01*
X50526428Y-143275000D01*
X50383571Y-143346428D01*
X50312142Y-143417857D01*
X50240714Y-143560714D01*
X51740714Y-144060714D02*
X51812142Y-144132142D01*
X51740714Y-144203571D01*
X51669285Y-144132142D01*
X51740714Y-144060714D01*
X51740714Y-144203571D01*
X51740714Y-143275000D02*
X51812142Y-143346428D01*
X51740714Y-143417857D01*
X51669285Y-143346428D01*
X51740714Y-143275000D01*
X51740714Y-143417857D01*
X54097857Y-143417857D02*
X54312142Y-143489285D01*
X54383571Y-143560714D01*
X54455000Y-143703571D01*
X54455000Y-143917857D01*
X54383571Y-144060714D01*
X54312142Y-144132142D01*
X54169285Y-144203571D01*
X53597857Y-144203571D01*
X53597857Y-142703571D01*
X54097857Y-142703571D01*
X54240714Y-142775000D01*
X54312142Y-142846428D01*
X54383571Y-142989285D01*
X54383571Y-143132142D01*
X54312142Y-143275000D01*
X54240714Y-143346428D01*
X54097857Y-143417857D01*
X53597857Y-143417857D01*
X55383571Y-142703571D02*
X55669285Y-142703571D01*
X55812142Y-142775000D01*
X55955000Y-142917857D01*
X56026428Y-143203571D01*
X56026428Y-143703571D01*
X55955000Y-143989285D01*
X55812142Y-144132142D01*
X55669285Y-144203571D01*
X55383571Y-144203571D01*
X55240714Y-144132142D01*
X55097857Y-143989285D01*
X55026428Y-143703571D01*
X55026428Y-143203571D01*
X55097857Y-142917857D01*
X55240714Y-142775000D01*
X55383571Y-142703571D01*
X56955000Y-142703571D02*
X57240714Y-142703571D01*
X57383571Y-142775000D01*
X57526428Y-142917857D01*
X57597857Y-143203571D01*
X57597857Y-143703571D01*
X57526428Y-143989285D01*
X57383571Y-144132142D01*
X57240714Y-144203571D01*
X56955000Y-144203571D01*
X56812142Y-144132142D01*
X56669285Y-143989285D01*
X56597857Y-143703571D01*
X56597857Y-143203571D01*
X56669285Y-142917857D01*
X56812142Y-142775000D01*
X56955000Y-142703571D01*
X58026428Y-142703571D02*
X58883571Y-142703571D01*
X58455000Y-144203571D02*
X58455000Y-142703571D01*
X59669285Y-142703571D02*
X59812142Y-142703571D01*
X59955000Y-142775000D01*
X60026428Y-142846428D01*
X60097857Y-142989285D01*
X60169285Y-143275000D01*
X60169285Y-143632142D01*
X60097857Y-143917857D01*
X60026428Y-144060714D01*
X59955000Y-144132142D01*
X59812142Y-144203571D01*
X59669285Y-144203571D01*
X59526428Y-144132142D01*
X59455000Y-144060714D01*
X59383571Y-143917857D01*
X59312142Y-143632142D01*
X59312142Y-143275000D01*
X59383571Y-142989285D01*
X59455000Y-142846428D01*
X59526428Y-142775000D01*
X59669285Y-142703571D01*
X48812142Y-146753571D02*
X48812142Y-145253571D01*
X49169285Y-145253571D01*
X49383571Y-145325000D01*
X49526428Y-145467857D01*
X49597857Y-145610714D01*
X49669285Y-145896428D01*
X49669285Y-146110714D01*
X49597857Y-146396428D01*
X49526428Y-146539285D01*
X49383571Y-146682142D01*
X49169285Y-146753571D01*
X48812142Y-146753571D01*
X50169285Y-145253571D02*
X51169285Y-145253571D01*
X50526428Y-146753571D01*
X51740714Y-146610714D02*
X51812142Y-146682142D01*
X51740714Y-146753571D01*
X51669285Y-146682142D01*
X51740714Y-146610714D01*
X51740714Y-146753571D01*
X51740714Y-145825000D02*
X51812142Y-145896428D01*
X51740714Y-145967857D01*
X51669285Y-145896428D01*
X51740714Y-145825000D01*
X51740714Y-145967857D01*
X54097857Y-145967857D02*
X54312142Y-146039285D01*
X54383571Y-146110714D01*
X54455000Y-146253571D01*
X54455000Y-146467857D01*
X54383571Y-146610714D01*
X54312142Y-146682142D01*
X54169285Y-146753571D01*
X53597857Y-146753571D01*
X53597857Y-145253571D01*
X54097857Y-145253571D01*
X54240714Y-145325000D01*
X54312142Y-145396428D01*
X54383571Y-145539285D01*
X54383571Y-145682142D01*
X54312142Y-145825000D01*
X54240714Y-145896428D01*
X54097857Y-145967857D01*
X53597857Y-145967857D01*
X55383571Y-145253571D02*
X55669285Y-145253571D01*
X55812142Y-145325000D01*
X55955000Y-145467857D01*
X56026428Y-145753571D01*
X56026428Y-146253571D01*
X55955000Y-146539285D01*
X55812142Y-146682142D01*
X55669285Y-146753571D01*
X55383571Y-146753571D01*
X55240714Y-146682142D01*
X55097857Y-146539285D01*
X55026428Y-146253571D01*
X55026428Y-145753571D01*
X55097857Y-145467857D01*
X55240714Y-145325000D01*
X55383571Y-145253571D01*
X56955000Y-145253571D02*
X57240714Y-145253571D01*
X57383571Y-145325000D01*
X57526428Y-145467857D01*
X57597857Y-145753571D01*
X57597857Y-146253571D01*
X57526428Y-146539285D01*
X57383571Y-146682142D01*
X57240714Y-146753571D01*
X56955000Y-146753571D01*
X56812142Y-146682142D01*
X56669285Y-146539285D01*
X56597857Y-146253571D01*
X56597857Y-145753571D01*
X56669285Y-145467857D01*
X56812142Y-145325000D01*
X56955000Y-145253571D01*
X58026428Y-145253571D02*
X58883571Y-145253571D01*
X58455000Y-146753571D02*
X58455000Y-145253571D01*
X60169285Y-146753571D02*
X59312142Y-146753571D01*
X59740714Y-146753571D02*
X59740714Y-145253571D01*
X59597857Y-145467857D01*
X59455000Y-145610714D01*
X59312142Y-145682142D01*
D12*
G04 #@! TO.C,LOGO1*
G36*
X68580000Y-140594903D02*
X68580000Y-142595600D01*
X68545075Y-142595367D01*
X68517834Y-142590507D01*
X68474917Y-142577722D01*
X68423870Y-142559371D01*
X68402200Y-142550727D01*
X68221186Y-142463797D01*
X68041335Y-142352773D01*
X67864490Y-142218949D01*
X67692496Y-142063621D01*
X67653734Y-142024906D01*
X67467609Y-141817539D01*
X67300004Y-141593433D01*
X67151570Y-141353902D01*
X67022961Y-141100262D01*
X66914831Y-140833827D01*
X66827833Y-140555914D01*
X66762619Y-140267836D01*
X66752447Y-140210293D01*
X66744556Y-140157730D01*
X66736300Y-140092725D01*
X66728050Y-140019507D01*
X66720181Y-139942307D01*
X66713065Y-139865353D01*
X66707074Y-139792876D01*
X66702583Y-139729106D01*
X66699963Y-139678272D01*
X66699588Y-139644605D01*
X66701498Y-139632462D01*
X66713233Y-139625787D01*
X66745199Y-139607936D01*
X66795395Y-139580016D01*
X66861820Y-139543134D01*
X66942472Y-139498398D01*
X67035351Y-139446914D01*
X67138455Y-139389790D01*
X67249783Y-139328133D01*
X67367333Y-139263050D01*
X67489106Y-139195649D01*
X67613098Y-139127037D01*
X67737311Y-139058320D01*
X67859741Y-138990607D01*
X67978388Y-138925004D01*
X68091251Y-138862619D01*
X68196328Y-138804559D01*
X68291618Y-138751931D01*
X68375121Y-138705842D01*
X68444835Y-138667400D01*
X68498759Y-138637711D01*
X68534891Y-138617884D01*
X68551230Y-138609025D01*
X68551425Y-138608924D01*
X68579999Y-138594206D01*
X68580000Y-140594903D01*
X68580000Y-140594903D01*
G37*
X68580000Y-140594903D02*
X68580000Y-142595600D01*
X68545075Y-142595367D01*
X68517834Y-142590507D01*
X68474917Y-142577722D01*
X68423870Y-142559371D01*
X68402200Y-142550727D01*
X68221186Y-142463797D01*
X68041335Y-142352773D01*
X67864490Y-142218949D01*
X67692496Y-142063621D01*
X67653734Y-142024906D01*
X67467609Y-141817539D01*
X67300004Y-141593433D01*
X67151570Y-141353902D01*
X67022961Y-141100262D01*
X66914831Y-140833827D01*
X66827833Y-140555914D01*
X66762619Y-140267836D01*
X66752447Y-140210293D01*
X66744556Y-140157730D01*
X66736300Y-140092725D01*
X66728050Y-140019507D01*
X66720181Y-139942307D01*
X66713065Y-139865353D01*
X66707074Y-139792876D01*
X66702583Y-139729106D01*
X66699963Y-139678272D01*
X66699588Y-139644605D01*
X66701498Y-139632462D01*
X66713233Y-139625787D01*
X66745199Y-139607936D01*
X66795395Y-139580016D01*
X66861820Y-139543134D01*
X66942472Y-139498398D01*
X67035351Y-139446914D01*
X67138455Y-139389790D01*
X67249783Y-139328133D01*
X67367333Y-139263050D01*
X67489106Y-139195649D01*
X67613098Y-139127037D01*
X67737311Y-139058320D01*
X67859741Y-138990607D01*
X67978388Y-138925004D01*
X68091251Y-138862619D01*
X68196328Y-138804559D01*
X68291618Y-138751931D01*
X68375121Y-138705842D01*
X68444835Y-138667400D01*
X68498759Y-138637711D01*
X68534891Y-138617884D01*
X68551230Y-138609025D01*
X68551425Y-138608924D01*
X68579999Y-138594206D01*
X68580000Y-140594903D01*
G36*
X69494236Y-140044237D02*
X69554478Y-140071905D01*
X69613178Y-140118017D01*
X69667583Y-140181291D01*
X69714943Y-140260447D01*
X69716688Y-140264000D01*
X69739039Y-140314309D01*
X69755684Y-140364025D01*
X69767193Y-140417688D01*
X69774133Y-140479840D01*
X69777076Y-140555022D01*
X69776590Y-140647775D01*
X69774525Y-140725290D01*
X69767450Y-140944130D01*
X69250800Y-140709650D01*
X69256716Y-140462000D01*
X69259784Y-140362088D01*
X69264140Y-140283805D01*
X69270533Y-140223388D01*
X69279710Y-140177070D01*
X69292422Y-140141087D01*
X69309417Y-140111674D01*
X69331444Y-140085067D01*
X69331773Y-140084716D01*
X69380132Y-140049361D01*
X69435204Y-140036296D01*
X69494236Y-140044237D01*
X69494236Y-140044237D01*
G37*
X69494236Y-140044237D02*
X69554478Y-140071905D01*
X69613178Y-140118017D01*
X69667583Y-140181291D01*
X69714943Y-140260447D01*
X69716688Y-140264000D01*
X69739039Y-140314309D01*
X69755684Y-140364025D01*
X69767193Y-140417688D01*
X69774133Y-140479840D01*
X69777076Y-140555022D01*
X69776590Y-140647775D01*
X69774525Y-140725290D01*
X69767450Y-140944130D01*
X69250800Y-140709650D01*
X69256716Y-140462000D01*
X69259784Y-140362088D01*
X69264140Y-140283805D01*
X69270533Y-140223388D01*
X69279710Y-140177070D01*
X69292422Y-140141087D01*
X69309417Y-140111674D01*
X69331444Y-140085067D01*
X69331773Y-140084716D01*
X69380132Y-140049361D01*
X69435204Y-140036296D01*
X69494236Y-140044237D01*
G36*
X68605770Y-138093073D02*
X68638501Y-138110307D01*
X68689714Y-138137772D01*
X68757538Y-138174440D01*
X68840097Y-138219283D01*
X68935520Y-138271270D01*
X69041933Y-138329374D01*
X69157463Y-138392565D01*
X69280237Y-138459815D01*
X69408381Y-138530094D01*
X69540023Y-138602375D01*
X69673289Y-138675627D01*
X69806306Y-138748822D01*
X69937202Y-138820932D01*
X70064102Y-138890927D01*
X70185134Y-138957778D01*
X70298424Y-139020457D01*
X70402099Y-139077935D01*
X70494287Y-139129183D01*
X70573114Y-139173172D01*
X70636707Y-139208873D01*
X70669150Y-139227241D01*
X70709821Y-139251960D01*
X70739448Y-139273009D01*
X70753081Y-139286764D01*
X70753328Y-139288887D01*
X70743354Y-139302744D01*
X70720233Y-139331041D01*
X70687280Y-139369994D01*
X70647814Y-139415820D01*
X70605151Y-139464737D01*
X70562609Y-139512961D01*
X70523504Y-139556708D01*
X70491153Y-139592195D01*
X70468875Y-139615640D01*
X70460106Y-139623320D01*
X70448218Y-139617221D01*
X70415772Y-139599674D01*
X70364401Y-139571584D01*
X70295744Y-139533853D01*
X70211434Y-139487385D01*
X70113109Y-139433082D01*
X70002405Y-139371848D01*
X69880956Y-139304586D01*
X69750400Y-139232199D01*
X69612371Y-139155591D01*
X69519800Y-139104170D01*
X68586350Y-138585500D01*
X68582906Y-138336300D01*
X68582133Y-138241004D01*
X68582828Y-138169762D01*
X68585047Y-138121267D01*
X68588844Y-138094213D01*
X68593394Y-138087100D01*
X68605770Y-138093073D01*
X68605770Y-138093073D01*
G37*
X68605770Y-138093073D02*
X68638501Y-138110307D01*
X68689714Y-138137772D01*
X68757538Y-138174440D01*
X68840097Y-138219283D01*
X68935520Y-138271270D01*
X69041933Y-138329374D01*
X69157463Y-138392565D01*
X69280237Y-138459815D01*
X69408381Y-138530094D01*
X69540023Y-138602375D01*
X69673289Y-138675627D01*
X69806306Y-138748822D01*
X69937202Y-138820932D01*
X70064102Y-138890927D01*
X70185134Y-138957778D01*
X70298424Y-139020457D01*
X70402099Y-139077935D01*
X70494287Y-139129183D01*
X70573114Y-139173172D01*
X70636707Y-139208873D01*
X70669150Y-139227241D01*
X70709821Y-139251960D01*
X70739448Y-139273009D01*
X70753081Y-139286764D01*
X70753328Y-139288887D01*
X70743354Y-139302744D01*
X70720233Y-139331041D01*
X70687280Y-139369994D01*
X70647814Y-139415820D01*
X70605151Y-139464737D01*
X70562609Y-139512961D01*
X70523504Y-139556708D01*
X70491153Y-139592195D01*
X70468875Y-139615640D01*
X70460106Y-139623320D01*
X70448218Y-139617221D01*
X70415772Y-139599674D01*
X70364401Y-139571584D01*
X70295744Y-139533853D01*
X70211434Y-139487385D01*
X70113109Y-139433082D01*
X70002405Y-139371848D01*
X69880956Y-139304586D01*
X69750400Y-139232199D01*
X69612371Y-139155591D01*
X69519800Y-139104170D01*
X68586350Y-138585500D01*
X68582906Y-138336300D01*
X68582133Y-138241004D01*
X68582828Y-138169762D01*
X68585047Y-138121267D01*
X68588844Y-138094213D01*
X68593394Y-138087100D01*
X68605770Y-138093073D01*
G36*
X68576943Y-137431167D02*
X68577402Y-137555854D01*
X68577468Y-137672775D01*
X68577167Y-137779484D01*
X68576522Y-137873533D01*
X68575557Y-137952476D01*
X68574298Y-138013865D01*
X68572766Y-138055253D01*
X68570988Y-138074194D01*
X68570593Y-138075084D01*
X68558155Y-138082460D01*
X68525319Y-138101037D01*
X68473948Y-138129787D01*
X68405908Y-138167683D01*
X68323063Y-138213696D01*
X68227276Y-138266799D01*
X68120412Y-138325964D01*
X68004335Y-138390163D01*
X67880909Y-138458368D01*
X67751999Y-138529552D01*
X67619468Y-138602686D01*
X67485182Y-138676743D01*
X67351003Y-138750695D01*
X67218797Y-138823514D01*
X67090428Y-138894173D01*
X66967759Y-138961642D01*
X66852655Y-139024896D01*
X66746981Y-139082905D01*
X66652600Y-139134642D01*
X66571376Y-139179080D01*
X66505175Y-139215189D01*
X66455859Y-139241943D01*
X66425294Y-139258314D01*
X66415556Y-139263259D01*
X66410994Y-139263098D01*
X66407177Y-139257468D01*
X66404041Y-139244350D01*
X66401519Y-139221727D01*
X66399547Y-139187582D01*
X66398059Y-139139897D01*
X66396991Y-139076656D01*
X66396276Y-138995841D01*
X66395849Y-138895434D01*
X66395646Y-138773419D01*
X66395600Y-138646681D01*
X66395600Y-138022445D01*
X66424175Y-137994058D01*
X66445455Y-137977818D01*
X66483205Y-137953614D01*
X66532654Y-137924078D01*
X66589031Y-137891842D01*
X66647565Y-137859539D01*
X66703486Y-137829801D01*
X66752022Y-137805260D01*
X66788404Y-137788549D01*
X66807860Y-137782300D01*
X66807959Y-137782299D01*
X66815240Y-137785402D01*
X66820481Y-137796988D01*
X66824001Y-137820475D01*
X66826116Y-137859279D01*
X66827143Y-137916819D01*
X66827400Y-137991850D01*
X66827850Y-138061588D01*
X66829098Y-138121496D01*
X66830985Y-138167389D01*
X66833355Y-138195081D01*
X66835271Y-138201400D01*
X66848348Y-138195564D01*
X66880090Y-138179314D01*
X66926941Y-138154532D01*
X66985341Y-138123102D01*
X67051734Y-138086908D01*
X67057173Y-138083925D01*
X67271203Y-137966450D01*
X67271551Y-137756550D01*
X67272213Y-137672819D01*
X67274067Y-137610957D01*
X67277393Y-137567452D01*
X67282473Y-137538789D01*
X67289586Y-137521455D01*
X67290423Y-137520205D01*
X67308237Y-137504339D01*
X67343061Y-137480640D01*
X67390329Y-137451600D01*
X67445477Y-137419710D01*
X67503941Y-137387461D01*
X67561156Y-137357344D01*
X67612557Y-137331851D01*
X67653579Y-137313472D01*
X67679660Y-137304699D01*
X67685466Y-137304605D01*
X67692517Y-137311742D01*
X67697564Y-137329162D01*
X67700902Y-137360263D01*
X67702824Y-137408443D01*
X67703626Y-137477101D01*
X67703700Y-137515201D01*
X67704260Y-137583831D01*
X67705810Y-137642523D01*
X67708150Y-137687046D01*
X67711083Y-137713167D01*
X67713225Y-137718273D01*
X67726802Y-137712175D01*
X67758883Y-137695522D01*
X67805858Y-137670255D01*
X67864119Y-137638317D01*
X67930055Y-137601649D01*
X67932300Y-137600392D01*
X68141850Y-137483037D01*
X68148200Y-137264781D01*
X68151012Y-137181898D01*
X68154189Y-137120832D01*
X68158134Y-137077999D01*
X68163248Y-137049816D01*
X68169933Y-137032699D01*
X68174972Y-137026143D01*
X68192562Y-137013372D01*
X68228295Y-136990954D01*
X68278002Y-136961381D01*
X68337515Y-136927147D01*
X68384522Y-136900776D01*
X68573650Y-136795791D01*
X68576943Y-137431167D01*
X68576943Y-137431167D01*
G37*
X68576943Y-137431167D02*
X68577402Y-137555854D01*
X68577468Y-137672775D01*
X68577167Y-137779484D01*
X68576522Y-137873533D01*
X68575557Y-137952476D01*
X68574298Y-138013865D01*
X68572766Y-138055253D01*
X68570988Y-138074194D01*
X68570593Y-138075084D01*
X68558155Y-138082460D01*
X68525319Y-138101037D01*
X68473948Y-138129787D01*
X68405908Y-138167683D01*
X68323063Y-138213696D01*
X68227276Y-138266799D01*
X68120412Y-138325964D01*
X68004335Y-138390163D01*
X67880909Y-138458368D01*
X67751999Y-138529552D01*
X67619468Y-138602686D01*
X67485182Y-138676743D01*
X67351003Y-138750695D01*
X67218797Y-138823514D01*
X67090428Y-138894173D01*
X66967759Y-138961642D01*
X66852655Y-139024896D01*
X66746981Y-139082905D01*
X66652600Y-139134642D01*
X66571376Y-139179080D01*
X66505175Y-139215189D01*
X66455859Y-139241943D01*
X66425294Y-139258314D01*
X66415556Y-139263259D01*
X66410994Y-139263098D01*
X66407177Y-139257468D01*
X66404041Y-139244350D01*
X66401519Y-139221727D01*
X66399547Y-139187582D01*
X66398059Y-139139897D01*
X66396991Y-139076656D01*
X66396276Y-138995841D01*
X66395849Y-138895434D01*
X66395646Y-138773419D01*
X66395600Y-138646681D01*
X66395600Y-138022445D01*
X66424175Y-137994058D01*
X66445455Y-137977818D01*
X66483205Y-137953614D01*
X66532654Y-137924078D01*
X66589031Y-137891842D01*
X66647565Y-137859539D01*
X66703486Y-137829801D01*
X66752022Y-137805260D01*
X66788404Y-137788549D01*
X66807860Y-137782300D01*
X66807959Y-137782299D01*
X66815240Y-137785402D01*
X66820481Y-137796988D01*
X66824001Y-137820475D01*
X66826116Y-137859279D01*
X66827143Y-137916819D01*
X66827400Y-137991850D01*
X66827850Y-138061588D01*
X66829098Y-138121496D01*
X66830985Y-138167389D01*
X66833355Y-138195081D01*
X66835271Y-138201400D01*
X66848348Y-138195564D01*
X66880090Y-138179314D01*
X66926941Y-138154532D01*
X66985341Y-138123102D01*
X67051734Y-138086908D01*
X67057173Y-138083925D01*
X67271203Y-137966450D01*
X67271551Y-137756550D01*
X67272213Y-137672819D01*
X67274067Y-137610957D01*
X67277393Y-137567452D01*
X67282473Y-137538789D01*
X67289586Y-137521455D01*
X67290423Y-137520205D01*
X67308237Y-137504339D01*
X67343061Y-137480640D01*
X67390329Y-137451600D01*
X67445477Y-137419710D01*
X67503941Y-137387461D01*
X67561156Y-137357344D01*
X67612557Y-137331851D01*
X67653579Y-137313472D01*
X67679660Y-137304699D01*
X67685466Y-137304605D01*
X67692517Y-137311742D01*
X67697564Y-137329162D01*
X67700902Y-137360263D01*
X67702824Y-137408443D01*
X67703626Y-137477101D01*
X67703700Y-137515201D01*
X67704260Y-137583831D01*
X67705810Y-137642523D01*
X67708150Y-137687046D01*
X67711083Y-137713167D01*
X67713225Y-137718273D01*
X67726802Y-137712175D01*
X67758883Y-137695522D01*
X67805858Y-137670255D01*
X67864119Y-137638317D01*
X67930055Y-137601649D01*
X67932300Y-137600392D01*
X68141850Y-137483037D01*
X68148200Y-137264781D01*
X68151012Y-137181898D01*
X68154189Y-137120832D01*
X68158134Y-137077999D01*
X68163248Y-137049816D01*
X68169933Y-137032699D01*
X68174972Y-137026143D01*
X68192562Y-137013372D01*
X68228295Y-136990954D01*
X68278002Y-136961381D01*
X68337515Y-136927147D01*
X68384522Y-136900776D01*
X68573650Y-136795791D01*
X68576943Y-137431167D01*
G36*
X69894163Y-137521460D02*
X69924017Y-137537863D01*
X69969410Y-137562950D01*
X70027017Y-137594883D01*
X70093514Y-137631824D01*
X70109763Y-137640861D01*
X70334929Y-137766123D01*
X70333207Y-137980085D01*
X70332455Y-138050894D01*
X70331459Y-138112200D01*
X70330315Y-138159775D01*
X70329120Y-138189395D01*
X70328236Y-138197297D01*
X70316650Y-138192497D01*
X70286291Y-138177205D01*
X70240605Y-138153232D01*
X70183042Y-138122391D01*
X70117048Y-138086492D01*
X70109718Y-138082475D01*
X69894450Y-137964404D01*
X69888100Y-137739982D01*
X69886130Y-137667681D01*
X69884570Y-137605065D01*
X69883508Y-137556177D01*
X69883033Y-137525057D01*
X69883173Y-137515580D01*
X69894163Y-137521460D01*
X69894163Y-137521460D01*
G37*
X69894163Y-137521460D02*
X69924017Y-137537863D01*
X69969410Y-137562950D01*
X70027017Y-137594883D01*
X70093514Y-137631824D01*
X70109763Y-137640861D01*
X70334929Y-137766123D01*
X70333207Y-137980085D01*
X70332455Y-138050894D01*
X70331459Y-138112200D01*
X70330315Y-138159775D01*
X70329120Y-138189395D01*
X70328236Y-138197297D01*
X70316650Y-138192497D01*
X70286291Y-138177205D01*
X70240605Y-138153232D01*
X70183042Y-138122391D01*
X70117048Y-138086492D01*
X70109718Y-138082475D01*
X69894450Y-137964404D01*
X69888100Y-137739982D01*
X69886130Y-137667681D01*
X69884570Y-137605065D01*
X69883508Y-137556177D01*
X69883033Y-137525057D01*
X69883173Y-137515580D01*
X69894163Y-137521460D01*
G36*
X69019282Y-137038901D02*
X69050744Y-137055395D01*
X69097646Y-137080665D01*
X69156626Y-137112895D01*
X69224322Y-137150269D01*
X69246852Y-137162782D01*
X69334210Y-137212200D01*
X69399340Y-137250952D01*
X69442875Y-137279448D01*
X69465445Y-137298096D01*
X69468579Y-137306556D01*
X69464372Y-137323534D01*
X69460380Y-137361200D01*
X69456937Y-137414841D01*
X69454379Y-137479745D01*
X69453459Y-137519185D01*
X69449950Y-137717824D01*
X69024500Y-137484102D01*
X69024500Y-137291127D01*
X69023702Y-137221077D01*
X69021508Y-137157833D01*
X69018212Y-137106796D01*
X69014113Y-137073363D01*
X69012114Y-137065576D01*
X69005303Y-137042032D01*
X69006620Y-137033000D01*
X69019282Y-137038901D01*
X69019282Y-137038901D01*
G37*
X69019282Y-137038901D02*
X69050744Y-137055395D01*
X69097646Y-137080665D01*
X69156626Y-137112895D01*
X69224322Y-137150269D01*
X69246852Y-137162782D01*
X69334210Y-137212200D01*
X69399340Y-137250952D01*
X69442875Y-137279448D01*
X69465445Y-137298096D01*
X69468579Y-137306556D01*
X69464372Y-137323534D01*
X69460380Y-137361200D01*
X69456937Y-137414841D01*
X69454379Y-137479745D01*
X69453459Y-137519185D01*
X69449950Y-137717824D01*
X69024500Y-137484102D01*
X69024500Y-137291127D01*
X69023702Y-137221077D01*
X69021508Y-137157833D01*
X69018212Y-137106796D01*
X69014113Y-137073363D01*
X69012114Y-137065576D01*
X69005303Y-137042032D01*
X69006620Y-137033000D01*
X69019282Y-137038901D01*
D11*
G04 #@! TO.C,U1*
X77730000Y-129800000D02*
X46730000Y-129800000D01*
X46730000Y-129800000D02*
X46730000Y-98800000D01*
X46730000Y-98800000D02*
X77730000Y-98800000D01*
X77730000Y-98800000D02*
X77730000Y-129800000D01*
X46730000Y-99800000D02*
X47730000Y-98800000D01*
D13*
G04 #@! TO.C,Y1*
X55920000Y-95235000D02*
X49670000Y-95235000D01*
X55920000Y-90185000D02*
X49670000Y-90185000D01*
X55920000Y-90185000D02*
G75*
G02X55920000Y-95235000I0J-2525000D01*
G01*
X49670000Y-90185000D02*
G75*
G03X49670000Y-95235000I0J-2525000D01*
G01*
G04 #@! TO.C,U1*
D11*
X75946095Y-130770380D02*
X75946095Y-131579904D01*
X75993714Y-131675142D01*
X76041333Y-131722761D01*
X76136571Y-131770380D01*
X76327047Y-131770380D01*
X76422285Y-131722761D01*
X76469904Y-131675142D01*
X76517523Y-131579904D01*
X76517523Y-130770380D01*
X77517523Y-131770380D02*
X76946095Y-131770380D01*
X77231809Y-131770380D02*
X77231809Y-130770380D01*
X77136571Y-130913238D01*
X77041333Y-131008476D01*
X76946095Y-131056095D01*
G04 #@! TO.C,Y1*
X52318809Y-88876190D02*
X52318809Y-89352380D01*
X51985476Y-88352380D02*
X52318809Y-88876190D01*
X52652142Y-88352380D01*
X53509285Y-89352380D02*
X52937857Y-89352380D01*
X53223571Y-89352380D02*
X53223571Y-88352380D01*
X53128333Y-88495238D01*
X53033095Y-88590476D01*
X52937857Y-88638095D01*
G04 #@! TD*
M02*
