G04 #@! TF.GenerationSoftware,KiCad,Pcbnew,5.0.2-bee76a0~70~ubuntu18.04.1*
G04 #@! TF.CreationDate,2019-07-29T15:00:22+02:00*
G04 #@! TF.ProjectId,stm32f427,73746d33-3266-4343-9237-2e6b69636164,rev?*
G04 #@! TF.SameCoordinates,Original*
G04 #@! TF.FileFunction,Soldermask,Bot*
G04 #@! TF.FilePolarity,Negative*
%FSLAX46Y46*%
G04 Gerber Fmt 4.6, Leading zero omitted, Abs format (unit mm)*
G04 Created by KiCad (PCBNEW 5.0.2-bee76a0~70~ubuntu18.04.1) date lun. 29 juil. 2019 15:00:22 CEST*
%MOMM*%
%LPD*%
G01*
G04 APERTURE LIST*
%ADD10C,0.100000*%
G04 APERTURE END LIST*
D10*
G36*
X73826630Y-154102299D02*
X73986855Y-154150903D01*
X74134520Y-154229831D01*
X74263949Y-154336051D01*
X74370169Y-154465480D01*
X74449097Y-154613145D01*
X74497701Y-154773370D01*
X74514112Y-154940000D01*
X74497701Y-155106630D01*
X74449097Y-155266855D01*
X74370169Y-155414520D01*
X74263949Y-155543949D01*
X74134520Y-155650169D01*
X73986855Y-155729097D01*
X73826630Y-155777701D01*
X73701752Y-155790000D01*
X73618248Y-155790000D01*
X73493370Y-155777701D01*
X73333145Y-155729097D01*
X73185480Y-155650169D01*
X73056051Y-155543949D01*
X72949831Y-155414520D01*
X72870903Y-155266855D01*
X72822299Y-155106630D01*
X72805888Y-154940000D01*
X72822299Y-154773370D01*
X72870903Y-154613145D01*
X72949831Y-154465480D01*
X73056051Y-154336051D01*
X73185480Y-154229831D01*
X73333145Y-154150903D01*
X73493370Y-154102299D01*
X73618248Y-154090000D01*
X73701752Y-154090000D01*
X73826630Y-154102299D01*
X73826630Y-154102299D01*
G37*
G36*
X71286630Y-154102299D02*
X71446855Y-154150903D01*
X71594520Y-154229831D01*
X71723949Y-154336051D01*
X71830169Y-154465480D01*
X71909097Y-154613145D01*
X71957701Y-154773370D01*
X71974112Y-154940000D01*
X71957701Y-155106630D01*
X71909097Y-155266855D01*
X71830169Y-155414520D01*
X71723949Y-155543949D01*
X71594520Y-155650169D01*
X71446855Y-155729097D01*
X71286630Y-155777701D01*
X71161752Y-155790000D01*
X71078248Y-155790000D01*
X70953370Y-155777701D01*
X70793145Y-155729097D01*
X70645480Y-155650169D01*
X70516051Y-155543949D01*
X70409831Y-155414520D01*
X70330903Y-155266855D01*
X70282299Y-155106630D01*
X70265888Y-154940000D01*
X70282299Y-154773370D01*
X70330903Y-154613145D01*
X70409831Y-154465480D01*
X70516051Y-154336051D01*
X70645480Y-154229831D01*
X70793145Y-154150903D01*
X70953370Y-154102299D01*
X71078248Y-154090000D01*
X71161752Y-154090000D01*
X71286630Y-154102299D01*
X71286630Y-154102299D01*
G37*
G36*
X51650000Y-155790000D02*
X49950000Y-155790000D01*
X49950000Y-154090000D01*
X51650000Y-154090000D01*
X51650000Y-155790000D01*
X51650000Y-155790000D01*
G37*
G36*
X53506630Y-154102299D02*
X53666855Y-154150903D01*
X53814520Y-154229831D01*
X53943949Y-154336051D01*
X54050169Y-154465480D01*
X54129097Y-154613145D01*
X54177701Y-154773370D01*
X54194112Y-154940000D01*
X54177701Y-155106630D01*
X54129097Y-155266855D01*
X54050169Y-155414520D01*
X53943949Y-155543949D01*
X53814520Y-155650169D01*
X53666855Y-155729097D01*
X53506630Y-155777701D01*
X53381752Y-155790000D01*
X53298248Y-155790000D01*
X53173370Y-155777701D01*
X53013145Y-155729097D01*
X52865480Y-155650169D01*
X52736051Y-155543949D01*
X52629831Y-155414520D01*
X52550903Y-155266855D01*
X52502299Y-155106630D01*
X52485888Y-154940000D01*
X52502299Y-154773370D01*
X52550903Y-154613145D01*
X52629831Y-154465480D01*
X52736051Y-154336051D01*
X52865480Y-154229831D01*
X53013145Y-154150903D01*
X53173370Y-154102299D01*
X53298248Y-154090000D01*
X53381752Y-154090000D01*
X53506630Y-154102299D01*
X53506630Y-154102299D01*
G37*
G36*
X56046630Y-154102299D02*
X56206855Y-154150903D01*
X56354520Y-154229831D01*
X56483949Y-154336051D01*
X56590169Y-154465480D01*
X56669097Y-154613145D01*
X56717701Y-154773370D01*
X56734112Y-154940000D01*
X56717701Y-155106630D01*
X56669097Y-155266855D01*
X56590169Y-155414520D01*
X56483949Y-155543949D01*
X56354520Y-155650169D01*
X56206855Y-155729097D01*
X56046630Y-155777701D01*
X55921752Y-155790000D01*
X55838248Y-155790000D01*
X55713370Y-155777701D01*
X55553145Y-155729097D01*
X55405480Y-155650169D01*
X55276051Y-155543949D01*
X55169831Y-155414520D01*
X55090903Y-155266855D01*
X55042299Y-155106630D01*
X55025888Y-154940000D01*
X55042299Y-154773370D01*
X55090903Y-154613145D01*
X55169831Y-154465480D01*
X55276051Y-154336051D01*
X55405480Y-154229831D01*
X55553145Y-154150903D01*
X55713370Y-154102299D01*
X55838248Y-154090000D01*
X55921752Y-154090000D01*
X56046630Y-154102299D01*
X56046630Y-154102299D01*
G37*
G36*
X58586630Y-154102299D02*
X58746855Y-154150903D01*
X58894520Y-154229831D01*
X59023949Y-154336051D01*
X59130169Y-154465480D01*
X59209097Y-154613145D01*
X59257701Y-154773370D01*
X59274112Y-154940000D01*
X59257701Y-155106630D01*
X59209097Y-155266855D01*
X59130169Y-155414520D01*
X59023949Y-155543949D01*
X58894520Y-155650169D01*
X58746855Y-155729097D01*
X58586630Y-155777701D01*
X58461752Y-155790000D01*
X58378248Y-155790000D01*
X58253370Y-155777701D01*
X58093145Y-155729097D01*
X57945480Y-155650169D01*
X57816051Y-155543949D01*
X57709831Y-155414520D01*
X57630903Y-155266855D01*
X57582299Y-155106630D01*
X57565888Y-154940000D01*
X57582299Y-154773370D01*
X57630903Y-154613145D01*
X57709831Y-154465480D01*
X57816051Y-154336051D01*
X57945480Y-154229831D01*
X58093145Y-154150903D01*
X58253370Y-154102299D01*
X58378248Y-154090000D01*
X58461752Y-154090000D01*
X58586630Y-154102299D01*
X58586630Y-154102299D01*
G37*
G36*
X63666630Y-154102299D02*
X63826855Y-154150903D01*
X63974520Y-154229831D01*
X64103949Y-154336051D01*
X64210169Y-154465480D01*
X64289097Y-154613145D01*
X64337701Y-154773370D01*
X64354112Y-154940000D01*
X64337701Y-155106630D01*
X64289097Y-155266855D01*
X64210169Y-155414520D01*
X64103949Y-155543949D01*
X63974520Y-155650169D01*
X63826855Y-155729097D01*
X63666630Y-155777701D01*
X63541752Y-155790000D01*
X63458248Y-155790000D01*
X63333370Y-155777701D01*
X63173145Y-155729097D01*
X63025480Y-155650169D01*
X62896051Y-155543949D01*
X62789831Y-155414520D01*
X62710903Y-155266855D01*
X62662299Y-155106630D01*
X62645888Y-154940000D01*
X62662299Y-154773370D01*
X62710903Y-154613145D01*
X62789831Y-154465480D01*
X62896051Y-154336051D01*
X63025480Y-154229831D01*
X63173145Y-154150903D01*
X63333370Y-154102299D01*
X63458248Y-154090000D01*
X63541752Y-154090000D01*
X63666630Y-154102299D01*
X63666630Y-154102299D01*
G37*
G36*
X61126630Y-154102299D02*
X61286855Y-154150903D01*
X61434520Y-154229831D01*
X61563949Y-154336051D01*
X61670169Y-154465480D01*
X61749097Y-154613145D01*
X61797701Y-154773370D01*
X61814112Y-154940000D01*
X61797701Y-155106630D01*
X61749097Y-155266855D01*
X61670169Y-155414520D01*
X61563949Y-155543949D01*
X61434520Y-155650169D01*
X61286855Y-155729097D01*
X61126630Y-155777701D01*
X61001752Y-155790000D01*
X60918248Y-155790000D01*
X60793370Y-155777701D01*
X60633145Y-155729097D01*
X60485480Y-155650169D01*
X60356051Y-155543949D01*
X60249831Y-155414520D01*
X60170903Y-155266855D01*
X60122299Y-155106630D01*
X60105888Y-154940000D01*
X60122299Y-154773370D01*
X60170903Y-154613145D01*
X60249831Y-154465480D01*
X60356051Y-154336051D01*
X60485480Y-154229831D01*
X60633145Y-154150903D01*
X60793370Y-154102299D01*
X60918248Y-154090000D01*
X61001752Y-154090000D01*
X61126630Y-154102299D01*
X61126630Y-154102299D01*
G37*
G36*
X68746630Y-154102299D02*
X68906855Y-154150903D01*
X69054520Y-154229831D01*
X69183949Y-154336051D01*
X69290169Y-154465480D01*
X69369097Y-154613145D01*
X69417701Y-154773370D01*
X69434112Y-154940000D01*
X69417701Y-155106630D01*
X69369097Y-155266855D01*
X69290169Y-155414520D01*
X69183949Y-155543949D01*
X69054520Y-155650169D01*
X68906855Y-155729097D01*
X68746630Y-155777701D01*
X68621752Y-155790000D01*
X68538248Y-155790000D01*
X68413370Y-155777701D01*
X68253145Y-155729097D01*
X68105480Y-155650169D01*
X67976051Y-155543949D01*
X67869831Y-155414520D01*
X67790903Y-155266855D01*
X67742299Y-155106630D01*
X67725888Y-154940000D01*
X67742299Y-154773370D01*
X67790903Y-154613145D01*
X67869831Y-154465480D01*
X67976051Y-154336051D01*
X68105480Y-154229831D01*
X68253145Y-154150903D01*
X68413370Y-154102299D01*
X68538248Y-154090000D01*
X68621752Y-154090000D01*
X68746630Y-154102299D01*
X68746630Y-154102299D01*
G37*
G36*
X66206630Y-154102299D02*
X66366855Y-154150903D01*
X66514520Y-154229831D01*
X66643949Y-154336051D01*
X66750169Y-154465480D01*
X66829097Y-154613145D01*
X66877701Y-154773370D01*
X66894112Y-154940000D01*
X66877701Y-155106630D01*
X66829097Y-155266855D01*
X66750169Y-155414520D01*
X66643949Y-155543949D01*
X66514520Y-155650169D01*
X66366855Y-155729097D01*
X66206630Y-155777701D01*
X66081752Y-155790000D01*
X65998248Y-155790000D01*
X65873370Y-155777701D01*
X65713145Y-155729097D01*
X65565480Y-155650169D01*
X65436051Y-155543949D01*
X65329831Y-155414520D01*
X65250903Y-155266855D01*
X65202299Y-155106630D01*
X65185888Y-154940000D01*
X65202299Y-154773370D01*
X65250903Y-154613145D01*
X65329831Y-154465480D01*
X65436051Y-154336051D01*
X65565480Y-154229831D01*
X65713145Y-154150903D01*
X65873370Y-154102299D01*
X65998248Y-154090000D01*
X66081752Y-154090000D01*
X66206630Y-154102299D01*
X66206630Y-154102299D01*
G37*
G36*
X56046630Y-151562299D02*
X56206855Y-151610903D01*
X56354520Y-151689831D01*
X56483949Y-151796051D01*
X56590169Y-151925480D01*
X56669097Y-152073145D01*
X56717701Y-152233370D01*
X56734112Y-152400000D01*
X56717701Y-152566630D01*
X56669097Y-152726855D01*
X56590169Y-152874520D01*
X56483949Y-153003949D01*
X56354520Y-153110169D01*
X56206855Y-153189097D01*
X56046630Y-153237701D01*
X55921752Y-153250000D01*
X55838248Y-153250000D01*
X55713370Y-153237701D01*
X55553145Y-153189097D01*
X55405480Y-153110169D01*
X55276051Y-153003949D01*
X55169831Y-152874520D01*
X55090903Y-152726855D01*
X55042299Y-152566630D01*
X55025888Y-152400000D01*
X55042299Y-152233370D01*
X55090903Y-152073145D01*
X55169831Y-151925480D01*
X55276051Y-151796051D01*
X55405480Y-151689831D01*
X55553145Y-151610903D01*
X55713370Y-151562299D01*
X55838248Y-151550000D01*
X55921752Y-151550000D01*
X56046630Y-151562299D01*
X56046630Y-151562299D01*
G37*
G36*
X66206630Y-151562299D02*
X66366855Y-151610903D01*
X66514520Y-151689831D01*
X66643949Y-151796051D01*
X66750169Y-151925480D01*
X66829097Y-152073145D01*
X66877701Y-152233370D01*
X66894112Y-152400000D01*
X66877701Y-152566630D01*
X66829097Y-152726855D01*
X66750169Y-152874520D01*
X66643949Y-153003949D01*
X66514520Y-153110169D01*
X66366855Y-153189097D01*
X66206630Y-153237701D01*
X66081752Y-153250000D01*
X65998248Y-153250000D01*
X65873370Y-153237701D01*
X65713145Y-153189097D01*
X65565480Y-153110169D01*
X65436051Y-153003949D01*
X65329831Y-152874520D01*
X65250903Y-152726855D01*
X65202299Y-152566630D01*
X65185888Y-152400000D01*
X65202299Y-152233370D01*
X65250903Y-152073145D01*
X65329831Y-151925480D01*
X65436051Y-151796051D01*
X65565480Y-151689831D01*
X65713145Y-151610903D01*
X65873370Y-151562299D01*
X65998248Y-151550000D01*
X66081752Y-151550000D01*
X66206630Y-151562299D01*
X66206630Y-151562299D01*
G37*
G36*
X58586630Y-151562299D02*
X58746855Y-151610903D01*
X58894520Y-151689831D01*
X59023949Y-151796051D01*
X59130169Y-151925480D01*
X59209097Y-152073145D01*
X59257701Y-152233370D01*
X59274112Y-152400000D01*
X59257701Y-152566630D01*
X59209097Y-152726855D01*
X59130169Y-152874520D01*
X59023949Y-153003949D01*
X58894520Y-153110169D01*
X58746855Y-153189097D01*
X58586630Y-153237701D01*
X58461752Y-153250000D01*
X58378248Y-153250000D01*
X58253370Y-153237701D01*
X58093145Y-153189097D01*
X57945480Y-153110169D01*
X57816051Y-153003949D01*
X57709831Y-152874520D01*
X57630903Y-152726855D01*
X57582299Y-152566630D01*
X57565888Y-152400000D01*
X57582299Y-152233370D01*
X57630903Y-152073145D01*
X57709831Y-151925480D01*
X57816051Y-151796051D01*
X57945480Y-151689831D01*
X58093145Y-151610903D01*
X58253370Y-151562299D01*
X58378248Y-151550000D01*
X58461752Y-151550000D01*
X58586630Y-151562299D01*
X58586630Y-151562299D01*
G37*
G36*
X53506630Y-151562299D02*
X53666855Y-151610903D01*
X53814520Y-151689831D01*
X53943949Y-151796051D01*
X54050169Y-151925480D01*
X54129097Y-152073145D01*
X54177701Y-152233370D01*
X54194112Y-152400000D01*
X54177701Y-152566630D01*
X54129097Y-152726855D01*
X54050169Y-152874520D01*
X53943949Y-153003949D01*
X53814520Y-153110169D01*
X53666855Y-153189097D01*
X53506630Y-153237701D01*
X53381752Y-153250000D01*
X53298248Y-153250000D01*
X53173370Y-153237701D01*
X53013145Y-153189097D01*
X52865480Y-153110169D01*
X52736051Y-153003949D01*
X52629831Y-152874520D01*
X52550903Y-152726855D01*
X52502299Y-152566630D01*
X52485888Y-152400000D01*
X52502299Y-152233370D01*
X52550903Y-152073145D01*
X52629831Y-151925480D01*
X52736051Y-151796051D01*
X52865480Y-151689831D01*
X53013145Y-151610903D01*
X53173370Y-151562299D01*
X53298248Y-151550000D01*
X53381752Y-151550000D01*
X53506630Y-151562299D01*
X53506630Y-151562299D01*
G37*
G36*
X73826630Y-151562299D02*
X73986855Y-151610903D01*
X74134520Y-151689831D01*
X74263949Y-151796051D01*
X74370169Y-151925480D01*
X74449097Y-152073145D01*
X74497701Y-152233370D01*
X74514112Y-152400000D01*
X74497701Y-152566630D01*
X74449097Y-152726855D01*
X74370169Y-152874520D01*
X74263949Y-153003949D01*
X74134520Y-153110169D01*
X73986855Y-153189097D01*
X73826630Y-153237701D01*
X73701752Y-153250000D01*
X73618248Y-153250000D01*
X73493370Y-153237701D01*
X73333145Y-153189097D01*
X73185480Y-153110169D01*
X73056051Y-153003949D01*
X72949831Y-152874520D01*
X72870903Y-152726855D01*
X72822299Y-152566630D01*
X72805888Y-152400000D01*
X72822299Y-152233370D01*
X72870903Y-152073145D01*
X72949831Y-151925480D01*
X73056051Y-151796051D01*
X73185480Y-151689831D01*
X73333145Y-151610903D01*
X73493370Y-151562299D01*
X73618248Y-151550000D01*
X73701752Y-151550000D01*
X73826630Y-151562299D01*
X73826630Y-151562299D01*
G37*
G36*
X50966630Y-151562299D02*
X51126855Y-151610903D01*
X51274520Y-151689831D01*
X51403949Y-151796051D01*
X51510169Y-151925480D01*
X51589097Y-152073145D01*
X51637701Y-152233370D01*
X51654112Y-152400000D01*
X51637701Y-152566630D01*
X51589097Y-152726855D01*
X51510169Y-152874520D01*
X51403949Y-153003949D01*
X51274520Y-153110169D01*
X51126855Y-153189097D01*
X50966630Y-153237701D01*
X50841752Y-153250000D01*
X50758248Y-153250000D01*
X50633370Y-153237701D01*
X50473145Y-153189097D01*
X50325480Y-153110169D01*
X50196051Y-153003949D01*
X50089831Y-152874520D01*
X50010903Y-152726855D01*
X49962299Y-152566630D01*
X49945888Y-152400000D01*
X49962299Y-152233370D01*
X50010903Y-152073145D01*
X50089831Y-151925480D01*
X50196051Y-151796051D01*
X50325480Y-151689831D01*
X50473145Y-151610903D01*
X50633370Y-151562299D01*
X50758248Y-151550000D01*
X50841752Y-151550000D01*
X50966630Y-151562299D01*
X50966630Y-151562299D01*
G37*
G36*
X61126630Y-151562299D02*
X61286855Y-151610903D01*
X61434520Y-151689831D01*
X61563949Y-151796051D01*
X61670169Y-151925480D01*
X61749097Y-152073145D01*
X61797701Y-152233370D01*
X61814112Y-152400000D01*
X61797701Y-152566630D01*
X61749097Y-152726855D01*
X61670169Y-152874520D01*
X61563949Y-153003949D01*
X61434520Y-153110169D01*
X61286855Y-153189097D01*
X61126630Y-153237701D01*
X61001752Y-153250000D01*
X60918248Y-153250000D01*
X60793370Y-153237701D01*
X60633145Y-153189097D01*
X60485480Y-153110169D01*
X60356051Y-153003949D01*
X60249831Y-152874520D01*
X60170903Y-152726855D01*
X60122299Y-152566630D01*
X60105888Y-152400000D01*
X60122299Y-152233370D01*
X60170903Y-152073145D01*
X60249831Y-151925480D01*
X60356051Y-151796051D01*
X60485480Y-151689831D01*
X60633145Y-151610903D01*
X60793370Y-151562299D01*
X60918248Y-151550000D01*
X61001752Y-151550000D01*
X61126630Y-151562299D01*
X61126630Y-151562299D01*
G37*
G36*
X71286630Y-151562299D02*
X71446855Y-151610903D01*
X71594520Y-151689831D01*
X71723949Y-151796051D01*
X71830169Y-151925480D01*
X71909097Y-152073145D01*
X71957701Y-152233370D01*
X71974112Y-152400000D01*
X71957701Y-152566630D01*
X71909097Y-152726855D01*
X71830169Y-152874520D01*
X71723949Y-153003949D01*
X71594520Y-153110169D01*
X71446855Y-153189097D01*
X71286630Y-153237701D01*
X71161752Y-153250000D01*
X71078248Y-153250000D01*
X70953370Y-153237701D01*
X70793145Y-153189097D01*
X70645480Y-153110169D01*
X70516051Y-153003949D01*
X70409831Y-152874520D01*
X70330903Y-152726855D01*
X70282299Y-152566630D01*
X70265888Y-152400000D01*
X70282299Y-152233370D01*
X70330903Y-152073145D01*
X70409831Y-151925480D01*
X70516051Y-151796051D01*
X70645480Y-151689831D01*
X70793145Y-151610903D01*
X70953370Y-151562299D01*
X71078248Y-151550000D01*
X71161752Y-151550000D01*
X71286630Y-151562299D01*
X71286630Y-151562299D01*
G37*
G36*
X68746630Y-151562299D02*
X68906855Y-151610903D01*
X69054520Y-151689831D01*
X69183949Y-151796051D01*
X69290169Y-151925480D01*
X69369097Y-152073145D01*
X69417701Y-152233370D01*
X69434112Y-152400000D01*
X69417701Y-152566630D01*
X69369097Y-152726855D01*
X69290169Y-152874520D01*
X69183949Y-153003949D01*
X69054520Y-153110169D01*
X68906855Y-153189097D01*
X68746630Y-153237701D01*
X68621752Y-153250000D01*
X68538248Y-153250000D01*
X68413370Y-153237701D01*
X68253145Y-153189097D01*
X68105480Y-153110169D01*
X67976051Y-153003949D01*
X67869831Y-152874520D01*
X67790903Y-152726855D01*
X67742299Y-152566630D01*
X67725888Y-152400000D01*
X67742299Y-152233370D01*
X67790903Y-152073145D01*
X67869831Y-151925480D01*
X67976051Y-151796051D01*
X68105480Y-151689831D01*
X68253145Y-151610903D01*
X68413370Y-151562299D01*
X68538248Y-151550000D01*
X68621752Y-151550000D01*
X68746630Y-151562299D01*
X68746630Y-151562299D01*
G37*
G36*
X63666630Y-151562299D02*
X63826855Y-151610903D01*
X63974520Y-151689831D01*
X64103949Y-151796051D01*
X64210169Y-151925480D01*
X64289097Y-152073145D01*
X64337701Y-152233370D01*
X64354112Y-152400000D01*
X64337701Y-152566630D01*
X64289097Y-152726855D01*
X64210169Y-152874520D01*
X64103949Y-153003949D01*
X63974520Y-153110169D01*
X63826855Y-153189097D01*
X63666630Y-153237701D01*
X63541752Y-153250000D01*
X63458248Y-153250000D01*
X63333370Y-153237701D01*
X63173145Y-153189097D01*
X63025480Y-153110169D01*
X62896051Y-153003949D01*
X62789831Y-152874520D01*
X62710903Y-152726855D01*
X62662299Y-152566630D01*
X62645888Y-152400000D01*
X62662299Y-152233370D01*
X62710903Y-152073145D01*
X62789831Y-151925480D01*
X62896051Y-151796051D01*
X63025480Y-151689831D01*
X63173145Y-151610903D01*
X63333370Y-151562299D01*
X63458248Y-151550000D01*
X63541752Y-151550000D01*
X63666630Y-151562299D01*
X63666630Y-151562299D01*
G37*
G36*
X60405012Y-127373057D02*
X60514207Y-127418287D01*
X60612481Y-127483952D01*
X60696048Y-127567519D01*
X60761713Y-127665793D01*
X60806943Y-127774988D01*
X60830000Y-127890904D01*
X60830000Y-128009096D01*
X60806943Y-128125012D01*
X60761713Y-128234207D01*
X60696048Y-128332481D01*
X60612481Y-128416048D01*
X60514207Y-128481713D01*
X60405012Y-128526943D01*
X60289096Y-128550000D01*
X60170904Y-128550000D01*
X60054988Y-128526943D01*
X59945793Y-128481713D01*
X59847519Y-128416048D01*
X59763952Y-128332481D01*
X59698287Y-128234207D01*
X59653057Y-128125012D01*
X59630000Y-128009096D01*
X59630000Y-127890904D01*
X59653057Y-127774988D01*
X59698287Y-127665793D01*
X59763952Y-127567519D01*
X59847519Y-127483952D01*
X59945793Y-127418287D01*
X60054988Y-127373057D01*
X60170904Y-127350000D01*
X60289096Y-127350000D01*
X60405012Y-127373057D01*
X60405012Y-127373057D01*
G37*
G36*
X67905012Y-127373057D02*
X68014207Y-127418287D01*
X68112481Y-127483952D01*
X68196048Y-127567519D01*
X68261713Y-127665793D01*
X68306943Y-127774988D01*
X68330000Y-127890904D01*
X68330000Y-128009096D01*
X68306943Y-128125012D01*
X68261713Y-128234207D01*
X68196048Y-128332481D01*
X68112481Y-128416048D01*
X68014207Y-128481713D01*
X67905012Y-128526943D01*
X67789096Y-128550000D01*
X67670904Y-128550000D01*
X67554988Y-128526943D01*
X67445793Y-128481713D01*
X67347519Y-128416048D01*
X67263952Y-128332481D01*
X67198287Y-128234207D01*
X67153057Y-128125012D01*
X67130000Y-128009096D01*
X67130000Y-127890904D01*
X67153057Y-127774988D01*
X67198287Y-127665793D01*
X67263952Y-127567519D01*
X67347519Y-127483952D01*
X67445793Y-127418287D01*
X67554988Y-127373057D01*
X67670904Y-127350000D01*
X67789096Y-127350000D01*
X67905012Y-127373057D01*
X67905012Y-127373057D01*
G37*
G36*
X66405012Y-127373057D02*
X66514207Y-127418287D01*
X66612481Y-127483952D01*
X66696048Y-127567519D01*
X66761713Y-127665793D01*
X66806943Y-127774988D01*
X66830000Y-127890904D01*
X66830000Y-128009096D01*
X66806943Y-128125012D01*
X66761713Y-128234207D01*
X66696048Y-128332481D01*
X66612481Y-128416048D01*
X66514207Y-128481713D01*
X66405012Y-128526943D01*
X66289096Y-128550000D01*
X66170904Y-128550000D01*
X66054988Y-128526943D01*
X65945793Y-128481713D01*
X65847519Y-128416048D01*
X65763952Y-128332481D01*
X65698287Y-128234207D01*
X65653057Y-128125012D01*
X65630000Y-128009096D01*
X65630000Y-127890904D01*
X65653057Y-127774988D01*
X65698287Y-127665793D01*
X65763952Y-127567519D01*
X65847519Y-127483952D01*
X65945793Y-127418287D01*
X66054988Y-127373057D01*
X66170904Y-127350000D01*
X66289096Y-127350000D01*
X66405012Y-127373057D01*
X66405012Y-127373057D01*
G37*
G36*
X64905012Y-127373057D02*
X65014207Y-127418287D01*
X65112481Y-127483952D01*
X65196048Y-127567519D01*
X65261713Y-127665793D01*
X65306943Y-127774988D01*
X65330000Y-127890904D01*
X65330000Y-128009096D01*
X65306943Y-128125012D01*
X65261713Y-128234207D01*
X65196048Y-128332481D01*
X65112481Y-128416048D01*
X65014207Y-128481713D01*
X64905012Y-128526943D01*
X64789096Y-128550000D01*
X64670904Y-128550000D01*
X64554988Y-128526943D01*
X64445793Y-128481713D01*
X64347519Y-128416048D01*
X64263952Y-128332481D01*
X64198287Y-128234207D01*
X64153057Y-128125012D01*
X64130000Y-128009096D01*
X64130000Y-127890904D01*
X64153057Y-127774988D01*
X64198287Y-127665793D01*
X64263952Y-127567519D01*
X64347519Y-127483952D01*
X64445793Y-127418287D01*
X64554988Y-127373057D01*
X64670904Y-127350000D01*
X64789096Y-127350000D01*
X64905012Y-127373057D01*
X64905012Y-127373057D01*
G37*
G36*
X63405012Y-127373057D02*
X63514207Y-127418287D01*
X63612481Y-127483952D01*
X63696048Y-127567519D01*
X63761713Y-127665793D01*
X63806943Y-127774988D01*
X63830000Y-127890904D01*
X63830000Y-128009096D01*
X63806943Y-128125012D01*
X63761713Y-128234207D01*
X63696048Y-128332481D01*
X63612481Y-128416048D01*
X63514207Y-128481713D01*
X63405012Y-128526943D01*
X63289096Y-128550000D01*
X63170904Y-128550000D01*
X63054988Y-128526943D01*
X62945793Y-128481713D01*
X62847519Y-128416048D01*
X62763952Y-128332481D01*
X62698287Y-128234207D01*
X62653057Y-128125012D01*
X62630000Y-128009096D01*
X62630000Y-127890904D01*
X62653057Y-127774988D01*
X62698287Y-127665793D01*
X62763952Y-127567519D01*
X62847519Y-127483952D01*
X62945793Y-127418287D01*
X63054988Y-127373057D01*
X63170904Y-127350000D01*
X63289096Y-127350000D01*
X63405012Y-127373057D01*
X63405012Y-127373057D01*
G37*
G36*
X57405012Y-127373057D02*
X57514207Y-127418287D01*
X57612481Y-127483952D01*
X57696048Y-127567519D01*
X57761713Y-127665793D01*
X57806943Y-127774988D01*
X57830000Y-127890904D01*
X57830000Y-128009096D01*
X57806943Y-128125012D01*
X57761713Y-128234207D01*
X57696048Y-128332481D01*
X57612481Y-128416048D01*
X57514207Y-128481713D01*
X57405012Y-128526943D01*
X57289096Y-128550000D01*
X57170904Y-128550000D01*
X57054988Y-128526943D01*
X56945793Y-128481713D01*
X56847519Y-128416048D01*
X56763952Y-128332481D01*
X56698287Y-128234207D01*
X56653057Y-128125012D01*
X56630000Y-128009096D01*
X56630000Y-127890904D01*
X56653057Y-127774988D01*
X56698287Y-127665793D01*
X56763952Y-127567519D01*
X56847519Y-127483952D01*
X56945793Y-127418287D01*
X57054988Y-127373057D01*
X57170904Y-127350000D01*
X57289096Y-127350000D01*
X57405012Y-127373057D01*
X57405012Y-127373057D01*
G37*
G36*
X58905012Y-127373057D02*
X59014207Y-127418287D01*
X59112481Y-127483952D01*
X59196048Y-127567519D01*
X59261713Y-127665793D01*
X59306943Y-127774988D01*
X59330000Y-127890904D01*
X59330000Y-128009096D01*
X59306943Y-128125012D01*
X59261713Y-128234207D01*
X59196048Y-128332481D01*
X59112481Y-128416048D01*
X59014207Y-128481713D01*
X58905012Y-128526943D01*
X58789096Y-128550000D01*
X58670904Y-128550000D01*
X58554988Y-128526943D01*
X58445793Y-128481713D01*
X58347519Y-128416048D01*
X58263952Y-128332481D01*
X58198287Y-128234207D01*
X58153057Y-128125012D01*
X58130000Y-128009096D01*
X58130000Y-127890904D01*
X58153057Y-127774988D01*
X58198287Y-127665793D01*
X58263952Y-127567519D01*
X58347519Y-127483952D01*
X58445793Y-127418287D01*
X58554988Y-127373057D01*
X58670904Y-127350000D01*
X58789096Y-127350000D01*
X58905012Y-127373057D01*
X58905012Y-127373057D01*
G37*
G36*
X61905012Y-127373057D02*
X62014207Y-127418287D01*
X62112481Y-127483952D01*
X62196048Y-127567519D01*
X62261713Y-127665793D01*
X62306943Y-127774988D01*
X62330000Y-127890904D01*
X62330000Y-128009096D01*
X62306943Y-128125012D01*
X62261713Y-128234207D01*
X62196048Y-128332481D01*
X62112481Y-128416048D01*
X62014207Y-128481713D01*
X61905012Y-128526943D01*
X61789096Y-128550000D01*
X61670904Y-128550000D01*
X61554988Y-128526943D01*
X61445793Y-128481713D01*
X61347519Y-128416048D01*
X61263952Y-128332481D01*
X61198287Y-128234207D01*
X61153057Y-128125012D01*
X61130000Y-128009096D01*
X61130000Y-127890904D01*
X61153057Y-127774988D01*
X61198287Y-127665793D01*
X61263952Y-127567519D01*
X61347519Y-127483952D01*
X61445793Y-127418287D01*
X61554988Y-127373057D01*
X61670904Y-127350000D01*
X61789096Y-127350000D01*
X61905012Y-127373057D01*
X61905012Y-127373057D01*
G37*
G36*
X59405012Y-125373057D02*
X59514207Y-125418287D01*
X59612481Y-125483952D01*
X59696048Y-125567519D01*
X59761713Y-125665793D01*
X59806943Y-125774988D01*
X59830000Y-125890904D01*
X59830000Y-126009096D01*
X59806943Y-126125012D01*
X59761713Y-126234207D01*
X59696048Y-126332481D01*
X59612481Y-126416048D01*
X59514207Y-126481713D01*
X59405012Y-126526943D01*
X59289096Y-126550000D01*
X59170904Y-126550000D01*
X59054988Y-126526943D01*
X58945793Y-126481713D01*
X58847519Y-126416048D01*
X58763952Y-126332481D01*
X58698287Y-126234207D01*
X58653057Y-126125012D01*
X58630000Y-126009096D01*
X58630000Y-125890904D01*
X58653057Y-125774988D01*
X58698287Y-125665793D01*
X58763952Y-125567519D01*
X58847519Y-125483952D01*
X58945793Y-125418287D01*
X59054988Y-125373057D01*
X59170904Y-125350000D01*
X59289096Y-125350000D01*
X59405012Y-125373057D01*
X59405012Y-125373057D01*
G37*
G36*
X56405012Y-125373057D02*
X56514207Y-125418287D01*
X56612481Y-125483952D01*
X56696048Y-125567519D01*
X56761713Y-125665793D01*
X56806943Y-125774988D01*
X56830000Y-125890904D01*
X56830000Y-126009096D01*
X56806943Y-126125012D01*
X56761713Y-126234207D01*
X56696048Y-126332481D01*
X56612481Y-126416048D01*
X56514207Y-126481713D01*
X56405012Y-126526943D01*
X56289096Y-126550000D01*
X56170904Y-126550000D01*
X56054988Y-126526943D01*
X55945793Y-126481713D01*
X55847519Y-126416048D01*
X55763952Y-126332481D01*
X55698287Y-126234207D01*
X55653057Y-126125012D01*
X55630000Y-126009096D01*
X55630000Y-125890904D01*
X55653057Y-125774988D01*
X55698287Y-125665793D01*
X55763952Y-125567519D01*
X55847519Y-125483952D01*
X55945793Y-125418287D01*
X56054988Y-125373057D01*
X56170904Y-125350000D01*
X56289096Y-125350000D01*
X56405012Y-125373057D01*
X56405012Y-125373057D01*
G37*
G36*
X62405012Y-125373057D02*
X62514207Y-125418287D01*
X62612481Y-125483952D01*
X62696048Y-125567519D01*
X62761713Y-125665793D01*
X62806943Y-125774988D01*
X62830000Y-125890904D01*
X62830000Y-126009096D01*
X62806943Y-126125012D01*
X62761713Y-126234207D01*
X62696048Y-126332481D01*
X62612481Y-126416048D01*
X62514207Y-126481713D01*
X62405012Y-126526943D01*
X62289096Y-126550000D01*
X62170904Y-126550000D01*
X62054988Y-126526943D01*
X61945793Y-126481713D01*
X61847519Y-126416048D01*
X61763952Y-126332481D01*
X61698287Y-126234207D01*
X61653057Y-126125012D01*
X61630000Y-126009096D01*
X61630000Y-125890904D01*
X61653057Y-125774988D01*
X61698287Y-125665793D01*
X61763952Y-125567519D01*
X61847519Y-125483952D01*
X61945793Y-125418287D01*
X62054988Y-125373057D01*
X62170904Y-125350000D01*
X62289096Y-125350000D01*
X62405012Y-125373057D01*
X62405012Y-125373057D01*
G37*
G36*
X68405012Y-125373057D02*
X68514207Y-125418287D01*
X68612481Y-125483952D01*
X68696048Y-125567519D01*
X68761713Y-125665793D01*
X68806943Y-125774988D01*
X68830000Y-125890904D01*
X68830000Y-126009096D01*
X68806943Y-126125012D01*
X68761713Y-126234207D01*
X68696048Y-126332481D01*
X68612481Y-126416048D01*
X68514207Y-126481713D01*
X68405012Y-126526943D01*
X68289096Y-126550000D01*
X68170904Y-126550000D01*
X68054988Y-126526943D01*
X67945793Y-126481713D01*
X67847519Y-126416048D01*
X67763952Y-126332481D01*
X67698287Y-126234207D01*
X67653057Y-126125012D01*
X67630000Y-126009096D01*
X67630000Y-125890904D01*
X67653057Y-125774988D01*
X67698287Y-125665793D01*
X67763952Y-125567519D01*
X67847519Y-125483952D01*
X67945793Y-125418287D01*
X68054988Y-125373057D01*
X68170904Y-125350000D01*
X68289096Y-125350000D01*
X68405012Y-125373057D01*
X68405012Y-125373057D01*
G37*
G36*
X60905012Y-125373057D02*
X61014207Y-125418287D01*
X61112481Y-125483952D01*
X61196048Y-125567519D01*
X61261713Y-125665793D01*
X61306943Y-125774988D01*
X61330000Y-125890904D01*
X61330000Y-126009096D01*
X61306943Y-126125012D01*
X61261713Y-126234207D01*
X61196048Y-126332481D01*
X61112481Y-126416048D01*
X61014207Y-126481713D01*
X60905012Y-126526943D01*
X60789096Y-126550000D01*
X60670904Y-126550000D01*
X60554988Y-126526943D01*
X60445793Y-126481713D01*
X60347519Y-126416048D01*
X60263952Y-126332481D01*
X60198287Y-126234207D01*
X60153057Y-126125012D01*
X60130000Y-126009096D01*
X60130000Y-125890904D01*
X60153057Y-125774988D01*
X60198287Y-125665793D01*
X60263952Y-125567519D01*
X60347519Y-125483952D01*
X60445793Y-125418287D01*
X60554988Y-125373057D01*
X60670904Y-125350000D01*
X60789096Y-125350000D01*
X60905012Y-125373057D01*
X60905012Y-125373057D01*
G37*
G36*
X65405012Y-125373057D02*
X65514207Y-125418287D01*
X65612481Y-125483952D01*
X65696048Y-125567519D01*
X65761713Y-125665793D01*
X65806943Y-125774988D01*
X65830000Y-125890904D01*
X65830000Y-126009096D01*
X65806943Y-126125012D01*
X65761713Y-126234207D01*
X65696048Y-126332481D01*
X65612481Y-126416048D01*
X65514207Y-126481713D01*
X65405012Y-126526943D01*
X65289096Y-126550000D01*
X65170904Y-126550000D01*
X65054988Y-126526943D01*
X64945793Y-126481713D01*
X64847519Y-126416048D01*
X64763952Y-126332481D01*
X64698287Y-126234207D01*
X64653057Y-126125012D01*
X64630000Y-126009096D01*
X64630000Y-125890904D01*
X64653057Y-125774988D01*
X64698287Y-125665793D01*
X64763952Y-125567519D01*
X64847519Y-125483952D01*
X64945793Y-125418287D01*
X65054988Y-125373057D01*
X65170904Y-125350000D01*
X65289096Y-125350000D01*
X65405012Y-125373057D01*
X65405012Y-125373057D01*
G37*
G36*
X63905012Y-125373057D02*
X64014207Y-125418287D01*
X64112481Y-125483952D01*
X64196048Y-125567519D01*
X64261713Y-125665793D01*
X64306943Y-125774988D01*
X64330000Y-125890904D01*
X64330000Y-126009096D01*
X64306943Y-126125012D01*
X64261713Y-126234207D01*
X64196048Y-126332481D01*
X64112481Y-126416048D01*
X64014207Y-126481713D01*
X63905012Y-126526943D01*
X63789096Y-126550000D01*
X63670904Y-126550000D01*
X63554988Y-126526943D01*
X63445793Y-126481713D01*
X63347519Y-126416048D01*
X63263952Y-126332481D01*
X63198287Y-126234207D01*
X63153057Y-126125012D01*
X63130000Y-126009096D01*
X63130000Y-125890904D01*
X63153057Y-125774988D01*
X63198287Y-125665793D01*
X63263952Y-125567519D01*
X63347519Y-125483952D01*
X63445793Y-125418287D01*
X63554988Y-125373057D01*
X63670904Y-125350000D01*
X63789096Y-125350000D01*
X63905012Y-125373057D01*
X63905012Y-125373057D01*
G37*
G36*
X57905012Y-125373057D02*
X58014207Y-125418287D01*
X58112481Y-125483952D01*
X58196048Y-125567519D01*
X58261713Y-125665793D01*
X58306943Y-125774988D01*
X58330000Y-125890904D01*
X58330000Y-126009096D01*
X58306943Y-126125012D01*
X58261713Y-126234207D01*
X58196048Y-126332481D01*
X58112481Y-126416048D01*
X58014207Y-126481713D01*
X57905012Y-126526943D01*
X57789096Y-126550000D01*
X57670904Y-126550000D01*
X57554988Y-126526943D01*
X57445793Y-126481713D01*
X57347519Y-126416048D01*
X57263952Y-126332481D01*
X57198287Y-126234207D01*
X57153057Y-126125012D01*
X57130000Y-126009096D01*
X57130000Y-125890904D01*
X57153057Y-125774988D01*
X57198287Y-125665793D01*
X57263952Y-125567519D01*
X57347519Y-125483952D01*
X57445793Y-125418287D01*
X57554988Y-125373057D01*
X57670904Y-125350000D01*
X57789096Y-125350000D01*
X57905012Y-125373057D01*
X57905012Y-125373057D01*
G37*
G36*
X66905012Y-125373057D02*
X67014207Y-125418287D01*
X67112481Y-125483952D01*
X67196048Y-125567519D01*
X67261713Y-125665793D01*
X67306943Y-125774988D01*
X67330000Y-125890904D01*
X67330000Y-126009096D01*
X67306943Y-126125012D01*
X67261713Y-126234207D01*
X67196048Y-126332481D01*
X67112481Y-126416048D01*
X67014207Y-126481713D01*
X66905012Y-126526943D01*
X66789096Y-126550000D01*
X66670904Y-126550000D01*
X66554988Y-126526943D01*
X66445793Y-126481713D01*
X66347519Y-126416048D01*
X66263952Y-126332481D01*
X66198287Y-126234207D01*
X66153057Y-126125012D01*
X66130000Y-126009096D01*
X66130000Y-125890904D01*
X66153057Y-125774988D01*
X66198287Y-125665793D01*
X66263952Y-125567519D01*
X66347519Y-125483952D01*
X66445793Y-125418287D01*
X66554988Y-125373057D01*
X66670904Y-125350000D01*
X66789096Y-125350000D01*
X66905012Y-125373057D01*
X66905012Y-125373057D01*
G37*
G36*
X67405012Y-123373057D02*
X67514207Y-123418287D01*
X67612481Y-123483952D01*
X67696048Y-123567519D01*
X67761713Y-123665793D01*
X67806943Y-123774988D01*
X67830000Y-123890904D01*
X67830000Y-124009096D01*
X67806943Y-124125012D01*
X67761713Y-124234207D01*
X67696048Y-124332481D01*
X67612481Y-124416048D01*
X67514207Y-124481713D01*
X67405012Y-124526943D01*
X67289096Y-124550000D01*
X67170904Y-124550000D01*
X67054988Y-124526943D01*
X66945793Y-124481713D01*
X66847519Y-124416048D01*
X66763952Y-124332481D01*
X66698287Y-124234207D01*
X66653057Y-124125012D01*
X66630000Y-124009096D01*
X66630000Y-123890904D01*
X66653057Y-123774988D01*
X66698287Y-123665793D01*
X66763952Y-123567519D01*
X66847519Y-123483952D01*
X66945793Y-123418287D01*
X67054988Y-123373057D01*
X67170904Y-123350000D01*
X67289096Y-123350000D01*
X67405012Y-123373057D01*
X67405012Y-123373057D01*
G37*
G36*
X56905012Y-123373057D02*
X57014207Y-123418287D01*
X57112481Y-123483952D01*
X57196048Y-123567519D01*
X57261713Y-123665793D01*
X57306943Y-123774988D01*
X57330000Y-123890904D01*
X57330000Y-124009096D01*
X57306943Y-124125012D01*
X57261713Y-124234207D01*
X57196048Y-124332481D01*
X57112481Y-124416048D01*
X57014207Y-124481713D01*
X56905012Y-124526943D01*
X56789096Y-124550000D01*
X56670904Y-124550000D01*
X56554988Y-124526943D01*
X56445793Y-124481713D01*
X56347519Y-124416048D01*
X56263952Y-124332481D01*
X56198287Y-124234207D01*
X56153057Y-124125012D01*
X56130000Y-124009096D01*
X56130000Y-123890904D01*
X56153057Y-123774988D01*
X56198287Y-123665793D01*
X56263952Y-123567519D01*
X56347519Y-123483952D01*
X56445793Y-123418287D01*
X56554988Y-123373057D01*
X56670904Y-123350000D01*
X56789096Y-123350000D01*
X56905012Y-123373057D01*
X56905012Y-123373057D01*
G37*
G36*
X64405012Y-123373057D02*
X64514207Y-123418287D01*
X64612481Y-123483952D01*
X64696048Y-123567519D01*
X64761713Y-123665793D01*
X64806943Y-123774988D01*
X64830000Y-123890904D01*
X64830000Y-124009096D01*
X64806943Y-124125012D01*
X64761713Y-124234207D01*
X64696048Y-124332481D01*
X64612481Y-124416048D01*
X64514207Y-124481713D01*
X64405012Y-124526943D01*
X64289096Y-124550000D01*
X64170904Y-124550000D01*
X64054988Y-124526943D01*
X63945793Y-124481713D01*
X63847519Y-124416048D01*
X63763952Y-124332481D01*
X63698287Y-124234207D01*
X63653057Y-124125012D01*
X63630000Y-124009096D01*
X63630000Y-123890904D01*
X63653057Y-123774988D01*
X63698287Y-123665793D01*
X63763952Y-123567519D01*
X63847519Y-123483952D01*
X63945793Y-123418287D01*
X64054988Y-123373057D01*
X64170904Y-123350000D01*
X64289096Y-123350000D01*
X64405012Y-123373057D01*
X64405012Y-123373057D01*
G37*
G36*
X61405012Y-123373057D02*
X61514207Y-123418287D01*
X61612481Y-123483952D01*
X61696048Y-123567519D01*
X61761713Y-123665793D01*
X61806943Y-123774988D01*
X61830000Y-123890904D01*
X61830000Y-124009096D01*
X61806943Y-124125012D01*
X61761713Y-124234207D01*
X61696048Y-124332481D01*
X61612481Y-124416048D01*
X61514207Y-124481713D01*
X61405012Y-124526943D01*
X61289096Y-124550000D01*
X61170904Y-124550000D01*
X61054988Y-124526943D01*
X60945793Y-124481713D01*
X60847519Y-124416048D01*
X60763952Y-124332481D01*
X60698287Y-124234207D01*
X60653057Y-124125012D01*
X60630000Y-124009096D01*
X60630000Y-123890904D01*
X60653057Y-123774988D01*
X60698287Y-123665793D01*
X60763952Y-123567519D01*
X60847519Y-123483952D01*
X60945793Y-123418287D01*
X61054988Y-123373057D01*
X61170904Y-123350000D01*
X61289096Y-123350000D01*
X61405012Y-123373057D01*
X61405012Y-123373057D01*
G37*
G36*
X59905012Y-123373057D02*
X60014207Y-123418287D01*
X60112481Y-123483952D01*
X60196048Y-123567519D01*
X60261713Y-123665793D01*
X60306943Y-123774988D01*
X60330000Y-123890904D01*
X60330000Y-124009096D01*
X60306943Y-124125012D01*
X60261713Y-124234207D01*
X60196048Y-124332481D01*
X60112481Y-124416048D01*
X60014207Y-124481713D01*
X59905012Y-124526943D01*
X59789096Y-124550000D01*
X59670904Y-124550000D01*
X59554988Y-124526943D01*
X59445793Y-124481713D01*
X59347519Y-124416048D01*
X59263952Y-124332481D01*
X59198287Y-124234207D01*
X59153057Y-124125012D01*
X59130000Y-124009096D01*
X59130000Y-123890904D01*
X59153057Y-123774988D01*
X59198287Y-123665793D01*
X59263952Y-123567519D01*
X59347519Y-123483952D01*
X59445793Y-123418287D01*
X59554988Y-123373057D01*
X59670904Y-123350000D01*
X59789096Y-123350000D01*
X59905012Y-123373057D01*
X59905012Y-123373057D01*
G37*
G36*
X58405012Y-123373057D02*
X58514207Y-123418287D01*
X58612481Y-123483952D01*
X58696048Y-123567519D01*
X58761713Y-123665793D01*
X58806943Y-123774988D01*
X58830000Y-123890904D01*
X58830000Y-124009096D01*
X58806943Y-124125012D01*
X58761713Y-124234207D01*
X58696048Y-124332481D01*
X58612481Y-124416048D01*
X58514207Y-124481713D01*
X58405012Y-124526943D01*
X58289096Y-124550000D01*
X58170904Y-124550000D01*
X58054988Y-124526943D01*
X57945793Y-124481713D01*
X57847519Y-124416048D01*
X57763952Y-124332481D01*
X57698287Y-124234207D01*
X57653057Y-124125012D01*
X57630000Y-124009096D01*
X57630000Y-123890904D01*
X57653057Y-123774988D01*
X57698287Y-123665793D01*
X57763952Y-123567519D01*
X57847519Y-123483952D01*
X57945793Y-123418287D01*
X58054988Y-123373057D01*
X58170904Y-123350000D01*
X58289096Y-123350000D01*
X58405012Y-123373057D01*
X58405012Y-123373057D01*
G37*
G36*
X65905012Y-123373057D02*
X66014207Y-123418287D01*
X66112481Y-123483952D01*
X66196048Y-123567519D01*
X66261713Y-123665793D01*
X66306943Y-123774988D01*
X66330000Y-123890904D01*
X66330000Y-124009096D01*
X66306943Y-124125012D01*
X66261713Y-124234207D01*
X66196048Y-124332481D01*
X66112481Y-124416048D01*
X66014207Y-124481713D01*
X65905012Y-124526943D01*
X65789096Y-124550000D01*
X65670904Y-124550000D01*
X65554988Y-124526943D01*
X65445793Y-124481713D01*
X65347519Y-124416048D01*
X65263952Y-124332481D01*
X65198287Y-124234207D01*
X65153057Y-124125012D01*
X65130000Y-124009096D01*
X65130000Y-123890904D01*
X65153057Y-123774988D01*
X65198287Y-123665793D01*
X65263952Y-123567519D01*
X65347519Y-123483952D01*
X65445793Y-123418287D01*
X65554988Y-123373057D01*
X65670904Y-123350000D01*
X65789096Y-123350000D01*
X65905012Y-123373057D01*
X65905012Y-123373057D01*
G37*
G36*
X62905012Y-123373057D02*
X63014207Y-123418287D01*
X63112481Y-123483952D01*
X63196048Y-123567519D01*
X63261713Y-123665793D01*
X63306943Y-123774988D01*
X63330000Y-123890904D01*
X63330000Y-124009096D01*
X63306943Y-124125012D01*
X63261713Y-124234207D01*
X63196048Y-124332481D01*
X63112481Y-124416048D01*
X63014207Y-124481713D01*
X62905012Y-124526943D01*
X62789096Y-124550000D01*
X62670904Y-124550000D01*
X62554988Y-124526943D01*
X62445793Y-124481713D01*
X62347519Y-124416048D01*
X62263952Y-124332481D01*
X62198287Y-124234207D01*
X62153057Y-124125012D01*
X62130000Y-124009096D01*
X62130000Y-123890904D01*
X62153057Y-123774988D01*
X62198287Y-123665793D01*
X62263952Y-123567519D01*
X62347519Y-123483952D01*
X62445793Y-123418287D01*
X62554988Y-123373057D01*
X62670904Y-123350000D01*
X62789096Y-123350000D01*
X62905012Y-123373057D01*
X62905012Y-123373057D01*
G37*
G36*
X53463352Y-122530743D02*
X53608941Y-122591048D01*
X53739973Y-122678601D01*
X53851399Y-122790027D01*
X53938952Y-122921059D01*
X53999257Y-123066648D01*
X54030000Y-123221205D01*
X54030000Y-123378795D01*
X53999257Y-123533352D01*
X53938952Y-123678941D01*
X53851399Y-123809973D01*
X53739973Y-123921399D01*
X53608941Y-124008952D01*
X53463352Y-124069257D01*
X53308795Y-124100000D01*
X53151205Y-124100000D01*
X52996648Y-124069257D01*
X52851059Y-124008952D01*
X52720027Y-123921399D01*
X52608601Y-123809973D01*
X52521048Y-123678941D01*
X52460743Y-123533352D01*
X52430000Y-123378795D01*
X52430000Y-123221205D01*
X52460743Y-123066648D01*
X52521048Y-122921059D01*
X52608601Y-122790027D01*
X52720027Y-122678601D01*
X52851059Y-122591048D01*
X52996648Y-122530743D01*
X53151205Y-122500000D01*
X53308795Y-122500000D01*
X53463352Y-122530743D01*
X53463352Y-122530743D01*
G37*
G36*
X51570992Y-121732076D02*
X51604883Y-121742357D01*
X51636111Y-121759048D01*
X51663485Y-121781515D01*
X51685952Y-121808889D01*
X51702643Y-121840117D01*
X51712924Y-121874008D01*
X51717000Y-121915391D01*
X51717000Y-122940609D01*
X51712924Y-122981992D01*
X51702643Y-123015883D01*
X51685952Y-123047111D01*
X51663485Y-123074485D01*
X51636111Y-123096952D01*
X51604883Y-123113643D01*
X51570992Y-123123924D01*
X51529609Y-123128000D01*
X50929391Y-123128000D01*
X50888008Y-123123924D01*
X50854117Y-123113643D01*
X50822889Y-123096952D01*
X50795515Y-123074485D01*
X50773048Y-123047111D01*
X50756357Y-123015883D01*
X50746076Y-122981992D01*
X50742000Y-122940609D01*
X50742000Y-121915391D01*
X50746076Y-121874008D01*
X50756357Y-121840117D01*
X50773048Y-121808889D01*
X50795515Y-121781515D01*
X50822889Y-121759048D01*
X50854117Y-121742357D01*
X50888008Y-121732076D01*
X50929391Y-121728000D01*
X51529609Y-121728000D01*
X51570992Y-121732076D01*
X51570992Y-121732076D01*
G37*
G36*
X49695992Y-121732076D02*
X49729883Y-121742357D01*
X49761111Y-121759048D01*
X49788485Y-121781515D01*
X49810952Y-121808889D01*
X49827643Y-121840117D01*
X49837924Y-121874008D01*
X49842000Y-121915391D01*
X49842000Y-122940609D01*
X49837924Y-122981992D01*
X49827643Y-123015883D01*
X49810952Y-123047111D01*
X49788485Y-123074485D01*
X49761111Y-123096952D01*
X49729883Y-123113643D01*
X49695992Y-123123924D01*
X49654609Y-123128000D01*
X49054391Y-123128000D01*
X49013008Y-123123924D01*
X48979117Y-123113643D01*
X48947889Y-123096952D01*
X48920515Y-123074485D01*
X48898048Y-123047111D01*
X48881357Y-123015883D01*
X48871076Y-122981992D01*
X48867000Y-122940609D01*
X48867000Y-121915391D01*
X48871076Y-121874008D01*
X48881357Y-121840117D01*
X48898048Y-121808889D01*
X48920515Y-121781515D01*
X48947889Y-121759048D01*
X48979117Y-121742357D01*
X49013008Y-121732076D01*
X49054391Y-121728000D01*
X49654609Y-121728000D01*
X49695992Y-121732076D01*
X49695992Y-121732076D01*
G37*
G36*
X50755012Y-119723057D02*
X50864207Y-119768287D01*
X50962481Y-119833952D01*
X51046048Y-119917519D01*
X51111713Y-120015793D01*
X51156943Y-120124988D01*
X51180000Y-120240904D01*
X51180000Y-120359096D01*
X51156943Y-120475012D01*
X51111713Y-120584207D01*
X51046048Y-120682481D01*
X50962481Y-120766048D01*
X50864207Y-120831713D01*
X50755012Y-120876943D01*
X50639096Y-120900000D01*
X50520904Y-120900000D01*
X50404988Y-120876943D01*
X50295793Y-120831713D01*
X50197519Y-120766048D01*
X50113952Y-120682481D01*
X50048287Y-120584207D01*
X50003057Y-120475012D01*
X49980000Y-120359096D01*
X49980000Y-120240904D01*
X50003057Y-120124988D01*
X50048287Y-120015793D01*
X50113952Y-119917519D01*
X50197519Y-119833952D01*
X50295793Y-119768287D01*
X50404988Y-119723057D01*
X50520904Y-119700000D01*
X50639096Y-119700000D01*
X50755012Y-119723057D01*
X50755012Y-119723057D01*
G37*
G36*
X74055012Y-119723057D02*
X74164207Y-119768287D01*
X74262481Y-119833952D01*
X74346048Y-119917519D01*
X74411713Y-120015793D01*
X74456943Y-120124988D01*
X74480000Y-120240904D01*
X74480000Y-120359096D01*
X74456943Y-120475012D01*
X74411713Y-120584207D01*
X74346048Y-120682481D01*
X74262481Y-120766048D01*
X74164207Y-120831713D01*
X74055012Y-120876943D01*
X73939096Y-120900000D01*
X73820904Y-120900000D01*
X73704988Y-120876943D01*
X73595793Y-120831713D01*
X73497519Y-120766048D01*
X73413952Y-120682481D01*
X73348287Y-120584207D01*
X73303057Y-120475012D01*
X73280000Y-120359096D01*
X73280000Y-120240904D01*
X73303057Y-120124988D01*
X73348287Y-120015793D01*
X73413952Y-119917519D01*
X73497519Y-119833952D01*
X73595793Y-119768287D01*
X73704988Y-119723057D01*
X73820904Y-119700000D01*
X73939096Y-119700000D01*
X74055012Y-119723057D01*
X74055012Y-119723057D01*
G37*
G36*
X72055012Y-119223057D02*
X72164207Y-119268287D01*
X72262481Y-119333952D01*
X72346048Y-119417519D01*
X72411713Y-119515793D01*
X72456943Y-119624988D01*
X72480000Y-119740904D01*
X72480000Y-119859096D01*
X72456943Y-119975012D01*
X72411713Y-120084207D01*
X72346048Y-120182481D01*
X72262481Y-120266048D01*
X72164207Y-120331713D01*
X72055012Y-120376943D01*
X71939096Y-120400000D01*
X71820904Y-120400000D01*
X71704988Y-120376943D01*
X71595793Y-120331713D01*
X71497519Y-120266048D01*
X71413952Y-120182481D01*
X71348287Y-120084207D01*
X71303057Y-119975012D01*
X71280000Y-119859096D01*
X71280000Y-119740904D01*
X71303057Y-119624988D01*
X71348287Y-119515793D01*
X71413952Y-119417519D01*
X71497519Y-119333952D01*
X71595793Y-119268287D01*
X71704988Y-119223057D01*
X71820904Y-119200000D01*
X71939096Y-119200000D01*
X72055012Y-119223057D01*
X72055012Y-119223057D01*
G37*
G36*
X48755012Y-119223057D02*
X48864207Y-119268287D01*
X48962481Y-119333952D01*
X49046048Y-119417519D01*
X49111713Y-119515793D01*
X49156943Y-119624988D01*
X49180000Y-119740904D01*
X49180000Y-119859096D01*
X49156943Y-119975012D01*
X49111713Y-120084207D01*
X49046048Y-120182481D01*
X48962481Y-120266048D01*
X48864207Y-120331713D01*
X48755012Y-120376943D01*
X48639096Y-120400000D01*
X48520904Y-120400000D01*
X48404988Y-120376943D01*
X48295793Y-120331713D01*
X48197519Y-120266048D01*
X48113952Y-120182481D01*
X48048287Y-120084207D01*
X48003057Y-119975012D01*
X47980000Y-119859096D01*
X47980000Y-119740904D01*
X48003057Y-119624988D01*
X48048287Y-119515793D01*
X48113952Y-119417519D01*
X48197519Y-119333952D01*
X48295793Y-119268287D01*
X48404988Y-119223057D01*
X48520904Y-119200000D01*
X48639096Y-119200000D01*
X48755012Y-119223057D01*
X48755012Y-119223057D01*
G37*
G36*
X76055012Y-118723057D02*
X76164207Y-118768287D01*
X76262481Y-118833952D01*
X76346048Y-118917519D01*
X76411713Y-119015793D01*
X76456943Y-119124988D01*
X76480000Y-119240904D01*
X76480000Y-119359096D01*
X76456943Y-119475012D01*
X76411713Y-119584207D01*
X76346048Y-119682481D01*
X76262481Y-119766048D01*
X76164207Y-119831713D01*
X76055012Y-119876943D01*
X75939096Y-119900000D01*
X75820904Y-119900000D01*
X75704988Y-119876943D01*
X75595793Y-119831713D01*
X75497519Y-119766048D01*
X75413952Y-119682481D01*
X75348287Y-119584207D01*
X75303057Y-119475012D01*
X75280000Y-119359096D01*
X75280000Y-119240904D01*
X75303057Y-119124988D01*
X75348287Y-119015793D01*
X75413952Y-118917519D01*
X75497519Y-118833952D01*
X75595793Y-118768287D01*
X75704988Y-118723057D01*
X75820904Y-118700000D01*
X75939096Y-118700000D01*
X76055012Y-118723057D01*
X76055012Y-118723057D01*
G37*
G36*
X52755012Y-118723057D02*
X52864207Y-118768287D01*
X52962481Y-118833952D01*
X53046048Y-118917519D01*
X53111713Y-119015793D01*
X53156943Y-119124988D01*
X53180000Y-119240904D01*
X53180000Y-119359096D01*
X53156943Y-119475012D01*
X53111713Y-119584207D01*
X53046048Y-119682481D01*
X52962481Y-119766048D01*
X52864207Y-119831713D01*
X52755012Y-119876943D01*
X52639096Y-119900000D01*
X52520904Y-119900000D01*
X52404988Y-119876943D01*
X52295793Y-119831713D01*
X52197519Y-119766048D01*
X52113952Y-119682481D01*
X52048287Y-119584207D01*
X52003057Y-119475012D01*
X51980000Y-119359096D01*
X51980000Y-119240904D01*
X52003057Y-119124988D01*
X52048287Y-119015793D01*
X52113952Y-118917519D01*
X52197519Y-118833952D01*
X52295793Y-118768287D01*
X52404988Y-118723057D01*
X52520904Y-118700000D01*
X52639096Y-118700000D01*
X52755012Y-118723057D01*
X52755012Y-118723057D01*
G37*
G36*
X74055012Y-118223057D02*
X74164207Y-118268287D01*
X74262481Y-118333952D01*
X74346048Y-118417519D01*
X74411713Y-118515793D01*
X74456943Y-118624988D01*
X74480000Y-118740904D01*
X74480000Y-118859096D01*
X74456943Y-118975012D01*
X74411713Y-119084207D01*
X74346048Y-119182481D01*
X74262481Y-119266048D01*
X74164207Y-119331713D01*
X74055012Y-119376943D01*
X73939096Y-119400000D01*
X73820904Y-119400000D01*
X73704988Y-119376943D01*
X73595793Y-119331713D01*
X73497519Y-119266048D01*
X73413952Y-119182481D01*
X73348287Y-119084207D01*
X73303057Y-118975012D01*
X73280000Y-118859096D01*
X73280000Y-118740904D01*
X73303057Y-118624988D01*
X73348287Y-118515793D01*
X73413952Y-118417519D01*
X73497519Y-118333952D01*
X73595793Y-118268287D01*
X73704988Y-118223057D01*
X73820904Y-118200000D01*
X73939096Y-118200000D01*
X74055012Y-118223057D01*
X74055012Y-118223057D01*
G37*
G36*
X50755012Y-118223057D02*
X50864207Y-118268287D01*
X50962481Y-118333952D01*
X51046048Y-118417519D01*
X51111713Y-118515793D01*
X51156943Y-118624988D01*
X51180000Y-118740904D01*
X51180000Y-118859096D01*
X51156943Y-118975012D01*
X51111713Y-119084207D01*
X51046048Y-119182481D01*
X50962481Y-119266048D01*
X50864207Y-119331713D01*
X50755012Y-119376943D01*
X50639096Y-119400000D01*
X50520904Y-119400000D01*
X50404988Y-119376943D01*
X50295793Y-119331713D01*
X50197519Y-119266048D01*
X50113952Y-119182481D01*
X50048287Y-119084207D01*
X50003057Y-118975012D01*
X49980000Y-118859096D01*
X49980000Y-118740904D01*
X50003057Y-118624988D01*
X50048287Y-118515793D01*
X50113952Y-118417519D01*
X50197519Y-118333952D01*
X50295793Y-118268287D01*
X50404988Y-118223057D01*
X50520904Y-118200000D01*
X50639096Y-118200000D01*
X50755012Y-118223057D01*
X50755012Y-118223057D01*
G37*
G36*
X48755012Y-117723057D02*
X48864207Y-117768287D01*
X48962481Y-117833952D01*
X49046048Y-117917519D01*
X49111713Y-118015793D01*
X49156943Y-118124988D01*
X49180000Y-118240904D01*
X49180000Y-118359096D01*
X49156943Y-118475012D01*
X49111713Y-118584207D01*
X49046048Y-118682481D01*
X48962481Y-118766048D01*
X48864207Y-118831713D01*
X48755012Y-118876943D01*
X48639096Y-118900000D01*
X48520904Y-118900000D01*
X48404988Y-118876943D01*
X48295793Y-118831713D01*
X48197519Y-118766048D01*
X48113952Y-118682481D01*
X48048287Y-118584207D01*
X48003057Y-118475012D01*
X47980000Y-118359096D01*
X47980000Y-118240904D01*
X48003057Y-118124988D01*
X48048287Y-118015793D01*
X48113952Y-117917519D01*
X48197519Y-117833952D01*
X48295793Y-117768287D01*
X48404988Y-117723057D01*
X48520904Y-117700000D01*
X48639096Y-117700000D01*
X48755012Y-117723057D01*
X48755012Y-117723057D01*
G37*
G36*
X72055012Y-117723057D02*
X72164207Y-117768287D01*
X72262481Y-117833952D01*
X72346048Y-117917519D01*
X72411713Y-118015793D01*
X72456943Y-118124988D01*
X72480000Y-118240904D01*
X72480000Y-118359096D01*
X72456943Y-118475012D01*
X72411713Y-118584207D01*
X72346048Y-118682481D01*
X72262481Y-118766048D01*
X72164207Y-118831713D01*
X72055012Y-118876943D01*
X71939096Y-118900000D01*
X71820904Y-118900000D01*
X71704988Y-118876943D01*
X71595793Y-118831713D01*
X71497519Y-118766048D01*
X71413952Y-118682481D01*
X71348287Y-118584207D01*
X71303057Y-118475012D01*
X71280000Y-118359096D01*
X71280000Y-118240904D01*
X71303057Y-118124988D01*
X71348287Y-118015793D01*
X71413952Y-117917519D01*
X71497519Y-117833952D01*
X71595793Y-117768287D01*
X71704988Y-117723057D01*
X71820904Y-117700000D01*
X71939096Y-117700000D01*
X72055012Y-117723057D01*
X72055012Y-117723057D01*
G37*
G36*
X52755012Y-117223057D02*
X52864207Y-117268287D01*
X52962481Y-117333952D01*
X53046048Y-117417519D01*
X53111713Y-117515793D01*
X53156943Y-117624988D01*
X53180000Y-117740904D01*
X53180000Y-117859096D01*
X53156943Y-117975012D01*
X53111713Y-118084207D01*
X53046048Y-118182481D01*
X52962481Y-118266048D01*
X52864207Y-118331713D01*
X52755012Y-118376943D01*
X52639096Y-118400000D01*
X52520904Y-118400000D01*
X52404988Y-118376943D01*
X52295793Y-118331713D01*
X52197519Y-118266048D01*
X52113952Y-118182481D01*
X52048287Y-118084207D01*
X52003057Y-117975012D01*
X51980000Y-117859096D01*
X51980000Y-117740904D01*
X52003057Y-117624988D01*
X52048287Y-117515793D01*
X52113952Y-117417519D01*
X52197519Y-117333952D01*
X52295793Y-117268287D01*
X52404988Y-117223057D01*
X52520904Y-117200000D01*
X52639096Y-117200000D01*
X52755012Y-117223057D01*
X52755012Y-117223057D01*
G37*
G36*
X76055012Y-117223057D02*
X76164207Y-117268287D01*
X76262481Y-117333952D01*
X76346048Y-117417519D01*
X76411713Y-117515793D01*
X76456943Y-117624988D01*
X76480000Y-117740904D01*
X76480000Y-117859096D01*
X76456943Y-117975012D01*
X76411713Y-118084207D01*
X76346048Y-118182481D01*
X76262481Y-118266048D01*
X76164207Y-118331713D01*
X76055012Y-118376943D01*
X75939096Y-118400000D01*
X75820904Y-118400000D01*
X75704988Y-118376943D01*
X75595793Y-118331713D01*
X75497519Y-118266048D01*
X75413952Y-118182481D01*
X75348287Y-118084207D01*
X75303057Y-117975012D01*
X75280000Y-117859096D01*
X75280000Y-117740904D01*
X75303057Y-117624988D01*
X75348287Y-117515793D01*
X75413952Y-117417519D01*
X75497519Y-117333952D01*
X75595793Y-117268287D01*
X75704988Y-117223057D01*
X75820904Y-117200000D01*
X75939096Y-117200000D01*
X76055012Y-117223057D01*
X76055012Y-117223057D01*
G37*
G36*
X50755012Y-116723057D02*
X50864207Y-116768287D01*
X50962481Y-116833952D01*
X51046048Y-116917519D01*
X51111713Y-117015793D01*
X51156943Y-117124988D01*
X51180000Y-117240904D01*
X51180000Y-117359096D01*
X51156943Y-117475012D01*
X51111713Y-117584207D01*
X51046048Y-117682481D01*
X50962481Y-117766048D01*
X50864207Y-117831713D01*
X50755012Y-117876943D01*
X50639096Y-117900000D01*
X50520904Y-117900000D01*
X50404988Y-117876943D01*
X50295793Y-117831713D01*
X50197519Y-117766048D01*
X50113952Y-117682481D01*
X50048287Y-117584207D01*
X50003057Y-117475012D01*
X49980000Y-117359096D01*
X49980000Y-117240904D01*
X50003057Y-117124988D01*
X50048287Y-117015793D01*
X50113952Y-116917519D01*
X50197519Y-116833952D01*
X50295793Y-116768287D01*
X50404988Y-116723057D01*
X50520904Y-116700000D01*
X50639096Y-116700000D01*
X50755012Y-116723057D01*
X50755012Y-116723057D01*
G37*
G36*
X74055012Y-116723057D02*
X74164207Y-116768287D01*
X74262481Y-116833952D01*
X74346048Y-116917519D01*
X74411713Y-117015793D01*
X74456943Y-117124988D01*
X74480000Y-117240904D01*
X74480000Y-117359096D01*
X74456943Y-117475012D01*
X74411713Y-117584207D01*
X74346048Y-117682481D01*
X74262481Y-117766048D01*
X74164207Y-117831713D01*
X74055012Y-117876943D01*
X73939096Y-117900000D01*
X73820904Y-117900000D01*
X73704988Y-117876943D01*
X73595793Y-117831713D01*
X73497519Y-117766048D01*
X73413952Y-117682481D01*
X73348287Y-117584207D01*
X73303057Y-117475012D01*
X73280000Y-117359096D01*
X73280000Y-117240904D01*
X73303057Y-117124988D01*
X73348287Y-117015793D01*
X73413952Y-116917519D01*
X73497519Y-116833952D01*
X73595793Y-116768287D01*
X73704988Y-116723057D01*
X73820904Y-116700000D01*
X73939096Y-116700000D01*
X74055012Y-116723057D01*
X74055012Y-116723057D01*
G37*
G36*
X48755012Y-116223057D02*
X48864207Y-116268287D01*
X48962481Y-116333952D01*
X49046048Y-116417519D01*
X49111713Y-116515793D01*
X49156943Y-116624988D01*
X49180000Y-116740904D01*
X49180000Y-116859096D01*
X49156943Y-116975012D01*
X49111713Y-117084207D01*
X49046048Y-117182481D01*
X48962481Y-117266048D01*
X48864207Y-117331713D01*
X48755012Y-117376943D01*
X48639096Y-117400000D01*
X48520904Y-117400000D01*
X48404988Y-117376943D01*
X48295793Y-117331713D01*
X48197519Y-117266048D01*
X48113952Y-117182481D01*
X48048287Y-117084207D01*
X48003057Y-116975012D01*
X47980000Y-116859096D01*
X47980000Y-116740904D01*
X48003057Y-116624988D01*
X48048287Y-116515793D01*
X48113952Y-116417519D01*
X48197519Y-116333952D01*
X48295793Y-116268287D01*
X48404988Y-116223057D01*
X48520904Y-116200000D01*
X48639096Y-116200000D01*
X48755012Y-116223057D01*
X48755012Y-116223057D01*
G37*
G36*
X72055012Y-116223057D02*
X72164207Y-116268287D01*
X72262481Y-116333952D01*
X72346048Y-116417519D01*
X72411713Y-116515793D01*
X72456943Y-116624988D01*
X72480000Y-116740904D01*
X72480000Y-116859096D01*
X72456943Y-116975012D01*
X72411713Y-117084207D01*
X72346048Y-117182481D01*
X72262481Y-117266048D01*
X72164207Y-117331713D01*
X72055012Y-117376943D01*
X71939096Y-117400000D01*
X71820904Y-117400000D01*
X71704988Y-117376943D01*
X71595793Y-117331713D01*
X71497519Y-117266048D01*
X71413952Y-117182481D01*
X71348287Y-117084207D01*
X71303057Y-116975012D01*
X71280000Y-116859096D01*
X71280000Y-116740904D01*
X71303057Y-116624988D01*
X71348287Y-116515793D01*
X71413952Y-116417519D01*
X71497519Y-116333952D01*
X71595793Y-116268287D01*
X71704988Y-116223057D01*
X71820904Y-116200000D01*
X71939096Y-116200000D01*
X72055012Y-116223057D01*
X72055012Y-116223057D01*
G37*
G36*
X76055012Y-115723057D02*
X76164207Y-115768287D01*
X76262481Y-115833952D01*
X76346048Y-115917519D01*
X76411713Y-116015793D01*
X76456943Y-116124988D01*
X76480000Y-116240904D01*
X76480000Y-116359096D01*
X76456943Y-116475012D01*
X76411713Y-116584207D01*
X76346048Y-116682481D01*
X76262481Y-116766048D01*
X76164207Y-116831713D01*
X76055012Y-116876943D01*
X75939096Y-116900000D01*
X75820904Y-116900000D01*
X75704988Y-116876943D01*
X75595793Y-116831713D01*
X75497519Y-116766048D01*
X75413952Y-116682481D01*
X75348287Y-116584207D01*
X75303057Y-116475012D01*
X75280000Y-116359096D01*
X75280000Y-116240904D01*
X75303057Y-116124988D01*
X75348287Y-116015793D01*
X75413952Y-115917519D01*
X75497519Y-115833952D01*
X75595793Y-115768287D01*
X75704988Y-115723057D01*
X75820904Y-115700000D01*
X75939096Y-115700000D01*
X76055012Y-115723057D01*
X76055012Y-115723057D01*
G37*
G36*
X52755012Y-115723057D02*
X52864207Y-115768287D01*
X52962481Y-115833952D01*
X53046048Y-115917519D01*
X53111713Y-116015793D01*
X53156943Y-116124988D01*
X53180000Y-116240904D01*
X53180000Y-116359096D01*
X53156943Y-116475012D01*
X53111713Y-116584207D01*
X53046048Y-116682481D01*
X52962481Y-116766048D01*
X52864207Y-116831713D01*
X52755012Y-116876943D01*
X52639096Y-116900000D01*
X52520904Y-116900000D01*
X52404988Y-116876943D01*
X52295793Y-116831713D01*
X52197519Y-116766048D01*
X52113952Y-116682481D01*
X52048287Y-116584207D01*
X52003057Y-116475012D01*
X51980000Y-116359096D01*
X51980000Y-116240904D01*
X52003057Y-116124988D01*
X52048287Y-116015793D01*
X52113952Y-115917519D01*
X52197519Y-115833952D01*
X52295793Y-115768287D01*
X52404988Y-115723057D01*
X52520904Y-115700000D01*
X52639096Y-115700000D01*
X52755012Y-115723057D01*
X52755012Y-115723057D01*
G37*
G36*
X74055012Y-115223057D02*
X74164207Y-115268287D01*
X74262481Y-115333952D01*
X74346048Y-115417519D01*
X74411713Y-115515793D01*
X74456943Y-115624988D01*
X74480000Y-115740904D01*
X74480000Y-115859096D01*
X74456943Y-115975012D01*
X74411713Y-116084207D01*
X74346048Y-116182481D01*
X74262481Y-116266048D01*
X74164207Y-116331713D01*
X74055012Y-116376943D01*
X73939096Y-116400000D01*
X73820904Y-116400000D01*
X73704988Y-116376943D01*
X73595793Y-116331713D01*
X73497519Y-116266048D01*
X73413952Y-116182481D01*
X73348287Y-116084207D01*
X73303057Y-115975012D01*
X73280000Y-115859096D01*
X73280000Y-115740904D01*
X73303057Y-115624988D01*
X73348287Y-115515793D01*
X73413952Y-115417519D01*
X73497519Y-115333952D01*
X73595793Y-115268287D01*
X73704988Y-115223057D01*
X73820904Y-115200000D01*
X73939096Y-115200000D01*
X74055012Y-115223057D01*
X74055012Y-115223057D01*
G37*
G36*
X50755012Y-115223057D02*
X50864207Y-115268287D01*
X50962481Y-115333952D01*
X51046048Y-115417519D01*
X51111713Y-115515793D01*
X51156943Y-115624988D01*
X51180000Y-115740904D01*
X51180000Y-115859096D01*
X51156943Y-115975012D01*
X51111713Y-116084207D01*
X51046048Y-116182481D01*
X50962481Y-116266048D01*
X50864207Y-116331713D01*
X50755012Y-116376943D01*
X50639096Y-116400000D01*
X50520904Y-116400000D01*
X50404988Y-116376943D01*
X50295793Y-116331713D01*
X50197519Y-116266048D01*
X50113952Y-116182481D01*
X50048287Y-116084207D01*
X50003057Y-115975012D01*
X49980000Y-115859096D01*
X49980000Y-115740904D01*
X50003057Y-115624988D01*
X50048287Y-115515793D01*
X50113952Y-115417519D01*
X50197519Y-115333952D01*
X50295793Y-115268287D01*
X50404988Y-115223057D01*
X50520904Y-115200000D01*
X50639096Y-115200000D01*
X50755012Y-115223057D01*
X50755012Y-115223057D01*
G37*
G36*
X62703992Y-112737447D02*
X62703994Y-112737448D01*
X62703995Y-112737448D01*
X62999726Y-112859943D01*
X63171938Y-112975012D01*
X63265880Y-113037782D01*
X63492218Y-113264120D01*
X63492220Y-113264123D01*
X63670057Y-113530274D01*
X63792552Y-113826005D01*
X63792553Y-113826008D01*
X63855000Y-114139950D01*
X63855000Y-114460050D01*
X63793688Y-114768287D01*
X63792552Y-114773995D01*
X63670057Y-115069726D01*
X63670056Y-115069727D01*
X63492218Y-115335880D01*
X63265880Y-115562218D01*
X63265877Y-115562220D01*
X62999726Y-115740057D01*
X62703995Y-115862552D01*
X62703994Y-115862552D01*
X62703992Y-115862553D01*
X62390050Y-115925000D01*
X62069950Y-115925000D01*
X61756008Y-115862553D01*
X61756006Y-115862552D01*
X61756005Y-115862552D01*
X61460274Y-115740057D01*
X61194123Y-115562220D01*
X61194120Y-115562218D01*
X60967782Y-115335880D01*
X60789944Y-115069727D01*
X60789943Y-115069726D01*
X60667448Y-114773995D01*
X60666313Y-114768287D01*
X60605000Y-114460050D01*
X60605000Y-114139950D01*
X60667447Y-113826008D01*
X60667448Y-113826005D01*
X60789943Y-113530274D01*
X60967780Y-113264123D01*
X60967782Y-113264120D01*
X61194120Y-113037782D01*
X61288062Y-112975012D01*
X61460274Y-112859943D01*
X61756005Y-112737448D01*
X61756006Y-112737448D01*
X61756008Y-112737447D01*
X62069950Y-112675000D01*
X62390050Y-112675000D01*
X62703992Y-112737447D01*
X62703992Y-112737447D01*
G37*
G36*
X72055012Y-114723057D02*
X72164207Y-114768287D01*
X72262481Y-114833952D01*
X72346048Y-114917519D01*
X72411713Y-115015793D01*
X72456943Y-115124988D01*
X72480000Y-115240904D01*
X72480000Y-115359096D01*
X72456943Y-115475012D01*
X72411713Y-115584207D01*
X72346048Y-115682481D01*
X72262481Y-115766048D01*
X72164207Y-115831713D01*
X72055012Y-115876943D01*
X71939096Y-115900000D01*
X71820904Y-115900000D01*
X71704988Y-115876943D01*
X71595793Y-115831713D01*
X71497519Y-115766048D01*
X71413952Y-115682481D01*
X71348287Y-115584207D01*
X71303057Y-115475012D01*
X71280000Y-115359096D01*
X71280000Y-115240904D01*
X71303057Y-115124988D01*
X71348287Y-115015793D01*
X71413952Y-114917519D01*
X71497519Y-114833952D01*
X71595793Y-114768287D01*
X71704988Y-114723057D01*
X71820904Y-114700000D01*
X71939096Y-114700000D01*
X72055012Y-114723057D01*
X72055012Y-114723057D01*
G37*
G36*
X48755012Y-114723057D02*
X48864207Y-114768287D01*
X48962481Y-114833952D01*
X49046048Y-114917519D01*
X49111713Y-115015793D01*
X49156943Y-115124988D01*
X49180000Y-115240904D01*
X49180000Y-115359096D01*
X49156943Y-115475012D01*
X49111713Y-115584207D01*
X49046048Y-115682481D01*
X48962481Y-115766048D01*
X48864207Y-115831713D01*
X48755012Y-115876943D01*
X48639096Y-115900000D01*
X48520904Y-115900000D01*
X48404988Y-115876943D01*
X48295793Y-115831713D01*
X48197519Y-115766048D01*
X48113952Y-115682481D01*
X48048287Y-115584207D01*
X48003057Y-115475012D01*
X47980000Y-115359096D01*
X47980000Y-115240904D01*
X48003057Y-115124988D01*
X48048287Y-115015793D01*
X48113952Y-114917519D01*
X48197519Y-114833952D01*
X48295793Y-114768287D01*
X48404988Y-114723057D01*
X48520904Y-114700000D01*
X48639096Y-114700000D01*
X48755012Y-114723057D01*
X48755012Y-114723057D01*
G37*
G36*
X52755012Y-114223057D02*
X52864207Y-114268287D01*
X52962481Y-114333952D01*
X53046048Y-114417519D01*
X53111713Y-114515793D01*
X53156943Y-114624988D01*
X53180000Y-114740904D01*
X53180000Y-114859096D01*
X53156943Y-114975012D01*
X53111713Y-115084207D01*
X53046048Y-115182481D01*
X52962481Y-115266048D01*
X52864207Y-115331713D01*
X52755012Y-115376943D01*
X52639096Y-115400000D01*
X52520904Y-115400000D01*
X52404988Y-115376943D01*
X52295793Y-115331713D01*
X52197519Y-115266048D01*
X52113952Y-115182481D01*
X52048287Y-115084207D01*
X52003057Y-114975012D01*
X51980000Y-114859096D01*
X51980000Y-114740904D01*
X52003057Y-114624988D01*
X52048287Y-114515793D01*
X52113952Y-114417519D01*
X52197519Y-114333952D01*
X52295793Y-114268287D01*
X52404988Y-114223057D01*
X52520904Y-114200000D01*
X52639096Y-114200000D01*
X52755012Y-114223057D01*
X52755012Y-114223057D01*
G37*
G36*
X76055012Y-114223057D02*
X76164207Y-114268287D01*
X76262481Y-114333952D01*
X76346048Y-114417519D01*
X76411713Y-114515793D01*
X76456943Y-114624988D01*
X76480000Y-114740904D01*
X76480000Y-114859096D01*
X76456943Y-114975012D01*
X76411713Y-115084207D01*
X76346048Y-115182481D01*
X76262481Y-115266048D01*
X76164207Y-115331713D01*
X76055012Y-115376943D01*
X75939096Y-115400000D01*
X75820904Y-115400000D01*
X75704988Y-115376943D01*
X75595793Y-115331713D01*
X75497519Y-115266048D01*
X75413952Y-115182481D01*
X75348287Y-115084207D01*
X75303057Y-114975012D01*
X75280000Y-114859096D01*
X75280000Y-114740904D01*
X75303057Y-114624988D01*
X75348287Y-114515793D01*
X75413952Y-114417519D01*
X75497519Y-114333952D01*
X75595793Y-114268287D01*
X75704988Y-114223057D01*
X75820904Y-114200000D01*
X75939096Y-114200000D01*
X76055012Y-114223057D01*
X76055012Y-114223057D01*
G37*
G36*
X74055012Y-113723057D02*
X74164207Y-113768287D01*
X74262481Y-113833952D01*
X74346048Y-113917519D01*
X74411713Y-114015793D01*
X74456943Y-114124988D01*
X74480000Y-114240904D01*
X74480000Y-114359096D01*
X74456943Y-114475012D01*
X74411713Y-114584207D01*
X74346048Y-114682481D01*
X74262481Y-114766048D01*
X74164207Y-114831713D01*
X74055012Y-114876943D01*
X73939096Y-114900000D01*
X73820904Y-114900000D01*
X73704988Y-114876943D01*
X73595793Y-114831713D01*
X73497519Y-114766048D01*
X73413952Y-114682481D01*
X73348287Y-114584207D01*
X73303057Y-114475012D01*
X73280000Y-114359096D01*
X73280000Y-114240904D01*
X73303057Y-114124988D01*
X73348287Y-114015793D01*
X73413952Y-113917519D01*
X73497519Y-113833952D01*
X73595793Y-113768287D01*
X73704988Y-113723057D01*
X73820904Y-113700000D01*
X73939096Y-113700000D01*
X74055012Y-113723057D01*
X74055012Y-113723057D01*
G37*
G36*
X50755012Y-113723057D02*
X50864207Y-113768287D01*
X50962481Y-113833952D01*
X51046048Y-113917519D01*
X51111713Y-114015793D01*
X51156943Y-114124988D01*
X51180000Y-114240904D01*
X51180000Y-114359096D01*
X51156943Y-114475012D01*
X51111713Y-114584207D01*
X51046048Y-114682481D01*
X50962481Y-114766048D01*
X50864207Y-114831713D01*
X50755012Y-114876943D01*
X50639096Y-114900000D01*
X50520904Y-114900000D01*
X50404988Y-114876943D01*
X50295793Y-114831713D01*
X50197519Y-114766048D01*
X50113952Y-114682481D01*
X50048287Y-114584207D01*
X50003057Y-114475012D01*
X49980000Y-114359096D01*
X49980000Y-114240904D01*
X50003057Y-114124988D01*
X50048287Y-114015793D01*
X50113952Y-113917519D01*
X50197519Y-113833952D01*
X50295793Y-113768287D01*
X50404988Y-113723057D01*
X50520904Y-113700000D01*
X50639096Y-113700000D01*
X50755012Y-113723057D01*
X50755012Y-113723057D01*
G37*
G36*
X72055012Y-113223057D02*
X72164207Y-113268287D01*
X72262481Y-113333952D01*
X72346048Y-113417519D01*
X72411713Y-113515793D01*
X72456943Y-113624988D01*
X72480000Y-113740904D01*
X72480000Y-113859096D01*
X72456943Y-113975012D01*
X72411713Y-114084207D01*
X72346048Y-114182481D01*
X72262481Y-114266048D01*
X72164207Y-114331713D01*
X72055012Y-114376943D01*
X71939096Y-114400000D01*
X71820904Y-114400000D01*
X71704988Y-114376943D01*
X71595793Y-114331713D01*
X71497519Y-114266048D01*
X71413952Y-114182481D01*
X71348287Y-114084207D01*
X71303057Y-113975012D01*
X71280000Y-113859096D01*
X71280000Y-113740904D01*
X71303057Y-113624988D01*
X71348287Y-113515793D01*
X71413952Y-113417519D01*
X71497519Y-113333952D01*
X71595793Y-113268287D01*
X71704988Y-113223057D01*
X71820904Y-113200000D01*
X71939096Y-113200000D01*
X72055012Y-113223057D01*
X72055012Y-113223057D01*
G37*
G36*
X48755012Y-113223057D02*
X48864207Y-113268287D01*
X48962481Y-113333952D01*
X49046048Y-113417519D01*
X49111713Y-113515793D01*
X49156943Y-113624988D01*
X49180000Y-113740904D01*
X49180000Y-113859096D01*
X49156943Y-113975012D01*
X49111713Y-114084207D01*
X49046048Y-114182481D01*
X48962481Y-114266048D01*
X48864207Y-114331713D01*
X48755012Y-114376943D01*
X48639096Y-114400000D01*
X48520904Y-114400000D01*
X48404988Y-114376943D01*
X48295793Y-114331713D01*
X48197519Y-114266048D01*
X48113952Y-114182481D01*
X48048287Y-114084207D01*
X48003057Y-113975012D01*
X47980000Y-113859096D01*
X47980000Y-113740904D01*
X48003057Y-113624988D01*
X48048287Y-113515793D01*
X48113952Y-113417519D01*
X48197519Y-113333952D01*
X48295793Y-113268287D01*
X48404988Y-113223057D01*
X48520904Y-113200000D01*
X48639096Y-113200000D01*
X48755012Y-113223057D01*
X48755012Y-113223057D01*
G37*
G36*
X76055012Y-112723057D02*
X76164207Y-112768287D01*
X76262481Y-112833952D01*
X76346048Y-112917519D01*
X76411713Y-113015793D01*
X76456943Y-113124988D01*
X76480000Y-113240904D01*
X76480000Y-113359096D01*
X76456943Y-113475012D01*
X76411713Y-113584207D01*
X76346048Y-113682481D01*
X76262481Y-113766048D01*
X76164207Y-113831713D01*
X76055012Y-113876943D01*
X75939096Y-113900000D01*
X75820904Y-113900000D01*
X75704988Y-113876943D01*
X75595793Y-113831713D01*
X75497519Y-113766048D01*
X75413952Y-113682481D01*
X75348287Y-113584207D01*
X75303057Y-113475012D01*
X75280000Y-113359096D01*
X75280000Y-113240904D01*
X75303057Y-113124988D01*
X75348287Y-113015793D01*
X75413952Y-112917519D01*
X75497519Y-112833952D01*
X75595793Y-112768287D01*
X75704988Y-112723057D01*
X75820904Y-112700000D01*
X75939096Y-112700000D01*
X76055012Y-112723057D01*
X76055012Y-112723057D01*
G37*
G36*
X52755012Y-112723057D02*
X52864207Y-112768287D01*
X52962481Y-112833952D01*
X53046048Y-112917519D01*
X53111713Y-113015793D01*
X53156943Y-113124988D01*
X53180000Y-113240904D01*
X53180000Y-113359096D01*
X53156943Y-113475012D01*
X53111713Y-113584207D01*
X53046048Y-113682481D01*
X52962481Y-113766048D01*
X52864207Y-113831713D01*
X52755012Y-113876943D01*
X52639096Y-113900000D01*
X52520904Y-113900000D01*
X52404988Y-113876943D01*
X52295793Y-113831713D01*
X52197519Y-113766048D01*
X52113952Y-113682481D01*
X52048287Y-113584207D01*
X52003057Y-113475012D01*
X51980000Y-113359096D01*
X51980000Y-113240904D01*
X52003057Y-113124988D01*
X52048287Y-113015793D01*
X52113952Y-112917519D01*
X52197519Y-112833952D01*
X52295793Y-112768287D01*
X52404988Y-112723057D01*
X52520904Y-112700000D01*
X52639096Y-112700000D01*
X52755012Y-112723057D01*
X52755012Y-112723057D01*
G37*
G36*
X74055012Y-112223057D02*
X74164207Y-112268287D01*
X74262481Y-112333952D01*
X74346048Y-112417519D01*
X74411713Y-112515793D01*
X74456943Y-112624988D01*
X74480000Y-112740904D01*
X74480000Y-112859096D01*
X74456943Y-112975012D01*
X74411713Y-113084207D01*
X74346048Y-113182481D01*
X74262481Y-113266048D01*
X74164207Y-113331713D01*
X74055012Y-113376943D01*
X73939096Y-113400000D01*
X73820904Y-113400000D01*
X73704988Y-113376943D01*
X73595793Y-113331713D01*
X73497519Y-113266048D01*
X73413952Y-113182481D01*
X73348287Y-113084207D01*
X73303057Y-112975012D01*
X73280000Y-112859096D01*
X73280000Y-112740904D01*
X73303057Y-112624988D01*
X73348287Y-112515793D01*
X73413952Y-112417519D01*
X73497519Y-112333952D01*
X73595793Y-112268287D01*
X73704988Y-112223057D01*
X73820904Y-112200000D01*
X73939096Y-112200000D01*
X74055012Y-112223057D01*
X74055012Y-112223057D01*
G37*
G36*
X50755012Y-112223057D02*
X50864207Y-112268287D01*
X50962481Y-112333952D01*
X51046048Y-112417519D01*
X51111713Y-112515793D01*
X51156943Y-112624988D01*
X51180000Y-112740904D01*
X51180000Y-112859096D01*
X51156943Y-112975012D01*
X51111713Y-113084207D01*
X51046048Y-113182481D01*
X50962481Y-113266048D01*
X50864207Y-113331713D01*
X50755012Y-113376943D01*
X50639096Y-113400000D01*
X50520904Y-113400000D01*
X50404988Y-113376943D01*
X50295793Y-113331713D01*
X50197519Y-113266048D01*
X50113952Y-113182481D01*
X50048287Y-113084207D01*
X50003057Y-112975012D01*
X49980000Y-112859096D01*
X49980000Y-112740904D01*
X50003057Y-112624988D01*
X50048287Y-112515793D01*
X50113952Y-112417519D01*
X50197519Y-112333952D01*
X50295793Y-112268287D01*
X50404988Y-112223057D01*
X50520904Y-112200000D01*
X50639096Y-112200000D01*
X50755012Y-112223057D01*
X50755012Y-112223057D01*
G37*
G36*
X48755012Y-111723057D02*
X48864207Y-111768287D01*
X48962481Y-111833952D01*
X49046048Y-111917519D01*
X49111713Y-112015793D01*
X49156943Y-112124988D01*
X49180000Y-112240904D01*
X49180000Y-112359096D01*
X49156943Y-112475012D01*
X49111713Y-112584207D01*
X49046048Y-112682481D01*
X48962481Y-112766048D01*
X48864207Y-112831713D01*
X48755012Y-112876943D01*
X48639096Y-112900000D01*
X48520904Y-112900000D01*
X48404988Y-112876943D01*
X48295793Y-112831713D01*
X48197519Y-112766048D01*
X48113952Y-112682481D01*
X48048287Y-112584207D01*
X48003057Y-112475012D01*
X47980000Y-112359096D01*
X47980000Y-112240904D01*
X48003057Y-112124988D01*
X48048287Y-112015793D01*
X48113952Y-111917519D01*
X48197519Y-111833952D01*
X48295793Y-111768287D01*
X48404988Y-111723057D01*
X48520904Y-111700000D01*
X48639096Y-111700000D01*
X48755012Y-111723057D01*
X48755012Y-111723057D01*
G37*
G36*
X72055012Y-111723057D02*
X72164207Y-111768287D01*
X72262481Y-111833952D01*
X72346048Y-111917519D01*
X72411713Y-112015793D01*
X72456943Y-112124988D01*
X72480000Y-112240904D01*
X72480000Y-112359096D01*
X72456943Y-112475012D01*
X72411713Y-112584207D01*
X72346048Y-112682481D01*
X72262481Y-112766048D01*
X72164207Y-112831713D01*
X72055012Y-112876943D01*
X71939096Y-112900000D01*
X71820904Y-112900000D01*
X71704988Y-112876943D01*
X71595793Y-112831713D01*
X71497519Y-112766048D01*
X71413952Y-112682481D01*
X71348287Y-112584207D01*
X71303057Y-112475012D01*
X71280000Y-112359096D01*
X71280000Y-112240904D01*
X71303057Y-112124988D01*
X71348287Y-112015793D01*
X71413952Y-111917519D01*
X71497519Y-111833952D01*
X71595793Y-111768287D01*
X71704988Y-111723057D01*
X71820904Y-111700000D01*
X71939096Y-111700000D01*
X72055012Y-111723057D01*
X72055012Y-111723057D01*
G37*
G36*
X76055012Y-111223057D02*
X76164207Y-111268287D01*
X76262481Y-111333952D01*
X76346048Y-111417519D01*
X76411713Y-111515793D01*
X76456943Y-111624988D01*
X76480000Y-111740904D01*
X76480000Y-111859096D01*
X76456943Y-111975012D01*
X76411713Y-112084207D01*
X76346048Y-112182481D01*
X76262481Y-112266048D01*
X76164207Y-112331713D01*
X76055012Y-112376943D01*
X75939096Y-112400000D01*
X75820904Y-112400000D01*
X75704988Y-112376943D01*
X75595793Y-112331713D01*
X75497519Y-112266048D01*
X75413952Y-112182481D01*
X75348287Y-112084207D01*
X75303057Y-111975012D01*
X75280000Y-111859096D01*
X75280000Y-111740904D01*
X75303057Y-111624988D01*
X75348287Y-111515793D01*
X75413952Y-111417519D01*
X75497519Y-111333952D01*
X75595793Y-111268287D01*
X75704988Y-111223057D01*
X75820904Y-111200000D01*
X75939096Y-111200000D01*
X76055012Y-111223057D01*
X76055012Y-111223057D01*
G37*
G36*
X52755012Y-111223057D02*
X52864207Y-111268287D01*
X52962481Y-111333952D01*
X53046048Y-111417519D01*
X53111713Y-111515793D01*
X53156943Y-111624988D01*
X53180000Y-111740904D01*
X53180000Y-111859096D01*
X53156943Y-111975012D01*
X53111713Y-112084207D01*
X53046048Y-112182481D01*
X52962481Y-112266048D01*
X52864207Y-112331713D01*
X52755012Y-112376943D01*
X52639096Y-112400000D01*
X52520904Y-112400000D01*
X52404988Y-112376943D01*
X52295793Y-112331713D01*
X52197519Y-112266048D01*
X52113952Y-112182481D01*
X52048287Y-112084207D01*
X52003057Y-111975012D01*
X51980000Y-111859096D01*
X51980000Y-111740904D01*
X52003057Y-111624988D01*
X52048287Y-111515793D01*
X52113952Y-111417519D01*
X52197519Y-111333952D01*
X52295793Y-111268287D01*
X52404988Y-111223057D01*
X52520904Y-111200000D01*
X52639096Y-111200000D01*
X52755012Y-111223057D01*
X52755012Y-111223057D01*
G37*
G36*
X50755012Y-110723057D02*
X50864207Y-110768287D01*
X50962481Y-110833952D01*
X51046048Y-110917519D01*
X51111713Y-111015793D01*
X51156943Y-111124988D01*
X51180000Y-111240904D01*
X51180000Y-111359096D01*
X51156943Y-111475012D01*
X51111713Y-111584207D01*
X51046048Y-111682481D01*
X50962481Y-111766048D01*
X50864207Y-111831713D01*
X50755012Y-111876943D01*
X50639096Y-111900000D01*
X50520904Y-111900000D01*
X50404988Y-111876943D01*
X50295793Y-111831713D01*
X50197519Y-111766048D01*
X50113952Y-111682481D01*
X50048287Y-111584207D01*
X50003057Y-111475012D01*
X49980000Y-111359096D01*
X49980000Y-111240904D01*
X50003057Y-111124988D01*
X50048287Y-111015793D01*
X50113952Y-110917519D01*
X50197519Y-110833952D01*
X50295793Y-110768287D01*
X50404988Y-110723057D01*
X50520904Y-110700000D01*
X50639096Y-110700000D01*
X50755012Y-110723057D01*
X50755012Y-110723057D01*
G37*
G36*
X74055012Y-110723057D02*
X74164207Y-110768287D01*
X74262481Y-110833952D01*
X74346048Y-110917519D01*
X74411713Y-111015793D01*
X74456943Y-111124988D01*
X74480000Y-111240904D01*
X74480000Y-111359096D01*
X74456943Y-111475012D01*
X74411713Y-111584207D01*
X74346048Y-111682481D01*
X74262481Y-111766048D01*
X74164207Y-111831713D01*
X74055012Y-111876943D01*
X73939096Y-111900000D01*
X73820904Y-111900000D01*
X73704988Y-111876943D01*
X73595793Y-111831713D01*
X73497519Y-111766048D01*
X73413952Y-111682481D01*
X73348287Y-111584207D01*
X73303057Y-111475012D01*
X73280000Y-111359096D01*
X73280000Y-111240904D01*
X73303057Y-111124988D01*
X73348287Y-111015793D01*
X73413952Y-110917519D01*
X73497519Y-110833952D01*
X73595793Y-110768287D01*
X73704988Y-110723057D01*
X73820904Y-110700000D01*
X73939096Y-110700000D01*
X74055012Y-110723057D01*
X74055012Y-110723057D01*
G37*
G36*
X72055012Y-110223057D02*
X72164207Y-110268287D01*
X72262481Y-110333952D01*
X72346048Y-110417519D01*
X72411713Y-110515793D01*
X72456943Y-110624988D01*
X72480000Y-110740904D01*
X72480000Y-110859096D01*
X72456943Y-110975012D01*
X72411713Y-111084207D01*
X72346048Y-111182481D01*
X72262481Y-111266048D01*
X72164207Y-111331713D01*
X72055012Y-111376943D01*
X71939096Y-111400000D01*
X71820904Y-111400000D01*
X71704988Y-111376943D01*
X71595793Y-111331713D01*
X71497519Y-111266048D01*
X71413952Y-111182481D01*
X71348287Y-111084207D01*
X71303057Y-110975012D01*
X71280000Y-110859096D01*
X71280000Y-110740904D01*
X71303057Y-110624988D01*
X71348287Y-110515793D01*
X71413952Y-110417519D01*
X71497519Y-110333952D01*
X71595793Y-110268287D01*
X71704988Y-110223057D01*
X71820904Y-110200000D01*
X71939096Y-110200000D01*
X72055012Y-110223057D01*
X72055012Y-110223057D01*
G37*
G36*
X48755012Y-110223057D02*
X48864207Y-110268287D01*
X48962481Y-110333952D01*
X49046048Y-110417519D01*
X49111713Y-110515793D01*
X49156943Y-110624988D01*
X49180000Y-110740904D01*
X49180000Y-110859096D01*
X49156943Y-110975012D01*
X49111713Y-111084207D01*
X49046048Y-111182481D01*
X48962481Y-111266048D01*
X48864207Y-111331713D01*
X48755012Y-111376943D01*
X48639096Y-111400000D01*
X48520904Y-111400000D01*
X48404988Y-111376943D01*
X48295793Y-111331713D01*
X48197519Y-111266048D01*
X48113952Y-111182481D01*
X48048287Y-111084207D01*
X48003057Y-110975012D01*
X47980000Y-110859096D01*
X47980000Y-110740904D01*
X48003057Y-110624988D01*
X48048287Y-110515793D01*
X48113952Y-110417519D01*
X48197519Y-110333952D01*
X48295793Y-110268287D01*
X48404988Y-110223057D01*
X48520904Y-110200000D01*
X48639096Y-110200000D01*
X48755012Y-110223057D01*
X48755012Y-110223057D01*
G37*
G36*
X76055012Y-109723057D02*
X76164207Y-109768287D01*
X76262481Y-109833952D01*
X76346048Y-109917519D01*
X76411713Y-110015793D01*
X76456943Y-110124988D01*
X76480000Y-110240904D01*
X76480000Y-110359096D01*
X76456943Y-110475012D01*
X76411713Y-110584207D01*
X76346048Y-110682481D01*
X76262481Y-110766048D01*
X76164207Y-110831713D01*
X76055012Y-110876943D01*
X75939096Y-110900000D01*
X75820904Y-110900000D01*
X75704988Y-110876943D01*
X75595793Y-110831713D01*
X75497519Y-110766048D01*
X75413952Y-110682481D01*
X75348287Y-110584207D01*
X75303057Y-110475012D01*
X75280000Y-110359096D01*
X75280000Y-110240904D01*
X75303057Y-110124988D01*
X75348287Y-110015793D01*
X75413952Y-109917519D01*
X75497519Y-109833952D01*
X75595793Y-109768287D01*
X75704988Y-109723057D01*
X75820904Y-109700000D01*
X75939096Y-109700000D01*
X76055012Y-109723057D01*
X76055012Y-109723057D01*
G37*
G36*
X52755012Y-109723057D02*
X52864207Y-109768287D01*
X52962481Y-109833952D01*
X53046048Y-109917519D01*
X53111713Y-110015793D01*
X53156943Y-110124988D01*
X53180000Y-110240904D01*
X53180000Y-110359096D01*
X53156943Y-110475012D01*
X53111713Y-110584207D01*
X53046048Y-110682481D01*
X52962481Y-110766048D01*
X52864207Y-110831713D01*
X52755012Y-110876943D01*
X52639096Y-110900000D01*
X52520904Y-110900000D01*
X52404988Y-110876943D01*
X52295793Y-110831713D01*
X52197519Y-110766048D01*
X52113952Y-110682481D01*
X52048287Y-110584207D01*
X52003057Y-110475012D01*
X51980000Y-110359096D01*
X51980000Y-110240904D01*
X52003057Y-110124988D01*
X52048287Y-110015793D01*
X52113952Y-109917519D01*
X52197519Y-109833952D01*
X52295793Y-109768287D01*
X52404988Y-109723057D01*
X52520904Y-109700000D01*
X52639096Y-109700000D01*
X52755012Y-109723057D01*
X52755012Y-109723057D01*
G37*
G36*
X50755012Y-109223057D02*
X50864207Y-109268287D01*
X50962481Y-109333952D01*
X51046048Y-109417519D01*
X51111713Y-109515793D01*
X51156943Y-109624988D01*
X51180000Y-109740904D01*
X51180000Y-109859096D01*
X51156943Y-109975012D01*
X51111713Y-110084207D01*
X51046048Y-110182481D01*
X50962481Y-110266048D01*
X50864207Y-110331713D01*
X50755012Y-110376943D01*
X50639096Y-110400000D01*
X50520904Y-110400000D01*
X50404988Y-110376943D01*
X50295793Y-110331713D01*
X50197519Y-110266048D01*
X50113952Y-110182481D01*
X50048287Y-110084207D01*
X50003057Y-109975012D01*
X49980000Y-109859096D01*
X49980000Y-109740904D01*
X50003057Y-109624988D01*
X50048287Y-109515793D01*
X50113952Y-109417519D01*
X50197519Y-109333952D01*
X50295793Y-109268287D01*
X50404988Y-109223057D01*
X50520904Y-109200000D01*
X50639096Y-109200000D01*
X50755012Y-109223057D01*
X50755012Y-109223057D01*
G37*
G36*
X74055012Y-109223057D02*
X74164207Y-109268287D01*
X74262481Y-109333952D01*
X74346048Y-109417519D01*
X74411713Y-109515793D01*
X74456943Y-109624988D01*
X74480000Y-109740904D01*
X74480000Y-109859096D01*
X74456943Y-109975012D01*
X74411713Y-110084207D01*
X74346048Y-110182481D01*
X74262481Y-110266048D01*
X74164207Y-110331713D01*
X74055012Y-110376943D01*
X73939096Y-110400000D01*
X73820904Y-110400000D01*
X73704988Y-110376943D01*
X73595793Y-110331713D01*
X73497519Y-110266048D01*
X73413952Y-110182481D01*
X73348287Y-110084207D01*
X73303057Y-109975012D01*
X73280000Y-109859096D01*
X73280000Y-109740904D01*
X73303057Y-109624988D01*
X73348287Y-109515793D01*
X73413952Y-109417519D01*
X73497519Y-109333952D01*
X73595793Y-109268287D01*
X73704988Y-109223057D01*
X73820904Y-109200000D01*
X73939096Y-109200000D01*
X74055012Y-109223057D01*
X74055012Y-109223057D01*
G37*
G36*
X48755012Y-108723057D02*
X48864207Y-108768287D01*
X48962481Y-108833952D01*
X49046048Y-108917519D01*
X49111713Y-109015793D01*
X49156943Y-109124988D01*
X49180000Y-109240904D01*
X49180000Y-109359096D01*
X49156943Y-109475012D01*
X49111713Y-109584207D01*
X49046048Y-109682481D01*
X48962481Y-109766048D01*
X48864207Y-109831713D01*
X48755012Y-109876943D01*
X48639096Y-109900000D01*
X48520904Y-109900000D01*
X48404988Y-109876943D01*
X48295793Y-109831713D01*
X48197519Y-109766048D01*
X48113952Y-109682481D01*
X48048287Y-109584207D01*
X48003057Y-109475012D01*
X47980000Y-109359096D01*
X47980000Y-109240904D01*
X48003057Y-109124988D01*
X48048287Y-109015793D01*
X48113952Y-108917519D01*
X48197519Y-108833952D01*
X48295793Y-108768287D01*
X48404988Y-108723057D01*
X48520904Y-108700000D01*
X48639096Y-108700000D01*
X48755012Y-108723057D01*
X48755012Y-108723057D01*
G37*
G36*
X72055012Y-108723057D02*
X72164207Y-108768287D01*
X72262481Y-108833952D01*
X72346048Y-108917519D01*
X72411713Y-109015793D01*
X72456943Y-109124988D01*
X72480000Y-109240904D01*
X72480000Y-109359096D01*
X72456943Y-109475012D01*
X72411713Y-109584207D01*
X72346048Y-109682481D01*
X72262481Y-109766048D01*
X72164207Y-109831713D01*
X72055012Y-109876943D01*
X71939096Y-109900000D01*
X71820904Y-109900000D01*
X71704988Y-109876943D01*
X71595793Y-109831713D01*
X71497519Y-109766048D01*
X71413952Y-109682481D01*
X71348287Y-109584207D01*
X71303057Y-109475012D01*
X71280000Y-109359096D01*
X71280000Y-109240904D01*
X71303057Y-109124988D01*
X71348287Y-109015793D01*
X71413952Y-108917519D01*
X71497519Y-108833952D01*
X71595793Y-108768287D01*
X71704988Y-108723057D01*
X71820904Y-108700000D01*
X71939096Y-108700000D01*
X72055012Y-108723057D01*
X72055012Y-108723057D01*
G37*
G36*
X76055012Y-108223057D02*
X76164207Y-108268287D01*
X76262481Y-108333952D01*
X76346048Y-108417519D01*
X76411713Y-108515793D01*
X76456943Y-108624988D01*
X76480000Y-108740904D01*
X76480000Y-108859096D01*
X76456943Y-108975012D01*
X76411713Y-109084207D01*
X76346048Y-109182481D01*
X76262481Y-109266048D01*
X76164207Y-109331713D01*
X76055012Y-109376943D01*
X75939096Y-109400000D01*
X75820904Y-109400000D01*
X75704988Y-109376943D01*
X75595793Y-109331713D01*
X75497519Y-109266048D01*
X75413952Y-109182481D01*
X75348287Y-109084207D01*
X75303057Y-108975012D01*
X75280000Y-108859096D01*
X75280000Y-108740904D01*
X75303057Y-108624988D01*
X75348287Y-108515793D01*
X75413952Y-108417519D01*
X75497519Y-108333952D01*
X75595793Y-108268287D01*
X75704988Y-108223057D01*
X75820904Y-108200000D01*
X75939096Y-108200000D01*
X76055012Y-108223057D01*
X76055012Y-108223057D01*
G37*
G36*
X52755012Y-108223057D02*
X52864207Y-108268287D01*
X52962481Y-108333952D01*
X53046048Y-108417519D01*
X53111713Y-108515793D01*
X53156943Y-108624988D01*
X53180000Y-108740904D01*
X53180000Y-108859096D01*
X53156943Y-108975012D01*
X53111713Y-109084207D01*
X53046048Y-109182481D01*
X52962481Y-109266048D01*
X52864207Y-109331713D01*
X52755012Y-109376943D01*
X52639096Y-109400000D01*
X52520904Y-109400000D01*
X52404988Y-109376943D01*
X52295793Y-109331713D01*
X52197519Y-109266048D01*
X52113952Y-109182481D01*
X52048287Y-109084207D01*
X52003057Y-108975012D01*
X51980000Y-108859096D01*
X51980000Y-108740904D01*
X52003057Y-108624988D01*
X52048287Y-108515793D01*
X52113952Y-108417519D01*
X52197519Y-108333952D01*
X52295793Y-108268287D01*
X52404988Y-108223057D01*
X52520904Y-108200000D01*
X52639096Y-108200000D01*
X52755012Y-108223057D01*
X52755012Y-108223057D01*
G37*
G36*
X74055012Y-107723057D02*
X74164207Y-107768287D01*
X74262481Y-107833952D01*
X74346048Y-107917519D01*
X74411713Y-108015793D01*
X74456943Y-108124988D01*
X74480000Y-108240904D01*
X74480000Y-108359096D01*
X74456943Y-108475012D01*
X74411713Y-108584207D01*
X74346048Y-108682481D01*
X74262481Y-108766048D01*
X74164207Y-108831713D01*
X74055012Y-108876943D01*
X73939096Y-108900000D01*
X73820904Y-108900000D01*
X73704988Y-108876943D01*
X73595793Y-108831713D01*
X73497519Y-108766048D01*
X73413952Y-108682481D01*
X73348287Y-108584207D01*
X73303057Y-108475012D01*
X73280000Y-108359096D01*
X73280000Y-108240904D01*
X73303057Y-108124988D01*
X73348287Y-108015793D01*
X73413952Y-107917519D01*
X73497519Y-107833952D01*
X73595793Y-107768287D01*
X73704988Y-107723057D01*
X73820904Y-107700000D01*
X73939096Y-107700000D01*
X74055012Y-107723057D01*
X74055012Y-107723057D01*
G37*
G36*
X50755012Y-107723057D02*
X50864207Y-107768287D01*
X50962481Y-107833952D01*
X51046048Y-107917519D01*
X51111713Y-108015793D01*
X51156943Y-108124988D01*
X51180000Y-108240904D01*
X51180000Y-108359096D01*
X51156943Y-108475012D01*
X51111713Y-108584207D01*
X51046048Y-108682481D01*
X50962481Y-108766048D01*
X50864207Y-108831713D01*
X50755012Y-108876943D01*
X50639096Y-108900000D01*
X50520904Y-108900000D01*
X50404988Y-108876943D01*
X50295793Y-108831713D01*
X50197519Y-108766048D01*
X50113952Y-108682481D01*
X50048287Y-108584207D01*
X50003057Y-108475012D01*
X49980000Y-108359096D01*
X49980000Y-108240904D01*
X50003057Y-108124988D01*
X50048287Y-108015793D01*
X50113952Y-107917519D01*
X50197519Y-107833952D01*
X50295793Y-107768287D01*
X50404988Y-107723057D01*
X50520904Y-107700000D01*
X50639096Y-107700000D01*
X50755012Y-107723057D01*
X50755012Y-107723057D01*
G37*
G36*
X71463352Y-104530743D02*
X71608941Y-104591048D01*
X71739973Y-104678601D01*
X71851399Y-104790027D01*
X71938952Y-104921059D01*
X71999257Y-105066648D01*
X72030000Y-105221205D01*
X72030000Y-105378795D01*
X71999257Y-105533352D01*
X71938952Y-105678941D01*
X71851399Y-105809973D01*
X71739973Y-105921399D01*
X71608941Y-106008952D01*
X71463352Y-106069257D01*
X71308795Y-106100000D01*
X71151205Y-106100000D01*
X70996648Y-106069257D01*
X70851059Y-106008952D01*
X70720027Y-105921399D01*
X70608601Y-105809973D01*
X70521048Y-105678941D01*
X70460743Y-105533352D01*
X70430000Y-105378795D01*
X70430000Y-105221205D01*
X70460743Y-105066648D01*
X70521048Y-104921059D01*
X70608601Y-104790027D01*
X70720027Y-104678601D01*
X70851059Y-104591048D01*
X70996648Y-104530743D01*
X71151205Y-104500000D01*
X71308795Y-104500000D01*
X71463352Y-104530743D01*
X71463352Y-104530743D01*
G37*
G36*
X63405012Y-104073057D02*
X63514207Y-104118287D01*
X63612481Y-104183952D01*
X63696048Y-104267519D01*
X63761713Y-104365793D01*
X63806943Y-104474988D01*
X63830000Y-104590904D01*
X63830000Y-104709096D01*
X63806943Y-104825012D01*
X63761713Y-104934207D01*
X63696048Y-105032481D01*
X63612481Y-105116048D01*
X63514207Y-105181713D01*
X63405012Y-105226943D01*
X63289096Y-105250000D01*
X63170904Y-105250000D01*
X63054988Y-105226943D01*
X62945793Y-105181713D01*
X62847519Y-105116048D01*
X62763952Y-105032481D01*
X62698287Y-104934207D01*
X62653057Y-104825012D01*
X62630000Y-104709096D01*
X62630000Y-104590904D01*
X62653057Y-104474988D01*
X62698287Y-104365793D01*
X62763952Y-104267519D01*
X62847519Y-104183952D01*
X62945793Y-104118287D01*
X63054988Y-104073057D01*
X63170904Y-104050000D01*
X63289096Y-104050000D01*
X63405012Y-104073057D01*
X63405012Y-104073057D01*
G37*
G36*
X57405012Y-104073057D02*
X57514207Y-104118287D01*
X57612481Y-104183952D01*
X57696048Y-104267519D01*
X57761713Y-104365793D01*
X57806943Y-104474988D01*
X57830000Y-104590904D01*
X57830000Y-104709096D01*
X57806943Y-104825012D01*
X57761713Y-104934207D01*
X57696048Y-105032481D01*
X57612481Y-105116048D01*
X57514207Y-105181713D01*
X57405012Y-105226943D01*
X57289096Y-105250000D01*
X57170904Y-105250000D01*
X57054988Y-105226943D01*
X56945793Y-105181713D01*
X56847519Y-105116048D01*
X56763952Y-105032481D01*
X56698287Y-104934207D01*
X56653057Y-104825012D01*
X56630000Y-104709096D01*
X56630000Y-104590904D01*
X56653057Y-104474988D01*
X56698287Y-104365793D01*
X56763952Y-104267519D01*
X56847519Y-104183952D01*
X56945793Y-104118287D01*
X57054988Y-104073057D01*
X57170904Y-104050000D01*
X57289096Y-104050000D01*
X57405012Y-104073057D01*
X57405012Y-104073057D01*
G37*
G36*
X67905012Y-104073057D02*
X68014207Y-104118287D01*
X68112481Y-104183952D01*
X68196048Y-104267519D01*
X68261713Y-104365793D01*
X68306943Y-104474988D01*
X68330000Y-104590904D01*
X68330000Y-104709096D01*
X68306943Y-104825012D01*
X68261713Y-104934207D01*
X68196048Y-105032481D01*
X68112481Y-105116048D01*
X68014207Y-105181713D01*
X67905012Y-105226943D01*
X67789096Y-105250000D01*
X67670904Y-105250000D01*
X67554988Y-105226943D01*
X67445793Y-105181713D01*
X67347519Y-105116048D01*
X67263952Y-105032481D01*
X67198287Y-104934207D01*
X67153057Y-104825012D01*
X67130000Y-104709096D01*
X67130000Y-104590904D01*
X67153057Y-104474988D01*
X67198287Y-104365793D01*
X67263952Y-104267519D01*
X67347519Y-104183952D01*
X67445793Y-104118287D01*
X67554988Y-104073057D01*
X67670904Y-104050000D01*
X67789096Y-104050000D01*
X67905012Y-104073057D01*
X67905012Y-104073057D01*
G37*
G36*
X60405012Y-104073057D02*
X60514207Y-104118287D01*
X60612481Y-104183952D01*
X60696048Y-104267519D01*
X60761713Y-104365793D01*
X60806943Y-104474988D01*
X60830000Y-104590904D01*
X60830000Y-104709096D01*
X60806943Y-104825012D01*
X60761713Y-104934207D01*
X60696048Y-105032481D01*
X60612481Y-105116048D01*
X60514207Y-105181713D01*
X60405012Y-105226943D01*
X60289096Y-105250000D01*
X60170904Y-105250000D01*
X60054988Y-105226943D01*
X59945793Y-105181713D01*
X59847519Y-105116048D01*
X59763952Y-105032481D01*
X59698287Y-104934207D01*
X59653057Y-104825012D01*
X59630000Y-104709096D01*
X59630000Y-104590904D01*
X59653057Y-104474988D01*
X59698287Y-104365793D01*
X59763952Y-104267519D01*
X59847519Y-104183952D01*
X59945793Y-104118287D01*
X60054988Y-104073057D01*
X60170904Y-104050000D01*
X60289096Y-104050000D01*
X60405012Y-104073057D01*
X60405012Y-104073057D01*
G37*
G36*
X64905012Y-104073057D02*
X65014207Y-104118287D01*
X65112481Y-104183952D01*
X65196048Y-104267519D01*
X65261713Y-104365793D01*
X65306943Y-104474988D01*
X65330000Y-104590904D01*
X65330000Y-104709096D01*
X65306943Y-104825012D01*
X65261713Y-104934207D01*
X65196048Y-105032481D01*
X65112481Y-105116048D01*
X65014207Y-105181713D01*
X64905012Y-105226943D01*
X64789096Y-105250000D01*
X64670904Y-105250000D01*
X64554988Y-105226943D01*
X64445793Y-105181713D01*
X64347519Y-105116048D01*
X64263952Y-105032481D01*
X64198287Y-104934207D01*
X64153057Y-104825012D01*
X64130000Y-104709096D01*
X64130000Y-104590904D01*
X64153057Y-104474988D01*
X64198287Y-104365793D01*
X64263952Y-104267519D01*
X64347519Y-104183952D01*
X64445793Y-104118287D01*
X64554988Y-104073057D01*
X64670904Y-104050000D01*
X64789096Y-104050000D01*
X64905012Y-104073057D01*
X64905012Y-104073057D01*
G37*
G36*
X58905012Y-104073057D02*
X59014207Y-104118287D01*
X59112481Y-104183952D01*
X59196048Y-104267519D01*
X59261713Y-104365793D01*
X59306943Y-104474988D01*
X59330000Y-104590904D01*
X59330000Y-104709096D01*
X59306943Y-104825012D01*
X59261713Y-104934207D01*
X59196048Y-105032481D01*
X59112481Y-105116048D01*
X59014207Y-105181713D01*
X58905012Y-105226943D01*
X58789096Y-105250000D01*
X58670904Y-105250000D01*
X58554988Y-105226943D01*
X58445793Y-105181713D01*
X58347519Y-105116048D01*
X58263952Y-105032481D01*
X58198287Y-104934207D01*
X58153057Y-104825012D01*
X58130000Y-104709096D01*
X58130000Y-104590904D01*
X58153057Y-104474988D01*
X58198287Y-104365793D01*
X58263952Y-104267519D01*
X58347519Y-104183952D01*
X58445793Y-104118287D01*
X58554988Y-104073057D01*
X58670904Y-104050000D01*
X58789096Y-104050000D01*
X58905012Y-104073057D01*
X58905012Y-104073057D01*
G37*
G36*
X61905012Y-104073057D02*
X62014207Y-104118287D01*
X62112481Y-104183952D01*
X62196048Y-104267519D01*
X62261713Y-104365793D01*
X62306943Y-104474988D01*
X62330000Y-104590904D01*
X62330000Y-104709096D01*
X62306943Y-104825012D01*
X62261713Y-104934207D01*
X62196048Y-105032481D01*
X62112481Y-105116048D01*
X62014207Y-105181713D01*
X61905012Y-105226943D01*
X61789096Y-105250000D01*
X61670904Y-105250000D01*
X61554988Y-105226943D01*
X61445793Y-105181713D01*
X61347519Y-105116048D01*
X61263952Y-105032481D01*
X61198287Y-104934207D01*
X61153057Y-104825012D01*
X61130000Y-104709096D01*
X61130000Y-104590904D01*
X61153057Y-104474988D01*
X61198287Y-104365793D01*
X61263952Y-104267519D01*
X61347519Y-104183952D01*
X61445793Y-104118287D01*
X61554988Y-104073057D01*
X61670904Y-104050000D01*
X61789096Y-104050000D01*
X61905012Y-104073057D01*
X61905012Y-104073057D01*
G37*
G36*
X66405012Y-104073057D02*
X66514207Y-104118287D01*
X66612481Y-104183952D01*
X66696048Y-104267519D01*
X66761713Y-104365793D01*
X66806943Y-104474988D01*
X66830000Y-104590904D01*
X66830000Y-104709096D01*
X66806943Y-104825012D01*
X66761713Y-104934207D01*
X66696048Y-105032481D01*
X66612481Y-105116048D01*
X66514207Y-105181713D01*
X66405012Y-105226943D01*
X66289096Y-105250000D01*
X66170904Y-105250000D01*
X66054988Y-105226943D01*
X65945793Y-105181713D01*
X65847519Y-105116048D01*
X65763952Y-105032481D01*
X65698287Y-104934207D01*
X65653057Y-104825012D01*
X65630000Y-104709096D01*
X65630000Y-104590904D01*
X65653057Y-104474988D01*
X65698287Y-104365793D01*
X65763952Y-104267519D01*
X65847519Y-104183952D01*
X65945793Y-104118287D01*
X66054988Y-104073057D01*
X66170904Y-104050000D01*
X66289096Y-104050000D01*
X66405012Y-104073057D01*
X66405012Y-104073057D01*
G37*
G36*
X66905012Y-102073057D02*
X67014207Y-102118287D01*
X67112481Y-102183952D01*
X67196048Y-102267519D01*
X67261713Y-102365793D01*
X67306943Y-102474988D01*
X67330000Y-102590904D01*
X67330000Y-102709096D01*
X67306943Y-102825012D01*
X67261713Y-102934207D01*
X67196048Y-103032481D01*
X67112481Y-103116048D01*
X67014207Y-103181713D01*
X66905012Y-103226943D01*
X66789096Y-103250000D01*
X66670904Y-103250000D01*
X66554988Y-103226943D01*
X66445793Y-103181713D01*
X66347519Y-103116048D01*
X66263952Y-103032481D01*
X66198287Y-102934207D01*
X66153057Y-102825012D01*
X66130000Y-102709096D01*
X66130000Y-102590904D01*
X66153057Y-102474988D01*
X66198287Y-102365793D01*
X66263952Y-102267519D01*
X66347519Y-102183952D01*
X66445793Y-102118287D01*
X66554988Y-102073057D01*
X66670904Y-102050000D01*
X66789096Y-102050000D01*
X66905012Y-102073057D01*
X66905012Y-102073057D01*
G37*
G36*
X68405012Y-102073057D02*
X68514207Y-102118287D01*
X68612481Y-102183952D01*
X68696048Y-102267519D01*
X68761713Y-102365793D01*
X68806943Y-102474988D01*
X68830000Y-102590904D01*
X68830000Y-102709096D01*
X68806943Y-102825012D01*
X68761713Y-102934207D01*
X68696048Y-103032481D01*
X68612481Y-103116048D01*
X68514207Y-103181713D01*
X68405012Y-103226943D01*
X68289096Y-103250000D01*
X68170904Y-103250000D01*
X68054988Y-103226943D01*
X67945793Y-103181713D01*
X67847519Y-103116048D01*
X67763952Y-103032481D01*
X67698287Y-102934207D01*
X67653057Y-102825012D01*
X67630000Y-102709096D01*
X67630000Y-102590904D01*
X67653057Y-102474988D01*
X67698287Y-102365793D01*
X67763952Y-102267519D01*
X67847519Y-102183952D01*
X67945793Y-102118287D01*
X68054988Y-102073057D01*
X68170904Y-102050000D01*
X68289096Y-102050000D01*
X68405012Y-102073057D01*
X68405012Y-102073057D01*
G37*
G36*
X56405012Y-102073057D02*
X56514207Y-102118287D01*
X56612481Y-102183952D01*
X56696048Y-102267519D01*
X56761713Y-102365793D01*
X56806943Y-102474988D01*
X56830000Y-102590904D01*
X56830000Y-102709096D01*
X56806943Y-102825012D01*
X56761713Y-102934207D01*
X56696048Y-103032481D01*
X56612481Y-103116048D01*
X56514207Y-103181713D01*
X56405012Y-103226943D01*
X56289096Y-103250000D01*
X56170904Y-103250000D01*
X56054988Y-103226943D01*
X55945793Y-103181713D01*
X55847519Y-103116048D01*
X55763952Y-103032481D01*
X55698287Y-102934207D01*
X55653057Y-102825012D01*
X55630000Y-102709096D01*
X55630000Y-102590904D01*
X55653057Y-102474988D01*
X55698287Y-102365793D01*
X55763952Y-102267519D01*
X55847519Y-102183952D01*
X55945793Y-102118287D01*
X56054988Y-102073057D01*
X56170904Y-102050000D01*
X56289096Y-102050000D01*
X56405012Y-102073057D01*
X56405012Y-102073057D01*
G37*
G36*
X57905012Y-102073057D02*
X58014207Y-102118287D01*
X58112481Y-102183952D01*
X58196048Y-102267519D01*
X58261713Y-102365793D01*
X58306943Y-102474988D01*
X58330000Y-102590904D01*
X58330000Y-102709096D01*
X58306943Y-102825012D01*
X58261713Y-102934207D01*
X58196048Y-103032481D01*
X58112481Y-103116048D01*
X58014207Y-103181713D01*
X57905012Y-103226943D01*
X57789096Y-103250000D01*
X57670904Y-103250000D01*
X57554988Y-103226943D01*
X57445793Y-103181713D01*
X57347519Y-103116048D01*
X57263952Y-103032481D01*
X57198287Y-102934207D01*
X57153057Y-102825012D01*
X57130000Y-102709096D01*
X57130000Y-102590904D01*
X57153057Y-102474988D01*
X57198287Y-102365793D01*
X57263952Y-102267519D01*
X57347519Y-102183952D01*
X57445793Y-102118287D01*
X57554988Y-102073057D01*
X57670904Y-102050000D01*
X57789096Y-102050000D01*
X57905012Y-102073057D01*
X57905012Y-102073057D01*
G37*
G36*
X63905012Y-102073057D02*
X64014207Y-102118287D01*
X64112481Y-102183952D01*
X64196048Y-102267519D01*
X64261713Y-102365793D01*
X64306943Y-102474988D01*
X64330000Y-102590904D01*
X64330000Y-102709096D01*
X64306943Y-102825012D01*
X64261713Y-102934207D01*
X64196048Y-103032481D01*
X64112481Y-103116048D01*
X64014207Y-103181713D01*
X63905012Y-103226943D01*
X63789096Y-103250000D01*
X63670904Y-103250000D01*
X63554988Y-103226943D01*
X63445793Y-103181713D01*
X63347519Y-103116048D01*
X63263952Y-103032481D01*
X63198287Y-102934207D01*
X63153057Y-102825012D01*
X63130000Y-102709096D01*
X63130000Y-102590904D01*
X63153057Y-102474988D01*
X63198287Y-102365793D01*
X63263952Y-102267519D01*
X63347519Y-102183952D01*
X63445793Y-102118287D01*
X63554988Y-102073057D01*
X63670904Y-102050000D01*
X63789096Y-102050000D01*
X63905012Y-102073057D01*
X63905012Y-102073057D01*
G37*
G36*
X62405012Y-102073057D02*
X62514207Y-102118287D01*
X62612481Y-102183952D01*
X62696048Y-102267519D01*
X62761713Y-102365793D01*
X62806943Y-102474988D01*
X62830000Y-102590904D01*
X62830000Y-102709096D01*
X62806943Y-102825012D01*
X62761713Y-102934207D01*
X62696048Y-103032481D01*
X62612481Y-103116048D01*
X62514207Y-103181713D01*
X62405012Y-103226943D01*
X62289096Y-103250000D01*
X62170904Y-103250000D01*
X62054988Y-103226943D01*
X61945793Y-103181713D01*
X61847519Y-103116048D01*
X61763952Y-103032481D01*
X61698287Y-102934207D01*
X61653057Y-102825012D01*
X61630000Y-102709096D01*
X61630000Y-102590904D01*
X61653057Y-102474988D01*
X61698287Y-102365793D01*
X61763952Y-102267519D01*
X61847519Y-102183952D01*
X61945793Y-102118287D01*
X62054988Y-102073057D01*
X62170904Y-102050000D01*
X62289096Y-102050000D01*
X62405012Y-102073057D01*
X62405012Y-102073057D01*
G37*
G36*
X60905012Y-102073057D02*
X61014207Y-102118287D01*
X61112481Y-102183952D01*
X61196048Y-102267519D01*
X61261713Y-102365793D01*
X61306943Y-102474988D01*
X61330000Y-102590904D01*
X61330000Y-102709096D01*
X61306943Y-102825012D01*
X61261713Y-102934207D01*
X61196048Y-103032481D01*
X61112481Y-103116048D01*
X61014207Y-103181713D01*
X60905012Y-103226943D01*
X60789096Y-103250000D01*
X60670904Y-103250000D01*
X60554988Y-103226943D01*
X60445793Y-103181713D01*
X60347519Y-103116048D01*
X60263952Y-103032481D01*
X60198287Y-102934207D01*
X60153057Y-102825012D01*
X60130000Y-102709096D01*
X60130000Y-102590904D01*
X60153057Y-102474988D01*
X60198287Y-102365793D01*
X60263952Y-102267519D01*
X60347519Y-102183952D01*
X60445793Y-102118287D01*
X60554988Y-102073057D01*
X60670904Y-102050000D01*
X60789096Y-102050000D01*
X60905012Y-102073057D01*
X60905012Y-102073057D01*
G37*
G36*
X59405012Y-102073057D02*
X59514207Y-102118287D01*
X59612481Y-102183952D01*
X59696048Y-102267519D01*
X59761713Y-102365793D01*
X59806943Y-102474988D01*
X59830000Y-102590904D01*
X59830000Y-102709096D01*
X59806943Y-102825012D01*
X59761713Y-102934207D01*
X59696048Y-103032481D01*
X59612481Y-103116048D01*
X59514207Y-103181713D01*
X59405012Y-103226943D01*
X59289096Y-103250000D01*
X59170904Y-103250000D01*
X59054988Y-103226943D01*
X58945793Y-103181713D01*
X58847519Y-103116048D01*
X58763952Y-103032481D01*
X58698287Y-102934207D01*
X58653057Y-102825012D01*
X58630000Y-102709096D01*
X58630000Y-102590904D01*
X58653057Y-102474988D01*
X58698287Y-102365793D01*
X58763952Y-102267519D01*
X58847519Y-102183952D01*
X58945793Y-102118287D01*
X59054988Y-102073057D01*
X59170904Y-102050000D01*
X59289096Y-102050000D01*
X59405012Y-102073057D01*
X59405012Y-102073057D01*
G37*
G36*
X65405012Y-102073057D02*
X65514207Y-102118287D01*
X65612481Y-102183952D01*
X65696048Y-102267519D01*
X65761713Y-102365793D01*
X65806943Y-102474988D01*
X65830000Y-102590904D01*
X65830000Y-102709096D01*
X65806943Y-102825012D01*
X65761713Y-102934207D01*
X65696048Y-103032481D01*
X65612481Y-103116048D01*
X65514207Y-103181713D01*
X65405012Y-103226943D01*
X65289096Y-103250000D01*
X65170904Y-103250000D01*
X65054988Y-103226943D01*
X64945793Y-103181713D01*
X64847519Y-103116048D01*
X64763952Y-103032481D01*
X64698287Y-102934207D01*
X64653057Y-102825012D01*
X64630000Y-102709096D01*
X64630000Y-102590904D01*
X64653057Y-102474988D01*
X64698287Y-102365793D01*
X64763952Y-102267519D01*
X64847519Y-102183952D01*
X64945793Y-102118287D01*
X65054988Y-102073057D01*
X65170904Y-102050000D01*
X65289096Y-102050000D01*
X65405012Y-102073057D01*
X65405012Y-102073057D01*
G37*
G36*
X62905012Y-100073057D02*
X63014207Y-100118287D01*
X63112481Y-100183952D01*
X63196048Y-100267519D01*
X63261713Y-100365793D01*
X63306943Y-100474988D01*
X63330000Y-100590904D01*
X63330000Y-100709096D01*
X63306943Y-100825012D01*
X63261713Y-100934207D01*
X63196048Y-101032481D01*
X63112481Y-101116048D01*
X63014207Y-101181713D01*
X62905012Y-101226943D01*
X62789096Y-101250000D01*
X62670904Y-101250000D01*
X62554988Y-101226943D01*
X62445793Y-101181713D01*
X62347519Y-101116048D01*
X62263952Y-101032481D01*
X62198287Y-100934207D01*
X62153057Y-100825012D01*
X62130000Y-100709096D01*
X62130000Y-100590904D01*
X62153057Y-100474988D01*
X62198287Y-100365793D01*
X62263952Y-100267519D01*
X62347519Y-100183952D01*
X62445793Y-100118287D01*
X62554988Y-100073057D01*
X62670904Y-100050000D01*
X62789096Y-100050000D01*
X62905012Y-100073057D01*
X62905012Y-100073057D01*
G37*
G36*
X65905012Y-100073057D02*
X66014207Y-100118287D01*
X66112481Y-100183952D01*
X66196048Y-100267519D01*
X66261713Y-100365793D01*
X66306943Y-100474988D01*
X66330000Y-100590904D01*
X66330000Y-100709096D01*
X66306943Y-100825012D01*
X66261713Y-100934207D01*
X66196048Y-101032481D01*
X66112481Y-101116048D01*
X66014207Y-101181713D01*
X65905012Y-101226943D01*
X65789096Y-101250000D01*
X65670904Y-101250000D01*
X65554988Y-101226943D01*
X65445793Y-101181713D01*
X65347519Y-101116048D01*
X65263952Y-101032481D01*
X65198287Y-100934207D01*
X65153057Y-100825012D01*
X65130000Y-100709096D01*
X65130000Y-100590904D01*
X65153057Y-100474988D01*
X65198287Y-100365793D01*
X65263952Y-100267519D01*
X65347519Y-100183952D01*
X65445793Y-100118287D01*
X65554988Y-100073057D01*
X65670904Y-100050000D01*
X65789096Y-100050000D01*
X65905012Y-100073057D01*
X65905012Y-100073057D01*
G37*
G36*
X61405012Y-100073057D02*
X61514207Y-100118287D01*
X61612481Y-100183952D01*
X61696048Y-100267519D01*
X61761713Y-100365793D01*
X61806943Y-100474988D01*
X61830000Y-100590904D01*
X61830000Y-100709096D01*
X61806943Y-100825012D01*
X61761713Y-100934207D01*
X61696048Y-101032481D01*
X61612481Y-101116048D01*
X61514207Y-101181713D01*
X61405012Y-101226943D01*
X61289096Y-101250000D01*
X61170904Y-101250000D01*
X61054988Y-101226943D01*
X60945793Y-101181713D01*
X60847519Y-101116048D01*
X60763952Y-101032481D01*
X60698287Y-100934207D01*
X60653057Y-100825012D01*
X60630000Y-100709096D01*
X60630000Y-100590904D01*
X60653057Y-100474988D01*
X60698287Y-100365793D01*
X60763952Y-100267519D01*
X60847519Y-100183952D01*
X60945793Y-100118287D01*
X61054988Y-100073057D01*
X61170904Y-100050000D01*
X61289096Y-100050000D01*
X61405012Y-100073057D01*
X61405012Y-100073057D01*
G37*
G36*
X67405012Y-100073057D02*
X67514207Y-100118287D01*
X67612481Y-100183952D01*
X67696048Y-100267519D01*
X67761713Y-100365793D01*
X67806943Y-100474988D01*
X67830000Y-100590904D01*
X67830000Y-100709096D01*
X67806943Y-100825012D01*
X67761713Y-100934207D01*
X67696048Y-101032481D01*
X67612481Y-101116048D01*
X67514207Y-101181713D01*
X67405012Y-101226943D01*
X67289096Y-101250000D01*
X67170904Y-101250000D01*
X67054988Y-101226943D01*
X66945793Y-101181713D01*
X66847519Y-101116048D01*
X66763952Y-101032481D01*
X66698287Y-100934207D01*
X66653057Y-100825012D01*
X66630000Y-100709096D01*
X66630000Y-100590904D01*
X66653057Y-100474988D01*
X66698287Y-100365793D01*
X66763952Y-100267519D01*
X66847519Y-100183952D01*
X66945793Y-100118287D01*
X67054988Y-100073057D01*
X67170904Y-100050000D01*
X67289096Y-100050000D01*
X67405012Y-100073057D01*
X67405012Y-100073057D01*
G37*
G36*
X58405012Y-100073057D02*
X58514207Y-100118287D01*
X58612481Y-100183952D01*
X58696048Y-100267519D01*
X58761713Y-100365793D01*
X58806943Y-100474988D01*
X58830000Y-100590904D01*
X58830000Y-100709096D01*
X58806943Y-100825012D01*
X58761713Y-100934207D01*
X58696048Y-101032481D01*
X58612481Y-101116048D01*
X58514207Y-101181713D01*
X58405012Y-101226943D01*
X58289096Y-101250000D01*
X58170904Y-101250000D01*
X58054988Y-101226943D01*
X57945793Y-101181713D01*
X57847519Y-101116048D01*
X57763952Y-101032481D01*
X57698287Y-100934207D01*
X57653057Y-100825012D01*
X57630000Y-100709096D01*
X57630000Y-100590904D01*
X57653057Y-100474988D01*
X57698287Y-100365793D01*
X57763952Y-100267519D01*
X57847519Y-100183952D01*
X57945793Y-100118287D01*
X58054988Y-100073057D01*
X58170904Y-100050000D01*
X58289096Y-100050000D01*
X58405012Y-100073057D01*
X58405012Y-100073057D01*
G37*
G36*
X56905012Y-100073057D02*
X57014207Y-100118287D01*
X57112481Y-100183952D01*
X57196048Y-100267519D01*
X57261713Y-100365793D01*
X57306943Y-100474988D01*
X57330000Y-100590904D01*
X57330000Y-100709096D01*
X57306943Y-100825012D01*
X57261713Y-100934207D01*
X57196048Y-101032481D01*
X57112481Y-101116048D01*
X57014207Y-101181713D01*
X56905012Y-101226943D01*
X56789096Y-101250000D01*
X56670904Y-101250000D01*
X56554988Y-101226943D01*
X56445793Y-101181713D01*
X56347519Y-101116048D01*
X56263952Y-101032481D01*
X56198287Y-100934207D01*
X56153057Y-100825012D01*
X56130000Y-100709096D01*
X56130000Y-100590904D01*
X56153057Y-100474988D01*
X56198287Y-100365793D01*
X56263952Y-100267519D01*
X56347519Y-100183952D01*
X56445793Y-100118287D01*
X56554988Y-100073057D01*
X56670904Y-100050000D01*
X56789096Y-100050000D01*
X56905012Y-100073057D01*
X56905012Y-100073057D01*
G37*
G36*
X59905012Y-100073057D02*
X60014207Y-100118287D01*
X60112481Y-100183952D01*
X60196048Y-100267519D01*
X60261713Y-100365793D01*
X60306943Y-100474988D01*
X60330000Y-100590904D01*
X60330000Y-100709096D01*
X60306943Y-100825012D01*
X60261713Y-100934207D01*
X60196048Y-101032481D01*
X60112481Y-101116048D01*
X60014207Y-101181713D01*
X59905012Y-101226943D01*
X59789096Y-101250000D01*
X59670904Y-101250000D01*
X59554988Y-101226943D01*
X59445793Y-101181713D01*
X59347519Y-101116048D01*
X59263952Y-101032481D01*
X59198287Y-100934207D01*
X59153057Y-100825012D01*
X59130000Y-100709096D01*
X59130000Y-100590904D01*
X59153057Y-100474988D01*
X59198287Y-100365793D01*
X59263952Y-100267519D01*
X59347519Y-100183952D01*
X59445793Y-100118287D01*
X59554988Y-100073057D01*
X59670904Y-100050000D01*
X59789096Y-100050000D01*
X59905012Y-100073057D01*
X59905012Y-100073057D01*
G37*
G36*
X64405012Y-100073057D02*
X64514207Y-100118287D01*
X64612481Y-100183952D01*
X64696048Y-100267519D01*
X64761713Y-100365793D01*
X64806943Y-100474988D01*
X64830000Y-100590904D01*
X64830000Y-100709096D01*
X64806943Y-100825012D01*
X64761713Y-100934207D01*
X64696048Y-101032481D01*
X64612481Y-101116048D01*
X64514207Y-101181713D01*
X64405012Y-101226943D01*
X64289096Y-101250000D01*
X64170904Y-101250000D01*
X64054988Y-101226943D01*
X63945793Y-101181713D01*
X63847519Y-101116048D01*
X63763952Y-101032481D01*
X63698287Y-100934207D01*
X63653057Y-100825012D01*
X63630000Y-100709096D01*
X63630000Y-100590904D01*
X63653057Y-100474988D01*
X63698287Y-100365793D01*
X63763952Y-100267519D01*
X63847519Y-100183952D01*
X63945793Y-100118287D01*
X64054988Y-100073057D01*
X64170904Y-100050000D01*
X64289096Y-100050000D01*
X64405012Y-100073057D01*
X64405012Y-100073057D01*
G37*
G36*
X74660000Y-97520000D02*
X72660000Y-97520000D01*
X72660000Y-95520000D01*
X74660000Y-95520000D01*
X74660000Y-97520000D01*
X74660000Y-97520000D01*
G37*
G36*
X67040000Y-97520000D02*
X65040000Y-97520000D01*
X65040000Y-95520000D01*
X67040000Y-95520000D01*
X67040000Y-97520000D01*
X67040000Y-97520000D01*
G37*
G36*
X77200000Y-97520000D02*
X75200000Y-97520000D01*
X75200000Y-95520000D01*
X77200000Y-95520000D01*
X77200000Y-97520000D01*
X77200000Y-97520000D01*
G37*
G36*
X69580000Y-97520000D02*
X67580000Y-97520000D01*
X67580000Y-95520000D01*
X69580000Y-95520000D01*
X69580000Y-97520000D01*
X69580000Y-97520000D01*
G37*
G36*
X61960000Y-97520000D02*
X59960000Y-97520000D01*
X59960000Y-95520000D01*
X61960000Y-95520000D01*
X61960000Y-97520000D01*
X61960000Y-97520000D01*
G37*
G36*
X64500000Y-97520000D02*
X62500000Y-97520000D01*
X62500000Y-95520000D01*
X64500000Y-95520000D01*
X64500000Y-97520000D01*
X64500000Y-97520000D01*
G37*
G36*
X72120000Y-97520000D02*
X70120000Y-97520000D01*
X70120000Y-95520000D01*
X72120000Y-95520000D01*
X72120000Y-97520000D01*
X72120000Y-97520000D01*
G37*
G36*
X50203992Y-95824076D02*
X50237883Y-95834357D01*
X50269111Y-95851048D01*
X50296485Y-95873515D01*
X50318952Y-95900889D01*
X50335643Y-95932117D01*
X50345924Y-95966008D01*
X50350000Y-96007391D01*
X50350000Y-97032609D01*
X50345924Y-97073992D01*
X50335643Y-97107883D01*
X50318952Y-97139111D01*
X50296485Y-97166485D01*
X50269111Y-97188952D01*
X50237883Y-97205643D01*
X50203992Y-97215924D01*
X50162609Y-97220000D01*
X49562391Y-97220000D01*
X49521008Y-97215924D01*
X49487117Y-97205643D01*
X49455889Y-97188952D01*
X49428515Y-97166485D01*
X49406048Y-97139111D01*
X49389357Y-97107883D01*
X49379076Y-97073992D01*
X49375000Y-97032609D01*
X49375000Y-96007391D01*
X49379076Y-95966008D01*
X49389357Y-95932117D01*
X49406048Y-95900889D01*
X49428515Y-95873515D01*
X49455889Y-95851048D01*
X49487117Y-95834357D01*
X49521008Y-95824076D01*
X49562391Y-95820000D01*
X50162609Y-95820000D01*
X50203992Y-95824076D01*
X50203992Y-95824076D01*
G37*
G36*
X52078992Y-95824076D02*
X52112883Y-95834357D01*
X52144111Y-95851048D01*
X52171485Y-95873515D01*
X52193952Y-95900889D01*
X52210643Y-95932117D01*
X52220924Y-95966008D01*
X52225000Y-96007391D01*
X52225000Y-97032609D01*
X52220924Y-97073992D01*
X52210643Y-97107883D01*
X52193952Y-97139111D01*
X52171485Y-97166485D01*
X52144111Y-97188952D01*
X52112883Y-97205643D01*
X52078992Y-97215924D01*
X52037609Y-97220000D01*
X51437391Y-97220000D01*
X51396008Y-97215924D01*
X51362117Y-97205643D01*
X51330889Y-97188952D01*
X51303515Y-97166485D01*
X51281048Y-97139111D01*
X51264357Y-97107883D01*
X51254076Y-97073992D01*
X51250000Y-97032609D01*
X51250000Y-96007391D01*
X51254076Y-95966008D01*
X51264357Y-95932117D01*
X51281048Y-95900889D01*
X51303515Y-95873515D01*
X51330889Y-95851048D01*
X51362117Y-95834357D01*
X51396008Y-95824076D01*
X51437391Y-95820000D01*
X52037609Y-95820000D01*
X52078992Y-95824076D01*
X52078992Y-95824076D01*
G37*
G36*
X54013992Y-95824076D02*
X54047883Y-95834357D01*
X54079111Y-95851048D01*
X54106485Y-95873515D01*
X54128952Y-95900889D01*
X54145643Y-95932117D01*
X54155924Y-95966008D01*
X54160000Y-96007391D01*
X54160000Y-97032609D01*
X54155924Y-97073992D01*
X54145643Y-97107883D01*
X54128952Y-97139111D01*
X54106485Y-97166485D01*
X54079111Y-97188952D01*
X54047883Y-97205643D01*
X54013992Y-97215924D01*
X53972609Y-97220000D01*
X53372391Y-97220000D01*
X53331008Y-97215924D01*
X53297117Y-97205643D01*
X53265889Y-97188952D01*
X53238515Y-97166485D01*
X53216048Y-97139111D01*
X53199357Y-97107883D01*
X53189076Y-97073992D01*
X53185000Y-97032609D01*
X53185000Y-96007391D01*
X53189076Y-95966008D01*
X53199357Y-95932117D01*
X53216048Y-95900889D01*
X53238515Y-95873515D01*
X53265889Y-95851048D01*
X53297117Y-95834357D01*
X53331008Y-95824076D01*
X53372391Y-95820000D01*
X53972609Y-95820000D01*
X54013992Y-95824076D01*
X54013992Y-95824076D01*
G37*
G36*
X55888992Y-95824076D02*
X55922883Y-95834357D01*
X55954111Y-95851048D01*
X55981485Y-95873515D01*
X56003952Y-95900889D01*
X56020643Y-95932117D01*
X56030924Y-95966008D01*
X56035000Y-96007391D01*
X56035000Y-97032609D01*
X56030924Y-97073992D01*
X56020643Y-97107883D01*
X56003952Y-97139111D01*
X55981485Y-97166485D01*
X55954111Y-97188952D01*
X55922883Y-97205643D01*
X55888992Y-97215924D01*
X55847609Y-97220000D01*
X55247391Y-97220000D01*
X55206008Y-97215924D01*
X55172117Y-97205643D01*
X55140889Y-97188952D01*
X55113515Y-97166485D01*
X55091048Y-97139111D01*
X55074357Y-97107883D01*
X55064076Y-97073992D01*
X55060000Y-97032609D01*
X55060000Y-96007391D01*
X55064076Y-95966008D01*
X55074357Y-95932117D01*
X55091048Y-95900889D01*
X55113515Y-95873515D01*
X55140889Y-95851048D01*
X55172117Y-95834357D01*
X55206008Y-95824076D01*
X55247391Y-95820000D01*
X55847609Y-95820000D01*
X55888992Y-95824076D01*
X55888992Y-95824076D01*
G37*
G36*
X61960000Y-94980000D02*
X59960000Y-94980000D01*
X59960000Y-92980000D01*
X61960000Y-92980000D01*
X61960000Y-94980000D01*
X61960000Y-94980000D01*
G37*
G36*
X64500000Y-94980000D02*
X62500000Y-94980000D01*
X62500000Y-92980000D01*
X64500000Y-92980000D01*
X64500000Y-94980000D01*
X64500000Y-94980000D01*
G37*
G36*
X77200000Y-94980000D02*
X75200000Y-94980000D01*
X75200000Y-92980000D01*
X77200000Y-92980000D01*
X77200000Y-94980000D01*
X77200000Y-94980000D01*
G37*
G36*
X67040000Y-94980000D02*
X65040000Y-94980000D01*
X65040000Y-92980000D01*
X67040000Y-92980000D01*
X67040000Y-94980000D01*
X67040000Y-94980000D01*
G37*
G36*
X69580000Y-94980000D02*
X67580000Y-94980000D01*
X67580000Y-92980000D01*
X69580000Y-92980000D01*
X69580000Y-94980000D01*
X69580000Y-94980000D01*
G37*
G36*
X72120000Y-94980000D02*
X70120000Y-94980000D01*
X70120000Y-92980000D01*
X72120000Y-92980000D01*
X72120000Y-94980000D01*
X72120000Y-94980000D01*
G37*
G36*
X74660000Y-94980000D02*
X72660000Y-94980000D01*
X72660000Y-92980000D01*
X74660000Y-92980000D01*
X74660000Y-94980000D01*
X74660000Y-94980000D01*
G37*
G36*
X50491318Y-91974411D02*
X50563767Y-91988822D01*
X50620303Y-92012240D01*
X50700257Y-92045358D01*
X50823100Y-92127439D01*
X50927561Y-92231900D01*
X51009642Y-92354743D01*
X51066178Y-92491234D01*
X51095000Y-92636130D01*
X51095000Y-92783870D01*
X51066178Y-92928766D01*
X51009642Y-93065257D01*
X50927561Y-93188100D01*
X50823100Y-93292561D01*
X50700257Y-93374642D01*
X50620303Y-93407760D01*
X50563767Y-93431178D01*
X50491318Y-93445589D01*
X50418870Y-93460000D01*
X50271130Y-93460000D01*
X50198682Y-93445589D01*
X50126233Y-93431178D01*
X50069697Y-93407760D01*
X49989743Y-93374642D01*
X49866900Y-93292561D01*
X49762439Y-93188100D01*
X49680358Y-93065257D01*
X49623822Y-92928766D01*
X49595000Y-92783870D01*
X49595000Y-92636130D01*
X49623822Y-92491234D01*
X49680358Y-92354743D01*
X49762439Y-92231900D01*
X49866900Y-92127439D01*
X49989743Y-92045358D01*
X50069697Y-92012240D01*
X50126233Y-91988822D01*
X50198682Y-91974411D01*
X50271130Y-91960000D01*
X50418870Y-91960000D01*
X50491318Y-91974411D01*
X50491318Y-91974411D01*
G37*
G36*
X55391318Y-91974411D02*
X55463767Y-91988822D01*
X55520303Y-92012240D01*
X55600257Y-92045358D01*
X55723100Y-92127439D01*
X55827561Y-92231900D01*
X55909642Y-92354743D01*
X55966178Y-92491234D01*
X55995000Y-92636130D01*
X55995000Y-92783870D01*
X55966178Y-92928766D01*
X55909642Y-93065257D01*
X55827561Y-93188100D01*
X55723100Y-93292561D01*
X55600257Y-93374642D01*
X55520303Y-93407760D01*
X55463767Y-93431178D01*
X55391318Y-93445589D01*
X55318870Y-93460000D01*
X55171130Y-93460000D01*
X55098682Y-93445589D01*
X55026233Y-93431178D01*
X54969697Y-93407760D01*
X54889743Y-93374642D01*
X54766900Y-93292561D01*
X54662439Y-93188100D01*
X54580358Y-93065257D01*
X54523822Y-92928766D01*
X54495000Y-92783870D01*
X54495000Y-92636130D01*
X54523822Y-92491234D01*
X54580358Y-92354743D01*
X54662439Y-92231900D01*
X54766900Y-92127439D01*
X54889743Y-92045358D01*
X54969697Y-92012240D01*
X55026233Y-91988822D01*
X55098682Y-91974411D01*
X55171130Y-91960000D01*
X55318870Y-91960000D01*
X55391318Y-91974411D01*
X55391318Y-91974411D01*
G37*
G36*
X77200000Y-92440000D02*
X75200000Y-92440000D01*
X75200000Y-90440000D01*
X77200000Y-90440000D01*
X77200000Y-92440000D01*
X77200000Y-92440000D01*
G37*
G36*
X69580000Y-92440000D02*
X67580000Y-92440000D01*
X67580000Y-90440000D01*
X69580000Y-90440000D01*
X69580000Y-92440000D01*
X69580000Y-92440000D01*
G37*
G36*
X74660000Y-92440000D02*
X72660000Y-92440000D01*
X72660000Y-90440000D01*
X74660000Y-90440000D01*
X74660000Y-92440000D01*
X74660000Y-92440000D01*
G37*
G36*
X61960000Y-92440000D02*
X59960000Y-92440000D01*
X59960000Y-90440000D01*
X61960000Y-90440000D01*
X61960000Y-92440000D01*
X61960000Y-92440000D01*
G37*
G36*
X72120000Y-92440000D02*
X70120000Y-92440000D01*
X70120000Y-90440000D01*
X72120000Y-90440000D01*
X72120000Y-92440000D01*
X72120000Y-92440000D01*
G37*
G36*
X67040000Y-92440000D02*
X65040000Y-92440000D01*
X65040000Y-90440000D01*
X67040000Y-90440000D01*
X67040000Y-92440000D01*
X67040000Y-92440000D01*
G37*
G36*
X64500000Y-92440000D02*
X62500000Y-92440000D01*
X62500000Y-90440000D01*
X64500000Y-90440000D01*
X64500000Y-92440000D01*
X64500000Y-92440000D01*
G37*
G36*
X64500000Y-89900000D02*
X62500000Y-89900000D01*
X62500000Y-87900000D01*
X64500000Y-87900000D01*
X64500000Y-89900000D01*
X64500000Y-89900000D01*
G37*
G36*
X61960000Y-89900000D02*
X59960000Y-89900000D01*
X59960000Y-87900000D01*
X61960000Y-87900000D01*
X61960000Y-89900000D01*
X61960000Y-89900000D01*
G37*
G36*
X67040000Y-89900000D02*
X65040000Y-89900000D01*
X65040000Y-87900000D01*
X67040000Y-87900000D01*
X67040000Y-89900000D01*
X67040000Y-89900000D01*
G37*
G36*
X69580000Y-89900000D02*
X67580000Y-89900000D01*
X67580000Y-87900000D01*
X69580000Y-87900000D01*
X69580000Y-89900000D01*
X69580000Y-89900000D01*
G37*
G36*
X72120000Y-89900000D02*
X70120000Y-89900000D01*
X70120000Y-87900000D01*
X72120000Y-87900000D01*
X72120000Y-89900000D01*
X72120000Y-89900000D01*
G37*
G36*
X77200000Y-89900000D02*
X75200000Y-89900000D01*
X75200000Y-87900000D01*
X77200000Y-87900000D01*
X77200000Y-89900000D01*
X77200000Y-89900000D01*
G37*
G36*
X74660000Y-89900000D02*
X72660000Y-89900000D01*
X72660000Y-87900000D01*
X74660000Y-87900000D01*
X74660000Y-89900000D01*
X74660000Y-89900000D01*
G37*
G36*
X77200000Y-87360000D02*
X75200000Y-87360000D01*
X75200000Y-85360000D01*
X77200000Y-85360000D01*
X77200000Y-87360000D01*
X77200000Y-87360000D01*
G37*
G36*
X74660000Y-87360000D02*
X72660000Y-87360000D01*
X72660000Y-85360000D01*
X74660000Y-85360000D01*
X74660000Y-87360000D01*
X74660000Y-87360000D01*
G37*
G36*
X72120000Y-87360000D02*
X70120000Y-87360000D01*
X70120000Y-85360000D01*
X72120000Y-85360000D01*
X72120000Y-87360000D01*
X72120000Y-87360000D01*
G37*
G36*
X69580000Y-87360000D02*
X67580000Y-87360000D01*
X67580000Y-85360000D01*
X69580000Y-85360000D01*
X69580000Y-87360000D01*
X69580000Y-87360000D01*
G37*
G36*
X67040000Y-87360000D02*
X65040000Y-87360000D01*
X65040000Y-85360000D01*
X67040000Y-85360000D01*
X67040000Y-87360000D01*
X67040000Y-87360000D01*
G37*
G36*
X64500000Y-87360000D02*
X62500000Y-87360000D01*
X62500000Y-85360000D01*
X64500000Y-85360000D01*
X64500000Y-87360000D01*
X64500000Y-87360000D01*
G37*
G36*
X61960000Y-87360000D02*
X59960000Y-87360000D01*
X59960000Y-85360000D01*
X61960000Y-85360000D01*
X61960000Y-87360000D01*
X61960000Y-87360000D01*
G37*
G36*
X74660000Y-84820000D02*
X72660000Y-84820000D01*
X72660000Y-82820000D01*
X74660000Y-82820000D01*
X74660000Y-84820000D01*
X74660000Y-84820000D01*
G37*
G36*
X61960000Y-84820000D02*
X59960000Y-84820000D01*
X59960000Y-82820000D01*
X61960000Y-82820000D01*
X61960000Y-84820000D01*
X61960000Y-84820000D01*
G37*
G36*
X67040000Y-84820000D02*
X65040000Y-84820000D01*
X65040000Y-82820000D01*
X67040000Y-82820000D01*
X67040000Y-84820000D01*
X67040000Y-84820000D01*
G37*
G36*
X69580000Y-84820000D02*
X67580000Y-84820000D01*
X67580000Y-82820000D01*
X69580000Y-82820000D01*
X69580000Y-84820000D01*
X69580000Y-84820000D01*
G37*
G36*
X77200000Y-84820000D02*
X75200000Y-84820000D01*
X75200000Y-82820000D01*
X77200000Y-82820000D01*
X77200000Y-84820000D01*
X77200000Y-84820000D01*
G37*
G36*
X64500000Y-84820000D02*
X62500000Y-84820000D01*
X62500000Y-82820000D01*
X64500000Y-82820000D01*
X64500000Y-84820000D01*
X64500000Y-84820000D01*
G37*
G36*
X72120000Y-84820000D02*
X70120000Y-84820000D01*
X70120000Y-82820000D01*
X72120000Y-82820000D01*
X72120000Y-84820000D01*
X72120000Y-84820000D01*
G37*
G36*
X58586630Y-75362299D02*
X58746855Y-75410903D01*
X58894520Y-75489831D01*
X59023949Y-75596051D01*
X59130169Y-75725480D01*
X59209097Y-75873145D01*
X59257701Y-76033370D01*
X59274112Y-76200000D01*
X59257701Y-76366630D01*
X59209097Y-76526855D01*
X59130169Y-76674520D01*
X59023949Y-76803949D01*
X58894520Y-76910169D01*
X58746855Y-76989097D01*
X58586630Y-77037701D01*
X58461752Y-77050000D01*
X58378248Y-77050000D01*
X58253370Y-77037701D01*
X58093145Y-76989097D01*
X57945480Y-76910169D01*
X57816051Y-76803949D01*
X57709831Y-76674520D01*
X57630903Y-76526855D01*
X57582299Y-76366630D01*
X57565888Y-76200000D01*
X57582299Y-76033370D01*
X57630903Y-75873145D01*
X57709831Y-75725480D01*
X57816051Y-75596051D01*
X57945480Y-75489831D01*
X58093145Y-75410903D01*
X58253370Y-75362299D01*
X58378248Y-75350000D01*
X58461752Y-75350000D01*
X58586630Y-75362299D01*
X58586630Y-75362299D01*
G37*
G36*
X61126630Y-75362299D02*
X61286855Y-75410903D01*
X61434520Y-75489831D01*
X61563949Y-75596051D01*
X61670169Y-75725480D01*
X61749097Y-75873145D01*
X61797701Y-76033370D01*
X61814112Y-76200000D01*
X61797701Y-76366630D01*
X61749097Y-76526855D01*
X61670169Y-76674520D01*
X61563949Y-76803949D01*
X61434520Y-76910169D01*
X61286855Y-76989097D01*
X61126630Y-77037701D01*
X61001752Y-77050000D01*
X60918248Y-77050000D01*
X60793370Y-77037701D01*
X60633145Y-76989097D01*
X60485480Y-76910169D01*
X60356051Y-76803949D01*
X60249831Y-76674520D01*
X60170903Y-76526855D01*
X60122299Y-76366630D01*
X60105888Y-76200000D01*
X60122299Y-76033370D01*
X60170903Y-75873145D01*
X60249831Y-75725480D01*
X60356051Y-75596051D01*
X60485480Y-75489831D01*
X60633145Y-75410903D01*
X60793370Y-75362299D01*
X60918248Y-75350000D01*
X61001752Y-75350000D01*
X61126630Y-75362299D01*
X61126630Y-75362299D01*
G37*
G36*
X56046630Y-75362299D02*
X56206855Y-75410903D01*
X56354520Y-75489831D01*
X56483949Y-75596051D01*
X56590169Y-75725480D01*
X56669097Y-75873145D01*
X56717701Y-76033370D01*
X56734112Y-76200000D01*
X56717701Y-76366630D01*
X56669097Y-76526855D01*
X56590169Y-76674520D01*
X56483949Y-76803949D01*
X56354520Y-76910169D01*
X56206855Y-76989097D01*
X56046630Y-77037701D01*
X55921752Y-77050000D01*
X55838248Y-77050000D01*
X55713370Y-77037701D01*
X55553145Y-76989097D01*
X55405480Y-76910169D01*
X55276051Y-76803949D01*
X55169831Y-76674520D01*
X55090903Y-76526855D01*
X55042299Y-76366630D01*
X55025888Y-76200000D01*
X55042299Y-76033370D01*
X55090903Y-75873145D01*
X55169831Y-75725480D01*
X55276051Y-75596051D01*
X55405480Y-75489831D01*
X55553145Y-75410903D01*
X55713370Y-75362299D01*
X55838248Y-75350000D01*
X55921752Y-75350000D01*
X56046630Y-75362299D01*
X56046630Y-75362299D01*
G37*
G36*
X53506630Y-75362299D02*
X53666855Y-75410903D01*
X53814520Y-75489831D01*
X53943949Y-75596051D01*
X54050169Y-75725480D01*
X54129097Y-75873145D01*
X54177701Y-76033370D01*
X54194112Y-76200000D01*
X54177701Y-76366630D01*
X54129097Y-76526855D01*
X54050169Y-76674520D01*
X53943949Y-76803949D01*
X53814520Y-76910169D01*
X53666855Y-76989097D01*
X53506630Y-77037701D01*
X53381752Y-77050000D01*
X53298248Y-77050000D01*
X53173370Y-77037701D01*
X53013145Y-76989097D01*
X52865480Y-76910169D01*
X52736051Y-76803949D01*
X52629831Y-76674520D01*
X52550903Y-76526855D01*
X52502299Y-76366630D01*
X52485888Y-76200000D01*
X52502299Y-76033370D01*
X52550903Y-75873145D01*
X52629831Y-75725480D01*
X52736051Y-75596051D01*
X52865480Y-75489831D01*
X53013145Y-75410903D01*
X53173370Y-75362299D01*
X53298248Y-75350000D01*
X53381752Y-75350000D01*
X53506630Y-75362299D01*
X53506630Y-75362299D01*
G37*
G36*
X51650000Y-77050000D02*
X49950000Y-77050000D01*
X49950000Y-75350000D01*
X51650000Y-75350000D01*
X51650000Y-77050000D01*
X51650000Y-77050000D01*
G37*
G36*
X63666630Y-75362299D02*
X63826855Y-75410903D01*
X63974520Y-75489831D01*
X64103949Y-75596051D01*
X64210169Y-75725480D01*
X64289097Y-75873145D01*
X64337701Y-76033370D01*
X64354112Y-76200000D01*
X64337701Y-76366630D01*
X64289097Y-76526855D01*
X64210169Y-76674520D01*
X64103949Y-76803949D01*
X63974520Y-76910169D01*
X63826855Y-76989097D01*
X63666630Y-77037701D01*
X63541752Y-77050000D01*
X63458248Y-77050000D01*
X63333370Y-77037701D01*
X63173145Y-76989097D01*
X63025480Y-76910169D01*
X62896051Y-76803949D01*
X62789831Y-76674520D01*
X62710903Y-76526855D01*
X62662299Y-76366630D01*
X62645888Y-76200000D01*
X62662299Y-76033370D01*
X62710903Y-75873145D01*
X62789831Y-75725480D01*
X62896051Y-75596051D01*
X63025480Y-75489831D01*
X63173145Y-75410903D01*
X63333370Y-75362299D01*
X63458248Y-75350000D01*
X63541752Y-75350000D01*
X63666630Y-75362299D01*
X63666630Y-75362299D01*
G37*
G36*
X68746630Y-75362299D02*
X68906855Y-75410903D01*
X69054520Y-75489831D01*
X69183949Y-75596051D01*
X69290169Y-75725480D01*
X69369097Y-75873145D01*
X69417701Y-76033370D01*
X69434112Y-76200000D01*
X69417701Y-76366630D01*
X69369097Y-76526855D01*
X69290169Y-76674520D01*
X69183949Y-76803949D01*
X69054520Y-76910169D01*
X68906855Y-76989097D01*
X68746630Y-77037701D01*
X68621752Y-77050000D01*
X68538248Y-77050000D01*
X68413370Y-77037701D01*
X68253145Y-76989097D01*
X68105480Y-76910169D01*
X67976051Y-76803949D01*
X67869831Y-76674520D01*
X67790903Y-76526855D01*
X67742299Y-76366630D01*
X67725888Y-76200000D01*
X67742299Y-76033370D01*
X67790903Y-75873145D01*
X67869831Y-75725480D01*
X67976051Y-75596051D01*
X68105480Y-75489831D01*
X68253145Y-75410903D01*
X68413370Y-75362299D01*
X68538248Y-75350000D01*
X68621752Y-75350000D01*
X68746630Y-75362299D01*
X68746630Y-75362299D01*
G37*
G36*
X71286630Y-75362299D02*
X71446855Y-75410903D01*
X71594520Y-75489831D01*
X71723949Y-75596051D01*
X71830169Y-75725480D01*
X71909097Y-75873145D01*
X71957701Y-76033370D01*
X71974112Y-76200000D01*
X71957701Y-76366630D01*
X71909097Y-76526855D01*
X71830169Y-76674520D01*
X71723949Y-76803949D01*
X71594520Y-76910169D01*
X71446855Y-76989097D01*
X71286630Y-77037701D01*
X71161752Y-77050000D01*
X71078248Y-77050000D01*
X70953370Y-77037701D01*
X70793145Y-76989097D01*
X70645480Y-76910169D01*
X70516051Y-76803949D01*
X70409831Y-76674520D01*
X70330903Y-76526855D01*
X70282299Y-76366630D01*
X70265888Y-76200000D01*
X70282299Y-76033370D01*
X70330903Y-75873145D01*
X70409831Y-75725480D01*
X70516051Y-75596051D01*
X70645480Y-75489831D01*
X70793145Y-75410903D01*
X70953370Y-75362299D01*
X71078248Y-75350000D01*
X71161752Y-75350000D01*
X71286630Y-75362299D01*
X71286630Y-75362299D01*
G37*
G36*
X73826630Y-75362299D02*
X73986855Y-75410903D01*
X74134520Y-75489831D01*
X74263949Y-75596051D01*
X74370169Y-75725480D01*
X74449097Y-75873145D01*
X74497701Y-76033370D01*
X74514112Y-76200000D01*
X74497701Y-76366630D01*
X74449097Y-76526855D01*
X74370169Y-76674520D01*
X74263949Y-76803949D01*
X74134520Y-76910169D01*
X73986855Y-76989097D01*
X73826630Y-77037701D01*
X73701752Y-77050000D01*
X73618248Y-77050000D01*
X73493370Y-77037701D01*
X73333145Y-76989097D01*
X73185480Y-76910169D01*
X73056051Y-76803949D01*
X72949831Y-76674520D01*
X72870903Y-76526855D01*
X72822299Y-76366630D01*
X72805888Y-76200000D01*
X72822299Y-76033370D01*
X72870903Y-75873145D01*
X72949831Y-75725480D01*
X73056051Y-75596051D01*
X73185480Y-75489831D01*
X73333145Y-75410903D01*
X73493370Y-75362299D01*
X73618248Y-75350000D01*
X73701752Y-75350000D01*
X73826630Y-75362299D01*
X73826630Y-75362299D01*
G37*
G36*
X66206630Y-75362299D02*
X66366855Y-75410903D01*
X66514520Y-75489831D01*
X66643949Y-75596051D01*
X66750169Y-75725480D01*
X66829097Y-75873145D01*
X66877701Y-76033370D01*
X66894112Y-76200000D01*
X66877701Y-76366630D01*
X66829097Y-76526855D01*
X66750169Y-76674520D01*
X66643949Y-76803949D01*
X66514520Y-76910169D01*
X66366855Y-76989097D01*
X66206630Y-77037701D01*
X66081752Y-77050000D01*
X65998248Y-77050000D01*
X65873370Y-77037701D01*
X65713145Y-76989097D01*
X65565480Y-76910169D01*
X65436051Y-76803949D01*
X65329831Y-76674520D01*
X65250903Y-76526855D01*
X65202299Y-76366630D01*
X65185888Y-76200000D01*
X65202299Y-76033370D01*
X65250903Y-75873145D01*
X65329831Y-75725480D01*
X65436051Y-75596051D01*
X65565480Y-75489831D01*
X65713145Y-75410903D01*
X65873370Y-75362299D01*
X65998248Y-75350000D01*
X66081752Y-75350000D01*
X66206630Y-75362299D01*
X66206630Y-75362299D01*
G37*
G36*
X63666630Y-72822299D02*
X63826855Y-72870903D01*
X63974520Y-72949831D01*
X64103949Y-73056051D01*
X64210169Y-73185480D01*
X64289097Y-73333145D01*
X64337701Y-73493370D01*
X64354112Y-73660000D01*
X64337701Y-73826630D01*
X64289097Y-73986855D01*
X64210169Y-74134520D01*
X64103949Y-74263949D01*
X63974520Y-74370169D01*
X63826855Y-74449097D01*
X63666630Y-74497701D01*
X63541752Y-74510000D01*
X63458248Y-74510000D01*
X63333370Y-74497701D01*
X63173145Y-74449097D01*
X63025480Y-74370169D01*
X62896051Y-74263949D01*
X62789831Y-74134520D01*
X62710903Y-73986855D01*
X62662299Y-73826630D01*
X62645888Y-73660000D01*
X62662299Y-73493370D01*
X62710903Y-73333145D01*
X62789831Y-73185480D01*
X62896051Y-73056051D01*
X63025480Y-72949831D01*
X63173145Y-72870903D01*
X63333370Y-72822299D01*
X63458248Y-72810000D01*
X63541752Y-72810000D01*
X63666630Y-72822299D01*
X63666630Y-72822299D01*
G37*
G36*
X73826630Y-72822299D02*
X73986855Y-72870903D01*
X74134520Y-72949831D01*
X74263949Y-73056051D01*
X74370169Y-73185480D01*
X74449097Y-73333145D01*
X74497701Y-73493370D01*
X74514112Y-73660000D01*
X74497701Y-73826630D01*
X74449097Y-73986855D01*
X74370169Y-74134520D01*
X74263949Y-74263949D01*
X74134520Y-74370169D01*
X73986855Y-74449097D01*
X73826630Y-74497701D01*
X73701752Y-74510000D01*
X73618248Y-74510000D01*
X73493370Y-74497701D01*
X73333145Y-74449097D01*
X73185480Y-74370169D01*
X73056051Y-74263949D01*
X72949831Y-74134520D01*
X72870903Y-73986855D01*
X72822299Y-73826630D01*
X72805888Y-73660000D01*
X72822299Y-73493370D01*
X72870903Y-73333145D01*
X72949831Y-73185480D01*
X73056051Y-73056051D01*
X73185480Y-72949831D01*
X73333145Y-72870903D01*
X73493370Y-72822299D01*
X73618248Y-72810000D01*
X73701752Y-72810000D01*
X73826630Y-72822299D01*
X73826630Y-72822299D01*
G37*
G36*
X71286630Y-72822299D02*
X71446855Y-72870903D01*
X71594520Y-72949831D01*
X71723949Y-73056051D01*
X71830169Y-73185480D01*
X71909097Y-73333145D01*
X71957701Y-73493370D01*
X71974112Y-73660000D01*
X71957701Y-73826630D01*
X71909097Y-73986855D01*
X71830169Y-74134520D01*
X71723949Y-74263949D01*
X71594520Y-74370169D01*
X71446855Y-74449097D01*
X71286630Y-74497701D01*
X71161752Y-74510000D01*
X71078248Y-74510000D01*
X70953370Y-74497701D01*
X70793145Y-74449097D01*
X70645480Y-74370169D01*
X70516051Y-74263949D01*
X70409831Y-74134520D01*
X70330903Y-73986855D01*
X70282299Y-73826630D01*
X70265888Y-73660000D01*
X70282299Y-73493370D01*
X70330903Y-73333145D01*
X70409831Y-73185480D01*
X70516051Y-73056051D01*
X70645480Y-72949831D01*
X70793145Y-72870903D01*
X70953370Y-72822299D01*
X71078248Y-72810000D01*
X71161752Y-72810000D01*
X71286630Y-72822299D01*
X71286630Y-72822299D01*
G37*
G36*
X50966630Y-72822299D02*
X51126855Y-72870903D01*
X51274520Y-72949831D01*
X51403949Y-73056051D01*
X51510169Y-73185480D01*
X51589097Y-73333145D01*
X51637701Y-73493370D01*
X51654112Y-73660000D01*
X51637701Y-73826630D01*
X51589097Y-73986855D01*
X51510169Y-74134520D01*
X51403949Y-74263949D01*
X51274520Y-74370169D01*
X51126855Y-74449097D01*
X50966630Y-74497701D01*
X50841752Y-74510000D01*
X50758248Y-74510000D01*
X50633370Y-74497701D01*
X50473145Y-74449097D01*
X50325480Y-74370169D01*
X50196051Y-74263949D01*
X50089831Y-74134520D01*
X50010903Y-73986855D01*
X49962299Y-73826630D01*
X49945888Y-73660000D01*
X49962299Y-73493370D01*
X50010903Y-73333145D01*
X50089831Y-73185480D01*
X50196051Y-73056051D01*
X50325480Y-72949831D01*
X50473145Y-72870903D01*
X50633370Y-72822299D01*
X50758248Y-72810000D01*
X50841752Y-72810000D01*
X50966630Y-72822299D01*
X50966630Y-72822299D01*
G37*
G36*
X53506630Y-72822299D02*
X53666855Y-72870903D01*
X53814520Y-72949831D01*
X53943949Y-73056051D01*
X54050169Y-73185480D01*
X54129097Y-73333145D01*
X54177701Y-73493370D01*
X54194112Y-73660000D01*
X54177701Y-73826630D01*
X54129097Y-73986855D01*
X54050169Y-74134520D01*
X53943949Y-74263949D01*
X53814520Y-74370169D01*
X53666855Y-74449097D01*
X53506630Y-74497701D01*
X53381752Y-74510000D01*
X53298248Y-74510000D01*
X53173370Y-74497701D01*
X53013145Y-74449097D01*
X52865480Y-74370169D01*
X52736051Y-74263949D01*
X52629831Y-74134520D01*
X52550903Y-73986855D01*
X52502299Y-73826630D01*
X52485888Y-73660000D01*
X52502299Y-73493370D01*
X52550903Y-73333145D01*
X52629831Y-73185480D01*
X52736051Y-73056051D01*
X52865480Y-72949831D01*
X53013145Y-72870903D01*
X53173370Y-72822299D01*
X53298248Y-72810000D01*
X53381752Y-72810000D01*
X53506630Y-72822299D01*
X53506630Y-72822299D01*
G37*
G36*
X68746630Y-72822299D02*
X68906855Y-72870903D01*
X69054520Y-72949831D01*
X69183949Y-73056051D01*
X69290169Y-73185480D01*
X69369097Y-73333145D01*
X69417701Y-73493370D01*
X69434112Y-73660000D01*
X69417701Y-73826630D01*
X69369097Y-73986855D01*
X69290169Y-74134520D01*
X69183949Y-74263949D01*
X69054520Y-74370169D01*
X68906855Y-74449097D01*
X68746630Y-74497701D01*
X68621752Y-74510000D01*
X68538248Y-74510000D01*
X68413370Y-74497701D01*
X68253145Y-74449097D01*
X68105480Y-74370169D01*
X67976051Y-74263949D01*
X67869831Y-74134520D01*
X67790903Y-73986855D01*
X67742299Y-73826630D01*
X67725888Y-73660000D01*
X67742299Y-73493370D01*
X67790903Y-73333145D01*
X67869831Y-73185480D01*
X67976051Y-73056051D01*
X68105480Y-72949831D01*
X68253145Y-72870903D01*
X68413370Y-72822299D01*
X68538248Y-72810000D01*
X68621752Y-72810000D01*
X68746630Y-72822299D01*
X68746630Y-72822299D01*
G37*
G36*
X66206630Y-72822299D02*
X66366855Y-72870903D01*
X66514520Y-72949831D01*
X66643949Y-73056051D01*
X66750169Y-73185480D01*
X66829097Y-73333145D01*
X66877701Y-73493370D01*
X66894112Y-73660000D01*
X66877701Y-73826630D01*
X66829097Y-73986855D01*
X66750169Y-74134520D01*
X66643949Y-74263949D01*
X66514520Y-74370169D01*
X66366855Y-74449097D01*
X66206630Y-74497701D01*
X66081752Y-74510000D01*
X65998248Y-74510000D01*
X65873370Y-74497701D01*
X65713145Y-74449097D01*
X65565480Y-74370169D01*
X65436051Y-74263949D01*
X65329831Y-74134520D01*
X65250903Y-73986855D01*
X65202299Y-73826630D01*
X65185888Y-73660000D01*
X65202299Y-73493370D01*
X65250903Y-73333145D01*
X65329831Y-73185480D01*
X65436051Y-73056051D01*
X65565480Y-72949831D01*
X65713145Y-72870903D01*
X65873370Y-72822299D01*
X65998248Y-72810000D01*
X66081752Y-72810000D01*
X66206630Y-72822299D01*
X66206630Y-72822299D01*
G37*
G36*
X56046630Y-72822299D02*
X56206855Y-72870903D01*
X56354520Y-72949831D01*
X56483949Y-73056051D01*
X56590169Y-73185480D01*
X56669097Y-73333145D01*
X56717701Y-73493370D01*
X56734112Y-73660000D01*
X56717701Y-73826630D01*
X56669097Y-73986855D01*
X56590169Y-74134520D01*
X56483949Y-74263949D01*
X56354520Y-74370169D01*
X56206855Y-74449097D01*
X56046630Y-74497701D01*
X55921752Y-74510000D01*
X55838248Y-74510000D01*
X55713370Y-74497701D01*
X55553145Y-74449097D01*
X55405480Y-74370169D01*
X55276051Y-74263949D01*
X55169831Y-74134520D01*
X55090903Y-73986855D01*
X55042299Y-73826630D01*
X55025888Y-73660000D01*
X55042299Y-73493370D01*
X55090903Y-73333145D01*
X55169831Y-73185480D01*
X55276051Y-73056051D01*
X55405480Y-72949831D01*
X55553145Y-72870903D01*
X55713370Y-72822299D01*
X55838248Y-72810000D01*
X55921752Y-72810000D01*
X56046630Y-72822299D01*
X56046630Y-72822299D01*
G37*
G36*
X61126630Y-72822299D02*
X61286855Y-72870903D01*
X61434520Y-72949831D01*
X61563949Y-73056051D01*
X61670169Y-73185480D01*
X61749097Y-73333145D01*
X61797701Y-73493370D01*
X61814112Y-73660000D01*
X61797701Y-73826630D01*
X61749097Y-73986855D01*
X61670169Y-74134520D01*
X61563949Y-74263949D01*
X61434520Y-74370169D01*
X61286855Y-74449097D01*
X61126630Y-74497701D01*
X61001752Y-74510000D01*
X60918248Y-74510000D01*
X60793370Y-74497701D01*
X60633145Y-74449097D01*
X60485480Y-74370169D01*
X60356051Y-74263949D01*
X60249831Y-74134520D01*
X60170903Y-73986855D01*
X60122299Y-73826630D01*
X60105888Y-73660000D01*
X60122299Y-73493370D01*
X60170903Y-73333145D01*
X60249831Y-73185480D01*
X60356051Y-73056051D01*
X60485480Y-72949831D01*
X60633145Y-72870903D01*
X60793370Y-72822299D01*
X60918248Y-72810000D01*
X61001752Y-72810000D01*
X61126630Y-72822299D01*
X61126630Y-72822299D01*
G37*
G36*
X58586630Y-72822299D02*
X58746855Y-72870903D01*
X58894520Y-72949831D01*
X59023949Y-73056051D01*
X59130169Y-73185480D01*
X59209097Y-73333145D01*
X59257701Y-73493370D01*
X59274112Y-73660000D01*
X59257701Y-73826630D01*
X59209097Y-73986855D01*
X59130169Y-74134520D01*
X59023949Y-74263949D01*
X58894520Y-74370169D01*
X58746855Y-74449097D01*
X58586630Y-74497701D01*
X58461752Y-74510000D01*
X58378248Y-74510000D01*
X58253370Y-74497701D01*
X58093145Y-74449097D01*
X57945480Y-74370169D01*
X57816051Y-74263949D01*
X57709831Y-74134520D01*
X57630903Y-73986855D01*
X57582299Y-73826630D01*
X57565888Y-73660000D01*
X57582299Y-73493370D01*
X57630903Y-73333145D01*
X57709831Y-73185480D01*
X57816051Y-73056051D01*
X57945480Y-72949831D01*
X58093145Y-72870903D01*
X58253370Y-72822299D01*
X58378248Y-72810000D01*
X58461752Y-72810000D01*
X58586630Y-72822299D01*
X58586630Y-72822299D01*
G37*
M02*
