M48
;DRILL file {KiCad 5.0.2-bee76a0~70~ubuntu18.04.1} date lun. 29 juil. 2019 15:00:19 CEST
;FORMAT={-:-/ absolute / inch / decimal}
FMAT,2
INCH,TZ
T1C0.0157
T2C0.0276
T3C0.0315
T4C0.0394
T5C0.0630
T6C0.1280
%
G90
G05
T1
X2.11Y-4.76
X2.43Y-5.16
X2.76Y-4.75
T2
X1.9126Y-4.3031
X1.9126Y-4.3622
X1.9126Y-4.4213
X1.9126Y-4.4803
X1.9126Y-4.5394
X1.9126Y-4.5984
X1.9126Y-4.6575
X1.9126Y-4.7165
X1.9913Y-4.2638
X1.9913Y-4.3228
X1.9913Y-4.3819
X1.9913Y-4.4409
X1.9913Y-4.5
X1.9913Y-4.5591
X1.9913Y-4.6181
X1.9913Y-4.6772
X1.9913Y-4.7362
X2.0701Y-4.2835
X2.0701Y-4.3425
X2.0701Y-4.4016
X2.0701Y-4.4606
X2.0701Y-4.5197
X2.0701Y-4.5787
X2.0701Y-4.6378
X2.0701Y-4.6969
X2.2138Y-4.0413
X2.2138Y-4.9587
X2.2335Y-3.9626
X2.2335Y-4.8799
X2.2531Y-4.1201
X2.2531Y-5.0374
X2.2728Y-4.0413
X2.2728Y-4.9587
X2.2925Y-3.9626
X2.2925Y-4.8799
X2.3122Y-4.1201
X2.3122Y-5.0374
X2.3319Y-4.0413
X2.3319Y-4.9587
X2.3516Y-3.9626
X2.3516Y-4.8799
X2.3713Y-4.1201
X2.3713Y-5.0374
X2.3909Y-4.0413
X2.3909Y-4.9587
X2.4106Y-3.9626
X2.4106Y-4.8799
X2.4303Y-4.1201
X2.4303Y-5.0374
X2.45Y-4.0413
X2.45Y-4.9587
X2.4697Y-3.9626
X2.4697Y-4.8799
X2.4894Y-4.1201
X2.4894Y-5.0374
X2.5091Y-4.0413
X2.5091Y-4.9587
X2.5287Y-3.9626
X2.5287Y-4.8799
X2.5484Y-4.1201
X2.5484Y-5.0374
X2.5681Y-4.0413
X2.5681Y-4.9587
X2.5878Y-3.9626
X2.5878Y-4.8799
X2.6075Y-4.1201
X2.6075Y-5.0374
X2.6272Y-4.0413
X2.6272Y-4.9587
X2.6469Y-3.9626
X2.6469Y-4.8799
X2.6665Y-4.1201
X2.6665Y-5.0374
X2.6862Y-4.0413
X2.6862Y-4.9587
X2.8299Y-4.3031
X2.8299Y-4.3622
X2.8299Y-4.4213
X2.8299Y-4.4803
X2.8299Y-4.5394
X2.8299Y-4.5984
X2.8299Y-4.6575
X2.8299Y-4.7165
X2.9087Y-4.2638
X2.9087Y-4.3228
X2.9087Y-4.3819
X2.9087Y-4.4409
X2.9087Y-4.5
X2.9087Y-4.5591
X2.9087Y-4.6181
X2.9087Y-4.6772
X2.9087Y-4.7362
X2.9874Y-4.2835
X2.9874Y-4.3425
X2.9874Y-4.4016
X2.9874Y-4.4606
X2.9874Y-4.5197
X2.9874Y-4.5787
X2.9874Y-4.6378
X2.9874Y-4.6969
T3
X1.9821Y-3.65
X2.175Y-3.65
T4
X2.9Y-3.4
X2.9Y-3.3
X2.8Y-3.8
X2.5Y-3.6
X2.7Y-3.5
X2.4Y-3.4
X2.8Y-3.6
X3.Y-3.7
X2.8Y-3.7
X2.9Y-3.6
X2.9Y-3.7
X3.Y-3.8
X2.4Y-3.3
X2.6Y-3.5
X2.4Y-3.5
X2.Y-6.
X2.Y-6.1
X2.1Y-6.
X2.1Y-6.1
X2.2Y-6.
X2.2Y-6.1
X2.3Y-6.
X2.3Y-6.1
X2.4Y-6.
X2.4Y-6.1
X2.5Y-6.
X2.5Y-6.1
X2.6Y-6.
X2.6Y-6.1
X2.7Y-6.
X2.7Y-6.1
X2.8Y-6.
X2.8Y-6.1
X2.9Y-6.
X2.9Y-6.1
X2.5Y-3.5
X2.5Y-3.8
X2.7Y-3.6
X2.9Y-3.8
X2.9Y-3.5
X2.8Y-3.3
X2.5Y-3.3
X2.7Y-3.3
X2.4Y-3.7
X2.6Y-3.7
X2.6Y-3.4
X2.6Y-3.3
X2.7Y-3.8
X3.Y-3.6
X2.6Y-3.6
X2.5Y-3.4
X3.Y-3.3
X3.Y-3.5
X3.Y-3.4
X2.7Y-3.4
X2.4Y-3.6
X2.6Y-3.8
X2.Y-2.9
X2.Y-3.
X2.1Y-2.9
X2.1Y-3.
X2.2Y-2.9
X2.2Y-3.
X2.3Y-2.9
X2.3Y-3.
X2.4Y-2.9
X2.4Y-3.
X2.5Y-2.9
X2.5Y-3.
X2.6Y-2.9
X2.6Y-3.
X2.7Y-2.9
X2.7Y-3.
X2.8Y-2.9
X2.8Y-3.
X2.9Y-2.9
X2.9Y-3.
X2.7Y-3.7
X2.8Y-3.5
X2.5Y-3.7
X2.4Y-3.8
X2.8Y-3.4
T5
X2.0957Y-4.8543
X2.8043Y-4.1457
T6
X2.45Y-4.5
T0
M30
