G04 #@! TF.GenerationSoftware,KiCad,Pcbnew,5.0.2-bee76a0~70~ubuntu18.04.1*
G04 #@! TF.CreationDate,2019-07-29T15:00:22+02:00*
G04 #@! TF.ProjectId,stm32f427,73746d33-3266-4343-9237-2e6b69636164,rev?*
G04 #@! TF.SameCoordinates,Original*
G04 #@! TF.FileFunction,Copper,L2,Bot*
G04 #@! TF.FilePolarity,Positive*
%FSLAX46Y46*%
G04 Gerber Fmt 4.6, Leading zero omitted, Abs format (unit mm)*
G04 Created by KiCad (PCBNEW 5.0.2-bee76a0~70~ubuntu18.04.1) date lun. 29 juil. 2019 15:00:22 CEST*
%MOMM*%
%LPD*%
G01*
G04 APERTURE LIST*
G04 #@! TA.AperFunction,ComponentPad*
%ADD10R,2.000000X2.000000*%
G04 #@! TD*
G04 #@! TA.AperFunction,ComponentPad*
%ADD11C,1.200000*%
G04 #@! TD*
G04 #@! TA.AperFunction,ComponentPad*
%ADD12C,3.250000*%
G04 #@! TD*
G04 #@! TA.AperFunction,ComponentPad*
%ADD13C,1.600000*%
G04 #@! TD*
G04 #@! TA.AperFunction,ComponentPad*
%ADD14R,1.700000X1.700000*%
G04 #@! TD*
G04 #@! TA.AperFunction,ComponentPad*
%ADD15O,1.700000X1.700000*%
G04 #@! TD*
G04 #@! TA.AperFunction,Conductor*
%ADD16C,0.100000*%
G04 #@! TD*
G04 #@! TA.AperFunction,SMDPad,CuDef*
%ADD17C,0.975000*%
G04 #@! TD*
G04 #@! TA.AperFunction,ComponentPad*
%ADD18C,1.500000*%
G04 #@! TD*
G04 #@! TA.AperFunction,ViaPad*
%ADD19C,0.800000*%
G04 #@! TD*
G04 #@! TA.AperFunction,Conductor*
%ADD20C,0.250000*%
G04 #@! TD*
G04 #@! TA.AperFunction,Conductor*
%ADD21C,1.000000*%
G04 #@! TD*
G04 APERTURE END LIST*
D10*
G04 #@! TO.P,TP37,1*
G04 #@! TO.N,Net-(TP37-Pad1)*
X60960000Y-91440000D03*
G04 #@! TD*
G04 #@! TO.P,TP39,1*
G04 #@! TO.N,Net-(TP39-Pad1)*
X60960000Y-88900000D03*
G04 #@! TD*
G04 #@! TO.P,TP38,1*
G04 #@! TO.N,Net-(TP38-Pad1)*
X60960000Y-93980000D03*
G04 #@! TD*
G04 #@! TO.P,TP40,1*
G04 #@! TO.N,Net-(TP40-Pad1)*
X60960000Y-86360000D03*
G04 #@! TD*
G04 #@! TO.P,TP41,1*
G04 #@! TO.N,Net-(TP41-Pad1)*
X60960000Y-96520000D03*
G04 #@! TD*
G04 #@! TO.P,TP42,1*
G04 #@! TO.N,Net-(TP42-Pad1)*
X60960000Y-83820000D03*
G04 #@! TD*
G04 #@! TO.P,TP33,1*
G04 #@! TO.N,Net-(TP33-Pad1)*
X73660000Y-93980000D03*
G04 #@! TD*
G04 #@! TO.P,TP31,1*
G04 #@! TO.N,Net-(TP31-Pad1)*
X68580000Y-96520000D03*
G04 #@! TD*
G04 #@! TO.P,TP30,1*
G04 #@! TO.N,Net-(TP30-Pad1)*
X76200000Y-96520000D03*
G04 #@! TD*
G04 #@! TO.P,TP29,1*
G04 #@! TO.N,Net-(TP29-Pad1)*
X71120000Y-93980000D03*
G04 #@! TD*
G04 #@! TO.P,TP28,1*
G04 #@! TO.N,Net-(TP28-Pad1)*
X66040000Y-96520000D03*
G04 #@! TD*
G04 #@! TO.P,TP27,1*
G04 #@! TO.N,Net-(TP27-Pad1)*
X73660000Y-96520000D03*
G04 #@! TD*
G04 #@! TO.P,TP26,1*
G04 #@! TO.N,Net-(TP26-Pad1)*
X68580000Y-93980000D03*
G04 #@! TD*
G04 #@! TO.P,TP32,1*
G04 #@! TO.N,Net-(TP32-Pad1)*
X63500000Y-96520000D03*
G04 #@! TD*
G04 #@! TO.P,TP34,1*
G04 #@! TO.N,Net-(TP34-Pad1)*
X71120000Y-96520000D03*
G04 #@! TD*
G04 #@! TO.P,TP35,1*
G04 #@! TO.N,Net-(TP35-Pad1)*
X66040000Y-93980000D03*
G04 #@! TD*
G04 #@! TO.P,TP36,1*
G04 #@! TO.N,Net-(TP36-Pad1)*
X76200000Y-93980000D03*
G04 #@! TD*
G04 #@! TO.P,TP25,1*
G04 #@! TO.N,Net-(TP25-Pad1)*
X63500000Y-93980000D03*
G04 #@! TD*
G04 #@! TO.P,TP10,1*
G04 #@! TO.N,Net-(TP10-Pad1)*
X76200000Y-91440000D03*
G04 #@! TD*
G04 #@! TO.P,TP12,1*
G04 #@! TO.N,Net-(TP12-Pad1)*
X76200000Y-88900000D03*
G04 #@! TD*
G04 #@! TO.P,TP13,1*
G04 #@! TO.N,Net-(TP13-Pad1)*
X73660000Y-91440000D03*
G04 #@! TD*
G04 #@! TO.P,TP14,1*
G04 #@! TO.N,Net-(TP14-Pad1)*
X76200000Y-86360000D03*
G04 #@! TD*
G04 #@! TO.P,TP15,1*
G04 #@! TO.N,Net-(TP15-Pad1)*
X73660000Y-88900000D03*
G04 #@! TD*
G04 #@! TO.P,TP16,1*
G04 #@! TO.N,Net-(TP16-Pad1)*
X71120000Y-91440000D03*
G04 #@! TD*
G04 #@! TO.P,TP17,1*
G04 #@! TO.N,Net-(TP17-Pad1)*
X73660000Y-86360000D03*
G04 #@! TD*
G04 #@! TO.P,TP18,1*
G04 #@! TO.N,Net-(TP18-Pad1)*
X71120000Y-88900000D03*
G04 #@! TD*
G04 #@! TO.P,TP19,1*
G04 #@! TO.N,Net-(TP19-Pad1)*
X68580000Y-91440000D03*
G04 #@! TD*
G04 #@! TO.P,TP20,1*
G04 #@! TO.N,Net-(TP20-Pad1)*
X71120000Y-86360000D03*
G04 #@! TD*
G04 #@! TO.P,TP21,1*
G04 #@! TO.N,Net-(TP21-Pad1)*
X68580000Y-88900000D03*
G04 #@! TD*
G04 #@! TO.P,TP11,1*
G04 #@! TO.N,Net-(TP11-Pad1)*
X66040000Y-91440000D03*
G04 #@! TD*
G04 #@! TO.P,TP9,1*
G04 #@! TO.N,Net-(TP9-Pad1)*
X68580000Y-86360000D03*
G04 #@! TD*
G04 #@! TO.P,TP7,1*
G04 #@! TO.N,Net-(TP7-Pad1)*
X66040000Y-88900000D03*
G04 #@! TD*
G04 #@! TO.P,TP22,1*
G04 #@! TO.N,Net-(TP22-Pad1)*
X63500000Y-91440000D03*
G04 #@! TD*
G04 #@! TO.P,TP23,1*
G04 #@! TO.N,Net-(TP23-Pad1)*
X66040000Y-86360000D03*
G04 #@! TD*
G04 #@! TO.P,TP24,1*
G04 #@! TO.N,Net-(TP24-Pad1)*
X63500000Y-88900000D03*
G04 #@! TD*
G04 #@! TO.P,TP8,1*
G04 #@! TO.N,Net-(TP8-Pad1)*
X63500000Y-86360000D03*
G04 #@! TD*
G04 #@! TO.P,TP6,1*
G04 #@! TO.N,Net-(TP6-Pad1)*
X66040000Y-83820000D03*
G04 #@! TD*
G04 #@! TO.P,TP5,1*
G04 #@! TO.N,Net-(TP5-Pad1)*
X63500000Y-83820000D03*
G04 #@! TD*
G04 #@! TO.P,TP4,1*
G04 #@! TO.N,Net-(TP4-Pad1)*
X76200000Y-83820000D03*
G04 #@! TD*
G04 #@! TO.P,TP3,1*
G04 #@! TO.N,Net-(TP3-Pad1)*
X73660000Y-83820000D03*
G04 #@! TD*
G04 #@! TO.P,TP2,1*
G04 #@! TO.N,Net-(TP2-Pad1)*
X68580000Y-83820000D03*
G04 #@! TD*
G04 #@! TO.P,TP1,1*
G04 #@! TO.N,Net-(TP1-Pad1)*
X71120000Y-83820000D03*
G04 #@! TD*
D11*
G04 #@! TO.P,U1,38*
G04 #@! TO.N,Net-(U1-Pad38)*
X62230000Y-125950000D03*
G04 #@! TO.P,U1,37*
G04 #@! TO.N,/D7_BOOT1*
X61730000Y-127950000D03*
G04 #@! TO.P,U1,39*
G04 #@! TO.N,Net-(U1-Pad39)*
X62730000Y-123950000D03*
G04 #@! TO.P,U1,36*
G04 #@! TO.N,Net-(U1-Pad36)*
X61230000Y-123950000D03*
G04 #@! TO.P,U1,35*
G04 #@! TO.N,Net-(U1-Pad35)*
X60730000Y-125950000D03*
G04 #@! TO.P,U1,34*
G04 #@! TO.N,Net-(U1-Pad34)*
X60230000Y-127950000D03*
G04 #@! TO.P,U1,32*
G04 #@! TO.N,Net-(U1-Pad32)*
X59230000Y-125950000D03*
G04 #@! TO.P,U1,31*
G04 #@! TO.N,Net-(U1-Pad31)*
X58730000Y-127950000D03*
G04 #@! TO.P,U1,33*
G04 #@! TO.N,Net-(U1-Pad33)*
X59730000Y-123950000D03*
G04 #@! TO.P,U1,29*
G04 #@! TO.N,Net-(U1-Pad29)*
X57730000Y-125950000D03*
G04 #@! TO.P,U1,30*
G04 #@! TO.N,Net-(U1-Pad30)*
X58230000Y-123950000D03*
G04 #@! TO.P,U1,28*
G04 #@! TO.N,+3V3*
X57230000Y-127950000D03*
G04 #@! TO.P,U1,26*
G04 #@! TO.N,Net-(U1-Pad26)*
X56230000Y-125950000D03*
G04 #@! TO.P,U1,27*
G04 #@! TO.N,GNDA*
X56730000Y-123950000D03*
G04 #@! TO.P,U1,42*
G04 #@! TO.N,Net-(U1-Pad42)*
X64230000Y-123950000D03*
G04 #@! TO.P,U1,41*
G04 #@! TO.N,Net-(U1-Pad41)*
X63730000Y-125950000D03*
G04 #@! TO.P,U1,40*
G04 #@! TO.N,Net-(U1-Pad40)*
X63230000Y-127950000D03*
G04 #@! TO.P,U1,43*
G04 #@! TO.N,Net-(U1-Pad43)*
X64730000Y-127950000D03*
G04 #@! TO.P,U1,45*
G04 #@! TO.N,Net-(U1-Pad45)*
X65730000Y-123950000D03*
G04 #@! TO.P,U1,44*
G04 #@! TO.N,Net-(U1-Pad44)*
X65230000Y-125950000D03*
G04 #@! TO.P,U1,46*
G04 #@! TO.N,Net-(U1-Pad46)*
X66230000Y-127950000D03*
G04 #@! TO.P,U1,47*
G04 #@! TO.N,Net-(U1-Pad47)*
X66730000Y-125950000D03*
G04 #@! TO.P,U1,48*
G04 #@! TO.N,Net-(U1-Pad48)*
X67230000Y-123950000D03*
G04 #@! TO.P,U1,50*
G04 #@! TO.N,+3V3*
X68230000Y-125950000D03*
G04 #@! TO.P,U1,49*
G04 #@! TO.N,Net-(U1-Pad49)*
X67730000Y-127950000D03*
G04 #@! TO.P,U1,89*
G04 #@! TO.N,Net-(U1-Pad89)*
X61730000Y-104650000D03*
G04 #@! TO.P,U1,92*
G04 #@! TO.N,Net-(U1-Pad92)*
X60230000Y-104650000D03*
G04 #@! TO.P,U1,98*
G04 #@! TO.N,Net-(U1-Pad98)*
X57230000Y-104650000D03*
G04 #@! TO.P,U1,78*
G04 #@! TO.N,Net-(U1-Pad78)*
X67230000Y-100650000D03*
G04 #@! TO.P,U1,96*
G04 #@! TO.N,Net-(U1-Pad96)*
X58230000Y-100650000D03*
G04 #@! TO.P,U1,77*
G04 #@! TO.N,Net-(U1-Pad77)*
X67730000Y-104650000D03*
G04 #@! TO.P,U1,82*
G04 #@! TO.N,Net-(U1-Pad82)*
X65230000Y-102650000D03*
G04 #@! TO.P,U1,86*
G04 #@! TO.N,Net-(U1-Pad86)*
X63230000Y-104650000D03*
G04 #@! TO.P,U1,90*
G04 #@! TO.N,Net-(U1-Pad90)*
X61230000Y-100650000D03*
G04 #@! TO.P,U1,81*
G04 #@! TO.N,Net-(U1-Pad81)*
X65730000Y-100650000D03*
G04 #@! TO.P,U1,99*
G04 #@! TO.N,GNDA*
X56730000Y-100650000D03*
G04 #@! TO.P,U1,80*
G04 #@! TO.N,Net-(U1-Pad80)*
X66230000Y-104650000D03*
G04 #@! TO.P,U1,84*
G04 #@! TO.N,Net-(U1-Pad84)*
X64230000Y-100650000D03*
G04 #@! TO.P,U1,85*
G04 #@! TO.N,Net-(U1-Pad85)*
X63730000Y-102650000D03*
G04 #@! TO.P,U1,76*
G04 #@! TO.N,Net-(U1-Pad76)*
X68230000Y-102650000D03*
G04 #@! TO.P,U1,94*
G04 #@! TO.N,/D6_BOOT0*
X59230000Y-102650000D03*
G04 #@! TO.P,U1,95*
G04 #@! TO.N,Net-(U1-Pad95)*
X58730000Y-104650000D03*
G04 #@! TO.P,U1,88*
G04 #@! TO.N,Net-(U1-Pad88)*
X62230000Y-102650000D03*
G04 #@! TO.P,U1,97*
G04 #@! TO.N,Net-(U1-Pad97)*
X57730000Y-102650000D03*
G04 #@! TO.P,U1,87*
G04 #@! TO.N,Net-(U1-Pad87)*
X62730000Y-100650000D03*
G04 #@! TO.P,U1,100*
G04 #@! TO.N,+3V3*
X56230000Y-102650000D03*
G04 #@! TO.P,U1,91*
G04 #@! TO.N,Net-(U1-Pad91)*
X60730000Y-102650000D03*
G04 #@! TO.P,U1,83*
G04 #@! TO.N,Net-(U1-Pad83)*
X64730000Y-104650000D03*
G04 #@! TO.P,U1,93*
G04 #@! TO.N,Net-(U1-Pad93)*
X59730000Y-100650000D03*
G04 #@! TO.P,U1,79*
G04 #@! TO.N,Net-(U1-Pad79)*
X66730000Y-102650000D03*
G04 #@! TO.P,U1,63*
G04 #@! TO.N,Net-(U1-Pad63)*
X73880000Y-114300000D03*
G04 #@! TO.P,U1,64*
G04 #@! TO.N,Net-(U1-Pad64)*
X71880000Y-113800000D03*
G04 #@! TO.P,U1,62*
G04 #@! TO.N,Net-(U1-Pad62)*
X75880000Y-114800000D03*
G04 #@! TO.P,U1,61*
G04 #@! TO.N,Net-(U1-Pad61)*
X71880000Y-115300000D03*
G04 #@! TO.P,U1,60*
G04 #@! TO.N,Net-(U1-Pad60)*
X73880000Y-115800000D03*
G04 #@! TO.P,U1,59*
G04 #@! TO.N,Net-(U1-Pad59)*
X75880000Y-116300000D03*
G04 #@! TO.P,U1,57*
G04 #@! TO.N,Net-(U1-Pad57)*
X73880000Y-117300000D03*
G04 #@! TO.P,U1,58*
G04 #@! TO.N,Net-(U1-Pad58)*
X71880000Y-116800000D03*
G04 #@! TO.P,U1,56*
G04 #@! TO.N,Net-(U1-Pad56)*
X75880000Y-117800000D03*
G04 #@! TO.P,U1,55*
G04 #@! TO.N,Net-(U1-Pad55)*
X71880000Y-118300000D03*
G04 #@! TO.P,U1,53*
G04 #@! TO.N,Net-(U1-Pad53)*
X75880000Y-119300000D03*
G04 #@! TO.P,U1,54*
G04 #@! TO.N,Net-(U1-Pad54)*
X73880000Y-118800000D03*
G04 #@! TO.P,U1,52*
G04 #@! TO.N,Net-(U1-Pad52)*
X71880000Y-119800000D03*
G04 #@! TO.P,U1,51*
G04 #@! TO.N,Net-(U1-Pad51)*
X73880000Y-120300000D03*
G04 #@! TO.P,U1,67*
G04 #@! TO.N,Net-(U1-Pad67)*
X71880000Y-112300000D03*
G04 #@! TO.P,U1,66*
G04 #@! TO.N,Net-(U1-Pad66)*
X73880000Y-112800000D03*
G04 #@! TO.P,U1,65*
G04 #@! TO.N,Net-(U1-Pad65)*
X75880000Y-113300000D03*
G04 #@! TO.P,U1,69*
G04 #@! TO.N,/D0_MCU_RX*
X73880000Y-111300000D03*
G04 #@! TO.P,U1,68*
G04 #@! TO.N,/D1_MCU_TX*
X75880000Y-111800000D03*
G04 #@! TO.P,U1,70*
G04 #@! TO.N,Net-(U1-Pad70)*
X71880000Y-110800000D03*
G04 #@! TO.P,U1,72*
G04 #@! TO.N,Net-(U1-Pad72)*
X73880000Y-109800000D03*
G04 #@! TO.P,U1,71*
G04 #@! TO.N,Net-(U1-Pad71)*
X75880000Y-110300000D03*
G04 #@! TO.P,U1,73*
G04 #@! TO.N,Net-(U1-Pad73)*
X71880000Y-109300000D03*
G04 #@! TO.P,U1,74*
G04 #@! TO.N,GNDA*
X75880000Y-108800000D03*
G04 #@! TO.P,U1,75*
G04 #@! TO.N,+3V3*
X73880000Y-108300000D03*
G04 #@! TO.P,U1,16*
G04 #@! TO.N,Net-(U1-Pad16)*
X50580000Y-115800000D03*
G04 #@! TO.P,U1,17*
G04 #@! TO.N,Net-(U1-Pad17)*
X52580000Y-116300000D03*
G04 #@! TO.P,U1,19*
G04 #@! TO.N,+3V3*
X50580000Y-117300000D03*
G04 #@! TO.P,U1,13*
G04 #@! TO.N,Net-(C3-Pad2)*
X50580000Y-114300000D03*
G04 #@! TO.P,U1,10*
G04 #@! TO.N,GNDA*
X50580000Y-112800000D03*
G04 #@! TO.P,U1,11*
G04 #@! TO.N,+3V3*
X52580000Y-113300000D03*
G04 #@! TO.P,U1,7*
G04 #@! TO.N,Net-(U1-Pad7)*
X50580000Y-111300000D03*
G04 #@! TO.P,U1,8*
G04 #@! TO.N,Net-(U1-Pad8)*
X52580000Y-111800000D03*
G04 #@! TO.P,U1,6*
G04 #@! TO.N,Net-(U1-Pad6)*
X48580000Y-110800000D03*
G04 #@! TO.P,U1,4*
G04 #@! TO.N,Net-(U1-Pad4)*
X50580000Y-109800000D03*
G04 #@! TO.P,U1,5*
G04 #@! TO.N,Net-(U1-Pad5)*
X52580000Y-110300000D03*
G04 #@! TO.P,U1,3*
G04 #@! TO.N,Net-(U1-Pad3)*
X48580000Y-109300000D03*
G04 #@! TO.P,U1,12*
G04 #@! TO.N,Net-(C2-Pad2)*
X48580000Y-113800000D03*
G04 #@! TO.P,U1,18*
G04 #@! TO.N,Net-(U1-Pad18)*
X48580000Y-116800000D03*
G04 #@! TO.P,U1,20*
G04 #@! TO.N,GNDA*
X52580000Y-117800000D03*
G04 #@! TO.P,U1,21*
G04 #@! TO.N,Net-(U1-Pad21)*
X48580000Y-118300000D03*
G04 #@! TO.P,U1,23*
G04 #@! TO.N,Net-(U1-Pad23)*
X52580000Y-119300000D03*
G04 #@! TO.P,U1,22*
G04 #@! TO.N,+3V3*
X50580000Y-118800000D03*
G04 #@! TO.P,U1,24*
G04 #@! TO.N,Net-(U1-Pad24)*
X48580000Y-119800000D03*
G04 #@! TO.P,U1,25*
G04 #@! TO.N,Net-(U1-Pad25)*
X50580000Y-120300000D03*
G04 #@! TO.P,U1,9*
G04 #@! TO.N,Net-(U1-Pad9)*
X48580000Y-112300000D03*
G04 #@! TO.P,U1,14*
G04 #@! TO.N,/D2_NRST*
X52580000Y-114800000D03*
G04 #@! TO.P,U1,15*
G04 #@! TO.N,/D3_MCU_PC0*
X48580000Y-115300000D03*
G04 #@! TO.P,U1,2*
G04 #@! TO.N,Net-(U1-Pad2)*
X52580000Y-108800000D03*
G04 #@! TO.P,U1,1*
G04 #@! TO.N,Net-(U1-Pad1)*
X50580000Y-108300000D03*
D12*
G04 #@! TO.P,U1,*
G04 #@! TO.N,*
X62230000Y-114300000D03*
D13*
X53230000Y-123300000D03*
X71230000Y-105300000D03*
G04 #@! TD*
D14*
G04 #@! TO.P,J1,1*
G04 #@! TO.N,/D1_MCU_TX*
X50800000Y-154940000D03*
D15*
G04 #@! TO.P,J1,2*
G04 #@! TO.N,/D0_MCU_RX*
X50800000Y-152400000D03*
G04 #@! TO.P,J1,3*
G04 #@! TO.N,/D3_MCU_PC0*
X53340000Y-154940000D03*
G04 #@! TO.P,J1,4*
G04 #@! TO.N,/D2_NRST*
X53340000Y-152400000D03*
G04 #@! TO.P,J1,5*
G04 #@! TO.N,Net-(J1-Pad5)*
X55880000Y-154940000D03*
G04 #@! TO.P,J1,6*
G04 #@! TO.N,Net-(J1-Pad6)*
X55880000Y-152400000D03*
G04 #@! TO.P,J1,7*
G04 #@! TO.N,/D7_BOOT1*
X58420000Y-154940000D03*
G04 #@! TO.P,J1,8*
G04 #@! TO.N,/D6_BOOT0*
X58420000Y-152400000D03*
G04 #@! TO.P,J1,9*
G04 #@! TO.N,Net-(J1-Pad9)*
X60960000Y-154940000D03*
G04 #@! TO.P,J1,10*
G04 #@! TO.N,Net-(J1-Pad10)*
X60960000Y-152400000D03*
G04 #@! TO.P,J1,11*
G04 #@! TO.N,Net-(J1-Pad11)*
X63500000Y-154940000D03*
G04 #@! TO.P,J1,12*
G04 #@! TO.N,Net-(J1-Pad12)*
X63500000Y-152400000D03*
G04 #@! TO.P,J1,13*
G04 #@! TO.N,Net-(J1-Pad13)*
X66040000Y-154940000D03*
G04 #@! TO.P,J1,14*
G04 #@! TO.N,Net-(J1-Pad14)*
X66040000Y-152400000D03*
G04 #@! TO.P,J1,15*
G04 #@! TO.N,Net-(J1-Pad15)*
X68580000Y-154940000D03*
G04 #@! TO.P,J1,16*
G04 #@! TO.N,Net-(J1-Pad16)*
X68580000Y-152400000D03*
G04 #@! TO.P,J1,17*
G04 #@! TO.N,GND*
X71120000Y-154940000D03*
G04 #@! TO.P,J1,18*
G04 #@! TO.N,Net-(J1-Pad18)*
X71120000Y-152400000D03*
G04 #@! TO.P,J1,19*
G04 #@! TO.N,GNDA*
X73660000Y-154940000D03*
G04 #@! TO.P,J1,20*
G04 #@! TO.N,+3V3*
X73660000Y-152400000D03*
G04 #@! TD*
G04 #@! TO.P,J2,20*
G04 #@! TO.N,Net-(J2-Pad20)*
X73660000Y-73660000D03*
G04 #@! TO.P,J2,19*
G04 #@! TO.N,Net-(J2-Pad19)*
X73660000Y-76200000D03*
G04 #@! TO.P,J2,18*
G04 #@! TO.N,Net-(J2-Pad18)*
X71120000Y-73660000D03*
G04 #@! TO.P,J2,17*
G04 #@! TO.N,Net-(J2-Pad17)*
X71120000Y-76200000D03*
G04 #@! TO.P,J2,16*
G04 #@! TO.N,Net-(J2-Pad16)*
X68580000Y-73660000D03*
G04 #@! TO.P,J2,15*
G04 #@! TO.N,Net-(J2-Pad15)*
X68580000Y-76200000D03*
G04 #@! TO.P,J2,14*
G04 #@! TO.N,Net-(J2-Pad14)*
X66040000Y-73660000D03*
G04 #@! TO.P,J2,13*
G04 #@! TO.N,Net-(J2-Pad13)*
X66040000Y-76200000D03*
G04 #@! TO.P,J2,12*
G04 #@! TO.N,Net-(J2-Pad12)*
X63500000Y-73660000D03*
G04 #@! TO.P,J2,11*
G04 #@! TO.N,Net-(J2-Pad11)*
X63500000Y-76200000D03*
G04 #@! TO.P,J2,10*
G04 #@! TO.N,Net-(J2-Pad10)*
X60960000Y-73660000D03*
G04 #@! TO.P,J2,9*
G04 #@! TO.N,Net-(J2-Pad9)*
X60960000Y-76200000D03*
G04 #@! TO.P,J2,8*
G04 #@! TO.N,Net-(J2-Pad8)*
X58420000Y-73660000D03*
G04 #@! TO.P,J2,7*
G04 #@! TO.N,Net-(J2-Pad7)*
X58420000Y-76200000D03*
G04 #@! TO.P,J2,6*
G04 #@! TO.N,Net-(J2-Pad6)*
X55880000Y-73660000D03*
G04 #@! TO.P,J2,5*
G04 #@! TO.N,Net-(J2-Pad5)*
X55880000Y-76200000D03*
G04 #@! TO.P,J2,4*
G04 #@! TO.N,Net-(J2-Pad4)*
X53340000Y-73660000D03*
G04 #@! TO.P,J2,3*
G04 #@! TO.N,Net-(J2-Pad3)*
X53340000Y-76200000D03*
G04 #@! TO.P,J2,2*
G04 #@! TO.N,Net-(J2-Pad2)*
X50800000Y-73660000D03*
D14*
G04 #@! TO.P,J2,1*
G04 #@! TO.N,Net-(J2-Pad1)*
X50800000Y-76200000D03*
G04 #@! TD*
D16*
G04 #@! TO.N,GNDA*
G04 #@! TO.C,C3*
G36*
X52005142Y-95821174D02*
X52028803Y-95824684D01*
X52052007Y-95830496D01*
X52074529Y-95838554D01*
X52096153Y-95848782D01*
X52116670Y-95861079D01*
X52135883Y-95875329D01*
X52153607Y-95891393D01*
X52169671Y-95909117D01*
X52183921Y-95928330D01*
X52196218Y-95948847D01*
X52206446Y-95970471D01*
X52214504Y-95992993D01*
X52220316Y-96016197D01*
X52223826Y-96039858D01*
X52225000Y-96063750D01*
X52225000Y-96976250D01*
X52223826Y-97000142D01*
X52220316Y-97023803D01*
X52214504Y-97047007D01*
X52206446Y-97069529D01*
X52196218Y-97091153D01*
X52183921Y-97111670D01*
X52169671Y-97130883D01*
X52153607Y-97148607D01*
X52135883Y-97164671D01*
X52116670Y-97178921D01*
X52096153Y-97191218D01*
X52074529Y-97201446D01*
X52052007Y-97209504D01*
X52028803Y-97215316D01*
X52005142Y-97218826D01*
X51981250Y-97220000D01*
X51493750Y-97220000D01*
X51469858Y-97218826D01*
X51446197Y-97215316D01*
X51422993Y-97209504D01*
X51400471Y-97201446D01*
X51378847Y-97191218D01*
X51358330Y-97178921D01*
X51339117Y-97164671D01*
X51321393Y-97148607D01*
X51305329Y-97130883D01*
X51291079Y-97111670D01*
X51278782Y-97091153D01*
X51268554Y-97069529D01*
X51260496Y-97047007D01*
X51254684Y-97023803D01*
X51251174Y-97000142D01*
X51250000Y-96976250D01*
X51250000Y-96063750D01*
X51251174Y-96039858D01*
X51254684Y-96016197D01*
X51260496Y-95992993D01*
X51268554Y-95970471D01*
X51278782Y-95948847D01*
X51291079Y-95928330D01*
X51305329Y-95909117D01*
X51321393Y-95891393D01*
X51339117Y-95875329D01*
X51358330Y-95861079D01*
X51378847Y-95848782D01*
X51400471Y-95838554D01*
X51422993Y-95830496D01*
X51446197Y-95824684D01*
X51469858Y-95821174D01*
X51493750Y-95820000D01*
X51981250Y-95820000D01*
X52005142Y-95821174D01*
X52005142Y-95821174D01*
G37*
D17*
G04 #@! TD*
G04 #@! TO.P,C3,1*
G04 #@! TO.N,GNDA*
X51737500Y-96520000D03*
D16*
G04 #@! TO.N,Net-(C3-Pad2)*
G04 #@! TO.C,C3*
G36*
X50130142Y-95821174D02*
X50153803Y-95824684D01*
X50177007Y-95830496D01*
X50199529Y-95838554D01*
X50221153Y-95848782D01*
X50241670Y-95861079D01*
X50260883Y-95875329D01*
X50278607Y-95891393D01*
X50294671Y-95909117D01*
X50308921Y-95928330D01*
X50321218Y-95948847D01*
X50331446Y-95970471D01*
X50339504Y-95992993D01*
X50345316Y-96016197D01*
X50348826Y-96039858D01*
X50350000Y-96063750D01*
X50350000Y-96976250D01*
X50348826Y-97000142D01*
X50345316Y-97023803D01*
X50339504Y-97047007D01*
X50331446Y-97069529D01*
X50321218Y-97091153D01*
X50308921Y-97111670D01*
X50294671Y-97130883D01*
X50278607Y-97148607D01*
X50260883Y-97164671D01*
X50241670Y-97178921D01*
X50221153Y-97191218D01*
X50199529Y-97201446D01*
X50177007Y-97209504D01*
X50153803Y-97215316D01*
X50130142Y-97218826D01*
X50106250Y-97220000D01*
X49618750Y-97220000D01*
X49594858Y-97218826D01*
X49571197Y-97215316D01*
X49547993Y-97209504D01*
X49525471Y-97201446D01*
X49503847Y-97191218D01*
X49483330Y-97178921D01*
X49464117Y-97164671D01*
X49446393Y-97148607D01*
X49430329Y-97130883D01*
X49416079Y-97111670D01*
X49403782Y-97091153D01*
X49393554Y-97069529D01*
X49385496Y-97047007D01*
X49379684Y-97023803D01*
X49376174Y-97000142D01*
X49375000Y-96976250D01*
X49375000Y-96063750D01*
X49376174Y-96039858D01*
X49379684Y-96016197D01*
X49385496Y-95992993D01*
X49393554Y-95970471D01*
X49403782Y-95948847D01*
X49416079Y-95928330D01*
X49430329Y-95909117D01*
X49446393Y-95891393D01*
X49464117Y-95875329D01*
X49483330Y-95861079D01*
X49503847Y-95848782D01*
X49525471Y-95838554D01*
X49547993Y-95830496D01*
X49571197Y-95824684D01*
X49594858Y-95821174D01*
X49618750Y-95820000D01*
X50106250Y-95820000D01*
X50130142Y-95821174D01*
X50130142Y-95821174D01*
G37*
D17*
G04 #@! TD*
G04 #@! TO.P,C3,2*
G04 #@! TO.N,Net-(C3-Pad2)*
X49862500Y-96520000D03*
D16*
G04 #@! TO.N,Net-(C2-Pad2)*
G04 #@! TO.C,C2*
G36*
X55815142Y-95821174D02*
X55838803Y-95824684D01*
X55862007Y-95830496D01*
X55884529Y-95838554D01*
X55906153Y-95848782D01*
X55926670Y-95861079D01*
X55945883Y-95875329D01*
X55963607Y-95891393D01*
X55979671Y-95909117D01*
X55993921Y-95928330D01*
X56006218Y-95948847D01*
X56016446Y-95970471D01*
X56024504Y-95992993D01*
X56030316Y-96016197D01*
X56033826Y-96039858D01*
X56035000Y-96063750D01*
X56035000Y-96976250D01*
X56033826Y-97000142D01*
X56030316Y-97023803D01*
X56024504Y-97047007D01*
X56016446Y-97069529D01*
X56006218Y-97091153D01*
X55993921Y-97111670D01*
X55979671Y-97130883D01*
X55963607Y-97148607D01*
X55945883Y-97164671D01*
X55926670Y-97178921D01*
X55906153Y-97191218D01*
X55884529Y-97201446D01*
X55862007Y-97209504D01*
X55838803Y-97215316D01*
X55815142Y-97218826D01*
X55791250Y-97220000D01*
X55303750Y-97220000D01*
X55279858Y-97218826D01*
X55256197Y-97215316D01*
X55232993Y-97209504D01*
X55210471Y-97201446D01*
X55188847Y-97191218D01*
X55168330Y-97178921D01*
X55149117Y-97164671D01*
X55131393Y-97148607D01*
X55115329Y-97130883D01*
X55101079Y-97111670D01*
X55088782Y-97091153D01*
X55078554Y-97069529D01*
X55070496Y-97047007D01*
X55064684Y-97023803D01*
X55061174Y-97000142D01*
X55060000Y-96976250D01*
X55060000Y-96063750D01*
X55061174Y-96039858D01*
X55064684Y-96016197D01*
X55070496Y-95992993D01*
X55078554Y-95970471D01*
X55088782Y-95948847D01*
X55101079Y-95928330D01*
X55115329Y-95909117D01*
X55131393Y-95891393D01*
X55149117Y-95875329D01*
X55168330Y-95861079D01*
X55188847Y-95848782D01*
X55210471Y-95838554D01*
X55232993Y-95830496D01*
X55256197Y-95824684D01*
X55279858Y-95821174D01*
X55303750Y-95820000D01*
X55791250Y-95820000D01*
X55815142Y-95821174D01*
X55815142Y-95821174D01*
G37*
D17*
G04 #@! TD*
G04 #@! TO.P,C2,2*
G04 #@! TO.N,Net-(C2-Pad2)*
X55547500Y-96520000D03*
D16*
G04 #@! TO.N,GNDA*
G04 #@! TO.C,C2*
G36*
X53940142Y-95821174D02*
X53963803Y-95824684D01*
X53987007Y-95830496D01*
X54009529Y-95838554D01*
X54031153Y-95848782D01*
X54051670Y-95861079D01*
X54070883Y-95875329D01*
X54088607Y-95891393D01*
X54104671Y-95909117D01*
X54118921Y-95928330D01*
X54131218Y-95948847D01*
X54141446Y-95970471D01*
X54149504Y-95992993D01*
X54155316Y-96016197D01*
X54158826Y-96039858D01*
X54160000Y-96063750D01*
X54160000Y-96976250D01*
X54158826Y-97000142D01*
X54155316Y-97023803D01*
X54149504Y-97047007D01*
X54141446Y-97069529D01*
X54131218Y-97091153D01*
X54118921Y-97111670D01*
X54104671Y-97130883D01*
X54088607Y-97148607D01*
X54070883Y-97164671D01*
X54051670Y-97178921D01*
X54031153Y-97191218D01*
X54009529Y-97201446D01*
X53987007Y-97209504D01*
X53963803Y-97215316D01*
X53940142Y-97218826D01*
X53916250Y-97220000D01*
X53428750Y-97220000D01*
X53404858Y-97218826D01*
X53381197Y-97215316D01*
X53357993Y-97209504D01*
X53335471Y-97201446D01*
X53313847Y-97191218D01*
X53293330Y-97178921D01*
X53274117Y-97164671D01*
X53256393Y-97148607D01*
X53240329Y-97130883D01*
X53226079Y-97111670D01*
X53213782Y-97091153D01*
X53203554Y-97069529D01*
X53195496Y-97047007D01*
X53189684Y-97023803D01*
X53186174Y-97000142D01*
X53185000Y-96976250D01*
X53185000Y-96063750D01*
X53186174Y-96039858D01*
X53189684Y-96016197D01*
X53195496Y-95992993D01*
X53203554Y-95970471D01*
X53213782Y-95948847D01*
X53226079Y-95928330D01*
X53240329Y-95909117D01*
X53256393Y-95891393D01*
X53274117Y-95875329D01*
X53293330Y-95861079D01*
X53313847Y-95848782D01*
X53335471Y-95838554D01*
X53357993Y-95830496D01*
X53381197Y-95824684D01*
X53404858Y-95821174D01*
X53428750Y-95820000D01*
X53916250Y-95820000D01*
X53940142Y-95821174D01*
X53940142Y-95821174D01*
G37*
D17*
G04 #@! TD*
G04 #@! TO.P,C2,1*
G04 #@! TO.N,GNDA*
X53672500Y-96520000D03*
D16*
G04 #@! TO.N,+3V3*
G04 #@! TO.C,C1*
G36*
X49622142Y-121729174D02*
X49645803Y-121732684D01*
X49669007Y-121738496D01*
X49691529Y-121746554D01*
X49713153Y-121756782D01*
X49733670Y-121769079D01*
X49752883Y-121783329D01*
X49770607Y-121799393D01*
X49786671Y-121817117D01*
X49800921Y-121836330D01*
X49813218Y-121856847D01*
X49823446Y-121878471D01*
X49831504Y-121900993D01*
X49837316Y-121924197D01*
X49840826Y-121947858D01*
X49842000Y-121971750D01*
X49842000Y-122884250D01*
X49840826Y-122908142D01*
X49837316Y-122931803D01*
X49831504Y-122955007D01*
X49823446Y-122977529D01*
X49813218Y-122999153D01*
X49800921Y-123019670D01*
X49786671Y-123038883D01*
X49770607Y-123056607D01*
X49752883Y-123072671D01*
X49733670Y-123086921D01*
X49713153Y-123099218D01*
X49691529Y-123109446D01*
X49669007Y-123117504D01*
X49645803Y-123123316D01*
X49622142Y-123126826D01*
X49598250Y-123128000D01*
X49110750Y-123128000D01*
X49086858Y-123126826D01*
X49063197Y-123123316D01*
X49039993Y-123117504D01*
X49017471Y-123109446D01*
X48995847Y-123099218D01*
X48975330Y-123086921D01*
X48956117Y-123072671D01*
X48938393Y-123056607D01*
X48922329Y-123038883D01*
X48908079Y-123019670D01*
X48895782Y-122999153D01*
X48885554Y-122977529D01*
X48877496Y-122955007D01*
X48871684Y-122931803D01*
X48868174Y-122908142D01*
X48867000Y-122884250D01*
X48867000Y-121971750D01*
X48868174Y-121947858D01*
X48871684Y-121924197D01*
X48877496Y-121900993D01*
X48885554Y-121878471D01*
X48895782Y-121856847D01*
X48908079Y-121836330D01*
X48922329Y-121817117D01*
X48938393Y-121799393D01*
X48956117Y-121783329D01*
X48975330Y-121769079D01*
X48995847Y-121756782D01*
X49017471Y-121746554D01*
X49039993Y-121738496D01*
X49063197Y-121732684D01*
X49086858Y-121729174D01*
X49110750Y-121728000D01*
X49598250Y-121728000D01*
X49622142Y-121729174D01*
X49622142Y-121729174D01*
G37*
D17*
G04 #@! TD*
G04 #@! TO.P,C1,1*
G04 #@! TO.N,+3V3*
X49354500Y-122428000D03*
D16*
G04 #@! TO.N,GNDA*
G04 #@! TO.C,C1*
G36*
X51497142Y-121729174D02*
X51520803Y-121732684D01*
X51544007Y-121738496D01*
X51566529Y-121746554D01*
X51588153Y-121756782D01*
X51608670Y-121769079D01*
X51627883Y-121783329D01*
X51645607Y-121799393D01*
X51661671Y-121817117D01*
X51675921Y-121836330D01*
X51688218Y-121856847D01*
X51698446Y-121878471D01*
X51706504Y-121900993D01*
X51712316Y-121924197D01*
X51715826Y-121947858D01*
X51717000Y-121971750D01*
X51717000Y-122884250D01*
X51715826Y-122908142D01*
X51712316Y-122931803D01*
X51706504Y-122955007D01*
X51698446Y-122977529D01*
X51688218Y-122999153D01*
X51675921Y-123019670D01*
X51661671Y-123038883D01*
X51645607Y-123056607D01*
X51627883Y-123072671D01*
X51608670Y-123086921D01*
X51588153Y-123099218D01*
X51566529Y-123109446D01*
X51544007Y-123117504D01*
X51520803Y-123123316D01*
X51497142Y-123126826D01*
X51473250Y-123128000D01*
X50985750Y-123128000D01*
X50961858Y-123126826D01*
X50938197Y-123123316D01*
X50914993Y-123117504D01*
X50892471Y-123109446D01*
X50870847Y-123099218D01*
X50850330Y-123086921D01*
X50831117Y-123072671D01*
X50813393Y-123056607D01*
X50797329Y-123038883D01*
X50783079Y-123019670D01*
X50770782Y-122999153D01*
X50760554Y-122977529D01*
X50752496Y-122955007D01*
X50746684Y-122931803D01*
X50743174Y-122908142D01*
X50742000Y-122884250D01*
X50742000Y-121971750D01*
X50743174Y-121947858D01*
X50746684Y-121924197D01*
X50752496Y-121900993D01*
X50760554Y-121878471D01*
X50770782Y-121856847D01*
X50783079Y-121836330D01*
X50797329Y-121817117D01*
X50813393Y-121799393D01*
X50831117Y-121783329D01*
X50850330Y-121769079D01*
X50870847Y-121756782D01*
X50892471Y-121746554D01*
X50914993Y-121738496D01*
X50938197Y-121732684D01*
X50961858Y-121729174D01*
X50985750Y-121728000D01*
X51473250Y-121728000D01*
X51497142Y-121729174D01*
X51497142Y-121729174D01*
G37*
D17*
G04 #@! TD*
G04 #@! TO.P,C1,2*
G04 #@! TO.N,GNDA*
X51229500Y-122428000D03*
D18*
G04 #@! TO.P,Y1,1*
G04 #@! TO.N,Net-(C2-Pad2)*
X55245000Y-92710000D03*
G04 #@! TO.P,Y1,2*
G04 #@! TO.N,Net-(C3-Pad2)*
X50345000Y-92710000D03*
G04 #@! TD*
D19*
G04 #@! TO.N,/D6_BOOT0*
X70104000Y-120650000D03*
G04 #@! TO.N,/D7_BOOT1*
X61722000Y-131064000D03*
G04 #@! TO.N,/D2_NRST*
X53594000Y-120904000D03*
G04 #@! TD*
D20*
G04 #@! TO.N,/D6_BOOT0*
X57150000Y-155409002D02*
X57150000Y-153670000D01*
X57150000Y-153670000D02*
X58420000Y-152400000D01*
X70104000Y-128524000D02*
X49530000Y-149098000D01*
X70104000Y-120650000D02*
X70104000Y-128524000D01*
X56095002Y-156464000D02*
X57150000Y-155409002D01*
X49530000Y-149098000D02*
X49530000Y-155956000D01*
X49530000Y-155956000D02*
X50038000Y-156464000D01*
X50038000Y-156464000D02*
X56095002Y-156464000D01*
D21*
G04 #@! TO.N,GNDA*
X53672500Y-96520000D02*
X51737500Y-96520000D01*
D20*
X51562000Y-121513600D02*
X51562000Y-118818000D01*
X51980001Y-118399999D02*
X52580000Y-117800000D01*
X51562000Y-118818000D02*
X51980001Y-118399999D01*
X51229500Y-122428000D02*
X51229500Y-121846100D01*
X51229500Y-121846100D02*
X51562000Y-121513600D01*
D21*
X53672500Y-97592500D02*
X56730000Y-100650000D01*
X53672500Y-96520000D02*
X53672500Y-97592500D01*
G04 #@! TO.N,+3V3*
X54076500Y-127950000D02*
X56381472Y-127950000D01*
X49354500Y-123228000D02*
X54076500Y-127950000D01*
X49354500Y-122428000D02*
X49354500Y-123228000D01*
X56381472Y-127950000D02*
X57230000Y-127950000D01*
X53428528Y-113300000D02*
X54929999Y-114801471D01*
X52580000Y-113300000D02*
X53428528Y-113300000D01*
X54929999Y-103950001D02*
X56230000Y-102650000D01*
X54929999Y-114801471D02*
X54929999Y-103950001D01*
X68829999Y-125350001D02*
X68230000Y-125950000D01*
X68829999Y-109986001D02*
X68829999Y-125350001D01*
X73880000Y-108300000D02*
X73276000Y-107696000D01*
X71120000Y-107696000D02*
X68829999Y-109986001D01*
X73276000Y-107696000D02*
X71120000Y-107696000D01*
X54929999Y-114801471D02*
X54929999Y-127065999D01*
X55814000Y-127950000D02*
X56381472Y-127950000D01*
X54929999Y-127065999D02*
X55814000Y-127950000D01*
D20*
X49580800Y-119799200D02*
X49980001Y-119399999D01*
X49580800Y-121401700D02*
X49580800Y-119799200D01*
X49354500Y-122428000D02*
X49354500Y-121628000D01*
X49980001Y-119399999D02*
X50580000Y-118800000D01*
X49354500Y-121628000D02*
X49580800Y-121401700D01*
X51980001Y-113899999D02*
X52580000Y-113300000D01*
X51612800Y-116136202D02*
X51612800Y-114267200D01*
X51612800Y-114267200D02*
X51980001Y-113899999D01*
X50580000Y-117300000D02*
X50580000Y-117169002D01*
X50580000Y-117169002D02*
X51612800Y-116136202D01*
G04 #@! TO.N,/D7_BOOT1*
X61730000Y-127950000D02*
X61730000Y-131056000D01*
X61730000Y-131056000D02*
X61722000Y-131064000D01*
G04 #@! TO.N,/D1_MCU_TX*
X74879200Y-128828800D02*
X74879200Y-112800800D01*
X52070000Y-151638000D02*
X74879200Y-128828800D01*
X52070000Y-154770000D02*
X52070000Y-151638000D01*
X74879200Y-112800800D02*
X75880000Y-111800000D01*
X50800000Y-154940000D02*
X51900000Y-154940000D01*
X51900000Y-154940000D02*
X52070000Y-154770000D01*
G04 #@! TO.N,/D0_MCU_RX*
X72847200Y-128320800D02*
X50800000Y-150368000D01*
X50800000Y-150368000D02*
X50800000Y-152400000D01*
X73880000Y-111300000D02*
X72847200Y-112332800D01*
X72847200Y-112332800D02*
X72847200Y-128320800D01*
G04 #@! TO.N,Net-(C2-Pad2)*
X55245000Y-96217500D02*
X55547500Y-96520000D01*
X55547500Y-93012500D02*
X55245000Y-92710000D01*
X55547500Y-96520000D02*
X55547500Y-93012500D01*
X54495001Y-91960001D02*
X55245000Y-92710000D01*
X53975000Y-91440000D02*
X54495001Y-91960001D01*
X49784000Y-91440000D02*
X53975000Y-91440000D01*
X47498000Y-93726000D02*
X49784000Y-91440000D01*
X48580000Y-113800000D02*
X47498000Y-112718000D01*
X47498000Y-112718000D02*
X47498000Y-93726000D01*
G04 #@! TO.N,/D2_NRST*
X52580000Y-114800000D02*
X53594000Y-115814000D01*
X53594000Y-115814000D02*
X53594000Y-120904000D01*
G04 #@! TO.N,Net-(C3-Pad2)*
X49784000Y-96598500D02*
X49862500Y-96520000D01*
X49784000Y-96774000D02*
X49784000Y-96598500D01*
X49580800Y-96977200D02*
X49784000Y-96774000D01*
X50580000Y-114300000D02*
X49580800Y-113300800D01*
X49580800Y-113300800D02*
X49580800Y-96977200D01*
X49862500Y-93192500D02*
X50345000Y-92710000D01*
X49862500Y-96520000D02*
X49862500Y-93192500D01*
G04 #@! TD*
M02*
