G04 Layer_Color=8421504*
%FSLAX44Y44*%
%MOMM*%
G71*
G01*
G75*
%ADD10R,1.9050X0.6096*%
%ADD11R,1.0000X0.9500*%
%ADD12R,2.2000X1.5000*%
%ADD14R,4.1100X4.3600*%
%ADD15R,1.2700X0.3048*%
G04:AMPARAMS|DCode=16|XSize=1.2mm|YSize=0.6mm|CornerRadius=0.15mm|HoleSize=0mm|Usage=FLASHONLY|Rotation=0.000|XOffset=0mm|YOffset=0mm|HoleType=Round|Shape=RoundedRectangle|*
%AMROUNDEDRECTD16*
21,1,1.2000,0.3000,0,0,0.0*
21,1,0.9000,0.6000,0,0,0.0*
1,1,0.3000,0.4500,-0.1500*
1,1,0.3000,-0.4500,-0.1500*
1,1,0.3000,-0.4500,0.1500*
1,1,0.3000,0.4500,0.1500*
%
%ADD16ROUNDEDRECTD16*%
%ADD17R,0.3480X1.3970*%
G04:AMPARAMS|DCode=18|XSize=1.2mm|YSize=0.6mm|CornerRadius=0.15mm|HoleSize=0mm|Usage=FLASHONLY|Rotation=90.000|XOffset=0mm|YOffset=0mm|HoleType=Round|Shape=RoundedRectangle|*
%AMROUNDEDRECTD18*
21,1,1.2000,0.3000,0,0,90.0*
21,1,0.9000,0.6000,0,0,90.0*
1,1,0.3000,0.1500,0.4500*
1,1,0.3000,0.1500,-0.4500*
1,1,0.3000,-0.1500,-0.4500*
1,1,0.3000,-0.1500,0.4500*
%
%ADD18ROUNDEDRECTD18*%
%ADD19O,0.5000X1.3500*%
%ADD20R,1.0500X0.6000*%
%ADD21R,4.3000X4.3000*%
%ADD22O,2.1000X0.3000*%
%ADD23O,0.3000X2.1000*%
%ADD24R,1.5500X1.3000*%
%ADD25R,0.9500X1.0000*%
%ADD26R,0.6000X1.0500*%
%ADD27R,0.9000X0.8000*%
%ADD28R,1.0000X1.1000*%
%ADD29R,1.1000X1.0000*%
%ADD30R,0.4572X1.4478*%
%ADD31R,2.5400X0.6350*%
%ADD32R,4.6990X0.6350*%
%ADD33R,0.4500X1.3000*%
%ADD34R,1.5000X2.2000*%
%ADD35R,1.6000X0.8000*%
%ADD36R,0.7000X0.8000*%
%ADD38R,0.2800X0.5200*%
%ADD39R,0.5200X0.2800*%
%ADD40R,0.9144X0.7112*%
%ADD41R,0.7112X0.9144*%
%ADD42R,0.2700X1.1684*%
%ADD43R,0.9000X0.8000*%
%ADD83R,0.4000X0.2500*%
%ADD84R,0.2500X0.4000*%
D10*
X551551Y1071050D02*
D03*
Y1058350D02*
D03*
Y1045650D02*
D03*
Y1032950D02*
D03*
X497449D02*
D03*
Y1045650D02*
D03*
Y1058350D02*
D03*
Y1071050D02*
D03*
D11*
X1011000Y914250D02*
D03*
Y898750D02*
D03*
X696540Y1347250D02*
D03*
Y1331750D02*
D03*
X955000Y1232250D02*
D03*
Y1247750D02*
D03*
X915000Y1556250D02*
D03*
Y1571750D02*
D03*
X771000Y1556250D02*
D03*
Y1571750D02*
D03*
X627000Y1060250D02*
D03*
Y1044750D02*
D03*
D12*
X814000Y563500D02*
D03*
Y532500D02*
D03*
X426000Y609000D02*
D03*
Y640000D02*
D03*
X781001Y563500D02*
D03*
Y532500D02*
D03*
X747001Y563500D02*
D03*
Y532500D02*
D03*
X713001Y564500D02*
D03*
Y533500D02*
D03*
X679001Y564500D02*
D03*
Y533500D02*
D03*
X644001Y564500D02*
D03*
Y533500D02*
D03*
D14*
X944773Y593749D02*
D03*
D15*
X983000Y642500D02*
D03*
Y636000D02*
D03*
Y629500D02*
D03*
Y623000D02*
D03*
Y616500D02*
D03*
Y610000D02*
D03*
Y603500D02*
D03*
Y596999D02*
D03*
Y590499D02*
D03*
Y583999D02*
D03*
Y577499D02*
D03*
Y570999D02*
D03*
Y564499D02*
D03*
Y557999D02*
D03*
Y551499D02*
D03*
Y544999D02*
D03*
X906546D02*
D03*
Y551499D02*
D03*
Y557999D02*
D03*
Y564499D02*
D03*
Y570999D02*
D03*
Y577499D02*
D03*
Y583999D02*
D03*
Y590499D02*
D03*
Y596999D02*
D03*
Y603500D02*
D03*
Y610000D02*
D03*
Y616500D02*
D03*
Y623000D02*
D03*
Y629500D02*
D03*
Y636000D02*
D03*
Y642500D02*
D03*
D16*
X1071500Y649000D02*
D03*
Y658500D02*
D03*
Y668000D02*
D03*
X1048500D02*
D03*
Y649000D02*
D03*
X773750Y1155500D02*
D03*
Y1165000D02*
D03*
Y1174500D02*
D03*
X750750D02*
D03*
Y1155500D02*
D03*
X1968850Y579000D02*
D03*
Y569500D02*
D03*
Y560000D02*
D03*
X1991850D02*
D03*
Y579000D02*
D03*
D17*
X637750Y1261430D02*
D03*
X644250D02*
D03*
X650750D02*
D03*
X657250D02*
D03*
X663750D02*
D03*
X670250D02*
D03*
X676750D02*
D03*
X689750D02*
D03*
X683250D02*
D03*
X696250D02*
D03*
X702750D02*
D03*
X709250D02*
D03*
X715750D02*
D03*
X722250D02*
D03*
X637750Y1188310D02*
D03*
X644250D02*
D03*
X650750D02*
D03*
X657250D02*
D03*
X663750D02*
D03*
X670250D02*
D03*
X676750D02*
D03*
X683250D02*
D03*
X689750D02*
D03*
X696250D02*
D03*
X702750D02*
D03*
X709250D02*
D03*
X715750D02*
D03*
X722250D02*
D03*
D18*
X574749Y1173162D02*
D03*
X565249D02*
D03*
X555749D02*
D03*
Y1150162D02*
D03*
X574749D02*
D03*
X872000Y1197162D02*
D03*
X862500D02*
D03*
X853000D02*
D03*
Y1174162D02*
D03*
X872000D02*
D03*
D19*
X918750Y1232219D02*
D03*
X925250D02*
D03*
X931750D02*
D03*
X938250D02*
D03*
X918750Y1276719D02*
D03*
X925250D02*
D03*
X931750D02*
D03*
X938250D02*
D03*
X877250Y1555750D02*
D03*
X883750D02*
D03*
X890250D02*
D03*
X896750D02*
D03*
X877250Y1600250D02*
D03*
X883750D02*
D03*
X890250D02*
D03*
X896750D02*
D03*
X733250Y1555750D02*
D03*
X739750D02*
D03*
X746250D02*
D03*
X752750D02*
D03*
X733250Y1600250D02*
D03*
X739750D02*
D03*
X746250D02*
D03*
X752750D02*
D03*
D20*
X2085600Y589500D02*
D03*
Y580000D02*
D03*
Y599000D02*
D03*
X2113100D02*
D03*
Y580000D02*
D03*
Y589500D02*
D03*
D21*
X799000Y916000D02*
D03*
D22*
X693000Y1003500D02*
D03*
Y998500D02*
D03*
Y993500D02*
D03*
Y988500D02*
D03*
Y983500D02*
D03*
Y978500D02*
D03*
Y973500D02*
D03*
Y968500D02*
D03*
Y963500D02*
D03*
Y958500D02*
D03*
Y953500D02*
D03*
Y948500D02*
D03*
Y943500D02*
D03*
Y938500D02*
D03*
Y933500D02*
D03*
Y928500D02*
D03*
Y923500D02*
D03*
Y918500D02*
D03*
Y913500D02*
D03*
Y908500D02*
D03*
Y903500D02*
D03*
Y898500D02*
D03*
Y893500D02*
D03*
Y888500D02*
D03*
Y883500D02*
D03*
Y878500D02*
D03*
Y873500D02*
D03*
Y868500D02*
D03*
Y863500D02*
D03*
Y858500D02*
D03*
Y853500D02*
D03*
Y848500D02*
D03*
Y843500D02*
D03*
Y838500D02*
D03*
Y833500D02*
D03*
Y828500D02*
D03*
X905000D02*
D03*
Y833500D02*
D03*
Y838500D02*
D03*
Y843500D02*
D03*
Y848500D02*
D03*
Y853500D02*
D03*
Y858500D02*
D03*
Y863500D02*
D03*
Y868500D02*
D03*
Y873500D02*
D03*
Y878500D02*
D03*
Y883500D02*
D03*
Y888500D02*
D03*
Y893500D02*
D03*
Y898500D02*
D03*
Y903500D02*
D03*
Y908500D02*
D03*
Y913500D02*
D03*
Y918500D02*
D03*
Y923500D02*
D03*
Y928500D02*
D03*
Y933500D02*
D03*
Y938500D02*
D03*
Y943500D02*
D03*
Y948500D02*
D03*
Y953500D02*
D03*
Y958500D02*
D03*
Y963500D02*
D03*
Y968500D02*
D03*
Y973500D02*
D03*
Y978500D02*
D03*
Y983500D02*
D03*
Y988500D02*
D03*
Y993500D02*
D03*
Y998500D02*
D03*
Y1003500D02*
D03*
D23*
X711500Y810000D02*
D03*
X716500D02*
D03*
X721500D02*
D03*
X726500D02*
D03*
X731500D02*
D03*
X736500D02*
D03*
X741500D02*
D03*
X746500D02*
D03*
X751500D02*
D03*
X756500D02*
D03*
X761500D02*
D03*
X766500D02*
D03*
X771500D02*
D03*
X776500D02*
D03*
X781500D02*
D03*
X786500D02*
D03*
X791500D02*
D03*
X796500D02*
D03*
X801500D02*
D03*
X806500D02*
D03*
X811500D02*
D03*
X816500D02*
D03*
X821500D02*
D03*
X826500D02*
D03*
X831500D02*
D03*
X836500D02*
D03*
X841500D02*
D03*
X846500D02*
D03*
X851500D02*
D03*
X856500D02*
D03*
X861500D02*
D03*
X866500D02*
D03*
X871500D02*
D03*
X876500D02*
D03*
X881500D02*
D03*
X886500D02*
D03*
Y1022000D02*
D03*
X881500D02*
D03*
X876500D02*
D03*
X871500D02*
D03*
X866500D02*
D03*
X861500D02*
D03*
X856500D02*
D03*
X851500D02*
D03*
X846500D02*
D03*
X841500D02*
D03*
X836500D02*
D03*
X831500D02*
D03*
X826500D02*
D03*
X821500D02*
D03*
X816500D02*
D03*
X811500D02*
D03*
X806500D02*
D03*
X801500D02*
D03*
X796500D02*
D03*
X791500D02*
D03*
X786500D02*
D03*
X781500D02*
D03*
X776500D02*
D03*
X771500D02*
D03*
X766500D02*
D03*
X761500D02*
D03*
X756500D02*
D03*
X751500D02*
D03*
X746500D02*
D03*
X741500D02*
D03*
X736500D02*
D03*
X731500D02*
D03*
X726500D02*
D03*
X721500D02*
D03*
X716500D02*
D03*
X711500D02*
D03*
D24*
X1030250Y899000D02*
D03*
Y854000D02*
D03*
X1109750Y899000D02*
D03*
Y854000D02*
D03*
D25*
X551290Y939000D02*
D03*
X566790D02*
D03*
X551290Y923000D02*
D03*
X566790D02*
D03*
X551290Y955000D02*
D03*
X566790D02*
D03*
X967500Y661250D02*
D03*
X983000D02*
D03*
X696790Y1315500D02*
D03*
X712290D02*
D03*
X1014250Y1422500D02*
D03*
X998750D02*
D03*
X1017750Y1360500D02*
D03*
X1033250D02*
D03*
X1028750Y1456500D02*
D03*
X1044250D02*
D03*
X2101100Y616500D02*
D03*
X2085600D02*
D03*
X1028750Y1476500D02*
D03*
X1044250D02*
D03*
X2069100Y599500D02*
D03*
X2053600D02*
D03*
X845750Y1409000D02*
D03*
X830250D02*
D03*
X845250Y1347000D02*
D03*
X860750D02*
D03*
X859250Y1443000D02*
D03*
X874750D02*
D03*
X859250Y1463000D02*
D03*
X874750D02*
D03*
D26*
X1042500Y1394750D02*
D03*
X1052000D02*
D03*
X1033000D02*
D03*
Y1422250D02*
D03*
X1052000D02*
D03*
X1042500D02*
D03*
X987500Y1371250D02*
D03*
X978000D02*
D03*
X997000D02*
D03*
Y1343750D02*
D03*
X978000D02*
D03*
X987500D02*
D03*
X872000Y1381250D02*
D03*
X881500D02*
D03*
X862500D02*
D03*
Y1408750D02*
D03*
X881500D02*
D03*
X872000D02*
D03*
X806500Y1330250D02*
D03*
X816000D02*
D03*
X825500D02*
D03*
Y1357750D02*
D03*
X816000D02*
D03*
X806500D02*
D03*
D27*
X1014500Y1457000D02*
D03*
Y1476000D02*
D03*
X994500Y1466500D02*
D03*
X845000Y1443500D02*
D03*
Y1462500D02*
D03*
X825000Y1453000D02*
D03*
D28*
X689000Y1531500D02*
D03*
Y1548500D02*
D03*
D29*
X645000Y1054000D02*
D03*
X662000D02*
D03*
D30*
X2152009Y832639D02*
D03*
Y894361D02*
D03*
X2144008Y832639D02*
D03*
Y894361D02*
D03*
X2136008Y832639D02*
D03*
Y894361D02*
D03*
X2128006Y832639D02*
D03*
Y894361D02*
D03*
X2120005Y832639D02*
D03*
Y894361D02*
D03*
X2112005Y832639D02*
D03*
Y894361D02*
D03*
X2104003Y832639D02*
D03*
Y894361D02*
D03*
X2096003Y832639D02*
D03*
Y894361D02*
D03*
X2088002Y832639D02*
D03*
Y894361D02*
D03*
X2080000Y832639D02*
D03*
Y894361D02*
D03*
X2072000Y832639D02*
D03*
Y894361D02*
D03*
X2063999Y832639D02*
D03*
Y894361D02*
D03*
X2055997Y832639D02*
D03*
Y894361D02*
D03*
X2047997Y832639D02*
D03*
Y894361D02*
D03*
X2039996Y832639D02*
D03*
Y894361D02*
D03*
X2031994Y832639D02*
D03*
Y894361D02*
D03*
X2023994Y832639D02*
D03*
Y894361D02*
D03*
X2015992Y832639D02*
D03*
Y894361D02*
D03*
X2007991Y832639D02*
D03*
Y894361D02*
D03*
X1999991Y832639D02*
D03*
Y894361D02*
D03*
X2152009Y1613919D02*
D03*
Y1675641D02*
D03*
X2144008Y1613919D02*
D03*
Y1675641D02*
D03*
X2136008Y1613919D02*
D03*
Y1675641D02*
D03*
X2128006Y1613919D02*
D03*
Y1675641D02*
D03*
X2120005Y1613919D02*
D03*
Y1675641D02*
D03*
X2112005Y1613919D02*
D03*
Y1675641D02*
D03*
X2104003Y1613919D02*
D03*
Y1675641D02*
D03*
X2096003Y1613919D02*
D03*
Y1675641D02*
D03*
X2088002Y1613919D02*
D03*
Y1675641D02*
D03*
X2080000Y1613919D02*
D03*
Y1675641D02*
D03*
X2072000Y1613919D02*
D03*
Y1675641D02*
D03*
X2063999Y1613919D02*
D03*
Y1675641D02*
D03*
X2055997Y1613919D02*
D03*
Y1675641D02*
D03*
X2047997Y1613919D02*
D03*
Y1675641D02*
D03*
X2039996Y1613919D02*
D03*
Y1675641D02*
D03*
X2031994Y1613919D02*
D03*
Y1675641D02*
D03*
X2023994Y1613919D02*
D03*
Y1675641D02*
D03*
X2015992Y1613919D02*
D03*
Y1675641D02*
D03*
X2007991Y1613919D02*
D03*
Y1675641D02*
D03*
X1999991Y1613919D02*
D03*
Y1675641D02*
D03*
X1553009Y1613919D02*
D03*
Y1675641D02*
D03*
X1545009Y1613919D02*
D03*
Y1675641D02*
D03*
X1537007Y1613919D02*
D03*
Y1675641D02*
D03*
X1529007Y1613919D02*
D03*
Y1675641D02*
D03*
X1521006Y1613919D02*
D03*
Y1675641D02*
D03*
X1513004Y1613919D02*
D03*
Y1675641D02*
D03*
X1505004Y1613919D02*
D03*
Y1675641D02*
D03*
X1497003Y1613919D02*
D03*
Y1675641D02*
D03*
X1489001Y1613919D02*
D03*
Y1675641D02*
D03*
X1481001Y1613919D02*
D03*
Y1675641D02*
D03*
X1473000Y1613919D02*
D03*
Y1675641D02*
D03*
X1464998Y1613919D02*
D03*
Y1675641D02*
D03*
X1456998Y1613919D02*
D03*
Y1675641D02*
D03*
X1448996Y1613919D02*
D03*
Y1675641D02*
D03*
X1440995Y1613919D02*
D03*
Y1675641D02*
D03*
X1432995Y1613919D02*
D03*
Y1675641D02*
D03*
X1424993Y1613919D02*
D03*
Y1675641D02*
D03*
X1416992Y1613919D02*
D03*
Y1675641D02*
D03*
X1408992Y1613919D02*
D03*
Y1675641D02*
D03*
X1400990Y1613919D02*
D03*
Y1675641D02*
D03*
X1553009Y832639D02*
D03*
Y894361D02*
D03*
X1545009Y832639D02*
D03*
Y894361D02*
D03*
X1537007Y832639D02*
D03*
Y894361D02*
D03*
X1529007Y832639D02*
D03*
Y894361D02*
D03*
X1521006Y832639D02*
D03*
Y894361D02*
D03*
X1513004Y832639D02*
D03*
Y894361D02*
D03*
X1505004Y832639D02*
D03*
Y894361D02*
D03*
X1497003Y832639D02*
D03*
Y894361D02*
D03*
X1489001Y832639D02*
D03*
Y894361D02*
D03*
X1481001Y832639D02*
D03*
Y894361D02*
D03*
X1473000Y832639D02*
D03*
Y894361D02*
D03*
X1464998Y832639D02*
D03*
Y894361D02*
D03*
X1456998Y832639D02*
D03*
Y894361D02*
D03*
X1448996Y832639D02*
D03*
Y894361D02*
D03*
X1440995Y832639D02*
D03*
Y894361D02*
D03*
X1432995Y832639D02*
D03*
Y894361D02*
D03*
X1424993Y832639D02*
D03*
Y894361D02*
D03*
X1416992Y832639D02*
D03*
Y894361D02*
D03*
X1408992Y832639D02*
D03*
Y894361D02*
D03*
X1400990Y832639D02*
D03*
Y894361D02*
D03*
D31*
X2160455Y863500D02*
D03*
X1991545D02*
D03*
X2160455Y1644780D02*
D03*
X1991545D02*
D03*
X1561455D02*
D03*
X1392545D02*
D03*
X1561455Y863500D02*
D03*
X1392545D02*
D03*
D32*
X2107750D02*
D03*
X2044250D02*
D03*
X2107750Y1644780D02*
D03*
X2044250D02*
D03*
X1508750D02*
D03*
X1445250D02*
D03*
X1508750Y863500D02*
D03*
X1445250D02*
D03*
D33*
X451500Y1691500D02*
D03*
X445000D02*
D03*
X458000D02*
D03*
X432000D02*
D03*
X438500D02*
D03*
D34*
X1899000Y421000D02*
D03*
X1930000D02*
D03*
X1738000D02*
D03*
X1769000D02*
D03*
X1578500Y422000D02*
D03*
X1609500D02*
D03*
X1418249Y421999D02*
D03*
X1449249D02*
D03*
X1258500Y423000D02*
D03*
X1289500D02*
D03*
X1098500D02*
D03*
X1129500D02*
D03*
X938500D02*
D03*
X969500D02*
D03*
X809500D02*
D03*
X778500D02*
D03*
X649500D02*
D03*
X618500D02*
D03*
X489500D02*
D03*
X458500D02*
D03*
X2217500Y422000D02*
D03*
X2248500D02*
D03*
X2059000Y421000D02*
D03*
X2090000D02*
D03*
D35*
X1215781Y1323500D02*
D03*
X1247781D02*
D03*
X1215781Y1337500D02*
D03*
X1247781D02*
D03*
X2319000Y1323500D02*
D03*
X2351000D02*
D03*
X2319000Y1337500D02*
D03*
X2351000D02*
D03*
D36*
X1078495Y798000D02*
D03*
X1063495D02*
D03*
D38*
X438750Y1676500D02*
D03*
X445250D02*
D03*
X458000Y1665500D02*
D03*
X451500D02*
D03*
D39*
X472000Y1661750D02*
D03*
Y1668250D02*
D03*
D40*
X1002920Y636031D02*
D03*
Y647969D02*
D03*
X1015920Y636031D02*
D03*
Y647969D02*
D03*
X1032000Y649031D02*
D03*
Y660969D02*
D03*
X688500Y1278531D02*
D03*
Y1290469D02*
D03*
X676000Y1278531D02*
D03*
Y1290469D02*
D03*
X703000Y1531969D02*
D03*
Y1520031D02*
D03*
X2007350Y579531D02*
D03*
Y591469D02*
D03*
X2071350Y567531D02*
D03*
Y579469D02*
D03*
X2058350Y567531D02*
D03*
Y579469D02*
D03*
X733000Y1530969D02*
D03*
Y1519031D02*
D03*
X473500Y1034031D02*
D03*
Y1045969D02*
D03*
X996500Y910969D02*
D03*
Y899031D02*
D03*
X668000Y821031D02*
D03*
Y832969D02*
D03*
X645000Y1025531D02*
D03*
Y1037469D02*
D03*
X539000Y713031D02*
D03*
Y724969D02*
D03*
X537000Y685469D02*
D03*
Y673531D02*
D03*
X618000Y714000D02*
D03*
Y725938D02*
D03*
X616638Y686209D02*
D03*
Y674271D02*
D03*
X698000Y715031D02*
D03*
Y726969D02*
D03*
X695500Y687154D02*
D03*
Y675216D02*
D03*
X484000Y989531D02*
D03*
Y1001469D02*
D03*
X933750Y826531D02*
D03*
Y838469D02*
D03*
X916250Y806281D02*
D03*
Y818219D02*
D03*
X791500Y1155469D02*
D03*
Y1143531D02*
D03*
X734250Y1155031D02*
D03*
Y1166969D02*
D03*
D41*
X1091031Y668000D02*
D03*
X1102969D02*
D03*
X709031Y1295000D02*
D03*
X720969D02*
D03*
X595469Y888000D02*
D03*
X583531D02*
D03*
X1028438Y1491500D02*
D03*
X1016500D02*
D03*
X858969Y1478000D02*
D03*
X847031D02*
D03*
X574969Y1132500D02*
D03*
X563031D02*
D03*
X586719Y1191000D02*
D03*
X574781D02*
D03*
X932031Y1206000D02*
D03*
X943969D02*
D03*
X921969D02*
D03*
X910031D02*
D03*
X872469Y1154500D02*
D03*
X860531D02*
D03*
X891031Y1532000D02*
D03*
X902969D02*
D03*
X880969D02*
D03*
X869031D02*
D03*
X1968031Y594000D02*
D03*
X1979969D02*
D03*
X746000Y1532000D02*
D03*
X757938D02*
D03*
X586469Y1058000D02*
D03*
X574531D02*
D03*
X586469Y1071000D02*
D03*
X574531D02*
D03*
X699531Y788000D02*
D03*
X711469D02*
D03*
X655031Y993000D02*
D03*
X666969D02*
D03*
X657031Y1014000D02*
D03*
X668969D02*
D03*
X883969Y1215250D02*
D03*
X872031D02*
D03*
D42*
X524500Y685784D02*
D03*
X519500D02*
D03*
X514500D02*
D03*
X509500D02*
D03*
Y713216D02*
D03*
X514500D02*
D03*
X519500D02*
D03*
X524500D02*
D03*
X604138Y686524D02*
D03*
X599138D02*
D03*
X594138D02*
D03*
X589138D02*
D03*
Y713956D02*
D03*
X594138D02*
D03*
X599138D02*
D03*
X604138D02*
D03*
X683000Y687500D02*
D03*
X678000D02*
D03*
X673000D02*
D03*
X668000D02*
D03*
Y714932D02*
D03*
X673000D02*
D03*
X678000D02*
D03*
X683000D02*
D03*
D43*
X614750Y881250D02*
D03*
Y895750D02*
D03*
X633250D02*
D03*
Y881250D02*
D03*
D83*
X1018070Y1343750D02*
D03*
X1040930D02*
D03*
X1051930Y1440500D02*
D03*
X1029070D02*
D03*
X845570Y1330250D02*
D03*
X868430D02*
D03*
X881430Y1427000D02*
D03*
X858570D02*
D03*
D84*
X468500Y978570D02*
D03*
Y1001430D02*
D03*
M02*
