G04 Layer_Color=16711935*
%FSLAX44Y44*%
%MOMM*%
G71*
G01*
G75*
%ADD37R,0.6000X0.4500*%
%ADD44R,0.4500X0.6000*%
%ADD53C,1.5240*%
%ADD56R,1.5240X1.5240*%
%ADD85R,1.1520X1.1020*%
%ADD99R,1.1020X1.1520*%
%ADD102R,1.1520X1.2520*%
%ADD113R,1.0664X0.8632*%
%ADD114R,0.8632X1.0664*%
%ADD117R,30.1520X30.1520*%
%ADD118R,1.6520X1.6520*%
%ADD119C,1.6520*%
%ADD120C,1.6760*%
%ADD121C,4.6520*%
%ADD122C,6.6520*%
%ADD123C,1.7520*%
%ADD124C,0.1520*%
%ADD125O,1.5520X2.1520*%
%ADD126C,0.9520*%
%ADD127O,1.3020X1.9520*%
%ADD128C,2.2520*%
%ADD129R,1.6760X1.6760*%
%ADD130R,1.9520X1.9520*%
%ADD131C,1.9520*%
%ADD132R,1.6760X1.6760*%
%ADD133R,1.7776X1.7776*%
%ADD134C,1.7776*%
%ADD135C,0.8120*%
D37*
X300070Y1001000D02*
D03*
X322930D02*
D03*
X345570Y1023000D02*
D03*
X368430D02*
D03*
D44*
X368500Y931070D02*
D03*
Y953930D02*
D03*
D53*
X1701501Y542392D02*
D03*
X1726901D02*
D03*
X1752301D02*
D03*
X1777701D02*
D03*
X1803101D02*
D03*
X1828501D02*
D03*
X1853901D02*
D03*
Y618592D02*
D03*
X1828501D02*
D03*
X1803101D02*
D03*
X1777701D02*
D03*
X1752301D02*
D03*
X1726901D02*
D03*
X1701501D02*
D03*
X1676101D02*
D03*
X1450501Y542385D02*
D03*
X1475901D02*
D03*
X1501301D02*
D03*
X1526701D02*
D03*
X1552101D02*
D03*
X1577501D02*
D03*
X1602901D02*
D03*
Y618586D02*
D03*
X1577501D02*
D03*
X1552101D02*
D03*
X1526701D02*
D03*
X1501301D02*
D03*
X1475901D02*
D03*
X1450501D02*
D03*
X1425101D02*
D03*
X1450500Y653400D02*
D03*
X1475900D02*
D03*
X1501300D02*
D03*
X1526700D02*
D03*
X1552100D02*
D03*
X1577500D02*
D03*
X1602900D02*
D03*
Y729600D02*
D03*
X1577500D02*
D03*
X1552100D02*
D03*
X1526700D02*
D03*
X1501300D02*
D03*
X1475900D02*
D03*
X1450500D02*
D03*
X1425100D02*
D03*
X1702000Y654500D02*
D03*
X1727400D02*
D03*
X1752800D02*
D03*
X1778200D02*
D03*
X1803600D02*
D03*
X1829000D02*
D03*
X1854400D02*
D03*
Y730700D02*
D03*
X1829000D02*
D03*
X1803600D02*
D03*
X1778200D02*
D03*
X1752800D02*
D03*
X1727400D02*
D03*
X1702000D02*
D03*
X1676600D02*
D03*
D56*
X1676101Y542392D02*
D03*
X1425101Y542385D02*
D03*
X1425100Y653400D02*
D03*
X1676600Y654500D02*
D03*
D85*
X1778000Y588250D02*
D03*
Y572750D02*
D03*
X1803000Y588250D02*
D03*
Y572750D02*
D03*
X1829000Y588250D02*
D03*
Y572750D02*
D03*
X1854000Y588250D02*
D03*
Y572750D02*
D03*
X1676000Y588250D02*
D03*
Y572750D02*
D03*
X1702000Y588250D02*
D03*
Y572750D02*
D03*
X1727000Y588250D02*
D03*
Y572750D02*
D03*
X1753000Y588250D02*
D03*
Y572750D02*
D03*
X1527000Y588250D02*
D03*
Y572750D02*
D03*
X1552000Y588250D02*
D03*
Y572750D02*
D03*
X1577000Y588250D02*
D03*
Y572750D02*
D03*
X1603000Y588250D02*
D03*
Y572750D02*
D03*
X1425000Y588250D02*
D03*
Y572750D02*
D03*
X1450000Y588250D02*
D03*
Y572750D02*
D03*
X1476000Y588250D02*
D03*
Y572750D02*
D03*
X1501000Y588250D02*
D03*
Y572750D02*
D03*
X1778000Y700250D02*
D03*
Y684750D02*
D03*
X1803600Y700250D02*
D03*
Y684750D02*
D03*
X1577501Y700250D02*
D03*
Y684750D02*
D03*
X1603000Y700250D02*
D03*
Y684750D02*
D03*
X1425000Y700250D02*
D03*
Y684750D02*
D03*
X1450000Y699250D02*
D03*
Y683750D02*
D03*
X1476000Y699250D02*
D03*
Y683750D02*
D03*
X1501000Y699250D02*
D03*
Y683750D02*
D03*
X1829000Y700250D02*
D03*
Y684750D02*
D03*
X1552000Y699250D02*
D03*
Y683750D02*
D03*
X1527000Y699250D02*
D03*
Y683750D02*
D03*
X1753000Y699250D02*
D03*
Y683750D02*
D03*
X1727000Y699250D02*
D03*
Y683750D02*
D03*
X1702000Y699250D02*
D03*
Y683750D02*
D03*
X1676000Y700250D02*
D03*
Y684750D02*
D03*
X2233000Y414250D02*
D03*
Y429750D02*
D03*
X2074750Y413250D02*
D03*
Y428750D02*
D03*
X434000Y624250D02*
D03*
Y608750D02*
D03*
X1854000Y700250D02*
D03*
Y684750D02*
D03*
X419400Y1034250D02*
D03*
Y1018750D02*
D03*
X394500Y1034250D02*
D03*
Y1018750D02*
D03*
X394000Y951750D02*
D03*
Y936250D02*
D03*
X1113750Y402250D02*
D03*
Y417750D02*
D03*
X1273750Y400250D02*
D03*
Y415750D02*
D03*
X793750Y416750D02*
D03*
Y401250D02*
D03*
X953750Y417750D02*
D03*
Y402250D02*
D03*
X474000Y399250D02*
D03*
Y414750D02*
D03*
X633750Y401250D02*
D03*
Y416750D02*
D03*
X1433750Y414250D02*
D03*
Y429750D02*
D03*
X1593750Y414250D02*
D03*
Y429750D02*
D03*
X1753750Y413250D02*
D03*
Y428750D02*
D03*
X1914750Y415250D02*
D03*
Y430750D02*
D03*
D99*
X2327750Y874000D02*
D03*
X2312250D02*
D03*
X2293750Y625500D02*
D03*
X2278250D02*
D03*
X634000Y434000D02*
D03*
X649500D02*
D03*
X474250Y433000D02*
D03*
X489750D02*
D03*
X401250Y624500D02*
D03*
X416750D02*
D03*
X1114250Y434000D02*
D03*
X1129750D02*
D03*
X1274250Y432000D02*
D03*
X1289750D02*
D03*
X809500Y434000D02*
D03*
X794000D02*
D03*
X969500D02*
D03*
X954000D02*
D03*
D102*
X919330Y1046250D02*
D03*
Y1063250D02*
D03*
D113*
X741000Y982031D02*
D03*
Y993969D02*
D03*
X762000Y982031D02*
D03*
Y993969D02*
D03*
X811000Y982031D02*
D03*
Y993969D02*
D03*
X851000Y982062D02*
D03*
Y994000D02*
D03*
X846000Y1061969D02*
D03*
Y1050031D02*
D03*
X831500Y852969D02*
D03*
Y841031D02*
D03*
X759000Y850969D02*
D03*
Y839031D02*
D03*
X354500Y942031D02*
D03*
Y953969D02*
D03*
X806500Y770031D02*
D03*
Y781969D02*
D03*
X836500Y770031D02*
D03*
Y781969D02*
D03*
X728000Y769531D02*
D03*
Y781469D02*
D03*
X761500Y769531D02*
D03*
Y781469D02*
D03*
X782000Y1061969D02*
D03*
Y1050031D02*
D03*
X737000Y1061969D02*
D03*
Y1050031D02*
D03*
X819000Y1061969D02*
D03*
Y1050031D02*
D03*
X657500Y1161469D02*
D03*
Y1149531D02*
D03*
D114*
X734000Y843000D02*
D03*
X722062D02*
D03*
X733969Y863500D02*
D03*
X722031D02*
D03*
X734969Y886000D02*
D03*
X723031D02*
D03*
X722969Y971250D02*
D03*
X711031D02*
D03*
X864031Y973000D02*
D03*
X875969D02*
D03*
X864031Y884000D02*
D03*
X875969D02*
D03*
X945938Y868000D02*
D03*
X934000D02*
D03*
X865031Y853000D02*
D03*
X876969D02*
D03*
X865031Y841000D02*
D03*
X876969D02*
D03*
X739969Y816000D02*
D03*
X728031D02*
D03*
X735969Y923500D02*
D03*
X724031D02*
D03*
X311031Y987500D02*
D03*
X322969D02*
D03*
X356531Y1036750D02*
D03*
X368469D02*
D03*
X869281Y1022000D02*
D03*
X881219D02*
D03*
X946719Y1029750D02*
D03*
X934781D02*
D03*
X943969Y1000000D02*
D03*
X932031D02*
D03*
X939969Y940000D02*
D03*
X928031D02*
D03*
D117*
X2076000Y1254140D02*
D03*
D118*
X444800Y1001200D02*
D03*
D119*
Y975800D02*
D03*
X2113100Y724000D02*
D03*
X634000Y382003D02*
D03*
X474000Y381000D02*
D03*
X2233000D02*
D03*
X954000D02*
D03*
X794000D02*
D03*
X2075000D02*
D03*
X1915000D02*
D03*
X1274000D02*
D03*
X1114000D02*
D03*
X1754000D02*
D03*
X1594000D02*
D03*
X1434000D02*
D03*
X374000Y625000D02*
D03*
X1354000Y381000D02*
D03*
X2314000Y624500D02*
D03*
X932000Y1182000D02*
D03*
X816250Y1117000D02*
D03*
X517000Y578500D02*
D03*
X618000Y1103500D02*
D03*
X712000Y1439500D02*
D03*
D120*
X419400Y1001200D02*
D03*
Y975800D02*
D03*
X394000Y1001200D02*
D03*
Y975800D02*
D03*
X368600Y1001200D02*
D03*
Y975800D02*
D03*
X343200Y1001200D02*
D03*
Y975800D02*
D03*
X990000Y1561400D02*
D03*
Y1536000D02*
D03*
X534000Y1689000D02*
D03*
X559400D02*
D03*
X845000Y1560000D02*
D03*
Y1534600D02*
D03*
X563000Y711500D02*
D03*
Y686100D02*
D03*
X642638Y711640D02*
D03*
Y686240D02*
D03*
X723000Y711900D02*
D03*
Y686500D02*
D03*
D121*
X2326000Y1004000D02*
D03*
X2076000D02*
D03*
X1826000D02*
D03*
Y1254000D02*
D03*
X2326000D02*
D03*
Y1504000D02*
D03*
X1826000D02*
D03*
X2076000D02*
D03*
D122*
X2354000Y1129000D02*
D03*
X354000D02*
D03*
X2354000Y1629000D02*
D03*
X354000Y379000D02*
D03*
X2354000D02*
D03*
X354000Y1629000D02*
D03*
X1104000Y1129000D02*
D03*
Y1629000D02*
D03*
D123*
X990000Y1182000D02*
D03*
Y1207400D02*
D03*
Y1232800D02*
D03*
X2112750Y668400D02*
D03*
X2087350D02*
D03*
X2061950D02*
D03*
X950000Y1505600D02*
D03*
Y1531000D02*
D03*
Y1556400D02*
D03*
X805000Y1505600D02*
D03*
Y1531000D02*
D03*
Y1556400D02*
D03*
D124*
X2168392Y843180D02*
D03*
X1983607D02*
D03*
X2168392Y1624460D02*
D03*
X1983607D02*
D03*
X1569393D02*
D03*
X1384608D02*
D03*
X1569393Y843180D02*
D03*
X1384608D02*
D03*
D125*
X407750Y1691500D02*
D03*
X482250D02*
D03*
D126*
X420000Y1702500D02*
D03*
X470000D02*
D03*
D127*
X406250Y1729500D02*
D03*
X483750D02*
D03*
D128*
X332400Y899500D02*
D03*
X281600D02*
D03*
Y848700D02*
D03*
X332400D02*
D03*
X307000Y874100D02*
D03*
X2375600Y848700D02*
D03*
X2426400D02*
D03*
Y899500D02*
D03*
X2375600D02*
D03*
X2401000Y874100D02*
D03*
X2208600Y332400D02*
D03*
Y281600D02*
D03*
X2259400D02*
D03*
Y332400D02*
D03*
X2234000Y307000D02*
D03*
X2048600Y332400D02*
D03*
Y281600D02*
D03*
X2099400D02*
D03*
Y332400D02*
D03*
X2074000Y307000D02*
D03*
X1888600Y332400D02*
D03*
Y281600D02*
D03*
X1939400D02*
D03*
Y332400D02*
D03*
X1914000Y307000D02*
D03*
X1728600Y332400D02*
D03*
Y281600D02*
D03*
X1779400D02*
D03*
Y332400D02*
D03*
X1754000Y307000D02*
D03*
X1568600Y332400D02*
D03*
Y281600D02*
D03*
X1619400D02*
D03*
Y332400D02*
D03*
X1594000Y307000D02*
D03*
X1408600Y332400D02*
D03*
Y281600D02*
D03*
X1459400D02*
D03*
Y332400D02*
D03*
X1434000Y307000D02*
D03*
X608600Y332400D02*
D03*
Y281600D02*
D03*
X659400D02*
D03*
Y332400D02*
D03*
X634000Y307000D02*
D03*
X448600Y332400D02*
D03*
Y281600D02*
D03*
X499400D02*
D03*
Y332400D02*
D03*
X474000Y307000D02*
D03*
X928600Y281600D02*
D03*
Y332400D02*
D03*
X979400Y281600D02*
D03*
X954000Y307000D02*
D03*
X979400Y332400D02*
D03*
X768600Y281600D02*
D03*
Y332400D02*
D03*
X819400Y281600D02*
D03*
X794000Y307000D02*
D03*
X819400Y332400D02*
D03*
X1248600D02*
D03*
Y281600D02*
D03*
X1299400D02*
D03*
Y332400D02*
D03*
X1274000Y307000D02*
D03*
X1088600Y332400D02*
D03*
Y281600D02*
D03*
X1139400D02*
D03*
Y332400D02*
D03*
X1114000Y307000D02*
D03*
X332400Y649900D02*
D03*
X281600D02*
D03*
Y599100D02*
D03*
X332400D02*
D03*
X307000Y624500D02*
D03*
X2375600Y599100D02*
D03*
X2426400D02*
D03*
Y649900D02*
D03*
X2375600D02*
D03*
X2401000Y624500D02*
D03*
D129*
X990000Y1586800D02*
D03*
X845000Y1585400D02*
D03*
X563000Y660700D02*
D03*
X642638Y660840D02*
D03*
X723000Y661100D02*
D03*
D130*
X990000Y1712500D02*
D03*
X700000D02*
D03*
X845000D02*
D03*
D131*
X940000D02*
D03*
X650000D02*
D03*
X795000D02*
D03*
D132*
X584800Y1689000D02*
D03*
D133*
X634000Y1524200D02*
D03*
D134*
Y1549600D02*
D03*
Y1575000D02*
D03*
D135*
X817000Y898000D02*
D03*
X805000D02*
D03*
X793000D02*
D03*
X781000D02*
D03*
X817000Y910000D02*
D03*
X805000D02*
D03*
X793000D02*
D03*
X781000D02*
D03*
X817000Y922000D02*
D03*
X805000D02*
D03*
X793000D02*
D03*
X781000Y922000D02*
D03*
X817000Y934000D02*
D03*
X805000D02*
D03*
X793000D02*
D03*
X781000D02*
D03*
M02*
