G04 Layer_Color=16711935*
%FSTAX44Y44*%
%MOMM*%
G71*
G01*
G75*
%ADD32R,0.6000X0.4500*%
%ADD34R,0.4500X0.6000*%
%ADD55C,1.5240*%
%ADD56R,1.5240X1.5240*%
%ADD102R,1.0664X0.8632*%
%ADD110R,1.1520X1.2520*%
%ADD113R,0.8632X1.0664*%
%ADD116C,0.5000*%
%ADD118R,1.1520X1.1020*%
%ADD119R,1.1020X1.1520*%
%ADD125C,1.7520*%
%ADD126O,1.6020X2.1520*%
%ADD127O,1.3020X1.9520*%
%ADD128C,0.9520*%
%ADD129C,1.6520*%
%ADD130C,1.6760*%
%ADD131R,1.6520X1.6520*%
%ADD132R,1.6760X1.6760*%
%ADD133R,30.1520X30.1520*%
%ADD134C,4.6520*%
%ADD135C,6.6520*%
%ADD136R,1.6760X1.6760*%
%ADD137R,1.8320X1.8320*%
%ADD138C,1.8320*%
%ADD139R,1.9520X1.9520*%
%ADD140C,1.9520*%
%ADD141R,1.7776X1.7776*%
%ADD142C,1.7776*%
%ADD143C,0.8120*%
D32*
X0030007Y01001D02*
D03*
X0032293D02*
D03*
X0034557Y01023D02*
D03*
X0036843D02*
D03*
D34*
X003685Y0093107D02*
D03*
Y0095393D02*
D03*
D55*
X014266Y007307D02*
D03*
X01452D02*
D03*
X014774D02*
D03*
X015028D02*
D03*
X015282D02*
D03*
X015536D02*
D03*
X01579D02*
D03*
X016044D02*
D03*
Y006545D02*
D03*
X01579D02*
D03*
X015536D02*
D03*
X015282D02*
D03*
X015028D02*
D03*
X014774D02*
D03*
X01452D02*
D03*
X01426101Y00618592D02*
D03*
X01451501D02*
D03*
X01476901D02*
D03*
X01502301D02*
D03*
X01527701D02*
D03*
X01553101D02*
D03*
X01578501D02*
D03*
X01603901D02*
D03*
Y00542392D02*
D03*
X01578501D02*
D03*
X01553101D02*
D03*
X01527701D02*
D03*
X01502301D02*
D03*
X01476901D02*
D03*
X01451501D02*
D03*
X011751Y007296D02*
D03*
X012005D02*
D03*
X012259D02*
D03*
X012513D02*
D03*
X012767D02*
D03*
X013021D02*
D03*
X013275D02*
D03*
X013529D02*
D03*
Y006534D02*
D03*
X013275D02*
D03*
X013021D02*
D03*
X012767D02*
D03*
X012513D02*
D03*
X012259D02*
D03*
X012005D02*
D03*
X01175101Y00618586D02*
D03*
X01200501D02*
D03*
X01225901D02*
D03*
X01251301D02*
D03*
X01276701D02*
D03*
X01302101D02*
D03*
X01327501D02*
D03*
X01352901D02*
D03*
Y00542385D02*
D03*
X01327501D02*
D03*
X01302101D02*
D03*
X01276701D02*
D03*
X01251301D02*
D03*
X01225901D02*
D03*
X01200501D02*
D03*
D56*
X014266Y006545D02*
D03*
X01426101Y00542392D02*
D03*
X011751Y006534D02*
D03*
X01175101Y00542385D02*
D03*
D102*
X00759Y00850969D02*
D03*
Y00839031D02*
D03*
X008315Y00852969D02*
D03*
Y00841031D02*
D03*
X00851Y00982062D02*
D03*
Y00994D02*
D03*
X00811Y00982031D02*
D03*
Y00993969D02*
D03*
X00762Y00982031D02*
D03*
Y00993969D02*
D03*
X00741Y00982031D02*
D03*
Y00993969D02*
D03*
X00728Y00769531D02*
D03*
Y00781469D02*
D03*
X007615Y00769531D02*
D03*
Y00781469D02*
D03*
X00782Y01061969D02*
D03*
Y01050031D02*
D03*
X00737Y01061969D02*
D03*
Y01050031D02*
D03*
X008065Y00770031D02*
D03*
Y00781969D02*
D03*
X008365Y00770031D02*
D03*
Y00781969D02*
D03*
X00846Y01061969D02*
D03*
Y01050031D02*
D03*
X00819Y01061969D02*
D03*
Y01050031D02*
D03*
X003545Y00942031D02*
D03*
Y00953969D02*
D03*
D110*
X0091933Y0104625D02*
D03*
Y0106325D02*
D03*
D113*
X00946719Y0102975D02*
D03*
X00934781D02*
D03*
X00722969Y0097125D02*
D03*
X00711031D02*
D03*
X00733969Y008635D02*
D03*
X00722031D02*
D03*
X00734219Y0084325D02*
D03*
X00722281D02*
D03*
X00739969Y00816D02*
D03*
X00728031D02*
D03*
X00865031Y00841D02*
D03*
X00876969D02*
D03*
X00865031Y00853D02*
D03*
X00876969D02*
D03*
X00864031Y00884D02*
D03*
X00875969D02*
D03*
X00864031Y00973D02*
D03*
X00875969D02*
D03*
X00735969Y009235D02*
D03*
X00724031D02*
D03*
X00734969Y00886D02*
D03*
X00723031D02*
D03*
X00945938Y00868D02*
D03*
X00934D02*
D03*
X00939969Y0094D02*
D03*
X00928031D02*
D03*
X00869281Y01022D02*
D03*
X00881219D02*
D03*
X00943969Y01D02*
D03*
X00932031D02*
D03*
X00356531Y0103675D02*
D03*
X00368469D02*
D03*
X00311031Y009875D02*
D03*
X00322969D02*
D03*
D116*
X003075Y01705D02*
D03*
X02166Y00322D02*
D03*
D118*
X004194Y0101875D02*
D03*
Y0103425D02*
D03*
X003945Y0101875D02*
D03*
Y0103425D02*
D03*
X00394Y0093625D02*
D03*
Y0095175D02*
D03*
X00434Y0060875D02*
D03*
Y0062425D02*
D03*
X0118375Y0042975D02*
D03*
Y0041425D02*
D03*
X0134375Y0042975D02*
D03*
Y0041425D02*
D03*
X01251Y0057275D02*
D03*
Y0058825D02*
D03*
X01251Y0068375D02*
D03*
Y0069925D02*
D03*
X01226Y0057275D02*
D03*
Y0058825D02*
D03*
X01226Y0068375D02*
D03*
Y0069925D02*
D03*
X012Y0057275D02*
D03*
Y0058825D02*
D03*
X012Y0068375D02*
D03*
Y0069925D02*
D03*
X0150375Y0042875D02*
D03*
Y0041325D02*
D03*
X0166375Y0043075D02*
D03*
Y0041525D02*
D03*
X01175Y0057275D02*
D03*
Y0058825D02*
D03*
X01175Y0068475D02*
D03*
Y0070025D02*
D03*
X0182375Y0042875D02*
D03*
Y0041325D02*
D03*
X01984Y0042975D02*
D03*
Y0041425D02*
D03*
X01353Y0057275D02*
D03*
Y0058825D02*
D03*
X01353Y0068475D02*
D03*
Y0070025D02*
D03*
X01327Y0057275D02*
D03*
Y0058825D02*
D03*
X01327501Y0068475D02*
D03*
Y0070025D02*
D03*
X01302Y0057275D02*
D03*
Y0058825D02*
D03*
X01302Y0068375D02*
D03*
Y0069925D02*
D03*
X01277Y0057275D02*
D03*
Y0058825D02*
D03*
X01277Y0068375D02*
D03*
Y0069925D02*
D03*
X01503Y0057275D02*
D03*
Y0058825D02*
D03*
X01503Y0068375D02*
D03*
Y0069925D02*
D03*
X01477Y0057275D02*
D03*
Y0058825D02*
D03*
Y0068375D02*
D03*
Y0069925D02*
D03*
X01452Y0057275D02*
D03*
Y0058825D02*
D03*
X01452Y0068375D02*
D03*
Y0069925D02*
D03*
X01426Y0057275D02*
D03*
Y0058825D02*
D03*
X01426Y0068475D02*
D03*
Y0070025D02*
D03*
X0079375Y0041675D02*
D03*
Y0040125D02*
D03*
X0095375Y0041775D02*
D03*
Y0040225D02*
D03*
X01604Y0057275D02*
D03*
Y0058825D02*
D03*
Y0068475D02*
D03*
Y0070025D02*
D03*
X01579Y0057275D02*
D03*
Y0058825D02*
D03*
X01579Y0068475D02*
D03*
Y0070025D02*
D03*
X00474Y0041475D02*
D03*
Y0039925D02*
D03*
X0063375Y0041675D02*
D03*
Y0040125D02*
D03*
X01553Y0057275D02*
D03*
Y0058825D02*
D03*
X015536Y0068475D02*
D03*
Y0070025D02*
D03*
X01528Y0057275D02*
D03*
Y0058825D02*
D03*
X01528Y0068475D02*
D03*
Y0070025D02*
D03*
D119*
X0202825Y006245D02*
D03*
X0204375D02*
D03*
X0041675D02*
D03*
X0040125D02*
D03*
X008095Y00434D02*
D03*
X00794D02*
D03*
X009695D02*
D03*
X00954D02*
D03*
X0048975Y00433D02*
D03*
X0047425D02*
D03*
X006495Y00434D02*
D03*
X00634D02*
D03*
D125*
X0099Y012328D02*
D03*
Y012074D02*
D03*
Y01182D02*
D03*
X0191195Y006684D02*
D03*
X0193735D02*
D03*
X0196275D02*
D03*
X0095Y015564D02*
D03*
Y01531D02*
D03*
Y015056D02*
D03*
X00795Y015564D02*
D03*
Y01531D02*
D03*
Y015056D02*
D03*
D126*
X0048225Y016915D02*
D03*
X0040775D02*
D03*
D127*
X0048375Y017295D02*
D03*
X0040625D02*
D03*
D128*
X0047Y01702D02*
D03*
X0042D02*
D03*
X006671Y0032106D02*
D03*
X006009D02*
D03*
X005071D02*
D03*
X004409D02*
D03*
X009871D02*
D03*
X009209D02*
D03*
X008271D02*
D03*
X007609D02*
D03*
X020171D02*
D03*
X019509D02*
D03*
X018571D02*
D03*
X017909D02*
D03*
X016971D02*
D03*
X016309D02*
D03*
X015371D02*
D03*
X014709D02*
D03*
X013771D02*
D03*
X013109D02*
D03*
X012171D02*
D03*
X011509D02*
D03*
X0032106Y005914D02*
D03*
Y006576D02*
D03*
X0213694D02*
D03*
Y005914D02*
D03*
X0032106Y00841D02*
D03*
Y009072D02*
D03*
D129*
X02063997Y00760503D02*
D03*
X01104Y0148825D02*
D03*
X018895Y008508D02*
D03*
Y008762D02*
D03*
X017117D02*
D03*
X018895Y016382D02*
D03*
Y016636D02*
D03*
X017117D02*
D03*
X014069Y016382D02*
D03*
Y016636D02*
D03*
X012291D02*
D03*
X014069Y008508D02*
D03*
Y008762D02*
D03*
X012291D02*
D03*
X00725Y0148825D02*
D03*
X0088575D02*
D03*
X019631Y007605D02*
D03*
X00634Y00382003D02*
D03*
X00474Y00381D02*
D03*
X01984D02*
D03*
X00954D02*
D03*
X00794D02*
D03*
X01824D02*
D03*
X01664D02*
D03*
X01504D02*
D03*
X01344D02*
D03*
X01184D02*
D03*
X00374Y00625D02*
D03*
Y00765D02*
D03*
X02064Y006245D02*
D03*
X0091375Y01163D02*
D03*
X01068997Y00381003D02*
D03*
X0059425Y0074125D02*
D03*
X00609Y01371D02*
D03*
X004448Y009758D02*
D03*
D130*
X019149Y008508D02*
D03*
Y008762D02*
D03*
X019403Y008508D02*
D03*
Y008762D02*
D03*
X018387Y008508D02*
D03*
Y008762D02*
D03*
X018641Y008508D02*
D03*
Y008762D02*
D03*
X018133D02*
D03*
Y008508D02*
D03*
X017879Y008762D02*
D03*
Y008508D02*
D03*
X017625Y008762D02*
D03*
Y008508D02*
D03*
X017371Y008762D02*
D03*
Y008508D02*
D03*
X019149Y016382D02*
D03*
Y016636D02*
D03*
X019403Y016382D02*
D03*
Y016636D02*
D03*
X018387Y016382D02*
D03*
Y016636D02*
D03*
X018641Y016382D02*
D03*
Y016636D02*
D03*
X018133D02*
D03*
Y016382D02*
D03*
X017879Y016636D02*
D03*
Y016382D02*
D03*
X017625Y016636D02*
D03*
Y016382D02*
D03*
X017371Y016636D02*
D03*
Y016382D02*
D03*
X014323D02*
D03*
Y016636D02*
D03*
X014577Y016382D02*
D03*
Y016636D02*
D03*
X013561Y016382D02*
D03*
Y016636D02*
D03*
X013815Y016382D02*
D03*
Y016636D02*
D03*
X013307D02*
D03*
Y016382D02*
D03*
X013053Y016636D02*
D03*
Y016382D02*
D03*
X012799Y016636D02*
D03*
Y016382D02*
D03*
X012545Y016636D02*
D03*
Y016382D02*
D03*
X014323Y008508D02*
D03*
Y008762D02*
D03*
X014577Y008508D02*
D03*
Y008762D02*
D03*
X013561Y008508D02*
D03*
Y008762D02*
D03*
X013815Y008508D02*
D03*
Y008762D02*
D03*
X013307D02*
D03*
Y008508D02*
D03*
X013053Y008762D02*
D03*
Y008508D02*
D03*
X012799Y008762D02*
D03*
Y008508D02*
D03*
X012545Y008762D02*
D03*
Y008508D02*
D03*
X0055Y0053575D02*
D03*
Y0056115D02*
D03*
X0070925Y0053585D02*
D03*
Y0056125D02*
D03*
X0086825Y0053575D02*
D03*
Y0056115D02*
D03*
X0102875Y0053575D02*
D03*
Y0056115D02*
D03*
X0099Y015614D02*
D03*
Y01536D02*
D03*
X005195Y01689D02*
D03*
X005449D02*
D03*
X00835Y0156D02*
D03*
Y015346D02*
D03*
X003432Y009758D02*
D03*
Y010012D02*
D03*
X003686Y009758D02*
D03*
Y010012D02*
D03*
X00394Y009758D02*
D03*
Y010012D02*
D03*
X004194Y009758D02*
D03*
Y010012D02*
D03*
D131*
X017117Y008508D02*
D03*
Y016382D02*
D03*
X012291D02*
D03*
Y008508D02*
D03*
X004448Y010012D02*
D03*
D132*
X0055Y0051035D02*
D03*
X0070925Y0051045D02*
D03*
X0086825Y0051035D02*
D03*
X0102875Y0051035D02*
D03*
X0099Y015868D02*
D03*
X00835Y015854D02*
D03*
D133*
X01826Y0125414D02*
D03*
D134*
X02076Y01004D02*
D03*
X01826D02*
D03*
X01576D02*
D03*
Y01254D02*
D03*
X02076D02*
D03*
Y01504D02*
D03*
X01576D02*
D03*
X01826D02*
D03*
D135*
X02104Y01129D02*
D03*
X00354D02*
D03*
X02104Y01629D02*
D03*
X00354Y00379D02*
D03*
X02104D02*
D03*
X00354Y01629D02*
D03*
X01104Y01129D02*
D03*
Y01629D02*
D03*
D136*
X005703Y01689D02*
D03*
D137*
X0196365Y0072D02*
D03*
D138*
X0193825D02*
D03*
D139*
X00835Y017125D02*
D03*
X0068D02*
D03*
X0099D02*
D03*
D140*
X00785D02*
D03*
X0063D02*
D03*
X0094D02*
D03*
D141*
X00624Y015242D02*
D03*
D142*
Y015496D02*
D03*
Y01575D02*
D03*
D143*
X00781Y00934D02*
D03*
X00793D02*
D03*
X00805D02*
D03*
X00817D02*
D03*
X00781Y00922D02*
D03*
X00793Y00922D02*
D03*
X00805D02*
D03*
X00817D02*
D03*
X00781Y0091D02*
D03*
X00793D02*
D03*
X00805D02*
D03*
X00817D02*
D03*
X00781Y00898D02*
D03*
X00793D02*
D03*
X00805D02*
D03*
X00817D02*
D03*
M02*
