G04 Layer_Color=8388736*
%FSLAX44Y44*%
%MOMM*%
G71*
G01*
G75*
%ADD10R,1.9050X0.6096*%
%ADD37R,0.6000X0.4500*%
%ADD44R,0.4500X0.6000*%
%ADD53C,1.5240*%
%ADD56R,1.5240X1.5240*%
%ADD85R,1.1520X1.1020*%
%ADD86R,2.3520X1.6520*%
%ADD87C,1.1520*%
%ADD88R,4.2620X4.5120*%
%ADD89R,1.4220X0.4568*%
G04:AMPARAMS|DCode=90|XSize=1.352mm|YSize=0.752mm|CornerRadius=0.226mm|HoleSize=0mm|Usage=FLASHONLY|Rotation=0.000|XOffset=0mm|YOffset=0mm|HoleType=Round|Shape=RoundedRectangle|*
%AMROUNDEDRECTD90*
21,1,1.3520,0.3000,0,0,0.0*
21,1,0.9000,0.7520,0,0,0.0*
1,1,0.4520,0.4500,-0.1500*
1,1,0.4520,-0.4500,-0.1500*
1,1,0.4520,-0.4500,0.1500*
1,1,0.4520,0.4500,0.1500*
%
%ADD90ROUNDEDRECTD90*%
%ADD91R,0.5000X1.5490*%
G04:AMPARAMS|DCode=92|XSize=1.352mm|YSize=0.752mm|CornerRadius=0.226mm|HoleSize=0mm|Usage=FLASHONLY|Rotation=90.000|XOffset=0mm|YOffset=0mm|HoleType=Round|Shape=RoundedRectangle|*
%AMROUNDEDRECTD92*
21,1,1.3520,0.3000,0,0,90.0*
21,1,0.9000,0.7520,0,0,90.0*
1,1,0.4520,0.1500,0.4500*
1,1,0.4520,0.1500,-0.4500*
1,1,0.4520,-0.1500,-0.4500*
1,1,0.4520,-0.1500,0.4500*
%
%ADD92ROUNDEDRECTD92*%
%ADD93O,0.6520X1.5020*%
%ADD94R,1.2020X0.7520*%
%ADD95R,4.4520X4.4520*%
%ADD96O,2.2520X0.4520*%
%ADD97O,0.4520X2.2520*%
%ADD98R,1.7020X1.4520*%
%ADD99R,1.1020X1.1520*%
%ADD100R,0.7520X1.2020*%
%ADD101R,1.0520X0.9520*%
%ADD102R,1.1520X1.2520*%
%ADD103R,1.2520X1.1520*%
%ADD104R,0.5588X1.5494*%
%ADD105R,2.6416X0.7366*%
%ADD106R,4.8006X0.7366*%
%ADD107R,0.6020X1.4520*%
%ADD108R,1.6520X2.3520*%
%ADD109R,1.7520X0.9520*%
%ADD110R,0.8520X0.9520*%
%ADD111R,0.4320X0.6720*%
%ADD112R,0.6720X0.4320*%
%ADD113R,1.0664X0.8632*%
%ADD114R,0.8632X1.0664*%
%ADD115R,0.4220X1.3204*%
%ADD116R,1.0520X0.9520*%
%ADD117R,30.1520X30.1520*%
%ADD118R,1.6520X1.6520*%
%ADD119C,1.6520*%
%ADD120C,1.6760*%
%ADD121C,4.6520*%
%ADD122C,6.6520*%
%ADD123C,1.7520*%
%ADD124C,0.1520*%
%ADD125O,1.5520X2.1520*%
%ADD126C,0.9520*%
%ADD127O,1.3020X1.9520*%
%ADD128C,2.2520*%
%ADD129R,1.6760X1.6760*%
%ADD130R,1.9520X1.9520*%
%ADD131C,1.9520*%
%ADD132R,1.6760X1.6760*%
%ADD133R,1.7776X1.7776*%
%ADD134C,1.7776*%
G36*
X948273Y570949D02*
X947273D01*
Y568249D01*
X942273D01*
Y570949D01*
X941273D01*
Y571949D01*
X948273D01*
Y570949D01*
D02*
G37*
G36*
X947273Y616549D02*
X948273D01*
Y615549D01*
X941273D01*
Y616549D01*
X942273D01*
Y619249D01*
X947273D01*
Y616549D01*
D02*
G37*
D10*
X551551Y1071050D02*
D03*
Y1058350D02*
D03*
Y1045650D02*
D03*
Y1032950D02*
D03*
X497449D02*
D03*
Y1045650D02*
D03*
Y1058350D02*
D03*
Y1071050D02*
D03*
D37*
X1018070Y1343750D02*
D03*
X1040930D02*
D03*
X1051930Y1440500D02*
D03*
X1029070D02*
D03*
X845570Y1330250D02*
D03*
X868430D02*
D03*
X881430Y1427000D02*
D03*
X858570D02*
D03*
D44*
X468500Y978570D02*
D03*
Y1001430D02*
D03*
D53*
X1701501Y542392D02*
D03*
X1726901D02*
D03*
X1752301D02*
D03*
X1777701D02*
D03*
X1803101D02*
D03*
X1828501D02*
D03*
X1853901D02*
D03*
Y618592D02*
D03*
X1828501D02*
D03*
X1803101D02*
D03*
X1777701D02*
D03*
X1752301D02*
D03*
X1726901D02*
D03*
X1701501D02*
D03*
X1676101D02*
D03*
X1450501Y542385D02*
D03*
X1475901D02*
D03*
X1501301D02*
D03*
X1526701D02*
D03*
X1552101D02*
D03*
X1577501D02*
D03*
X1602901D02*
D03*
Y618586D02*
D03*
X1577501D02*
D03*
X1552101D02*
D03*
X1526701D02*
D03*
X1501301D02*
D03*
X1475901D02*
D03*
X1450501D02*
D03*
X1425101D02*
D03*
X1450500Y653400D02*
D03*
X1475900D02*
D03*
X1501300D02*
D03*
X1526700D02*
D03*
X1552100D02*
D03*
X1577500D02*
D03*
X1602900D02*
D03*
Y729600D02*
D03*
X1577500D02*
D03*
X1552100D02*
D03*
X1526700D02*
D03*
X1501300D02*
D03*
X1475900D02*
D03*
X1450500D02*
D03*
X1425100D02*
D03*
X1702000Y654500D02*
D03*
X1727400D02*
D03*
X1752800D02*
D03*
X1778200D02*
D03*
X1803600D02*
D03*
X1829000D02*
D03*
X1854400D02*
D03*
Y730700D02*
D03*
X1829000D02*
D03*
X1803600D02*
D03*
X1778200D02*
D03*
X1752800D02*
D03*
X1727400D02*
D03*
X1702000D02*
D03*
X1676600D02*
D03*
D56*
X1676101Y542392D02*
D03*
X1425101Y542385D02*
D03*
X1425100Y653400D02*
D03*
X1676600Y654500D02*
D03*
D85*
X1011000Y914250D02*
D03*
Y898750D02*
D03*
X696540Y1347250D02*
D03*
Y1331750D02*
D03*
X955000Y1232250D02*
D03*
Y1247750D02*
D03*
X915000Y1556250D02*
D03*
Y1571750D02*
D03*
X771000Y1556250D02*
D03*
Y1571750D02*
D03*
X627000Y1060250D02*
D03*
Y1044750D02*
D03*
D86*
X814000Y563500D02*
D03*
Y532500D02*
D03*
X426000Y609000D02*
D03*
Y640000D02*
D03*
X781001Y563500D02*
D03*
Y532500D02*
D03*
X747001Y563500D02*
D03*
Y532500D02*
D03*
X713001Y564500D02*
D03*
Y533500D02*
D03*
X679001Y564500D02*
D03*
Y533500D02*
D03*
X644001Y564500D02*
D03*
Y533500D02*
D03*
D87*
X730500Y1065000D02*
D03*
X750000D02*
D03*
X626500Y1025000D02*
D03*
X932000Y807250D02*
D03*
X931500Y788500D02*
D03*
X805000Y756000D02*
D03*
X711000Y1065000D02*
D03*
X769500D02*
D03*
X789000D02*
D03*
X646000Y848000D02*
D03*
X896364Y706000D02*
D03*
X829500Y685500D02*
D03*
X871000Y628000D02*
D03*
Y657000D02*
D03*
X854000Y641000D02*
D03*
X1014500Y1405500D02*
D03*
X845750Y1393750D02*
D03*
X983000Y681000D02*
D03*
X1032000Y636000D02*
D03*
X476500Y936000D02*
D03*
X674540Y1331500D02*
D03*
X685500Y1121000D02*
D03*
X637750Y1139500D02*
D03*
X743500Y1284000D02*
D03*
X651000Y893250D02*
D03*
X1145000Y899000D02*
D03*
X607750Y923000D02*
D03*
X584000Y939000D02*
D03*
X573000Y905500D02*
D03*
X567040Y973000D02*
D03*
X574749Y1110172D02*
D03*
X872469Y1134500D02*
D03*
X982500Y1384500D02*
D03*
X891031Y1505000D02*
D03*
X2033343Y579531D02*
D03*
X811000Y1374000D02*
D03*
X746000Y1505000D02*
D03*
X689000Y1497413D02*
D03*
X734250Y1122000D02*
D03*
D88*
X944773Y593749D02*
D03*
D89*
X983000Y642500D02*
D03*
Y636000D02*
D03*
Y629500D02*
D03*
Y623000D02*
D03*
Y616500D02*
D03*
Y610000D02*
D03*
Y603500D02*
D03*
Y596999D02*
D03*
Y590499D02*
D03*
Y583999D02*
D03*
Y577499D02*
D03*
Y570999D02*
D03*
Y564499D02*
D03*
Y557999D02*
D03*
Y551499D02*
D03*
Y544999D02*
D03*
X906546D02*
D03*
Y551499D02*
D03*
Y557999D02*
D03*
Y564499D02*
D03*
Y570999D02*
D03*
Y577499D02*
D03*
Y583999D02*
D03*
Y590499D02*
D03*
Y596999D02*
D03*
Y603500D02*
D03*
Y610000D02*
D03*
Y616500D02*
D03*
Y623000D02*
D03*
Y629500D02*
D03*
Y636000D02*
D03*
Y642500D02*
D03*
D90*
X1071500Y649000D02*
D03*
Y658500D02*
D03*
Y668000D02*
D03*
X1048500D02*
D03*
Y649000D02*
D03*
X773750Y1155500D02*
D03*
Y1165000D02*
D03*
Y1174500D02*
D03*
X750750D02*
D03*
Y1155500D02*
D03*
X1968850Y579000D02*
D03*
Y569500D02*
D03*
Y560000D02*
D03*
X1991850D02*
D03*
Y579000D02*
D03*
D91*
X637750Y1261430D02*
D03*
X644250D02*
D03*
X650750D02*
D03*
X657250D02*
D03*
X663750D02*
D03*
X670250D02*
D03*
X676750D02*
D03*
X689750D02*
D03*
X683250D02*
D03*
X696250D02*
D03*
X702750D02*
D03*
X709250D02*
D03*
X715750D02*
D03*
X722250D02*
D03*
X637750Y1188310D02*
D03*
X644250D02*
D03*
X650750D02*
D03*
X657250D02*
D03*
X663750D02*
D03*
X670250D02*
D03*
X676750D02*
D03*
X683250D02*
D03*
X689750D02*
D03*
X696250D02*
D03*
X702750D02*
D03*
X709250D02*
D03*
X715750D02*
D03*
X722250D02*
D03*
D92*
X574749Y1173162D02*
D03*
X565249D02*
D03*
X555749D02*
D03*
Y1150162D02*
D03*
X574749D02*
D03*
X872000Y1197162D02*
D03*
X862500D02*
D03*
X853000D02*
D03*
Y1174162D02*
D03*
X872000D02*
D03*
D93*
X918750Y1232219D02*
D03*
X925250D02*
D03*
X931750D02*
D03*
X938250D02*
D03*
X918750Y1276719D02*
D03*
X925250D02*
D03*
X931750D02*
D03*
X938250D02*
D03*
X877250Y1555750D02*
D03*
X883750D02*
D03*
X890250D02*
D03*
X896750D02*
D03*
X877250Y1600250D02*
D03*
X883750D02*
D03*
X890250D02*
D03*
X896750D02*
D03*
X733250Y1555750D02*
D03*
X739750D02*
D03*
X746250D02*
D03*
X752750D02*
D03*
X733250Y1600250D02*
D03*
X739750D02*
D03*
X746250D02*
D03*
X752750D02*
D03*
D94*
X2085600Y589500D02*
D03*
Y580000D02*
D03*
Y599000D02*
D03*
X2113100D02*
D03*
Y580000D02*
D03*
Y589500D02*
D03*
D95*
X799000Y916000D02*
D03*
D96*
X693000Y1003500D02*
D03*
Y998500D02*
D03*
Y993500D02*
D03*
Y988500D02*
D03*
Y983500D02*
D03*
Y978500D02*
D03*
Y973500D02*
D03*
Y968500D02*
D03*
Y963500D02*
D03*
Y958500D02*
D03*
Y953500D02*
D03*
Y948500D02*
D03*
Y943500D02*
D03*
Y938500D02*
D03*
Y933500D02*
D03*
Y928500D02*
D03*
Y923500D02*
D03*
Y918500D02*
D03*
Y913500D02*
D03*
Y908500D02*
D03*
Y903500D02*
D03*
Y898500D02*
D03*
Y893500D02*
D03*
Y888500D02*
D03*
Y883500D02*
D03*
Y878500D02*
D03*
Y873500D02*
D03*
Y868500D02*
D03*
Y863500D02*
D03*
Y858500D02*
D03*
Y853500D02*
D03*
Y848500D02*
D03*
Y843500D02*
D03*
Y838500D02*
D03*
Y833500D02*
D03*
Y828500D02*
D03*
X905000D02*
D03*
Y833500D02*
D03*
Y838500D02*
D03*
Y843500D02*
D03*
Y848500D02*
D03*
Y853500D02*
D03*
Y858500D02*
D03*
Y863500D02*
D03*
Y868500D02*
D03*
Y873500D02*
D03*
Y878500D02*
D03*
Y883500D02*
D03*
Y888500D02*
D03*
Y893500D02*
D03*
Y898500D02*
D03*
Y903500D02*
D03*
Y908500D02*
D03*
Y913500D02*
D03*
Y918500D02*
D03*
Y923500D02*
D03*
Y928500D02*
D03*
Y933500D02*
D03*
Y938500D02*
D03*
Y943500D02*
D03*
Y948500D02*
D03*
Y953500D02*
D03*
Y958500D02*
D03*
Y963500D02*
D03*
Y968500D02*
D03*
Y973500D02*
D03*
Y978500D02*
D03*
Y983500D02*
D03*
Y988500D02*
D03*
Y993500D02*
D03*
Y998500D02*
D03*
Y1003500D02*
D03*
D97*
X711500Y810000D02*
D03*
X716500D02*
D03*
X721500D02*
D03*
X726500D02*
D03*
X731500D02*
D03*
X736500D02*
D03*
X741500D02*
D03*
X746500D02*
D03*
X751500D02*
D03*
X756500D02*
D03*
X761500D02*
D03*
X766500D02*
D03*
X771500D02*
D03*
X776500D02*
D03*
X781500D02*
D03*
X786500D02*
D03*
X791500D02*
D03*
X796500D02*
D03*
X801500D02*
D03*
X806500D02*
D03*
X811500D02*
D03*
X816500D02*
D03*
X821500D02*
D03*
X826500D02*
D03*
X831500D02*
D03*
X836500D02*
D03*
X841500D02*
D03*
X846500D02*
D03*
X851500D02*
D03*
X856500D02*
D03*
X861500D02*
D03*
X866500D02*
D03*
X871500D02*
D03*
X876500D02*
D03*
X881500D02*
D03*
X886500D02*
D03*
Y1022000D02*
D03*
X881500D02*
D03*
X876500D02*
D03*
X871500D02*
D03*
X866500D02*
D03*
X861500D02*
D03*
X856500D02*
D03*
X851500D02*
D03*
X846500D02*
D03*
X841500D02*
D03*
X836500D02*
D03*
X831500D02*
D03*
X826500D02*
D03*
X821500D02*
D03*
X816500D02*
D03*
X811500D02*
D03*
X806500D02*
D03*
X801500D02*
D03*
X796500D02*
D03*
X791500D02*
D03*
X786500D02*
D03*
X781500D02*
D03*
X776500D02*
D03*
X771500D02*
D03*
X766500D02*
D03*
X761500D02*
D03*
X756500D02*
D03*
X751500D02*
D03*
X746500D02*
D03*
X741500D02*
D03*
X736500D02*
D03*
X731500D02*
D03*
X726500D02*
D03*
X721500D02*
D03*
X716500D02*
D03*
X711500D02*
D03*
D98*
X1030250Y899000D02*
D03*
Y854000D02*
D03*
X1109750Y899000D02*
D03*
Y854000D02*
D03*
D99*
X551290Y939000D02*
D03*
X566790D02*
D03*
X551290Y923000D02*
D03*
X566790D02*
D03*
X551290Y955000D02*
D03*
X566790D02*
D03*
X967500Y661250D02*
D03*
X983000D02*
D03*
X696790Y1315500D02*
D03*
X712290D02*
D03*
X1014250Y1422500D02*
D03*
X998750D02*
D03*
X1017750Y1360500D02*
D03*
X1033250D02*
D03*
X1028750Y1456500D02*
D03*
X1044250D02*
D03*
X2101100Y616500D02*
D03*
X2085600D02*
D03*
X1028750Y1476500D02*
D03*
X1044250D02*
D03*
X2069100Y599500D02*
D03*
X2053600D02*
D03*
X845750Y1409000D02*
D03*
X830250D02*
D03*
X845250Y1347000D02*
D03*
X860750D02*
D03*
X859250Y1443000D02*
D03*
X874750D02*
D03*
X859250Y1463000D02*
D03*
X874750D02*
D03*
D100*
X1042500Y1394750D02*
D03*
X1052000D02*
D03*
X1033000D02*
D03*
Y1422250D02*
D03*
X1052000D02*
D03*
X1042500D02*
D03*
X987500Y1371250D02*
D03*
X978000D02*
D03*
X997000D02*
D03*
Y1343750D02*
D03*
X978000D02*
D03*
X987500D02*
D03*
X872000Y1381250D02*
D03*
X881500D02*
D03*
X862500D02*
D03*
Y1408750D02*
D03*
X881500D02*
D03*
X872000D02*
D03*
X806500Y1330250D02*
D03*
X816000D02*
D03*
X825500D02*
D03*
Y1357750D02*
D03*
X816000D02*
D03*
X806500D02*
D03*
D101*
X1014500Y1457000D02*
D03*
Y1476000D02*
D03*
X994500Y1466500D02*
D03*
X845000Y1443500D02*
D03*
Y1462500D02*
D03*
X825000Y1453000D02*
D03*
D102*
X689000Y1531500D02*
D03*
Y1548500D02*
D03*
D103*
X645000Y1054000D02*
D03*
X662000D02*
D03*
D104*
X2152009Y832639D02*
D03*
Y894361D02*
D03*
X2144008Y832639D02*
D03*
Y894361D02*
D03*
X2136008Y832639D02*
D03*
Y894361D02*
D03*
X2128006Y832639D02*
D03*
Y894361D02*
D03*
X2120005Y832639D02*
D03*
Y894361D02*
D03*
X2112005Y832639D02*
D03*
Y894361D02*
D03*
X2104003Y832639D02*
D03*
Y894361D02*
D03*
X2096003Y832639D02*
D03*
Y894361D02*
D03*
X2088002Y832639D02*
D03*
Y894361D02*
D03*
X2080000Y832639D02*
D03*
Y894361D02*
D03*
X2072000Y832639D02*
D03*
Y894361D02*
D03*
X2063999Y832639D02*
D03*
Y894361D02*
D03*
X2055997Y832639D02*
D03*
Y894361D02*
D03*
X2047997Y832639D02*
D03*
Y894361D02*
D03*
X2039996Y832639D02*
D03*
Y894361D02*
D03*
X2031994Y832639D02*
D03*
Y894361D02*
D03*
X2023994Y832639D02*
D03*
Y894361D02*
D03*
X2015992Y832639D02*
D03*
Y894361D02*
D03*
X2007991Y832639D02*
D03*
Y894361D02*
D03*
X1999991Y832639D02*
D03*
Y894361D02*
D03*
X2152009Y1613919D02*
D03*
Y1675641D02*
D03*
X2144008Y1613919D02*
D03*
Y1675641D02*
D03*
X2136008Y1613919D02*
D03*
Y1675641D02*
D03*
X2128006Y1613919D02*
D03*
Y1675641D02*
D03*
X2120005Y1613919D02*
D03*
Y1675641D02*
D03*
X2112005Y1613919D02*
D03*
Y1675641D02*
D03*
X2104003Y1613919D02*
D03*
Y1675641D02*
D03*
X2096003Y1613919D02*
D03*
Y1675641D02*
D03*
X2088002Y1613919D02*
D03*
Y1675641D02*
D03*
X2080000Y1613919D02*
D03*
Y1675641D02*
D03*
X2072000Y1613919D02*
D03*
Y1675641D02*
D03*
X2063999Y1613919D02*
D03*
Y1675641D02*
D03*
X2055997Y1613919D02*
D03*
Y1675641D02*
D03*
X2047997Y1613919D02*
D03*
Y1675641D02*
D03*
X2039996Y1613919D02*
D03*
Y1675641D02*
D03*
X2031994Y1613919D02*
D03*
Y1675641D02*
D03*
X2023994Y1613919D02*
D03*
Y1675641D02*
D03*
X2015992Y1613919D02*
D03*
Y1675641D02*
D03*
X2007991Y1613919D02*
D03*
Y1675641D02*
D03*
X1999991Y1613919D02*
D03*
Y1675641D02*
D03*
X1553009Y1613919D02*
D03*
Y1675641D02*
D03*
X1545009Y1613919D02*
D03*
Y1675641D02*
D03*
X1537007Y1613919D02*
D03*
Y1675641D02*
D03*
X1529007Y1613919D02*
D03*
Y1675641D02*
D03*
X1521006Y1613919D02*
D03*
Y1675641D02*
D03*
X1513004Y1613919D02*
D03*
Y1675641D02*
D03*
X1505004Y1613919D02*
D03*
Y1675641D02*
D03*
X1497003Y1613919D02*
D03*
Y1675641D02*
D03*
X1489001Y1613919D02*
D03*
Y1675641D02*
D03*
X1481001Y1613919D02*
D03*
Y1675641D02*
D03*
X1473000Y1613919D02*
D03*
Y1675641D02*
D03*
X1464998Y1613919D02*
D03*
Y1675641D02*
D03*
X1456998Y1613919D02*
D03*
Y1675641D02*
D03*
X1448996Y1613919D02*
D03*
Y1675641D02*
D03*
X1440995Y1613919D02*
D03*
Y1675641D02*
D03*
X1432995Y1613919D02*
D03*
Y1675641D02*
D03*
X1424993Y1613919D02*
D03*
Y1675641D02*
D03*
X1416992Y1613919D02*
D03*
Y1675641D02*
D03*
X1408992Y1613919D02*
D03*
Y1675641D02*
D03*
X1400990Y1613919D02*
D03*
Y1675641D02*
D03*
X1553009Y832639D02*
D03*
Y894361D02*
D03*
X1545009Y832639D02*
D03*
Y894361D02*
D03*
X1537007Y832639D02*
D03*
Y894361D02*
D03*
X1529007Y832639D02*
D03*
Y894361D02*
D03*
X1521006Y832639D02*
D03*
Y894361D02*
D03*
X1513004Y832639D02*
D03*
Y894361D02*
D03*
X1505004Y832639D02*
D03*
Y894361D02*
D03*
X1497003Y832639D02*
D03*
Y894361D02*
D03*
X1489001Y832639D02*
D03*
Y894361D02*
D03*
X1481001Y832639D02*
D03*
Y894361D02*
D03*
X1473000Y832639D02*
D03*
Y894361D02*
D03*
X1464998Y832639D02*
D03*
Y894361D02*
D03*
X1456998Y832639D02*
D03*
Y894361D02*
D03*
X1448996Y832639D02*
D03*
Y894361D02*
D03*
X1440995Y832639D02*
D03*
Y894361D02*
D03*
X1432995Y832639D02*
D03*
Y894361D02*
D03*
X1424993Y832639D02*
D03*
Y894361D02*
D03*
X1416992Y832639D02*
D03*
Y894361D02*
D03*
X1408992Y832639D02*
D03*
Y894361D02*
D03*
X1400990Y832639D02*
D03*
Y894361D02*
D03*
D105*
X2160455Y863500D02*
D03*
X1991545D02*
D03*
X2160455Y1644780D02*
D03*
X1991545D02*
D03*
X1561455D02*
D03*
X1392545D02*
D03*
X1561455Y863500D02*
D03*
X1392545D02*
D03*
D106*
X2107750D02*
D03*
X2044250D02*
D03*
X2107750Y1644780D02*
D03*
X2044250D02*
D03*
X1508750D02*
D03*
X1445250D02*
D03*
X1508750Y863500D02*
D03*
X1445250D02*
D03*
D107*
X451500Y1691500D02*
D03*
X445000D02*
D03*
X458000D02*
D03*
X432000D02*
D03*
X438500D02*
D03*
D108*
X1899000Y421000D02*
D03*
X1930000D02*
D03*
X1738000D02*
D03*
X1769000D02*
D03*
X1578500Y422000D02*
D03*
X1609500D02*
D03*
X1418249Y421999D02*
D03*
X1449249D02*
D03*
X1258500Y423000D02*
D03*
X1289500D02*
D03*
X1098500D02*
D03*
X1129500D02*
D03*
X938500D02*
D03*
X969500D02*
D03*
X809500D02*
D03*
X778500D02*
D03*
X649500D02*
D03*
X618500D02*
D03*
X489500D02*
D03*
X458500D02*
D03*
X2217500Y422000D02*
D03*
X2248500D02*
D03*
X2059000Y421000D02*
D03*
X2090000D02*
D03*
D109*
X1215781Y1323500D02*
D03*
X1247781D02*
D03*
X1215781Y1337500D02*
D03*
X1247781D02*
D03*
X2319000Y1323500D02*
D03*
X2351000D02*
D03*
X2319000Y1337500D02*
D03*
X2351000D02*
D03*
D110*
X1078495Y798000D02*
D03*
X1063495D02*
D03*
D111*
X438750Y1676500D02*
D03*
X445250D02*
D03*
X458000Y1665500D02*
D03*
X451500D02*
D03*
D112*
X472000Y1661750D02*
D03*
Y1668250D02*
D03*
D113*
X1002920Y636031D02*
D03*
Y647969D02*
D03*
X1015920Y636031D02*
D03*
Y647969D02*
D03*
X1032000Y649031D02*
D03*
Y660969D02*
D03*
X688500Y1278531D02*
D03*
Y1290469D02*
D03*
X676000Y1278531D02*
D03*
Y1290469D02*
D03*
X703000Y1531969D02*
D03*
Y1520031D02*
D03*
X2007350Y579531D02*
D03*
Y591469D02*
D03*
X2071350Y567531D02*
D03*
Y579469D02*
D03*
X2058350Y567531D02*
D03*
Y579469D02*
D03*
X733000Y1530969D02*
D03*
Y1519031D02*
D03*
X473500Y1034031D02*
D03*
Y1045969D02*
D03*
X996500Y910969D02*
D03*
Y899031D02*
D03*
X668000Y821031D02*
D03*
Y832969D02*
D03*
X645000Y1025531D02*
D03*
Y1037469D02*
D03*
X539000Y713031D02*
D03*
Y724969D02*
D03*
X537000Y685469D02*
D03*
Y673531D02*
D03*
X618000Y714000D02*
D03*
Y725938D02*
D03*
X616638Y686209D02*
D03*
Y674271D02*
D03*
X698000Y715031D02*
D03*
Y726969D02*
D03*
X695500Y687154D02*
D03*
Y675216D02*
D03*
X484000Y989531D02*
D03*
Y1001469D02*
D03*
X933750Y826531D02*
D03*
Y838469D02*
D03*
X916250Y806281D02*
D03*
Y818219D02*
D03*
X791500Y1155469D02*
D03*
Y1143531D02*
D03*
X734250Y1155031D02*
D03*
Y1166969D02*
D03*
D114*
X1091031Y668000D02*
D03*
X1102969D02*
D03*
X709031Y1295000D02*
D03*
X720969D02*
D03*
X595469Y888000D02*
D03*
X583531D02*
D03*
X1028438Y1491500D02*
D03*
X1016500D02*
D03*
X858969Y1478000D02*
D03*
X847031D02*
D03*
X574969Y1132500D02*
D03*
X563031D02*
D03*
X586719Y1191000D02*
D03*
X574781D02*
D03*
X932031Y1206000D02*
D03*
X943969D02*
D03*
X921969D02*
D03*
X910031D02*
D03*
X872469Y1154500D02*
D03*
X860531D02*
D03*
X891031Y1532000D02*
D03*
X902969D02*
D03*
X880969D02*
D03*
X869031D02*
D03*
X1968031Y594000D02*
D03*
X1979969D02*
D03*
X746000Y1532000D02*
D03*
X757938D02*
D03*
X586469Y1058000D02*
D03*
X574531D02*
D03*
X586469Y1071000D02*
D03*
X574531D02*
D03*
X699531Y788000D02*
D03*
X711469D02*
D03*
X655031Y993000D02*
D03*
X666969D02*
D03*
X657031Y1014000D02*
D03*
X668969D02*
D03*
X883969Y1215250D02*
D03*
X872031D02*
D03*
D115*
X524500Y685784D02*
D03*
X519500D02*
D03*
X514500D02*
D03*
X509500D02*
D03*
Y713216D02*
D03*
X514500D02*
D03*
X519500D02*
D03*
X524500D02*
D03*
X604138Y686524D02*
D03*
X599138D02*
D03*
X594138D02*
D03*
X589138D02*
D03*
Y713956D02*
D03*
X594138D02*
D03*
X599138D02*
D03*
X604138D02*
D03*
X683000Y687500D02*
D03*
X678000D02*
D03*
X673000D02*
D03*
X668000D02*
D03*
Y714932D02*
D03*
X673000D02*
D03*
X678000D02*
D03*
X683000D02*
D03*
D116*
X614750Y881250D02*
D03*
Y895750D02*
D03*
X633250D02*
D03*
Y881250D02*
D03*
D117*
X2076000Y1254140D02*
D03*
D118*
X444800Y1001200D02*
D03*
D119*
Y975800D02*
D03*
X2113100Y724000D02*
D03*
X634000Y382003D02*
D03*
X474000Y381000D02*
D03*
X2233000D02*
D03*
X954000D02*
D03*
X794000D02*
D03*
X2075000D02*
D03*
X1915000D02*
D03*
X1274000D02*
D03*
X1114000D02*
D03*
X1754000D02*
D03*
X1594000D02*
D03*
X1434000D02*
D03*
X374000Y625000D02*
D03*
X1354000Y381000D02*
D03*
X2314000Y624500D02*
D03*
X932000Y1182000D02*
D03*
X816250Y1117000D02*
D03*
X517000Y578500D02*
D03*
X618000Y1103500D02*
D03*
X712000Y1439500D02*
D03*
D120*
X419400Y1001200D02*
D03*
Y975800D02*
D03*
X394000Y1001200D02*
D03*
Y975800D02*
D03*
X368600Y1001200D02*
D03*
Y975800D02*
D03*
X343200Y1001200D02*
D03*
Y975800D02*
D03*
X990000Y1561400D02*
D03*
Y1536000D02*
D03*
X534000Y1689000D02*
D03*
X559400D02*
D03*
X845000Y1560000D02*
D03*
Y1534600D02*
D03*
X563000Y711500D02*
D03*
Y686100D02*
D03*
X642638Y711640D02*
D03*
Y686240D02*
D03*
X723000Y711900D02*
D03*
Y686500D02*
D03*
D121*
X2326000Y1004000D02*
D03*
X2076000D02*
D03*
X1826000D02*
D03*
Y1254000D02*
D03*
X2326000D02*
D03*
Y1504000D02*
D03*
X1826000D02*
D03*
X2076000D02*
D03*
D122*
X2354000Y1129000D02*
D03*
X354000D02*
D03*
X2354000Y1629000D02*
D03*
X354000Y379000D02*
D03*
X2354000D02*
D03*
X354000Y1629000D02*
D03*
X1104000Y1129000D02*
D03*
Y1629000D02*
D03*
D123*
X990000Y1182000D02*
D03*
Y1207400D02*
D03*
Y1232800D02*
D03*
X2112750Y668400D02*
D03*
X2087350D02*
D03*
X2061950D02*
D03*
X950000Y1505600D02*
D03*
Y1531000D02*
D03*
Y1556400D02*
D03*
X805000Y1505600D02*
D03*
Y1531000D02*
D03*
Y1556400D02*
D03*
D124*
X2168392Y843180D02*
D03*
X1983607D02*
D03*
X2168392Y1624460D02*
D03*
X1983607D02*
D03*
X1569393D02*
D03*
X1384608D02*
D03*
X1569393Y843180D02*
D03*
X1384608D02*
D03*
D125*
X407750Y1691500D02*
D03*
X482250D02*
D03*
D126*
X420000Y1702500D02*
D03*
X470000D02*
D03*
D127*
X406250Y1729500D02*
D03*
X483750D02*
D03*
D128*
X332400Y899500D02*
D03*
X281600D02*
D03*
Y848700D02*
D03*
X332400D02*
D03*
X307000Y874100D02*
D03*
X2375600Y848700D02*
D03*
X2426400D02*
D03*
Y899500D02*
D03*
X2375600D02*
D03*
X2401000Y874100D02*
D03*
X2208600Y332400D02*
D03*
Y281600D02*
D03*
X2259400D02*
D03*
Y332400D02*
D03*
X2234000Y307000D02*
D03*
X2048600Y332400D02*
D03*
Y281600D02*
D03*
X2099400D02*
D03*
Y332400D02*
D03*
X2074000Y307000D02*
D03*
X1888600Y332400D02*
D03*
Y281600D02*
D03*
X1939400D02*
D03*
Y332400D02*
D03*
X1914000Y307000D02*
D03*
X1728600Y332400D02*
D03*
Y281600D02*
D03*
X1779400D02*
D03*
Y332400D02*
D03*
X1754000Y307000D02*
D03*
X1568600Y332400D02*
D03*
Y281600D02*
D03*
X1619400D02*
D03*
Y332400D02*
D03*
X1594000Y307000D02*
D03*
X1408600Y332400D02*
D03*
Y281600D02*
D03*
X1459400D02*
D03*
Y332400D02*
D03*
X1434000Y307000D02*
D03*
X608600Y332400D02*
D03*
Y281600D02*
D03*
X659400D02*
D03*
Y332400D02*
D03*
X634000Y307000D02*
D03*
X448600Y332400D02*
D03*
Y281600D02*
D03*
X499400D02*
D03*
Y332400D02*
D03*
X474000Y307000D02*
D03*
X928600Y281600D02*
D03*
Y332400D02*
D03*
X979400Y281600D02*
D03*
X954000Y307000D02*
D03*
X979400Y332400D02*
D03*
X768600Y281600D02*
D03*
Y332400D02*
D03*
X819400Y281600D02*
D03*
X794000Y307000D02*
D03*
X819400Y332400D02*
D03*
X1248600D02*
D03*
Y281600D02*
D03*
X1299400D02*
D03*
Y332400D02*
D03*
X1274000Y307000D02*
D03*
X1088600Y332400D02*
D03*
Y281600D02*
D03*
X1139400D02*
D03*
Y332400D02*
D03*
X1114000Y307000D02*
D03*
X332400Y649900D02*
D03*
X281600D02*
D03*
Y599100D02*
D03*
X332400D02*
D03*
X307000Y624500D02*
D03*
X2375600Y599100D02*
D03*
X2426400D02*
D03*
Y649900D02*
D03*
X2375600D02*
D03*
X2401000Y624500D02*
D03*
D129*
X990000Y1586800D02*
D03*
X845000Y1585400D02*
D03*
X563000Y660700D02*
D03*
X642638Y660840D02*
D03*
X723000Y661100D02*
D03*
D130*
X990000Y1712500D02*
D03*
X700000D02*
D03*
X845000D02*
D03*
D131*
X940000D02*
D03*
X650000D02*
D03*
X795000D02*
D03*
D132*
X584800Y1689000D02*
D03*
D133*
X634000Y1524200D02*
D03*
D134*
Y1549600D02*
D03*
Y1575000D02*
D03*
M02*
