G04 Layer_Color=32896*
%FSTAX44Y44*%
%MOMM*%
G71*
G01*
G75*
%ADD81C,0.1270*%
%ADD82C,0.1500*%
%ADD84C,0.0600*%
D81*
X0030484Y0100673D02*
X0031816D01*
Y0099527D02*
Y0100673D01*
X00308452Y00995412D02*
Y01006588D01*
X0030484Y0099527D02*
Y0100673D01*
X0030484Y0099527D02*
X0031816D01*
X0030484D02*
X0031816D01*
X0030484D02*
Y0100673D01*
X0031816Y0099527D02*
Y0100673D01*
X00308452Y00995412D02*
Y01006588D01*
X0030484Y0100673D02*
X0031816D01*
X0035034Y0102873D02*
X0036366D01*
Y0101727D02*
Y0102873D01*
X00353952Y01017412D02*
Y01028588D01*
X0035034Y0101727D02*
Y0102873D01*
X0035034Y0101727D02*
X0036366D01*
X0035034D02*
X0036366D01*
X0035034D02*
Y0102873D01*
X0036366Y0101727D02*
Y0102873D01*
X00353952Y01017412D02*
Y01028588D01*
X0035034Y0102873D02*
X0036366D01*
X0036277Y0093584D02*
Y0094916D01*
X0037423D01*
X00362912Y00939452D02*
X00374088D01*
X0036277Y0093584D02*
X0037423D01*
Y0093584D02*
Y0094916D01*
Y0093584D02*
Y0094916D01*
X0036277Y0093584D02*
X0037423D01*
X0036277Y0094916D02*
X0037423D01*
X00362912Y00939452D02*
X00374088D01*
X0036277Y0093584D02*
Y0094916D01*
D82*
X0091108Y010375D02*
X0092758D01*
X0091108D02*
Y01072D01*
X0092758D01*
Y010375D02*
Y01072D01*
D84*
X01517Y005855D02*
X01513001D01*
Y00583501D01*
X01513668Y00582834D01*
X01515D01*
X01515667Y00583501D01*
Y005855D01*
Y00584167D02*
X01517Y00582834D01*
X01513668Y00581501D02*
X01513001Y00580835D01*
Y00579502D01*
X01513668Y00578835D01*
X01514334D01*
X01515Y00579502D01*
Y00580168D01*
Y00579502D01*
X01515667Y00578835D01*
X01516333D01*
X01517Y00579502D01*
Y00580835D01*
X01516333Y00581501D01*
X01513001Y00574837D02*
Y00577503D01*
X01515D01*
X01514334Y0057617D01*
Y00575503D01*
X01515Y00574837D01*
X01516333D01*
X01517Y00575503D01*
Y00576836D01*
X01516333Y00577503D01*
X01513668Y00573504D02*
X01513001Y00572837D01*
Y00571505D01*
X01513668Y00570838D01*
X01516333D01*
X01517Y00571505D01*
Y00572837D01*
X01516333Y00573504D01*
X01513668D01*
X01544Y005855D02*
X01540001D01*
Y00583501D01*
X01540668Y00582834D01*
X01542D01*
X01542667Y00583501D01*
Y005855D01*
Y00584167D02*
X01544Y00582834D01*
X01540668Y00581501D02*
X01540001Y00580835D01*
Y00579502D01*
X01540668Y00578835D01*
X01541334D01*
X01542Y00579502D01*
Y00580168D01*
Y00579502D01*
X01542667Y00578835D01*
X01543333D01*
X01544Y00579502D01*
Y00580835D01*
X01543333Y00581501D01*
X01544Y00575503D02*
X01540001D01*
X01542Y00577503D01*
Y00574837D01*
X01540001Y00570838D02*
X01540668Y00572171D01*
X01542Y00573504D01*
X01543333D01*
X01544Y00572837D01*
Y00571505D01*
X01543333Y00570838D01*
X01542667D01*
X01542Y00571505D01*
Y00573504D01*
X0157Y005855D02*
X01566001D01*
Y00583501D01*
X01566668Y00582834D01*
X01568D01*
X01568667Y00583501D01*
Y005855D01*
Y00584167D02*
X0157Y00582834D01*
X01566668Y00581501D02*
X01566001Y00580835D01*
Y00579502D01*
X01566668Y00578835D01*
X01567334D01*
X01568Y00579502D01*
Y00580168D01*
Y00579502D01*
X01568667Y00578835D01*
X01569333D01*
X0157Y00579502D01*
Y00580835D01*
X01569333Y00581501D01*
X0157Y00575503D02*
X01566001D01*
X01568Y00577503D01*
Y00574837D01*
X0157Y00570838D02*
Y00573504D01*
X01567334Y00570838D01*
X01566668D01*
X01566001Y00571505D01*
Y00572837D01*
X01566668Y00573504D01*
X01596Y005855D02*
X01592001D01*
Y00583501D01*
X01592668Y00582834D01*
X01594001D01*
X01594667Y00583501D01*
Y005855D01*
Y00584167D02*
X01596Y00582834D01*
X01592668Y00581501D02*
X01592001Y00580835D01*
Y00579502D01*
X01592668Y00578835D01*
X01593334D01*
X01594001Y00579502D01*
Y00580168D01*
Y00579502D01*
X01594667Y00578835D01*
X01595333D01*
X01596Y00579502D01*
Y00580835D01*
X01595333Y00581501D01*
X01596Y00575503D02*
X01592001D01*
X01594001Y00577503D01*
Y00574837D01*
X01592668Y00573504D02*
X01592001Y00572837D01*
Y00571505D01*
X01592668Y00570838D01*
X01595333D01*
X01596Y00571505D01*
Y00572837D01*
X01595333Y00573504D01*
X01592668D01*
X01418Y005855D02*
X01414001D01*
Y00583501D01*
X01414668Y00582834D01*
X01416001D01*
X01416667Y00583501D01*
Y005855D01*
Y00584167D02*
X01418Y00582834D01*
X01414668Y00581501D02*
X01414001Y00580835D01*
Y00579502D01*
X01414668Y00578835D01*
X01415334D01*
X01416001Y00579502D01*
Y00580168D01*
Y00579502D01*
X01416667Y00578835D01*
X01417333D01*
X01418Y00579502D01*
Y00580835D01*
X01417333Y00581501D01*
X01414668Y00577503D02*
X01414001Y00576836D01*
Y00575503D01*
X01414668Y00574837D01*
X01415334D01*
X01416001Y00575503D01*
Y0057617D01*
Y00575503D01*
X01416667Y00574837D01*
X01417333D01*
X01418Y00575503D01*
Y00576836D01*
X01417333Y00577503D01*
X01418Y00571505D02*
X01414001D01*
X01416001Y00573504D01*
Y00570838D01*
X01443Y005855D02*
X01439001D01*
Y00583501D01*
X01439668Y00582834D01*
X01441001D01*
X01441667Y00583501D01*
Y005855D01*
Y00584167D02*
X01443Y00582834D01*
X01439668Y00581501D02*
X01439001Y00580835D01*
Y00579502D01*
X01439668Y00578835D01*
X01440334D01*
X01441001Y00579502D01*
Y00580168D01*
Y00579502D01*
X01441667Y00578835D01*
X01442333D01*
X01443Y00579502D01*
Y00580835D01*
X01442333Y00581501D01*
X01439668Y00577503D02*
X01439001Y00576836D01*
Y00575503D01*
X01439668Y00574837D01*
X01440334D01*
X01441001Y00575503D01*
Y0057617D01*
Y00575503D01*
X01441667Y00574837D01*
X01442333D01*
X01443Y00575503D01*
Y00576836D01*
X01442333Y00577503D01*
X01443Y00570838D02*
Y00573504D01*
X01440334Y00570838D01*
X01439668D01*
X01439001Y00571505D01*
Y00572837D01*
X01439668Y00573504D01*
X01467Y005855D02*
X01463001D01*
Y00583501D01*
X01463668Y00582834D01*
X01465D01*
X01465667Y00583501D01*
Y005855D01*
Y00584167D02*
X01467Y00582834D01*
X01463668Y00581501D02*
X01463001Y00580835D01*
Y00579502D01*
X01463668Y00578835D01*
X01464334D01*
X01465Y00579502D01*
Y00580168D01*
Y00579502D01*
X01465667Y00578835D01*
X01466333D01*
X01467Y00579502D01*
Y00580835D01*
X01466333Y00581501D01*
X01463668Y00577503D02*
X01463001Y00576836D01*
Y00575503D01*
X01463668Y00574837D01*
X01464334D01*
X01465Y00575503D01*
Y0057617D01*
Y00575503D01*
X01465667Y00574837D01*
X01466333D01*
X01467Y00575503D01*
Y00576836D01*
X01466333Y00577503D01*
X01463668Y00573504D02*
X01463001Y00572837D01*
Y00571505D01*
X01463668Y00570838D01*
X01466333D01*
X01467Y00571505D01*
Y00572837D01*
X01466333Y00573504D01*
X01463668D01*
X01493Y005855D02*
X01489001D01*
Y00583501D01*
X01489668Y00582834D01*
X01491001D01*
X01491667Y00583501D01*
Y005855D01*
Y00584167D02*
X01493Y00582834D01*
X01489668Y00581501D02*
X01489001Y00580835D01*
Y00579502D01*
X01489668Y00578835D01*
X01490334D01*
X01491001Y00579502D01*
Y00580168D01*
Y00579502D01*
X01491667Y00578835D01*
X01492333D01*
X01493Y00579502D01*
Y00580835D01*
X01492333Y00581501D01*
X01493Y00574837D02*
Y00577503D01*
X01490334Y00574837D01*
X01489668D01*
X01489001Y00575503D01*
Y00576836D01*
X01489668Y00577503D01*
X01489001Y00570838D02*
X01489668Y00572171D01*
X01491001Y00573504D01*
X01492333D01*
X01493Y00572837D01*
Y00571505D01*
X01492333Y00570838D01*
X01491667D01*
X01491001Y00571505D01*
Y00573504D01*
X01268429Y005855D02*
X0126443D01*
Y00583501D01*
X01265096Y00582834D01*
X01266429D01*
X01267096Y00583501D01*
Y005855D01*
Y00584167D02*
X01268429Y00582834D01*
X01265096Y00581501D02*
X0126443Y00580835D01*
Y00579502D01*
X01265096Y00578835D01*
X01265763D01*
X01266429Y00579502D01*
Y00580168D01*
Y00579502D01*
X01267096Y00578835D01*
X01267762D01*
X01268429Y00579502D01*
Y00580835D01*
X01267762Y00581501D01*
X01268429Y00574837D02*
Y00577503D01*
X01265763Y00574837D01*
X01265096D01*
X0126443Y00575503D01*
Y00576836D01*
X01265096Y00577503D01*
X01268429Y00570838D02*
Y00573504D01*
X01265763Y00570838D01*
X01265096D01*
X0126443Y00571505D01*
Y00572837D01*
X01265096Y00573504D01*
X01293786Y005855D02*
X01289787D01*
Y00583501D01*
X01290453Y00582834D01*
X01291786D01*
X01292453Y00583501D01*
Y005855D01*
Y00584167D02*
X01293786Y00582834D01*
X01290453Y00581501D02*
X01289787Y00580835D01*
Y00579502D01*
X01290453Y00578835D01*
X0129112D01*
X01291786Y00579502D01*
Y00580168D01*
Y00579502D01*
X01292453Y00578835D01*
X01293119D01*
X01293786Y00579502D01*
Y00580835D01*
X01293119Y00581501D01*
X01293786Y00574837D02*
Y00577503D01*
X0129112Y00574837D01*
X01290453D01*
X01289787Y00575503D01*
Y00576836D01*
X01290453Y00577503D01*
Y00573504D02*
X01289787Y00572837D01*
Y00571505D01*
X01290453Y00570838D01*
X01293119D01*
X01293786Y00571505D01*
Y00572837D01*
X01293119Y00573504D01*
X01290453D01*
X01319143Y005855D02*
X01315144D01*
Y00583501D01*
X01315811Y00582834D01*
X01317144D01*
X0131781Y00583501D01*
Y005855D01*
Y00584167D02*
X01319143Y00582834D01*
X01315811Y00581501D02*
X01315144Y00580835D01*
Y00579502D01*
X01315811Y00578835D01*
X01316477D01*
X01317144Y00579502D01*
Y00580168D01*
Y00579502D01*
X0131781Y00578835D01*
X01318476D01*
X01319143Y00579502D01*
Y00580835D01*
X01318476Y00581501D01*
X01319143Y00577503D02*
Y0057617D01*
Y00576836D01*
X01315144D01*
X01315811Y00577503D01*
Y0057417D02*
X01315144Y00573504D01*
Y00572171D01*
X01315811Y00571505D01*
X01316477D01*
X01317144Y00572171D01*
X0131781Y00571505D01*
X01318476D01*
X01319143Y00572171D01*
Y00573504D01*
X01318476Y0057417D01*
X0131781D01*
X01317144Y00573504D01*
X01316477Y0057417D01*
X01315811D01*
X01317144Y00573504D02*
Y00572171D01*
X013445Y005855D02*
X01340501D01*
Y00583501D01*
X01341168Y00582834D01*
X01342501D01*
X01343167Y00583501D01*
Y005855D01*
Y00584167D02*
X013445Y00582834D01*
X01341168Y00581501D02*
X01340501Y00580835D01*
Y00579502D01*
X01341168Y00578835D01*
X01341834D01*
X01342501Y00579502D01*
Y00580168D01*
Y00579502D01*
X01343167Y00578835D01*
X01343833D01*
X013445Y00579502D01*
Y00580835D01*
X01343833Y00581501D01*
X013445Y00577503D02*
Y0057617D01*
Y00576836D01*
X01340501D01*
X01341168Y00577503D01*
X01340501Y00571505D02*
X01341168Y00572837D01*
X01342501Y0057417D01*
X01343833D01*
X013445Y00573504D01*
Y00572171D01*
X01343833Y00571505D01*
X01343167D01*
X01342501Y00572171D01*
Y0057417D01*
X019985Y0042925D02*
X01994501D01*
Y00427251D01*
X01995168Y00426584D01*
X01996501D01*
X01997167Y00427251D01*
Y0042925D01*
Y00427917D02*
X019985Y00426584D01*
X01995168Y00425251D02*
X01994501Y00424585D01*
Y00423252D01*
X01995168Y00422585D01*
X01995834D01*
X01996501Y00423252D01*
Y00423918D01*
Y00423252D01*
X01997167Y00422585D01*
X01997834D01*
X019985Y00423252D01*
Y00424585D01*
X01997834Y00425251D01*
X019985Y00421253D02*
Y0041992D01*
Y00420586D01*
X01994501D01*
X01995168Y00421253D01*
X01994501Y00415255D02*
Y0041792D01*
X01996501D01*
X01995834Y00416587D01*
Y00415921D01*
X01996501Y00415255D01*
X01997834D01*
X019985Y00415921D01*
Y00417254D01*
X01997834Y0041792D01*
X0183825Y004265D02*
X01834251D01*
Y00424501D01*
X01834918Y00423834D01*
X01836251D01*
X01836917Y00424501D01*
Y004265D01*
Y00425167D02*
X0183825Y00423834D01*
X01834918Y00422501D02*
X01834251Y00421835D01*
Y00420502D01*
X01834918Y00419836D01*
X01835584D01*
X01836251Y00420502D01*
Y00421168D01*
Y00420502D01*
X01836917Y00419836D01*
X01837583D01*
X0183825Y00420502D01*
Y00421835D01*
X01837583Y00422501D01*
X0183825Y00418503D02*
Y0041717D01*
Y00417836D01*
X01834251D01*
X01834918Y00418503D01*
X0183825Y00413171D02*
X01834251D01*
X01836251Y0041517D01*
Y00412505D01*
X01167Y005855D02*
X01163001D01*
Y00583501D01*
X01163668Y00582834D01*
X01165001D01*
X01165667Y00583501D01*
Y005855D01*
Y00584167D02*
X01167Y00582834D01*
X01163668Y00581501D02*
X01163001Y00580835D01*
Y00579502D01*
X01163668Y00578835D01*
X01164334D01*
X01165001Y00579502D01*
Y00580168D01*
Y00579502D01*
X01165667Y00578835D01*
X01166333D01*
X01167Y00579502D01*
Y00580835D01*
X01166333Y00581501D01*
X01167Y00577503D02*
Y0057617D01*
Y00576836D01*
X01163001D01*
X01163668Y00577503D01*
X01167Y00571505D02*
Y0057417D01*
X01164334Y00571505D01*
X01163668D01*
X01163001Y00572171D01*
Y00573504D01*
X01163668Y0057417D01*
X01192357Y005855D02*
X01188358D01*
Y00583501D01*
X01189025Y00582834D01*
X01190358D01*
X01191024Y00583501D01*
Y005855D01*
Y00584167D02*
X01192357Y00582834D01*
X01189025Y00581501D02*
X01188358Y00580835D01*
Y00579502D01*
X01189025Y00578835D01*
X01189691D01*
X01190358Y00579502D01*
Y00580168D01*
Y00579502D01*
X01191024Y00578835D01*
X01191691D01*
X01192357Y00579502D01*
Y00580835D01*
X01191691Y00581501D01*
X01189025Y00577503D02*
X01188358Y00576836D01*
Y00575503D01*
X01189025Y00574837D01*
X01191691D01*
X01192357Y00575503D01*
Y00576836D01*
X01191691Y00577503D01*
X01189025D01*
Y00573504D02*
X01188358Y00572837D01*
Y00571505D01*
X01189025Y00570838D01*
X01189691D01*
X01190358Y00571505D01*
X01191024Y00570838D01*
X01191691D01*
X01192357Y00571505D01*
Y00572837D01*
X01191691Y00573504D01*
X01191024D01*
X01190358Y00572837D01*
X01189691Y00573504D01*
X01189025D01*
X01190358Y00572837D02*
Y00571505D01*
X016775Y00427D02*
X01673501D01*
Y00425001D01*
X01674168Y00424334D01*
X01675501D01*
X01676167Y00425001D01*
Y00427D01*
Y00425667D02*
X016775Y00424334D01*
X01674168Y00423001D02*
X01673501Y00422335D01*
Y00421002D01*
X01674168Y00420336D01*
X01674834D01*
X01675501Y00421002D01*
Y00421668D01*
Y00421002D01*
X01676167Y00420336D01*
X01676834D01*
X016775Y00421002D01*
Y00422335D01*
X01676834Y00423001D01*
X016775Y00419003D02*
Y0041767D01*
Y00418336D01*
X01673501D01*
X01674168Y00419003D01*
X016775Y0041567D02*
Y00414338D01*
Y00415004D01*
X01673501D01*
X01674168Y0041567D01*
X0151775Y0042775D02*
X01513751D01*
Y00425751D01*
X01514418Y00425084D01*
X01515751D01*
X01516417Y00425751D01*
Y0042775D01*
Y00426417D02*
X0151775Y00425084D01*
X01514418Y00423751D02*
X01513751Y00423085D01*
Y00421752D01*
X01514418Y00421086D01*
X01515084D01*
X01515751Y00421752D01*
Y00422418D01*
Y00421752D01*
X01516417Y00421086D01*
X01517084D01*
X0151775Y00421752D01*
Y00423085D01*
X01517084Y00423751D01*
X0151775Y00419753D02*
Y0041842D01*
Y00419086D01*
X01513751D01*
X01514418Y00419753D01*
Y0041642D02*
X01513751Y00415754D01*
Y00414421D01*
X01514418Y00413755D01*
X01517084D01*
X0151775Y00414421D01*
Y00415754D01*
X01517084Y0041642D01*
X01514418D01*
X01217714Y005855D02*
X01213716D01*
Y00583501D01*
X01214382Y00582834D01*
X01215715D01*
X01216381Y00583501D01*
Y005855D01*
Y00584167D02*
X01217714Y00582834D01*
X01214382Y00581501D02*
X01213716Y00580835D01*
Y00579502D01*
X01214382Y00578835D01*
X01215048D01*
X01215715Y00579502D01*
Y00580168D01*
Y00579502D01*
X01216381Y00578835D01*
X01217048D01*
X01217714Y00579502D01*
Y00580835D01*
X01217048Y00581501D01*
X01214382Y00577503D02*
X01213716Y00576836D01*
Y00575503D01*
X01214382Y00574837D01*
X01217048D01*
X01217714Y00575503D01*
Y00576836D01*
X01217048Y00577503D01*
X01214382D01*
X01213716Y00570838D02*
X01214382Y00572171D01*
X01215715Y00573504D01*
X01217048D01*
X01217714Y00572837D01*
Y00571505D01*
X01217048Y00570838D01*
X01216381D01*
X01215715Y00571505D01*
Y00573504D01*
X01243071Y005855D02*
X01239073D01*
Y00583501D01*
X01239739Y00582834D01*
X01241072D01*
X01241739Y00583501D01*
Y005855D01*
Y00584167D02*
X01243071Y00582834D01*
X01239739Y00581501D02*
X01239073Y00580835D01*
Y00579502D01*
X01239739Y00578835D01*
X01240406D01*
X01241072Y00579502D01*
Y00580168D01*
Y00579502D01*
X01241739Y00578835D01*
X01242405D01*
X01243071Y00579502D01*
Y00580835D01*
X01242405Y00581501D01*
X01239739Y00577503D02*
X01239073Y00576836D01*
Y00575503D01*
X01239739Y00574837D01*
X01242405D01*
X01243071Y00575503D01*
Y00576836D01*
X01242405Y00577503D01*
X01239739D01*
X01243071Y00571505D02*
X01239073D01*
X01241072Y00573504D01*
Y00570838D01*
X0135825Y0042875D02*
X01354251D01*
Y00426751D01*
X01354918Y00426084D01*
X01356251D01*
X01356917Y00426751D01*
Y0042875D01*
Y00427417D02*
X0135825Y00426084D01*
X01354918Y00424751D02*
X01354251Y00424085D01*
Y00422752D01*
X01354918Y00422085D01*
X01355584D01*
X01356251Y00422752D01*
Y00423418D01*
Y00422752D01*
X01356917Y00422085D01*
X01357583D01*
X0135825Y00422752D01*
Y00424085D01*
X01357583Y00424751D01*
X01354918Y00420753D02*
X01354251Y00420086D01*
Y00418753D01*
X01354918Y00418087D01*
X01357583D01*
X0135825Y00418753D01*
Y00420086D01*
X01357583Y00420753D01*
X01354918D01*
Y00416754D02*
X01354251Y00416087D01*
Y00414754D01*
X01354918Y00414088D01*
X01355584D01*
X01356251Y00414754D01*
Y00415421D01*
Y00414754D01*
X01356917Y00414088D01*
X01357583D01*
X0135825Y00414754D01*
Y00416087D01*
X01357583Y00416754D01*
X0119725Y0042875D02*
X01193251D01*
Y00426751D01*
X01193918Y00426084D01*
X01195251D01*
X01195917Y00426751D01*
Y0042875D01*
Y00427417D02*
X0119725Y00426084D01*
X01193918Y00424751D02*
X01193251Y00424085D01*
Y00422752D01*
X01193918Y00422085D01*
X01194584D01*
X01195251Y00422752D01*
Y00423418D01*
Y00422752D01*
X01195917Y00422085D01*
X01196584D01*
X0119725Y00422752D01*
Y00424085D01*
X01196584Y00424751D01*
X01193918Y00420753D02*
X01193251Y00420086D01*
Y00418753D01*
X01193918Y00418087D01*
X01196584D01*
X0119725Y00418753D01*
Y00420086D01*
X01196584Y00420753D01*
X01193918D01*
X0119725Y00414088D02*
Y00416754D01*
X01194584Y00414088D01*
X01193918D01*
X01193251Y00414754D01*
Y00416087D01*
X01193918Y00416754D01*
X0067375Y00432D02*
Y00435999D01*
X00671751D01*
X00671084Y00435332D01*
Y00433999D01*
X00671751Y00433333D01*
X0067375D01*
X00672417D02*
X00671084Y00432D01*
X00669751Y00435332D02*
X00669085Y00435999D01*
X00667752D01*
X00667085Y00435332D01*
Y00434666D01*
X00667752Y00433999D01*
X00668418D01*
X00667752D01*
X00667085Y00433333D01*
Y00432666D01*
X00667752Y00432D01*
X00669085D01*
X00669751Y00432666D01*
X00663753Y00432D02*
Y00435999D01*
X00665753Y00433999D01*
X00663087D01*
X00661754Y00432666D02*
X00661087Y00432D01*
X00659755D01*
X00659088Y00432666D01*
Y00435332D01*
X00659755Y00435999D01*
X00661087D01*
X00661754Y00435332D01*
Y00434666D01*
X00661087Y00433999D01*
X00659088D01*
X0064875Y004175D02*
X00644751D01*
Y00415501D01*
X00645418Y00414834D01*
X00646751D01*
X00647417Y00415501D01*
Y004175D01*
Y00416167D02*
X0064875Y00414834D01*
X00645418Y00413501D02*
X00644751Y00412835D01*
Y00411502D01*
X00645418Y00410835D01*
X00646084D01*
X00646751Y00411502D01*
Y00412168D01*
Y00411502D01*
X00647417Y00410835D01*
X00648084D01*
X0064875Y00411502D01*
Y00412835D01*
X00648084Y00413501D01*
X0064875Y00407503D02*
X00644751D01*
X00646751Y00409503D01*
Y00406837D01*
X00644751Y00402838D02*
Y00405504D01*
X00646751D01*
X00646084Y00404171D01*
Y00403505D01*
X00646751Y00402838D01*
X00648084D01*
X0064875Y00403505D01*
Y00404837D01*
X00648084Y00405504D01*
X005135Y004305D02*
Y00434499D01*
X00511501D01*
X00510834Y00433832D01*
Y00432499D01*
X00511501Y00431833D01*
X005135D01*
X00512167D02*
X00510834Y004305D01*
X00509501Y00433832D02*
X00508835Y00434499D01*
X00507502D01*
X00506836Y00433832D01*
Y00433166D01*
X00507502Y00432499D01*
X00508168D01*
X00507502D01*
X00506836Y00431833D01*
Y00431166D01*
X00507502Y004305D01*
X00508835D01*
X00509501Y00431166D01*
X00503503Y004305D02*
Y00434499D01*
X00505503Y00432499D01*
X00502837D01*
X00501504Y00433832D02*
X00500838Y00434499D01*
X00499505D01*
X00498838Y00433832D01*
Y00433166D01*
X00499505Y00432499D01*
X00498838Y00431833D01*
Y00431166D01*
X00499505Y004305D01*
X00500838D01*
X00501504Y00431166D01*
Y00431833D01*
X00500838Y00432499D01*
X00501504Y00433166D01*
Y00433832D01*
X00500838Y00432499D02*
X00499505D01*
X0099375Y00432D02*
Y00435999D01*
X00991751D01*
X00991084Y00435332D01*
Y00433999D01*
X00991751Y00433333D01*
X0099375D01*
X00992417D02*
X00991084Y00432D01*
X00989751Y00435332D02*
X00989085Y00435999D01*
X00987752D01*
X00987085Y00435332D01*
Y00434666D01*
X00987752Y00433999D01*
X00988418D01*
X00987752D01*
X00987085Y00433333D01*
Y00432666D01*
X00987752Y00432D01*
X00989085D01*
X00989751Y00432666D01*
X00985753Y00435332D02*
X00985086Y00435999D01*
X00983753D01*
X00983087Y00435332D01*
Y00434666D01*
X00983753Y00433999D01*
X0098442D01*
X00983753D01*
X00983087Y00433333D01*
Y00432666D01*
X00983753Y00432D01*
X00985086D01*
X00985753Y00432666D01*
X00981754D02*
X00981087Y00432D01*
X00979755D01*
X00979088Y00432666D01*
Y00435332D01*
X00979755Y00435999D01*
X00981087D01*
X00981754Y00435332D01*
Y00434666D01*
X00981087Y00433999D01*
X00979088D01*
X0048725Y004175D02*
X00483251D01*
Y00415501D01*
X00483918Y00414834D01*
X00485251D01*
X00485917Y00415501D01*
Y004175D01*
Y00416167D02*
X0048725Y00414834D01*
X00483918Y00413501D02*
X00483251Y00412835D01*
Y00411502D01*
X00483918Y00410835D01*
X00484584D01*
X00485251Y00411502D01*
Y00412168D01*
Y00411502D01*
X00485917Y00410835D01*
X00486584D01*
X0048725Y00411502D01*
Y00412835D01*
X00486584Y00413501D01*
X0048725Y00407503D02*
X00483251D01*
X00485251Y00409503D01*
Y00406837D01*
X0048725Y00403505D02*
X00483251D01*
X00485251Y00405504D01*
Y00402838D01*
X0083325Y0043175D02*
Y00435749D01*
X00831251D01*
X00830584Y00435082D01*
Y00433749D01*
X00831251Y00433083D01*
X0083325D01*
X00831917D02*
X00830584Y0043175D01*
X00829251Y00435082D02*
X00828585Y00435749D01*
X00827252D01*
X00826585Y00435082D01*
Y00434416D01*
X00827252Y00433749D01*
X00827918D01*
X00827252D01*
X00826585Y00433083D01*
Y00432416D01*
X00827252Y0043175D01*
X00828585D01*
X00829251Y00432416D01*
X00825253Y00435082D02*
X00824586Y00435749D01*
X00823253D01*
X00822587Y00435082D01*
Y00434416D01*
X00823253Y00433749D01*
X0082392D01*
X00823253D01*
X00822587Y00433083D01*
Y00432416D01*
X00823253Y0043175D01*
X00824586D01*
X00825253Y00432416D01*
X00821254Y00435082D02*
X00820587Y00435749D01*
X00819255D01*
X00818588Y00435082D01*
Y00434416D01*
X00819255Y00433749D01*
X00818588Y00433083D01*
Y00432416D01*
X00819255Y0043175D01*
X00820587D01*
X00821254Y00432416D01*
Y00433083D01*
X00820587Y00433749D01*
X00821254Y00434416D01*
Y00435082D01*
X00820587Y00433749D02*
X00819255D01*
X0096725Y004175D02*
X00963251D01*
Y00415501D01*
X00963918Y00414834D01*
X00965251D01*
X00965917Y00415501D01*
Y004175D01*
Y00416167D02*
X0096725Y00414834D01*
X00963918Y00413501D02*
X00963251Y00412835D01*
Y00411502D01*
X00963918Y00410835D01*
X00964584D01*
X00965251Y00411502D01*
Y00412168D01*
Y00411502D01*
X00965917Y00410835D01*
X00966584D01*
X0096725Y00411502D01*
Y00412835D01*
X00966584Y00413501D01*
X00963918Y00409503D02*
X00963251Y00408836D01*
Y00407503D01*
X00963918Y00406837D01*
X00964584D01*
X00965251Y00407503D01*
Y0040817D01*
Y00407503D01*
X00965917Y00406837D01*
X00966584D01*
X0096725Y00407503D01*
Y00408836D01*
X00966584Y00409503D01*
X00963251Y00405504D02*
Y00402838D01*
X00963918D01*
X00966584Y00405504D01*
X0096725D01*
X00809Y004175D02*
X00805001D01*
Y00415501D01*
X00805668Y00414834D01*
X00807001D01*
X00807667Y00415501D01*
Y004175D01*
Y00416167D02*
X00809Y00414834D01*
X00805668Y00413501D02*
X00805001Y00412835D01*
Y00411502D01*
X00805668Y00410835D01*
X00806334D01*
X00807001Y00411502D01*
Y00412168D01*
Y00411502D01*
X00807667Y00410835D01*
X00808334D01*
X00809Y00411502D01*
Y00412835D01*
X00808334Y00413501D01*
X00805668Y00409503D02*
X00805001Y00408836D01*
Y00407503D01*
X00805668Y00406837D01*
X00806334D01*
X00807001Y00407503D01*
Y0040817D01*
Y00407503D01*
X00807667Y00406837D01*
X00808334D01*
X00809Y00407503D01*
Y00408836D01*
X00808334Y00409503D01*
X00805001Y00402838D02*
X00805668Y00404171D01*
X00807001Y00405504D01*
X00808334D01*
X00809Y00404837D01*
Y00403504D01*
X00808334Y00402838D01*
X00807667D01*
X00807001Y00403504D01*
Y00405504D01*
X0043675Y0065D02*
X00432751D01*
Y00648001D01*
X00433418Y00647334D01*
X00434751D01*
X00435417Y00648001D01*
Y0065D01*
Y00648667D02*
X0043675Y00647334D01*
X00433418Y00646001D02*
X00432751Y00645335D01*
Y00644002D01*
X00433418Y00643335D01*
X00434084D01*
X00434751Y00644002D01*
Y00644668D01*
Y00644002D01*
X00435417Y00643335D01*
X00436084D01*
X0043675Y00644002D01*
Y00645335D01*
X00436084Y00646001D01*
X00433418Y00642003D02*
X00432751Y00641336D01*
Y00640003D01*
X00433418Y00639337D01*
X00436084D01*
X0043675Y00640003D01*
Y00641336D01*
X00436084Y00642003D01*
X00433418D01*
X0043675Y00638004D02*
Y00636671D01*
Y00637337D01*
X00432751D01*
X00433418Y00638004D01*
X0040775Y0095075D02*
X00403751D01*
Y00948751D01*
X00404418Y00948084D01*
X00405751D01*
X00406417Y00948751D01*
Y0095075D01*
Y00949417D02*
X0040775Y00948084D01*
Y00946751D02*
Y00945418D01*
Y00946085D01*
X00403751D01*
X00404418Y00946751D01*
Y00943419D02*
X00403751Y00942753D01*
Y0094142D01*
X00404418Y00940753D01*
X00407084D01*
X0040775Y0094142D01*
Y00942753D01*
X00407084Y00943419D01*
X00404418D01*
Y0093942D02*
X00403751Y00938754D01*
Y00937421D01*
X00404418Y00936755D01*
X00405084D01*
X00405751Y00937421D01*
X00406417Y00936755D01*
X00407084D01*
X0040775Y00937421D01*
Y00938754D01*
X00407084Y0093942D01*
X00406417D01*
X00405751Y00938754D01*
X00405084Y0093942D01*
X00404418D01*
X00405751Y00938754D02*
Y00937421D01*
X0038375Y0103575D02*
X00379751D01*
Y01033751D01*
X00380418Y01033084D01*
X00381751D01*
X00382417Y01033751D01*
Y0103575D01*
Y01034417D02*
X0038375Y01033084D01*
Y01031751D02*
Y01030418D01*
Y01031085D01*
X00379751D01*
X00380418Y01031751D01*
Y01028419D02*
X00379751Y01027753D01*
Y0102642D01*
X00380418Y01025753D01*
X00383084D01*
X0038375Y0102642D01*
Y01027753D01*
X00383084Y01028419D01*
X00380418D01*
X00379751Y0102442D02*
Y01021755D01*
X00380418D01*
X00383084Y0102442D01*
X0038375D01*
X0043375Y0103675D02*
X00429751D01*
Y01034751D01*
X00430418Y01034084D01*
X00431751D01*
X00432417Y01034751D01*
Y0103675D01*
Y01035417D02*
X0043375Y01034084D01*
Y01032751D02*
Y01031418D01*
Y01032085D01*
X00429751D01*
X00430418Y01032751D01*
Y01029419D02*
X00429751Y01028753D01*
Y0102742D01*
X00430418Y01026753D01*
X00433084D01*
X0043375Y0102742D01*
Y01028753D01*
X00433084Y01029419D01*
X00430418D01*
X00429751Y01022755D02*
Y0102542D01*
X00431751D01*
X00431084Y01024088D01*
Y01023421D01*
X00431751Y01022755D01*
X00433084D01*
X0043375Y01023421D01*
Y01024754D01*
X00433084Y0102542D01*
X0204275Y0063375D02*
Y00637749D01*
X02040751D01*
X02040084Y00637082D01*
Y00635749D01*
X02040751Y00635083D01*
X0204275D01*
X02041417D02*
X02040084Y0063375D01*
X02036086D02*
X02038751D01*
X02036086Y00636416D01*
Y00637082D01*
X02036752Y00637749D01*
X02038085D01*
X02038751Y00637082D01*
X02034753D02*
X02034086Y00637749D01*
X02032753D01*
X02032087Y00637082D01*
Y00634416D01*
X02032753Y0063375D01*
X02034086D01*
X02034753Y00634416D01*
Y00637082D01*
X02028088Y00637749D02*
X02029421Y00637082D01*
X02030754Y00635749D01*
Y00634416D01*
X02030087Y0063375D01*
X02028754D01*
X02028088Y00634416D01*
Y00635083D01*
X02028754Y00635749D01*
X02030754D01*
X0041475Y00635D02*
Y00638999D01*
X00412751D01*
X00412084Y00638332D01*
Y00636999D01*
X00412751Y00636333D01*
X0041475D01*
X00413417D02*
X00412084Y00635D01*
X00410751Y00638332D02*
X00410085Y00638999D01*
X00408752D01*
X00408086Y00638332D01*
Y00637666D01*
X00408752Y00636999D01*
X00409418D01*
X00408752D01*
X00408086Y00636333D01*
Y00635666D01*
X00408752Y00635D01*
X00410085D01*
X00410751Y00635666D01*
X00406753Y00638332D02*
X00406086Y00638999D01*
X00404753D01*
X00404087Y00638332D01*
Y00635666D01*
X00404753Y00635D01*
X00406086D01*
X00406753Y00635666D01*
Y00638332D01*
X00402754D02*
X00402088Y00638999D01*
X00400755D01*
X00400088Y00638332D01*
Y00635666D01*
X00400755Y00635D01*
X00402088D01*
X00402754Y00635666D01*
Y00638332D01*
X00927668Y01082399D02*
Y010784D01*
X00925002D01*
X00923669D02*
X00922336D01*
X00923003D01*
Y01082399D01*
X00923669Y01081732D01*
X00920337D02*
X00919671Y01082399D01*
X00918338D01*
X00917671Y01081732D01*
Y01079066D01*
X00918338Y010784D01*
X00919671D01*
X00920337Y01079066D01*
Y01081732D01*
X00916338D02*
X00915672Y01082399D01*
X00914339D01*
X00913673Y01081732D01*
Y01079066D01*
X00914339Y010784D01*
X00915672D01*
X00916338Y01079066D01*
Y01081732D01*
X0031825Y01014749D02*
Y0101075D01*
X00316251D01*
X00315584Y01011416D01*
Y01014082D01*
X00316251Y01014749D01*
X0031825D01*
X00314251Y0101075D02*
X00312918D01*
X00313585D01*
Y01014749D01*
X00314251Y01014082D01*
X00310919D02*
X00310253Y01014749D01*
X0030892D01*
X00308253Y01014082D01*
Y01011416D01*
X0030892Y0101075D01*
X00310253D01*
X00310919Y01011416D01*
Y01014082D01*
X00304255Y0101075D02*
X0030692D01*
X00304255Y01013416D01*
Y01014082D01*
X00304921Y01014749D01*
X00306254D01*
X0030692Y01014082D01*
X00366751Y0091925D02*
X0037075D01*
Y00917251D01*
X00370084Y00916584D01*
X00367418D01*
X00366751Y00917251D01*
Y0091925D01*
X0037075Y00915251D02*
Y00913918D01*
Y00914585D01*
X00366751D01*
X00367418Y00915251D01*
Y00911919D02*
X00366751Y00911253D01*
Y0090992D01*
X00367418Y00909253D01*
X00370084D01*
X0037075Y0090992D01*
Y00911253D01*
X00370084Y00911919D01*
X00367418D01*
X0037075Y0090792D02*
Y00906588D01*
Y00907254D01*
X00366751D01*
X00367418Y0090792D01*
X0034125Y01031249D02*
Y0102725D01*
X00339251D01*
X00338584Y01027916D01*
Y01030582D01*
X00339251Y01031249D01*
X0034125D01*
X00337251Y0102725D02*
X00335918D01*
X00336585D01*
Y01031249D01*
X00337251Y01030582D01*
X00333919D02*
X00333253Y01031249D01*
X0033192D01*
X00331253Y01030582D01*
Y01027916D01*
X0033192Y0102725D01*
X00333253D01*
X00333919Y01027916D01*
Y01030582D01*
X0032992D02*
X00329254Y01031249D01*
X00327921D01*
X00327254Y01030582D01*
Y01027916D01*
X00327921Y0102725D01*
X00329254D01*
X0032992Y01027916D01*
Y01030582D01*
X00300834Y00988832D02*
X00301501Y00989499D01*
X00302834D01*
X003035Y00988832D01*
Y00986167D01*
X00302834Y009855D01*
X00301501D01*
X00300834Y00986167D01*
X00299501Y009855D02*
X00298168D01*
X00298835D01*
Y00989499D01*
X00299501Y00988832D01*
X0029417Y009855D02*
Y00989499D01*
X00296169Y00987499D01*
X00293503D01*
X00289505Y00989499D02*
X0029217D01*
Y00987499D01*
X00290837Y00988166D01*
X00290171D01*
X00289505Y00987499D01*
Y00986167D01*
X00290171Y009855D01*
X00291504D01*
X0029217Y00986167D01*
X00343668Y00950334D02*
X00343001Y00951001D01*
Y00952334D01*
X00343668Y00953D01*
X00346334D01*
X00347Y00952334D01*
Y00951001D01*
X00346334Y00950334D01*
X00347Y00949001D02*
Y00947668D01*
Y00948335D01*
X00343001D01*
X00343668Y00949001D01*
X00347Y0094367D02*
X00343001D01*
X00345001Y00945669D01*
Y00943003D01*
X00347Y00939671D02*
X00343001D01*
X00345001Y0094167D01*
Y00939005D01*
X00366834Y01048082D02*
X00367501Y01048749D01*
X00368834D01*
X003695Y01048082D01*
Y01045416D01*
X00368834Y0104475D01*
X00367501D01*
X00366834Y01045416D01*
X00365501Y0104475D02*
X00364168D01*
X00364835D01*
Y01048749D01*
X00365501Y01048082D01*
X0036017Y0104475D02*
Y01048749D01*
X00362169Y01046749D01*
X00359503D01*
X0035817Y01048082D02*
X00357504Y01048749D01*
X00356171D01*
X00355505Y01048082D01*
Y01047416D01*
X00356171Y01046749D01*
X00356838D01*
X00356171D01*
X00355505Y01046083D01*
Y01045416D01*
X00356171Y0104475D01*
X00357504D01*
X0035817Y01045416D01*
X00820834Y01073582D02*
X00821501Y01074249D01*
X00822834D01*
X008235Y01073582D01*
Y01070917D01*
X00822834Y0107025D01*
X00821501D01*
X00820834Y01070917D01*
X00819501Y0107025D02*
X00818168D01*
X00818835D01*
Y01074249D01*
X00819501Y01073582D01*
X00816169D02*
X00815503Y01074249D01*
X0081417D01*
X00813503Y01073582D01*
Y01072916D01*
X0081417Y01072249D01*
X00814836D01*
X0081417D01*
X00813503Y01071583D01*
Y01070917D01*
X0081417Y0107025D01*
X00815503D01*
X00816169Y01070917D01*
X0081217Y01073582D02*
X00811504Y01074249D01*
X00810171D01*
X00809505Y01073582D01*
Y01072916D01*
X00810171Y01072249D01*
X00810837D01*
X00810171D01*
X00809505Y01071583D01*
Y01070917D01*
X00810171Y0107025D01*
X00811504D01*
X0081217Y01070917D01*
X00850334Y01073582D02*
X00851001Y01074249D01*
X00852334D01*
X00853Y01073582D01*
Y01070917D01*
X00852334Y0107025D01*
X00851001D01*
X00850334Y01070917D01*
X00849001Y0107025D02*
X00847668D01*
X00848335D01*
Y01074249D01*
X00849001Y01073582D01*
X00845669D02*
X00845003Y01074249D01*
X0084367D01*
X00843003Y01073582D01*
Y01072916D01*
X0084367Y01072249D01*
X00844336D01*
X0084367D01*
X00843003Y01071583D01*
Y01070917D01*
X0084367Y0107025D01*
X00845003D01*
X00845669Y01070917D01*
X00839005Y0107025D02*
X0084167D01*
X00839005Y01072916D01*
Y01073582D01*
X00839671Y01074249D01*
X00841004D01*
X0084167Y01073582D01*
X00938334Y00951332D02*
X00939001Y00951999D01*
X00940334D01*
X00941Y00951332D01*
Y00948667D01*
X00940334Y00948D01*
X00939001D01*
X00938334Y00948667D01*
X00937001Y00948D02*
X00935668D01*
X00936335D01*
Y00951999D01*
X00937001Y00951332D01*
X00931003Y00948D02*
X00933669D01*
X00931003Y00950666D01*
Y00951332D01*
X0093167Y00951999D01*
X00933003D01*
X00933669Y00951332D01*
X0092967Y00948667D02*
X00929004Y00948D01*
X00927671D01*
X00927004Y00948667D01*
Y00951332D01*
X00927671Y00951999D01*
X00929004D01*
X0092967Y00951332D01*
Y00950666D01*
X00929004Y00949999D01*
X00927004D01*
X00943584Y00879582D02*
X00944251Y00880249D01*
X00945584D01*
X0094625Y00879582D01*
Y00876916D01*
X00945584Y0087625D01*
X00944251D01*
X00943584Y00876916D01*
X00942251Y0087625D02*
X00940918D01*
X00941585D01*
Y00880249D01*
X00942251Y00879582D01*
X00936253Y0087625D02*
X00938919D01*
X00936253Y00878916D01*
Y00879582D01*
X0093692Y00880249D01*
X00938253D01*
X00938919Y00879582D01*
X0093492D02*
X00934254Y00880249D01*
X00932921D01*
X00932254Y00879582D01*
Y00878916D01*
X00932921Y00878249D01*
X00932254Y00877583D01*
Y00876916D01*
X00932921Y0087625D01*
X00934254D01*
X0093492Y00876916D01*
Y00877583D01*
X00934254Y00878249D01*
X0093492Y00878916D01*
Y00879582D01*
X00934254Y00878249D02*
X00932921D01*
X00736918Y01080584D02*
X00736251Y01081251D01*
Y01082584D01*
X00736918Y0108325D01*
X00739584D01*
X0074025Y01082584D01*
Y01081251D01*
X00739584Y01080584D01*
X0074025Y01079251D02*
Y01077918D01*
Y01078585D01*
X00736251D01*
X00736918Y01079251D01*
X0074025Y01073253D02*
Y01075919D01*
X00737584Y01073253D01*
X00736918D01*
X00736251Y0107392D01*
Y01075253D01*
X00736918Y01075919D01*
X00736251Y0107192D02*
Y01069255D01*
X00736918D01*
X00739584Y0107192D01*
X0074025D01*
X00780418Y01081084D02*
X00779751Y01081751D01*
Y01083084D01*
X00780418Y0108375D01*
X00783083D01*
X0078375Y01083084D01*
Y01081751D01*
X00783083Y01081084D01*
X0078375Y01079751D02*
Y01078418D01*
Y01079085D01*
X00779751D01*
X00780418Y01079751D01*
X0078375Y01073753D02*
Y01076419D01*
X00781084Y01073753D01*
X00780418D01*
X00779751Y0107442D01*
Y01075753D01*
X00780418Y01076419D01*
X00779751Y01069755D02*
X00780418Y01071087D01*
X00781751Y0107242D01*
X00783083D01*
X0078375Y01071754D01*
Y01070421D01*
X00783083Y01069755D01*
X00782417D01*
X00781751Y01070421D01*
Y0107242D01*
X00769918Y00780334D02*
X00769251Y00781001D01*
Y00782334D01*
X00769918Y00783D01*
X00772583D01*
X0077325Y00782334D01*
Y00781001D01*
X00772583Y00780334D01*
X0077325Y00779001D02*
Y00777668D01*
Y00778335D01*
X00769251D01*
X00769918Y00779001D01*
X0077325Y00773003D02*
Y00775669D01*
X00770584Y00773003D01*
X00769918D01*
X00769251Y0077367D01*
Y00775003D01*
X00769918Y00775669D01*
X00769251Y00769005D02*
Y0077167D01*
X00771251D01*
X00770584Y00770338D01*
Y00769671D01*
X00771251Y00769005D01*
X00772583D01*
X0077325Y00769671D01*
Y00771004D01*
X00772583Y0077167D01*
X00737668Y00779834D02*
X00737001Y00780501D01*
Y00781834D01*
X00737668Y007825D01*
X00740333D01*
X00741Y00781834D01*
Y00780501D01*
X00740333Y00779834D01*
X00741Y00778501D02*
Y00777168D01*
Y00777835D01*
X00737001D01*
X00737668Y00778501D01*
X00741Y00772503D02*
Y00775169D01*
X00738334Y00772503D01*
X00737668D01*
X00737001Y0077317D01*
Y00774503D01*
X00737668Y00775169D01*
X00741Y00769171D02*
X00737001D01*
X00739001Y0077117D01*
Y00768505D01*
X00733334Y00897082D02*
X00734001Y00897749D01*
X00735334D01*
X00736Y00897082D01*
Y00894416D01*
X00735334Y0089375D01*
X00734001D01*
X00733334Y00894416D01*
X00732001Y0089375D02*
X00730668D01*
X00731335D01*
Y00897749D01*
X00732001Y00897082D01*
X00726003Y0089375D02*
X00728669D01*
X00726003Y00896416D01*
Y00897082D01*
X0072667Y00897749D01*
X00728003D01*
X00728669Y00897082D01*
X0072467D02*
X00724004Y00897749D01*
X00722671D01*
X00722005Y00897082D01*
Y00896416D01*
X00722671Y00895749D01*
X00723337D01*
X00722671D01*
X00722005Y00895083D01*
Y00894416D01*
X00722671Y0089375D01*
X00724004D01*
X0072467Y00894416D01*
X00733334Y00914332D02*
X00734001Y00914999D01*
X00735334D01*
X00736Y00914332D01*
Y00911666D01*
X00735334Y00911D01*
X00734001D01*
X00733334Y00911666D01*
X00732001Y00911D02*
X00730668D01*
X00731335D01*
Y00914999D01*
X00732001Y00914332D01*
X00726003Y00911D02*
X00728669D01*
X00726003Y00913666D01*
Y00914332D01*
X0072667Y00914999D01*
X00728003D01*
X00728669Y00914332D01*
X00722005Y00911D02*
X0072467D01*
X00722005Y00913666D01*
Y00914332D01*
X00722671Y00914999D01*
X00724004D01*
X0072467Y00914332D01*
X00730418Y00992334D02*
X00729751Y00993001D01*
Y00994333D01*
X00730418Y00995D01*
X00733083D01*
X0073375Y00994333D01*
Y00993001D01*
X00733083Y00992334D01*
X0073375Y00991001D02*
Y00989668D01*
Y00990335D01*
X00729751D01*
X00730418Y00991001D01*
X0073375Y00987669D02*
Y00986336D01*
Y00987003D01*
X00729751D01*
X00730418Y00987669D01*
X00729751Y00981671D02*
Y00984337D01*
X00731751D01*
X00731084Y00983004D01*
Y00982337D01*
X00731751Y00981671D01*
X00733083D01*
X0073375Y00982337D01*
Y0098367D01*
X00733083Y00984337D01*
X00770668Y00991084D02*
X00770001Y00991751D01*
Y00993084D01*
X00770668Y0099375D01*
X00773334D01*
X00774Y00993084D01*
Y00991751D01*
X00773334Y00991084D01*
X00774Y00989751D02*
Y00988418D01*
Y00989085D01*
X00770001D01*
X00770668Y00989751D01*
X00774Y00986419D02*
Y00985086D01*
Y00985753D01*
X00770001D01*
X00770668Y00986419D01*
X00774Y00981087D02*
X00770001D01*
X00772001Y00983087D01*
Y00980421D01*
X00799418Y00991334D02*
X00798751Y00992001D01*
Y00993334D01*
X00799418Y00994D01*
X00802084D01*
X0080275Y00993334D01*
Y00992001D01*
X00802084Y00991334D01*
X0080275Y00990001D02*
Y00988668D01*
Y00989335D01*
X00798751D01*
X00799418Y00990001D01*
X0080275Y00986669D02*
Y00985336D01*
Y00986003D01*
X00798751D01*
X00799418Y00986669D01*
Y00983337D02*
X00798751Y0098267D01*
Y00981337D01*
X00799418Y00980671D01*
X00800084D01*
X00800751Y00981337D01*
Y00982004D01*
Y00981337D01*
X00801417Y00980671D01*
X00802084D01*
X0080275Y00981337D01*
Y0098267D01*
X00802084Y00983337D01*
X00840168Y00990834D02*
X00839501Y00991501D01*
Y00992833D01*
X00840168Y009935D01*
X00842833D01*
X008435Y00992833D01*
Y00991501D01*
X00842833Y00990834D01*
X008435Y00989501D02*
Y00988168D01*
Y00988835D01*
X00839501D01*
X00840168Y00989501D01*
X008435Y00986169D02*
Y00984836D01*
Y00985503D01*
X00839501D01*
X00840168Y00986169D01*
X008435Y00980171D02*
Y00982837D01*
X00840834Y00980171D01*
X00840168D01*
X00839501Y00980837D01*
Y0098217D01*
X00840168Y00982837D01*
X00873084Y00964332D02*
X00873751Y00964999D01*
X00875083D01*
X0087575Y00964332D01*
Y00961666D01*
X00875083Y00961D01*
X00873751D01*
X00873084Y00961666D01*
X00871751Y00961D02*
X00870418D01*
X00871085D01*
Y00964999D01*
X00871751Y00964332D01*
X00868419Y00961D02*
X00867086D01*
X00867753D01*
Y00964999D01*
X00868419Y00964332D01*
X00865087Y00961D02*
X00863754D01*
X0086442D01*
Y00964999D01*
X00865087Y00964332D01*
X00854334Y00885832D02*
X00855001Y00886499D01*
X00856333D01*
X00857Y00885832D01*
Y00883166D01*
X00856333Y008825D01*
X00855001D01*
X00854334Y00883166D01*
X00853001Y008825D02*
X00851668D01*
X00852335D01*
Y00886499D01*
X00853001Y00885832D01*
X00849669Y008825D02*
X00848336D01*
X00849003D01*
Y00886499D01*
X00849669Y00885832D01*
X00846337D02*
X0084567Y00886499D01*
X00844337D01*
X00843671Y00885832D01*
Y00883166D01*
X00844337Y008825D01*
X0084567D01*
X00846337Y00883166D01*
Y00885832D01*
X00868584Y00864582D02*
X00869251Y00865249D01*
X00870584D01*
X0087125Y00864582D01*
Y00861916D01*
X00870584Y0086125D01*
X00869251D01*
X00868584Y00861916D01*
X00867251Y0086125D02*
X00865918D01*
X00866585D01*
Y00865249D01*
X00867251Y00864582D01*
X00863919D02*
X00863253Y00865249D01*
X0086192D01*
X00861253Y00864582D01*
Y00861916D01*
X0086192Y0086125D01*
X00863253D01*
X00863919Y00861916D01*
Y00864582D01*
X0085992Y00861916D02*
X00859254Y0086125D01*
X00857921D01*
X00857254Y00861916D01*
Y00864582D01*
X00857921Y00865249D01*
X00859254D01*
X0085992Y00864582D01*
Y00863916D01*
X00859254Y00863249D01*
X00857254D01*
X00855084Y00842332D02*
X00855751Y00842999D01*
X00857084D01*
X0085775Y00842332D01*
Y00839666D01*
X00857084Y00839D01*
X00855751D01*
X00855084Y00839666D01*
X00853751Y00839D02*
X00852418D01*
X00853085D01*
Y00842999D01*
X00853751Y00842332D01*
X00850419D02*
X00849753Y00842999D01*
X0084842D01*
X00847753Y00842332D01*
Y00839666D01*
X0084842Y00839D01*
X00849753D01*
X00850419Y00839666D01*
Y00842332D01*
X0084642D02*
X00845754Y00842999D01*
X00844421D01*
X00843755Y00842332D01*
Y00841666D01*
X00844421Y00840999D01*
X00843755Y00840333D01*
Y00839666D01*
X00844421Y00839D01*
X00845754D01*
X0084642Y00839666D01*
Y00840333D01*
X00845754Y00840999D01*
X0084642Y00841666D01*
Y00842332D01*
X00845754Y00840999D02*
X00844421D01*
X00835834Y00863582D02*
X00836501Y00864249D01*
X00837834D01*
X008385Y00863582D01*
Y00860916D01*
X00837834Y0086025D01*
X00836501D01*
X00835834Y00860916D01*
X00834501Y0086025D02*
X00833168D01*
X00833835D01*
Y00864249D01*
X00834501Y00863582D01*
X00831169D02*
X00830503Y00864249D01*
X0082917D01*
X00828503Y00863582D01*
Y00860916D01*
X0082917Y0086025D01*
X00830503D01*
X00831169Y00860916D01*
Y00863582D01*
X0082717Y00864249D02*
X00824504D01*
Y00863582D01*
X0082717Y00860916D01*
Y0086025D01*
X00763334Y00861832D02*
X00764001Y00862499D01*
X00765333D01*
X00766Y00861832D01*
Y00859166D01*
X00765333Y008585D01*
X00764001D01*
X00763334Y00859166D01*
X00762001Y008585D02*
X00760668D01*
X00761335D01*
Y00862499D01*
X00762001Y00861832D01*
X00758669D02*
X00758003Y00862499D01*
X0075667D01*
X00756003Y00861832D01*
Y00859166D01*
X0075667Y008585D01*
X00758003D01*
X00758669Y00859166D01*
Y00861832D01*
X00752004Y00862499D02*
X00753337Y00861832D01*
X0075467Y00860499D01*
Y00859166D01*
X00754004Y008585D01*
X00752671D01*
X00752004Y00859166D01*
Y00859833D01*
X00752671Y00860499D01*
X0075467D01*
X00759834Y00816332D02*
X00760501Y00816999D01*
X00761833D01*
X007625Y00816332D01*
Y00813666D01*
X00761833Y00813D01*
X00760501D01*
X00759834Y00813666D01*
X00758501Y00813D02*
X00757168D01*
X00757835D01*
Y00816999D01*
X00758501Y00816332D01*
X00755169D02*
X00754503Y00816999D01*
X0075317D01*
X00752503Y00816332D01*
Y00813666D01*
X0075317Y00813D01*
X00754503D01*
X00755169Y00813666D01*
Y00816332D01*
X00748504Y00816999D02*
X0075117D01*
Y00814999D01*
X00749837Y00815666D01*
X00749171D01*
X00748504Y00814999D01*
Y00813666D01*
X00749171Y00813D01*
X00750504D01*
X0075117Y00813666D01*
X00742834Y00835832D02*
X00743501Y00836499D01*
X00744834D01*
X007455Y00835832D01*
Y00833167D01*
X00744834Y008325D01*
X00743501D01*
X00742834Y00833167D01*
X00741501Y008325D02*
X00740168D01*
X00740835D01*
Y00836499D01*
X00741501Y00835832D01*
X00738169D02*
X00737503Y00836499D01*
X0073617D01*
X00735503Y00835832D01*
Y00833167D01*
X0073617Y008325D01*
X00737503D01*
X00738169Y00833167D01*
Y00835832D01*
X00732171Y008325D02*
Y00836499D01*
X0073417Y00834499D01*
X00731505D01*
X00733084Y00874832D02*
X00733751Y00875499D01*
X00735083D01*
X0073575Y00874832D01*
Y00872167D01*
X00735083Y008715D01*
X00733751D01*
X00733084Y00872167D01*
X00731751Y008715D02*
X00730418D01*
X00731085D01*
Y00875499D01*
X00731751Y00874832D01*
X00728419D02*
X00727753Y00875499D01*
X0072642D01*
X00725753Y00874832D01*
Y00872167D01*
X0072642Y008715D01*
X00727753D01*
X00728419Y00872167D01*
Y00874832D01*
X0072442D02*
X00723754Y00875499D01*
X00722421D01*
X00721755Y00874832D01*
Y00874166D01*
X00722421Y00873499D01*
X00723087D01*
X00722421D01*
X00721755Y00872833D01*
Y00872167D01*
X00722421Y008715D01*
X00723754D01*
X0072442Y00872167D01*
X00728334Y00961582D02*
X00729001Y00962249D01*
X00730334D01*
X00731Y00961582D01*
Y00958916D01*
X00730334Y0095825D01*
X00729001D01*
X00728334Y00958916D01*
X00727001Y0095825D02*
X00725668D01*
X00726335D01*
Y00962249D01*
X00727001Y00961582D01*
X00723669D02*
X00723003Y00962249D01*
X0072167D01*
X00721003Y00961582D01*
Y00958916D01*
X0072167Y0095825D01*
X00723003D01*
X00723669Y00958916D01*
Y00961582D01*
X00717005Y0095825D02*
X0071967D01*
X00717005Y00960916D01*
Y00961582D01*
X00717671Y00962249D01*
X00719004D01*
X0071967Y00961582D01*
X00936834Y01011332D02*
X00937501Y01011999D01*
X00938834D01*
X009395Y01011332D01*
Y01008667D01*
X00938834Y01008D01*
X00937501D01*
X00936834Y01008667D01*
X00935501Y01008D02*
X00934168D01*
X00934835D01*
Y01011999D01*
X00935501Y01011332D01*
X00932169D02*
X00931503Y01011999D01*
X0093017D01*
X00929503Y01011332D01*
Y01010666D01*
X0093017Y01009999D01*
X00930836D01*
X0093017D01*
X00929503Y01009333D01*
Y01008667D01*
X0093017Y01008D01*
X00931503D01*
X00932169Y01008667D01*
X00925505Y01011999D02*
X0092817D01*
Y01009999D01*
X00926837Y01010666D01*
X00926171D01*
X00925505Y01009999D01*
Y01008667D01*
X00926171Y01008D01*
X00927504D01*
X0092817Y01008667D01*
X00880084Y01012582D02*
X00880751Y01013249D01*
X00882084D01*
X0088275Y01012582D01*
Y01009916D01*
X00882084Y0100925D01*
X00880751D01*
X00880084Y01009916D01*
X00878751Y0100925D02*
X00877418D01*
X00878085D01*
Y01013249D01*
X00878751Y01012582D01*
X00875419D02*
X00874753Y01013249D01*
X0087342D01*
X00872753Y01012582D01*
Y01011916D01*
X0087342Y01011249D01*
X00874086D01*
X0087342D01*
X00872753Y01010583D01*
Y01009916D01*
X0087342Y0100925D01*
X00874753D01*
X00875419Y01009916D01*
X00869421Y0100925D02*
Y01013249D01*
X0087142Y01011249D01*
X00868755D01*
X00845168Y00778834D02*
X00844501Y00779501D01*
Y00780834D01*
X00845168Y007815D01*
X00847834D01*
X008485Y00780834D01*
Y00779501D01*
X00847834Y00778834D01*
X008485Y00777501D02*
Y00776168D01*
Y00776835D01*
X00844501D01*
X00845168Y00777501D01*
Y00774169D02*
X00844501Y00773503D01*
Y0077217D01*
X00845168Y00771503D01*
X00845834D01*
X00846501Y0077217D01*
Y00772836D01*
Y0077217D01*
X00847167Y00771503D01*
X00847834D01*
X008485Y0077217D01*
Y00773503D01*
X00847834Y00774169D01*
X008485Y0077017D02*
Y00768838D01*
Y00769504D01*
X00844501D01*
X00845168Y0077017D01*
X00795168Y00780084D02*
X00794501Y00780751D01*
Y00782084D01*
X00795168Y0078275D01*
X00797834D01*
X007985Y00782084D01*
Y00780751D01*
X00797834Y00780084D01*
X007985Y00778751D02*
Y00777418D01*
Y00778085D01*
X00794501D01*
X00795168Y00778751D01*
Y00775419D02*
X00794501Y00774753D01*
Y0077342D01*
X00795168Y00772753D01*
X00795834D01*
X00796501Y0077342D01*
Y00774086D01*
Y0077342D01*
X00797167Y00772753D01*
X00797834D01*
X007985Y0077342D01*
Y00774753D01*
X00797834Y00775419D01*
X00795168Y0077142D02*
X00794501Y00770754D01*
Y00769421D01*
X00795168Y00768755D01*
X00797834D01*
X007985Y00769421D01*
Y00770754D01*
X00797834Y0077142D01*
X00795168D01*
X00964834Y01030832D02*
X00965501Y01031499D01*
X00966834D01*
X009675Y01030832D01*
Y01028166D01*
X00966834Y010275D01*
X00965501D01*
X00964834Y01028166D01*
X00963501Y010275D02*
X00962168D01*
X00962835D01*
Y01031499D01*
X00963501Y01030832D01*
X00960169D02*
X00959503Y01031499D01*
X0095817D01*
X00957503Y01030832D01*
Y01028166D01*
X0095817Y010275D01*
X00959503D01*
X00960169Y01028166D01*
Y01030832D01*
X0095617D02*
X00955504Y01031499D01*
X00954171D01*
X00953504Y01030832D01*
Y01028166D01*
X00954171Y010275D01*
X00955504D01*
X0095617Y01028166D01*
Y01030832D01*
X01258506Y00712978D02*
Y00716977D01*
X01256507D01*
X0125584Y0071631D01*
Y00714977D01*
X01256507Y00714311D01*
X01258506D01*
X01257173D02*
X0125584Y00712978D01*
X01254507Y0071631D02*
X01253841Y00716977D01*
X01252508D01*
X01251842Y0071631D01*
Y00715644D01*
X01252508Y00714977D01*
X01253174D01*
X01252508D01*
X01251842Y00714311D01*
Y00713644D01*
X01252508Y00712978D01*
X01253841D01*
X01254507Y00713644D01*
X01250509Y0071631D02*
X01249842Y00716977D01*
X01248509D01*
X01247843Y0071631D01*
Y00713644D01*
X01248509Y00712978D01*
X01249842D01*
X01250509Y00713644D01*
Y0071631D01*
X01243844Y00716977D02*
X0124651D01*
Y00714977D01*
X01245177Y00715644D01*
X0124451D01*
X01243844Y00714977D01*
Y00713644D01*
X0124451Y00712978D01*
X01245844D01*
X0124651Y00713644D01*
X0123336Y00712978D02*
Y00716977D01*
X01231361D01*
X01230694Y0071631D01*
Y00714977D01*
X01231361Y00714311D01*
X0123336D01*
X01232027D02*
X01230694Y00712978D01*
X01229361Y0071631D02*
X01228695Y00716977D01*
X01227362D01*
X01226695Y0071631D01*
Y00715644D01*
X01227362Y00714977D01*
X01228028D01*
X01227362D01*
X01226695Y00714311D01*
Y00713644D01*
X01227362Y00712978D01*
X01228695D01*
X01229361Y00713644D01*
X01225363Y0071631D02*
X01224696Y00716977D01*
X01223363D01*
X01222697Y0071631D01*
Y00713644D01*
X01223363Y00712978D01*
X01224696D01*
X01225363Y00713644D01*
Y0071631D01*
X01221364Y00716977D02*
X01218698D01*
Y0071631D01*
X01221364Y00713644D01*
Y00712978D01*
X01207452D02*
Y00716977D01*
X01205453D01*
X01204786Y0071631D01*
Y00714977D01*
X01205453Y00714311D01*
X01207452D01*
X01206119D02*
X01204786Y00712978D01*
X01203453Y0071631D02*
X01202787Y00716977D01*
X01201454D01*
X01200788Y0071631D01*
Y00715644D01*
X01201454Y00714977D01*
X0120212D01*
X01201454D01*
X01200788Y00714311D01*
Y00713644D01*
X01201454Y00712978D01*
X01202787D01*
X01203453Y00713644D01*
X01199455Y0071631D02*
X01198788Y00716977D01*
X01197455D01*
X01196789Y0071631D01*
Y00713644D01*
X01197455Y00712978D01*
X01198788D01*
X01199455Y00713644D01*
Y0071631D01*
X01195456Y00713644D02*
X0119479Y00712978D01*
X01193456D01*
X0119279Y00713644D01*
Y0071631D01*
X01193456Y00716977D01*
X0119479D01*
X01195456Y0071631D01*
Y00715644D01*
X0119479Y00714977D01*
X0119279D01*
X01182306Y00712978D02*
Y00716977D01*
X01180307D01*
X0117964Y0071631D01*
Y00714977D01*
X01180307Y00714311D01*
X01182306D01*
X01180973D02*
X0117964Y00712978D01*
X01178307Y0071631D02*
X01177641Y00716977D01*
X01176308D01*
X01175641Y0071631D01*
Y00715644D01*
X01176308Y00714977D01*
X01176974D01*
X01176308D01*
X01175641Y00714311D01*
Y00713644D01*
X01176308Y00712978D01*
X01177641D01*
X01178307Y00713644D01*
X01174309Y00712978D02*
X01172976D01*
X01173642D01*
Y00716977D01*
X01174309Y0071631D01*
X01170976D02*
X0117031Y00716977D01*
X01168977D01*
X0116831Y0071631D01*
Y00715644D01*
X01168977Y00714977D01*
X01169643D01*
X01168977D01*
X0116831Y00714311D01*
Y00713644D01*
X01168977Y00712978D01*
X0117031D01*
X01170976Y00713644D01*
X0136036Y00712978D02*
Y00716977D01*
X01358361D01*
X01357694Y0071631D01*
Y00714977D01*
X01358361Y00714311D01*
X0136036D01*
X01359027D02*
X01357694Y00712978D01*
X01356361Y0071631D02*
X01355695Y00716977D01*
X01354362D01*
X01353696Y0071631D01*
Y00715644D01*
X01354362Y00714977D01*
X01355028D01*
X01354362D01*
X01353696Y00714311D01*
Y00713644D01*
X01354362Y00712978D01*
X01355695D01*
X01356361Y00713644D01*
X01352363Y00712978D02*
X0135103D01*
X01351696D01*
Y00716977D01*
X01352363Y0071631D01*
X0134903Y00716977D02*
X01346364D01*
Y0071631D01*
X0134903Y00713644D01*
Y00712978D01*
X0133496D02*
Y00716977D01*
X01332961D01*
X01332294Y0071631D01*
Y00714977D01*
X01332961Y00714311D01*
X0133496D01*
X01333627D02*
X01332294Y00712978D01*
X01330961Y0071631D02*
X01330295Y00716977D01*
X01328962D01*
X01328295Y0071631D01*
Y00715644D01*
X01328962Y00714977D01*
X01329628D01*
X01328962D01*
X01328295Y00714311D01*
Y00713644D01*
X01328962Y00712978D01*
X01330295D01*
X01330961Y00713644D01*
X01326963Y00712978D02*
X0132563D01*
X01326296D01*
Y00716977D01*
X01326963Y0071631D01*
X0132363Y00713644D02*
X01322964Y00712978D01*
X01321631D01*
X01320965Y00713644D01*
Y0071631D01*
X01321631Y00716977D01*
X01322964D01*
X0132363Y0071631D01*
Y00715644D01*
X01322964Y00714977D01*
X01320965D01*
X01309306Y00712978D02*
Y00716977D01*
X01307307D01*
X0130664Y0071631D01*
Y00714977D01*
X01307307Y00714311D01*
X01309306D01*
X01307973D02*
X0130664Y00712978D01*
X01305307Y0071631D02*
X01304641Y00716977D01*
X01303308D01*
X01302641Y0071631D01*
Y00715644D01*
X01303308Y00714977D01*
X01303974D01*
X01303308D01*
X01302641Y00714311D01*
Y00713644D01*
X01303308Y00712978D01*
X01304641D01*
X01305307Y00713644D01*
X01298643Y00712978D02*
X01301309D01*
X01298643Y00715644D01*
Y0071631D01*
X01299309Y00716977D01*
X01300642D01*
X01301309Y0071631D01*
X0129731Y00712978D02*
X01295977D01*
X01296644D01*
Y00716977D01*
X0129731Y0071631D01*
X01284414Y00712978D02*
Y00716977D01*
X01282415D01*
X01281748Y0071631D01*
Y00714977D01*
X01282415Y00714311D01*
X01284414D01*
X01283081D02*
X01281748Y00712978D01*
X01280415Y0071631D02*
X01279749Y00716977D01*
X01278416D01*
X01277749Y0071631D01*
Y00715644D01*
X01278416Y00714977D01*
X01279082D01*
X01278416D01*
X01277749Y00714311D01*
Y00713644D01*
X01278416Y00712978D01*
X01279749D01*
X01280415Y00713644D01*
X01273751Y00712978D02*
X01276417D01*
X01273751Y00715644D01*
Y0071631D01*
X01274417Y00716977D01*
X0127575D01*
X01276417Y0071631D01*
X01272418D02*
X01271751Y00716977D01*
X01270418D01*
X01269752Y0071631D01*
Y00715644D01*
X01270418Y00714977D01*
X01271085D01*
X01270418D01*
X01269752Y00714311D01*
Y00713644D01*
X01270418Y00712978D01*
X01271751D01*
X01272418Y00713644D01*
X01510474Y00712978D02*
Y00716977D01*
X01508475D01*
X01507808Y0071631D01*
Y00714977D01*
X01508475Y00714311D01*
X01510474D01*
X01509141D02*
X01507808Y00712978D01*
X01506475Y0071631D02*
X01505809Y00716977D01*
X01504476D01*
X0150381Y0071631D01*
Y00715644D01*
X01504476Y00714977D01*
X01505142D01*
X01504476D01*
X0150381Y00714311D01*
Y00713644D01*
X01504476Y00712978D01*
X01505809D01*
X01506475Y00713644D01*
X01499811Y00712978D02*
X01502477D01*
X01499811Y00715644D01*
Y0071631D01*
X01500477Y00716977D01*
X0150181D01*
X01502477Y0071631D01*
X01498478Y00716977D02*
X01495812D01*
Y0071631D01*
X01498478Y00713644D01*
Y00712978D01*
X01484312D02*
Y00716977D01*
X01482313D01*
X01481646Y0071631D01*
Y00714977D01*
X01482313Y00714311D01*
X01484312D01*
X01482979D02*
X01481646Y00712978D01*
X01480313Y0071631D02*
X01479647Y00716977D01*
X01478314D01*
X01477648Y0071631D01*
Y00715644D01*
X01478314Y00714977D01*
X0147898D01*
X01478314D01*
X01477648Y00714311D01*
Y00713644D01*
X01478314Y00712978D01*
X01479647D01*
X01480313Y00713644D01*
X01476315Y0071631D02*
X01475648Y00716977D01*
X01474315D01*
X01473649Y0071631D01*
Y00715644D01*
X01474315Y00714977D01*
X01474982D01*
X01474315D01*
X01473649Y00714311D01*
Y00713644D01*
X01474315Y00712978D01*
X01475648D01*
X01476315Y00713644D01*
X01472316Y00712978D02*
X01470983D01*
X01471649D01*
Y00716977D01*
X01472316Y0071631D01*
X0145942Y00712978D02*
Y00716977D01*
X01457421D01*
X01456754Y0071631D01*
Y00714977D01*
X01457421Y00714311D01*
X0145942D01*
X01458087D02*
X01456754Y00712978D01*
X01455421Y0071631D02*
X01454755Y00716977D01*
X01453422D01*
X01452755Y0071631D01*
Y00715644D01*
X01453422Y00714977D01*
X01454088D01*
X01453422D01*
X01452755Y00714311D01*
Y00713644D01*
X01453422Y00712978D01*
X01454755D01*
X01455421Y00713644D01*
X01451423Y0071631D02*
X01450756Y00716977D01*
X01449423D01*
X01448757Y0071631D01*
Y00715644D01*
X01449423Y00714977D01*
X0145009D01*
X01449423D01*
X01448757Y00714311D01*
Y00713644D01*
X01449423Y00712978D01*
X01450756D01*
X01451423Y00713644D01*
X01447424Y0071631D02*
X01446758Y00716977D01*
X01445424D01*
X01444758Y0071631D01*
Y00715644D01*
X01445424Y00714977D01*
X01446091D01*
X01445424D01*
X01444758Y00714311D01*
Y00713644D01*
X01445424Y00712978D01*
X01446758D01*
X01447424Y00713644D01*
X01433512Y00712978D02*
Y00716977D01*
X01431513D01*
X01430846Y0071631D01*
Y00714977D01*
X01431513Y00714311D01*
X01433512D01*
X01432179D02*
X01430846Y00712978D01*
X01429513Y0071631D02*
X01428847Y00716977D01*
X01427514D01*
X01426848Y0071631D01*
Y00715644D01*
X01427514Y00714977D01*
X0142818D01*
X01427514D01*
X01426848Y00714311D01*
Y00713644D01*
X01427514Y00712978D01*
X01428847D01*
X01429513Y00713644D01*
X01425515Y0071631D02*
X01424848Y00716977D01*
X01423515D01*
X01422849Y0071631D01*
Y00715644D01*
X01423515Y00714977D01*
X01424182D01*
X01423515D01*
X01422849Y00714311D01*
Y00713644D01*
X01423515Y00712978D01*
X01424848D01*
X01425515Y00713644D01*
X0141885Y00716977D02*
X01421516D01*
Y00714977D01*
X01420183Y00715644D01*
X01419516D01*
X0141885Y00714977D01*
Y00713644D01*
X01419516Y00712978D01*
X01420849D01*
X01421516Y00713644D01*
X01611312Y00712978D02*
Y00716977D01*
X01609313D01*
X01608646Y0071631D01*
Y00714977D01*
X01609313Y00714311D01*
X01611312D01*
X01609979D02*
X01608646Y00712978D01*
X01607313Y0071631D02*
X01606647Y00716977D01*
X01605314D01*
X01604648Y0071631D01*
Y00715644D01*
X01605314Y00714977D01*
X0160598D01*
X01605314D01*
X01604648Y00714311D01*
Y00713644D01*
X01605314Y00712978D01*
X01606647D01*
X01607313Y00713644D01*
X01601315Y00712978D02*
Y00716977D01*
X01603315Y00714977D01*
X01600649D01*
X01599316Y00712978D02*
X01597983D01*
X01598649D01*
Y00716977D01*
X01599316Y0071631D01*
X0158642Y00712978D02*
Y00716977D01*
X01584421D01*
X01583754Y0071631D01*
Y00714977D01*
X01584421Y00714311D01*
X0158642D01*
X01585087D02*
X01583754Y00712978D01*
X01582421Y0071631D02*
X01581755Y00716977D01*
X01580422D01*
X01579756Y0071631D01*
Y00715644D01*
X01580422Y00714977D01*
X01581088D01*
X01580422D01*
X01579756Y00714311D01*
Y00713644D01*
X01580422Y00712978D01*
X01581755D01*
X01582421Y00713644D01*
X01576423Y00712978D02*
Y00716977D01*
X01578423Y00714977D01*
X01575757D01*
X01574424Y0071631D02*
X01573757Y00716977D01*
X01572424D01*
X01571758Y0071631D01*
Y00715644D01*
X01572424Y00714977D01*
X01573091D01*
X01572424D01*
X01571758Y00714311D01*
Y00713644D01*
X01572424Y00712978D01*
X01573757D01*
X01574424Y00713644D01*
X0156102Y00712978D02*
Y00716977D01*
X01559021D01*
X01558354Y0071631D01*
Y00714977D01*
X01559021Y00714311D01*
X0156102D01*
X01559687D02*
X01558354Y00712978D01*
X01557021Y0071631D02*
X01556355Y00716977D01*
X01555022D01*
X01554355Y0071631D01*
Y00715644D01*
X01555022Y00714977D01*
X01555688D01*
X01555022D01*
X01554355Y00714311D01*
Y00713644D01*
X01555022Y00712978D01*
X01556355D01*
X01557021Y00713644D01*
X01551023Y00712978D02*
Y00716977D01*
X01553023Y00714977D01*
X01550357D01*
X01549024Y00716977D02*
X01546358D01*
Y0071631D01*
X01549024Y00713644D01*
Y00712978D01*
X01535366D02*
Y00716977D01*
X01533367D01*
X015327Y0071631D01*
Y00714977D01*
X01533367Y00714311D01*
X01535366D01*
X01534033D02*
X015327Y00712978D01*
X01531367Y0071631D02*
X01530701Y00716977D01*
X01529368D01*
X01528701Y0071631D01*
Y00715644D01*
X01529368Y00714977D01*
X01530034D01*
X01529368D01*
X01528701Y00714311D01*
Y00713644D01*
X01529368Y00712978D01*
X01530701D01*
X01531367Y00713644D01*
X01524703Y00716977D02*
X01527369D01*
Y00714977D01*
X01526036Y00715644D01*
X01525369D01*
X01524703Y00714977D01*
Y00713644D01*
X01525369Y00712978D01*
X01526702D01*
X01527369Y00713644D01*
X0152337Y00712978D02*
X01522037D01*
X01522704D01*
Y00716977D01*
X0152337Y0071631D01*
M02*
