G04 Layer_Color=8388736*
%FSLAX44Y44*%
%MOMM*%
G71*
G01*
G75*
%ADD13R,0.4500X0.6000*%
%ADD18R,0.6000X0.4500*%
%ADD44R,1.9050X0.6096*%
%ADD52C,1.5240*%
%ADD53R,1.5240X1.5240*%
%ADD84C,1.1520*%
%ADD85R,1.1520X1.1020*%
%ADD86R,1.0664X0.8632*%
%ADD87R,1.0520X0.9520*%
%ADD88R,0.8632X1.0664*%
%ADD89O,0.6520X1.5020*%
%ADD90R,0.4220X1.3204*%
%ADD91R,0.6720X0.4320*%
%ADD92R,0.4320X0.6720*%
%ADD93R,1.6520X2.3520*%
%ADD94R,0.8520X0.9520*%
%ADD95R,2.3520X1.6520*%
%ADD96R,1.7520X0.9520*%
%ADD97R,0.6020X1.4520*%
%ADD98R,2.6416X0.7366*%
%ADD99R,4.8006X0.7366*%
%ADD100R,0.5588X1.5494*%
%ADD101R,1.2520X1.1520*%
%ADD102R,1.1520X1.2520*%
%ADD103R,1.0520X0.9520*%
%ADD104R,0.7520X1.2020*%
%ADD105R,1.1020X1.1520*%
%ADD106R,1.7020X1.4520*%
%ADD107O,0.4520X2.2520*%
%ADD108O,2.2520X0.4520*%
%ADD109R,4.4520X4.4520*%
G04:AMPARAMS|DCode=110|XSize=1.352mm|YSize=0.752mm|CornerRadius=0.226mm|HoleSize=0mm|Usage=FLASHONLY|Rotation=0.000|XOffset=0mm|YOffset=0mm|HoleType=Round|Shape=RoundedRectangle|*
%AMROUNDEDRECTD110*
21,1,1.3520,0.3000,0,0,0.0*
21,1,0.9000,0.7520,0,0,0.0*
1,1,0.4520,0.4500,-0.1500*
1,1,0.4520,-0.4500,-0.1500*
1,1,0.4520,-0.4500,0.1500*
1,1,0.4520,0.4500,0.1500*
%
%ADD110ROUNDEDRECTD110*%
%ADD111R,1.2020X0.7520*%
G04:AMPARAMS|DCode=112|XSize=1.352mm|YSize=0.752mm|CornerRadius=0.226mm|HoleSize=0mm|Usage=FLASHONLY|Rotation=270.000|XOffset=0mm|YOffset=0mm|HoleType=Round|Shape=RoundedRectangle|*
%AMROUNDEDRECTD112*
21,1,1.3520,0.3000,0,0,270.0*
21,1,0.9000,0.7520,0,0,270.0*
1,1,0.4520,-0.1500,-0.4500*
1,1,0.4520,-0.1500,0.4500*
1,1,0.4520,0.1500,0.4500*
1,1,0.4520,0.1500,-0.4500*
%
%ADD112ROUNDEDRECTD112*%
%ADD113R,0.5000X1.5490*%
%ADD114R,1.4220X0.4568*%
%ADD115R,4.2620X4.5120*%
%ADD116C,1.7776*%
%ADD117R,1.7776X1.7776*%
%ADD118C,1.6520*%
%ADD119R,1.6760X1.6760*%
%ADD120C,1.6760*%
%ADD121C,1.9520*%
%ADD122R,1.9520X1.9520*%
%ADD123R,1.6760X1.6760*%
%ADD124C,2.2520*%
%ADD125O,1.3020X1.9520*%
%ADD126O,1.5520X2.1520*%
%ADD127C,0.9520*%
%ADD128C,0.1520*%
%ADD129C,1.7520*%
%ADD130C,6.6520*%
%ADD131C,4.6520*%
%ADD132R,1.6520X1.6520*%
G36*
X948273Y570949D02*
X947273D01*
Y568249D01*
X942273D01*
Y570949D01*
X941273D01*
Y571949D01*
X948273D01*
Y570949D01*
D02*
G37*
G36*
X947273Y616549D02*
X948273D01*
Y615549D01*
X941273D01*
Y616549D01*
X942273D01*
Y619249D01*
X947273D01*
Y616549D01*
D02*
G37*
D13*
X468500Y1001430D02*
D03*
Y978570D02*
D03*
D18*
X858570Y1427000D02*
D03*
X881430D02*
D03*
X868430Y1330250D02*
D03*
X845570D02*
D03*
X1029070Y1440500D02*
D03*
X1051930D02*
D03*
X1040930Y1343750D02*
D03*
X1018070D02*
D03*
D44*
X497449Y1071050D02*
D03*
Y1058350D02*
D03*
Y1045650D02*
D03*
Y1032950D02*
D03*
X551551D02*
D03*
Y1045650D02*
D03*
Y1058350D02*
D03*
Y1071050D02*
D03*
D52*
X1676600Y730700D02*
D03*
X1702000D02*
D03*
X1727400D02*
D03*
X1752800D02*
D03*
X1778200D02*
D03*
X1803600D02*
D03*
X1829000D02*
D03*
X1854400D02*
D03*
Y654500D02*
D03*
X1829000D02*
D03*
X1803600D02*
D03*
X1778200D02*
D03*
X1752800D02*
D03*
X1727400D02*
D03*
X1702000D02*
D03*
X1425100Y729600D02*
D03*
X1450500D02*
D03*
X1475900D02*
D03*
X1501300D02*
D03*
X1526700D02*
D03*
X1552100D02*
D03*
X1577500D02*
D03*
X1602900D02*
D03*
Y653400D02*
D03*
X1577500D02*
D03*
X1552100D02*
D03*
X1526700D02*
D03*
X1501300D02*
D03*
X1475900D02*
D03*
X1450500D02*
D03*
X1425101Y618586D02*
D03*
X1450501D02*
D03*
X1475901D02*
D03*
X1501301D02*
D03*
X1526701D02*
D03*
X1552101D02*
D03*
X1577501D02*
D03*
X1602901D02*
D03*
Y542385D02*
D03*
X1577501D02*
D03*
X1552101D02*
D03*
X1526701D02*
D03*
X1501301D02*
D03*
X1475901D02*
D03*
X1450501D02*
D03*
X1676101Y618592D02*
D03*
X1701501D02*
D03*
X1726901D02*
D03*
X1752301D02*
D03*
X1777701D02*
D03*
X1803101D02*
D03*
X1828501D02*
D03*
X1853901D02*
D03*
Y542392D02*
D03*
X1828501D02*
D03*
X1803101D02*
D03*
X1777701D02*
D03*
X1752301D02*
D03*
X1726901D02*
D03*
X1701501D02*
D03*
D53*
X1676600Y654500D02*
D03*
X1425100Y653400D02*
D03*
X1425101Y542385D02*
D03*
X1676101Y542392D02*
D03*
D84*
X734250Y1122000D02*
D03*
X689000Y1497413D02*
D03*
X746000Y1505000D02*
D03*
X811000Y1374000D02*
D03*
X2033343Y579531D02*
D03*
X891031Y1505000D02*
D03*
X982500Y1384500D02*
D03*
X872469Y1134500D02*
D03*
X574749Y1110172D02*
D03*
X567040Y973000D02*
D03*
X573000Y905500D02*
D03*
X584000Y939000D02*
D03*
X607750Y923000D02*
D03*
X1145000Y899000D02*
D03*
X651000Y893250D02*
D03*
X743500Y1284000D02*
D03*
X637750Y1139500D02*
D03*
X685500Y1121000D02*
D03*
X674540Y1331500D02*
D03*
X476500Y936000D02*
D03*
X1032000Y636000D02*
D03*
X983000Y681000D02*
D03*
X845750Y1393750D02*
D03*
X1014500Y1405500D02*
D03*
X854000Y641000D02*
D03*
X871000Y657000D02*
D03*
Y628000D02*
D03*
X829500Y685500D02*
D03*
X896364Y706000D02*
D03*
X646000Y848000D02*
D03*
X789000Y1065000D02*
D03*
X769500D02*
D03*
X711000D02*
D03*
X805000Y756000D02*
D03*
X931500Y788500D02*
D03*
X932000Y807250D02*
D03*
X626500Y1025000D02*
D03*
X750000Y1065000D02*
D03*
X730500D02*
D03*
D85*
X627000Y1044750D02*
D03*
Y1060250D02*
D03*
X771000Y1571750D02*
D03*
Y1556250D02*
D03*
X915000Y1571750D02*
D03*
Y1556250D02*
D03*
X955000Y1247750D02*
D03*
Y1232250D02*
D03*
X696540Y1331750D02*
D03*
Y1347250D02*
D03*
X1011000Y898750D02*
D03*
Y914250D02*
D03*
D86*
X734250Y1166969D02*
D03*
Y1155031D02*
D03*
X791500Y1143531D02*
D03*
Y1155469D02*
D03*
X916250Y818219D02*
D03*
Y806281D02*
D03*
X933750Y838469D02*
D03*
Y826531D02*
D03*
X484000Y1001469D02*
D03*
Y989531D02*
D03*
X695500Y675216D02*
D03*
Y687154D02*
D03*
X698000Y726969D02*
D03*
Y715031D02*
D03*
X616638Y674271D02*
D03*
Y686209D02*
D03*
X618000Y725938D02*
D03*
Y714000D02*
D03*
X537000Y673531D02*
D03*
Y685469D02*
D03*
X539000Y724969D02*
D03*
Y713031D02*
D03*
X645000Y1037469D02*
D03*
Y1025531D02*
D03*
X668000Y832969D02*
D03*
Y821031D02*
D03*
X996500Y899031D02*
D03*
Y910969D02*
D03*
X473500Y1045969D02*
D03*
Y1034031D02*
D03*
X733000Y1519031D02*
D03*
Y1530969D02*
D03*
X2058350Y579469D02*
D03*
Y567531D02*
D03*
X2071350Y579469D02*
D03*
Y567531D02*
D03*
X2007350Y591469D02*
D03*
Y579531D02*
D03*
X703000Y1520031D02*
D03*
Y1531969D02*
D03*
X676000Y1290469D02*
D03*
Y1278531D02*
D03*
X688500Y1290469D02*
D03*
Y1278531D02*
D03*
X1032000Y660969D02*
D03*
Y649031D02*
D03*
X1015920Y647969D02*
D03*
Y636031D02*
D03*
X1002920Y647969D02*
D03*
Y636031D02*
D03*
D87*
X633250Y881250D02*
D03*
Y895750D02*
D03*
X614750D02*
D03*
Y881250D02*
D03*
D88*
X872031Y1215250D02*
D03*
X883969D02*
D03*
X668969Y1014000D02*
D03*
X657031D02*
D03*
X666969Y993000D02*
D03*
X655031D02*
D03*
X711469Y788000D02*
D03*
X699531D02*
D03*
X574531Y1071000D02*
D03*
X586469D02*
D03*
X574531Y1058000D02*
D03*
X586469D02*
D03*
X757938Y1532000D02*
D03*
X746000D02*
D03*
X1979969Y594000D02*
D03*
X1968031D02*
D03*
X869031Y1532000D02*
D03*
X880969D02*
D03*
X902969D02*
D03*
X891031D02*
D03*
X860531Y1154500D02*
D03*
X872469D02*
D03*
X910031Y1206000D02*
D03*
X921969D02*
D03*
X943969D02*
D03*
X932031D02*
D03*
X574781Y1191000D02*
D03*
X586719D02*
D03*
X563031Y1132500D02*
D03*
X574969D02*
D03*
X847031Y1478000D02*
D03*
X858969D02*
D03*
X1016500Y1491500D02*
D03*
X1028438D02*
D03*
X583531Y888000D02*
D03*
X595469D02*
D03*
X720969Y1295000D02*
D03*
X709031D02*
D03*
X1102969Y668000D02*
D03*
X1091031D02*
D03*
D89*
X752750Y1600250D02*
D03*
X746250D02*
D03*
X739750D02*
D03*
X733250D02*
D03*
X752750Y1555750D02*
D03*
X746250D02*
D03*
X739750D02*
D03*
X733250D02*
D03*
X896750Y1600250D02*
D03*
X890250D02*
D03*
X883750D02*
D03*
X877250D02*
D03*
X896750Y1555750D02*
D03*
X890250D02*
D03*
X883750D02*
D03*
X877250D02*
D03*
X938250Y1276719D02*
D03*
X931750D02*
D03*
X925250D02*
D03*
X918750D02*
D03*
X938250Y1232219D02*
D03*
X931750D02*
D03*
X925250D02*
D03*
X918750D02*
D03*
D90*
X683000Y714932D02*
D03*
X678000D02*
D03*
X673000D02*
D03*
X668000D02*
D03*
Y687500D02*
D03*
X673000D02*
D03*
X678000D02*
D03*
X683000D02*
D03*
X604138Y713956D02*
D03*
X599138D02*
D03*
X594138D02*
D03*
X589138D02*
D03*
Y686524D02*
D03*
X594138D02*
D03*
X599138D02*
D03*
X604138D02*
D03*
X524500Y713216D02*
D03*
X519500D02*
D03*
X514500D02*
D03*
X509500D02*
D03*
Y685784D02*
D03*
X514500D02*
D03*
X519500D02*
D03*
X524500D02*
D03*
D91*
X472000Y1668250D02*
D03*
Y1661750D02*
D03*
D92*
X451500Y1665500D02*
D03*
X458000D02*
D03*
X445250Y1676500D02*
D03*
X438750D02*
D03*
D93*
X2090000Y421000D02*
D03*
X2059000D02*
D03*
X2248500Y422000D02*
D03*
X2217500D02*
D03*
X458500Y423000D02*
D03*
X489500D02*
D03*
X618500D02*
D03*
X649500D02*
D03*
X778500D02*
D03*
X809500D02*
D03*
X969500D02*
D03*
X938500D02*
D03*
X1129500D02*
D03*
X1098500D02*
D03*
X1289500D02*
D03*
X1258500D02*
D03*
X1449249Y421999D02*
D03*
X1418249D02*
D03*
X1609500Y422000D02*
D03*
X1578500D02*
D03*
X1769000Y421000D02*
D03*
X1738000D02*
D03*
X1930000D02*
D03*
X1899000D02*
D03*
D94*
X1063495Y798000D02*
D03*
X1078495D02*
D03*
D95*
X644001Y533500D02*
D03*
Y564500D02*
D03*
X679001Y533500D02*
D03*
Y564500D02*
D03*
X713001Y533500D02*
D03*
Y564500D02*
D03*
X747001Y532500D02*
D03*
Y563500D02*
D03*
X781001Y532500D02*
D03*
Y563500D02*
D03*
X426000Y640000D02*
D03*
Y609000D02*
D03*
X814000Y532500D02*
D03*
Y563500D02*
D03*
D96*
X2351000Y1337500D02*
D03*
X2319000D02*
D03*
X2351000Y1323500D02*
D03*
X2319000D02*
D03*
X1247781Y1337500D02*
D03*
X1215781D02*
D03*
X1247781Y1323500D02*
D03*
X1215781D02*
D03*
D97*
X438500Y1691500D02*
D03*
X432000D02*
D03*
X458000D02*
D03*
X445000D02*
D03*
X451500D02*
D03*
D98*
X1392545Y863500D02*
D03*
X1561455D02*
D03*
X1392545Y1644780D02*
D03*
X1561455D02*
D03*
X1991545D02*
D03*
X2160455D02*
D03*
X1991545Y863500D02*
D03*
X2160455D02*
D03*
D99*
X1445250D02*
D03*
X1508750D02*
D03*
X1445250Y1644780D02*
D03*
X1508750D02*
D03*
X2044250D02*
D03*
X2107750D02*
D03*
X2044250Y863500D02*
D03*
X2107750D02*
D03*
D100*
X1400990Y894361D02*
D03*
Y832639D02*
D03*
X1408992Y894361D02*
D03*
Y832639D02*
D03*
X1416992Y894361D02*
D03*
Y832639D02*
D03*
X1424993Y894361D02*
D03*
Y832639D02*
D03*
X1432995Y894361D02*
D03*
Y832639D02*
D03*
X1440995Y894361D02*
D03*
Y832639D02*
D03*
X1448996Y894361D02*
D03*
Y832639D02*
D03*
X1456998Y894361D02*
D03*
Y832639D02*
D03*
X1464998Y894361D02*
D03*
Y832639D02*
D03*
X1473000Y894361D02*
D03*
Y832639D02*
D03*
X1481001Y894361D02*
D03*
Y832639D02*
D03*
X1489001Y894361D02*
D03*
Y832639D02*
D03*
X1497003Y894361D02*
D03*
Y832639D02*
D03*
X1505004Y894361D02*
D03*
Y832639D02*
D03*
X1513004Y894361D02*
D03*
Y832639D02*
D03*
X1521006Y894361D02*
D03*
Y832639D02*
D03*
X1529007Y894361D02*
D03*
Y832639D02*
D03*
X1537007Y894361D02*
D03*
Y832639D02*
D03*
X1545009Y894361D02*
D03*
Y832639D02*
D03*
X1553009Y894361D02*
D03*
Y832639D02*
D03*
X1400990Y1675641D02*
D03*
Y1613919D02*
D03*
X1408992Y1675641D02*
D03*
Y1613919D02*
D03*
X1416992Y1675641D02*
D03*
Y1613919D02*
D03*
X1424993Y1675641D02*
D03*
Y1613919D02*
D03*
X1432995Y1675641D02*
D03*
Y1613919D02*
D03*
X1440995Y1675641D02*
D03*
Y1613919D02*
D03*
X1448996Y1675641D02*
D03*
Y1613919D02*
D03*
X1456998Y1675641D02*
D03*
Y1613919D02*
D03*
X1464998Y1675641D02*
D03*
Y1613919D02*
D03*
X1473000Y1675641D02*
D03*
Y1613919D02*
D03*
X1481001Y1675641D02*
D03*
Y1613919D02*
D03*
X1489001Y1675641D02*
D03*
Y1613919D02*
D03*
X1497003Y1675641D02*
D03*
Y1613919D02*
D03*
X1505004Y1675641D02*
D03*
Y1613919D02*
D03*
X1513004Y1675641D02*
D03*
Y1613919D02*
D03*
X1521006Y1675641D02*
D03*
Y1613919D02*
D03*
X1529007Y1675641D02*
D03*
Y1613919D02*
D03*
X1537007Y1675641D02*
D03*
Y1613919D02*
D03*
X1545009Y1675641D02*
D03*
Y1613919D02*
D03*
X1553009Y1675641D02*
D03*
Y1613919D02*
D03*
X1999991Y1675641D02*
D03*
Y1613919D02*
D03*
X2007991Y1675641D02*
D03*
Y1613919D02*
D03*
X2015992Y1675641D02*
D03*
Y1613919D02*
D03*
X2023994Y1675641D02*
D03*
Y1613919D02*
D03*
X2031994Y1675641D02*
D03*
Y1613919D02*
D03*
X2039996Y1675641D02*
D03*
Y1613919D02*
D03*
X2047997Y1675641D02*
D03*
Y1613919D02*
D03*
X2055997Y1675641D02*
D03*
Y1613919D02*
D03*
X2063999Y1675641D02*
D03*
Y1613919D02*
D03*
X2072000Y1675641D02*
D03*
Y1613919D02*
D03*
X2080000Y1675641D02*
D03*
Y1613919D02*
D03*
X2088002Y1675641D02*
D03*
Y1613919D02*
D03*
X2096003Y1675641D02*
D03*
Y1613919D02*
D03*
X2104003Y1675641D02*
D03*
Y1613919D02*
D03*
X2112005Y1675641D02*
D03*
Y1613919D02*
D03*
X2120005Y1675641D02*
D03*
Y1613919D02*
D03*
X2128006Y1675641D02*
D03*
Y1613919D02*
D03*
X2136008Y1675641D02*
D03*
Y1613919D02*
D03*
X2144008Y1675641D02*
D03*
Y1613919D02*
D03*
X2152009Y1675641D02*
D03*
Y1613919D02*
D03*
X1999991Y894361D02*
D03*
Y832639D02*
D03*
X2007991Y894361D02*
D03*
Y832639D02*
D03*
X2015992Y894361D02*
D03*
Y832639D02*
D03*
X2023994Y894361D02*
D03*
Y832639D02*
D03*
X2031994Y894361D02*
D03*
Y832639D02*
D03*
X2039996Y894361D02*
D03*
Y832639D02*
D03*
X2047997Y894361D02*
D03*
Y832639D02*
D03*
X2055997Y894361D02*
D03*
Y832639D02*
D03*
X2063999Y894361D02*
D03*
Y832639D02*
D03*
X2072000Y894361D02*
D03*
Y832639D02*
D03*
X2080000Y894361D02*
D03*
Y832639D02*
D03*
X2088002Y894361D02*
D03*
Y832639D02*
D03*
X2096003Y894361D02*
D03*
Y832639D02*
D03*
X2104003Y894361D02*
D03*
Y832639D02*
D03*
X2112005Y894361D02*
D03*
Y832639D02*
D03*
X2120005Y894361D02*
D03*
Y832639D02*
D03*
X2128006Y894361D02*
D03*
Y832639D02*
D03*
X2136008Y894361D02*
D03*
Y832639D02*
D03*
X2144008Y894361D02*
D03*
Y832639D02*
D03*
X2152009Y894361D02*
D03*
Y832639D02*
D03*
D101*
X662000Y1054000D02*
D03*
X645000D02*
D03*
D102*
X689000Y1548500D02*
D03*
Y1531500D02*
D03*
D103*
X825000Y1453000D02*
D03*
X845000Y1462500D02*
D03*
Y1443500D02*
D03*
X994500Y1466500D02*
D03*
X1014500Y1476000D02*
D03*
Y1457000D02*
D03*
D104*
X806500Y1357750D02*
D03*
X816000D02*
D03*
X825500D02*
D03*
Y1330250D02*
D03*
X816000D02*
D03*
X806500D02*
D03*
X872000Y1408750D02*
D03*
X881500D02*
D03*
X862500D02*
D03*
Y1381250D02*
D03*
X881500D02*
D03*
X872000D02*
D03*
X987500Y1343750D02*
D03*
X978000D02*
D03*
X997000D02*
D03*
Y1371250D02*
D03*
X978000D02*
D03*
X987500D02*
D03*
X1042500Y1422250D02*
D03*
X1052000D02*
D03*
X1033000D02*
D03*
Y1394750D02*
D03*
X1052000D02*
D03*
X1042500D02*
D03*
D105*
X874750Y1463000D02*
D03*
X859250D02*
D03*
X874750Y1443000D02*
D03*
X859250D02*
D03*
X860750Y1347000D02*
D03*
X845250D02*
D03*
X830250Y1409000D02*
D03*
X845750D02*
D03*
X2053600Y599500D02*
D03*
X2069100D02*
D03*
X1044250Y1476500D02*
D03*
X1028750D02*
D03*
X2085600Y616500D02*
D03*
X2101100D02*
D03*
X1044250Y1456500D02*
D03*
X1028750D02*
D03*
X1033250Y1360500D02*
D03*
X1017750D02*
D03*
X998750Y1422500D02*
D03*
X1014250D02*
D03*
X712290Y1315500D02*
D03*
X696790D02*
D03*
X983000Y661250D02*
D03*
X967500D02*
D03*
X566790Y955000D02*
D03*
X551290D02*
D03*
X566790Y923000D02*
D03*
X551290D02*
D03*
X566790Y939000D02*
D03*
X551290D02*
D03*
D106*
X1109750Y854000D02*
D03*
Y899000D02*
D03*
X1030250Y854000D02*
D03*
Y899000D02*
D03*
D107*
X711500Y1022000D02*
D03*
X716500D02*
D03*
X721500D02*
D03*
X726500D02*
D03*
X731500D02*
D03*
X736500D02*
D03*
X741500D02*
D03*
X746500D02*
D03*
X751500D02*
D03*
X756500D02*
D03*
X761500D02*
D03*
X766500D02*
D03*
X771500D02*
D03*
X776500D02*
D03*
X781500D02*
D03*
X786500D02*
D03*
X791500D02*
D03*
X796500D02*
D03*
X801500D02*
D03*
X806500D02*
D03*
X811500D02*
D03*
X816500D02*
D03*
X821500D02*
D03*
X826500D02*
D03*
X831500D02*
D03*
X836500D02*
D03*
X841500D02*
D03*
X846500D02*
D03*
X851500D02*
D03*
X856500D02*
D03*
X861500D02*
D03*
X866500D02*
D03*
X871500D02*
D03*
X876500D02*
D03*
X881500D02*
D03*
X886500D02*
D03*
Y810000D02*
D03*
X881500D02*
D03*
X876500D02*
D03*
X871500D02*
D03*
X866500D02*
D03*
X861500D02*
D03*
X856500D02*
D03*
X851500D02*
D03*
X846500D02*
D03*
X841500D02*
D03*
X836500D02*
D03*
X831500D02*
D03*
X826500D02*
D03*
X821500D02*
D03*
X816500D02*
D03*
X811500D02*
D03*
X806500D02*
D03*
X801500D02*
D03*
X796500D02*
D03*
X791500D02*
D03*
X786500D02*
D03*
X781500D02*
D03*
X776500D02*
D03*
X771500D02*
D03*
X766500D02*
D03*
X761500D02*
D03*
X756500D02*
D03*
X751500D02*
D03*
X746500D02*
D03*
X741500D02*
D03*
X736500D02*
D03*
X731500D02*
D03*
X726500D02*
D03*
X721500D02*
D03*
X716500D02*
D03*
X711500D02*
D03*
D108*
X905000Y1003500D02*
D03*
Y998500D02*
D03*
Y993500D02*
D03*
Y988500D02*
D03*
Y983500D02*
D03*
Y978500D02*
D03*
Y973500D02*
D03*
Y968500D02*
D03*
Y963500D02*
D03*
Y958500D02*
D03*
Y953500D02*
D03*
Y948500D02*
D03*
Y943500D02*
D03*
Y938500D02*
D03*
Y933500D02*
D03*
Y928500D02*
D03*
Y923500D02*
D03*
Y918500D02*
D03*
Y913500D02*
D03*
Y908500D02*
D03*
Y903500D02*
D03*
Y898500D02*
D03*
Y893500D02*
D03*
Y888500D02*
D03*
Y883500D02*
D03*
Y878500D02*
D03*
Y873500D02*
D03*
Y868500D02*
D03*
Y863500D02*
D03*
Y858500D02*
D03*
Y853500D02*
D03*
Y848500D02*
D03*
Y843500D02*
D03*
Y838500D02*
D03*
Y833500D02*
D03*
Y828500D02*
D03*
X693000D02*
D03*
Y833500D02*
D03*
Y838500D02*
D03*
Y843500D02*
D03*
Y848500D02*
D03*
Y853500D02*
D03*
Y858500D02*
D03*
Y863500D02*
D03*
Y868500D02*
D03*
Y873500D02*
D03*
Y878500D02*
D03*
Y883500D02*
D03*
Y888500D02*
D03*
Y893500D02*
D03*
Y898500D02*
D03*
Y903500D02*
D03*
Y908500D02*
D03*
Y913500D02*
D03*
Y918500D02*
D03*
Y923500D02*
D03*
Y928500D02*
D03*
Y933500D02*
D03*
Y938500D02*
D03*
Y943500D02*
D03*
Y948500D02*
D03*
Y953500D02*
D03*
Y958500D02*
D03*
Y963500D02*
D03*
Y968500D02*
D03*
Y973500D02*
D03*
Y978500D02*
D03*
Y983500D02*
D03*
Y988500D02*
D03*
Y993500D02*
D03*
Y998500D02*
D03*
Y1003500D02*
D03*
D109*
X799000Y916000D02*
D03*
D110*
X1991850Y579000D02*
D03*
Y560000D02*
D03*
X1968850D02*
D03*
Y569500D02*
D03*
Y579000D02*
D03*
X750750Y1155500D02*
D03*
Y1174500D02*
D03*
X773750D02*
D03*
Y1165000D02*
D03*
Y1155500D02*
D03*
X1048500Y649000D02*
D03*
Y668000D02*
D03*
X1071500D02*
D03*
Y658500D02*
D03*
Y649000D02*
D03*
D111*
X2113100Y589500D02*
D03*
Y580000D02*
D03*
Y599000D02*
D03*
X2085600D02*
D03*
Y580000D02*
D03*
Y589500D02*
D03*
D112*
X872000Y1174162D02*
D03*
X853000D02*
D03*
Y1197162D02*
D03*
X862500D02*
D03*
X872000D02*
D03*
X574749Y1150162D02*
D03*
X555749D02*
D03*
Y1173162D02*
D03*
X565249D02*
D03*
X574749D02*
D03*
D113*
X722250Y1188310D02*
D03*
X715750D02*
D03*
X709250D02*
D03*
X702750D02*
D03*
X696250D02*
D03*
X689750D02*
D03*
X683250D02*
D03*
X676750D02*
D03*
X670250D02*
D03*
X663750D02*
D03*
X657250D02*
D03*
X650750D02*
D03*
X644250D02*
D03*
X637750D02*
D03*
X722250Y1261430D02*
D03*
X715750D02*
D03*
X709250D02*
D03*
X702750D02*
D03*
X696250D02*
D03*
X683250D02*
D03*
X689750D02*
D03*
X676750D02*
D03*
X670250D02*
D03*
X663750D02*
D03*
X657250D02*
D03*
X650750D02*
D03*
X644250D02*
D03*
X637750D02*
D03*
D114*
X906546Y642500D02*
D03*
Y636000D02*
D03*
Y629500D02*
D03*
Y623000D02*
D03*
Y616500D02*
D03*
Y610000D02*
D03*
Y603500D02*
D03*
Y596999D02*
D03*
Y590499D02*
D03*
Y583999D02*
D03*
Y577499D02*
D03*
Y570999D02*
D03*
Y564499D02*
D03*
Y557999D02*
D03*
Y551499D02*
D03*
Y544999D02*
D03*
X983000D02*
D03*
Y551499D02*
D03*
Y557999D02*
D03*
Y564499D02*
D03*
Y570999D02*
D03*
Y577499D02*
D03*
Y583999D02*
D03*
Y590499D02*
D03*
Y596999D02*
D03*
Y603500D02*
D03*
Y610000D02*
D03*
Y616500D02*
D03*
Y623000D02*
D03*
Y629500D02*
D03*
Y636000D02*
D03*
Y642500D02*
D03*
D115*
X944773Y593749D02*
D03*
D116*
X634000Y1575000D02*
D03*
Y1549600D02*
D03*
D117*
Y1524200D02*
D03*
D118*
X712000Y1439500D02*
D03*
X618000Y1103500D02*
D03*
X517000Y578500D02*
D03*
X816250Y1117000D02*
D03*
X932000Y1182000D02*
D03*
X2314000Y624500D02*
D03*
X1354000Y381000D02*
D03*
X374000Y625000D02*
D03*
X1434000Y381000D02*
D03*
X1594000D02*
D03*
X1754000D02*
D03*
X1114000D02*
D03*
X1274000D02*
D03*
X1915000D02*
D03*
X2075000D02*
D03*
X794000D02*
D03*
X954000D02*
D03*
X2233000D02*
D03*
X474000D02*
D03*
X634000Y382003D02*
D03*
X2113100Y724000D02*
D03*
X444800Y975800D02*
D03*
D119*
X723000Y661100D02*
D03*
X642638Y660840D02*
D03*
X563000Y660700D02*
D03*
X845000Y1585400D02*
D03*
X990000Y1586800D02*
D03*
D120*
X723000Y686500D02*
D03*
Y711900D02*
D03*
X642638Y686240D02*
D03*
Y711640D02*
D03*
X563000Y686100D02*
D03*
Y711500D02*
D03*
X845000Y1534600D02*
D03*
Y1560000D02*
D03*
X559400Y1689000D02*
D03*
X534000D02*
D03*
X990000Y1536000D02*
D03*
Y1561400D02*
D03*
X343200Y975800D02*
D03*
Y1001200D02*
D03*
X368600Y975800D02*
D03*
Y1001200D02*
D03*
X394000Y975800D02*
D03*
Y1001200D02*
D03*
X419400Y975800D02*
D03*
Y1001200D02*
D03*
D121*
X795000Y1712500D02*
D03*
X650000D02*
D03*
X940000D02*
D03*
D122*
X845000D02*
D03*
X700000D02*
D03*
X990000D02*
D03*
D123*
X584800Y1689000D02*
D03*
D124*
X2401000Y624500D02*
D03*
X2375600Y649900D02*
D03*
X2426400D02*
D03*
Y599100D02*
D03*
X2375600D02*
D03*
X307000Y624500D02*
D03*
X332400Y599100D02*
D03*
X281600D02*
D03*
Y649900D02*
D03*
X332400D02*
D03*
X1114000Y307000D02*
D03*
X1139400Y332400D02*
D03*
Y281600D02*
D03*
X1088600D02*
D03*
Y332400D02*
D03*
X1274000Y307000D02*
D03*
X1299400Y332400D02*
D03*
Y281600D02*
D03*
X1248600D02*
D03*
Y332400D02*
D03*
X819400D02*
D03*
X794000Y307000D02*
D03*
X819400Y281600D02*
D03*
X768600Y332400D02*
D03*
Y281600D02*
D03*
X979400Y332400D02*
D03*
X954000Y307000D02*
D03*
X979400Y281600D02*
D03*
X928600Y332400D02*
D03*
Y281600D02*
D03*
X474000Y307000D02*
D03*
X499400Y332400D02*
D03*
Y281600D02*
D03*
X448600D02*
D03*
Y332400D02*
D03*
X634000Y307000D02*
D03*
X659400Y332400D02*
D03*
Y281600D02*
D03*
X608600D02*
D03*
Y332400D02*
D03*
X1434000Y307000D02*
D03*
X1459400Y332400D02*
D03*
Y281600D02*
D03*
X1408600D02*
D03*
Y332400D02*
D03*
X1594000Y307000D02*
D03*
X1619400Y332400D02*
D03*
Y281600D02*
D03*
X1568600D02*
D03*
Y332400D02*
D03*
X1754000Y307000D02*
D03*
X1779400Y332400D02*
D03*
Y281600D02*
D03*
X1728600D02*
D03*
Y332400D02*
D03*
X1914000Y307000D02*
D03*
X1939400Y332400D02*
D03*
Y281600D02*
D03*
X1888600D02*
D03*
Y332400D02*
D03*
X2074000Y307000D02*
D03*
X2099400Y332400D02*
D03*
Y281600D02*
D03*
X2048600D02*
D03*
Y332400D02*
D03*
X2234000Y307000D02*
D03*
X2259400Y332400D02*
D03*
Y281600D02*
D03*
X2208600D02*
D03*
Y332400D02*
D03*
X2401000Y874100D02*
D03*
X2375600Y899500D02*
D03*
X2426400D02*
D03*
Y848700D02*
D03*
X2375600D02*
D03*
X307000Y874100D02*
D03*
X332400Y848700D02*
D03*
X281600D02*
D03*
Y899500D02*
D03*
X332400D02*
D03*
D125*
X483750Y1729500D02*
D03*
X406250D02*
D03*
D126*
X482250Y1691500D02*
D03*
X407750D02*
D03*
D127*
X470000Y1702500D02*
D03*
X420000D02*
D03*
D128*
X1384608Y843180D02*
D03*
X1569393D02*
D03*
X1384608Y1624460D02*
D03*
X1569393D02*
D03*
X1983607D02*
D03*
X2168392D02*
D03*
X1983607Y843180D02*
D03*
X2168392D02*
D03*
D129*
X805000Y1556400D02*
D03*
Y1531000D02*
D03*
Y1505600D02*
D03*
X950000Y1556400D02*
D03*
Y1531000D02*
D03*
Y1505600D02*
D03*
X2061950Y668400D02*
D03*
X2087350D02*
D03*
X2112750D02*
D03*
X990000Y1232800D02*
D03*
Y1207400D02*
D03*
Y1182000D02*
D03*
D130*
X1104000Y1629000D02*
D03*
Y1129000D02*
D03*
X354000Y1629000D02*
D03*
X2354000Y379000D02*
D03*
X354000D02*
D03*
X2354000Y1629000D02*
D03*
X354000Y1129000D02*
D03*
X2354000D02*
D03*
D131*
X2076000Y1504000D02*
D03*
X1826000D02*
D03*
X2326000D02*
D03*
Y1254000D02*
D03*
X1826000D02*
D03*
Y1004000D02*
D03*
X2076000D02*
D03*
X2326000D02*
D03*
D132*
X444800Y1001200D02*
D03*
M02*
