G04 Layer_Color=8388736*
%FSTAX44Y44*%
%MOMM*%
G71*
G01*
G75*
%ADD32R,0.6000X0.4500*%
%ADD34R,0.4500X0.6000*%
%ADD42R,1.9050X0.6096*%
%ADD55C,1.5240*%
%ADD56R,1.5240X1.5240*%
%ADD90O,0.4520X2.2520*%
%ADD91O,2.2520X0.4520*%
%ADD92R,4.4520X4.4520*%
%ADD93R,0.6020X1.4520*%
%ADD94R,1.2860X6.9460*%
%ADD95R,1.2000X2.4000*%
%ADD96R,6.9460X1.2860*%
%ADD97R,2.4000X1.2000*%
%ADD98R,2.3520X1.6520*%
%ADD99R,1.6520X2.3520*%
%ADD100R,1.6520X1.1520*%
%ADD101R,1.1520X1.6520*%
%ADD102R,1.0664X0.8632*%
%ADD103R,0.7520X1.2020*%
%ADD104C,1.1520*%
%ADD105R,0.7520X2.2520*%
%ADD106R,3.3520X2.2520*%
%ADD107R,1.0520X1.6520*%
%ADD108R,1.2020X0.7520*%
%ADD109R,1.7020X1.4520*%
%ADD110R,1.1520X1.2520*%
%ADD111R,1.2520X1.1520*%
%ADD112R,1.0520X0.9520*%
%ADD113R,0.8632X1.0664*%
%ADD114R,0.6720X0.4320*%
%ADD115R,0.4320X0.6720*%
%ADD116C,0.5000*%
%ADD117R,1.0520X0.9520*%
%ADD118R,1.1520X1.1020*%
%ADD119R,1.1020X1.1520*%
G04:AMPARAMS|DCode=120|XSize=1.352mm|YSize=0.752mm|CornerRadius=0.226mm|HoleSize=0mm|Usage=FLASHONLY|Rotation=0.000|XOffset=0mm|YOffset=0mm|HoleType=Round|Shape=RoundedRectangle|*
%AMROUNDEDRECTD120*
21,1,1.3520,0.3000,0,0,0.0*
21,1,0.9000,0.7520,0,0,0.0*
1,1,0.4520,0.4500,-0.1500*
1,1,0.4520,-0.4500,-0.1500*
1,1,0.4520,-0.4500,0.1500*
1,1,0.4520,0.4500,0.1500*
%
%ADD120ROUNDEDRECTD120*%
G04:AMPARAMS|DCode=121|XSize=1.352mm|YSize=0.752mm|CornerRadius=0.226mm|HoleSize=0mm|Usage=FLASHONLY|Rotation=270.000|XOffset=0mm|YOffset=0mm|HoleType=Round|Shape=RoundedRectangle|*
%AMROUNDEDRECTD121*
21,1,1.3520,0.3000,0,0,270.0*
21,1,0.9000,0.7520,0,0,270.0*
1,1,0.4520,-0.1500,-0.4500*
1,1,0.4520,-0.1500,0.4500*
1,1,0.4520,0.1500,0.4500*
1,1,0.4520,0.1500,-0.4500*
%
%ADD121ROUNDEDRECTD121*%
%ADD122R,0.5000X1.5490*%
%ADD123R,4.2620X4.5120*%
%ADD124R,1.4220X0.4568*%
%ADD125C,1.7520*%
%ADD126O,1.6020X2.1520*%
%ADD127O,1.3020X1.9520*%
%ADD128C,0.9520*%
%ADD129C,1.6520*%
%ADD130C,1.6760*%
%ADD131R,1.6520X1.6520*%
%ADD132R,1.6760X1.6760*%
%ADD133R,30.1520X30.1520*%
%ADD134C,4.6520*%
%ADD135C,6.6520*%
%ADD136R,1.6760X1.6760*%
%ADD137R,1.8320X1.8320*%
%ADD138C,1.8320*%
%ADD139R,1.9520X1.9520*%
%ADD140C,1.9520*%
%ADD141R,1.7776X1.7776*%
%ADD142C,1.7776*%
G36*
X00948273Y00620949D02*
X00947273D01*
Y00618249D01*
X00942273D01*
Y00620949D01*
X00941273D01*
Y00621949D01*
X00948273D01*
Y00620949D01*
D02*
G37*
G36*
X00947273Y00666549D02*
X00948273D01*
Y00665549D01*
X00941273D01*
Y00666549D01*
X00942273D01*
Y00669249D01*
X00947273D01*
Y00666549D01*
D02*
G37*
D32*
X0101807Y0134375D02*
D03*
X0104093D02*
D03*
X0105193Y014405D02*
D03*
X0102907D02*
D03*
X0083557Y0133025D02*
D03*
X0085843D02*
D03*
X0087143Y01427D02*
D03*
X0084857D02*
D03*
D34*
X004685Y0097857D02*
D03*
Y0100143D02*
D03*
D42*
X00497449Y0107105D02*
D03*
Y0105835D02*
D03*
Y0104565D02*
D03*
Y0103295D02*
D03*
X00551551D02*
D03*
Y0104565D02*
D03*
Y0105835D02*
D03*
Y0107105D02*
D03*
D55*
X014266Y007307D02*
D03*
X01452D02*
D03*
X014774D02*
D03*
X015028D02*
D03*
X015282D02*
D03*
X015536D02*
D03*
X01579D02*
D03*
X016044D02*
D03*
Y006545D02*
D03*
X01579D02*
D03*
X015536D02*
D03*
X015282D02*
D03*
X015028D02*
D03*
X014774D02*
D03*
X01452D02*
D03*
X01426101Y00618592D02*
D03*
X01451501D02*
D03*
X01476901D02*
D03*
X01502301D02*
D03*
X01527701D02*
D03*
X01553101D02*
D03*
X01578501D02*
D03*
X01603901D02*
D03*
Y00542392D02*
D03*
X01578501D02*
D03*
X01553101D02*
D03*
X01527701D02*
D03*
X01502301D02*
D03*
X01476901D02*
D03*
X01451501D02*
D03*
X011751Y007296D02*
D03*
X012005D02*
D03*
X012259D02*
D03*
X012513D02*
D03*
X012767D02*
D03*
X013021D02*
D03*
X013275D02*
D03*
X013529D02*
D03*
Y006534D02*
D03*
X013275D02*
D03*
X013021D02*
D03*
X012767D02*
D03*
X012513D02*
D03*
X012259D02*
D03*
X012005D02*
D03*
X01175101Y00618586D02*
D03*
X01200501D02*
D03*
X01225901D02*
D03*
X01251301D02*
D03*
X01276701D02*
D03*
X01302101D02*
D03*
X01327501D02*
D03*
X01352901D02*
D03*
Y00542385D02*
D03*
X01327501D02*
D03*
X01302101D02*
D03*
X01276701D02*
D03*
X01251301D02*
D03*
X01225901D02*
D03*
X01200501D02*
D03*
D56*
X014266Y006545D02*
D03*
X01426101Y00542392D02*
D03*
X011751Y006534D02*
D03*
X01175101Y00542385D02*
D03*
D90*
X007115Y01022D02*
D03*
X007165D02*
D03*
X007215D02*
D03*
X007265D02*
D03*
X007315D02*
D03*
X007365D02*
D03*
X007415D02*
D03*
X007465D02*
D03*
X007515D02*
D03*
X007565D02*
D03*
X007615D02*
D03*
X007665D02*
D03*
X007715D02*
D03*
X007765D02*
D03*
X007815D02*
D03*
X007865D02*
D03*
X007915D02*
D03*
X007965D02*
D03*
X008015D02*
D03*
X008065D02*
D03*
X008115D02*
D03*
X008165D02*
D03*
X008215D02*
D03*
X008265D02*
D03*
X008315D02*
D03*
X008365D02*
D03*
X008415D02*
D03*
X008465D02*
D03*
X008515D02*
D03*
X008565D02*
D03*
X008615D02*
D03*
X008665D02*
D03*
X008715D02*
D03*
X008765D02*
D03*
X008815D02*
D03*
X008865D02*
D03*
Y0081D02*
D03*
X008815D02*
D03*
X008765D02*
D03*
X008715D02*
D03*
X008665D02*
D03*
X008615D02*
D03*
X008565D02*
D03*
X008515D02*
D03*
X008465D02*
D03*
X008415D02*
D03*
X008365D02*
D03*
X008315D02*
D03*
X008265D02*
D03*
X008215D02*
D03*
X008165D02*
D03*
X008115D02*
D03*
X008065D02*
D03*
X008015D02*
D03*
X007965D02*
D03*
X007915D02*
D03*
X007865D02*
D03*
X007815D02*
D03*
X007765D02*
D03*
X007715D02*
D03*
X007665D02*
D03*
X007615D02*
D03*
X007565D02*
D03*
X007515D02*
D03*
X007465D02*
D03*
X007415D02*
D03*
X007365D02*
D03*
X007315D02*
D03*
X007265D02*
D03*
X007215D02*
D03*
X007165D02*
D03*
X007115D02*
D03*
D91*
X00905Y010035D02*
D03*
Y009985D02*
D03*
Y009935D02*
D03*
Y009885D02*
D03*
Y009835D02*
D03*
Y009785D02*
D03*
Y009735D02*
D03*
Y009685D02*
D03*
Y009635D02*
D03*
Y009585D02*
D03*
Y009535D02*
D03*
Y009485D02*
D03*
Y009435D02*
D03*
Y009385D02*
D03*
Y009335D02*
D03*
Y009285D02*
D03*
Y009235D02*
D03*
Y009185D02*
D03*
Y009135D02*
D03*
Y009085D02*
D03*
Y009035D02*
D03*
Y008985D02*
D03*
Y008935D02*
D03*
Y008885D02*
D03*
Y008835D02*
D03*
Y008785D02*
D03*
Y008735D02*
D03*
Y008685D02*
D03*
Y008635D02*
D03*
Y008585D02*
D03*
Y008535D02*
D03*
Y008485D02*
D03*
Y008435D02*
D03*
Y008385D02*
D03*
Y008335D02*
D03*
Y008285D02*
D03*
X00693D02*
D03*
Y008335D02*
D03*
Y008385D02*
D03*
Y008435D02*
D03*
Y008485D02*
D03*
Y008535D02*
D03*
Y008585D02*
D03*
Y008635D02*
D03*
Y008685D02*
D03*
Y008735D02*
D03*
Y008785D02*
D03*
Y008835D02*
D03*
Y008885D02*
D03*
Y008935D02*
D03*
Y008985D02*
D03*
Y009035D02*
D03*
Y009085D02*
D03*
Y009135D02*
D03*
Y009185D02*
D03*
Y009235D02*
D03*
Y009285D02*
D03*
Y009335D02*
D03*
Y009385D02*
D03*
Y009435D02*
D03*
Y009485D02*
D03*
Y009535D02*
D03*
Y009585D02*
D03*
Y009635D02*
D03*
Y009685D02*
D03*
Y009735D02*
D03*
Y009785D02*
D03*
Y009835D02*
D03*
Y009885D02*
D03*
Y009935D02*
D03*
Y009985D02*
D03*
Y010035D02*
D03*
D92*
X00799Y00916D02*
D03*
D93*
X00458Y016915D02*
D03*
X00432D02*
D03*
X004515D02*
D03*
X00445D02*
D03*
X004385D02*
D03*
D94*
X0067807Y0029083D02*
D03*
X0058993Y00290831D02*
D03*
X0051807Y0029083D02*
D03*
X0042993Y00290831D02*
D03*
X0099807Y0029083D02*
D03*
X0090993Y00290831D02*
D03*
X0083807Y0029083D02*
D03*
X0074993Y00290831D02*
D03*
X0202807Y0029083D02*
D03*
X0193993Y00290831D02*
D03*
X0186807Y0029083D02*
D03*
X0177993Y00290831D02*
D03*
X0170807Y0029083D02*
D03*
X0161993Y00290831D02*
D03*
X0154807Y0029083D02*
D03*
X0145993Y00290831D02*
D03*
X0138807Y0029083D02*
D03*
X0129993Y00290831D02*
D03*
X0122807Y0029083D02*
D03*
X0113993Y00290831D02*
D03*
D95*
X00634Y0033811D02*
D03*
X00474D02*
D03*
X00954D02*
D03*
X00794D02*
D03*
X01984D02*
D03*
X01824D02*
D03*
X01664D02*
D03*
X01504D02*
D03*
X01344D02*
D03*
X01184D02*
D03*
D96*
X0029083Y0058043D02*
D03*
X00290831Y0066857D02*
D03*
X0216717D02*
D03*
X02167169Y0058043D02*
D03*
X0029083Y0083003D02*
D03*
X00290831Y0091817D02*
D03*
D97*
X0033811Y006245D02*
D03*
X0211989D02*
D03*
X0033811Y008741D02*
D03*
D98*
X008505Y0062875D02*
D03*
Y0059775D02*
D03*
X00816714Y0062875D02*
D03*
Y0059775D02*
D03*
X00782929Y0062875D02*
D03*
Y0059775D02*
D03*
X00749143Y0062875D02*
D03*
Y0059775D02*
D03*
X00715358Y0062875D02*
D03*
Y0059775D02*
D03*
X00681572Y0062875D02*
D03*
Y0059775D02*
D03*
X00647786Y0062875D02*
D03*
Y0059775D02*
D03*
X00614001Y0062875D02*
D03*
Y0059775D02*
D03*
X00426Y00609D02*
D03*
Y0064D02*
D03*
D99*
X010455Y007965D02*
D03*
X010765D02*
D03*
X009385Y00421D02*
D03*
X009695D02*
D03*
X007785D02*
D03*
X008095D02*
D03*
X006185D02*
D03*
X006495D02*
D03*
X004585D02*
D03*
X004895D02*
D03*
X0196825D02*
D03*
X0199925D02*
D03*
X0180825D02*
D03*
X0183925D02*
D03*
X0164825D02*
D03*
X0167925D02*
D03*
X01488249D02*
D03*
X01519249D02*
D03*
X01328249D02*
D03*
X01359249D02*
D03*
X01168249D02*
D03*
X01199249D02*
D03*
D100*
X0083525Y01614D02*
D03*
Y01636D02*
D03*
X0099Y0161525D02*
D03*
Y0163725D02*
D03*
D101*
X006075Y0163425D02*
D03*
X006295D02*
D03*
X004975Y016625D02*
D03*
X005195D02*
D03*
D102*
X0065725Y01170469D02*
D03*
Y01158531D02*
D03*
X00645Y01025531D02*
D03*
Y01037469D02*
D03*
X00668Y00821031D02*
D03*
Y00832969D02*
D03*
X0093375Y00826531D02*
D03*
Y00838469D02*
D03*
X0091625Y00806281D02*
D03*
Y00818219D02*
D03*
X009785Y00910969D02*
D03*
Y00899031D02*
D03*
X00484Y00989531D02*
D03*
Y01001469D02*
D03*
X004735Y01034031D02*
D03*
Y01045969D02*
D03*
X007165Y01519781D02*
D03*
Y01531719D02*
D03*
X00693Y01520031D02*
D03*
Y01531969D02*
D03*
X0190835Y00579469D02*
D03*
Y00567531D02*
D03*
X0192135Y00579469D02*
D03*
Y00567531D02*
D03*
X0185735Y00591469D02*
D03*
Y00579531D02*
D03*
X010565Y00697969D02*
D03*
Y00686031D02*
D03*
X007915Y01143531D02*
D03*
Y01155469D02*
D03*
X0073425Y01166969D02*
D03*
Y01155031D02*
D03*
X0101592Y00686031D02*
D03*
Y00697969D02*
D03*
X0100292Y00686031D02*
D03*
Y00697969D02*
D03*
X0051125Y00574719D02*
D03*
Y00562781D02*
D03*
Y00523281D02*
D03*
Y00535219D02*
D03*
X0067075Y00574219D02*
D03*
Y00562281D02*
D03*
Y00522781D02*
D03*
Y00534719D02*
D03*
X006725Y01279031D02*
D03*
Y01290969D02*
D03*
X0068825Y01279031D02*
D03*
Y01290969D02*
D03*
X008295Y00573469D02*
D03*
Y00561531D02*
D03*
Y00522281D02*
D03*
Y00534219D02*
D03*
X0070925Y01284031D02*
D03*
Y01295969D02*
D03*
X0099Y00574719D02*
D03*
Y00562781D02*
D03*
Y00523281D02*
D03*
Y00535219D02*
D03*
D103*
X0049375Y0056275D02*
D03*
X0048425D02*
D03*
X0047475D02*
D03*
Y0053525D02*
D03*
X0048425D02*
D03*
X0049375D02*
D03*
X0081275Y0056175D02*
D03*
X0080325D02*
D03*
X0079375D02*
D03*
Y0053425D02*
D03*
X0080325D02*
D03*
X0081275D02*
D03*
X009725Y0056275D02*
D03*
X00963D02*
D03*
X009535D02*
D03*
Y0053525D02*
D03*
X00963D02*
D03*
X009725D02*
D03*
X010425Y0139475D02*
D03*
X01052D02*
D03*
X01033D02*
D03*
Y0142225D02*
D03*
X01052D02*
D03*
X010425D02*
D03*
X009875Y0137125D02*
D03*
X00978D02*
D03*
X00997D02*
D03*
Y0134375D02*
D03*
X00978D02*
D03*
X009875D02*
D03*
X00862Y0138125D02*
D03*
X008715D02*
D03*
X008525D02*
D03*
Y0140875D02*
D03*
X008715D02*
D03*
X00862D02*
D03*
X007965Y0133025D02*
D03*
X00806D02*
D03*
X008155D02*
D03*
Y0135775D02*
D03*
X00806D02*
D03*
X007965D02*
D03*
X0065325Y0056225D02*
D03*
X0064375D02*
D03*
X0063425D02*
D03*
Y0053475D02*
D03*
X0064375D02*
D03*
X0065325D02*
D03*
D104*
X0074275Y01284D02*
D03*
X0067475Y0133125D02*
D03*
X006855Y01121D02*
D03*
X0063775Y011395D02*
D03*
X007246Y01065D02*
D03*
X0075D02*
D03*
X006265Y01025D02*
D03*
X00729125Y00706D02*
D03*
X006992Y01065D02*
D03*
X007754D02*
D03*
X008008D02*
D03*
X0069975Y00706D02*
D03*
X00871Y00716D02*
D03*
X008295Y00706D02*
D03*
Y0067625D02*
D03*
X00871Y006905D02*
D03*
X007585Y00706D02*
D03*
X010145Y014055D02*
D03*
X0083575Y0139375D02*
D03*
X01032Y00686D02*
D03*
X00651Y0089325D02*
D03*
X0112325Y00899D02*
D03*
X0060775Y00926D02*
D03*
X00584Y00939D02*
D03*
X00573Y009055D02*
D03*
X0056704Y00973D02*
D03*
X00574749Y01110172D02*
D03*
X00872469Y011345D02*
D03*
X009825Y013845D02*
D03*
X0099Y015065D02*
D03*
X01883343Y00579531D02*
D03*
X00801Y01374D02*
D03*
X00835Y015065D02*
D03*
X00679Y01497413D02*
D03*
X0073425Y01122D02*
D03*
D105*
X009031Y01224719D02*
D03*
X009158D02*
D03*
X009285D02*
D03*
X009412D02*
D03*
X009539D02*
D03*
X0086235Y015555D02*
D03*
X0087505D02*
D03*
X0088775D02*
D03*
X0090045D02*
D03*
X0091315D02*
D03*
X007042D02*
D03*
X007169D02*
D03*
X007296D02*
D03*
X007423D02*
D03*
X00755D02*
D03*
D106*
X009285Y01284219D02*
D03*
X0088775Y01615D02*
D03*
X007296D02*
D03*
D107*
X0117604Y008465D02*
D03*
X0115904D02*
D03*
X0117604Y008775D02*
D03*
X0115904D02*
D03*
X0165864Y008465D02*
D03*
X0164164D02*
D03*
X0165864Y008775D02*
D03*
X0164164D02*
D03*
D108*
X019356Y005895D02*
D03*
Y0058D02*
D03*
Y00599D02*
D03*
X019631D02*
D03*
Y0058D02*
D03*
Y005895D02*
D03*
D109*
X0102125Y00899D02*
D03*
Y00854D02*
D03*
X0110075Y00899D02*
D03*
Y00854D02*
D03*
D110*
X00679Y015315D02*
D03*
Y015485D02*
D03*
D111*
X00645Y01054D02*
D03*
X00662D02*
D03*
D112*
X0061475Y0088125D02*
D03*
Y0089575D02*
D03*
X0063325D02*
D03*
Y0088125D02*
D03*
D113*
X00657031Y01014D02*
D03*
X00668969D02*
D03*
X00655031Y00993D02*
D03*
X00666969D02*
D03*
X00699531Y00788D02*
D03*
X00711469D02*
D03*
X00595469Y00888D02*
D03*
X00583531D02*
D03*
X00586469Y01071D02*
D03*
X00574531D02*
D03*
X00586469Y01058D02*
D03*
X00574531D02*
D03*
X00754219Y01534D02*
D03*
X00742281D02*
D03*
X00837031Y01478D02*
D03*
X00848969D02*
D03*
X01829969Y00594D02*
D03*
X01818031D02*
D03*
X00863031Y0153225D02*
D03*
X00874969D02*
D03*
X00888531Y015315D02*
D03*
X00900469D02*
D03*
X010165Y014915D02*
D03*
X01028438D02*
D03*
X01129219Y00705D02*
D03*
X01117281D02*
D03*
X00883969Y0121525D02*
D03*
X00872031D02*
D03*
X00860531Y011545D02*
D03*
X00872469D02*
D03*
X00903781Y0120475D02*
D03*
X00915719D02*
D03*
X00953219Y0120275D02*
D03*
X00941281D02*
D03*
X00586719Y01191D02*
D03*
X00574781D02*
D03*
X00563031Y011325D02*
D03*
X00574969D02*
D03*
D114*
X00472Y0166825D02*
D03*
Y0166175D02*
D03*
D115*
X004515Y016655D02*
D03*
X00458D02*
D03*
X00445Y016765D02*
D03*
X004385D02*
D03*
D116*
X003075Y01705D02*
D03*
X02166Y00322D02*
D03*
D117*
X00815Y01453D02*
D03*
X00835Y014625D02*
D03*
Y014435D02*
D03*
X009945Y014665D02*
D03*
X010145Y01476D02*
D03*
Y01457D02*
D03*
D118*
X00993Y0089875D02*
D03*
Y0091425D02*
D03*
X00627Y0104475D02*
D03*
Y0106025D02*
D03*
X007945Y01611D02*
D03*
Y015955D02*
D03*
X0094975Y01609D02*
D03*
Y015935D02*
D03*
X0099Y0128125D02*
D03*
Y0126575D02*
D03*
X0052575Y0054725D02*
D03*
Y0056275D02*
D03*
X006855Y0054675D02*
D03*
Y0056225D02*
D03*
X0084425Y0054575D02*
D03*
Y0056125D02*
D03*
X006965Y0133175D02*
D03*
Y0134725D02*
D03*
X010045Y0054725D02*
D03*
Y0056275D02*
D03*
D119*
X0056679Y00955D02*
D03*
X0055129D02*
D03*
X0056679Y00923D02*
D03*
X0055129D02*
D03*
X0056679Y00939D02*
D03*
X0055129D02*
D03*
X0095804Y008045D02*
D03*
X0097354D02*
D03*
Y0082075D02*
D03*
X0095804D02*
D03*
Y0078825D02*
D03*
X0097354D02*
D03*
X0086475Y01463D02*
D03*
X0084925D02*
D03*
X0086475Y01443D02*
D03*
X0084925D02*
D03*
X0085075Y01347D02*
D03*
X0083525D02*
D03*
X0082025Y01409D02*
D03*
X0083575D02*
D03*
X019036Y005995D02*
D03*
X019191D02*
D03*
X0104425Y014765D02*
D03*
X0102875D02*
D03*
X0104425Y014565D02*
D03*
X0102875D02*
D03*
X0103325Y013605D02*
D03*
X0101775D02*
D03*
X019356Y006165D02*
D03*
X019511D02*
D03*
X0099875Y014225D02*
D03*
X0101425D02*
D03*
X00983Y0071125D02*
D03*
X009675D02*
D03*
X00712Y0131525D02*
D03*
X006965D02*
D03*
D120*
X0184185Y00579D02*
D03*
Y0056D02*
D03*
X0181885D02*
D03*
Y005695D02*
D03*
Y00579D02*
D03*
X0107475Y00686D02*
D03*
Y00705D02*
D03*
X0109775D02*
D03*
Y006955D02*
D03*
Y00686D02*
D03*
X0075075Y011555D02*
D03*
Y011745D02*
D03*
X0077375D02*
D03*
Y01165D02*
D03*
Y011555D02*
D03*
D121*
X00872Y01174162D02*
D03*
X00853D02*
D03*
Y01197162D02*
D03*
X008625D02*
D03*
X00872D02*
D03*
X00574749Y01150162D02*
D03*
X00555749D02*
D03*
Y01173162D02*
D03*
X00565249D02*
D03*
X00574749D02*
D03*
D122*
X0072225Y0118831D02*
D03*
X0071575D02*
D03*
X0070925D02*
D03*
X0070275D02*
D03*
X0069625D02*
D03*
X0068975D02*
D03*
X0068325D02*
D03*
X0067675D02*
D03*
X0067025D02*
D03*
X0066375D02*
D03*
X0065725D02*
D03*
X0065075D02*
D03*
X0064425D02*
D03*
X0063775D02*
D03*
X0072225Y0126143D02*
D03*
X0071575D02*
D03*
X0070925D02*
D03*
X0070275D02*
D03*
X0069625D02*
D03*
X0068325D02*
D03*
X0068975D02*
D03*
X0067675D02*
D03*
X0067025D02*
D03*
X0066375D02*
D03*
X0065725D02*
D03*
X0065075D02*
D03*
X0064425D02*
D03*
X0063775D02*
D03*
D123*
X00944773Y00643749D02*
D03*
D124*
X00983Y006925D02*
D03*
Y00686D02*
D03*
Y006795D02*
D03*
Y00673D02*
D03*
Y006665D02*
D03*
Y0066D02*
D03*
Y006535D02*
D03*
Y00646999D02*
D03*
Y00640499D02*
D03*
Y00633999D02*
D03*
Y00627499D02*
D03*
Y00620999D02*
D03*
Y00614499D02*
D03*
Y00607999D02*
D03*
Y00601499D02*
D03*
Y00594999D02*
D03*
X00906546D02*
D03*
Y00601499D02*
D03*
Y00607999D02*
D03*
Y00614499D02*
D03*
Y00620999D02*
D03*
Y00627499D02*
D03*
Y00633999D02*
D03*
Y00640499D02*
D03*
Y00646999D02*
D03*
Y006535D02*
D03*
Y0066D02*
D03*
Y006665D02*
D03*
Y00673D02*
D03*
Y006795D02*
D03*
Y00686D02*
D03*
Y006925D02*
D03*
D125*
X0099Y012328D02*
D03*
Y012074D02*
D03*
Y01182D02*
D03*
X0191195Y006684D02*
D03*
X0193735D02*
D03*
X0196275D02*
D03*
X0095Y015564D02*
D03*
Y01531D02*
D03*
Y015056D02*
D03*
X00795Y015564D02*
D03*
Y01531D02*
D03*
Y015056D02*
D03*
D126*
X0048225Y016915D02*
D03*
X0040775D02*
D03*
D127*
X0048375Y017295D02*
D03*
X0040625D02*
D03*
D128*
X0047Y01702D02*
D03*
X0042D02*
D03*
X006671Y0032106D02*
D03*
X006009D02*
D03*
X005071D02*
D03*
X004409D02*
D03*
X009871D02*
D03*
X009209D02*
D03*
X008271D02*
D03*
X007609D02*
D03*
X020171D02*
D03*
X019509D02*
D03*
X018571D02*
D03*
X017909D02*
D03*
X016971D02*
D03*
X016309D02*
D03*
X015371D02*
D03*
X014709D02*
D03*
X013771D02*
D03*
X013109D02*
D03*
X012171D02*
D03*
X011509D02*
D03*
X0032106Y005914D02*
D03*
Y006576D02*
D03*
X0213694D02*
D03*
Y005914D02*
D03*
X0032106Y00841D02*
D03*
Y009072D02*
D03*
D129*
X02063997Y00760503D02*
D03*
X01104Y0148825D02*
D03*
X018895Y008508D02*
D03*
Y008762D02*
D03*
X017117D02*
D03*
X018895Y016382D02*
D03*
Y016636D02*
D03*
X017117D02*
D03*
X014069Y016382D02*
D03*
Y016636D02*
D03*
X012291D02*
D03*
X014069Y008508D02*
D03*
Y008762D02*
D03*
X012291D02*
D03*
X00725Y0148825D02*
D03*
X0088575D02*
D03*
X019631Y007605D02*
D03*
X00634Y00382003D02*
D03*
X00474Y00381D02*
D03*
X01984D02*
D03*
X00954D02*
D03*
X00794D02*
D03*
X01824D02*
D03*
X01664D02*
D03*
X01504D02*
D03*
X01344D02*
D03*
X01184D02*
D03*
X00374Y00625D02*
D03*
Y00765D02*
D03*
X02064Y006245D02*
D03*
X0091375Y01163D02*
D03*
X01068997Y00381003D02*
D03*
X0059425Y0074125D02*
D03*
X00609Y01371D02*
D03*
X004448Y009758D02*
D03*
D130*
X019149Y008508D02*
D03*
Y008762D02*
D03*
X019403Y008508D02*
D03*
Y008762D02*
D03*
X018387Y008508D02*
D03*
Y008762D02*
D03*
X018641Y008508D02*
D03*
Y008762D02*
D03*
X018133D02*
D03*
Y008508D02*
D03*
X017879Y008762D02*
D03*
Y008508D02*
D03*
X017625Y008762D02*
D03*
Y008508D02*
D03*
X017371Y008762D02*
D03*
Y008508D02*
D03*
X019149Y016382D02*
D03*
Y016636D02*
D03*
X019403Y016382D02*
D03*
Y016636D02*
D03*
X018387Y016382D02*
D03*
Y016636D02*
D03*
X018641Y016382D02*
D03*
Y016636D02*
D03*
X018133D02*
D03*
Y016382D02*
D03*
X017879Y016636D02*
D03*
Y016382D02*
D03*
X017625Y016636D02*
D03*
Y016382D02*
D03*
X017371Y016636D02*
D03*
Y016382D02*
D03*
X014323D02*
D03*
Y016636D02*
D03*
X014577Y016382D02*
D03*
Y016636D02*
D03*
X013561Y016382D02*
D03*
Y016636D02*
D03*
X013815Y016382D02*
D03*
Y016636D02*
D03*
X013307D02*
D03*
Y016382D02*
D03*
X013053Y016636D02*
D03*
Y016382D02*
D03*
X012799Y016636D02*
D03*
Y016382D02*
D03*
X012545Y016636D02*
D03*
Y016382D02*
D03*
X014323Y008508D02*
D03*
Y008762D02*
D03*
X014577Y008508D02*
D03*
Y008762D02*
D03*
X013561Y008508D02*
D03*
Y008762D02*
D03*
X013815Y008508D02*
D03*
Y008762D02*
D03*
X013307D02*
D03*
Y008508D02*
D03*
X013053Y008762D02*
D03*
Y008508D02*
D03*
X012799Y008762D02*
D03*
Y008508D02*
D03*
X012545Y008762D02*
D03*
Y008508D02*
D03*
X0055Y0053575D02*
D03*
Y0056115D02*
D03*
X0070925Y0053585D02*
D03*
Y0056125D02*
D03*
X0086825Y0053575D02*
D03*
Y0056115D02*
D03*
X0102875Y0053575D02*
D03*
Y0056115D02*
D03*
X0099Y015614D02*
D03*
Y01536D02*
D03*
X005195Y01689D02*
D03*
X005449D02*
D03*
X00835Y0156D02*
D03*
Y015346D02*
D03*
X003432Y009758D02*
D03*
Y010012D02*
D03*
X003686Y009758D02*
D03*
Y010012D02*
D03*
X00394Y009758D02*
D03*
Y010012D02*
D03*
X004194Y009758D02*
D03*
Y010012D02*
D03*
D131*
X017117Y008508D02*
D03*
Y016382D02*
D03*
X012291D02*
D03*
Y008508D02*
D03*
X004448Y010012D02*
D03*
D132*
X0055Y0051035D02*
D03*
X0070925Y0051045D02*
D03*
X0086825Y0051035D02*
D03*
X0102875Y0051035D02*
D03*
X0099Y015868D02*
D03*
X00835Y015854D02*
D03*
D133*
X01826Y0125414D02*
D03*
D134*
X02076Y01004D02*
D03*
X01826D02*
D03*
X01576D02*
D03*
Y01254D02*
D03*
X02076D02*
D03*
Y01504D02*
D03*
X01576D02*
D03*
X01826D02*
D03*
D135*
X02104Y01129D02*
D03*
X00354D02*
D03*
X02104Y01629D02*
D03*
X00354Y00379D02*
D03*
X02104D02*
D03*
X00354Y01629D02*
D03*
X01104Y01129D02*
D03*
Y01629D02*
D03*
D136*
X005703Y01689D02*
D03*
D137*
X0196365Y0072D02*
D03*
D138*
X0193825D02*
D03*
D139*
X00835Y017125D02*
D03*
X0068D02*
D03*
X0099D02*
D03*
D140*
X00785D02*
D03*
X0063D02*
D03*
X0094D02*
D03*
D141*
X00624Y015242D02*
D03*
D142*
Y015496D02*
D03*
Y01575D02*
D03*
M02*
