G04 Layer_Color=16711935*
%FSTAX44Y44*%
%MOMM*%
G71*
G01*
G75*
%ADD75C,0.1000*%
%ADD79C,0.1200*%
%ADD80C,0.0508*%
G36*
X00691375Y01185791D02*
X00688141D01*
Y01195214D01*
X00691375D01*
Y01185791D01*
D02*
G37*
G36*
X00710875Y01185788D02*
X00707683D01*
Y01195214D01*
X00710875D01*
Y01185788D01*
D02*
G37*
G36*
X00723875Y01185782D02*
X00720716D01*
Y01195214D01*
X00723875D01*
Y01185782D01*
D02*
G37*
G36*
X00678375Y01185811D02*
X00675118D01*
Y01195214D01*
X00678375D01*
Y01185811D01*
D02*
G37*
G36*
X00717375Y01185856D02*
X00714137D01*
Y01195214D01*
X00717375D01*
Y01185856D01*
D02*
G37*
G36*
X00697875Y01185856D02*
X0069463D01*
Y01195214D01*
X00697875D01*
Y01185856D01*
D02*
G37*
G36*
X00645875Y01185839D02*
X00642595D01*
Y01195214D01*
X00645875D01*
Y01185839D01*
D02*
G37*
G36*
X00658875Y01185744D02*
X00655546D01*
Y01195214D01*
X00658875D01*
Y01185744D01*
D02*
G37*
G36*
X00684875Y01185737D02*
X0068163D01*
Y01195214D01*
X00684875D01*
Y01185737D01*
D02*
G37*
G36*
X00665375Y01185723D02*
X00662058D01*
Y01195214D01*
X00665375D01*
Y01185723D01*
D02*
G37*
G36*
X00671875Y01185747D02*
X00668589D01*
Y01195214D01*
X00671875D01*
Y01185747D01*
D02*
G37*
G36*
X00704375Y01185769D02*
X0070118D01*
Y01195214D01*
X00704375D01*
Y01185769D01*
D02*
G37*
G36*
X00639375Y01185761D02*
X00636003D01*
Y01195214D01*
X00639375D01*
Y01185761D01*
D02*
G37*
G36*
X00652375Y01185751D02*
X00649031D01*
Y01195214D01*
X00652375D01*
Y01185751D01*
D02*
G37*
G36*
X00710875Y01254581D02*
X00707676D01*
Y0126387D01*
X00710875D01*
Y01254581D01*
D02*
G37*
G36*
X00671875D02*
X00668604D01*
Y0126387D01*
X00671875D01*
Y01254581D01*
D02*
G37*
G36*
X00684875Y01254577D02*
X00681628D01*
Y0126387D01*
X00684875D01*
Y01254577D01*
D02*
G37*
G36*
X00723875Y01254585D02*
X00720706D01*
Y0126387D01*
X00723875D01*
Y01254585D01*
D02*
G37*
G36*
X00652375Y01254616D02*
X00649031D01*
Y0126387D01*
X00652375D01*
Y01254616D01*
D02*
G37*
G36*
X00665375Y01254616D02*
X00662071D01*
Y0126387D01*
X00665375D01*
Y01254616D01*
D02*
G37*
G36*
X00691375Y01254595D02*
X00688144D01*
Y0126387D01*
X00691375D01*
Y01254595D01*
D02*
G37*
G36*
X00697875Y01254559D02*
X00694641D01*
Y0126387D01*
X00697875D01*
Y01254559D01*
D02*
G37*
G36*
X00639375Y01254553D02*
X00636085D01*
Y0126387D01*
X00639375D01*
Y01254553D01*
D02*
G37*
G36*
X00704375Y01254533D02*
X0070113D01*
Y0126387D01*
X00704375D01*
Y01254533D01*
D02*
G37*
G36*
X00658875Y0125456D02*
X00655597D01*
Y0126387D01*
X00658875D01*
Y0125456D01*
D02*
G37*
G36*
X00645875Y01254576D02*
X00642562D01*
Y0126387D01*
X00645875D01*
Y01254576D01*
D02*
G37*
G36*
X00678375Y0125457D02*
X00675118D01*
Y0126387D01*
X00678375D01*
Y0125457D01*
D02*
G37*
G36*
X00717375Y01254564D02*
X00714168D01*
Y0126387D01*
X00717375D01*
Y01254564D01*
D02*
G37*
D75*
X00482Y017415D02*
X00485D01*
X00408D02*
Y017535D01*
X00482D01*
Y017415D02*
Y017535D01*
X00405Y017415D02*
X00408D01*
X00485Y016875D02*
Y017415D01*
X00405Y016875D02*
Y017415D01*
Y016875D02*
X00485D01*
X0098825Y0089825D02*
Y0091475D01*
X0099775Y0089825D02*
Y0091475D01*
X0098825Y0089825D02*
X0099775D01*
X0098825Y0091475D02*
X0099775D01*
X0062225Y0104425D02*
Y0106075D01*
X0063175Y0104425D02*
Y0106075D01*
X0062225Y0104425D02*
X0063175D01*
X0062225Y0106075D02*
X0063175D01*
X0055079Y0095025D02*
X0056729D01*
X0055079Y0095975D02*
X0056729D01*
Y0095025D02*
Y0095975D01*
X0055079Y0095025D02*
Y0095975D01*
Y0091825D02*
X0056729D01*
X0055079Y0092775D02*
X0056729D01*
Y0091825D02*
Y0092775D01*
X0055079Y0091825D02*
Y0092775D01*
Y0093425D02*
X0056729D01*
X0055079Y0094375D02*
X0056729D01*
Y0093425D02*
Y0094375D01*
X0055079Y0093425D02*
Y0094375D01*
X0042415Y0101825D02*
Y0103475D01*
X0041465Y0101825D02*
Y0103475D01*
Y0101825D02*
X0042415D01*
X0041465Y0103475D02*
X0042415D01*
X0039925Y0101825D02*
Y0103475D01*
X0038975Y0101825D02*
Y0103475D01*
Y0101825D02*
X0039925D01*
X0038975Y0103475D02*
X0039925D01*
X0039875Y0093575D02*
Y0095225D01*
X0038925Y0093575D02*
Y0095225D01*
Y0093575D02*
X0039875D01*
X0038925Y0095225D02*
X0039875D01*
X0095754Y0080925D02*
X0097404D01*
X0095754Y0079975D02*
X0097404D01*
X0095754D02*
Y0080925D01*
X0097404Y0079975D02*
Y0080925D01*
X0095754Y00816D02*
X0097404D01*
X0095754Y008255D02*
X0097404D01*
Y00816D02*
Y008255D01*
X0095754Y00816D02*
Y008255D01*
Y00793D02*
X0097404D01*
X0095754Y007835D02*
X0097404D01*
X0095754D02*
Y00793D01*
X0097404Y007835D02*
Y00793D01*
X0084875Y0145825D02*
X0086525D01*
X0084875Y0146775D02*
X0086525D01*
Y0145825D02*
Y0146775D01*
X0084875Y0145825D02*
Y0146775D01*
X0079925Y01595D02*
Y016115D01*
X0078975Y01595D02*
Y016115D01*
X0079925D01*
X0078975Y01595D02*
X0079925D01*
X0084875Y0143825D02*
X0086525D01*
X0084875Y0144775D02*
X0086525D01*
Y0143825D02*
Y0144775D01*
X0084875Y0143825D02*
Y0144775D01*
X0083475Y0134225D02*
X0085125D01*
X0083475Y0135175D02*
X0085125D01*
Y0134225D02*
Y0135175D01*
X0083475Y0134225D02*
Y0135175D01*
X0081975Y0141375D02*
X0083625D01*
X0081975Y0140425D02*
X0083625D01*
X0081975D02*
Y0141375D01*
X0083625Y0140425D02*
Y0141375D01*
X0202775Y0061975D02*
X0204425D01*
X0202775Y0062925D02*
X0204425D01*
X0202775Y0061975D02*
Y0062925D01*
X0204425Y0061975D02*
Y0062925D01*
X019031Y0060425D02*
X019196D01*
X019031Y0059475D02*
X019196D01*
X019031D02*
Y0060425D01*
X019196Y0059475D02*
Y0060425D01*
X0102825Y0147175D02*
X0104475D01*
X0102825Y0148125D02*
X0104475D01*
Y0147175D02*
Y0148125D01*
X0102825Y0147175D02*
Y0148125D01*
X009545Y01593D02*
Y016095D01*
X00945Y01593D02*
Y016095D01*
X009545D01*
X00945Y01593D02*
X009545D01*
X0102825Y0145175D02*
X0104475D01*
X0102825Y0146125D02*
X0104475D01*
Y0145175D02*
Y0146125D01*
X0102825Y0145175D02*
Y0146125D01*
X0101725Y0135575D02*
X0103375D01*
X0101725Y0136525D02*
X0103375D01*
Y0135575D02*
Y0136525D01*
X0101725Y0135575D02*
Y0136525D01*
X019351Y0062125D02*
X019516D01*
X019351Y0061175D02*
X019516D01*
X019351D02*
Y0062125D01*
X019516Y0061175D02*
Y0062125D01*
X0099825Y0142725D02*
X0101475D01*
X0099825Y0141775D02*
X0101475D01*
X0099825D02*
Y0142725D01*
X0101475Y0141775D02*
Y0142725D01*
X0099475Y0126525D02*
Y0128175D01*
X0098525Y0126525D02*
Y0128175D01*
X0099475D01*
X0098525Y0126525D02*
X0099475D01*
X0040075Y0062925D02*
X0041725D01*
X0040075Y0061975D02*
X0041725D01*
Y0062925D01*
X0040075Y0061975D02*
Y0062925D01*
X0043875Y0060825D02*
Y0062475D01*
X0042925Y0060825D02*
Y0062475D01*
Y0060825D02*
X0043875D01*
X0042925Y0062475D02*
X0043875D01*
X01179Y0041375D02*
Y0043025D01*
X011885Y0041375D02*
Y0043025D01*
X01179D02*
X011885D01*
X01179Y0041375D02*
X011885D01*
X01339D02*
Y0043025D01*
X013485Y0041375D02*
Y0043025D01*
X01339D02*
X013485D01*
X01339Y0041375D02*
X013485D01*
X0125575Y0057225D02*
Y0058875D01*
X0124625Y0057225D02*
Y0058875D01*
Y0057225D02*
X0125575D01*
X0124625Y0058875D02*
X0125575D01*
X0125575Y0068325D02*
Y0069975D01*
X0124625Y0068325D02*
Y0069975D01*
Y0068325D02*
X0125575D01*
X0124625Y0069975D02*
X0125575D01*
X0123075Y0057225D02*
Y0058875D01*
X0122125Y0057225D02*
Y0058875D01*
Y0057225D02*
X0123075D01*
X0122125Y0058875D02*
X0123075D01*
X0123075Y0068325D02*
Y0069975D01*
X0122125Y0068325D02*
Y0069975D01*
Y0068325D02*
X0123075D01*
X0122125Y0069975D02*
X0123075D01*
X0120475Y0057225D02*
Y0058875D01*
X0119525Y0057225D02*
Y0058875D01*
Y0057225D02*
X0120475D01*
X0119525Y0058875D02*
X0120475D01*
X0120475Y0068325D02*
Y0069975D01*
X0119525Y0068325D02*
Y0069975D01*
Y0068325D02*
X0120475D01*
X0119525Y0069975D02*
X0120475D01*
X01499Y0041275D02*
Y0042925D01*
X015085Y0041275D02*
Y0042925D01*
X01499D02*
X015085D01*
X01499Y0041275D02*
X015085D01*
X01659Y0041475D02*
Y0043125D01*
X016685Y0041475D02*
Y0043125D01*
X01659D02*
X016685D01*
X01659Y0041475D02*
X016685D01*
X0117975Y0057225D02*
Y0058875D01*
X0117025Y0057225D02*
Y0058875D01*
Y0057225D02*
X0117975D01*
X0117025Y0058875D02*
X0117975D01*
X0117975Y0068425D02*
Y0070075D01*
X0117025Y0068425D02*
Y0070075D01*
Y0068425D02*
X0117975D01*
X0117025Y0070075D02*
X0117975D01*
X01819Y0041275D02*
Y0042925D01*
X018285Y0041275D02*
Y0042925D01*
X01819D02*
X018285D01*
X01819Y0041275D02*
X018285D01*
X0197925Y0041375D02*
Y0043025D01*
X0198875Y0041375D02*
Y0043025D01*
X0197925D02*
X0198875D01*
X0197925Y0041375D02*
X0198875D01*
X0135775Y0057225D02*
Y0058875D01*
X0134825Y0057225D02*
Y0058875D01*
Y0057225D02*
X0135775D01*
X0134825Y0058875D02*
X0135775D01*
X0135775Y0068425D02*
Y0070075D01*
X0134825Y0068425D02*
Y0070075D01*
Y0068425D02*
X0135775D01*
X0134825Y0070075D02*
X0135775D01*
X0133175Y0057225D02*
Y0058875D01*
X0132225Y0057225D02*
Y0058875D01*
Y0057225D02*
X0133175D01*
X0132225Y0058875D02*
X0133175D01*
X01332251Y0068425D02*
Y0070075D01*
X01322751Y0068425D02*
Y0070075D01*
Y0068425D02*
X01332251D01*
X01322751Y0070075D02*
X01332251D01*
X0130675Y0057225D02*
Y0058875D01*
X0129725Y0057225D02*
Y0058875D01*
Y0057225D02*
X0130675D01*
X0129725Y0058875D02*
X0130675D01*
X0130675Y0068325D02*
Y0069975D01*
X0129725Y0068325D02*
Y0069975D01*
Y0068325D02*
X0130675D01*
X0129725Y0069975D02*
X0130675D01*
X0128175Y0057225D02*
Y0058875D01*
X0127225Y0057225D02*
Y0058875D01*
Y0057225D02*
X0128175D01*
X0127225Y0058875D02*
X0128175D01*
X0128175Y0068325D02*
Y0069975D01*
X0127225Y0068325D02*
Y0069975D01*
Y0068325D02*
X0128175D01*
X0127225Y0069975D02*
X0128175D01*
X0150775Y0057225D02*
Y0058875D01*
X0149825Y0057225D02*
Y0058875D01*
Y0057225D02*
X0150775D01*
X0149825Y0058875D02*
X0150775D01*
X0150775Y0068325D02*
Y0069975D01*
X0149825Y0068325D02*
Y0069975D01*
Y0068325D02*
X0150775D01*
X0149825Y0069975D02*
X0150775D01*
X0148175Y0057225D02*
Y0058875D01*
X0147225Y0057225D02*
Y0058875D01*
Y0057225D02*
X0148175D01*
X0147225Y0058875D02*
X0148175D01*
Y0068325D02*
Y0069975D01*
X0147225Y0068325D02*
Y0069975D01*
Y0068325D02*
X0148175D01*
X0147225Y0069975D02*
X0148175D01*
X0145675Y0057225D02*
Y0058875D01*
X0144725Y0057225D02*
Y0058875D01*
Y0057225D02*
X0145675D01*
X0144725Y0058875D02*
X0145675D01*
X0145675Y0068325D02*
Y0069975D01*
X0144725Y0068325D02*
Y0069975D01*
Y0068325D02*
X0145675D01*
X0144725Y0069975D02*
X0145675D01*
X0143075Y0057225D02*
Y0058875D01*
X0142125Y0057225D02*
Y0058875D01*
Y0057225D02*
X0143075D01*
X0142125Y0058875D02*
X0143075D01*
X0143075Y0068425D02*
Y0070075D01*
X0142125Y0068425D02*
Y0070075D01*
Y0068425D02*
X0143075D01*
X0142125Y0070075D02*
X0143075D01*
X00789Y0040075D02*
Y0041725D01*
X007985Y0040075D02*
Y0041725D01*
X00789D02*
X007985D01*
X00789Y0040075D02*
X007985D01*
X00949Y0040175D02*
Y0041825D01*
X009585Y0040175D02*
Y0041825D01*
X00949D02*
X009585D01*
X00949Y0040175D02*
X009585D01*
X007935Y0043875D02*
X0081D01*
X007935Y0042925D02*
X0081D01*
Y0043875D01*
X007935Y0042925D02*
Y0043875D01*
X009535D02*
X0097D01*
X009535Y0042925D02*
X0097D01*
Y0043875D01*
X009535Y0042925D02*
Y0043875D01*
X0160875Y0057225D02*
Y0058875D01*
X0159925Y0057225D02*
Y0058875D01*
Y0057225D02*
X0160875D01*
X0159925Y0058875D02*
X0160875D01*
Y0068425D02*
Y0070075D01*
X0159925Y0068425D02*
Y0070075D01*
Y0068425D02*
X0160875D01*
X0159925Y0070075D02*
X0160875D01*
X0158375Y0057225D02*
Y0058875D01*
X0157425Y0057225D02*
Y0058875D01*
Y0057225D02*
X0158375D01*
X0157425Y0058875D02*
X0158375D01*
X0158375Y0068425D02*
Y0070075D01*
X0157425Y0068425D02*
Y0070075D01*
Y0068425D02*
X0158375D01*
X0157425Y0070075D02*
X0158375D01*
X0046925Y0039875D02*
Y0041525D01*
X0047875Y0039875D02*
Y0041525D01*
X0046925D02*
X0047875D01*
X0046925Y0039875D02*
X0047875D01*
X00629Y0040075D02*
Y0041725D01*
X006385Y0040075D02*
Y0041725D01*
X00629D02*
X006385D01*
X00629Y0040075D02*
X006385D01*
X0155775Y0057225D02*
Y0058875D01*
X0154825Y0057225D02*
Y0058875D01*
Y0057225D02*
X0155775D01*
X0154825Y0058875D02*
X0155775D01*
X0155835Y0068425D02*
Y0070075D01*
X0154885Y0068425D02*
Y0070075D01*
Y0068425D02*
X0155835D01*
X0154885Y0070075D02*
X0155835D01*
X0047375Y0043775D02*
X0049025D01*
X0047375Y0042825D02*
X0049025D01*
Y0043775D01*
X0047375Y0042825D02*
Y0043775D01*
X006335Y0043875D02*
X0065D01*
X006335Y0042925D02*
X0065D01*
Y0043875D01*
X006335Y0042925D02*
Y0043875D01*
X0153275Y0057225D02*
Y0058875D01*
X0152325Y0057225D02*
Y0058875D01*
Y0057225D02*
X0153275D01*
X0152325Y0058875D02*
X0153275D01*
X0153275Y0068425D02*
Y0070075D01*
X0152325Y0068425D02*
Y0070075D01*
Y0068425D02*
X0153275D01*
X0152325Y0070075D02*
X0153275D01*
X00967Y007065D02*
X009835D01*
X00967Y00716D02*
X009835D01*
Y007065D02*
Y00716D01*
X00967Y007065D02*
Y00716D01*
X00521Y0054675D02*
Y0056325D01*
X005305Y0054675D02*
Y0056325D01*
X00521Y0054675D02*
X005305D01*
X00521Y0056325D02*
X005305D01*
X0068075Y0054625D02*
Y0056275D01*
X0069025Y0054625D02*
Y0056275D01*
X0068075Y0054625D02*
X0069025D01*
X0068075Y0056275D02*
X0069025D01*
X008395Y0054525D02*
Y0056175D01*
X00849Y0054525D02*
Y0056175D01*
X008395Y0054525D02*
X00849D01*
X008395Y0056175D02*
X00849D01*
X0069175Y0133125D02*
Y0134775D01*
X0070125Y0133125D02*
Y0134775D01*
X0069175Y0133125D02*
X0070125D01*
X0069175Y0134775D02*
X0070125D01*
X0099975Y0054675D02*
Y0056325D01*
X0100925Y0054675D02*
Y0056325D01*
X0099975Y0054675D02*
X0100925D01*
X0099975Y0056325D02*
X0100925D01*
X00696Y013105D02*
X007125D01*
X00696Y0132D02*
X007125D01*
Y013105D02*
Y0132D01*
X00696Y013105D02*
Y0132D01*
D79*
X00317938Y005889D02*
G03*
X00324062Y00594044I00003122J000025D01*
G01*
X00324062Y00654957D02*
G03*
X00317938Y006601I-00003002J00002643D01*
G01*
X00317938Y008385D02*
G03*
X00324062Y00843643I00003122J000025D01*
G01*
X00324062Y00904557D02*
G03*
X00317938Y009097I-00003002J00002643D01*
G01*
X02140062Y006601D02*
G03*
X02133938Y00654956I-00003122J-000025D01*
G01*
X02133938Y00594043D02*
G03*
X02140062Y005889I00003002J-00002643D01*
G01*
X020196Y00317938D02*
G03*
X02014456Y00324062I-000025J00003122D01*
G01*
X01953543Y00324062D02*
G03*
X019484Y00317938I-00002643J-00003002D01*
G01*
X018596Y00317938D02*
G03*
X01854457Y00324062I-000025J00003122D01*
G01*
X01793543Y00324062D02*
G03*
X017884Y00317938I-00002643J-00003002D01*
G01*
X016996Y00317938D02*
G03*
X01694457Y00324062I-000025J00003122D01*
G01*
X01633543Y00324062D02*
G03*
X016284Y00317938I-00002643J-00003002D01*
G01*
X015396Y00317938D02*
G03*
X01534457Y00324062I-000025J00003122D01*
G01*
X01473543Y00324062D02*
G03*
X014684Y00317938I-00002643J-00003002D01*
G01*
X013796Y00317938D02*
G03*
X01374457Y00324062I-000025J00003122D01*
G01*
X01313543Y00324062D02*
G03*
X013084Y00317938I-00002643J-00003002D01*
G01*
X012196Y00317938D02*
G03*
X01214457Y00324062I-000025J00003122D01*
G01*
X01153543Y00324062D02*
G03*
X011484Y00317938I-00002643J-00003002D01*
G01*
X009896Y00317938D02*
G03*
X00984456Y00324062I-000025J00003122D01*
G01*
X00923543Y00324062D02*
G03*
X009184Y00317938I-00002643J-00003002D01*
G01*
X008296Y00317938D02*
G03*
X00824456Y00324062I-000025J00003122D01*
G01*
X00763543Y00324062D02*
G03*
X007584Y00317938I-00002643J-00003002D01*
G01*
X006696Y00317938D02*
G03*
X00664456Y00324062I-000025J00003122D01*
G01*
X00603543Y00324062D02*
G03*
X005984Y00317938I-00002643J-00003002D01*
G01*
X00443543Y00324062D02*
G03*
X004384Y00317938I-00002643J-00003002D01*
G01*
X005096Y00317938D02*
G03*
X00504456Y00324062I-000025J00003122D01*
G01*
X0114715Y00254D02*
X011484D01*
X020196D02*
X02129D01*
X02204Y006601D02*
Y01679D01*
Y00329D02*
Y005889D01*
X018596Y00254D02*
X019484D01*
X016996D02*
X017884D01*
X015396D02*
X016284D01*
X013796D02*
X014684D01*
X012196D02*
X013084D01*
X009896D02*
X0114715D01*
X008296D02*
X009184D01*
X006696D02*
X007584D01*
X005096D02*
X005984D01*
X00329D02*
X004384D01*
X00254Y009097D02*
Y01679D01*
Y006601D02*
Y008385D01*
Y00329D02*
Y005889D01*
Y00329D02*
X00329Y00254D01*
X00254Y006601D02*
X00317938D01*
X0032406Y00594042D02*
Y00654957D01*
X00254Y005889D02*
X00317938D01*
X00254Y009097D02*
X00317938D01*
X0032406Y00843642D02*
Y00904557D01*
X00254Y008385D02*
X00317938D01*
X02140062Y005889D02*
X02204D01*
X0213394Y00594043D02*
Y00654958D01*
X02140062Y006601D02*
X02204D01*
X019484Y00254D02*
Y00317938D01*
X01953543Y0032406D02*
X02014458D01*
X020196Y00254D02*
Y00317938D01*
X017884Y00254D02*
Y00317938D01*
X01793543Y0032406D02*
X01854458D01*
X018596Y00254D02*
Y00317938D01*
X016284Y00254D02*
Y00317938D01*
X01633543Y0032406D02*
X01694458D01*
X016996Y00254D02*
Y00317938D01*
X014684Y00254D02*
Y00317938D01*
X01473543Y0032406D02*
X01534458D01*
X015396Y00254D02*
Y00317938D01*
X013084Y00254D02*
Y00317938D01*
X01313543Y0032406D02*
X01374458D01*
X013796Y00254D02*
Y00317938D01*
X011484Y00254D02*
Y00317938D01*
X01153543Y0032406D02*
X01214458D01*
X012196Y00254D02*
Y00317938D01*
X009184Y00254D02*
Y00317938D01*
X00923543Y0032406D02*
X00984458D01*
X009896Y00254D02*
Y00317938D01*
X007584Y00254D02*
Y00317938D01*
X00763543Y0032406D02*
X00824458D01*
X008296Y00254D02*
Y00317938D01*
X005984Y00254D02*
Y00317938D01*
X00603543Y0032406D02*
X00664458D01*
X006696Y00254D02*
Y00317938D01*
X005096Y00254D02*
Y00317938D01*
X00443543Y0032406D02*
X00504458D01*
X004384Y00254D02*
Y00317938D01*
X00329Y01754D02*
X02129D01*
X01676Y0110414D02*
X01976D01*
X01676Y0140414D02*
X01976D01*
X01676Y0110414D02*
Y0140414D01*
X01976Y0110414D02*
Y0140414D01*
X02129Y00254D02*
X02204Y00329D01*
X00254Y01679D02*
X00329Y01754D01*
X02129D02*
X02204Y01679D01*
X004687Y016597D02*
Y016681D01*
X004709Y016703D01*
X004687Y016597D02*
X004753D01*
Y016703D01*
X004709D02*
X004753D01*
X0045165Y016622D02*
X0046005D01*
X0044945Y016644D02*
X0045165Y016622D01*
X0046005D02*
Y016688D01*
X0044945D02*
X0046005D01*
X0044945Y016644D02*
Y016688D01*
X0043645Y016798D02*
X0044485D01*
X0044705Y016776D01*
X0043645Y016732D02*
Y016798D01*
Y016732D02*
X0044705D01*
Y016776D01*
X0183865Y005545D02*
Y005845D01*
X0182205Y005545D02*
X0183865D01*
X0182205Y00578967D02*
X01827583Y005845D01*
X0183865D01*
X0182205Y005545D02*
Y00578967D01*
X0107795Y006805D02*
Y007105D01*
X0109455D01*
X01089017Y006805D02*
X0109455Y00686033D01*
X0107795Y006805D02*
X01089017D01*
X0109455Y00686033D02*
Y007105D01*
X0075395Y0115D02*
Y0118D01*
X0077055D01*
X00765017Y0115D02*
X0077055Y01155533D01*
X0075395Y0115D02*
X00765017D01*
X0077055Y01155533D02*
Y0118D01*
X008475Y01177362D02*
X008775D01*
X008475D02*
Y01193962D01*
X00871967D02*
X008775Y01188429D01*
Y01177362D02*
Y01188429D01*
X008475Y01193962D02*
X00871967D01*
X00550249Y01153362D02*
X00580249D01*
X00550249D02*
Y01169962D01*
X00574716D02*
X00580249Y01164429D01*
Y01153362D02*
Y01164429D01*
X00550249Y01169962D02*
X00574716D01*
D80*
X0062962Y0119724D02*
Y012525D01*
Y0119724D02*
X0073038D01*
Y012525D01*
X0062962D02*
X0073038D01*
M02*
